<?xml version="1.0" encoding="utf-8"?>
<!-- Generator: Adobe Illustrator 22.0.0, SVG Export Plug-In . SVG Version: 6.00 Build 0)  -->
<svg version="1.1" id="Layer_1" xmlns="http://www.w3.org/2000/svg" xmlns:xlink="http://www.w3.org/1999/xlink" x="0px" y="0px"
	 viewBox="0 0 306 304" style="enable-background:new 0 0 306 304;" xml:space="preserve">
<style type="text/css">
	.st0{fill:#FFFFFF;}
</style>
<circle class="st0" cx="152.9" cy="151.9" r="152"/>
<g>
	<path d="M153.7,14.5c0-0.2,0-0.2,0-0.2l0,0c0,0,0,0.2-0.2,0.2c0,0,0-0.2-0.2-0.2l0,0c0,0,0,0.2,0,0.2
		C148.7,23.7,34.9,237,38.9,236.8c5.4-0.2,10.9,0,16.2,0.4c2.1,0.2,2.9-1,3.7-2.5c5.6-10.5,86.1-160.9,94.7-176.2
		c8.4,15.2,88.3,165.7,93.8,176.2c0.9,1.5,1.6,2.6,3.7,2.5c5.4-0.2,10.7-0.5,16.1-0.4C271.2,237,158.4,23.7,153.7,14.5z"/>
	<path d="M230.5,237.4c-1.9-4-4.7-8.9-7.4-13.8c-1.5-2.6-1.9-3.3-7.2-3.3c-13.4,0-38.2-0.2-62.1-0.4l0,0h-0.2h-0.2l0,0
		c-23.8,0.2-48.3,0.4-61.5,0.4c-5.4,0-5.8,0.6-7.2,3.3c-2.7,4.9-5.4,9.6-7.2,13.8c2.7,0,39.6,0,76.3-0.2
		C190.5,237.4,227.6,237.4,230.5,237.4z"/>
</g>
</svg>
