<!--?xml version="1.0" encoding="utf-8"?-->
<!-- Generator: Adobe Illustrator 22.0.0, SVG Export Plug-In . SVG Version: 6.00 Build 0)  -->
<svg version="1.1" id="Layer_1" xmlns="http://www.w3.org/2000/svg" xmlns:xlink="http://www.w3.org/1999/xlink" x="0px" y="0px" viewBox="0 0 644 639.8" style="" xml:space="preserve">
<style type="text/css">
	.st0{display:none;}
	.st1{display:inline;}
	.st2{fill:none;stroke:#1E120D;stroke-linecap:round;stroke-linejoin:round;stroke-miterlimit:10;}
	.st3{fill:none;stroke:#000000;stroke-width:16;stroke-miterlimit:10;}
	.st4{display:none;fill:none;stroke:#000000;stroke-width:2;stroke-miterlimit:10;}
</style>
<g class="st0">
	<g class="st1">
		<path class="st2 AEzrhjOi_0" d="M310.4,464.3L329.6,483.5"></path>
		<path class="st2 AEzrhjOi_1" d="M335,480.9L327,488.9"></path>
		<path class="st2 AEzrhjOi_2" d="M334.9,484.7L330.8,488.8"></path>
		<path class="st2 AEzrhjOi_3" d="M334.1,488L336,489.9"></path>
		<path class="st2 AEzrhjOi_4" d="M305,466.9L313,458.9"></path>
		<path class="st2 AEzrhjOi_5" d="M305.1,463.1L309.2,459"></path>
		<path class="st2 AEzrhjOi_6" d="M305.9,459.8L304,457.9"></path>
	</g>
	<g class="st1">
		<path class="st2 AEzrhjOi_7" d="M329.6,464.3L310.4,483.5"></path>
		<path class="st2 AEzrhjOi_8" d="M313,488.9L305,480.9"></path>
		<path class="st2 AEzrhjOi_9" d="M309.2,488.8L305.1,484.7"></path>
		<path class="st2 AEzrhjOi_10" d="M305.9,488L304,489.9"></path>
		<path class="st2 AEzrhjOi_11" d="M327,458.9L335,466.9"></path>
		<path class="st2 AEzrhjOi_12" d="M330.8,459L334.9,463.1"></path>
		<path class="st2 AEzrhjOi_13" d="M334.1,459.8L336,457.9"></path>
	</g>
</g>
<g>
	<path class="st3 AEzrhjOi_14" d="M318.4,35.1c0,0-300.8,587.4-300.8,587.4c0.2,0,11.7,0.7,22.3,1.1c1.4,0,3.2,0.1,5.2-0.8
		c2.5-1.2,3.9-3.6,5.5-6.3C66.8,586.4,297.9,154.7,322.4,111c24.1,43.7,253.4,475.3,269,505.4c1.6,2.7,3.1,5.1,5.5,6.3
		c2.2,1.1,4.3,0.9,5.2,0.8c12.5-0.8,26.5,1.6,25.2-0.9C594.8,556.8,421.1,232.2,318.4,35.1z"></path>
	<path class="st3 AEzrhjOi_15" d="M499.5,623.7c-4.3-5.7-10.7-12.7-17-19.7c-3.4-3.8-4.3-4.7-16.6-4.7c-30.7,0-87.7-0.3-142.7-0.6l0,0h-0.4h-0.4
		l0,0c-54.6,0.3-110.9,0.6-141.3,0.6c-12.3,0-13.2,0.9-16.4,4.7c-6.3,7-12.3,13.8-16.6,19.7c6.3,0,91.1,0,175.2-0.3
		C407.5,623.7,492.9,623.7,499.5,623.7z"></path>
</g>
<g class="st0">
	<path class="st1 AEzrhjOi_16" d="M320.9,254.6L320.9,254.6C320.9,254.5,320.9,254.5,320.9,254.6C320.8,254.5,320.8,254.6,320.9,254.6
		c0-0.1,0-0.1-0.1-0.1C320.8,254.5,320.8,254.5,320.9,254.6C320.8,254.6,320.8,254.6,320.9,254.6c-1.8,3.4-44,82.5-42.5,82.4
		c2,0,4,0,6,0.1c0.8,0,1.1-0.4,1.4-0.9c2.1-3.9,31.9-59.7,35.1-65.3c3.1,5.7,32.7,61.4,34.8,65.3c0.3,0.6,0.6,1,1.4,0.9
		c2-0.1,4-0.2,6-0.1C364.4,337.1,322.6,258.1,320.9,254.6z"></path>
	<path class="st1 AEzrhjOi_17" d="M349.3,337.3c-0.7-1.5-1.7-3.3-2.7-5.1c-0.5-1-0.7-1.2-2.7-1.2c-5,0-14.1-0.1-23-0.1l0,0c0,0,0,0-0.1,0
		c0,0,0,0-0.1,0l0,0c-8.8,0.1-17.9,0.1-22.8,0.1c-2,0-2.1,0.2-2.7,1.2c-1,1.8-2,3.6-2.7,5.1c1,0,14.7,0,28.3-0.1
		C334.5,337.3,348.3,337.3,349.3,337.3z"></path>
</g>
<g>
	<g>
		<path d="M708,350.4c1.9,0,1.9-3,0-3S706.1,350.4,708,350.4L708,350.4z" class="AEzrhjOi_18"></path>
	</g>
</g>
<path class="st4 AEzrhjOi_19" d="M369.5,337.9L321.3,243.9L270.5,337.9"></path>
<path class="st4 AEzrhjOi_20" d="M280,337.9L363,337.9"></path>
<style data-made-with="vivus-instant">.AEzrhjOi_0{stroke-dasharray:28 30;stroke-dashoffset:29;animation:AEzrhjOi_draw_0 2400ms ease-in-out 0ms infinite,AEzrhjOi_fade 2400ms linear 0ms infinite;}.AEzrhjOi_1{stroke-dasharray:12 14;stroke-dashoffset:13;animation:AEzrhjOi_draw_1 2400ms ease-in-out 0ms infinite,AEzrhjOi_fade 2400ms linear 0ms infinite;}.AEzrhjOi_2{stroke-dasharray:6 8;stroke-dashoffset:7;animation:AEzrhjOi_draw_2 2400ms ease-in-out 0ms infinite,AEzrhjOi_fade 2400ms linear 0ms infinite;}.AEzrhjOi_3{stroke-dasharray:3 5;stroke-dashoffset:4;animation:AEzrhjOi_draw_3 2400ms ease-in-out 0ms infinite,AEzrhjOi_fade 2400ms linear 0ms infinite;}.AEzrhjOi_4{stroke-dasharray:12 14;stroke-dashoffset:13;animation:AEzrhjOi_draw_4 2400ms ease-in-out 0ms infinite,AEzrhjOi_fade 2400ms linear 0ms infinite;}.AEzrhjOi_5{stroke-dasharray:6 8;stroke-dashoffset:7;animation:AEzrhjOi_draw_5 2400ms ease-in-out 0ms infinite,AEzrhjOi_fade 2400ms linear 0ms infinite;}.AEzrhjOi_6{stroke-dasharray:3 5;stroke-dashoffset:4;animation:AEzrhjOi_draw_6 2400ms ease-in-out 0ms infinite,AEzrhjOi_fade 2400ms linear 0ms infinite;}.AEzrhjOi_7{stroke-dasharray:28 30;stroke-dashoffset:29;animation:AEzrhjOi_draw_7 2400ms ease-in-out 0ms infinite,AEzrhjOi_fade 2400ms linear 0ms infinite;}.AEzrhjOi_8{stroke-dasharray:12 14;stroke-dashoffset:13;animation:AEzrhjOi_draw_8 2400ms ease-in-out 0ms infinite,AEzrhjOi_fade 2400ms linear 0ms infinite;}.AEzrhjOi_9{stroke-dasharray:6 8;stroke-dashoffset:7;animation:AEzrhjOi_draw_9 2400ms ease-in-out 0ms infinite,AEzrhjOi_fade 2400ms linear 0ms infinite;}.AEzrhjOi_10{stroke-dasharray:3 5;stroke-dashoffset:4;animation:AEzrhjOi_draw_10 2400ms ease-in-out 0ms infinite,AEzrhjOi_fade 2400ms linear 0ms infinite;}.AEzrhjOi_11{stroke-dasharray:12 14;stroke-dashoffset:13;animation:AEzrhjOi_draw_11 2400ms ease-in-out 0ms infinite,AEzrhjOi_fade 2400ms linear 0ms infinite;}.AEzrhjOi_12{stroke-dasharray:6 8;stroke-dashoffset:7;animation:AEzrhjOi_draw_12 2400ms ease-in-out 0ms infinite,AEzrhjOi_fade 2400ms linear 0ms infinite;}.AEzrhjOi_13{stroke-dasharray:3 5;stroke-dashoffset:4;animation:AEzrhjOi_draw_13 2400ms ease-in-out 0ms infinite,AEzrhjOi_fade 2400ms linear 0ms infinite;}.AEzrhjOi_14{stroke-dasharray:2547 2549;stroke-dashoffset:2548;animation:AEzrhjOi_draw_14 2400ms ease-in-out 0ms infinite,AEzrhjOi_fade 2400ms linear 0ms infinite;}.AEzrhjOi_15{stroke-dasharray:724 726;stroke-dashoffset:725;animation:AEzrhjOi_draw_15 2400ms ease-in-out 0ms infinite,AEzrhjOi_fade 2400ms linear 0ms infinite;}.AEzrhjOi_16{stroke-dasharray:350 352;stroke-dashoffset:351;animation:AEzrhjOi_draw_16 2400ms ease-in-out 0ms infinite,AEzrhjOi_fade 2400ms linear 0ms infinite;}.AEzrhjOi_17{stroke-dasharray:121 123;stroke-dashoffset:122;animation:AEzrhjOi_draw_17 2400ms ease-in-out 0ms infinite,AEzrhjOi_fade 2400ms linear 0ms infinite;}.AEzrhjOi_18{stroke-dasharray:10 12;stroke-dashoffset:11;animation:AEzrhjOi_draw_18 2400ms ease-in-out 0ms infinite,AEzrhjOi_fade 2400ms linear 0ms infinite;}.AEzrhjOi_19{stroke-dasharray:213 215;stroke-dashoffset:214;animation:AEzrhjOi_draw_19 2400ms ease-in-out 0ms infinite,AEzrhjOi_fade 2400ms linear 0ms infinite;}.AEzrhjOi_20{stroke-dasharray:83 85;stroke-dashoffset:84;animation:AEzrhjOi_draw_20 2400ms ease-in-out 0ms infinite,AEzrhjOi_fade 2400ms linear 0ms infinite;}@keyframes AEzrhjOi_draw{100%{stroke-dashoffset:0;}}@keyframes AEzrhjOi_fade{0%{stroke-opacity:1;}83.33333333333334%{stroke-opacity:1;}100%{stroke-opacity:0;}}@keyframes AEzrhjOi_draw_0{20.833333333333336%{stroke-dashoffset: 29}21.120416567672446%{ stroke-dashoffset: 0;}100%{ stroke-dashoffset: 0;}}@keyframes AEzrhjOi_draw_1{21.120416567672446%{stroke-dashoffset: 13}21.249109052031358%{ stroke-dashoffset: 0;}100%{ stroke-dashoffset: 0;}}@keyframes AEzrhjOi_draw_2{21.24910905203136%{stroke-dashoffset: 7}21.3184050051477%{ stroke-dashoffset: 0;}100%{ stroke-dashoffset: 0;}}@keyframes AEzrhjOi_draw_3{21.318405005147696%{stroke-dashoffset: 4}21.358002692642746%{ stroke-dashoffset: 0;}100%{ stroke-dashoffset: 0;}}@keyframes AEzrhjOi_draw_4{21.358002692642753%{stroke-dashoffset: 13}21.486695177001664%{ stroke-dashoffset: 0;}100%{ stroke-dashoffset: 0;}}@keyframes AEzrhjOi_draw_5{21.486695177001664%{stroke-dashoffset: 7}21.555991130118002%{ stroke-dashoffset: 0;}100%{ stroke-dashoffset: 0;}}@keyframes AEzrhjOi_draw_6{21.555991130118002%{stroke-dashoffset: 4}21.595588817613056%{ stroke-dashoffset: 0;}100%{ stroke-dashoffset: 0;}}@keyframes AEzrhjOi_draw_7{21.595588817613056%{stroke-dashoffset: 29}21.88267205195217%{ stroke-dashoffset: 0;}100%{ stroke-dashoffset: 0;}}@keyframes AEzrhjOi_draw_8{21.882672051952166%{stroke-dashoffset: 13}22.011364536311078%{ stroke-dashoffset: 0;}100%{ stroke-dashoffset: 0;}}@keyframes AEzrhjOi_draw_9{22.011364536311078%{stroke-dashoffset: 7}22.080660489427416%{ stroke-dashoffset: 0;}100%{ stroke-dashoffset: 0;}}@keyframes AEzrhjOi_draw_10{22.080660489427416%{stroke-dashoffset: 4}22.120258176922466%{ stroke-dashoffset: 0;}100%{ stroke-dashoffset: 0;}}@keyframes AEzrhjOi_draw_11{22.120258176922466%{stroke-dashoffset: 13}22.24895066128138%{ stroke-dashoffset: 0;}100%{ stroke-dashoffset: 0;}}@keyframes AEzrhjOi_draw_12{22.24895066128138%{stroke-dashoffset: 7}22.31824661439772%{ stroke-dashoffset: 0;}100%{ stroke-dashoffset: 0;}}@keyframes AEzrhjOi_draw_13{22.31824661439772%{stroke-dashoffset: 4}22.35784430189277%{ stroke-dashoffset: 0;}100%{ stroke-dashoffset: 0;}}@keyframes AEzrhjOi_draw_14{22.35784430189277%{stroke-dashoffset: 2548}47.5815712362398%{ stroke-dashoffset: 0;}100%{ stroke-dashoffset: 0;}}@keyframes AEzrhjOi_draw_15{47.5815712362398%{stroke-dashoffset: 725}54.758652094717675%{ stroke-dashoffset: 0;}100%{ stroke-dashoffset: 0;}}@keyframes AEzrhjOi_draw_16{54.758652094717675%{stroke-dashoffset: 351}58.23334917240833%{ stroke-dashoffset: 0;}100%{ stroke-dashoffset: 0;}}@keyframes AEzrhjOi_draw_17{58.233349172408346%{stroke-dashoffset: 122}59.44107864100737%{ stroke-dashoffset: 0;}100%{ stroke-dashoffset: 0;}}@keyframes AEzrhjOi_draw_18{59.44107864100736%{stroke-dashoffset: 11}59.54997228161874%{ stroke-dashoffset: 0;}100%{ stroke-dashoffset: 0;}}@keyframes AEzrhjOi_draw_19{59.54997228161874%{stroke-dashoffset: 214}61.66844856260394%{ stroke-dashoffset: 0;}100%{ stroke-dashoffset: 0;}}@keyframes AEzrhjOi_draw_20{61.66844856260394%{stroke-dashoffset: 84}62.5%{ stroke-dashoffset: 0;}100%{ stroke-dashoffset: 0;}}</style></svg>
