<?xml version="1.0" encoding="utf-8"?>
<!-- Generator: Adobe Illustrator 22.0.0, SVG Export Plug-In . SVG Version: 6.00 Build 0)  -->
<svg version="1.1" id="Layer_1" xmlns="http://www.w3.org/2000/svg" xmlns:xlink="http://www.w3.org/1999/xlink" x="0px" y="0px"
	 viewBox="0 0 726.5 189.5" style="enable-background:new 0 0 726.5 189.5;" xml:space="preserve">
<style type="text/css">
	.st0{display:none;}
	.st1{display:inline;}
	.st2{fill:none;stroke:#1E120D;stroke-linecap:round;stroke-linejoin:round;stroke-miterlimit:10;}
	.st3{enable-background:new    ;}
	.st4{display:none;fill:none;stroke:#000000;stroke-width:2;stroke-miterlimit:10;}
</style>
<g class="st0">
	<g class="st1">
		<line class="st2" x1="96.4" y1="287.4" x2="115.6" y2="306.6"/>
		<line class="st2" x1="121" y1="304" x2="113" y2="312"/>
		<line class="st2" x1="120.9" y1="307.8" x2="116.8" y2="311.9"/>
		<line class="st2" x1="120.1" y1="311.1" x2="122" y2="313"/>
		<line class="st2" x1="91" y1="290" x2="99" y2="282"/>
		<line class="st2" x1="91.1" y1="286.2" x2="95.2" y2="282.1"/>
		<line class="st2" x1="91.9" y1="282.9" x2="90" y2="281"/>
	</g>
	<g class="st1">
		<line class="st2" x1="115.6" y1="287.4" x2="96.4" y2="306.6"/>
		<line class="st2" x1="99" y1="312" x2="91" y2="304"/>
		<line class="st2" x1="95.2" y1="311.9" x2="91.1" y2="307.8"/>
		<line class="st2" x1="91.9" y1="311.1" x2="90" y2="313"/>
		<line class="st2" x1="113" y1="282" x2="121" y2="290"/>
		<line class="st2" x1="116.8" y1="282.1" x2="120.9" y2="286.2"/>
		<line class="st2" x1="120.1" y1="282.9" x2="122" y2="281"/>
	</g>
</g>
<g>
	<path d="M107.1,7c0-0.1,0-0.2,0-0.2l0,0c0,0,0,0.1-0.1,0.1c0,0,0-0.1-0.1-0.1l0,0c0,0,0,0.1,0,0.2c-3.8,7.3-94.8,177.9-91.6,177.8
		c4.3-0.1,8.7,0,13,0.3c1.7,0.1,2.3-0.8,3-2c4.5-8.4,68.9-128.7,75.7-140.9c6.7,12.2,70.6,132.5,75,140.9c0.7,1.2,1.3,2.1,3,2
		c4.3-0.2,8.6-0.4,12.9-0.3C201.1,184.9,110.9,14.4,107.1,7z"/>
	<path d="M168.5,185.2c-1.5-3.2-3.7-7.1-5.9-11c-1.2-2.1-1.5-2.6-5.8-2.6c-10.7,0-30.5-0.2-49.7-0.3l0,0H107h-0.1l0,0
		c-19,0.2-38.6,0.3-49.2,0.3c-4.3,0-4.6,0.5-5.7,2.6c-2.2,3.9-4.3,7.7-5.8,11c2.2,0,31.7,0,61-0.2
		C136.5,185.2,166.2,185.2,168.5,185.2z"/>
</g>
<g class="st0">
	<path class="st1" d="M106.9,77.7L106.9,77.7C106.9,77.6,106.9,77.6,106.9,77.7C106.8,77.6,106.8,77.7,106.9,77.7
		c0-0.1,0-0.1-0.1-0.1C106.8,77.6,106.8,77.6,106.9,77.7C106.8,77.7,106.8,77.7,106.9,77.7c-1.8,3.4-44,82.5-42.5,82.4
		c2,0,4,0,6,0.1c0.8,0,1.1-0.4,1.4-0.9c2.1-3.9,31.9-59.7,35.1-65.3c3.1,5.7,32.7,61.4,34.8,65.3c0.3,0.6,0.6,1,1.4,0.9
		c2-0.1,4-0.2,6-0.1C150.4,160.2,108.6,81.2,106.9,77.7z"/>
	<path class="st1" d="M135.3,160.4c-0.7-1.5-1.7-3.3-2.7-5.1c-0.5-1-0.7-1.2-2.7-1.2c-5,0-14.1-0.1-23-0.1l0,0c0,0,0,0-0.1,0
		c0,0,0,0-0.1,0l0,0c-8.8,0.1-17.9,0.1-22.8,0.1c-2,0-2.1,0.2-2.7,1.2c-1,1.8-2,3.6-2.7,5.1c1,0,14.7,0,28.3-0.1
		C120.5,160.4,134.3,160.4,135.3,160.4z"/>
</g>
<g class="st3">
	<path d="M270.9,102.8h-32.5l-6.2,14.6h-11.3l28.5-64.4h11.1l28.3,64.4h-11.6L270.9,102.8z M266.6,93.2l-12-28.5l-12.2,28.7h24.2
		V93.2z"/>
	<path d="M352.9,52.9v54.6h27.8v9.8h-38.5V52.9H352.9z"/>
	<path d="M487.3,75c0,14.6-9.2,22.9-25.5,22.9h-14.8v19.5h-10.9V52.9h25.7C478.1,52.9,487.3,61.1,487.3,75z M477.1,75.2
		c0-8.6-5.6-12.4-15.6-12.4h-14.3v25.5h14.3C471.3,88.2,477.1,84,477.1,75.2z"/>
	<path d="M553.9,52.9v28h34.2v-28h10.9v64.4h-10.9V90.6h-34.2v26.8H543V52.9H553.9z"/>
	<path d="M702.5,102.8h-32.5l-6.2,14.6h-11.3l28.5-64.4H692l28.3,64.4h-11.6L702.5,102.8z M698.2,93.2l-12-28.5L674,93.4h24.2V93.2z
		"/>
</g>
<g class="st3">
	<path d="M244.9,164.4h-17.5l-3.6,8.1h-4l14.3-31.9h3.8l14.3,31.9h-4L244.9,164.4z M243.6,161l-7.3-16.5l-7.1,16.5H243.6z"/>
	<path d="M319,140.6v3.4h-18.1v10.7H317v3.4h-16.1v11.1h18.7v3.4h-22.2v-31.9L319,140.6L319,140.6z"/>
	<path d="M375.9,143.9c-4.2,0-6.7,1.6-6.7,4.4c0,8.3,18.1,4,17.9,15.5c0,5.4-4.8,8.7-11.5,8.7c-4.6,0-9.1-2-12.3-5l1.6-3.2
		c3,2.8,6.9,4.6,10.7,4.6c4.6,0,7.5-1.8,7.5-5c0-8.5-17.9-4-17.9-15.5c0-5,4.4-8.1,11.1-8.1c3.8,0,7.5,1.2,10.1,3l-1.6,3.2
		C381.9,144.7,378.5,143.9,375.9,143.9z"/>
	<path d="M454.3,140.6v3.4h-10.5v28.6h-3.6v-28.6h-10.3v-3.4H454.3z"/>
	<path d="M502.9,140.6V155h19.2v-14.5h3.6v31.9h-3.6v-14.1h-19.2v14.1h-3.6v-31.9H502.9z"/>
	<path d="M578.9,140.6v31.9h-3.6v-31.9H578.9z"/>
	<path d="M641.8,143.7c-7.1,0-13.1,5.6-13.1,12.7c0,6.9,5.8,12.7,13.1,12.7c3.6,0,6.9-1.4,9.5-3.8l2.2,2.4c-3.2,3-7.3,4.8-11.9,4.8
		c-9.1,0-16.5-7.1-16.5-16.1s7.3-16.1,16.7-16.1c4.4,0,8.5,1.8,11.7,4.6l-2.2,2.6C649,145.3,645.4,143.7,641.8,143.7z"/>
	<path d="M709.1,143.9c-4.2,0-6.7,1.6-6.7,4.4c0,8.3,18.1,4,17.9,15.5c0,5.4-4.8,8.7-11.5,8.7c-4.6,0-9.1-2-12.3-5l1.6-3.2
		c3,2.8,6.9,4.6,10.7,4.6c4.6,0,7.5-1.8,7.5-5c0-8.5-17.9-4-17.9-15.5c0-5,4.4-8.1,11.1-8.1c3.8,0,7.5,1.2,10.1,3l-1.6,3.2
		C715.1,144.7,711.7,143.9,709.1,143.9z"/>
</g>
<g>
	<g>
		<path d="M494,173.5c1.9,0,1.9-3,0-3S492.1,173.5,494,173.5L494,173.5z"/>
	</g>
</g>
<polyline class="st4" points="155.5,161 107.3,67 56.5,161 "/>
<line class="st4" x1="66" y1="161" x2="149" y2="161"/>
</svg>
