<?xml version="1.0" encoding="utf-8"?>
<!-- Generator: Adobe Illustrator 22.0.0, SVG Export Plug-In . SVG Version: 6.00 Build 0)  -->
<svg version="1.1" id="Layer_1" xmlns="http://www.w3.org/2000/svg" xmlns:xlink="http://www.w3.org/1999/xlink" x="0px" y="0px"
	 viewBox="0 0 306 304" style="enable-background:new 0 0 306 304;" xml:space="preserve">
<style type="text/css">
	.st0{display:none;}
	.st1{display:inline;}
	.st2{fill:none;stroke:#1E120D;stroke-linecap:round;stroke-linejoin:round;stroke-miterlimit:10;}
	.st3{display:none;fill:none;stroke:#000000;stroke-width:2;stroke-miterlimit:10;}
</style>
<g class="st0">
	<g class="st1">
		<line class="st2" x1="141.4" y1="296.4" x2="160.6" y2="315.6"/>
		<line class="st2" x1="166" y1="313" x2="158" y2="321"/>
		<line class="st2" x1="165.9" y1="316.8" x2="161.8" y2="320.9"/>
		<line class="st2" x1="165.1" y1="320.1" x2="167" y2="322"/>
		<line class="st2" x1="136" y1="299" x2="144" y2="291"/>
		<line class="st2" x1="136.1" y1="295.2" x2="140.2" y2="291.1"/>
		<line class="st2" x1="136.9" y1="291.9" x2="135" y2="290"/>
	</g>
	<g class="st1">
		<line class="st2" x1="160.6" y1="296.4" x2="141.4" y2="315.6"/>
		<line class="st2" x1="144" y1="321" x2="136" y2="313"/>
		<line class="st2" x1="140.2" y1="320.9" x2="136.1" y2="316.8"/>
		<line class="st2" x1="136.9" y1="320.1" x2="135" y2="322"/>
		<line class="st2" x1="158" y1="291" x2="166" y2="299"/>
		<line class="st2" x1="161.8" y1="291.1" x2="165.9" y2="295.2"/>
		<line class="st2" x1="165.1" y1="291.9" x2="167" y2="290"/>
	</g>
</g>
<g>
	<path d="M153.8,8.8c0-0.2,0-0.3,0-0.3l0,0c0,0,0,0.2-0.2,0.2c0,0,0-0.2-0.2-0.2l0,0c0,0,0,0.2,0,0.3C147.4,20.6,1,295,6.1,294.8
		c6.9-0.2,14,0,20.9,0.5c2.7,0.2,3.7-1.3,4.8-3.2c7.2-13.5,110.8-207,121.8-226.6c10.8,19.6,113.6,213.1,120.6,226.6
		c1.1,1.9,2.1,3.4,4.8,3.2c6.9-0.3,13.8-0.6,20.7-0.5C305,295,159.9,20.7,153.8,8.8z"/>
	<path d="M252.6,295.5c-2.4-5.1-6-11.4-9.5-17.7c-1.9-3.4-2.4-4.2-9.3-4.2c-17.2,0-49.1-0.3-79.9-0.5l0,0h-0.2h-0.2l0,0
		c-30.6,0.3-62.1,0.5-79.1,0.5c-6.9,0-7.4,0.8-9.2,4.2c-3.5,6.3-6.9,12.4-9.3,17.7c3.5,0,51,0,98.1-0.3
		C201.1,295.5,248.9,295.5,252.6,295.5z"/>
</g>
<g class="st0">
	<path class="st1" d="M151.9,86.7L151.9,86.7C151.9,86.6,151.9,86.6,151.9,86.7C151.8,86.6,151.8,86.7,151.9,86.7
		c0-0.1,0-0.1-0.1-0.1C151.8,86.6,151.8,86.6,151.9,86.7C151.8,86.7,151.8,86.7,151.9,86.7c-1.8,3.4-44,82.5-42.5,82.4
		c2,0,4,0,6,0.1c0.8,0,1.1-0.4,1.4-0.9c2.1-3.9,31.9-59.7,35.1-65.3c3.1,5.7,32.7,61.4,34.8,65.3c0.3,0.6,0.6,1,1.4,0.9
		c2-0.1,4-0.2,6-0.1C195.4,169.2,153.6,90.2,151.9,86.7z"/>
	<path class="st1" d="M180.3,169.4c-0.7-1.5-1.7-3.3-2.7-5.1c-0.5-1-0.7-1.2-2.7-1.2c-5,0-14.1-0.1-23-0.1l0,0c0,0,0,0-0.1,0
		c0,0,0,0-0.1,0l0,0c-8.8,0.1-17.9,0.1-22.8,0.1c-2,0-2.1,0.2-2.7,1.2c-1,1.8-2,3.6-2.7,5.1c1,0,14.7,0,28.3-0.1
		C165.5,169.4,179.3,169.4,180.3,169.4z"/>
</g>
<g>
	<g>
		<path d="M539,182.5c1.9,0,1.9-3,0-3S537.1,182.5,539,182.5L539,182.5z"/>
	</g>
</g>
<polyline class="st3" points="200.5,170 152.3,76 101.5,170 "/>
<line class="st3" x1="111" y1="170" x2="194" y2="170"/>
</svg>
