<!--?xml version="1.0" encoding="utf-8"?-->
<!-- Generator: Adobe Illustrator 22.0.0, SVG Export Plug-In . SVG Version: 6.00 Build 0)  -->
<svg version="1.1" id="Layer_1" xmlns="http://www.w3.org/2000/svg" xmlns:xlink="http://www.w3.org/1999/xlink" x="0px" y="0px" viewBox="0 0 644 644.5" style="" xml:space="preserve">
<style type="text/css">
	.st0{fill:none;stroke:#000000;stroke-width:8;stroke-miterlimit:10;}
</style>
<g>
	<path class="st0 OholhWDh_0" d="M323.2,51.1L104.6,478c0.1,0,8.5,0.5,16.2,0.8c1,0,2.3,0.1,3.8-0.6c1.8-0.9,2.8-2.6,4-4.6
		c11.8-21.9,179.7-335.6,197.5-367.4c17.5,31.8,184.2,345.4,195.5,367.3c1.2,2,2.3,3.7,4,4.6c1.6,0.8,3.1,0.7,3.8,0.6
		c9.1-0.6,19.3,1.2,18.3-0.7C524.1,430.3,397.8,194.4,323.2,51.1z"></path>
	<path class="st0 OholhWDh_1" d="M454.8,478.9c-3.1-4.1-7.8-9.2-12.4-14.3c-2.5-2.8-3.1-3.4-12.1-3.4c-22.3,0-63.7-0.2-103.7-0.4l0,0h-0.3h-0.3
		l0,0c-39.7,0.2-80.6,0.4-102.7,0.4c-8.9,0-9.6,0.7-11.9,3.4c-4.6,5.1-8.9,10-12.1,14.3c4.6,0,66.2,0,127.3-0.2
		C387.9,478.9,450,478.9,454.8,478.9z"></path>
</g>
<g class="fill">
	<path d="M323.2,51.1L104.6,478c0.1,0,8.5,0.5,16.2,0.8c1,0,2.3,0.1,3.8-0.6c1.8-0.9,2.8-2.6,4-4.6
		c11.8-21.9,179.7-335.6,197.5-367.4c17.5,31.8,184.2,345.4,195.5,367.3c1.2,2,2.3,3.7,4,4.6c1.6,0.8,3.1,0.7,3.8,0.6
		c9.1-0.6,19.3,1.2,18.3-0.7C524.1,430.3,397.8,194.4,323.2,51.1z"></path>
	<path d="M454.8,478.9c-3.1-4.1-7.8-9.2-12.4-14.3c-2.5-2.8-3.1-3.4-12.1-3.4c-22.3,0-63.7-0.2-103.7-0.4l0,0h-0.3h-0.3
		l0,0c-39.7,0.2-80.6,0.4-102.7,0.4c-8.9,0-9.6,0.7-11.9,3.4c-4.6,5.1-8.9,10-12.1,14.3c4.6,0,66.2,0,127.3-0.2
		C387.9,478.9,450,478.9,454.8,478.9z"></path>
</g>
<g class="loading">
	<path d="M120.1,579.8h23.7v13.6h-41.4V520h17.7V579.8z" class="OholhWDh_2"></path>
	<path d="M205.7,523.7c5.6,3.2,10.1,7.7,13.3,13.4c3.3,5.7,4.9,12.2,4.9,19.3c0,7.2-1.6,13.7-4.9,19.4c-3.3,5.7-7.7,10.2-13.4,13.4
		c-5.6,3.2-11.9,4.8-18.7,4.8c-6.8,0-13.1-1.6-18.7-4.8c-5.6-3.2-10.1-7.7-13.4-13.4c-3.3-5.7-4.9-12.2-4.9-19.4
		c0-7.2,1.6-13.6,4.9-19.3c3.3-5.7,7.7-10.2,13.4-13.4c5.6-3.2,11.9-4.8,18.7-4.8C193.7,518.9,200,520.5,205.7,523.7z M173,541
		c-3.4,3.8-5.1,8.9-5.1,15.4c0,6.4,1.7,11.6,5.1,15.4c3.4,3.8,8,5.7,13.9,5.7c5.7,0,10.3-1.9,13.8-5.7c3.5-3.8,5.2-8.9,5.2-15.4
		s-1.7-11.5-5.1-15.4c-3.4-3.8-8-5.7-13.9-5.7C181,535.4,176.4,537.3,173,541z" class="OholhWDh_3"></path>
	<path d="M279.3,580h-27.5l-4.6,13.4h-18.7l26.9-72.8h20.4l26.9,72.8h-18.9L279.3,580z M274.7,566.5l-9.1-27l-9.2,27H274.7z" class="OholhWDh_4"></path>
	<path d="M370.9,575.7c-3.1,5.6-7.5,9.9-13.3,13c-5.8,3.1-12.6,4.7-20.4,4.7h-27.7V520h27.7c7.9,0,14.7,1.5,20.4,4.6
		c5.7,3,10.1,7.3,13.2,12.9c3.1,5.5,4.6,11.9,4.6,19.1C375.6,563.7,374,570.1,370.9,575.7z M351.8,572c3.8-3.7,5.8-8.8,5.8-15.5
		c0-6.6-1.9-11.8-5.8-15.5c-3.8-3.7-9.2-5.5-16.1-5.5h-8.4v41.9h8.4C342.6,577.5,348,575.7,351.8,572z" class="OholhWDh_5"></path>
	<path d="M403.4,520v73.4h-17.7V520H403.4z" class="OholhWDh_6"></path>
	<path d="M480.7,593.4H463l-29.7-45v45h-17.7V520h17.7l29.7,45.4V520h17.7V593.4z" class="OholhWDh_7"></path>
	<path d="M550.1,526c5.9,4.5,9.6,10.6,11.1,18.3h-18.8c-1.2-2.6-3.1-4.7-5.7-6.3c-2.6-1.6-5.6-2.3-9.2-2.3c-5.6,0-10.1,1.9-13.5,5.7
		c-3.4,3.8-5.1,8.9-5.1,15.3c0,7,1.8,12.3,5.3,16.1c3.6,3.7,8.6,5.6,15.2,5.6c4.2,0,7.9-1.2,11.1-3.5c3.2-2.3,5.4-5.6,6.7-9.9h-22.4
		v-12.8h37.2v17.5c-1.4,4.3-3.6,8.3-6.6,11.9c-3,3.7-6.9,6.6-11.7,8.9c-4.7,2.3-10.2,3.4-16.2,3.4c-7.4,0-13.9-1.6-19.4-4.7
		c-5.5-3.1-9.8-7.6-12.8-13.2c-3-5.7-4.5-12.1-4.5-19.4c0-7.3,1.5-13.7,4.5-19.4c3-5.7,7.3-10.1,12.8-13.2
		c5.5-3.1,11.9-4.7,19.2-4.7C536.5,519.3,544.1,521.6,550.1,526z" class="OholhWDh_8"></path>
</g>
<style>
.OholhWDh_0{stroke-dasharray:1851 1853;stroke-dashoffset:1852;animation:OholhWDh_draw_0 3900ms ease-in 0ms infinite,OholhWDh_fade 3900ms linear 0ms infinite;}.OholhWDh_1{stroke-dasharray:527 529;stroke-dashoffset:528;animation:OholhWDh_draw_1 3900ms ease-in 0ms infinite,OholhWDh_fade 3900ms linear 0ms infinite;}.OholhWDh_2{stroke-dasharray:230 232;stroke-dashoffset:231;animation:OholhWDh_draw_2 3900ms ease-in 0ms infinite,OholhWDh_fade 3900ms linear 0ms infinite;}.OholhWDh_3{stroke-dasharray:364 366;stroke-dashoffset:365;animation:OholhWDh_draw_3 3900ms ease-in 0ms infinite,OholhWDh_fade 3900ms linear 0ms infinite;}.OholhWDh_4{stroke-dasharray:345 347;stroke-dashoffset:346;animation:OholhWDh_draw_4 3900ms ease-in 0ms infinite,OholhWDh_fade 3900ms linear 0ms infinite;}.OholhWDh_5{stroke-dasharray:377 379;stroke-dashoffset:378;animation:OholhWDh_draw_5 3900ms ease-in 0ms infinite,OholhWDh_fade 3900ms linear 0ms infinite;}.OholhWDh_6{stroke-dasharray:183 185;stroke-dashoffset:184;animation:OholhWDh_draw_6 3900ms ease-in 0ms infinite,OholhWDh_fade 3900ms linear 0ms infinite;}.OholhWDh_7{stroke-dasharray:417 419;stroke-dashoffset:418;animation:OholhWDh_draw_7 3900ms ease-in 0ms infinite,OholhWDh_fade 3900ms linear 0ms infinite;}.OholhWDh_8{stroke-dasharray:426 428;stroke-dashoffset:427;animation:OholhWDh_draw_8 3900ms ease-in 0ms infinite,OholhWDh_fade 3900ms linear 0ms infinite;}@keyframes OholhWDh_draw{100%{stroke-dashoffset:0;}}@keyframes OholhWDh_fade{0%{stroke-opacity:1;}89.74358974358975%{stroke-opacity:1;}100%{stroke-opacity:0;}}@keyframes OholhWDh_draw_0{12.82051282051282%{stroke-dashoffset: 1852}32.90390444122735%{ stroke-dashoffset: 0;}100%{ stroke-dashoffset: 0;}}@keyframes OholhWDh_draw_1{32.90390444122735%{stroke-dashoffset: 528}38.62962300264056%{ stroke-dashoffset: 0;}100%{ stroke-dashoffset: 0;}}@keyframes OholhWDh_draw_2{38.62962300264055%{stroke-dashoffset: 231}41.13462487325883%{ stroke-dashoffset: 0;}100%{ stroke-dashoffset: 0;}}@keyframes OholhWDh_draw_3{41.13462487325883%{stroke-dashoffset: 365}45.09274471211456%{ stroke-dashoffset: 0;}100%{ stroke-dashoffset: 0;}}@keyframes OholhWDh_draw_4{45.09274471211456%{stroke-dashoffset: 346}48.84482543607094%{ stroke-dashoffset: 0;}100%{ stroke-dashoffset: 0;}}@keyframes OholhWDh_draw_5{48.84482543607094%{stroke-dashoffset: 378}52.94391940617358%{ stroke-dashoffset: 0;}100%{ stroke-dashoffset: 0;}}@keyframes OholhWDh_draw_6{52.94391940617358%{stroke-dashoffset: 184}54.93924557151455%{ stroke-dashoffset: 0;}100%{ stroke-dashoffset: 0;}}@keyframes OholhWDh_draw_7{54.93924557151455%{stroke-dashoffset: 418}59.472106099300014%{ stroke-dashoffset: 0;}100%{ stroke-dashoffset: 0;}}@keyframes OholhWDh_draw_8{59.472106099300014%{stroke-dashoffset: 427}64.1025641025641%{ stroke-dashoffset: 0;}100%{ stroke-dashoffset: 0;}}
.loading{animation:load_fade 3900ms ease 0ms infinite;}
.fill{
	opacity: 0;
	fill: black;
	animation:fade 3900ms ease 0ms infinite;
}
@keyframes load_fade{0%{opacity:0;}50%{opacity:1;}90%{opacity:1;}100%{opacity:0;}}
@keyframes fade{0%{opacity:0;} 45%{opacity:0;} 65%{opacity:1;} 95%{opacity:1;} 100%{opacity:0;}}

</style></svg>
