<?xml version="1.0" encoding="utf-8"?>
<!-- Generator: Adobe Illustrator 22.0.0, SVG Export Plug-In . SVG Version: 6.00 Build 0)  -->
<svg version="1.1" id="Layer_1" xmlns="http://www.w3.org/2000/svg" xmlns:xlink="http://www.w3.org/1999/xlink" x="0px" y="0px"
	 viewBox="0 0 1000 600" style="enable-background:new 0 0 1000 600;" xml:space="preserve">
<style type="text/css">
	.st0{fill:url(#SVGID_1_);}
	.st1{fill:url(#SVGID_2_);}
	.st2{fill:url(#SVGID_3_);}
	.st3{fill:url(#SVGID_4_);}
	.st4{fill:url(#SVGID_5_);}
	.st5{fill:url(#SVGID_6_);}
	.st6{fill:url(#SVGID_7_);}
	.st7{fill:url(#SVGID_8_);}
	.st8{fill:url(#SVGID_9_);}
	.st9{fill:url(#SVGID_10_);}
	.st10{fill:url(#SVGID_11_);}
	.st11{fill:url(#SVGID_12_);}
	.st12{fill:url(#SVGID_13_);}
	.st13{fill:url(#SVGID_14_);}
	.st14{fill:url(#SVGID_15_);}
	.st15{fill:url(#SVGID_16_);}
	.st16{fill:url(#SVGID_17_);}
	.st17{opacity:0.25;enable-background:new    ;}
	.st18{opacity:0.31;}
	.st19{fill:#0C0C0C;}
	.st20{opacity:0.15;}
	.st21{fill:#E8E8E8;}
	.st22{opacity:0.25;clip-path:url(#SVGID_19_);}
	.st23{fill:#FFFFFF;}
	.st24{opacity:0.25;clip-path:url(#SVGID_21_);}
	.st25{opacity:0.33;}
	.st26{fill:#020202;}
	.st27{opacity:0.5;}
	.st28{fill:#474747;}
	.st29{fill:#FFADAB;}
	.st30{opacity:0.51;fill:url(#SVGID_22_);enable-background:new    ;}
	.st31{opacity:0.51;fill:url(#SVGID_23_);enable-background:new    ;}
	.st32{opacity:0.6;fill:url(#SVGID_24_);enable-background:new    ;}
	.st33{opacity:0.6;fill:url(#SVGID_25_);enable-background:new    ;}
	.st34{fill:#DDA4A3;}
	.st35{opacity:0.43;fill:url(#SVGID_26_);enable-background:new    ;}
	.st36{opacity:0.43;fill:url(#SVGID_27_);enable-background:new    ;}
	.st37{opacity:0.43;fill:url(#SVGID_28_);enable-background:new    ;}
	.st38{opacity:0.43;fill:url(#SVGID_29_);enable-background:new    ;}
	.st39{fill:#444CA6;}
	.st40{opacity:0.37;fill:url(#SVGID_30_);enable-background:new    ;}
	.st41{fill:#1A1A55;}
	.st42{opacity:0.4;fill:url(#SVGID_31_);enable-background:new    ;}
	.st43{fill:#252670;}
	.st44{opacity:0.62;fill:url(#SVGID_32_);enable-background:new    ;}
	.st45{opacity:0.62;fill:url(#SVGID_33_);enable-background:new    ;}
	.st46{fill:url(#SVGID_34_);}
	.st47{opacity:0.4;fill:url(#SVGID_35_);enable-background:new    ;}
	.st48{opacity:0.4;fill:url(#SVGID_36_);enable-background:new    ;}
	.st49{opacity:0.38;fill:url(#SVGID_37_);enable-background:new    ;}
	.st50{opacity:0.38;fill:url(#SVGID_38_);enable-background:new    ;}
	.st51{fill:#2C2C80;}
	.st52{opacity:0.43;fill:url(#SVGID_39_);enable-background:new    ;}
	.st53{fill:#423332;}
	.st54{fill:#2D2222;}
	.st55{opacity:0.43;fill:url(#SVGID_40_);enable-background:new    ;}
	.st56{opacity:0.43;fill:url(#SVGID_41_);enable-background:new    ;}
	.st57{opacity:0.37;fill:url(#SVGID_42_);enable-background:new    ;}
	.st58{fill:none;stroke:#8E5D5D;stroke-width:0.8432;stroke-miterlimit:10;}
	.st59{fill:none;stroke:#FDCFB7;stroke-width:15;stroke-linecap:round;stroke-linejoin:round;stroke-miterlimit:10;}
	.st60{fill:#FDCFB7;}
	.st61{fill:none;stroke:#FDCFB7;stroke-width:4;stroke-linecap:round;stroke-linejoin:round;stroke-miterlimit:10;}
	.st62{opacity:0.2;}
	.st63{fill:#FDD9C5;}
	.st64{fill:#333333;}
	.st65{fill:#FFFFFC;}
</style>
<g id="Layer_2_1_">
	<g id="Layer_1-2">
		
			<linearGradient id="SVGID_1_" gradientUnits="userSpaceOnUse" x1="178.64" y1="306.83" x2="799.64" y2="306.83" gradientTransform="matrix(0 1 -1 0 798.28 -199.64)">
			<stop  offset="0" style="stop-color:#3ED9E5"/>
			<stop  offset="0.54" style="stop-color:#C978FA"/>
			<stop  offset="1" style="stop-color:#E454FE"/>
		</linearGradient>
		<path class="st0" d="M-17-21H999.9v621H-17V-21z"/>
		
			<linearGradient id="SVGID_2_" gradientUnits="userSpaceOnUse" x1="-292.4345" y1="720.4592" x2="578.5044" y2="720.4592" gradientTransform="matrix(-0.158 0.9375 -0.9375 -0.251 1197.3301 336.84)">
			<stop  offset="0" style="stop-color:#47D8E6"/>
			<stop  offset="1.000000e-02" style="stop-color:#49D6E6"/>
			<stop  offset="6.000000e-02" style="stop-color:#57CDE8"/>
			<stop  offset="0.31" style="stop-color:#96A5F2"/>
			<stop  offset="0.42" style="stop-color:#AF95F6"/>
			<stop  offset="0.48" style="stop-color:#BA8DF8"/>
			<stop  offset="0.54" style="stop-color:#CC80FA"/>
			<stop  offset="0.77" style="stop-color:#D66EFC"/>
			<stop  offset="1" style="stop-color:#E15DFE"/>
		</linearGradient>
		<path class="st1" d="M-1.1-2.6H999.7v585.4H-1.1V-2.6z"/>
		
			<linearGradient id="SVGID_3_" gradientUnits="userSpaceOnUse" x1="-487.7968" y1="1230.3467" x2="567.7376" y2="1230.3467" gradientTransform="matrix(-0.3159 0.875 -0.875 -0.502 1596.38 873.31)">
			<stop  offset="0" style="stop-color:#4FD7E6"/>
			<stop  offset="1.000000e-02" style="stop-color:#51D5E6"/>
			<stop  offset="5.000000e-02" style="stop-color:#5DCEE8"/>
			<stop  offset="0.3" style="stop-color:#9CAAF2"/>
			<stop  offset="0.42" style="stop-color:#B59CF6"/>
			<stop  offset="0.49" style="stop-color:#C093F8"/>
			<stop  offset="0.54" style="stop-color:#CE88FB"/>
			<stop  offset="0.77" style="stop-color:#D676FC"/>
			<stop  offset="1" style="stop-color:#DD65FE"/>
		</linearGradient>
		<path class="st2" d="M14.8,15.7h984.8v549.9H14.8V15.7z"/>
		
			<linearGradient id="SVGID_4_" gradientUnits="userSpaceOnUse" x1="-361.4006" y1="1703.9138" x2="766.7606" y2="1703.9138" gradientTransform="matrix(-0.4739 0.8125 -0.8125 -0.7531 1995.4301 1409.79)">
			<stop  offset="0" style="stop-color:#58D6E7"/>
			<stop  offset="1.000000e-02" style="stop-color:#5AD5E7"/>
			<stop  offset="4.000000e-02" style="stop-color:#62D1E8"/>
			<stop  offset="0.3" style="stop-color:#A1B0F3"/>
			<stop  offset="0.42" style="stop-color:#BAA3F7"/>
			<stop  offset="0.49" style="stop-color:#C59AF9"/>
			<stop  offset="0.54" style="stop-color:#D190FB"/>
			<stop  offset="0.77" style="stop-color:#D57FFD"/>
			<stop  offset="1" style="stop-color:#DA6EFE"/>
		</linearGradient>
		<path class="st3" d="M30.6,34.1h968.7v514.3H30.6V34.1z"/>
		
			<linearGradient id="SVGID_5_" gradientUnits="userSpaceOnUse" x1="-16.0561" y1="2046.1157" x2="1082.9755" y2="2046.1157" gradientTransform="matrix(-0.6319 0.75 -0.75 -1.0041 2394.48 1946.26)">
			<stop  offset="0" style="stop-color:#61D5E7"/>
			<stop  offset="1.000000e-02" style="stop-color:#62D4E7"/>
			<stop  offset="3.000000e-02" style="stop-color:#67D2E8"/>
			<stop  offset="0.3" style="stop-color:#A6B5F3"/>
			<stop  offset="0.42" style="stop-color:#BFAAF8"/>
			<stop  offset="0.5" style="stop-color:#CAA0FA"/>
			<stop  offset="0.54" style="stop-color:#D398FB"/>
			<stop  offset="0.77" style="stop-color:#D487FD"/>
			<stop  offset="1" style="stop-color:#D777FE"/>
		</linearGradient>
		<path class="st4" d="M46.5,52.5h952.6v478.7H46.5V52.5z"/>
		
			<linearGradient id="SVGID_6_" gradientUnits="userSpaceOnUse" x1="405.914" y1="2244.4045" x2="1416.9575" y2="2244.4045" gradientTransform="matrix(-0.7898 0.6875 -0.6875 -1.2551 2793.53 2482.74)">
			<stop  offset="0" style="stop-color:#69D4E8"/>
			<stop  offset="1.000000e-02" style="stop-color:#6AD3E8"/>
			<stop  offset="2.000000e-02" style="stop-color:#6DD2E9"/>
			<stop  offset="0.29" style="stop-color:#ACBAF4"/>
			<stop  offset="0.42" style="stop-color:#C5B1F8"/>
			<stop  offset="0.51" style="stop-color:#D0A6FB"/>
			<stop  offset="0.54" style="stop-color:#D6A0FC"/>
			<stop  offset="0.77" style="stop-color:#D38FFD"/>
			<stop  offset="1" style="stop-color:#D37FFE"/>
		</linearGradient>
		<path class="st5" d="M62.4,70.8h936.5V514H62.4V70.8z"/>
		
			<linearGradient id="SVGID_7_" gradientUnits="userSpaceOnUse" x1="810.1424" y1="2333.5845" x2="1712.7102" y2="2333.5845" gradientTransform="matrix(-0.9478 0.625 -0.625 -1.5061 3192.5701 3019.2202)">
			<stop  offset="0" style="stop-color:#72D3E8"/>
			<stop  offset="1.000000e-02" style="stop-color:#73D2E8"/>
			<stop  offset="0.29" style="stop-color:#B1BFF4"/>
			<stop  offset="0.42" style="stop-color:#CAB8F9"/>
			<stop  offset="0.51" style="stop-color:#D4ADFB"/>
			<stop  offset="0.54" style="stop-color:#D8A8FC"/>
			<stop  offset="0.77" style="stop-color:#D397FD"/>
			<stop  offset="1" style="stop-color:#D088FE"/>
		</linearGradient>
		<path class="st6" d="M78.3,89.2h920.4v407.6H78.3V89.2z"/>
		
			<linearGradient id="SVGID_8_" gradientUnits="userSpaceOnUse" x1="1158.2445" y1="2354.5461" x2="1954.1409" y2="2354.5461" gradientTransform="matrix(-1.1058 0.5625 -0.5625 -1.7572 3591.6201 3555.7)">
			<stop  offset="0" style="stop-color:#7AD2E9"/>
			<stop  offset="1.000000e-02" style="stop-color:#7CD1E9"/>
			<stop  offset="0.28" style="stop-color:#B6C4F4"/>
			<stop  offset="0.42" style="stop-color:#CFBFF9"/>
			<stop  offset="0.52" style="stop-color:#D8B4FB"/>
			<stop  offset="0.54" style="stop-color:#DBB0FC"/>
			<stop  offset="0.77" style="stop-color:#D29FFD"/>
			<stop  offset="1" style="stop-color:#CD90FE"/>
		</linearGradient>
		<path class="st7" d="M94.2,107.6h904.3v372.1H94.2V107.6z"/>
		
			<linearGradient id="SVGID_9_" gradientUnits="userSpaceOnUse" x1="1444.292" y1="2338.0195" x2="2144.4712" y2="2338.0195" gradientTransform="matrix(-1.2637 0.5 -0.5 -2.0082 3990.6699 4092.1699)">
			<stop  offset="0" style="stop-color:#83D2EA"/>
			<stop  offset="1.000000e-02" style="stop-color:#84D1EA"/>
			<stop  offset="0.28" style="stop-color:#BBCAF5"/>
			<stop  offset="0.42" style="stop-color:#D4C7FA"/>
			<stop  offset="0.52" style="stop-color:#DCBCFC"/>
			<stop  offset="0.54" style="stop-color:#DEB9FD"/>
			<stop  offset="0.77" style="stop-color:#D1A8FE"/>
			<stop  offset="1" style="stop-color:#CA99FF"/>
		</linearGradient>
		<path class="st8" d="M110,125.9h888.2v336.5H110V125.9z"/>
		
			<linearGradient id="SVGID_10_" gradientUnits="userSpaceOnUse" x1="1674.9705" y1="2302.5027" x2="2292.6389" y2="2302.5027" gradientTransform="matrix(-1.4217 0.4375 -0.4375 -2.2592 4389.7202 4628.6499)">
			<stop  offset="0" style="stop-color:#8CD1EA"/>
			<stop  offset="1.000000e-02" style="stop-color:#8DD0EA"/>
			<stop  offset="0.27" style="stop-color:#C1CFF6"/>
			<stop  offset="0.42" style="stop-color:#DACEFB"/>
			<stop  offset="0.53" style="stop-color:#DFC3FD"/>
			<stop  offset="0.54" style="stop-color:#E0C1FD"/>
			<stop  offset="0.77" style="stop-color:#D0B0FE"/>
			<stop  offset="1" style="stop-color:#C6A2FF"/>
		</linearGradient>
		<path class="st9" d="M125.9,144.3h872.2v300.9H125.9V144.3z"/>
		
			<linearGradient id="SVGID_11_" gradientUnits="userSpaceOnUse" x1="1860.6812" y1="2258.8452" x2="2408.2979" y2="2258.8452" gradientTransform="matrix(-1.5797 0.375 -0.375 -2.5102 4788.77 5165.1201)">
			<stop  offset="0" style="stop-color:#94D0EB"/>
			<stop  offset="1.000000e-02" style="stop-color:#95CFEB"/>
			<stop  offset="0.27" style="stop-color:#C6D3F6"/>
			<stop  offset="0.42" style="stop-color:#DFD5FB"/>
			<stop  offset="0.54" style="stop-color:#E3CAFD"/>
			<stop  offset="0.54" style="stop-color:#E3C9FD"/>
			<stop  offset="0.77" style="stop-color:#D0B8FE"/>
			<stop  offset="1" style="stop-color:#C3AAFF"/>
		</linearGradient>
		<path class="st10" d="M141.8,162.7h856.1v265.4H141.8V162.7z"/>
		
			<linearGradient id="SVGID_12_" gradientUnits="userSpaceOnUse" x1="2010.9352" y1="2212.9683" x2="2499.3862" y2="2212.9683" gradientTransform="matrix(-1.7376 0.3125 -0.3125 -2.7612 5187.8198 5701.6099)">
			<stop  offset="0" style="stop-color:#9DCFEB"/>
			<stop  offset="1.000000e-02" style="stop-color:#9ECEEB"/>
			<stop  offset="0.26" style="stop-color:#CBD7F6"/>
			<stop  offset="0.42" style="stop-color:#E4DCFC"/>
			<stop  offset="0.54" style="stop-color:#E5D1FD"/>
			<stop  offset="0.77" style="stop-color:#CFC0FE"/>
			<stop  offset="1" style="stop-color:#C0B3FF"/>
		</linearGradient>
		<path class="st11" d="M157.7,181h840v229.8h-840L157.7,181z"/>
		
			<linearGradient id="SVGID_13_" gradientUnits="userSpaceOnUse" x1="2133.3291" y1="2167.6809" x2="2571.6719" y2="2167.6809" gradientTransform="matrix(-1.8956 0.25 -0.25 -3.0123 5586.8701 6238.0801)">
			<stop  offset="0" style="stop-color:#A6CEEC"/>
			<stop  offset="1.000000e-02" style="stop-color:#A6CDEC"/>
			<stop  offset="0.26" style="stop-color:#D1DBF7"/>
			<stop  offset="0.42" style="stop-color:#EAE3FD"/>
			<stop  offset="0.54" style="stop-color:#E8D9FE"/>
			<stop  offset="0.77" style="stop-color:#CEC8FE"/>
			<stop  offset="1" style="stop-color:#BCBCFF"/>
		</linearGradient>
		<path class="st12" d="M173.6,199.4h823.9v194.2H173.6V199.4z"/>
		
			<linearGradient id="SVGID_14_" gradientUnits="userSpaceOnUse" x1="2234.0857" y1="2124.6592" x2="2629.8081" y2="2124.6592" gradientTransform="matrix(-2.0536 0.1875 -0.1875 -3.2633 5985.9199 6774.5601)">
			<stop  offset="0" style="stop-color:#AECDEC"/>
			<stop  offset="1.000000e-02" style="stop-color:#AFCCEC"/>
			<stop  offset="0.25" style="stop-color:#D6DEF6"/>
			<stop  offset="0.42" style="stop-color:#EFEAFD"/>
			<stop  offset="0.54" style="stop-color:#EAE1FE"/>
			<stop  offset="0.77" style="stop-color:#CDD0FE"/>
			<stop  offset="1" style="stop-color:#B9C4FF"/>
		</linearGradient>
		<path class="st13" d="M189.4,217.8h807.8v158.7H189.4V217.8z"/>
		
			<linearGradient id="SVGID_15_" gradientUnits="userSpaceOnUse" x1="2317.8914" y1="2084.5059" x2="2677.1411" y2="2084.5059" gradientTransform="matrix(-2.2115 0.125 -0.125 -3.5143 6384.9702 7311.04)">
			<stop  offset="0" style="stop-color:#B7CCED"/>
			<stop  offset="1.000000e-02" style="stop-color:#B7CCED"/>
			<stop  offset="0.24" style="stop-color:#DBE2F7"/>
			<stop  offset="0.42" style="stop-color:#F4F1FE"/>
			<stop  offset="0.54" style="stop-color:#EDE9FE"/>
			<stop  offset="0.77" style="stop-color:#CCD9FF"/>
			<stop  offset="1" style="stop-color:#B6CDFF"/>
		</linearGradient>
		<path class="st14" d="M205.3,236.1H997v123.1H205.3V236.1z"/>
		
			<linearGradient id="SVGID_16_" gradientUnits="userSpaceOnUse" x1="2388.0972" y1="2047.3165" x2="2715.9353" y2="2047.3165" gradientTransform="matrix(-2.3695 6.250000e-02 -6.250000e-02 -3.7653 6784.0098 7847.5103)">
			<stop  offset="0" style="stop-color:#BFCBED"/>
			<stop  offset="1.000000e-02" style="stop-color:#C0CBED"/>
			<stop  offset="0.23" style="stop-color:#E1E5F7"/>
			<stop  offset="0.42" style="stop-color:#FAF8FE"/>
			<stop  offset="0.54" style="stop-color:#EFF1FF"/>
			<stop  offset="0.77" style="stop-color:#CCE1FF"/>
			<stop  offset="1" style="stop-color:#B2D5FF"/>
		</linearGradient>
		<path class="st15" d="M221.2,254.5h775.7V342H221.2V254.5z"/>
		
			<linearGradient id="SVGID_17_" gradientUnits="userSpaceOnUse" x1="2447.6204" y1="2013.0692" x2="2748.1543" y2="2013.0692" gradientTransform="matrix(-2.5275 0 0 -4.0163 7183.0601 8383.9902)">
			<stop  offset="1.000000e-02" style="stop-color:#C8CAEE"/>
			<stop  offset="0.22" style="stop-color:#E6E7F7"/>
			<stop  offset="0.42" style="stop-color:#FFFFFF"/>
			<stop  offset="0.53" style="stop-color:#F4FAFF"/>
			<stop  offset="0.71" style="stop-color:#D6EEFF"/>
			<stop  offset="0.77" style="stop-color:#CBE9FF"/>
			<stop  offset="1" style="stop-color:#AFDEFF"/>
		</linearGradient>
		<path class="st16" d="M237.1,272.9h759.6v52H237.1V272.9z"/>
	</g>
</g>
<path class="st17" d="M-1.8-2.6H1011V611H-1.8V-2.6z"/>
<g class="st18">
	<path class="st19" d="M547.5,50.2h280.7v373.3H547.5V50.2z"/>
</g>
<g class="st20">
	<path class="st21" d="M556.3,61.9h263v349.8h-263V61.9z"/>
</g>
<g>
	<defs>
		<rect id="SVGID_18_" x="556.3" y="61.9" width="263" height="349.8"/>
	</defs>
	<clipPath id="SVGID_19_">
		<use xlink:href="#SVGID_18_"  style="overflow:visible;"/>
	</clipPath>
	<g class="st22">
		<path class="st23" d="M463.5,316.1L780.4-0.7l52.7,52.7L516.2,368.8L463.5,316.1z"/>
		<path class="st23" d="M433.9,290.2L750.7-26.7l13.6,13.6L447.5,303.7L433.9,290.2z"/>
		<path class="st23" d="M546.8,457.3l316.9-316.9l46.1,46.1L593,503.4L546.8,457.3z"/>
		<path class="st23" d="M594.7,531.4l316.9-316.9l22.6,22.6L617.3,554.1L594.7,531.4z"/>
		<path class="st23" d="M519.7,424.8l316.9-316.9l12.7,12.7L532.3,437.5L519.7,424.8z"/>
	</g>
</g>
<g>
	<g class="st18">
		<path class="st19" d="M128.5,48.2h280.7v373.3H128.5V48.2z"/>
	</g>
	<g class="st20">
		<path class="st21" d="M137.3,59.9h263v349.8h-263L137.3,59.9z"/>
	</g>
	<g>
		<defs>
			<rect id="SVGID_20_" x="137.3" y="59.9" width="263" height="349.8"/>
		</defs>
		<clipPath id="SVGID_21_">
			<use xlink:href="#SVGID_20_"  style="overflow:visible;"/>
		</clipPath>
		<g class="st24">
			<path class="st23" d="M44.5,314.1L361.4-2.8l52.7,52.7L97.2,366.8L44.5,314.1z"/>
			<path class="st23" d="M14.9,288.2L331.7-28.7l13.6,13.6L28.5,301.7L14.9,288.2z"/>
			<path class="st23" d="M127.8,455.3l316.9-316.9l46.1,46.1L173.9,501.4L127.8,455.3z"/>
			<path class="st23" d="M175.7,529.4l316.9-316.9l22.6,22.6L198.3,552.1L175.7,529.4z"/>
			<path class="st23" d="M100.7,422.8l316.9-316.9l12.7,12.7L113.4,435.4L100.7,422.8z"/>
		</g>
	</g>
</g>
<g class="st25">
	<path class="st26" d="M672.8,292.9H336.7c-2.6,0-4.7-2.1-4.7-4.7c0-2.6,2.1-4.7,4.7-4.7c0,0,0,0,0,0h336.1c2.6,0,4.7,2.1,4.7,4.7
		C677.5,290.8,675.4,292.9,672.8,292.9C672.8,292.9,672.8,292.9,672.8,292.9L672.8,292.9z"/>
	<path class="st26" d="M423.3,511.8c-3.6,0-6.6-3-6.6-6.6l0,0V273c0-3.6,3-6.6,6.6-6.6s6.6,3,6.6,6.6v232.2
		C429.8,508.8,426.9,511.8,423.3,511.8L423.3,511.8z M393,343.5h-13c-4.4,0-8-3.6-8-8V241c0-4.4,3.6-8,8-8h13c4.4,0,8,3.6,8,8v94.5
		C401,339.9,397.4,343.5,393,343.5z"/>
	<path class="st26" d="M365.8,326.9h-15.6c-3.7,0-6.7-3-6.7-6.7v-63.9c0-3.7,3-6.7,6.7-6.7h15.6c3.7,0,6.7,3,6.7,6.7v63.9
		C372.5,323.9,369.5,326.9,365.8,326.9z"/>
	<path class="st26" d="M342.3,292.9h336.1c2.6,0,4.7-2.1,4.7-4.7c0-2.6-2.1-4.7-4.7-4.7c0,0,0,0,0,0H342.3c-2.6,0-4.7,2.1-4.7,4.7
		C337.6,290.8,339.7,292.9,342.3,292.9C342.3,292.9,342.3,292.9,342.3,292.9z"/>
	<path class="st26" d="M591.8,511.8c3.6,0,6.6-2.9,6.6-6.6V273c0-3.6-3-6.6-6.6-6.6c-3.6,0-6.6,3-6.6,6.6v232.2
		C585.3,508.8,588.2,511.8,591.8,511.8L591.8,511.8z"/>
	<g>
		<path class="st26" d="M622.1,343.5h13c4.4,0,8-3.6,8-8V241c0-4.4-3.6-8-8-8h-13c-4.4,0-8,3.6-8,8v94.5
			C614,339.9,617.6,343.5,622.1,343.5z"/>
		<path class="st26" d="M649.3,326.9h15.6c3.7,0,6.7-3,6.7-6.7v-63.9c0-3.7-3-6.7-6.7-6.7h-15.6c-3.7,0-6.7,3-6.7,6.7v63.9
			C642.6,323.9,645.6,326.9,649.3,326.9z"/>
	</g>
	<g>
		<path class="st26" d="M463,441.1h88.9v77.2H463V441.1z"/>
		<path class="st26" d="M457.6,434.8h99.7v9.8h-99.7L457.6,434.8z"/>
		<path class="st26" d="M539.3,422.8h-63.7c-8.1,0-14.7,6.6-14.7,14.7H554C554,429.5,547.4,422.8,539.3,422.8z"/>
	</g>
</g>
<g class="st18">
	<path d="M906.7,193.2c-1.9,0-3.4-1.5-3.4-3.4l-8.1-140.1c0-1.9,1.5-3.4,3.4-3.4s3.4,1.5,3.4,3.4l8.1,140.1
		C910,191.7,908.6,193.1,906.7,193.2z"/>
	<path d="M906.7,186.2c-16.4,0-29.7,13.3-29.7,29.7s13.3,29.7,29.7,29.7l0,0c16.4,0,29.7-13.3,29.7-29.7
		C936.4,199.5,923.1,186.2,906.7,186.2L906.7,186.2z M906.7,236.8c-11.5,0-20.9-9.4-20.9-20.9s9.4-20.9,20.9-20.9
		s20.9,9.4,20.9,20.9S918.2,236.8,906.7,236.8z"/>
	<g>
		<path d="M894,234.8c-1.9,0-3.4-1.5-3.4-3.4l4.1-180.8c0-1.9,1.5-3.4,3.4-3.4s3.4,1.5,3.4,3.4l-4.1,180.8
			C897.4,233.3,895.9,234.8,894,234.8z"/>
		<path d="M894,227.8c-16.4,0-29.7,13.3-29.7,29.7s13.3,29.7,29.7,29.7l0,0c16.4,0,29.7-13.3,29.7-29.7
			C923.7,241.1,910.4,227.8,894,227.8L894,227.8z M894,278.4c-11.5,0-20.9-9.4-20.9-20.9s9.4-20.9,20.9-20.9s20.9,9.4,20.9,20.9
			S905.5,278.4,894,278.4z"/>
	</g>
</g>
<g class="st27">
	<path class="st28" d="M655.2,513c-3.2,0-5.9-2.6-5.9-5.9v-120c0.2-3.3,3-5.7,6.2-5.6c3,0.2,5.4,2.6,5.6,5.6v120.1
		C661,510.4,658.4,513,655.2,513L655.2,513z M962.7,513c-3.2,0-5.9-2.6-5.9-5.9v-120c0.2-3.3,3-5.7,6.2-5.6c3,0.2,5.4,2.6,5.6,5.6
		v120.1C968.6,510.4,965.9,513,962.7,513L962.7,513z"/>
	<path class="st28" d="M963,412.8H658.2c-2,0-3.7-1.7-3.7-3.7c0-2,1.7-3.7,3.7-3.7c0,0,0,0,0,0H963c2.1,0,3.7,1.7,3.7,3.7
		S965,412.8,963,412.8L963,412.8z"/>
	<circle class="st28" cx="681.1" cy="405.7" r="11.9"/>
	<circle class="st28" cx="714.9" cy="405.7" r="14.3"/>
	<ellipse class="st28" cx="754.2" cy="405.7" rx="17.2" ry="17.2"/>
	
		<ellipse transform="matrix(0.9252 -0.3795 0.3795 0.9252 -94.1837 333.5736)" class="st28" cx="799.1" cy="405.7" rx="20.6" ry="20.6"/>
	<ellipse class="st28" cx="852.5" cy="405.6" rx="24.8" ry="24.8"/>
	<circle class="st28" cx="915.7" cy="405.7" r="29.7"/>
	<g>
		<path class="st28" d="M963,474.6H658.2c-2,0-3.7-1.7-3.7-3.7c0-2,1.7-3.7,3.7-3.7c0,0,0,0,0,0H963c2.1,0,3.7,1.7,3.7,3.7
			S965,474.6,963,474.6L963,474.6z"/>
		
			<ellipse transform="matrix(0.9247 -0.3807 0.3807 0.9247 -126.7157 294.5453)" class="st28" cx="681.1" cy="467.5" rx="11.9" ry="11.9"/>
		<circle class="st28" cx="714.9" cy="467.5" r="14.3"/>
		<ellipse class="st28" cx="754.2" cy="467.5" rx="17.2" ry="17.2"/>
		
			<ellipse transform="matrix(0.9252 -0.3795 0.3795 0.9252 -117.6341 338.1957)" class="st28" cx="799.1" cy="467.5" rx="20.6" ry="20.6"/>
		<ellipse class="st28" cx="852.5" cy="467.4" rx="24.8" ry="24.8"/>
		<ellipse class="st28" cx="915.7" cy="467.5" rx="29.7" ry="29.7"/>
	</g>
</g>
<path class="st17" d="M-1.8,500H1011v111H-1.8V500z"/>
<g>
	<path class="st23" d="M292.9,32.7v87.1h-21.2V65.3l-18.9,54.5h-18.4l-19-54.6v54.6h-21.2V32.7h25.9l23.7,60.7L267,32.7H292.9z
		 M361.9,103.8H329l-5.5,16h-22.3l32.1-87.1h24.5l32.1,87.1h-22.6L361.9,103.8L361.9,103.8z M356.4,87.7l-10.9-32.3l-11,32.3H356.4z
		 M419.3,32.1v87.8h-21.2V32.1H419.3z M511.9,119.8h-21.2L455.2,66v53.9H434V32.1h21.2l35.5,54.4V32.1h21.2L511.9,119.8L511.9,119.8
		z M589.6,32.1V49h-23.8v70.9h-21.3V49h-23.6V32.1H589.6L589.6,32.1z M652.9,103.8H620l-5.5,16h-22.3l32.1-87.1h24.5l32.1,87.1
		h-22.6L652.9,103.8L652.9,103.8z M647.5,87.7l-10.9-32.3l-11,32.3H647.5z M710.4,32.1v87.8h-21.2V32.1H710.4z M803,119.8h-21.2
		L746.3,66v53.9H725V32.1h21.2l35.5,54.4V32.1H803C803,32.1,803,119.8,803,119.8z M380.2,181l-21,87.8h-26.3l-14-58.7l-14.1,58.7
		h-26.3l-21-87.8h23.1l11.3,63.5l15.4-63.5h23.2l15.4,63.5l11.4-63.5L380.2,181L380.2,181z M412.6,197.9v18.4h29.7v16h-29.7v19.5
		H446v17h-54.6V181H446v16.9H412.6z M479.2,181v87.8H458V181H479.2z M562.1,188.2c7.1,5.4,11.5,12.7,13.3,21.8h-22.5
		c-1.5-3.1-3.8-5.6-6.8-7.5c-3.1-1.9-6.7-2.8-11-2.8c-6.7,0-12.1,2.3-16.1,6.8c-4.1,4.5-6.1,10.6-6.1,18.3c0,8.4,2.1,14.8,6.4,19.2
		c4.3,4.5,10.3,6.7,18.2,6.7c5,0,9.5-1.4,13.3-4.2s6.5-6.7,8.1-11.9H532v-15.3h44.6v21c-1.7,5.1-4.3,9.9-7.9,14.3
		c-3.6,4.4-8.3,7.9-14,10.7c-5.7,2.7-12.1,4.1-19.4,4.1c-8.9,0-16.6-1.9-23.2-5.6c-6.6-3.8-11.7-9-15.3-15.8
		c-3.6-6.8-5.4-14.5-5.4-23.2s1.8-16.4,5.4-23.2c3.4-6.7,8.8-12.1,15.3-15.8c6.6-3.8,14.3-5.6,23-5.6
		C546,180.2,555,182.9,562.1,188.2L562.1,188.2z M664.3,181v87.8H643v-36.6h-33.3v36.6h-21.2V181h21.2v34H643v-34H664.3z M742,181
		v16.9h-23.8v70.9h-21.3v-70.9h-23.6V181H742z"/>
</g>
<g>
	<path class="st29" d="M731.6,345.7l6.4-2.7c0,0,1.9,6.5,1.2,10.9h-2.6c-1,0-1.8-0.6-2-1.6C734.1,350.6,733.1,347.6,731.6,345.7
		L731.6,345.7z"/>
	
		<linearGradient id="SVGID_22_" gradientUnits="userSpaceOnUse" x1="739.5604" y1="240.7941" x2="732.7004" y2="255.6741" gradientTransform="matrix(1 0 0 -1 0 600)">
		<stop  offset="0" style="stop-color:#C0DFFF"/>
		<stop  offset="2.000000e-02" style="stop-color:#F5F5F5"/>
		<stop  offset="1" style="stop-color:#C47E7D"/>
	</linearGradient>
	<path class="st30" d="M736,351.4c-0.4-2.7-1.1-5.1-1.8-6.8l-2.6,1.1c1.4,1.9,2.4,4.9,2.9,6.7c0.3,0.9,1.1,1.6,2,1.6h2.6
		c-0.9-0.3-1.5-0.6-2-0.8C736.6,352.7,736.1,352.1,736,351.4L736,351.4z"/>
	<path class="st29" d="M713.7,352.4l2.4,7.6c0.5,1.4,1.5,2.6,2.9,3.2l10.8,4.4l0.8-0.9c0.7-0.8,0.8-1.9,0.5-2.9
		c-0.7-1.8-1.7-5-1.7-8L713.7,352.4L713.7,352.4z"/>
	
		<linearGradient id="SVGID_23_" gradientUnits="userSpaceOnUse" x1="734.3069" y1="228.0194" x2="726.1469" y2="245.7394" gradientTransform="matrix(1 0 0 -1 0 600)">
		<stop  offset="0" style="stop-color:#C0DFFF"/>
		<stop  offset="2.000000e-02" style="stop-color:#F5F5F5"/>
		<stop  offset="1" style="stop-color:#C47E7D"/>
	</linearGradient>
	<path class="st31" d="M729.3,355.7l-2.8-0.6c0.3,2.5,1.1,7.8,3.3,12.5l0.8-0.9c0.7-0.8,0.8-1.9,0.5-2.9
		C730.3,361.9,729.3,358.8,729.3,355.7z"/>
	<path class="st29" d="M843.3,344.5c0,0,0.8,8.4-3.7,13.2v3.4c0,0,9.1,3.9,12.6,4.9c0,0,2.2-2.4,3-3.9c0,0-0.6,3.4-1.4,4.7l4,1.8
		c0,0,5.2-6.5,4.9-14.8l-3.9-11.7L843.3,344.5L843.3,344.5z"/>
	
		<linearGradient id="SVGID_24_" gradientUnits="userSpaceOnUse" x1="850.5608" y1="265.1343" x2="860.7208" y2="231.0843" gradientTransform="matrix(1 0 0 -1 0 600)">
		<stop  offset="0" style="stop-color:#C0DFFF"/>
		<stop  offset="2.000000e-02" style="stop-color:#F5F5F5"/>
		<stop  offset="1" style="stop-color:#C47E7D"/>
	</linearGradient>
	<path class="st32" d="M862.6,353.8l-3.5-10.5l-3,1.5c0,0,4.2,14,1.1,21.6l-3.5,0.4l4,1.8C857.7,368.5,862.9,362.1,862.6,353.8z"/>
	
		<linearGradient id="SVGID_25_" gradientUnits="userSpaceOnUse" x1="845.3208" y1="249.3392" x2="850.2408" y2="232.8592" gradientTransform="matrix(1 0 0 -1 0 600)">
		<stop  offset="0" style="stop-color:#C0DFFF"/>
		<stop  offset="2.000000e-02" style="stop-color:#F5F5F5"/>
		<stop  offset="1" style="stop-color:#C47E7D"/>
	</linearGradient>
	<path class="st33" d="M852.2,365.9c0,0,2.2-2.4,3-3.9l1-4.4c-0.6,1.5-4,4.5-4,4.5l-12.6-4.5v3.4C839.6,361,848.7,364.9,852.2,365.9
		z"/>
	<path class="st29" d="M857.5,336.2l6.2,7.1c0,0,1.5,7.4,0,14.2c0,0-3.9,1.1-4.3-3.3c-0.2-2.6-0.6-7.3-3.3-10.5L857.5,336.2
		L857.5,336.2z"/>
	<path class="st34" d="M772.7,136.9l-2.1-2.7c0,0-2.7-2.8-4.8-1c-1.5,1.3-0.8,7.2,0.5,10.5c1.4,3.4,4.9,3.9,7.3,2.1L772.7,136.9
		L772.7,136.9z"/>
	
		<linearGradient id="SVGID_26_" gradientUnits="userSpaceOnUse" x1="767.4" y1="460.2902" x2="773.86" y2="460.2902" gradientTransform="matrix(1 0 0 -1 0 600)">
		<stop  offset="0" style="stop-color:#F5F5F5"/>
		<stop  offset="1" style="stop-color:#C47E7D"/>
	</linearGradient>
	<path class="st35" d="M772.7,136.9l-2.1-2.7c0,0-2.7-2.8-4.8-1c-1.5,1.3-0.8,7.2,0.5,10.5c1.4,3.4,4.9,3.9,7.3,2.1L772.7,136.9
		L772.7,136.9z"/>
	
		<linearGradient id="SVGID_27_" gradientUnits="userSpaceOnUse" x1="764.96" y1="459.5776" x2="769.89" y2="459.5776" gradientTransform="matrix(1 0 0 -1 0 600)">
		<stop  offset="0" style="stop-color:#F5F5F5"/>
		<stop  offset="1" style="stop-color:#C47E7D"/>
	</linearGradient>
	<path class="st36" d="M767.8,142c-0.8-0.5-0.7-1.8,0-2.5c1.5-1.6,0.6-2.8,0-4.4c-0.6-1.6-2.4-1.2-2.7,0c-0.3,2.4,0.3,6.2,1.2,8.6
		c0.7,1.8,2.1,2.8,3.6,3.1C770.1,144.8,768.6,142.4,767.8,142L767.8,142z"/>
	<path class="st34" d="M804.6,136.9l2.1-2.7c0,0,2.7-2.8,4.8-1c1.5,1.3,0.8,7.2-0.5,10.5c-1.4,3.4-4.9,3.9-7.3,2.1L804.6,136.9
		L804.6,136.9z"/>
	
		<linearGradient id="SVGID_28_" gradientUnits="userSpaceOnUse" x1="-1443.4301" y1="460.2902" x2="-1436.97" y2="460.2902" gradientTransform="matrix(-1 0 0 -1 -633.51 600)">
		<stop  offset="0" style="stop-color:#F5F5F5"/>
		<stop  offset="1" style="stop-color:#C47E7D"/>
	</linearGradient>
	<path class="st37" d="M804.6,136.9l2.1-2.7c0,0,2.7-2.8,4.8-1c1.5,1.3,0.8,7.2-0.5,10.5c-1.4,3.4-4.9,3.9-7.3,2.1L804.6,136.9
		L804.6,136.9z"/>
	
		<linearGradient id="SVGID_29_" gradientUnits="userSpaceOnUse" x1="-1445.87" y1="459.5776" x2="-1440.9301" y2="459.5776" gradientTransform="matrix(-1 0 0 -1 -633.51 600)">
		<stop  offset="0" style="stop-color:#F5F5F5"/>
		<stop  offset="1" style="stop-color:#C47E7D"/>
	</linearGradient>
	<path class="st38" d="M809.5,142c0.8-0.5,0.7-1.8,0-2.5c-1.5-1.6-0.6-2.8,0-4.4c0.6-1.6,2.4-1.2,2.7,0c0.3,2.4-0.3,6.2-1.2,8.6
		c-0.7,1.8-2.1,2.8-3.6,3.1C807.2,144.8,808.7,142.4,809.5,142L809.5,142z"/>
	<path class="st39" d="M729,508.8l5.6,36.5l0.2,1.7c0.8,6.8-4.5,12.9-11.4,12.9h-21.2c-4.3,0-7.6-3.8-7-8l2.4-22.2l4.5-23.7
		l12.2-6.5L729,508.8z"/>
	
		<linearGradient id="SVGID_30_" gradientUnits="userSpaceOnUse" x1="714.9561" y1="63.38" x2="714.9561" y2="29.32" gradientTransform="matrix(1 0 0 -1 0 600)">
		<stop  offset="0" style="stop-color:#F5F5F5"/>
		<stop  offset="1" style="stop-color:#131A71"/>
	</linearGradient>
	<path class="st40" d="M702.2,559.9h21.2c6.8,0,12.1-5.9,11.4-12.7c-1.6,4.2-4.9,7.3-8.5,7.3c-4.4,0-5-10.7-10.7-10.7
		s-8.7,10.9-13,10.9s-7.2-5.8-7.2-5.8l-0.3,2.8C694.6,556.2,697.9,559.9,702.2,559.9z"/>
	<path class="st29" d="M837.1,194.1c1.9,1.1,4.7,2.9,7.6,4.9c6.5,4.6,9.9,12.4,8.6,20.3l-2.2,13.8l4.2,38.8l2.8,5.3
		c2.6,5.1,3.7,10.8,3.1,16.5l-3.6,31.3c0,0-5.2,4.2-15.2,1.3l-7.9-48.2l-13.1-38L837.1,194.1L837.1,194.1z"/>
	<path class="st41" d="M840.7,324.7c0,0,7.2-3.3,19.4-1c0,0,3.5,15,3.6,19.6c0,0-3.9,1.1-6.7,3.8c-1.4,1.3-8.6,1.9-13.6,0.6
		c-1.2-0.3-2-1.4-2-2.7C841.3,338.8,841.2,331.8,840.7,324.7z"/>
	
		<linearGradient id="SVGID_31_" gradientUnits="userSpaceOnUse" x1="851.2002" y1="307.6071" x2="819.6302" y2="357.4571" gradientTransform="matrix(1 0 0 -1 0 600)">
		<stop  offset="0" style="stop-color:#C0DFFF"/>
		<stop  offset="2.000000e-02" style="stop-color:#F5F5F5"/>
		<stop  offset="1" style="stop-color:#C47E7D"/>
	</linearGradient>
	<path class="st42" d="M855.3,271.9c-13.7-5.8-26-36.3-26-36.3l-5.2-3.4l-2.7,7.9l13.1,38l3.3,20.1
		C837.2,277.4,855.3,271.9,855.3,271.9L855.3,271.9z"/>
	<path class="st43" d="M788.9,176.4h-17.8l-24.6,13.3c0,0,7.5,28,0,63.4l7.5,23.8c1,3.3,1.1,6.8,0.3,10.1l-5.4,21.2
		c0,0,18,15.5,39.9,15.5c23.5,0,39.3-15.5,39.3-15.5s-0.6-49.6-1.8-67.3c9.3-14.2,10.6-46.8,10.6-46.8l-30.3-17.7L788.9,176.4
		L788.9,176.4z"/>
	
		<linearGradient id="SVGID_32_" gradientUnits="userSpaceOnUse" x1="772.5439" y1="304.492" x2="728.5139" y2="345.482" gradientTransform="matrix(1 0 0 -1 0 600)">
		<stop  offset="0" style="stop-color:#F5F5F5"/>
		<stop  offset="1" style="stop-color:#710BC8"/>
	</linearGradient>
	<path class="st44" d="M748.8,238.7c-0.5,4.6-1.3,9.4-2.3,14.4l7.5,23.8c1,3.3,1.1,6.8,0.3,10.1l-5.4,21.2c0,0,4.6,4,12.1,7.9
		c2.7-12.2,5-22,6.3-26.3C774,267.8,748.8,238.7,748.8,238.7L748.8,238.7z"/>
	
		<linearGradient id="SVGID_33_" gradientUnits="userSpaceOnUse" x1="827.1693" y1="385.1204" x2="738.0892" y2="353.7504" gradientTransform="matrix(1 0 0 -1 0 600)">
		<stop  offset="0" style="stop-color:#F5F5F5"/>
		<stop  offset="1" style="stop-color:#710BC8"/>
	</linearGradient>
	<path class="st45" d="M749.8,217c0.2,6.4-0.1,13.7-1,21.7c8.2-1.6,38-6.2,78.1,1.4c3.3-5.4,5.5-13,7-20.6
		C822.7,215.6,793.8,208.5,749.8,217L749.8,217z"/>
	<path class="st29" d="M746.5,189.7l-6.8,3.9c-7.8,4.6-12.5,13.1-12.1,22.2l0.4,9.9l-16.3,37.1l3.7,63.6c0,0,6.1,2.8,15.5,0
		l6.5-41.5c0.5-3.3,0.1-6.8-1.3-9.9l-1.2-2.6C735.1,272.3,762.6,258.6,746.5,189.7L746.5,189.7z"/>
	<path class="st41" d="M749,308.2l-18.4,87.9c-1.1,5.1-3.4,9.8-6.9,13.7c-7.7,8.7-12.7,19.5-14.3,31l-7.7,55.4l-3.1,6.9
		c-1.6,3.6-0.6,7.8,2.5,10.3l10.8-6.9c2.9-1.9,6.7-1.8,9.6,0.1l7.8,5.1c1.2,0.8,2.9,0.1,3.2-1.4l0.7-3.7c0.4-2.3-0.4-4.7-2.1-6.4
		c-0.7-0.6-0.9-1.5-0.7-2.4l21.2-73.1l9.3-9.5l26.1-68.1l15.1,47.3c2,6.4,2.1,13.3,0.1,19.7c-2.1,6.9-2,14.2,0.3,21l16.4,47.2
		c0.8,2.4,1.1,5,0.8,7.6c-0.2,1.8,0.5,3.7,1.9,4.9l1.3,1.1l-0.9,11.9l10.3-7.2l15.1-11.1l-1.9-5c-0.4-1.1-0.6-2.3-0.5-3.4v-0.5
		c0.1-1.7-0.7-3.3-2.2-4.1c-1.6-0.9-2.7-2.5-2.8-4.4l-4.3-54.5l2.4-20.8l-9.9-88.8H749V308.2z M732.7,325.4c0,0-7.1-4.6-19.7-1.7
		c0,0-1.5,16.2,0.7,28.7c0,0,7.6,3.6,15.6,3.3c0,0,1.7-9.6,8.7-12.7c0,0-1.9-7.9-6.4-11.2L732.7,325.4L732.7,325.4z"/>
	
		<linearGradient id="SVGID_34_" gradientUnits="userSpaceOnUse" x1="791.8" y1="406.52" x2="791.8" y2="437.57" gradientTransform="matrix(1 0 0 -1 0 600)">
		<stop  offset="0" style="stop-color:#F5F5F5"/>
		<stop  offset="1" style="stop-color:#710BC8"/>
	</linearGradient>
	<path class="st46" d="M788.9,176.4h-17.8l-24.6,13.3c0,0,0.6,2.2,1.3,6.1c13.6-2.1,51.8-6.3,89,2.7l0.3-4.4l-30.3-17.7L788.9,176.4
		L788.9,176.4z"/>
	
		<linearGradient id="SVGID_35_" gradientUnits="userSpaceOnUse" x1="725.0857" y1="319.387" x2="750.8357" y2="371.997" gradientTransform="matrix(1 0 0 -1 0 600)">
		<stop  offset="0" style="stop-color:#F5F5F5"/>
		<stop  offset="1" style="stop-color:#C47E7D"/>
	</linearGradient>
	<path class="st47" d="M750.9,215.8c-11.5,13-18.5,28.4-22.1,37.7c-1.7,4.4-0.8,9.4,2.2,13c2.5,3,4,5.8,4,5.8
		S755.3,262.2,750.9,215.8L750.9,215.8z"/>
	
		<linearGradient id="SVGID_36_" gradientUnits="userSpaceOnUse" x1="714.5207" y1="310.0503" x2="713.6007" y2="343.2803" gradientTransform="matrix(1 0 0 -1 0 600)">
		<stop  offset="0" style="stop-color:#F5F5F5"/>
		<stop  offset="1" style="stop-color:#C47E7D"/>
	</linearGradient>
	<path class="st48" d="M715.5,254.2l-3.7,8.6l2,35.5L715.5,254.2z"/>
	
		<linearGradient id="SVGID_37_" gradientUnits="userSpaceOnUse" x1="750.5665" y1="180.5454" x2="688.8065" y2="209.3454" gradientTransform="matrix(1 0 0 -1 0 600)">
		<stop  offset="0" style="stop-color:#F5F5F5"/>
		<stop  offset="1" style="stop-color:#511088"/>
	</linearGradient>
	<path class="st49" d="M749,308.2l-18.4,87.9c-1.1,5.1-3.4,9.8-6.9,13.7c-7.7,8.7-12.7,19.5-14.3,31l-7.7,55.4l-3.1,6.9
		c-1.6,3.6-0.6,7.8,2.5,10.3l5.3-3.4c1.9-17.3,6.4-55.8,9.1-65c7.1-23.9,22.5-18.1,28.5-40.8c0.9-3.4,0.5-11.9,2.4-20.8
		c4.7-21.6,11.5-54.2,16.3-75.3L749,308.2L749,308.2z"/>
	
		<linearGradient id="SVGID_38_" gradientUnits="userSpaceOnUse" x1="823.319" y1="149.0082" x2="771.5389" y2="179.1882" gradientTransform="matrix(1 0 0 -1 0 600)">
		<stop  offset="0" style="stop-color:#F5F5F5"/>
		<stop  offset="1" style="stop-color:#511088"/>
	</linearGradient>
	<path class="st50" d="M815.8,404.8c-1.9-10.2-14.4-17.7-19.1-27l5.4,16.7c2,6.4,2.1,13.3,0.1,19.7c-2.1,6.9-2,14.2,0.3,21
		l16.4,47.2c0.8,2.4,1.1,5,0.8,7.6c-0.2,1.8,0.5,3.7,1.9,4.9l1.3,1.1l-0.9,11.9l10.3-7.2l0.1-0.1c-7-10.3-11.5-36.9-16.7-57.6
		C810,419.8,817.7,415,815.8,404.8L815.8,404.8z"/>
	<path class="st51" d="M817.7,437.6c-0.7-5.4,0.1-10.6,0.9-16.1c0.9-6.1,1.8-12.3,0.8-19.1c-1.7-11.3-23.3-38.4-29.5-45.9l1.9,5.9
		c8.4,10.6,24,31.3,25.4,40.3c1,6.5,0.1,12.6-0.8,18.5c-0.8,5.4-1.6,11-0.9,16.7c2.4,19.3,9.4,47.6,16,58.9l1.9-1.1
		C827,484.6,820.1,456.7,817.7,437.6L817.7,437.6z M765.5,308.2c-3.5,15.9-17.8,79.8-28.3,96c-5.2,7.9-9.6,12.8-13.1,16.7
		c-4.8,5.3-8.3,9.2-10.1,16.9c-2.8,11.8-8.1,56.6-9.4,73.5l2.4-1.5c1.6-17.7,6.6-60.2,9.2-71.5c1.7-7.2,4.8-10.7,9.6-15.9
		c3.6-3.9,8-8.9,13.3-16.9c11-16.9,25.4-81.9,28.7-97.2h-2.3L765.5,308.2z"/>
	<path class="st29" d="M804.5,152h-31.2l-2.7,29.1c0,1.5,8.2,2.6,18.3,2.6s18.3-1.2,18.3-2.6L804.5,152L804.5,152z"/>
	
		<linearGradient id="SVGID_39_" gradientUnits="userSpaceOnUse" x1="787.95" y1="413.98" x2="787.95" y2="432.62" gradientTransform="matrix(1 0 0 -1 0 600)">
		<stop  offset="0" style="stop-color:#F5F5F5"/>
		<stop  offset="1" style="stop-color:#C47E7D"/>
	</linearGradient>
	<path class="st52" d="M805.3,161l-0.8-9h-31.2l-2.7,29.1c0,1.3,6.5,2.4,15,2.6c-5-7.7-6-13.7-6-13.7
		C794.7,175.5,802.2,166.7,805.3,161L805.3,161z"/>
	<path class="st29" d="M807.2,113c-3.5-2.5-7-2-7-2s-18.6-14.8-32.5,6.3c-1.3,2-1,4.6,0.8,6.2l1.4,1.3c-0.1,0.6,0,23.4,0,23.4
		s1.8,5.8,6.7,13.6c2,3.2,5.6,5.2,9.4,5.2h6c3.8,0,7.3-2,9.4-5.2c4.9-7.9,6.7-13.6,6.7-13.6s0.1-18,0-18.6l1.4-2
		C812.6,123,811.8,116.4,807.2,113L807.2,113z"/>
	<path class="st53" d="M769.7,139.3c2.8-1.8,3.2-8.5,3.2-8.5l-3.2,0.9V139.3z M808,139.3c-2.8-1.8-3.2-8.5-3.2-8.5l3.2,0.9
		C808.1,134.1,808,136.8,808,139.3z M807.2,113c-3.5-2.5-7-2-7-2s-18.6-14.8-32.5,6.3c-1.3,2-1,4.6,0.8,6.2l1.4,1.3v1.5h40.4
		C812.5,121.8,811.4,116.1,807.2,113L807.2,113z"/>
	<path class="st54" d="M808,129.7l1.4-2c0.9-1.2,1.5-2.6,1.7-4.1c-3.6-9.7-12.2-3.9-12.2-3.9c-11.1-9.8-22.1-6.1-28.3-2.5
		c-2.8,1.6-3.2,5.5-0.9,7.8L808,129.7z"/>
	<path class="st43" d="M769.6,124.8L769.6,124.8c0,0.3,0,4,0,8.3c12.5-3.3,25.8-3.3,38.3,0v-2c0-1,0.3-1.9,0.8-2.7l0.5-0.8
		c0.5-0.7,0.9-1.5,1.2-2.3C797,121.8,783,121.6,769.6,124.8z"/>
	
		<linearGradient id="SVGID_40_" gradientUnits="userSpaceOnUse" x1="783.8162" y1="433.7237" x2="765.3561" y2="459.0237" gradientTransform="matrix(1 0 0 -1 0 600)">
		<stop  offset="0" style="stop-color:#F5F5F5"/>
		<stop  offset="1" style="stop-color:#C47E7D"/>
	</linearGradient>
	<path class="st55" d="M785.9,166.9c-4.5,0-6.5-7.7-7.2-11.6c-0.3-1.6-1-3-1.9-4.3l-6.9-9.1v6.5c0,0,1.8,5.8,6.7,13.6
		c2,3.2,5.6,5.2,9.4,5.2h1.1C786.7,167,786.4,166.9,785.9,166.9L785.9,166.9z"/>
	
		<linearGradient id="SVGID_41_" gradientUnits="userSpaceOnUse" x1="-1411.1941" y1="433.7016" x2="-1429.6642" y2="459.0016" gradientTransform="matrix(-1 0 0 -1 -617.13 600)">
		<stop  offset="0" style="stop-color:#F5F5F5"/>
		<stop  offset="1" style="stop-color:#C47E7D"/>
	</linearGradient>
	<path class="st56" d="M792,166.9c4.5,0,6.5-7.7,7.2-11.6c0.3-1.6,1-3,1.9-4.3l6.9-9.1v6.5c0,0-1.8,5.8-6.7,13.6
		c-2,3.2-5.6,5.2-9.4,5.2h-1.1C791.1,167,791.5,166.9,792,166.9L792,166.9z"/>
	<path class="st39" d="M822.6,502.4l-4.2,18.2c-0.6,2.6,1.1,5.2,3.7,5.7l6.6,1.3c3,0.6,6,0.6,9,0.2c2.2-0.3,4.4,0,6.5,0.9l0.9,0.4
		c3.5,1.5,7.2,2.2,11,2.2h18.8c6.1,0,11.4-3.9,13.3-9.7c0.8-2.4-0.5-4.9-2.8-5.9l-16.8-6.5c-5.6-2.2-10.5-5.9-14.2-10.7l-6.8-8.9
		l-13.9,2.4C828.2,492.9,823.8,497,822.6,502.4z"/>
	
		<linearGradient id="SVGID_42_" gradientUnits="userSpaceOnUse" x1="881.5469" y1="98.4573" x2="793.6669" y2="38.4574" gradientTransform="matrix(1 0 0 -1 0 600)">
		<stop  offset="0" style="stop-color:#F5F5F5"/>
		<stop  offset="1" style="stop-color:#131A71"/>
	</linearGradient>
	<path class="st57" d="M822.1,526.3l6.6,1.3c3,0.6,6,0.6,9,0.2c2.2-0.3,4.4,0,6.5,0.9l0.9,0.4c3.5,1.5,7.2,2.2,11,2.2h18.8
		c6.1,0,11.4-3.9,13.3-9.7c0.2-0.5,0.2-1,0.2-1.5c-4.5,5-14.5,7.2-27,6.5c-13.5-0.8-34.8-8.4-41.7-11l-1.2,5.1
		C817.8,523.2,819.5,525.8,822.1,526.3L822.1,526.3z"/>
	<g>
		<path class="st58" d="M774.8,135.1c0,0,6.2-1.4,11.1,0l1,17.8l6.1-0.6 M802,135.1c0,0-6.2-1.4-11.1,0"/>
	</g>
	<g>
		<path class="st53" d="M775.9,139.3h7.8C783.7,139.3,780.5,134.8,775.9,139.3z M800,139.3h-7.8C792.2,139.3,795.4,134.8,800,139.3z
			"/>
	</g>
	<path class="st58" d="M781.9,156.8l11.9-0.5c1.5-0.1,2.9-0.5,4.1-1.3l0.9-0.6 M786.4,159.4h6.6"/>
</g>
<g>
	<path class="st59" d="M253.4,306.4v-99.3l-24.6-63.7"/>
	<path class="st60" d="M227.8,151.8c0.5,1.2-0.2,2.5-1.4,3s-2.5-0.2-3-1.4l-7.1-18.9c-0.5-1.2,0.2-2.5,1.4-3s2.5,0.2,3,1.4
		L227.8,151.8z"/>
	<path class="st60" d="M232.3,150c0.5,1.3-0.2,2.7-1.5,3.2s-2.7-0.2-3.2-1.5l-7.6-20.4c-0.5-1.3,0.2-2.7,1.5-3.2s2.7,0.2,3.2,1.5
		L232.3,150z"/>
	<path class="st60" d="M236.5,148.6c0.5,1.2-0.2,2.5-1.4,3s-2.5-0.2-3-1.4l-7.1-18.9c-0.5-1.2,0.2-2.5,1.4-3s2.5,0.2,3,1.4
		L236.5,148.6z"/>
	<path class="st60" d="M242.2,150.7c0.5,1.2-0.2,2.5-1.4,3s-2.5-0.2-3-1.4l-7.1-18.9c-0.5-1.2,0.2-2.5,1.4-3s2.5,0.2,3,1.4
		L242.2,150.7z"/>
	<path class="st61" d="M217.9,145.9l3.2,9.2l10.8,6.7"/>
	<g class="st62">
		<path class="st59" d="M253.4,306.4v-99.3l-24.6-63.7"/>
		<path class="st60" d="M227.8,151.8c0.5,1.2-0.2,2.5-1.4,3s-2.5-0.2-3-1.4l-7.1-18.9c-0.5-1.2,0.2-2.5,1.4-3s2.5,0.2,3,1.4
			L227.8,151.8z"/>
		<path class="st60" d="M232.3,150c0.5,1.3-0.2,2.7-1.5,3.2s-2.7-0.2-3.2-1.5l-7.6-20.4c-0.5-1.3,0.2-2.7,1.5-3.2s2.7,0.2,3.2,1.5
			L232.3,150z"/>
		<path class="st60" d="M236.5,148.6c0.5,1.2-0.2,2.5-1.4,3s-2.5-0.2-3-1.4l-7.1-18.9c-0.5-1.2,0.2-2.5,1.4-3s2.5,0.2,3,1.4
			L236.5,148.6z"/>
		<path class="st60" d="M242.2,150.7c0.5,1.2-0.2,2.5-1.4,3s-2.5-0.2-3-1.4l-7.1-18.9c-0.5-1.2,0.2-2.5,1.4-3s2.5,0.2,3,1.4
			L242.2,150.7z"/>
		<path class="st61" d="M217.9,145.9l3.2,9.2l10.8,6.7"/>
	</g>
	<path class="st63" d="M226.9,235.7V262c0,11.6,9.4,20.9,20.9,20.9h0.5c11.6,0,20.9-9.4,20.9-20.9v-26.3H226.9L226.9,235.7z"/>
	<path class="st64" d="M271.6,236.1c0-18.2-14.2-34-32.4-34h-0.8c-17,0-32.7,16.2-33.6,31c-1.5,25.4,9.4,36.9,23.3,36.9h0.6v-32.7
		h42.8L271.6,236.1L271.6,236.1z"/>
	<ellipse class="st64" cx="214.3" cy="208.9" rx="18.9" ry="18.9"/>
	<circle class="st63" cx="228.2" cy="257.2" r="7.8"/>
	<path class="st65" d="M229.6,259.4c0,1.5-1.2,2.7-2.7,2.7s-2.7-1.2-2.7-2.7s1.2-2.7,2.7-2.7S229.6,257.9,229.6,259.4z"/>
	<path class="st63" d="M237.6,275h16.3v23.9h-16.3V275z"/>
	<path class="st60" d="M233.3,355.5c0,0,1.2,11.1-0.2,19.4c-1.2,6.9-8.4,24.4-8.4,24.4l51.9,18.2c0,0-1.8-22.9-4.3-36.4
		c-1.5-7.8,1-26.2,1-26.2L233.3,355.5L233.3,355.5z"/>
	<path class="st64" d="M259.7,288.9h-23.1c-4.9,10-14.2,34.1-7.1,67.9H276C276,356.8,281,303.5,259.7,288.9z"/>
	<path class="st60" d="M340.9,504c0,0-2.3,4.5-6.3,7.3c-4,2.7-5.8,8.1-2.6,12.8c3.2,4.7,5,11.7,5.3,14c0.4,3.4,10,6.2,20,3.1
		c0.6-0.2,0.8-3,0.3-3.3c-2.2-1.6-11.3,0-12.9-5.9c-0.9-3.1,0.3-7.1,1.4-10.2c1.6-4.4,4.2-11.1,4.5-18.5L340.9,504L340.9,504z"/>
	<path class="st64" d="M225.5,398.7c-3.9,5.2-6.3,11.6-6.3,18.6c0,17.1,13.9,30.9,31.1,30.9s31.1-13.8,31.1-30.9
		c0-7-2.3-13.4-6.3-18.6H225.5z"/>
	<path class="st64" d="M248.4,444.9c0,0,36.8,16.1,97.8-19.8c0,0-10.7,15.9-12.8,37.6c-2,21.6,6.4,29.2,4.9,45.1l11.7-1
		c0,0,32.7-94.6,18.3-96C368.4,410.7,204.8,378.2,248.4,444.9L248.4,444.9z"/>
	<g>
		<path class="st59" d="M238.3,306.4v-99.3l-24.6-63.7"/>
		<path class="st60" d="M212.7,151.8c0.5,1.2-0.2,2.5-1.4,3s-2.5-0.2-3-1.4l-7.1-18.9c-0.5-1.2,0.2-2.5,1.4-3s2.5,0.2,3,1.4
			L212.7,151.8z"/>
		<path class="st60" d="M217.2,150c0.5,1.3-0.2,2.7-1.5,3.2s-2.7-0.2-3.2-1.5l-7.6-20.4c-0.5-1.3,0.2-2.7,1.5-3.2s2.7,0.2,3.2,1.5
			L217.2,150z"/>
		<path class="st60" d="M221.4,148.6c0.5,1.2-0.2,2.5-1.4,3s-2.5-0.2-3-1.4l-7.1-18.9c-0.5-1.2,0.2-2.5,1.4-3s2.5,0.2,3,1.4
			L221.4,148.6z"/>
		<path class="st60" d="M227.1,150.7c0.5,1.2-0.2,2.5-1.4,3s-2.5-0.2-3-1.4l-7.1-18.9c-0.5-1.2,0.2-2.5,1.4-3s2.5,0.2,3,1.4
			L227.1,150.7z"/>
		<path class="st61" d="M202.8,145.9l3.2,9.2l10.8,6.7"/>
	</g>
	<g>
		<path class="st64" d="M249.2,401.5c0,0-59.7,22.5-89.9,59.5c0,0-77.6,3.2-101.7,55.5l3.8,7.4c0,0,65.3-39.3,92.4-43
			c27.2-3.7,102.2-2.3,100.8-79.6"/>
		<path class="st60" d="M61.5,523.9c0,0-42.7,15.8-46,18.9c-3.3,3.1-8.7-6.4-2.7-7.4S34.4,526,32,521s10-22.8,25.7-4.5L61.5,523.9z"
			/>
	</g>
</g>
</svg>
