<?xml version="1.0" standalone="no"?>
<!DOCTYPE svg PUBLIC "-//W3C//DTD SVG 20010904//EN"
 "http://www.w3.org/TR/2001/REC-SVG-20010904/DTD/svg10.dtd">
<svg version="1.0" xmlns="http://www.w3.org/2000/svg"
 width="612.000000pt" height="612.000000pt" viewBox="0 0 612.000000 612.000000"
 preserveAspectRatio="xMidYMid meet">
<g transform="translate(0.000000,612.000000) scale(0.100000,-0.100000)"
fill="#000000" stroke="none">
<path d="M2775 6089 c-33 -4 -82 -10 -109 -13 -130 -16 -311 -52 -431 -88 -38
-11 -74 -21 -80 -23 -5 -1 -17 -5 -25 -8 -8 -3 -44 -15 -80 -27 -36 -12 -78
-27 -95 -35 -16 -7 -70 -30 -120 -51 -49 -21 -110 -49 -135 -62 -146 -77 -207
-112 -309 -181 -62 -42 -121 -80 -129 -86 -18 -11 -33 -23 -59 -45 -9 -8 -31
-25 -47 -38 -60 -44 -142 -119 -249 -227 -146 -148 -143 -145 -275 -311 -45
-56 -170 -250 -228 -354 -57 -101 -73 -132 -127 -250 -55 -119 -139 -360 -154
-439 -2 -13 -6 -28 -9 -33 -3 -5 -8 -21 -10 -36 -3 -15 -10 -47 -15 -72 -6
-25 -13 -56 -15 -70 -2 -14 -9 -47 -14 -75 -5 -27 -12 -75 -15 -105 -4 -30 -9
-71 -11 -90 -18 -142 -17 -493 1 -630 28 -206 31 -226 58 -350 25 -113 76
-287 107 -365 4 -11 18 -47 31 -80 39 -105 216 -458 238 -475 3 -3 15 -22 26
-43 11 -21 28 -45 38 -54 9 -9 17 -22 17 -30 0 -7 5 -13 10 -13 6 0 10 -6 10
-14 0 -8 4 -16 8 -18 5 -2 22 -23 39 -48 18 -25 42 -57 55 -72 13 -15 41 -48
63 -75 117 -142 378 -394 454 -437 9 -5 24 -18 35 -27 29 -27 241 -169 294
-197 26 -13 54 -30 62 -36 15 -13 159 -83 265 -131 97 -43 208 -85 325 -120
79 -24 118 -34 190 -50 8 -2 15 -4 15 -5 0 -2 16 -5 60 -14 17 -3 39 -8 50
-10 24 -4 145 -23 200 -31 85 -12 227 -19 385 -19 166 0 262 6 440 29 30 4 58
9 61 11 4 2 24 6 45 9 46 6 216 46 294 70 30 8 62 18 70 20 47 13 199 69 232
86 21 11 38 18 38 15 0 -6 234 110 314 156 64 37 246 156 321 211 223 162 496
446 667 692 75 108 160 245 152 245 -4 0 0 8 9 18 22 24 136 264 181 378 33
86 102 302 111 348 2 12 4 21 5 21 1 0 4 10 6 23 2 12 5 30 7 40 2 9 6 26 10
37 3 11 8 38 12 60 3 22 7 47 10 55 20 74 39 322 39 510 0 283 -17 424 -84
730 -11 50 -71 253 -78 265 -4 6 -7 15 -8 20 -3 14 -62 163 -82 205 -9 19 -17
37 -17 40 -2 14 -102 210 -123 240 -13 19 -28 44 -32 55 -9 22 -173 269 -190
285 -3 3 -21 25 -40 50 -171 222 -445 474 -680 629 -30 20 -57 38 -60 41 -6 6
-11 9 -131 79 -48 28 -91 51 -97 51 -6 0 -12 4 -14 8 -10 24 -421 191 -533
217 -5 1 -17 4 -25 7 -38 13 -88 27 -115 32 -43 9 -72 15 -97 22 -13 3 -36 7
-53 10 -16 3 -52 9 -80 14 -27 5 -72 12 -100 15 -27 4 -61 9 -75 12 -41 9
-540 11 -605 2z"/>
</g>
</svg>
