<svg xmlns="http://www.w3.org/2000/svg" id="Layer_1" version="1" viewBox="0 0 1000 1000">
  <style>
    .st0{fill:#853617}.st1{fill:#c52727}.st2{fill:#203c4b}.st3{fill:#3d85a2}.st4{fill:#f4b594}.st5{fill:#ffefef}.st6{fill:#ffc099}.st7{fill:#b37c5c}.st8{fill:#ffd8ba}.st9{fill:#3b3b3b}.st10{opacity:.17;fill:#1d0202;enable-background:new}.st11{fill:#81c2de}.st12{fill:#132c38}.st13{fill:#76b1cf}.st16{fill:#ee3700}.st18,.st19{display:none;fill:#006890}.st19{fill:#001724}.st20{fill:#ba2301}.st23{fill:#ff8f8f}.st24{fill:#8e1414}.st25{fill:#a44a1b}.st26{fill:#060607}.st27{fill:#ffd2ab}.st28{fill:#ffdcc5}.st29{fill:#1e1e1e}.st33{fill:#a31c1c}
  </style>
  <path d="M503 439V196s-130 5-137 19c-8 14 14 239 14 239l123-15zM503 439V196s129 5 136 19c8 14-14 239-14 239l-122-15z" class="st0"/>
  <path d="M503 430V213s-109 5-115 17c-6 13 12 213 12 213l103-13zM503 430V213s108 5 114 17c6 13-12 213-12 213l-102-13z" class="st1"/>
  <path d="M503 273v168h-73l-13-143s8-21 86-25z" class="st2"/>
  <path d="M502 298h2v143h-2z" class="st3"/>
  <path d="M503 253v196h-85l-15-167s9-23 100-29z" class="st2"/>
  <path d="M403 282s-36 42-106 29-35-110-35-110l-35-10s-42 136 59 155c101 18 156-43 156-43s-6-40-39-21z" class="st2"/>
  <path d="M265 193l-29-3c-6 0-11-6-10-12l4-46c1-6 6-11 12-10l29 2c6 1 7 5 6 12l-4 47c-1 6-2 10-8 10z" class="st4"/>
  <path d="M225 185l-3 11 44 17 8-24zM298 148l-108 24-4-3-1-3c0-2 1-4 3-4l108-25c2 0 4 1 4 3l1 3c0 2-1 4-3 5z" class="st5"/>
  <path d="M284 140l81-20s3 9-4 14c-8 6-60 19-60 19s-8 1-17-13z" class="st5"/>
  <path d="M237 168c-4 0-7-3-8-7l-2-32c0-4 3-7 7-7 4-1 8 2 8 6l2 32c0 4-3 8-7 8zM253 167c-4 0-7-3-8-7l-2-32c0-4 3-7 7-8 4 0 8 3 8 7l2 32c0 4-3 7-7 8zM269 166c-4 0-7-3-8-7l-2-32c0-4 3-7 7-8 4 0 8 3 8 7l2 32c0 4-3 7-7 8z" class="st6"/>
  <path d="M263 168s-14-7-12-14c2-6 8 2 20 0 11-1 19-1 18 3s-9 32-18 32c-10 0-8-21-8-21z" class="st6"/>
  <path d="M229 150s0 16 8 17c9 1 7-12 6-22 0 0 6 24-4 25-10 0-11-9-10-20zM263 167s2 3 7 4c0 0-4-2-4-4h-3z" class="st7"/>
  <path d="M244 145s-1 24 11 19l2 2s-7 4-11-2c-3-6-2-19-2-19zM251 155s-1-3 2-3 12 5 26 2c0 0-15 1-21-1-6-3-9-2-7 2z" class="st7"/>
  <path d="M262 154l-1-10-1 9 2 1zM275 154v-12l1 12zM258 153l1-10v10z" class="st7"/>
  <path d="M262 166s-4 1-7 7c-11 26 19 14 19 14l-12-21z" class="st6"/>
  <path d="M251 157s3 12 19 8c0 0-14 9-19-8z" class="st7"/>
  <path d="M261 167s-4 3-6 7c0 0 0-4 4-8l2 1z" class="st7"/>
  <path d="M228 130s-1-7 5-8 9 4 9 6c0 0-2-7-8-6-6 2-6 8-6 8zM243 129s-1-7 6-8c7-2 9 4 9 6 0 0-3-7-8-6-6 2-7 8-7 8zM260 128s-1-7 5-8c7-2 9 4 9 6 0 0-2-7-8-6-6 2-6 8-6 8z" class="st8"/>
  <g>
    <path d="M503 253v196h84l15-167s-9-23-99-29z" class="st2"/>
    <path d="M602 282s36 42 106 29 35-110 35-110l35-10s42 136-59 155c-101 18-155-43-155-43s5-40 38-21z" class="st2"/>
    <path d="M740 193l29-3c6 0 11-6 10-12l-4-46c-1-6-6-11-12-10l-29 2c-6 1-7 5-6 12l4 47c1 6 2 10 8 10z" class="st4"/>
    <path d="M780 185l3 11-44 17-8-24zM707 148l108 24c2 0 3-1 4-3l1-3c0-2-1-4-3-4l-108-25c-2 0-4 1-4 3l-1 3c0 2 1 4 3 5z" class="st5"/>
    <path d="M696 123c2 0 3 2 2 4l-3 2-26-4 24 9c2 0 3 2 3 4s-2 2-4 2l-26-4 25 9 2 4c0 2-2 2-4 2l-26-3 27 6a18 18 0 0 0 8-34l-26-6 24 9z" class="st5"/>
    <path d="M768 168c4 0 7-3 8-7l1-32c1-4-2-7-6-7-4-1-8 2-8 6l-2 32c0 4 3 8 7 8zM752 167c4 0 8-3 8-7l2-32c0-4-3-7-7-8-4 0-8 3-8 7l-2 32c0 4 3 7 7 8zM736 166c4 0 7-3 8-7l1-32c1-4-2-7-6-8-4 0-8 3-8 7l-2 32c0 4 3 7 7 8z" class="st6"/>
    <path d="M742 168s14-7 12-14c-2-6-8 2-20 0-11-1-19-1-18 3s9 32 18 32c10 0 8-21 8-21z" class="st6"/>
    <path d="M776 150s0 16-8 17-7-12-6-22c0 0-6 24 4 25 10 0 11-9 10-20zM742 167s-2 3-7 4c0 0 4-2 4-4h3z" class="st7"/>
    <path d="M761 145s1 24-11 19l-2 2s7 4 11-2c3-6 2-19 2-19zM754 155s1-3-2-3-12 5-26 2c0 0 15 1 21-1 6-3 9-2 7 2z" class="st7"/>
    <path d="M743 154l1-10 1 9-2 1zM730 154v-12l-1 12zM747 153l-1-10v10z" class="st7"/>
    <path d="M743 166s4 1 7 7c11 26-19 14-19 14l12-21z" class="st6"/>
    <path d="M754 157s-3 12-19 8c0 0 14 9 19-8z" class="st7"/>
    <path d="M744 167s4 3 6 7c0 0 0-4-4-8l-2 1z" class="st7"/>
    <path d="M778 130s1-7-6-8c-7-2-9 5-9 6 0 0 3-7 8-6 6 2 7 8 7 8zM762 129s1-7-6-8c-7-2-9 4-9 5 0 0 3-6 9-5 5 1 6 8 6 8zM746 128s1-7-6-8c-7-2-9 4-9 5 0 0 3-6 8-5 6 1 7 8 7 8z" class="st8"/>
  </g>
  <path d="M257 199c0-1 1-3 3-3s3 2 3 3-2 3-3 3-3-1-3-3zM742 199c0-1 1-3 3-3l3 3-3 3c-2 0-3-1-3-3z" class="st9"/>
  <path d="M527 258c0 13-11 24-25 24-13 0-24-11-24-24v-48c0-14 11-25 24-25 14 0 25 11 25 25v48z" class="st6"/>
  <path d="M527 230c0 13-11 24-25 24-13 0-24-11-24-24v-48c0-14 11-25 24-25 14 0 25 11 25 25v48z" class="st10"/>
  <g>
    <path d="M475 267l-20 64c-1 5 10 114 10 114l37-3V282l-27-15z" class="st11"/>
    <path d="M472 277l-24 17 7 7-24 21 34 123-10-112z" class="st12"/>
    <g>
      <path d="M530 267l20 64c2 5-10 114-10 114l-38-3V282l28-15z" class="st11"/>
      <path d="M533 277l24 17-7 7 24 21-34 123 10-112z" class="st12"/>
    </g>
    <g>
      <path d="M503 282l-5-15-27-22-3 31s25 8 35 6z" class="st13"/>
      <path d="M471 245l7-2v8z" class="st3"/>
      <path d="M503 282l4-15 27-22 3 31s-25 8-34 6z" class="st13"/>
      <path d="M534 245l-7-2v8z" class="st3"/>
      <path d="M491 274l2-2 3 2c0 1-1 3-3 3-1 0-2-1-2-3zM509 274l2-2c2 0 3 1 3 2l-2 3c-2 0-3-1-3-3z" class="st9"/>
    </g>
  </g>
  <g>
    <path d="M576 140c-3 13 0 24 7 26s16-7 19-19c3-13 0-24-7-26s-16 7-19 19z" class="st6"/>
    <linearGradient id="SVGID_1_" x1="352" x2="352" y1="842" y2="871" gradientTransform="rotate(180 471 500)" gradientUnits="userSpaceOnUse">
      <stop offset="0" stop-color="#fff"/>
      <stop offset="0" stop-color="#c8b9b9"/>
      <stop offset="1" stop-color="#8b6b6b"/>
      <stop offset="1" stop-color="#5d3131"/>
      <stop offset="1" stop-color="#420d0d"/>
      <stop offset="1" stop-color="#370000"/>
    </linearGradient>
    <g>
      <path d="M592 121a89 89 0 1 0-173 27c19 84 79 84 84 84s65 0 85-85c3-8 4-17 4-26z" class="st6"/>
      <path d="M451 104s66 33 141 12a89 89 0 1 0-174 31c10-7 22-21 33-43z" class="st10"/>
      <path fill="#ff4a10" d="M415 145s18-13 33-50c0 0 105 56 194-14 0 0-35 8-50-17-16-25-96-72-148-20 0 0-61-4-29 101z"/>
      <path d="M642 81c-42 19-115 17-115 17l5 7c-59 2-91-28-91-28-2 12-7 24-7 24l-1-11c-6 12-19 22-25 26 1 9 3 18 7 29 0 0 18-13 33-50 0 0 105 56 194-14z" class="st16"/>
      <path d="M512 70c30 0 57-3 79-7l-4-5a502 502 0 0 1-167-6l-6 8c25 6 59 10 98 10z" class="st5"/>
      <path d="M519 68l6 6-1-6zM505 64l-8-7v8zM565 63l-4-8 10 9z" class="st5"/>
      <g>
        <path d="M428 140c3 13-1 24-8 26s-15-7-19-19c-3-13 0-24 8-26s15 7 19 19z" class="st6"/>
        <linearGradient id="SVGID_2_" x1="414" x2="414" y1="842" y2="871" gradientTransform="matrix(1 0 0 -1 0 1000)" gradientUnits="userSpaceOnUse">
          <stop offset="0" stop-color="#fff"/>
          <stop offset="0" stop-color="#c8b9b9"/>
          <stop offset="1" stop-color="#8b6b6b"/>
          <stop offset="1" stop-color="#5d3131"/>
          <stop offset="1" stop-color="#420d0d"/>
          <stop offset="1" stop-color="#370000"/>
        </linearGradient>
      </g>
      <g>
        <path d="M494 179s1 7 8 7 8-7 8-7 1 10-7 10c-9 0-9-10-9-10z" class="st10"/>
        <path d="M484 147c3 14-1 26-7 27-7 1-14-9-17-22-2-13 1-25 8-26 7-2 14 8 16 21z" class="st5"/>
        <path d="M482 143c2 10-1 18-6 19-4 0-9-6-11-16-2-9 1-17 6-18 4-1 9 6 11 15z" class="st18"/>
        <path d="M477 138c1 5 0 10-3 10s-6-3-6-8c-1-5 0-10 3-11 2 0 5 4 6 9z" class="st19"/>
        <path d="M521 147c-3 14 1 26 7 27 7 1 14-9 17-22 2-13-1-25-8-26-7-2-14 8-16 21z" class="st5"/>
        <path d="M525 143c-1 9 1 17 6 18 4 1 9-6 11-15s-1-17-5-18c-5-1-10 6-12 15z" class="st18"/>
        <path d="M532 137c-1 5 1 10 3 10 3 1 6-3 7-8 1-6-1-10-3-11-3 0-6 4-7 9z" class="st19"/>
        <path d="M447 114l2 7s18-11 35-7c0 0-22-17-37 0zM562 131l-4 6s-14-15-31-16c0 0 25-10 35 10z" class="st20"/>
        <g>
          <path fill="#4d3348" d="M466 185s9 11 36 11 36-11 36-11-4 31-35 31c-32 0-37-31-37-31z"/>
          <path d="M467 187c4 4 14 13 36 13 21 0 30-9 33-13-3 3-13 9-34 9-20 0-31-6-35-9z" class="st5"/>
          <path fill="#f84949" d="M513 215c-6-10-23-12-23-12l4 5c-6-6-17-7-22-7 6 7 15 15 30 15l11-1z"/>
          <path d="M475 202s12 1 18 7l-18-7zM494 205s10 2 18 9l-18-9z" class="st23"/>
        </g>
      </g>
    </g>
  </g>
  <path d="M570 108s12 40 17 43c6 3 12-33 11-45-2-13-28 2-28 2z" class="st16"/>
  <path d="M475 278l18 7-1-4zM530 278l-18 7 1-4z" class="st24"/>
  <path d="M506 296c3-3 7-7 7-14 0 0-8 2-11 0-2 2-10 0-10 0 0 7 4 11 7 14 0 0-4 9-4 25-1 16 1 101 1 101l6 8 7-8s2-85 1-101c0-16-4-25-4-25z" class="st1"/>
  <g>
    <path d="M249 992c-7 0-14-6-14-14V796c0-8 7-14 14-14s13 6 13 14v182c0 8-6 14-13 14zM762 992c-8 0-14-6-14-14V796c0-8 6-14 14-14 7 0 13 6 13 14v182c0 8-6 14-13 14z" class="st25"/>
    <path d="M249 908l13-4V796c0-8-6-14-13-14s-14 6-14 14v108l14 4zM762 908l13-4V796c0-8-6-14-13-14s-14 6-14 14v108l14 4z" class="st0"/>
    <path d="M668 956c-7 0-13-6-13-14V760c0-8 6-14 13-14 8 0 14 6 14 14v182c0 8-6 14-14 14z" class="st25"/>
    <path d="M668 872l14-4V760c0-8-6-14-14-14s-13 6-13 14v108l13 4z" class="st0"/>
    <path d="M620 971c-8 0-14-6-14-13V775c0-8 6-14 14-14 7 0 13 6 13 14v183c0 7-6 13-13 13z" class="st25"/>
    <path d="M620 887l13-4V775c0-8-6-14-13-14s-14 6-14 14v108l14 4z" class="st0"/>
    <path d="M565 955c-8 0-14-7-14-14V758c0-7 6-13 14-13 7 0 13 6 13 13v183c0 7-6 14-13 14z" class="st25"/>
    <path d="M565 871l13-4V758c0-7-6-13-13-13s-14 6-14 13v109l14 4z" class="st0"/>
    <g>
      <path d="M443 955c-8 0-14-7-14-14V758c0-7 6-13 14-13 7 0 13 6 13 13v183c0 7-6 14-13 14z" class="st25"/>
      <path d="M443 871l13-4V758c0-7-6-13-13-13s-14 6-14 13v109l14 4z" class="st0"/>
    </g>
    <g>
      <path d="M386 971c-7 0-13-6-13-13V775c0-8 6-14 13-14 8 0 14 6 14 14v183c0 7-6 13-14 13z" class="st25"/>
      <path d="M386 887l14-4V775c0-8-6-14-14-14s-13 6-13 14v108l13 4z" class="st0"/>
    </g>
    <path d="M341 956c-7 0-13-6-13-14V760c0-8 6-14 13-14 8 0 14 6 14 14v182c0 8-6 14-14 14z" class="st25"/>
  </g>
  <g>
    <path d="M441 891c3 15-19 19-19 19-12 3-23 3-26-9l-60-229c-3-12 4-24 16-27 13-4 25 4 28 16l61 230z" class="st2"/>
    <path d="M395 903l3 13c2 6 2 26-8 34s-33 17-32 29l2 8s20 12 48 0 21-22 50-35c0 0 4-10-2-25-7-15-14-32-14-40s-29 12-32 16-10-3-15 0z" class="st26"/>
    <path d="M358 978s26 11 44 1c19-11 23-16 34-24 11-9 24-13 24-13s0 6-1 10c0 0-15 7-22 15-8 8-21 21-42 25-22 4-36-4-36-4l-1-10z" class="st27"/>
    <path d="M358 978s-1-9 17-20c0 0 20-4 30 19 0 0-15 15-47 1z" class="st28"/>
    <path d="M444 910c2 6 1 12-2 12s-6-3-8-9c-1-6 0-11 2-12 3-1 7 3 8 9z" class="st27"/>
    <path d="M414 907c0-2 2-3 3-3s3 1 3 3-2 2-3 2l-3-2z" class="st28"/>
    <circle cx="417" cy="907" r="2" class="st29"/>
    <path d="M415 917c0-2 1-3 3-3s3 1 3 2-2 3-3 3c-2 0-3-1-3-2z" class="st28"/>
    <path d="M416 917l2-2 2 2-2 1-2-1z" class="st29"/>
    <path d="M415 927c0-2 1-3 3-3s3 1 3 3-2 3-3 3c-2 0-3-2-3-3z" class="st28"/>
    <path d="M416 927l2-2 2 2-2 2-2-2z" class="st29"/>
    <path d="M413 938c0-2 1-3 2-3s3 1 3 2-1 3-3 3-2-1-2-2z" class="st28"/>
    <path d="M413 938l2-2 2 2-2 1-2-1z" class="st29"/>
    <path d="M407 947c0-1 1-3 3-3s3 1 3 3-2 3-3 3c-2 0-3-1-3-3z" class="st28"/>
    <path d="M408 947l2-2 2 2-2 2-2-2z" class="st29"/>
    <path d="M400 955c0-2 2-3 3-3s3 1 3 3-1 2-3 2l-3-2z" class="st28"/>
    <path d="M401 955l2-2 2 2-2 1-2-1z" class="st29"/>
    <path d="M417 906l-20 8 1 3 20-9-1-2z" class="st27"/>
    <path d="M396 907l22 9v3l-22-9v-3zM398 914l20 12-1 3-20-11z" class="st27"/>
    <path d="M415 915l-17 9 1 3 19-9z" class="st27"/>
    <path d="M399 925l-1 4 17 10 1-2z" class="st27"/>
    <path d="M416 926l-19 8v3l21-8z" class="st27"/>
    <path d="M398 934l13 12-2 3-13-12z" class="st27"/>
    <path d="M414 936l-18 5-2 3 22-5z" class="st27"/>
    <path d="M395 942l10 13-3 1-9-12z" class="st27"/>
    <path d="M410 945l-20 4-3 3 24-4z" class="st27"/>
    <path d="M388 950l16 4-1 2-17-4z" class="st27"/>
    <g>
      <path d="M564 891c-3 15 19 19 19 19 12 3 23 3 26-9l60-229c3-12-4-24-17-27-12-4-24 4-27 16l-61 230z" class="st2"/>
      <path d="M610 903l-3 13c-2 6-2 26 8 34 9 7 32 17 32 29l-2 8s-20 12-48 0-21-22-50-35c0 0-4-10 2-25 7-15 14-32 14-40-1-8 29 12 32 16s10-3 15 0z" class="st26"/>
      <path d="M647 978s-26 11-44 1c-19-11-23-16-34-24-11-9-24-13-24-13s0 6 1 10c0 0 15 7 22 15 8 8 21 21 42 25 22 4 36-4 36-4l1-10z" class="st27"/>
      <path d="M647 978s1-9-17-20c0 0-20-4-30 19 0 0 15 15 47 1z" class="st28"/>
      <path d="M561 910c-2 6-1 12 2 12s6-3 7-9c2-6 1-11-2-12-2-1-6 3-7 9z" class="st27"/>
      <path d="M591 907c0-2-2-3-3-3s-3 1-3 3 1 2 3 2l3-2z" class="st28"/>
      <circle cx="588" cy="907" r="2" class="st29"/>
      <path d="M590 917c0-2-2-3-3-3s-3 1-3 2 1 3 3 3l3-2z" class="st28"/>
      <path d="M589 917l-2-2-2 2 2 1 2-1z" class="st29"/>
      <path d="M590 927c0-2-2-3-3-3s-3 1-3 3 1 3 3 3l3-3z" class="st28"/>
      <circle cx="587" cy="927" r="2" class="st29"/>
      <path d="M592 938c0-2-1-3-2-3s-3 1-3 2 1 3 3 3l2-2z" class="st28"/>
      <path d="M591 938l-1-2-2 2 2 1 1-1z" class="st29"/>
      <path d="M598 947c0-1-1-3-3-3s-3 1-3 3 1 3 3 3 3-1 3-3z" class="st28"/>
      <path d="M597 947l-2-2-2 2 2 2 2-2z" class="st29"/>
      <path d="M605 955c0-2-2-3-3-3s-3 1-3 3 1 2 3 2l3-2z" class="st28"/>
      <path d="M604 955l-2-2-2 2 2 1 2-1z" class="st29"/>
      <path d="M588 906l20 8-1 3-20-9 1-2z" class="st27"/>
      <path d="M609 907l-22 9v3l22-9v-3zM607 914l-20 12 1 3 20-11z" class="st27"/>
      <path d="M590 915l17 9-1 3-19-9z" class="st27"/>
      <path d="M606 925l1 4-17 10-1-2z" class="st27"/>
      <path d="M589 926l19 8v3l-21-8z" class="st27"/>
      <path d="M607 934l-13 12 2 3 13-12z" class="st27"/>
      <path d="M590 936l19 5 2 3-22-5z" class="st27"/>
      <path d="M610 942l-10 13 3 1 9-12z" class="st27"/>
      <path d="M595 945l20 4 3 3-24-4z" class="st27"/>
      <path d="M617 950l-16 4 1 2 17-4z" class="st27"/>
    </g>
  </g>
  <path d="M341 872l14-4V760c0-8-6-14-14-14s-13 6-13 14v108l13 4z" class="st0"/>
  <g>
    <path fill="#ff4634" d="M832 507h-1c0-32-148-58-330-58-183 0-331 26-331 58 1 111 21 302 21 302 88 70 307 98 308 98 0 0 222-28 311-99 0 1 20-190 22-301z"/>
    <path fill="#ff683f" d="M501 449c-183 0-331 26-331 58v5c42 22 173 38 329 38 161 0 296-17 333-40v-3h-1c0-32-148-58-330-58z"/>
    <path d="M183 723l1 11c282 51 539 16 634 0v-10c-275 51-540 15-635-1z" class="st1"/>
    <path d="M186 760l1 11c278 50 530 17 627 0l1-10c-271 50-531 16-629-1z" class="st1"/>
    <path d="M190 798l1 10c272 48 520 17 619 0l1-10c-266 49-522 16-621 0zM802 483H199l-16 8h635l-16-8zM275 464h451l-49-6H324l-49 6zM251 843l42 17c164 18 313 10 416-1l35-13c-198 26-382 12-493-3zM170 537l1 11c301 57 576 15 660 0v-10c-293 57-577 14-661-1z" class="st1"/>
    <path d="M175 496c-3 3-5 7-5 10 303 58 579 15 661 0 0-3-2-6-5-9-285 55-562 15-651-1zM172 574l1 11c298 56 570 15 656 0v-10c-290 56-571 15-657-1zM177 648v11c291 54 557 16 647 0v-10c-283 54-557 15-647-1z" class="st1"/>
    <path d="M180 686v10c287 53 548 17 641 0l1-10c-280 53-550 16-642 0zM174 611l1 11c295 55 564 16 651 0l1-10c-287 55-565 15-653-1z" class="st1"/>
    <g>
      <path d="M367 454l-58 88 27 331 12 4c-6-54-25-330-25-335 0-4 42-69 54-89l-10 1z" class="st1"/>
      <path d="M241 532l30 320 11 4c-7-61-27-315-26-320 0-4 47-60 63-78l-12 2-66 72zM446 450h-8l-53 96 20 345 12 2c-5-42-19-341-19-346 1-5 41-84 48-97z" class="st1"/>
      <path d="M224 830l-26-307c0-4 31-36 49-53l-15 3-49 45 29 305 12 7zM769 473l-15-3c18 17 49 49 49 52 0 5-17 222-26 308l12-7 29-305-49-45z" class="st1"/>
      <path d="M682 458c16 18 63 73 64 78 0 5-20 258-27 320l12-5 30-319-66-72-13-2zM466 547l14-98h-8l-19 97 10 356 11 2c-4-46-8-352-8-357zM535 547c0 5-4 308-8 356l11-2 10-355-19-97h-8l14 98z" class="st1"/>
      <path d="M678 542c1 5-19 279-25 334l13-3 26-331-57-88-11-1c13 20 54 85 54 89zM603 547c0 5-14 302-19 346l13-3 19-344-52-96h-8c6 13 47 92 47 97z" class="st1"/>
    </g>
    <path d="M709 539l-64-84s-105-8-145-6c-41-2-146 6-146 6l-63 84c48 76 190 166 208 177v1l1-1 1 1v-1c17-11 159-101 208-177z" class="st27"/>
    <path fill="#fdc498" d="M499 716v1l1-1v1-1c18-11 160-101 209-177-260 21-418 0-418 0 48 76 190 166 208 177z"/>
    <path d="M191 809c66 52 204 81 271 93 0 0-182-37-233-79-24-19-34-20-38-14zM810 809c-67 52-206 81-274 93 0 0 184-37 236-79 24-19 34-20 38-14z" class="st33"/>
  </g>
</svg>
