<?xml version="1.0" encoding="utf-8"?>
<!-- Generator: Adobe Illustrator 22.0.0, SVG Export Plug-In . SVG Version: 6.00 Build 0)  -->
<svg version="1.1" id="Layer_1" xmlns="http://www.w3.org/2000/svg" xmlns:xlink="http://www.w3.org/1999/xlink" x="0px" y="0px"
	 viewBox="0 0 1080 1080" style="enable-background:new 0 0 1080 1080;" xml:space="preserve">
<style type="text/css">
	.st0{fill:#F44E66;}
	.st1{fill:#FFFFFF;}
</style>
<g id="XMLID_56_">
	<path id="XMLID_57_" class="st0" d="M933.5,175.1h-787C89.3,175.1,43,221.5,43,278.6v380.8C43,716.6,89.3,763,146.5,763H339
		c11.7,0,23,4.2,31.9,11.8l137.8,117.9c18,15.4,44.6,15.4,62.6,0l137.8-117.9c8.9-7.6,20.2-11.8,31.9-11.8h192.5
		c57.2,0,103.5-46.3,103.5-103.5V278.6C1037,221.5,990.7,175.1,933.5,175.1z"/>
	<path id="XMLID_55_" class="st1" d="M540,654L373.1,528.4c-18.4-13.8-33.2-32.4-40.6-54.2c-30.7-89.4,59.5-192.6,159.6-147.5
		c2.3,1.1,4.6,2.2,6.9,3.3l40.9,21.1l40.9-21.1c2.3-1.2,4.6-2.3,6.9-3.3c100-45,190.2,58.1,159.6,147.5
		c-7.4,21.8-22.2,40.4-40.6,54.2L540,654z"/>
</g>
</svg>
