<svg xmlns="http://www.w3.org/2000/svg" id="Layer_1" viewBox="0 0 1818 493">
  <style>
    .st0{fill:#f5b700}
  </style>
  <path d="M352 474l-6-3-2-1h-3l-1-1h-1l-6 1 4 1h-6c-2 0-6 0-4 2l5 1h1l1-1v1l-1 1h-12l-4 1v1l-2-1c-2 0-4 0-3 2l6 1 6-1h1l6 1 5-2h1c3 1 6 2 9 1l2-2c-3-2 6 0 4-2zM77 372c2-3 7-1 10-2-4-2 13-3 0-5-1 2-2 1-4 1-5 1-8 2-9 4s2 3 3 2zm198 80c-6-1-8 3-13 2-2 2 0 3 2 4l13-1 4-2c4-3-2-2-4-3l-1 1-1-1zM74 386h9l4-3h1c2-1 5-1 5-3h-2c-6-2-7 2-11 1-5 0-4 3-6 3v2zm433-157h2l2 1 3-1 6-2c1-1 4-1 3-2l-4-1-14 1c-1 1-2 2 0 3l2 1zM85 329c3 2 5 0 7-1l3-1c2-2 12 1 13-3l6-1 7-2c7 0 12-3 17-4l6-2c7 1 11-1 17-2l6-2 7-1v-3h8c2-3 10-1 12-3l1-1c3 1 6 0 8-1 6 0 11-2 15-3l8-2 6-2c1-1 0-1-1-1l5-1c9 0 18-1 25-5l5-1c4 0 4-1 6-2l10-2h1l7-1 7-2h2c2-2 4-3 9-3l6-1 2-1 15-2v-1h1c7 0 11-2 15-3l1-1 8-1 2-1 4-2c7 1 11-2 17-3h7c2-5-3-3-8-2h-1l-3-1 4-2h1v1h4c6 2 11 0 16-1l1-1h2c4 0 6-1 8-3 2 0 3 2 5 0 7 0 13-2 18-4l8-1 2-1v-2h7c2 0 2-1 2-2h1l8-1h7c6-2 13-3 11-7l1-1c4 0 6 1 7 2l4-1 4-2 2-1h1l7-2-8-1h-4 1-2l-3 1-3 1c-4 1-8 0-10 2-5 2-10 3-17 3-3 1-9 0-12 2h-2l-1-1c-2 2-10 1-10 4-7 0-14 1-19 3l1 1-1 2-2 1h-4l-3-1c-2 1-2 2-1 3l-2 1-2-1-1-2h-4c0 1 1 2 4 2l-1 1h-11l-29 7c-14 1-22 6-34 8-6 1-12 1-15 4h-2l-8 1-7 1c-3 1-6 1-6 3-4 2-11 2-16 3v1l-7 1-10 3c-9 1-16 4-24 6l-6 1c-5 0-7 2-10 3l-6 1c-7 1-16 2-21 6-6 0-12 1-17 3l-8 2c-4 0-9 1-12 3l-11 3-18 3c-4 0-7 2-8 3l-9 1-5 2c-3 1-8 1-9 3-3 0-5 0-6 2h-5c-1 1-5 2-3 3 2 2 6 2 9 2zm168-46zM14 430c-3-1-6-2-10-1l-6 3c-4 1-2 3 0 4 2 2 4 3 8 2l6-3v-1c3 0 7 0 3-3l-1-1zm632-47h15c1-1 2-2 1-3h-12l2-2-3-1-14 6h1l6-1v3l4-3v1zM77 463c2 0 4 0 3-1l-5-1-4 1-1 1-1 1-1 3h1c0 2 3 2 6 2 5 1 4-1 5-2l3-1 3-2c-3-1-7 1-9-1zm61-100l-2 1-4 2v2c5 1 4-3 8-2l6-2-8-1zm-84 55v1l-8-1h-5c-1 3 4 2 7 2v1c6 2 9-1 14-2-1-2-6-1-8-1zm56 36l-6 1v2l5 1 5-1c1-2-1-2-3-3h-1zm30-3h2c0-2-3-2-6-2h-10l-5 1-2-1-2-1-4 1-2 1v2h12l6-1h11zm-59-92c2-2 7-1 9-2h-1c-3-3-6-3-12 0l-2 1c1 2 6 2 6 1zm235 123h-6l-2 1 4 3 6-1c0-1 0-2-2-3zm218-235l7-1c-2-4-6-2-10-1-1 1-1 2 3 2zM352 456l4-2c-2-2-4-2-8-1-5 1 1 2 0 2l4 1zm17-20c3-1 10 0 8-3h-8c1 1-2 2 0 3z" class="st0"/>
  <path d="M301 474h1c2 2 4 2 7 2h3l1-1 6-1-3-1-4 1-8-1-3 1zm448-190h2l4-2v-2l-6-1h-9c-1 1-9 0-7 2h12l3-1c1 2-1 3 1 4zM88 424h-2l-5-2c-8 0 1 3-3 3-9 1-12 5-18 7l-1 1h1l-1 3h6l3-1 6-1 1-4 9 1h2l2-1v-6zm-20 11h1-1zm1-2l1-2h3l-4 2zm157 62c1 3 5 2 8 2-1-2-4-2-8-2zm153-67h-2c-2 2 0 3 2 5h2l1-3-3-2zm-46 54l6-2h-6c-1 1-6 2 0 2zm375-227c1-1 5-2 1-3l-4 1 3 2zM132 447c0-2-1-2-4-2l-2 1 4 2c3 0 2-1 2-1zm568-204h1v-2l4-2c1-2-2-1-4-1l-2 1v1c-3 1-5 3 1 3zm68 33v1l2 2 4-1-2-2h-4zm-167-15h3l6-2h-4c-3 0-4 0-5 2zm80 96h-4c-2 1-2 1 2 1l1 1c4-1 3-2 1-2zM82 458c-2 0-5 0-5 2 7 0 7 0 5-2zm12-106h10l2-1 6-1c2 0 3-1 3-2h2l4-2h-10l-4-1-4 2c-1 1-5 1-5 3l-2 1s-4 0-2 1zm282 86l1-1c-11 3-11 3-4 7l2-4h4l3-1h3l5 1 1 1h2l1 1-6 1c3 2 5 1 8 0l5-1v-1l-2-1-8-1-1-1-6-1-3 1h-5zm-3 12l2-1-4-2c-1 1-2 2 2 3zM16 428c-1-2-4-1-6-1H8c2 1 5 2 8 1zm281 32c-1 0 0 0 0 0 2 1 5 1 5-1h-2l-3 1zm-2 28v1h6l-6-1zM96 461c-2 0 0 1 0 1h4v-1h-4zm619-120l4 1v-2c-2 0-5 0-4 1zm103-74c-2 0-5 0-4 2h4v-2zM600 381v2c3 0 6-1 2-2h-2zm90-32c2 0 3-1 3-2h-3c-1 1-3 2 0 2zm99-73c2 1 4-1 4-2h-4c-1 1-3 2 0 2zm-26 102l-6 2 2 1c3 0 4-1 5-2l-1-1zM246 492c-2 0-4 1-3 2 2 2 5 0 7 1 1 1 1 3 5 3 2-1 1-2 1-3v-1l-3-1c-1-1-4-2-7-1zm10 2h1-1zm92-49c3 2 6 1 8 0h-8zm355-191h-3c-3-1-6 0-7-2h-6c0 1-6 3 1 3l2 1 6 1c6 1 5-2 7-3zm-13 4l-4 1h-2l-2 1v1h6l4-1 2-1v-1h-4zM482 435h-4c-3-1-5 2-9 1l-1 2c-3 1-5-2-9-1v1l-4 1c-3-2-5-1-8 0l-9 1v1h2l-18 6v3h-5l3-3h-1l2-1c-1-4-3-4-10-2l-3 4-7-5-2 1-1 4c2-1 4 0 5 1l-3 1 1 2c-3 2-7 2-11 2h-2c-3 1-6 1-5 3 1 1-1 1-3 2-5-2-3 0-4 1h-17l-6 1h1v1l-1-1c-2 2-5 0-7 0-7 2-1 4 0 6h4l3 1 1-1 3-1 4 1h13c-2-1-1-1-1-2l2-2h9c3-1 1-1 0-2l1-1h16c2-1 2-2 2-3l2-1v1l4-2v-1h9c4-3 9-2 14-2h-1l9 4 2-1-2-3 8-2 11-2c2 1 5 0 6-1l-3-1-3 1-4-2h2v-2c2-1 4-2 4-4l3 2-3 4c4 0 9 0 11-2l-4-2v-1l9-1c1 2 3 2 4 1 0-2 3-4 7-4-1-2-4-1-6-1zm-123 28h3l-1 1-2-1zm48-10h1-1zm-18 5h1-1zm27-11h2l-6 2-1-1 5-1zm8 3h1-1zm-124-1l-3-1c-4-1-6-1-9 1-4-1-7 0-11 1v2l12-2 9 2 4-2-2-1zm-144 8l-10 3h-8l-2 1-4 2v1c-3 1-3 3-1 4h7c3-1 1-2 0-3l6-1 3-2h-1 5c11 0 6-3 5-5zm1 7l6 1-2-3-4 2z" class="st0"/>
  <path d="M728 385c-5 0-8-2-13-1l-4-1-7 1-1 1-1-2c-4 0-7 0-8 2h-5c-1 1-1 2 1 3l4-1 3 1-1 1-1 1 1 1-3 2h-3v-1l-4-1-1-1-1 1v-3c-1-2-4-1-7-1-1 1-1 2 2 3l1 1h1-21l-8 4h-4c-5-2-7 0-11 1h-2c-5 0-10 0-14 2l-4 1-2 1-13 4v1l4 1c0 1 2 2 0 2l-6 1c-2 0-5-1-5 1l-6 1h-8c-4 1-5 3-6 5l-4-1h1-1c-1-1-1-3-6-2-2 1-7 2-9-1h-2l-2 1-4-3 12-5h-2l1-3 4 1c5-1 0-2 0-4 6 1 8 1 11-1h4l-3 4 7-3 5-3v-3h1l2 1-3 2 4 5 2-1h9l6-1c2-1 2-2 1-3l-5-2 16-4h1l3-1-1 6c9-1 1-7 12-7l4 4h2v-7l-12-1c4-3 3-6-2-7l2-3v-1h-2l-2-3c-2 0-3 2-4 0-2-3-5-1-8 0-5-1-5-2-2-4h18l-6 1 9 3 5-3 6 1 1-1-9-3-3 1c0-2 2-3 5-4l2 2 3 1 4-1 2 1 4-2-6-2c-3-2-6-4-12-3l-5-2h-1 1v-1h17c-2 3 5 4 7 6l5 3h-3c-2 0-3 1-2 2v1l-2 2h-3v2h4l3 1 2 1c7-1 14 0 19-2v-3l-8 1h-1l-12-2h2c2-1 6 0 7-2h10c3 0 6 0 4-2l-2-1-4-1-3 1 2-1-2-1h-4l-1-3-1-2c-3-2-8-2-13-2h-12l-5-1 4-1h3l11-3 1 1h1l6 1 2-1 2-2-3-1 12-2v-1 1l-3 2-2 1v1c3 0 5 1 5-1l2-2 5 1c1 0 2 2 3 0 0-1 1-3-2-4h-3c1-1 2-1 1-2-4 1-7 2-6-2l9-2 5-1 5-2 1 1 14-4 2-1 5-1 2-1 27-8h-6c0-1 4-1 2-2l-7 1-1 1-8 2h-5c1-2 5-1 7-2s5-1 2-2l-22 5h-2 1l2-1 19-4-2-1h-3l-14 3 6-2-10 1-10 3-2-1c4-1 4-4 10-4 5-1 5-4 10-5l-2-1-11 2h-2c-2 1-4 1-3 2h-1c-5 1-12 1-16 3l-4-1c-3 0-1-1 0-2s7 0 6-2l-1-1-4-1s-1-1 0 0l17-5-2-1c-9 0-18 1-27 4h-8l6-1c3-1 2-2 1-2l2-1 1-1h8l12-4-2-1h-2l-4 1 3-1 7-2c2 3 7 2 11 2 4-2-1-2-2-2-1-1 0-2-2-2h6l2-1v-1l4 1 1 1 6 1 2-1 12-2c4 0 6-2 9-3h2v-2c0-2-3-2-6-3 0-2-1-3-4-3l-2 2c-2 0-5 0-4 1h7l2 1-1 2h-11c0-3-2-4-9-2l3 2v3l-1-1c-4-1-7 1-10 1-1-2-3-2-5-2l2-1 5-1 4-1-1-2-8 2-15 3-2 1-15 3c0-2-2-3-4-4l-6 1-5 2s-1 0 0 0l-10 1c3-2 1-4 3-5v-1h3l2 1h7c1-2-2-2-4-2h1l5-2 5-1h4l3-2 2-1c3 1 6 0 8-1l2 1h13c1 0 4 1 4-1l-4-1h-2l-5-1h1l4-2 1 1 6-2 17-4 11-3 20-5 17-4-2-1-25 5c-4 1-9 1-11 3h-1l-22 5-19 4-5 2-17 4v1h-3l-5 2h-3l-4-2 9-2-3-2 4-1 4-1 4-1 19-4 9-2h1l-1 1h11l2-1c2-1 2-2 0-3h-1l-5 1h-2l3-1 1-1-6 1-5-1-5 1 4 2-8 2c-6-1-10 0-14 1 0-2 7-2 8-4l2 1 4-1-7-1 6-2 2-3c0-1 0-2-3-1h-1l-2-1-1-1 7-2 9-3-2-1c4-1 7-3 11-3 2-1 5-1 4-2l-1-1-16 5h-1c-3 1-8 1-11 3l-4 1-13 3h-2l-8 2-5 1-9 3-8 2-4-2h-2c-5 0-6 2-8 3l2 1h3l-6 1v1l-5 1h-17l-6 2c-4 1-8-1-10 2-2 1-6 0-7 2l-4 1h-4 1l12-3c2 0 4 0 2-2h-1l-3-2-3 1-1 1h-2l6-2 3-2 4 1c5-1 3-3 4-5l1-1h2l12-1h5l7-2c3-1 1-1 0-2l-3-1-8-1-2-3h-3c-2 0-5 0-6 2 0 2-2 1-4 1v-1c-1-2-3-4 1-5l5 1 8-2h-1l1 1c1 1-1 2 1 3h4l3-1h1c2 1 3 3 7 2l-1 1v1l3 1-2 3c1 1 1 2 3 2l3-1 4-2c0-2-2-2-4-2l2-1 3 2h3c3-1 1-2 1-3-3 0 0-1 0-1h1c1-1 2-2 1-3l9 2c2-3 9-2 13-3 4 1 4-3 8-1v-1 1c4 2 9-2 13-1l15-2h8c2-3-6-2-6-4h-4l-1-1c1-1 0-2-1-3h-1l-4 2v1l3 1h-4l-3-1-4 1-1 1-3-1-2 1h-7l-3 1-3-1c0-1 0-2-2-2v-2c-1-1 5-3-2-4l-29 6 1 1h-1v-1c-7 0-13 2-19 4h-4c-5 2-12 3-19 2v1l-7 1-2 1-6 1c-4 1-2 2 0 3l4 2h4v-1h2l1 1 1 2h-8v-2l-4 1h-2c1-1-3-2 0-3 0-1 0-2-2-2l-9 2-2 1-5 1h-8l-6 1-1-1c-3 2-5 4-11 4l-9 2-8 2-1 1c0 1-1 3 1 3l-1 1 1 1-2 1h-6l-1 1h-4l-3 1c-4 0-6-1-4-3h3l1-1 5 1c3 0 6 0 6-2v-3l-4-1-8 4-7 1-4 1c-4 0-8 0-11 2l1 1h-2c-2 1-3 1-2 3-2-1-7 1-7-2l-4 1c-3 1-8 0-12 2l1-1c-3 1-6 2-10 1l3-1h1c4 1 6-1 7-2l1-3h1l6 1h6l1-1h1l8-1h1c3 0 7 0 9-2h1l4-2h-1l9-3 2-2 3 1h8c3-1 6-2 7-4h1c3-1 7-1 7-3l2-1h10l3-2h1c-6-1-9 1-14 1h-9c-1 2-6 3-6 5h-5l-5 1-3-3c-4 1-4 3-8 3l-10 2-5 1h-2c-2 0-3 1-3 2l-6 1-4-1-2 1h-4l-2 1-10 2h-1l1 3h1-1c-4-1-9-2-13 0l-5 1-4 1c-4 2-13 2-14 5h-2l-1 1c-3 0-7 0-8 2l-6-1c-2 1-5 1-2 3 4 1-2 0-2 1h-7c-5 0-9 2-14 0l-2 1-2-1 1-1h7c2 0 4-1 3-3l-3-1h6c6 2 8-1 12-1v-2l3-1c1-2 2-3 6-2l-1 1c8 4 9-1 13-2h3l6-1v-1h9l7-2 1-1h2c2-1 7 0 8-2l3-1 4-1h2c3 0 4-2 6-3h6v-1h11v-1l2-1h-5l4-2 7-1 5-1v-1c5 1 8 0 8-2h2c5 0 9-2 13-1l2-1h6c3-2 4-5 11-4 3-1 3-2-1-2h-16l-4 2-6 1h-1l-8 1-4 1v2c-3 1-8 1-9 3h-8l-2 1-7 1c-5 0-6 2-10 3-8 0-14 2-20 3h1v1l-1-1-14 4c-6 0-11 1-14 3-8 0-13 2-19 4l-15 3-15 4c-5 0-9 0-11 3-9 1-18 3-25 6l-3 1c-5 0-10 1-13 3-6 0-11 1-16 3-3 0-6 0-7 2h-2l-6 1-2 1c-5 1-9 3-11 5l-14 2-15 4-8 2-5 1-12 3c-4 0-6 2-9 3l-4 2h-7c-4 1-4 3-6 4l-8 2-6 1h-3c-6 0-8 3-13 3h-2c-7 0-6 3-10 4-5 1-13 0-16 3-5 0-9 1-11 3-5 0-5 2-4 3 2 2 5 1 8 0l7-3 6-1h12v-1c3 1 7 0 8-2h2c4 0 7 0 9-2l5-2h6l2-2h5c1 0 4 0 2-1l3-1c-1-1 2-1 2-1l6-1h3l3-1v-1l3-1h5l5-3h7l4-1 3-1c-1 1-1 2-3 2-3 0-2 1-2 2h-2c0 2-4 2-7 2 0 2-5 2-6 3v1h-2l-5 2h-1v-1h-3c-7 0-14 1-18 3l-2 2-4 2-5 1h-6v1l-8 2-5 1-1 1c-3 1-12 0-11 4l10 1h3c6 1 5-2 6-3h9c0-3 6-3 9-4v-2h4l5 1c4 0 7-1 8-3h1c0-1 2-2 0-3 0-2 3-2 6-2 2 1 2 3 6 4v2h-2l-10 3-4 1c-2 1 0 4-6 2h-5l-1 1v1h-8c-2 0-4 1-3 2h-2v1h-1l-4 1c-2 2 3 1 6 2l2-1v1l-2 2-2-1-4 1h-4c-2 1-2 3-4 3l-4 2c-4-3-4-2-7-1l4 2h-2l-6 1h-4l-7-1-2 1-1 1c-2 0-3 1-3 2h-1c-2 0-2 1-2 2 0 3 5 4 12 3l3-1c5-1 10-2 13-4v-1c1-1 8 1 6-2 10 1 6-3 10-5h1c5 0 10 1 12-2h7l-2-3 4-1h6l-3 1c-2 0-5 0-4 1 1 2 4 1 6 0 0 2-5 3-3 4l-4 1h-4l-7 2-8 3-1 1h-3l-6 1v1h-1l-6 1v1h-2l-16 5 2 1 6-2 14-3h1l2-1c4.6-1.4 9.3-2.4 14-3l1-1 9-2 12-1-1 1-8 2-6 1c-4 0-5 2-2 3 2 1 4 0 4-1h6l1 2h-4v1c-2 1-2 3 0 4 1 1 1 2-3 2l-5 2c-2 1-1 1 2 1l19-2 9-1v-1l3-1h3c4 1 5 2 1 3l-4 2-1 1h-11l-1 1h-3l-2 2v1l-8 3-4-1-2-2h-11l1-2 4-1 1-2-4-1-2 1-1 2h-9v1c-2 0-6 0-5 2h1l-2 1v2c4-1 8 0 10-2h2l1 1-3 2-6 1-2-1-7 1c0 1-1 1 1 2h6l2 1-2 1-10-1-1-1h-2l-4 2v1l-2 4-2 1-2 1-2 1-7 1c-6 0-9 1-8 4v1c-4 1 1 3 0 4h-2l-4 1c3 2-8 2-3 4l2 1 4-1 5 1c0 1 0 2 2 3l6-1 3-1 10-3c1-1 0-2-4-2h-3l3-1h6c3-1 10 0 12-2l5-1h4c0-1 2-2 5-2h6l2-1 8-1 8-2c-1 2 0 3-2 5l-2 1-11 1h-1c-4 1-11 0-10 4h-3c-4-1-6 2-9 1l-1 1-5 1c-6 0-6 3-10 4-7-1-11 2-17 3l8 1h6l-6 2-6 2 2 1v1c4 1 4-2 7-2l2 1c2 2 0 5 8 4h2c2-1 0-3 0-4 4-1 7 0 10 1l5 3-5 1c-3 0-5-2-8 0v4h4v1h-3l-3 2h6c-3 1-8 1-11 3h11c5-1 11-1 15-3l10-2h3l8-2c1 2 2 3-2 4l-2 1h-1l-2 2-4 1c2 0-6 4 4 3l3 2v-4c2-1 4-1 4 1h2c3-1 0-2 0-3h2c3-2 7 0 10-1h5l10-1 3-1 1-1h3l2-3-3-1c0-2-7 0-6-2l4-1 1 1 6 1h4v-2c6-2 12-2 20-2l-7-3 7-2h2l7-1 10-1c2 0 5 1 8-1l3 1h-2l-3 1h-1l-8 3-1-1-4 1-2 1c1 1-1 2-2 2l3 1c-4 0-5 3-11 1 0 2 3 3 6 3-3 1-5 2-4 4l-6 1h-7l-2 1h-1c-4-1-6 0-7 2l-10 3c4 1 7 5 12 1l6 2-1 1c-6 1-9 2-5 5v1l-10-1-2-1c1-2-2-3-3-4l-2-1-4 1-2 1h-2c1 2-1 3-4 4h-2l-7 1 4 2h6c8 0 5 2 3 4 0 2-6 2-5 4 3 1 6 2 7-1l8 2c-2 2-1 3 3 2h10l8-1c8 0 9-3 13-5h8c2-1 0-4 6-3h1l3-1v-1h3l1 1h3c0-2 4-1 6-1l6-1v-1l-2-1 1-2h8l2-1h2c5 1 5-1 7-2l2 1c2 0-1-2 0-2h4l5-4h1c5-1 12 0 15-3 1-1 0-2-1-2h9l-1-2c-2-2-1-3 5-2h5l6 1 2-2 2-2h2c5 1 10 1 15-1h4c0 3-3 5 0 7-4-1-7 0-10 1l-1 1-4-1h-4l-2 1-3 1-2 1v2l-3 1c1 0-4 0-2 1 0 3 2 3 6 2v-1l2-1 3-1 5-1 7-1 1-2h-1c1-2 4-1 6-1h2v-2l6-2 2-1h1v1h4c3-1 7-1 10-3h-1c1-2-3-1-5-2l-2-1h-8l-1 1-1-1h-5l-5-3h2l-4-2v-1h7c1 3 3 3 7 1h8l6-1v-2l6 1h4c2 1 3 0 4-1l1-2-3-2 1-1h12l2 1h1c3-1 9-1 7-3-2-1-2-2 0-3h1l2 1 12-1 7-1c2-1 1-2 0-3h2l1-1 2 1 6 1c7 0 2-3 4-4h2l10-1v-1h9l2-1c2-1 5-1 4-3h2c-1-1-1-2 2-2l5-1c0 1 1 2 4 2l4-2 6 1 4 1 6-2-4-4 3-1v-2l1-1h1c1 2 2 4 8 4h11l2 1h-2l-1 1v1c-3 0-4 2-6 3-2 0-4 1-2 2 7 1 4-3 8-3l1 2 4-1 3-1 1 1 13-1h2l-2 3-6-2-3 4-8-1-2 4h-1c-6-5-6-5-17 0l4 2-5 1-16 4h-3l-2 1c-1 3 4 3 9 2h4c1 2 4 1 6 1 4-1 6-2 6-4v-1c4 1 8 0 11-1h5c1 2 5 3 9 2 6 0 13 1 18 3l-1 1-1 1v-1c-7 1-12 0-17-2h-9c2 4-2 5-8 5v-2l7-2-11-2 1 2-7 8 2-6-13 2-5-2h-4c0-2-4-3-4-3-3 2-10 2-10 4-2 0 1-2-3-2l-6 1-6 1-2 1h-1c-4 1-8 1-9 3-2-1-4 0-5 1 0 3 8 1 10 2h4l2 1h3l4-1 1-1c1-1 0-1-2-1l-1-2-2 1v-1h4l3 1h1l5-1h4c4 1 5-1 8-1l2-1 6 1c-4 1-4 1-3 2l3 7 3-2 4 2-4 1h-7v3c-3 0 0 1 0 1 4 0 5 2 7 3l3 2h4c0-2-3-2-4-2l-1-1c-4-1 0-2 2-3h1c2 0 2-1 2-2l6 1c2 0 2-1 1-2l8-2-1 1h-2l-2 3v1h3c3 0 4 3 9 1h6l3-1c2-1 8-2-1-2l-3-1 5-1c5 1 10-2 16-1l-1-2c8 0 14-3 21-4l2-2h2c10 0 16-3 25-5h3c1-1-1-2-3-2l2-1h3l4 1 8-1 3 1c4 0 7-2 9-3s5-1 5-3l-6-1h1-4l2 1h-1v2h-5c2-1 1-2-2-3l4-2h6l2-1 4-1v-1l5 1-2 1 1 2 7 1h2l2-3-1-1 6-2h1l2 2h2l4 1 5-1c1-2-1-2-3-2l-3-1 3-1v-1h10c-1 2 3 2 5 2h2l9-1c3-1 6-1 7-3h-2 1l7-1v-1l3-2-1-1-2-2h1v-1h3l10-1c5 1 10 2 15 1 1-1 0-1-2-1zm-33-56h-1 1zm-92-85l4 1h1l-4 2-4-1 3-2zm28-2h-1 1zm19 4v1-1zM359 430v1l-3 1v-3l3 1zm201-32l1-1 2 1h-3zm22-4l-1-1h2l-1 1zm17 1l-4-2v-2c1 1 5 2 4 4zm-1-4l-1-4c-4 1-4 2-3 3l-6 1v-2l-3 2c-2 0-4 0-4 2h-8l-11-4-1 3-6-2c-2-1-5 0-7 1l1-1h-1l-4-1-3 1-3 1c0-2-1-2-4-2l-6-1h-6c1-1 3-1 2-2l-2-2h2c7 2 13 2 19 0l1-2h9c-2 1-2 2-1 3l7 1c2 2 4 2 7 1l4-2 2 1 2-1c3 1 4 3 9 2-1-2-4-2-7-3h-6l-2-1 2-1 1-1 6-1h-19l2-1c2 1 5 0 8-1l1-1h1c1 1 4 2 7 1h4v2h6c1-2 4-2 7-2l4 1c2-2 3-1 4 0h6l-2 1c3 4 2 8-8 11zm-172 10l3-1-1 1h-2zm-163 47l-5-1h6l-1 1zm-140-57c-1 0 0 0 0 0zm47-12l2 1v1h-2v-2zm20-15c-1 0 0 0 0 0zm271-93l-1 1v-1h1zm133 105v1h-5l-5-1-1 1v-3l-6-2v1-1h2c5 1 7-1 10-2h-1 1c2 0 2 3 5 1l2-1h6l6 2v1l-1-1-6 1c-2 1-1 1-1 2-2-1-4 0-6 1zm-177 27v-1h-7 3l3-1h1l3 1v1h-3zm-164 42h-6l-1 1h-2l-1-1 6-2v-1l-3-3h5l-2 1c0 1 0 2 2 2h3c1 1 2 1 1 2l-1 1h-1zm-25-7v-2l4 2-4 1-2 1h-1l1-1 2-1zm383-160l2-1v1h-2zm-34 95l1 1-2-1h1zm-252 50l-1-1h-1 4l1 1h-3zm-74 12l-6 1h-4c1-1 0-1-1-2l3-2h2c0-1 1-2 4-2v1l-3 1h5l3 1 3 1 1 1c-3 0-2 1-2 2l-2 2h-3c2-1 2-2 0-4zm-25 8l5 1h-10l5-1zm78-141l7 1-5 2h-8v-2h1l5-1zm27-17v-1l7 2h-5l-2-1zm62 1h4l6-1v1h-2l-1 1-6 1h-4v1l-4 1h-3l-2-1h-8l-2-1 4-2v1l13 1 5-2zm126 92l2-1 2 1h-4zm-337 37l-2-1v-3h10v1l-2 2-4 1h-2zm404-125h1-1zm-343 69l1-1-1 1zm44-18h1-1l-3 1v-1h3zm-100 55h-1 1zm163-96h1-1l-2-1h-2l-2-1 6 2zm-55 12h-1l1-1v1zm-6-1l2 1h-5l-2-1h5zm-67 99l-2 1 2-1zm139-118h-2l2-1 1 1h-1zm-22 4l-1-4 2 1c-2 1 0 2-1 3zm-44 15l-2-2v-1h4c0 1 0 2-2 3zm-29 4v2l2 2v1h-8v-1h-3v-1c3-1 9-1 7-4l2 1zm-20 3l5 1 4 1c-1 2-5 2-8 2l-3-1c2-1 2-2-1-3h3zm-16 12l-3 1-2-1h5zm-84 91l1 1h-1v-1zm228-129l1 1h-2v1-1h-3l2-2h2v1zm-152 33l1-1-4-1 8-1c-2 1-1 2-3 2l-2 1c-2 1-2 2 0 3v1l-1-1-2 1c-2-1-4-2-6-1l-3-3c4 1 8 2 12 0zm336 46l-4 2-4 1h-1l-3-2h-1l4-1h5l1-1h3l5 1h-5zm74-79h1-1zm-305 4l2 3-2 1c0 2 3 2 6 2h2v1h-2c-3 0-4 2-8 1l-2 1h-6l3-1 2-1c2 0 4-1 3-3l-4-1v-2h1l5-1zM174 405zm97 33l-7-1-1-1 1-1h4l10 1-7 2zm338-78l-3 1-2-1h1-1l5-1v1zm-190-78l-4 1-4-1 8-1v1zm-9-5l-1 1-1-1h2zm-14 3l4 2h-2l-2 1-4-2 1-2h3v1zm-205 56h2c-1 1-1 2 1 2h3c3-1 3-4 10-3h3l-17 5-2-1h-2l1-1v-2h1zm-28 59l2-1h10v1l-1 1c0 2-1 2-2 1h-3l-6 1-2-2 2-1zm52 47h-1 1zm133-26l1 1-3 1-2-1h-1l5-1zm13-1l1-2 4-1h1l1 1-7 2zm72-16h-2 2zm38-10h-1l1-1 3-1-3 2zm140-16l3-2 3 2h-6zm-190-97l1 2h-3l-3-1c1 0 2-1 1-2l3 1h1zm-146 27h-3l-4 1h-6l-4 1c-1 0-9 0-1 2h-10l-6 1c3-1 5-1 4-3h3l11-1v-4h3v-1l1 1h13l-2 1c-1 1 0 2 1 2zm-92 36l1 1 2 1-5 1h-1v-1c1-1 2-1 1-2h2zm-38 48l-1-1 2-1 3 1-4 1zm15 38l-6 1 6-1zm158 1l1-1h2l-5 2 2-1zm307-66h-2c-1-2-4-2-8-2l-2-2 6-2 1 1c2 2 5 1 7 0-2 2-3 3-2 5zm35-25h-1 1zm20-46h4-1c-2 0-3 1-2 2h-2l-1-2h2zm-6-25c-2 0-5 1-6-1v1l5-1 1 1zm-4-7h4l-9 2v-1l4-1h1zm-89 2l-1-1h3l-2 1zm-55 6l6-2 2-1c3 0 6 0 7-2h8v-1l7 1 10 1h-2c-3 2-7 2-11 1l-5-1h-1v3l-10 2v-2c-2 0-6 0-5 2h5v1h-7l-3 1h-1l-4 2h-5l-1-1c-5 0-9 0-11-3l4 1c3 0 7-2 11 0 1 1 6 0 4-2h2zm-70 9h-1v-1l1 1zm-23 2h2c3 0 7 0 10-2v1h3l-1 1-2 1h-7l-2 2h-3c0-1 1-2-2-2l2-1zm14-9zm-32 6h-4 1l-2-2c3 0 5 0 5 2zm-116 20l10-3h1l8-1c2 0 5 0 5-2h2v1l-5 2-4 1-4 1-4 1h-2v1l-4 2h-7l-3 1-5 1-3 1h-7 1l-1-2 4-2h1c5 0 8 0 9-2h8zm-142 50l1 1h-3l2-1zm-20 43h-2 2zm-12 11l3-1v1h-3zm-9 18h3v1l3 1h1c-3 0-4 1-5 2l1 2-2-1-2-1-2-2 1-1 2-1zm25 15l2-1h1l-3 1zm85 3h-3 3zm-18 10h2v1h-9l1-1h6zm4 13h-5l-1-1 5-1 6-1h2v1c-3 0-6 0-7 2zm80-16l-3-1c0-1-2-2-5-2l-1-1v-3l6 1 4 4h-1c-1 0 3 2 0 2zm12-11l-7-2h1l5-1 3 1v2h-2zm9 1l-5 1-2-2c3 0 4-1 5-2h3l2 1c2 0 2 1 2 2l-1 1-4-1zm207-22v-1h-1l-1-2 1-1 1 1 1 2-1 1zm-16 14l10-1 1-1c3 0 7-2 12-1l-14 5-4 1h-6l1-3zm43-2l1-2h1v2h-2z" class="st0"/>
  <path d="M587 410v-2l-4 1 4 1zm-208 35h-2c0 2 1 3 5 2l-3-2zm-58 14h12c-1-2-5-2-8-2s-4 1-4 2zm6-5l-2 2c3-1 8 0 10-2h2c2-1 3-2 1-3 4-1 7-1 10 2l1-1-2-5-11 3h-1c-1 1-5 1-4 3l-4 1zm-78 6h-4l2 1c3 2 5 1 8 0h2c-2-2-5-3-8-1zm8-3h-5l4 1 1-1zm57 4v-1c-2-1-4-2-6 0 0 0-2 1 0 1h6zM24 426c-2 0-4-1-5 1 2 1 4 2 6 1s2-1 1-2h-2zm269 61c-4 0-6 3-11 1h-10v1l-8 1-6 2v1h-1l4 1 3 1 2-1c3 2 5 1 8 0 2-2-8 0-4-2l4-1 2 1h2l3-2 4 1c7 1 3-3 8-3 0 0 2-1 0-1zm7-6h-1l-4-1-6-1h-6l-4 1v4c5 3 8 1 12-1 5-1 9 2 14 0l-5-2zM129 351l-4-2-4 1c2 2 5 0 8 1zm-94 73l7 1 1-1-1-1c-2-1-4 0-7 1zm622-141l4 1v-2l-2-1c-1 1-3 1-2 2zM507 433c-3 3 3 1 5 2-1-2-3-2-5-2zm156-194l10-1h2c1-1 0-2-2-3h-10c-1 1-5 3 0 4zM241 463c0 2 3 2 6 3 2-3-2-3-6-3zm-92-95c-1-1 1-2-1-3l-3 1 1 3 3-1zm-41-14c1 1 3 2 7 1-2-2-5-1-7-1zm557 29h4c1 0 3-1 0-2l-4 2zm-363 98l6-2h1l-1-1h-4c-2 1-2 2-2 3zm88-45l8-1-4-1-7 1 3 1zm202-51l1-1-4-1c0 1 0 2 3 2zm-387 50v-1c5 0 6-2 6-4-3 1-7 0-7 2h-2l-1 2v2c4 1 2-1 4-1zm227-21s-1 0 0 0v2c5 2 5 0 6-1l-6-1zm-11 15h1l2 2v1l16 4v-5h1l-1-2 3-2 4-3-13 1-6-1h1l-4 2-3-1c-5 2-3 3-1 4zm-14-3c2-1 1-1 0-2l-4 1c-1 0-2 0-1 1h5zm-36 3h-4l2 1 2-1zm13-4v1l1 1h5c2 0 3-1 2-2h-8zm115-27l-7 1h-3l-8 5-1-2h-3c-4 1-1 3-2 5 1 1 1 2 3 2 4 1 6 0 8-1h1c3-1 2-2 1-3l3-1c3-1 5-3 10-2l8-2v-1l-2-1h-1v-1l3-1-3-2-5 1v1l-2 2zm15-6h-5v2c3 0 5 0 5-2zm-98 29h1c4-3-1-4-4-5l-2 1v1l4 3h1zm11-8l-4 1c2 0 1 1 2 2h1c0-1 3-2 1-3zm12 0l1-1h10c4-1 11 1 15-2l2-1c2-2-1-2-4-2h-2 2c1 0 5 0 1-1l-9-1-1 1v1l-10 2h-7v1h-1l3 3zm324-56c-10 5-10 0-13-1l7-2-18-2c-7-3-11-1-16 0l-8 2 8 4c-15 0-2 5-6 6h-8l6 2v1h-18l17 5 1 3 9-2c4-2 13-1 11-6 6 0 13-3 18 1l7-2 3-9z" class="st0"/>
  <path d="M474 431c-10-1-17 1-19 5 9 0 18-2 19-5zm210-53c-8-5-11-5-20-1h8l2 1 3-1-3 5 10-4zm-285 57l-1 1 1 2 1 1 2 1 7-1c4 0 4-1 5-2h5c2 1 5-1 7-1l1-3h-4l-2-2c-6-3-7-3-9 1l-4-1c-2 0-5-1-6 1l1 1h-2v1h-2v1zm-43 16l12-5h1v-1c0-1 1-1-1-2l-3-1c-2 1 0 2 0 2l2 1-18 5 7 1zm29-3h-3l-3 4 9 1-3-5zM842 376l-6-3-2-1h-4v-1h-1l-6 1h4l-6 1c-3 0-6 0-5 2l5 1 2-1h1l-1 1v1h-12l-4 1v1l-2-1c-2 0-4 0-4 2l6 1 6-1h7l6-1h10l1-1c-2-2 7 0 5-2zM567 274c2-3 7-1 9-3-3-1 14-2 0-4l-3 1c-6 0-9 2-10 4 0 1 3 3 4 2zm197 80c-5-1-8 3-13 2-1 2 0 3 3 4 4-1 8-2 13-1l4-3c3-2-2-1-4-2l-1 1-2-1zm-200-66l8-1 5-2h1l4-3h-2c-5-2-6 1-11 1-4 0-3 2-5 3v2zm432-157l1-1 2 1h5l5-2 4-2c-1-1-3-2-5-1-4 1-9-1-13 1-2 1-2 2-1 3l2 1zM574 231c4 2 6 0 8-1l2-1c3-2 13 1 14-3l5-1 8-2c7 0 11-3 17-4l6-2c6 1 11-1 17-2l5-2 8-1c1-1 1-2-1-3h9c2-3 9-1 12-3l1-1c3 1 5 0 8-1l15-3 8-2 6-2-2-2h5c10 0 19-1 26-5l5-1c4 0 4-1 6-2l10-2h1l6-1 7-2h2c3-2 5-3 10-3l5-1c2 0 2-1 3-2l14-1 1-1h1c6 0 11-2 15-3v-1h1l7-1 3-1 3-2c8 1 12-2 18-3h7c2-5-3-3-8-2h-2l-2-2 4-1v1h5c6 1 11-1 16-1l1-1h1c5 0 7-1 9-3 1 0 3 2 5 0 7-1 13-2 17-5h9l2-1v-2h7c2 0 2-1 2-2h1l7-1h8c6-2 13-3 11-7l1-1 7 2 3-1 1-1 4-2h2l8-2-8-1h-5l-3 1-4 1c-3 0-7 0-10 2-5 1-9 3-16 3-4 1-9 0-12 2h-2l-2-1c-1 2-9 1-9 4-7 0-14 1-19 3l1 1-1 2h-1l-1 1h-4l-4-1c-2 1-1 2 0 3l-2 2-2-2-2-2h-4l4 2v1h-11l-29 7c-14 1-22 6-34 8-6 1-12 1-16 4h-1l-8 1h-1l-7 1c-2 1-5 1-6 3-3 2-10 2-15 3v1l-7 1-10 3c-10 1-17 4-24 6l-6 1c-5 0-8 2-10 3l-6 1c-7 1-16 2-21 6-6 0-12 1-17 3l-8 2c-5 1-10 1-12 3l-11 3-19 3c-3 0-6 2-8 3l-8 1-5 2c-3 1-8 1-9 3-3 0-6 0-6 2h-5c-1 1-5 2-3 3 2 2 5 2 8 2zm169-46l1-1-1 1zM504 332c-3-1-6-2-10-1l-6 3c-4 1-2 3 0 4 2 2 4 3 8 2l6-3v-1c3 0 7-1 3-3l-1-1zm-15 3h-1 1zm647-50h14c2-1 3-2 1-3-4 0-8-2-12-1l3-1-3-1-14 5 1 1 6-1v3l3-3 1 1zm-570 80c2 0 5 0 4-1 0-2-3-1-5-1l-4 1h-1v1l-2 1h1l-2 2 2 1c0 1 2 2 6 2 4 1 4-1 5-2l2-1c1-1 4-1 3-2-2-1-6 1-9-1zm62-100h-2c0 2-3 2-4 3v2c4 1 4-3 8-2l6-2-8-1zm-85 55l1 1-8-1h-6c0 3 5 2 8 2v1c6 2 9-2 13-2 0-2-5-1-8-1zm56 35l-6 1v3h6l5-1-3-3h-2zm31-2h1c1-2-3-2-5-2h-10l-6 1-2-1-2-1-3 1h-2c-1 1-2 2 0 3h11l6-1h12zm-59-92c1-2 7-1 9-2h-1c-3-3-7-3-12 0l-2 1c1 2 5 2 6 1zm234 123l-5-1c-2 1-3 1-2 2l4 2h5c1-1 0-2-2-3zm219-235l7-1c-3-4-6-2-10-1-1 1-1 2 3 2zM842 357l4-1c-2-2-5-2-8-1-6 1 1 1 0 2h4zm17-19c2-1 9 0 7-3h-7c0 1-2 2 0 3z" class="st0"/>
  <path d="M791 376h1l7 2h2l1-1 7-1-4-1-3 1-8-1-3 1zm448-190h2l4-2v-2l-6-1-10-1c-1 2-8 0-7 3h13l3-1c0 2-1 3 1 4zM578 326h-3l-5-2c-7 0 1 3-2 3-9 1-12 5-19 7v4h6c2 0 3-1 3-2h6l1-4h-1l10 1h2l2-1c1-2-2-4 0-6zm-20 9l2-2h2l-4 2zm158 62c0 3 4 2 7 2 0-3-3-2-7-2zm153-67h-3c-1 2 1 3 2 5h2c2-1 2-2 2-3l-3-2zm-46 54c2-1 5-1 5-3l-6 1c-1 1-5 2 1 2zm374-228c2 0 6-1 2-2l-4 1 2 1zM622 349c0-2-2-2-4-2l-2 1 4 2 2-1zm567-204h2v-3l4-1c0-2-2-1-4-1l-2 1v1c-3 1-6 2 0 3zm69 33l-1 1 3 1h4l-2-2h-4zm-167-16c0 1 1 2 3 1l6-2h-4l-5 1zm79 96l-4 1c-1 1-1 1 2 1l2 1c4-1 2-2 0-3zM572 360c-3 0-5 0-5 2 7 0 7 0 5-2zm12-106h9l2-1 6-1c3 0 4-1 4-2h1l4-2h-9l-4-1-4 2c-2 1-5 1-5 3l-2 1s-4 0-2 1zm282 86v-1c-10 3-10 3-3 7l2-4h4l3-1h2l6 1v1h3v1l-5 1c3 2 5 1 8 0v-1h5v-1l-2-1h-1l-7-1-1-1-6-1-4 1h-4zm-3 11h1l-3-2c-2 1-3 2 2 2zm-358-21h1c-2-2-4-1-7-1h-1c2 1 4 2 7 1zm281 32c3 1 6 1 6-1h-2l-4 1zm-2 28v1h6l-6-1zm-198-28c-2 1-1 2 0 2h3v-2h-3zm618-119l4 1v-2l-4 1zm104-74c-2 0-5 0-5 2h5v-2zm-218 114v2c3 0 5-1 2-2h-2zm89-32c2 0 4-1 4-3l-4 1c-1 1-3 2 0 2zm100-73c2 0 3-1 3-2h-3c-2 1-3 2 0 2zm-27 102c-3 0-4 1-5 2l1 1c3 0 5-1 5-2l-1-1zM736 393c-2 1-4 2-3 3 2 2 5 0 7 0 1 2 1 3 5 4 2-1 1-2 1-3v-2h-3l-7-2zm102-46c2 2 5 1 8 0h-8zm355-192l-4 1-7-2h-5c0 1-6 2 1 3l2 1 5 1c7 1 6-2 8-4zm-14 5l-3 1h-4v2h6l4-2h2v-1h-5zM971 336h-3c-4 0-5 3-10 2v2c-4 1-6-2-10-1v1l-3 1c-3-2-6-1-9 0l-8 1-1 1h3l-19 5 1 4-6-1 4-2h-1l2-1c-2-4-3-4-10-2l-3 4-7-5-2 1-2 3 6 2-4 1 2 2-12 2h-2c-3 0-6 1-4 3 1 1-1 1-3 2-6-2-4 0-4 1h-9l-8-1-6 2h-8c-6 2-1 4 0 6h4l4 1v-1l4-1 3 1h13l-1-2 2-2h10c3-1 0-2 0-2l1-1h16c2-1 2-2 1-3l2-1v1l4-2 1-1h9c3-3 9-2 13-2l9 3h2l-3-3 9-2 10-2 6-1c1-1-1-1-2-1l-3 1h-1l-3-2h2v-2c1-1 3-2 3-4l4 2-3 4c4 0 8 0 11-2l-4-2v-1l9-1 3 1c1-3 3-4 8-4-1-2-4-1-7-2zm-123 29h4l-2 1-2-1zm31-5h1-1zm26-11h2l-5 2-1-1 4-1zm8 3h1-1zm-123-1l-4-1c-3-1-6-1-8 1-4-1-8 0-11 1v2l12-2 9 2 3-2-1-1zm-145 8l-10 3h-7l-2 1-4 2v1c-3 1-4 3-1 4h6c4-1 1-2 1-3l5-1c1-1 4-1 3-2h5c10 0 6-3 4-5zm2 7l5 1-1-3-4 2z" class="st0"/>
  <path d="M1218 287c-5 0-9-3-14-1l-3-1h-8l-1 1-1-1c-3 0-7 0-7 2h-6c0 1-1 2 2 3l3-1 3 1-1 1v2c-2 0-3 1-2 2h-3v-1l-5-1-1-1v-2c-2-2-5-1-8-1 0 1 0 2 2 2l1 2h1-21l-8 4h-3c-6-2-8 0-11 1h-2c-5 0-10 0-14 2l-5 1-1 1-13 4v1l3 1c1 1 3 1 0 2l-5 1h-6c-1 2-4 2-6 2h-7c-5 1-5 3-6 5l-4-1h-1l1-1c-1 0-2-2-6-1-2 1-7 1-9-1h-2l-3 1-4-3 12-6h-2l1-2h1l4 1c5-1-1-3 0-4v-1c5 2 8 2 11 0h3l-2 4 6-3 6-3h-1l1-3h1l1 1-3 2h1l3 5 2-1h9l7-1v-3l-4-2 15-4h1l4-1-1 6c9-1 0-7 11-7l4 4h3v-7l-13-1c5-3 4-6-2-7 2-1 2-2 2-3v-2h-2l-2-2c-1 0-2 2-3 0-2-3-5-1-8 0-6-1-5-2-2-4l4-1c2 2 6 1 9 1l5-1-6 2 8 3 6-3h6l-8-3-3 1c-1-2 2-3 4-5l1 1 2 2 3 1c2 1 2 0 3-1h3c2 0 4 0 3-1l-6-2c-2-2-6-4-11-3l-6-2v-2h3c5 2 10 1 15 1-2 3 5 3 6 6l6 3h-3c-2 0-3 1-3 2h1l-3 3h-3v2h4l3 1 2 1h1c6-1 14 0 19-2v-3l-8 1h-2l-11-2 2-1 6-1h11c3 0 6 0 4-2l-2-1-5-1h-2l1-1h-5v-1c-2 0-2-1-1-3l-1-1c-4-2-9-2-13-2h-3l-10-1h-4l4-1h2v-1l12-2h2c0 2 3 2 5 2l2-1 1-1 1-1-3-1 13-3v1l-4 2-2 1v1c3 0 6 1 6-1l2-2 4 1c1 0 3 2 3 0 1-1 1-3-1-4h-4l2-2c-4 1-8 2-7-2h1l8-2 6-2 5-1 1 1 13-4 3-1 4-1 3-1 27-8-1-1-5 1c-1-1 4-1 2-2l-8 1-9 3h-5c1-2 6-1 8-2 1-1 5-1 1-2l-22 5h-1 1l1-1h1c7-1 13-2 18-5h-4l-14 3 5-2c-3-1-6 1-9 1l-11 3-1-1c4-1 4-4 9-5 5 0 6-3 10-4l-1-1-11 2h-3l-3 2h-1c-5 1-11 1-15 3l-5-1c-2-1-1-1 0-2 2-1 7 0 7-3h-2c-1 0-1-2-4-1h1l16-5c1 0 1-1-1-1-10 0-19 1-27 3-2 1-5 2-8 1l6-1c2-1 2-2 1-2l2-1v-1h1l7-1c4-1 9-1 12-3l-1-1h-3l-3 1h-1l3-1v-1l7-1c3 2 8 2 12 2 4-2-2-2-3-3l-1-1h5l2-1v-1l4 1 1 1 7 1 2-1 11-2c5 0 7-2 10-3h1l1-2c-1-2-4-3-6-3 0-2-1-3-4-3l-2 1c-2 1-6 1-4 2h8v3h-12c1-4-2-5-9-3l3 3 1 2h-2c-3-2-7 0-10 0l-4-2h1l5-1 4-2v-1l-8 1-15 3-2 2-15 3-4-4-6 1-6 1v1l-9 1c3-2 0-4 2-5l1-1h3l2 1h7c1-2-2-2-4-2h1l5-2 4-1h4l3-2 3-1 8-1 1 1h13l4-1c1-1-2-1-4-1l-2-1h-5l1-1 5-1c3 1 5 0 7-1l17-4 10-3 21-5 16-4c1-1 0-1-2-1l-24 5c-4 1-9 1-11 3h-1c-9 1-15 3-22 5l-19 4-5 2-18 4 1 1h-3l-5 1-3 1-4-2 8-2-2-2 3-1 5-1 4-1 18-4 9-2h2v1h11l2-1c2-1 2-2 0-4h-2l-4 2h-2l3-1 1-1-7 1-4-1c-3 0-6-1-6 1l5 2-8 2c-6-2-10 0-14 1-1-2 7-2 8-4l2 1 4-1-7-1 5-2 3-3c0-1 0-2-3-2l-1 1-3-1v-1l7-2 8-3c1-1 1-1-1-1 3-2 7-3 11-3 2-1 4-1 4-3h-1l-16 5h-1c-3 1-8 1-11 3h-5c-4 2-8 3-13 3l-1 1-9 2-4 1-9 3-9 2-4-2h-1c-5 0-6 2-8 3l2 1h3l-6 1v1l-5 1h-17l-6 2c-4 1-8-1-10 2-2 1-6 0-8 2l-3 1h-4l13-3c2 0 4-1 2-2h-1l-3-2-3 1-1 1h-2l6-2 3-2h4c5 0 3-2 4-4l1-1h2l12-2 5 1 7-2c3-1 1-2-1-2l-2-1-8-1-2-3-3-1-6 2c0 2-2 2-5 2l1-1c-1-2-4-4 1-5l4 1 8-2 1 1c1 1-1 2 1 3h4l3-1h1l6 2v2l3 1-2 3c0 1 1 2 3 2l3-1 4-2c0-2-2-2-4-2l2-1 3 2h3c3-1 1-2 0-3-2 0 1-1 0-1h2l1-3 9 2c2-3 9-2 13-4 3 2 4-2 8 0v-1c4 3 8-1 13 0l15-2h8c2-3-6-2-6-4l-4-1h-1c1-1-1-2-1-3h-2l-3 2v1h3l-4 1-3-1-5 1h-3l-2 1h-8l-2 1-3-1c0-1 0-2-2-2v-2c-1-1 5-3-2-4l-29 6 1 1h-1v-1c-7 0-13 2-19 4h-4c-5 2-12 3-19 2v1l-8 1-2 1-5 1c-4 1-2 2 0 3l4 2 3-1h3l1 1 1 2h-8v-2l-4 1h-2c1-1-4-2 0-3 0-1 0-2-2-2l-9 2h-2l-5 2h-8l-6 1-1-1c-3 2-5 4-11 4l-9 2-8 2-1 1c0 1-1 2 1 3l-1 1 1 1-2 1h-11l-4 2c-3-1-5-2-3-3h3l1-1 5 1c3 0 6 0 6-2v-3l-4-1-8 4-7 1-4 1c-4 0-8 0-11 2l1 1h-2c-2 1-3 1-2 2-2 0-7 1-7-1l-4 1c-3 1-8 0-12 2l1-1c-3 1-6 2-10 1v-1h4c4 1 6-1 7-2l1-3h1l6 1h6l1-1h1l8-1h1c3 0 7 0 9-2h1l4-2h-1l9-3 2-2 3 1h8c3-1 6-2 7-4l1-1c3 0 7 0 7-2l2-1h10l3-2h1c-6-2-9 1-14 1l-9-1c-1 3-6 3-6 6h-6l-4 1-4-3c-3 0-3 3-7 2v1l-10 2-5 1h-2c-2 0-3 1-3 2l-7 1-4-1h-2l-3 1h-2c-4 0-7 2-10 3h-1l1 2 1 1-1-1c-4 0-9-1-13 1l-5 1-4 1c-4 2-13 1-14 5h-2l-1 1c-4 0-7 0-8 2l-6-1c-2 1-5 1-2 2 3 2-2 1-2 1l-7 1c-5-1-9 2-14 0h-4l1-1h6c3-1 5-2 4-3l-3-1h6c6 2 8-1 12-2v-1l3-1c0-2 2-3 5-2v1c8 4 9-1 13-2h3l6-1v-2l1 1h8l7-2 1-1h2c2-1 7 0 8-2l3-1 4-1h2c3 0 4-2 6-3h2l4-1h11v-1l2-1h-5c2-1 4-1 4-3 3 1 5 0 7-1h5v-1c5 0 8 0 8-2h2c5 0 9-2 13-1l2-1h6c3-2 4-5 11-4 3-1 3-2-1-2h-16l-4 2-6 1h-1l-8 1-4 1v2c-3 1-8 1-9 3h-8l-2 1-7 1c-5 0-6 2-10 3-8 0-14 2-20 3h1v1l-1-1-14 4c-6 0-11 1-14 3-8 0-13 2-19 4l-15 3c-6 0-10 2-15 4-5 0-9 0-11 3-9 1-18 3-25 6l-3 1-13 2-16 4c-3 0-6 0-7 2h-2l-6 1-2 1c-5 1-9 3-11 5l-14 2-15 4-8 2-5 1-12 3c-4 0-6 2-9 3l-4 2h-8l-5 3v1l-8 2-6 1h-4c-5 0-7 3-12 3h-2c-7-1-6 3-11 4-4 1-12 0-15 3-5 0-9 1-11 3-5 0-6 2-4 3 2 2 5 1 8 0l7-3 6-2 5 1h7v-1c3 0 7 0 8-2h2l9-2v-1l5-2c2 2 4 0 6 0l2-2 4 1c2 0 4 0 3-1l3-1c-1-1 2-1 2-2h9l3-2v-1h3l5-1c3 0 5-1 5-3h7l4-1h3l-3 1c-3 1-2 2-2 2l-2 1c0 2-4 1-7 1 0 2-5 2-6 4h-2l-5 2h-4c-7-1-14 0-18 3l-2 2-4 1-5 1h-6v1l-8 3-5 1h-1c-3 2-12 1-11 5l10 1h2l1-1c6 1 5-1 6-3l7 1 2-1c0-2 6-2 9-3v-3h2l2 1h5c4 1 7 0 8-2h1c0-1 2-3 0-4l6-2c2 2 2 3 6 4v2l-1 1v-1h-1l-10 4-4 1c-2 0 0 4-6 1h-5l-1 2h-8c-2 1-4 1-3 2l-2 1-2 1h-3c-2 3 3 2 6 2h2l-2 2h-2l-4 1h-4l-4 3-4 1c-4-2-4-2-7-1l3 2-1 1-6 1h-2l-2-1-7-1-2 1-1 1-4 2h1v1l-2-1-1 2c0 4 5 5 12 4l3-2c5-1 10-1 13-3v-1c1-1 8 0 6-3 10 2 6-3 10-4h1c5 0 10 0 12-3h7l-2-2 4-1h6-3c-2 1-5 1-4 2h6c0 1-5 2-4 4h-3l-4 1-7 2c-2 1-6 1-8 3h-5l-5 2-1 1-6 1h-2c-5 2-12 3-16 6h2l6-1 14-4 1 1 2-1v-1c4.6-1.4 9.3-2.4 14-3l1-1 9-1 12-2-2 1-7 2-6 1c-4 1-5 2-2 4l4-1 6-1v1l1 1h-1l-3 1h-1c-1 2-1 3 1 4 1 2 1 2-3 3l-5 1c-2 1-1 2 2 1l19-1 9-2v-1l3-1h3c4 1 5 2 1 4-2 0-3 0-4 2l-1 1-1-1-11 1v1h-4l-1 2-8 4-4-1-2-2h-11l1-2 4-1 1-2-4-1-2 1-1 1-8 1-1 1c-2 0-5 0-4 2l-2 1 1 2c3-1 8 0 9-2h2l2 1-4 2-6 1-2-1-7 1 1 2h6l2 1-2 1-10-1v-1h-3l-4 2v1c0 2 0 3-2 5h-2l-2 1-1 1-8 1c-5 0-9 1-8 4v1c-4 1 1 3 0 4h-2l-4 1c3 2-8 2-3 4l2 1 4-1 5 1 2 3 6-1 4-1 9-3c1-1 0-2-4-2h-3l3-1h6c3-1 10 0 12-2l5-1h4c1-1 2-2 6-2h5l2-1 8-1 8-2c0 2 1 3-2 5l-2 1-11 1h-2c-4 1-11 0-10 4h-3c-4-1-6 2-10 1v1l-6 1c-5 0-6 2-9 4-7-1-11 2-17 3l7 1h7l-6 2-7 2 2 1 1 1c4 1 4-2 7-2l2 1c2 2 0 5 8 5l2-1v-4h-1 1c3-1 7 0 9 1l6 3-6 1c-2 0-4-2-7 0v4l4 1h-4l-3 2h7c-3 1-8 1-11 3h11c5-1 10-1 14-3 4-1 8 0 10-2h3l9-2c0 2 1 3-2 4l-2 1h-1l-2 2-5 1c3 1-6 4 4 3l4 2v-4c2 0 4-1 4 1h2c2-1-1-2 0-3h2l9-1h6l10-1 3-1v-1h4l2-3-3-1c-1-1-7 0-7-2h6l6 2h4v-2c5-2 12-3 19-3l-6-2c2-1 6-1 6-3h3l7-1 9-1c3 1 6 1 9-1l2 1h-2l-2 1h-1l-9 3-1-1-3 1-2 1c1 1-2 2-3 2l4 1c-4 0-6 3-11 1 0 2 2 3 6 3-3 1-5 2-4 4l-6 1h-8l-1 1h-1c-4-1-6 0-7 2l-10 3c4 1 7 5 12 1l6 2-1 1c-6 1-10 2-5 5v1l-10-1-2-1c1-2-2-3-4-4l-2-1-4 1-1 1h-2c1 2-1 3-4 4h-2l-7 1 3 2h6c9 0 5 2 4 4 0 2-7 2-6 4 4 1 7 2 8-1l8 2c-3 1-2 2 2 2h11l8-1c7 0 9-3 13-5h8c2-1 0-4 5-3h2l3-1v-1h3v1h3c1-2 5-1 6-2h6l1-1-2-1 1-2h8l2-1h2c5 1 5-1 7-3 1 1 0 2 2 2 2-1-1-2 0-2h4l5-4 1-1c5 0 12 1 15-2l-1-2h9l-2-2c-1-2 0-3 6-2h5l6 1 2-2 2-2h2c5 1 10 1 15-1h3c1 2-2 4 0 6l-9 2-1 1-5-1h-3l-2 1-4 1-1 1v2l-3 1s-4 0-2 1c-1 3 2 3 5 2l1-1 2-1c1 0 3-1 2-2h5l8-1 1-2h-1c1-2 3-1 6-1h1l1-2 5-2 2-1h2v1h4c3-1 7-1 9-3 1-2-3-1-5-2l-2-1h-8l-1 1-1-1h-5l-5-3 1-1-4-1 1-1h6c1 3 4 3 8 1h8l6-1-1-1 1-1 5 1h4c2 1 4 0 5-1l1-2-3-2h-1l2-1h12l1 1h2c3-1 8-1 6-3-1-1-1-2 1-3h1l2 1 12-1 6-1c3-1 1-2 0-3h2l2-1 2 1 6 1c7 0 1-3 4-4h2l9-1 1-1h9l1-1c3-1 6-1 5-3h1c-1-1 0-2 3-2l4-1c1 1 2 2 5 2l4-2 6 1h-1l4 1 6-2-3-4 3-1v-3h1c2 2 3 4 9 4h11l2 1h-2l-1 1v1c-3 0-4 2-6 3-2 0-4 1-2 2 6 1 4-3 8-3l1 2 3-1 4-1v1l14-1h2l-2 3-6-2-4 4-8-1-2 4h-1c-5-5-6-5-17 0l4 2-5 1-15 4h-4l-1 1c-1 3 4 3 9 2h4c1 2 4 1 6 1 3-1 6-2 5-4v-1c5 1 8 0 12-1h4c2 2 5 3 10 2 6 0 13 1 17 3l-1 1-1 1v-1c-6 1-11 0-16-2h-9c1 4-3 5-8 5v-2l6-2-11-2 2 2-7 8 1-6-12 2-6-2h-3c0-2-4-3-5-3-2 2-9 2-9 4-2 0 1-2-4-2l-5 1-6 1-2 1h-2c-3 1-7 1-8 3-3-1-4 0-5 1 0 3 8 1 9 2h5l2 1h3l4-1 1-1h-1c2-1 1-1-1-1l-2-2-1 1v-1l3-1 4 2v-1h1l5-1h4c4 2 5 0 8 0l2-1c3-1 4 0 6 1l-4 1 3 8 4-2 4 1-4 2h-8l1 2c-3 1-1 2 0 2 4 0 5 2 7 3l3 2c1 0 4 1 4-1l-5-1v-1c-4-2 0-2 2-3h1l2-2 5 1c2-1 3-1 2-2l7-2v1h-2c-1 1-3 1-2 2v2h2c4 0 5 3 10 1l6-1h3c2-1 7-2-1-2l-3-1 5-1c5 0 10-2 16-1l-1-2 21-4 2-2 2-1c10 1 16-2 24-4h4l-4-3 2-1 4 1h11l4 1 8-3c3-1 6-1 6-3l-6-1h-5l2 1v1l-5 1c2-1 1-2-2-3l3-3c2 2 4 1 7 0l1-1h5v-1l5 1-2 1c-1 1 0 1 1 2l7 1h2l2-3-1-1 5-2h2l2 2h1l4 1c3 0 6 0 6-2l-3-1-3-2h2l1-1h10c-1 2 3 2 5 2l1-1c3 0 7 1 10-1 2 0 6 0 6-2h-1 1l7-1v-1l3-2-1-1-2-2h1v-1h3l10-1c5 0 9 2 15 1 2-1 0-1-1-1zm-34-56h-1 1zm-24 13h1-1zm24-78h1-1zm-91-20l3 1h2l-5 2-3-1 3-2zm47 2l-1 1 1-1zM849 332l-1 1-2 1-1-2 1-1 3 1zm201-32v-1l2 1h-2zm22-4h-1v-1h2l-1 1zm17 1l-5-2v-2c2 1 5 2 5 4zm-1-4l-1-4c-4 1-4 2-3 3l-6 1v-2l-3 2c-2 0-4 0-4 2h-8l-11-4-1 3-6-3-8 2 1-1-4-1c-2.4.2-4.8.9-7 2 1-2 0-2-4-2l-6-1h-5c1-1 3-1 2-2l-2-2h1c7 2 14 2 20-1l1-1h3l1-1 4 1h1c-2 0-3 1-2 2 2 2 5 2 8 2 2 2 4 2 6 1l4-3 2 2 2-1c3 1 5 3 9 2-1-2-4-2-7-3h-6l-2-1 2-1 1-1 7-1h-20l2-1 8-1 2-1c2 1 4 2 8 1h3v2h7c1-2 3-2 7-2h4c2-1 3 0 4 1h4c2 5 2 8-8 12zm-172 10l2-1 2-1-1 1-1 1h-2zm-164 47l-4-1h6l-2 1zm-92-69l2 1-1 1h-1v-2zm20-15h-1 1zm270-93l-1 1 1-1zm134 105v1h-6l-5-1v1h-1 1v-3h-1c0-1-2-2-5-2l-1 1 1-1 2-1c5 2 7 0 9-1l-1-1 1 1c2 0 2 3 6 1l2-1h6l6 2h-1l-7 1v2c-3-1-4 0-6 1zm-177 27l-1-1h-6 2l4-1h1l2 1 1 1h-3zm-164 41l-7 1-1 1h-2l-1-1 6-2v-1h1c0-2-1-3-4-3h5l-1 1c-1 1 0 2 1 2h4s2 1 1 2l-1 1-1-1zm-25-6v-2l3 1v1l-3 1-2 1h-2l2-1 2-1zm383-160l2-1v1h-2zm-34 95l1 1-2-1h1zm-252 50l-2-1h4v1h1-3zm-75 12l-5 1h-5v-2h-1l4-2h2c-1-1 1-2 4-2v1l-4 1h5l1-1 3 1v1l3 1v1c-2 0-2 1-1 2l-3 1h-2c1 0 1-2-1-3zm-24 8l5 1h-11l6-1zm78-141l7 1-5 2h-8v-2h1l5-1zm26-17v-1l7 2h-1l-4-1h-2zm63 1h4l5-1h1l-2 1-1 1-6 1h-4v1l-4 1h-4l-2-1h-8l-1-1 3-2 1 1 12 1 6-2zm126 92l2-1 1 1h-3zm-338 36l-2-1 1-2h9v1l-2 2h-6zm405-124h-1 1zm-343 69v-1 1zm44-18h1-4 3zm-100 54l1 1h-2l1-1zm163-95l-2-1h-2l-2-1 6 2zm-56 11s0 1 0 0zm-6 0l1-1 2 2h-5l-2-1h4zm-67 99l-2 1 2-1zm140-118h-2l2-1v1zm-22 4v-1l-1-3 1 1v3zm-45 15l-2-2v-1h4c0 1 1 2-2 3zm-29 3l1 3 2 2-1 1h-7v-1h-4l1-1c2-1 9-1 7-4h1zm-20 4l5 1h1l3 1c-1 2-4 2-8 2l-3-1c3-1 3-2 0-3h2zm-16 12l-2 1-2-1h-1 5zm-83 91l1 1h-2l1-1zm451-147h1-1zm-223 18l1 1h-2v1-1h-3l2-2h-1 3v1zm-152 33v-1l-3-1c2-1 5-2 7-1-1 0-1 2-3 2l-1 1c-2 1-2 2 0 3h-1l-3 1v-1h-5l-4-3h13zm336 46l-4 2h-4v1h-2l-2-2h-1l4-2h9l5 1h1-6zm21-6h-1 1zm53-73h1-1zm-305 4c0 1 0 2 2 3l-3 1c1 2 4 2 7 2h1v1h-1c-4 0-5 2-8 1l-2 1h-6l2-1 2-1c2-1 5-1 4-3l-4-2-1-2 2 1 5-1zm-97 13h-1 1zm-56 96h1-2 1zm69 25h-1 1zm28 8l-7-1-2-1 1-1h4l10 1-6 2zm338-78l-4 1-1-1 5-1v1zm-191-78l-3 1-4-1 7-1v1zm-8-5l-1 1-1-1h2zm-14 3l3 2h-1l-2 1-4-2v-2h3l1 1zm-205 56h2c-2 1-1 1 1 2h2c4-1 4-4 10-3h4l-18 4h-3v-1h1c1-1 0-1-1-2h2zm-28 59l2-1h9l1 1-1 1c0 2-1 2-3 1h-2c-3-1-5 0-6 1h-1 1l-2-2 2-1zm184 21l2 1-3 1-2-1h-2l5-1zm14-2l1-2h5l1 1-7 1zm72-15h-2 2zm37-10v-1l4-1-4 2zm102-13h-1 1zm39-3l3-2 3 2h-6zM976 175h-1 1zm-65 3l1 2h-3v-1h-3l1-2 3 1h1zm-147 27h-6l-1 1h-2l-1-1-2 1h-4c-2 1-9 1-1 2l-2 1h-14c2 0 5 0 4-2h3l10-1c2-1 0-3 1-4h2l1-1c5 2 9 0 13 1h1l-2 1v2zm-92 36h1l1 1 1 1-4 1h-1v-1l1-2h1zm-9 14v-1 1zm-28 34l-1-1 2-1 3 1-4 1zm14 38l-5 1 5-1zm150 0h-1 1zm9 1v-1h3l-5 1h2zm307-66h-2c-1-3-5-2-8-2l-2-3 6-1 1 1c2 2 4 1 7 0-3 2-3 3-2 5zm35-25h-2 2zm20-47v1l3-1-1 1c-1 0-3 1-2 2h-1v-1l-1-1 2-1zm-6-24c-2 0-5 1-7-1h6l1 1zm-4-7h4l-9 2v-1l4-1h1zm-89 2l-1-1 2-1 1 1-2 1zm-56 6l7-2 2-1c3 0 5 0 7-2h7l1-1 7 1h9l1 1h-1 1-2c-4 2-8 2-12 1l-4-1h-1v3l-10 2v-2c-3 0-6-1-6 2h6v1h-8l-2 1h-1l-4 2h-5l-1-1c-5 0-9 0-11-3h4c3 1 7-1 10 1 2 1 7 0 5-2h1zm-92 11h1l11-2 3 1-2 1-1 1h-8l-1 2h-3c0-1 1-2-2-2l2-1zm14-9zm-32 6h-4c1-1 0-2-2-2 3 0 5 0 6 2zm-116 20l9-3 1-1h8c3 0 6 0 6-2h2v1l-5 2-5 1-3 1-5 1h-1l-1 1-3 2h-8l-2 1-5 1-3 1h-7v-2l4-2h1c4 1 8 0 8-2h9zm-142 50l1 1h-3l2-1zm-21 43h-1v-1l1 1zm-12 11l4-1v1h-4zm-8 18l3-1v2l3 1-4 2 1 2-3-2h-1l-2-2 1-1 2-1zm24 15l3-1h1l-4 1zm86 3l-3-1 3 1zm-19 10h2l1 1h-9l1-1h5zm4 13h-4l-1-2h4l6-1h3v1c-4 0-6 0-8 2zm81-17h-3c0-2-3-2-5-3h-1v-3l5 1 4 4c-2 0 3 1 0 1zm11-10l-6-2h1l5-1 3 1v2h-3zm10 1l-5 1-2-2 5-2h4c2 1 2 2 2 3l-1 1-3-1zm207-22l-1-1h-1c1-1 0-1-1-2l2-1 1 1 1 2-1 1zm-17 14l10-1 1-1c4 0 7-2 12-1l-13 4-5 1-6 1 1-3zm44-2v-2h2v2h-2z" class="st0"/>
  <path d="M1076 312v-2l-3 1 3 1zm-208 35h-2c1 1 1 3 6 2l-4-2zm-57 14h11c0-3-5-2-7-2-3 0-4 0-4 2zm6-5l-2 2c3-1 8 0 10-2h1c3-1 3-2 2-3 4-1 7-1 9 2l2-1-2-5-11 3h-1c-2 1-5 1-4 3l-4 1zm-79 6h-3l2 1c2 2 5 1 7 0h2c-2-2-4-3-8-1zm9-4l-5 1 4 1 1-2zm56 5l1-1c-2-1-4-2-6 0l-1 1h6zm-290-35c-2 0-4-1-4 1l6 1 1-2h-3zm269 60c-3 1-5 4-11 2l-4-1-6 1v1l-7 1-6 2-2 1 4 1h6c3 2 5 1 7 0 2-2-8 0-3-2l4-1 1 1h2l4-2 4 1c7 1 3-3 8-3 0 0 2-1-1-2zm8-5l-2-1h-3l-6-1h-6l-4 1v4c5 3 8 0 12-1s9 2 13 0l-4-2zM618 252l-4-1-4 1c3 2 6 0 8 0zm-93 73l7 2 1-1-1-2-7 1zm621-140l5 1v-2l-2-1c-2 0-3 1-3 2zM996 335c-2 3 4 1 6 1l-6-1zm157-194l9-1h3l-3-3h-9c-2 1-6 2 0 4zM731 365c-1 2 3 2 5 3 3-3-1-3-5-3zm-92-95c-1-1 1-2-2-3l-2 1v3l4-1zm-42-14c2 1 4 2 7 1-1-2-4-1-7-1zm558 29h4s2-1 0-2l-4 2zm-363 97l6-1v-1h-4l-2 2zm88-44l7-1-4-1-7 1 4 1zm202-51l1-2h-4c-1 1-1 2 3 2zm37-30h-1 1zm-424 80v-1c5 0 5-2 6-4-3 1-7 0-8 2h-1l-1 2v2c4 1 2-1 4-1zm227-21h-1l1 2c4 2 5 0 5-1-1-2-3-1-5-1zm-11 15h1l2 2v1l15 4 1-5h1l-2-2 3-2c2 0 3-2 5-3l-13 1-6-1-3 2h-1l-3-1c-4 1-2 3 0 4zm-14-3c2-1 0-1 0-2l-4 1-2 1h6zm-36 2l-4 1 1 1c2 0 3-1 3-2zm13-3v2h6c1-1 3-1 2-2h-8zm115-27h-8l-2 1-8 4-2-1h-2c-4 1-2 3-2 5 0 1 1 2 3 2l7-1 1-1h1c2-1 2-1 1-2l3-1c2-2 5-3 10-2l7-2v-1c1-1 0-1-1-1h-1v-1l2-1-2-2-6 1 1 1-2 2zm15-6l-4-1-2 1v2c3 0 6 0 6-2zm-98 29c4-3 0-4-3-5l-3 1 1 1 4 3h1zm11-8c-2-1-3 0-5 1 2 0 2 1 2 2h2c0-1 3-2 1-3zm12 0v-1h11c4-1 11 1 14-2l2-1c2-2-1-2-4-2h-1 1c2-1 5 0 2-2h-9l-2 1 1 1-11 2-2-1-4 1v1h-1c0 1 0 2 3 3zm324-56c-10 5-10 0-13-1l7-2c-7-1-14-1-18-3-7-2-11 0-16 1l-8 2 7 4c-14 0-1 4-6 6h-8l7 2-1 1h-17l16 5 1 3c4-1 7-1 10-3 3-1 13-1 11-5 6 0 12-3 18 1l7-2 3-9zm-341 90h-1 1zm0 0h-1 1zm52-16c-10-1-17 1-20 5 9 0 19-2 20-5zm210-53c-8-5-11-5-21-1h9l2 1 3-1-3 4 10-3zm-286 57v3l1 1h10c4 0 4-1 4-3l5 1c3 1 5-1 8-1v-3h-3l-3-2c-6-3-6-3-8 0h-10v2h-1v1h-2l-1 1zm-42 15l12-4h1v-1l-1-2-4-1c-1 1 1 1 1 2l1 1-17 5h7zm28-2h-2l-3 4 9 1-4-5z" class="st0"/>
  <g>
    <path d="M1341 266l-6-3h-3l-2-1v-1h-2l-6 1 4 1h-5c-3 0-6 0-5 2l5 1h1l1-1h1l-1 1v1h-12l-5 2h1l-3-1c-2 0-4 1-3 2l6 2 6-2h1l6 1 5-2h1c3 1 6 2 9 1l2-2c-3-2 6 0 4-2zm-275-102c2-2 8-1 10-2-3-2 13-3 0-5 0 2-2 1-4 1-5 1-8 2-9 5-1 1 2 2 3 1zm198 80c-6-1-8 3-13 3-2 1 0 2 2 3l14-1 4-2c3-3-2-2-4-3l-1 1-2-1zm-200-66h8l4-3h1c3-1 5-1 5-3h-2c-5-2-7 2-11 1-5 0-3 3-6 3-1 1-1 2 1 2zm432-157h3l1 1 3-1 6-2c1-1 4-1 3-2l-4-1-14 1c-1 1-2 2 0 3l2 1zm-422 100c3 2 6 0 8-1l2-1c3-2 12 1 13-3l6-1 7-2c8 0 12-3 18-4l5-2c7 1 12-1 17-2l6-1 7-2c2-1 1-2 0-3h8c2-2 10-1 12-3l1-1c3 1 6 0 8-1 6 0 11-2 15-3l8-2 6-2c1-1 0-1-1-1l5-1c9 0 18-1 25-5l5-1c4 1 4-1 6-2l10-2h1l7-1 7-2h2c2-2 5-3 9-3l6-1c2 0 2-1 2-2l15-1v-1h1c7 0 11-2 16-3v-1l8-1 2-1 4-2c7 1 11-2 17-3h8c1-5-4-3-8-2h-2l-3-2 4-1h1v1h4c6 2 11 0 16-1l1-1h2c4 0 7-1 8-3 2 0 4 2 5 0 8 0 14-2 18-4l9-1 1-1v-2h7l2-1 1-1h1c2 0 5 1 7-1h8c5-2 12-3 11-7 4-1 6 0 8 1l3-1 5-2 2-1c3 0 6 0 7-2l-8-1h-3c-1 0-1 0 0 0h-2l-2 1-4 2c-4 0-8-1-10 1-5 2-10 3-17 3-3 1-9 0-12 2h1-4c-2 2-9 0-10 3-7 0-14 1-19 3l2 2-2 1-2 1h-7c-2 1-2 1 0 2l-2 1-3-1-1-2h-4l4 2-1 1h-11l-29 7c-13 1-22 6-34 8-5 1-12 1-15 4h-2l-7 1h-1l-7 1c-3 1-6 1-6 3-4 2-10 2-15 3l-1 1-7 1-10 3c-9 1-16 4-24 6l-6 1c-5 0-7 2-10 3l-5 1c-8 1-17 2-22 6-6 0-12 1-17 3l-7 2c-5 1-10 1-12 3l-11 3-19 3c-3 0-6 2-8 3l-9 1-4 2c-4 1-9 1-9 3-3 0-6 0-7 2h-5c0 1-5 2-3 3 2 2 6 2 9 2zm-71 101c-3-1-6-2-10-1l-5 3c-5 2-2 3 0 4 1 2 3 3 8 2 3 0 4-2 5-3v-1c4 0 7 0 4-3l-2-1zm632-47l2 1 10-1h3c1-1 2-2 1-3h-12l2-2-3-1-14 6h1l6-1v3l4-3v1zm-569 80l4-1c-1-2-4-1-6-1l-4 1v1l-2 1-1 2 1 1 6 2c5 1 4-1 6-2l2-1 3-2c-3-1-7 1-9-1zm61-100l-2 1-4 2v2c5 1 4-2 8-2 3 0 5 0 6-2l-8-1zm-84 55v1l-8-1h-5c0 3 4 2 7 2v1c7 2 9-1 14-2-1-2-5-1-8-1zm56 36l-6 1v2l5 1 5-1c1-2-1-3-2-3h-2zm30-3h2c1-2-3-1-6-2h-10l-5 1h-2l-2-2-4 1-1 1c-2 0-2 1 0 2h11c2 1 4 0 6-1h11zm-59-92c2-2 7-1 10-2h-2c-3-3-6-3-11 0l-3 1c2 2 6 2 6 1zm235 123h-6l-2 1 4 3 6-1c0-1 0-2-2-3zm218-235l7-1c-2-4-6-2-9-1-2 1-1 2 2 2zm-182 209l4-2c-2-2-4-2-8-1-5 1 1 2 0 2h4v1zm17-20c3-1 10 0 8-3h-8c1 1-2 2 0 3z" class="st0"/>
    <path d="M1290 266l1 1 7 1h3l1-1h6l-3-2-4 1-8-1-3 1zm449-190h1l4-2v-2l-6-1h-9c-1 1-8 0-7 2h15c1 1 0 2 2 3zm-661 140l-3 1-5-2c-8 0 1 2-3 3-8 0-12 4-18 6l-1 1h1v3h5l4-1 5-1 1-4 9 1h2l2-1c1-2-1-4 1-6zm-21 11h1-1zm1-2l1-2h3l-4 2zm158 63c0 2 4 1 7 1-1-2-4-2-7-1zm152-68h-2c-2 2 0 3 2 5h2l1-3-3-2zm-46 54l6-2h-6c-1 1-5 2 0 2zm375-227c2-1 5-2 1-3l-4 1 3 2zm-575 192c0-2-2-2-4-2l-3 1 4 2 3-1zm567-204h1v-2l4-2c1-2-2-1-4-1l-1 1-1 1c-3 2-5 3 1 3zm68 33v1l3 2 3-1-2-2h-4zm-166-15h2l6-1-4-1c-2 0-4 0-4 2zm79 96h-4c-1 1-1 1 2 1l1 1c4-1 3-2 1-2zm-598 101c-3 0-5 0-6 2 7 0 7 0 6-2zm12-106h9l2-1 6-1c3 0 3-1 3-2h2l4-2h-13l-5 1c-1 1-4 1-4 3l-3 1c1 0-4 0-1 1zm281 86l1-1c-10 3-10 3-4 7l2-4h4l4-1h2l5 1 1 1 2 1h1l-5 2c2 1 5 0 7-1h6v-2l-3-1-8-1-1-1-5-1-4 1h-5zm-3 12l2-1-4-2c-1 1-2 2 2 3zm-357-21v-1l-6-1h-2l8 2zm281 31v1c3 0 6 0 5-2h-1l-4 1zm-2 28v1h6l-6-1zm-199-27c-2 0 0 1 0 1h4v-1h-4zm619-119h4v-2c-2 0-5 0-4 2zm103-74l-4 1h4v-1zm-217 113l-1 3c3-1 6-2 2-3h-1zm89-32c2 0 3-1 3-3l-3 1c-1 1-3 2 0 2zm99-73l4-2-4 1c-1 0-3 1 0 1zm-26 102l-6 2 2 1c3 0 4-1 5-2l-1-1zm-517 114l-3 2c2 2 5 0 7 1 1 1 1 3 5 3 2-1 1-2 1-3v-1l-3-1c-1-1-4-2-7-1zm103-47c2 2 5 1 7 0h-7zm354-191h-3c-3 0-6 0-7-2h-6c-1 1-5 3 1 3l2 1 6 1c6 1 5-2 7-3zm-13 4l-4 1h-1l-2 1v1h6l3-1 2-1v-1h-4zm-208 177h-4c-3-1-5 2-9 1l-1 2c-3 1-5-2-9-1v1l-4 1c-2-2-5-1-8 0l-9 1v2h2l-18 5 1 3h-6l3-3h-1 3c-2-5-4-5-11-3l-3 4-7-4h-2l-1 4c3-1 4 0 5 1l-3 1 1 2c-3 2-7 2-11 2h-2c-3 1-6 1-4 3l-4 2c-5-2-3 1-4 1h-5v1l-1-1h-11l-6 1 1 1-1-1c-2 2-5 0-7 1-7 2-1 4 0 6l4-1 4 1v-1l4-1 3 1h13l-1-2 2-2h9c3-1 1-1 0-2l2-1h15c3-1 2-2 2-3l2-1v1l4-2v-1h9c4-3 9-2 14-2l9 4 1-1-2-3 8-2 11-2c3 1 5 0 6-1s-1-1-2-1l-4 1-3-2h2l-1-2c2-1 4-2 4-4l4 2-4 4c5 0 9 0 11-2l-3-2-1-1 10-1c0 2 2 2 3 1 1-2 3-4 8-4-2-2-5-1-7-1zm-123 28h3l-1 2-2-2zm31-5h-1 1zm26-11h2l-6 2h-1l5-2zm8 3h1-1zm-124 0l-3-2c-3-1-6 0-8 1h-1c-4-1-7 0-10 1v2l11-2 9 2 4-2h-2zm-144 7l-10 3c-3-1-4 0-6 1l-1-1-3 1-3 2-1 1c-2 1-3 3 0 4h6c3-1 1-2 0-3l6-1c1-1 4-1 3-2h4c11 0 6-3 5-5zm2 7l5 1-2-2-3 1z" class="st0"/>
    <path d="M1717 177c-4 0-8-3-13-1l-4-1-7 1-1 1-1-2c-4 0-7 0-8 2h-5c0 1-1 2 1 3l4-1 3 1-1 1-1 1 1 1-3 2h-3v-1l-4-1-1-1v1l-1-3c-1-2-4-1-7-1 0 1 0 2 2 2l1 2h1-21l-8 4h-4c-5-2-7 0-10 1h-3c-4 0-10 0-14 2l-4 1-2 1-13 4v1l4 1c0 1 2 2 0 2l-6 1c-2 0-4-1-5 1l-6 1h-8c-4 1-5 3-6 5l-4-1h1-1c-1-1-1-3-5-2-3 1-8 2-10-1h-2l-2 1-4-3 12-5h-2l1-3h1l3 1c6-1 0-2 0-4 1 0 0 0 0 0 6 1 8 1 11-1h4l-2 4 6-3 5-3v-3h1l2 1-3 2 4 5 2-1h9l7-1v-3l-5-2 16-4h1l3-1v6c8-1 0-7 11-7l4 4h2l1-7-13-1c5-3 3-6-2-7l2-3v-1h-2l-2-3c-1 0-2 2-4 0-2-3-5-1-7 0-6-1-6-2-2-4h17l-6 1 9 3 5-3 6 1 1-1-9-3-3 1c0-2 2-3 5-4l2 2 3 1 4-1 2 1 4-2-6-2c-3-2-6-4-12-3l-5-2h-1 1v-1h17c-2 3 6 4 7 6l5 3h-2c-3 0-4 1-3 2v1l-2 2h-3v2h4l3 1 2 1h1c6-1 13 0 19-2 1-1 0-2-1-3l-7 1h-2l-11-2h1c2-1 6 0 7-2h10c3 0 6 0 4-2l-2-1-4-1-2 1 1-2h-6l-1-3-1-2c-3-2-8-2-13-2h-12l-5-1 4-1h3l11-3 1 1h1l6 1 2-1v-1l2-1-3-1 12-2v-1 1l-3 2-2 1v1c3 1 6 1 5-1l3-2 4 1c1 0 3 2 3 0 0-1 1-3-2-4h-3l2-2c-5 1-8 2-7-1v-1l9-2 5-1 5-1h1l14-4 2-1 5-1 3-1 26-8h-5c-1-1 3-1 1-2l-7 1v1l-9 2h-5c1-2 5-1 8-2 1-1 4-1 1-2l-22 5h-1l2-1h1l18-4-2-1h-2l-15 3 6-2-10 1-10 3-2-1c5-1 5-4 10-4 5-1 5-4 10-5l-2-1-11 2h-2l-3 2h-1c-5 1-12 1-15 4h-1c-2-1-1-2-4-2s-1-1 0-1c1-2 7-1 6-3l-1-1-4-1s-1 0 0 0l17-5-2-1c-9 0-18 1-27 4h-8l6-1c3-1 2-2 2-2l1-1h2l7-1 12-4-1-1h-3l-4 1 3-1 7-1c2 2 7 1 11 1 4-1-1-1-2-2s0-2-2-2h6l2-1v-1l4 1 1 1 6 1 2-1 12-2c4 0 6-2 10-3h1v-2c0-2-3-3-6-3 1-2-1-3-3-3l-3 1c-2 1-5 1-3 2h8l-1 3h-11c0-3-2-5-9-3l3 3v2h-11l-5-1 2-1 5-1 4-1-1-2-8 2-15 2-2 2-15 3c0-2-2-3-4-4l-6 1-5 1v1l-10 1c3-2 1-4 3-5l1-1h2l2 1h8c0-2-3-2-4-2h1l5-2 4-1h4l3-2 2-1 9-1 1 1h13l4-1-4-1-2-1h-5l1-1 5-1c3 1 5 0 7-1l16-4 11-3 21-5 16-4c1-1-1-1-2-1l-25 5c-3 1-8 1-11 3h-1l-22 5-19 4-5 2h1l-18 4v1h-2l-5 1-3 1-5-2 9-2-3-2 4-1 4-1 4-1 19-4 9-2h1v1h12l2-1c2-1 2-2 0-4h-2l-5 2h-2l4-1v-1l-6 1-5-1c-2 0-5-1-5 1l4 2-8 2c-5-2-9 0-13 1-1-2 6-2 8-4l1 1 5-1-8-1 6-2 2-3c1-1 1-2-2-2l-2 1-2-1-1-1 7-2 9-3c1-1 0-1-2-1 4-2 7-3 11-3 2-1 5-1 4-3h-1l-16 5h-1c-3 1-8 1-11 3h-4c-4 2-8 3-13 3l-1 1-9 2-5 1-9 3-8 2-4-2h-2c-4 0-6 2-7 3l2 1h2l-5 1-1 1-5 1h-16l-7 2c-3 1-8-1-9 2-3 1-6 0-8 2l-3 1h-5 1l13-3c1 0 3-1 2-2h-1l-3-2-3 1-2 1h-2 1l5-2 4-2h3c5 0 3-2 4-4l2-1h2l11-2 5 1 7-2c4-1 1-2 0-2l-2-1-8-1h-1l-1-3-3-1-6 2c0 2-3 2-5 2v-1c-1-2-3-4 1-5l5 1 8-2v1c2 1 0 2 2 3h4l3-1h1l6 2v2l3 1c-2 1-2 2-2 3l2 2 4-1c2 0 2-1 3-2 1-2-1-2-4-2l3-1 2 2h4c3-1 1-2 0-3-3 0 0-1 0-1h2l1-3 8 2c3-3 10-2 13-4 4 2 5-2 8 0v-1c5 3 9-1 13 0l16-2h7c2-3-6-2-5-4l-4-1h-1c1-1-1-2-1-3h-2l-4 2v1h4l-4 1-4-1-4 1h-4l-1 1h-8l-2 1-4-1c0-1 1-2-1-2l-1-2c-1-1 5-3-2-4l-28 6c-8 0-14 2-20 4h-3c-5 2-12 3-19 2l-1 1-7 1-2 1-5 1c-4 1-2 2 0 3l3 2 4-1h3v1l2 2h-9l1-2-4 1h-2c0-1-4-2-1-3 1-1 0-2-1-2l-10 2h-1l-5 2h-9l-6 1v-1c-4 2-6 4-11 4l-11 2-7 2-2 1 1 3-1 1 1 1-2 1h-11l-3 2c-4-1-5-2-4-3h4v-1l5 1c3 0 7 0 6-2v-3l-4-1-8 4-7 1h-4c-4 0-8 1-10 3l-1 1c-2 1-4 1-3 2-2 0-7 1-7-1l-4 1h1c-4 1-9 0-12 2v-1l-9 1v-1h3c4 1 6-1 8-2v-3h1l7 1h5l1-1h1l8-1h2c3 0 6 0 8-2h2l3-2-1-1 9-2c2 0 2-1 2-2l4 1h7l8-4v-1c3 0 7 0 8-2l1-1h10l4-2c-6-2-9 1-14 1h1l-10-1c0 2-6 3-6 6h-5l-4 1-4-3c-3 0-3 3-8 2v1l-9 2-6 1h-2l-3 2-6 1-4-1-2 1h-3l-2 1c-5-1-7 1-10 2h-2l2 2v1l-1-1c-4 0-8-1-12 1l-5 1-5 1c-3 2-13 1-14 5h-2 1l-1 1c-4 0-8 0-9 2l-6-1c-1 1-5 1-2 2 4 2-2 1-2 1l-7 1c-5-1-9 2-13 0h-4v-1h7c2-1 4-2 3-3l-3-1h6c6 2 8-1 12-2v-1l4-1c0-2 1-3 5-2v1c7 4 9-1 13-2l3-1h5l1-2 9 1 7-2 1-1h1c3-1 7 0 8-2l4-1 3-1h2c4 0 4-2 7-3h1l4-1h11l1-1 1-1h-5l4-3c3 1 5 0 7-1h5l1-1c4 0 7 0 8-2h1c5 0 9-2 14-1l2-1h5c3-2 4-5 12-4 3-1 3-2-1-2h-16l-5 1-5 1-2 1-8 1h-3l-1 3-9 2-8 1-2 1-7 1c-4 0-6 2-10 3-7 0-13 2-19 3h1v1l-1-1-15 4c-5 0-11 1-14 3-7 0-13 2-18 4l-16 3-15 4c-4 0-9 0-10 3-10 1-19 3-26 6l-2 1c-6 0-10 1-14 3-6 0-11 1-15 3-3 0-6 0-8 2h-1l-7 1-2 1-11 5-13 2-16 4-7 2-6 1-11 3c-5 0-6 2-10 3l-4 2h-7c-3 1-4 3-5 4h-1l-7 2-7 1h-3c-5 0-8 3-13 3h-1c-7 0-7 3-11 4-5 1-13 0-15 3-5 0-10 1-12 3-5 0-5 2-3 3 1 2 5 1 7 0l8-3 6-1h11v-1c4 1 7 0 8-2h3c3 0 7 0 9-2l5-2h6l1-2h5c1 0 4 0 3-1l2-1 3-1 5-1h4l2-1v-1l3-1h5l6-3h6l5-1 3-1c-1 1-2 2-4 1-2 1-1 2-2 3h-1c-1 2-5 2-7 2-1 2-6 1-7 3l1 1h-3l-4 2h-1l-1-1h-3c-6 0-13 1-18 3l-1 2-4 2-6 1h-6v1l-8 2-5 1v1c-4 1-13 0-11 4l9 1h3v-1c6 2 6-1 7-2h8c1-3 7-3 10-4v-2h-1 4l5 1c5 0 7-1 8-3h2c0-1 1-2-1-3 1-2 4-2 7-2 1 1 1 3 5 4v2h-2l-9 3h-1l-4 1c-1 1 0 4-5 2h-6l-1 1-8 1c-2 0-4 1-3 2h-1v1h-6c-2 3 4 2 6 3v-1h3l-1 1-2 2-2-1-4 1h-4c-2 1-2 3-4 3l-4 2c-3-3-3-3-7-1l4 2h-2l-6 1h-4l-7-1-2 1-1 1c-2 0-3 0-3 2h-1l-2 1c0 4 5 5 13 4l2-1c5-1 10-2 13-4v-1c2-1 8 1 6-2 10 1 6-4 10-5h1c5 0 10 0 12-2h7l-1-3 3-1h6l-3 1c-1 0-5 0-4 1h6c1 2-4 2-3 4h-4l-3 1-8 2c-2 1-6 1-8 3h-1l-3 1-6 1v1l-7 1v1h-1c-5 2-12 2-16 5l1 1 7-2 14-3h1l1-1c4.6-1.7 9.2-3 14-4h1l9-2 12-2-1 2c-4-1-6 1-8 2l-5 1c-5 0-6 1-3 3l4-1 6-1v1l1 2h-4v1c-2 1-1 2 0 4 2 1 1 2-2 2l-6 2c-1 1-1 1 2 1l20-2 8-1v-1l4-1 3-1c4 2 4 3 0 4l-3 2-2 1h-11l-1 1h-3l-2 2v1l-8 3-3-1-2-1h-10l-2-1 2-2 3-1c1-1 2-1 1-2h-6v2h-9l-1 1c-1 1-5 1-4 2v1l-1 1v1c3 0 8 0 10-2h2l1 1-4 2-5 1h-10l2 2 6 1 2 1-3 1-9-2h-3l-4 1-1 2h1l-2 4h-2l-2 1-2 1-8 2c-5 0-9 1-8 3v1c-4 1 1 3 0 4h-1l-4 1c2 2-8 2-4 5h2l5-1 4 1 3 3 5-1 4-1 9-2c1-2 1-3-3-3h-4l4-1h5c4-1 10 1 12-2h9c1-2 2-3 6-3l4 1 2-1 1-1h8v-1c4 1 5-2 8-2 0 2 1 4-1 5l-3 1-10 2-1-1c-5 1-11 0-10 4l-4 1c-3-1-5 1-9 1l-6 1c-5 0-6 3-9 4-8 0-11 3-17 4h14l-7 2-6 2 2 2h1c4 1 4-1 7-1h2c2 2-1 5 8 5l2-1v-3l-1-1 1 1h9l6 3-6 2c-2-1-4-2-8-1l1 4 4 1h-1l-3 1-3 1h7l-12 4 12-1c5-1 10-1 14-3 4 0 8 0 10-2h3l9-2c0 2 1 4-2 5l-2 1h-1l-2 1-5 1c3 1-6 5 4 3l4 2v-4l4 1h1c3-1 0-1 1-2l1-1h16c2-2 7-1 10-2h3v-2h4l1-3h-2c-1-2-7-1-7-3h6l6 2h4v-2c5-2 12-3 19-3l-6-2c2-1 5-1 6-3h9l10-2c3 1 6 2 9 0l2 1h-2l-2 1h-1l-9 2h-1l-3 1h-2c0 2-2 2-3 3h4c-4 1-6 4-11 2 0 2 2 2 5 3-3 1-4 2-4 4l-5 1h-10c-5-1-6 1-8 2l-9 4c4 1 6 5 12 1l5 1v2c-6 0-10 1-5 4l-1 1h-9l-2-1c1-2-2-3-4-5l-2-1-4 2-2 1h-1c0 1-1 3-4 4h-2l-8 1 4 2h6c9 0 5 2 4 3 0 2-7 2-6 5 4 1 7 2 8-1l7 2 1-1v1c-3 1-2 2 2 2l9-1h10c7 0 9-3 13-5l5-1h2c3 0 1-3 6-2h2l3-2h3l2 1h1c0-2 5-1 6-2h6l1-2-2-1 1-1h8l2-1h1c6 1 6-2 8-3 0 1 0 2 2 2 2-1-1-2 0-3h3l6-3v-1c6-1 12 0 15-3v-1h9l-2-2c-1-2-1-3 5-2h11l3-1 2-2h2c5 1 10 0 15-1h3c1 2-2 4 0 6l-9 1-1 2-5-1h-5l-4 1-2 1v2h1l-3 1c0 1-5 1-2 2-1 2 2 2 5 2l1-1 2-1 2-2h5l8-2 1-1-1-1h7l1-3 5-1 2-1h1l5 1c2-2 7-1 9-3 1-2-3-2-5-3h-1l-1-1h-6v1h-10c0-2-2-3-4-3l1-1-4-2h7c1 2 4 3 8 1h8l5-1v-2h1l5 1h4l5-1 1-2c-1-1-1-2-3-2h-1l2-1h12l1 1h2c3-1 8-1 6-4v-2h2l2 1 12-1 6-1c2-1 1-2 0-3h2v-1h4l6 2c7 0 1-3 4-4h2l9-1 1-1 9-1h1c3-1 6-2 5-4h1c-1-1 0-1 2-2h5c1 1 2 2 5 1l4-1 6 1-1-1 4 1 6-1-3-5 3-1v-2h1c2 2 3 4 9 4l7-1h3l3 1-2 1-1 1h-1l-6 4c-1 0-3 1-1 2 6 1 4-3 8-3l1 1h3l4-1h14l2-1-2 4-6-2-4 4-8-2-2 4h-1c-5-4-6-4-17 1l4 2-5 1-15 3-4 1h-1c-1 4 4 3 9 3h4l5 1c4-1 7-3 6-5 5 1 8-1 12-1l1-1 3 1c2 2 5 2 9 2 7 0 14 1 18 3l-1 1-1 1v-1c-6 1-12 0-16-2h-9c1 3-3 4-8 5v-3l6-1-11-2 2 1-7 8 1-6-12 3-6-2-3-1-5-2c-2 2-9 1-9 4-2-1 1-3-4-2l-5 1h-6v1l-2 1h-2c-3 0-7 1-8 3-3-1-4 0-5 1 0 3 7 0 9 2h5l2 1h3l4-2c2-1 1-1-1-1l-2-2-2 1 1-1 3-1 4 2v-1h1l5-1h4c3 2 5-1 8-1l2-1 6 1-4 2 3 8 4-2 4 1-4 1-2 1h-6l1 2c-3 1-1 1 0 2 4 0 4 1 7 2l3 3 4-1-5-2c-4-2 0-2 2-3v-1l3-1 5 1c2-1 3-1 2-2l7-3v2h-2c-1 0-3 1-2 2v1h2c4 0 5 4 10 2l6-1h3c2-1 7-2-1-3h-4l6-1 16-2-1-1 21-4 2-2 1-1c10 1 17-3 25-4h4c0-2-1-2-4-3l2-1h4l4 1 7-1 4 1 8-2c3-1 5-1 6-3l-6-1-1-1-4 1 2 1v1l-5 1c2-2 1-3-2-4l3-2h7l1-1h5v-1l5 1-2 1 1 1 7 1h2l2-2-1-1 5-2h2l2 2h5c3 0 6 1 6-1l-3-1-3-2 2-1v-1h7l1 1h3c-1 1 3 1 5 2l1-1 10-1 6-2h-1v-1l1 1 7-1v-1l3-3h-1l-2-2h1v-2l3 1 9-1 16 1c2-2 0-2-2-2zm-33-56h-1 1zm-92-85l4 1h2l-5 2h-3l2-3zm47 2v1-1zm-290 184l-1 1-3 1v-2h4zm200-32l1-1 2 1h-3zm22-4v-1h1l-1 1zm17 1l-4-2v-2c2 1 5 2 4 4zm-1-4l-1-4c-4 1-4 2-3 3l-6 1v-2l-3 2-4 2h-7l-12-4-1 3-6-2c-2 0-5 0-7 2l1-2h-4c-2.4-.1-4.7.2-7 1 0-2-1-2-4-1l-6-2h-6c1-1 3-1 2-2l-2-2 2 1c7 1 13 1 19-1l1-2h9c-2 1-2 2-1 3l7 1v1h7l4-2 2 1h2c3 0 4 2 9 1l-7-2c-2-2-4-1-6 0l-2-2 2-1 1-1 6-1c-2-1-5 0-8 1l-1-1h-10l2-1 8-1 1-1h1c2 1 4 2 7 1h4v2h6c1-2 4-2 7-2h4c2-1 4 0 4 1h6-1c2 5 1 9-9 12zm-172 10l3-1h2-2l-1 1h-2zm-163 47l-4-1h5l-1 1zm-93-69l3 1-1 1h-2v-2zm291-108l-1 1 1-1zm133 105v1h-5l-5-1-1 1v-3l-5-2-1 1 1-1h1c5 1 7-1 10-2h-1 1c2 0 2 3 5 1l2-1h6l6 2v1l-1-1-6 1-1 2c-2-1-4 0-6 1zm-176 27l-1-1h-7 3l3-1h1l3 1v1h-2zm-164 42h-7l-1 1h-2l-1-1 6-2v-1h1l-4-3h5l-1 1c-1 1-1 2 1 2h3c1 1 2 1 1 2v1h-1zm-26-7v-1l4 1-4 1-2 1h-1l1-1 2-1zm384-160l2-1-1 1h-1zm-35 95l1 1-2-1h1zm-248 52h1-1zm-4-2l-1-1h3l1 1h1-4zm-74 13h-10c1-1 1-1-1-2l3-2h2c0-1 1-2 4-2l1 1-4 1h5l3 1 4 1v2c-2 0-2 0-1 1-2 0-3 1-3 2h-3c2-1 2-2 0-3zm-25 7l5 1-1 1-4-1h-5c2 1 4 0 5-1zm79-141l6 1-5 2h-7v-2h1l5-1zm26-17v-1l7 2h-1l-4-1h-2zm62 1h4l6-1-1 1-2 1-6 1h-3l-1 1-3 1h-4l-2-1h-8l-2-1 4-2 1 1 12 1 5-2zm127 92h-1l2-1 2 1h-3zm-338 37l-2-1v-3h10v1l-2 2-4 1h-2zm404-124v-1h1l-1 1zm-343 68l1-1-1 1zm45-18h-1l-3 1v-1h4zm-101 55zm163-96h1-1l-2-1-2 1-2-2 6 2zm-61 11l1-1 1 2h-5l-1-1h4zm-67 99l-2 1 2-1zm139-118h-2l2-1 1 1h-1zm-21 4l-2-4 2 1v3zm-45 15l-2-2v-1h4c0 1 0 2-2 3zm-29 4v2l2 3h-7l-1-1h-3v-1c3-1 9-1 8-4l1 1zm-20 3l5 1h1l3 1c-1 2-4 2-8 2l-3-1c3-1 3-2 0-3h2zm-16 13h-3l-2-1h1l4 1zm-84 91h1-1zm229-130v1h-2v1-1h-2l1-2h2l1 1zm-152 33v-1l-3-1 7-1-3 3h-2c-1 1-2 2 0 3v1h-3c-2-1-4-2-6-1l-3-2c4 0 9 1 13-1zm335 46l-4 2-4 1h1-2l-3-2 3-2 5 1 1-1h3l5 1h-5zm74-79l1 1-1-1zm-305 4l2 3-2 1c0 2 3 2 6 2h2v1h-2l-8 2h-7l2-1 2-1c2 0 4-1 3-3l-3-1-1-2h1l5-1zm-153 109s1 0 0 0zm97 33l-7-1-1-1 1-1h4l10 1-7 2zm339-78l-4 1-1-1 4-1 1 1zm-191-78l-4 1-4-1 8-1v1zm-9-5l-1 1-1-1h2zm-14 3l4 2h-2l-2 1-4-2 1-2h3v1zm-205 56h2c-1 1 0 2 1 2h3c4-1 3-4 10-3h4-1l-17 5-1-1h-2v-3h1zm-28 59l2-1h10v1l-1 1c0 2-1 2-2 2l-1-1h-2l-6 1-1-2 1-1zm52 48l-1-1 1 1zm133-27l1 1-2 1-3-1h-1l5-1zm13-1l1-2 4-1h2v1l-7 2zm72-16h-1 1zm38-10v-1l3-1h1l-4 2zm140-16l3-2 4 2h-7zm-190-97l1 2h-3l-2-1 1-2 2 1h1zm-146 27h-3l-4 1h-6l-3 1c-2 0-9 0-2 2h-9l-7 1 5-2 1-1h1l11-1c2-1 0-2 0-4h3l1-1v1h13l-2 1c-1 1 0 2 1 2zm-16-4h-1 1zm-76 40l1 1c-1 0 0 0 0 0l2 1-5 2v-1l-1-1 2-2h1zm-38 48l-1-1h5l-4 1zm15 38l-5 2c0-2 2-2 5-2zm158 1l1-1h2l-4 2 1-1zm307-66h-2c0-2-4-2-8-2l-1-2 6-2v1c2 2 5 1 7 0-2 2-3 3-2 5zm35-25h-1 1zm20-46h4-1c-2 0-3 1-2 2h-2l-1-2h2zm-6-25c-2 0-5 1-6-1v1l5-1 1 1zm-3-7h3l-9 2v-1l5-1h1zm-90 2v-1h2c-1 0 0 0 0 0l-2 1zm-55 6l6-2 2-1c3 0 6 0 7-2h8v-1l8 1 9 1h-2c-3 2-7 2-11 1l-4-1h-2v3l-10 2v-2c-2 0-6 0-5 2h5v1h-7l-2 1h-2l-4 2h-5l-1-1c-4 0-9 0-11-2h4c3 0 7-2 11 0 1 1 6 0 4-2h2zm-70 9h-1v-1l1 1zm-23 2h2c3-1 7 0 10-2v1h3l-1 1-1 1h-8l-2 2-1 1h-2l1-1c0-1 0-2-2-2l1-1zm14-9zm-32 6h-3c1-1 0-2-2-2 3 0 5 0 5 2zm-115 20l9-3h1l8-1c2 0 6 0 5-2h2v1l-5 2-4 1-4 1-4 1h-1l-1 1-4 2h-7l-3 1-5 1-2 1h-8 1-1 1v-2l3-2h2c4 0 7 0 8-2h9zm-143 50l1 2-2-1h-1l2-1zm-20 43h-1v-1l1 1zm-12 11l3-1v1h-3zm16 2c1 0 1 0 0 0 1 0 0 0 0 0zm-25 16h3l1 1 3 1c-3 0-4 1-5 2l1 2-2-2h-2l-1-2 1-1 1-1zm25 15l3-1-3 1zm86 3h-4 4zm-19 10h2l1 1h-10l2-1h5zm4 13h-5l-1-1 5-1 6-1h2v1l-7 2zm80-16l-3-1c1-1-2-2-4-2l-2-1 1-3 5 1 4 4c-2 0 2 2-1 2zm12-11l-6-1v-1l5-1 3 1v2h-2zm10 1l-5 1-3-2 6-2h2l2 1c2 0 2 1 2 2l-1 1-3-1zm206-22v-1h-1l-1-2 1-1 1 1 1 2-1 1zm-16 14l10-1 1-1c3 0 7-2 12-1l-14 5h-4l-6 1 1-3zm44-2v-2h1v2h-1z" class="st0"/>
    <path d="M1576 202v-2l-4 1c0 1 1 2 4 1zm-208 35h-2c0 2 1 3 5 2l-3-2zm-57 14h11c-1-2-5-1-7-2-4 0-5 1-4 2zm5-5l-2 2c4-1 8 0 10-2h2c2-1 3-2 1-3 4-1 7-1 10 2l1-1-2-5-11 3h-1c-1 1-5 1-4 3l-4 1zm-78 6h-4l3 1c2 2 4 1 7 0h2c-2-2-5-2-8-1zm8-3h-4l3 1 1-1zm57 4l1-1c-3-1-5-2-7 0 0 0-2 1 0 1h6zm-290-35c-2 0-4-1-4 1 1 1 3 2 5 1s2-1 1-2h-2zm269 61c-4 0-6 3-11 1h-10v1l-8 1-6 2v1l-1 1h4l3 1h2c3 1 5 0 8-1 2-2-8 0-4-2l4-1 2 1h2l4-2 4 1c6 2 2-3 7-3 0 0 2-1 0-1zm8-6h-2l-4-1-6-1h-5l-4 1-1 4c5 3 8 1 12-1 5-1 9 2 14 0-1-1-5-1-4-2zm-172-130l-4-2-4 2h8zm-93 73l6 1 1-1v-1c-3-1-5 0-7 1zm621-141l5 1-1-2-1-1c-2 1-4 1-3 2zm-150 150c-3 3 3 1 5 2 0-2-3-2-5-2zm156-194l10-1h2c1-1 0-2-2-3h-10c-1 1-5 3 0 4zm-422 224c0 2 3 2 6 3 3-3-2-3-6-3zm-91-95c-2-1 0-2-2-3l-2 1v3l4-1zm-42-14c1 1 3 2 7 1-2-2-5-1-7-1zm557 29h4c1 0 3-1 0-1-2-1-2 1-4 1zm-362 98l5-2h1l-1-1h-4l-1 3zm87-45h8l-4-2-7 1 3 1zm203-51v-2h-4c0 1 0 2 4 2zm-388 50v-1c5 0 6-2 6-4-2 1-7 0-7 2h-2l-1 2 1 2c3 1 1-1 3-1zm228-21l-1 1v1c5 2 5 0 6-1l-5-1zm-12 15h2l1 2 1 1 15 4v-5h1l-1-2 3-1 4-4-13 2c-1-1-2-2-5-2l-4 2-3-1c-4 2-2 3-1 4zm-13-3c1-1 0-1-1-2l-3 1c-2 0-3 0-2 1h6zm-37 3h-3l1 1 2-1zm14-4l-1 1 1 1h5c2 0 3-1 2-2h-7zm114-27l-7 1h-3c-3 1-6 3-7 5l-2-2h-3c-4 1-1 3-2 5 1 1 1 2 3 2 4 1 6 0 8-1h1c3-1 2-2 1-3l3-1 10-2 8-2v-1l-2-1-1-1h3l-2-3-6 1v2l-2 1zm16-6h-6v2c3 0 6 0 6-2zm-99 29h1c4-2 0-3-4-4h-2v1l4 3h1zm11-8l-4 1c2 1 2 2 2 3h1c0-2 3-3 1-4zm13 0v-1h10c5-1 11 1 15-2l2-1c2-2-1-2-4-2h-2 2c2 0 5 0 2-1l-9-1-2 1v1l-10 2h-6l-1 1h-1c1 1 1 3 4 3zm323-56c-10 5-10 0-13-1l7-2-18-2c-7-3-11-1-16 0l-7 3 7 3c-15 0-1 5-6 6l-8 1 6 1v1h-18l17 5 1 3 9-2c4-2 13-1 11-5 7-1 13-4 18 0l7-2 3-9zm-289 74c-10-1-17 1-19 5 9 0 18-2 19-5zm211-53c-8-5-11-5-21-1h10l-2 1h3l2-1-3 5 11-4zm-8-1h1-1zm-278 58l-1 1 1 2 1 1 2 1 8-1c3 0 3-1 4-2h5c3 1 5-1 8-1v-3h-4l-2-2c-6-2-7-2-9 1l-3-1c-3 0-5-1-7 1l1 1h-1l-1 1-2 1zm-43 16l12-5h1v-1h1-1c1-1 1-1-1-2l-3-1c-1 1 1 2 1 2l1 1-18 5 7 1zm29-3h-3l-3 4 10 1-4-5z" class="st0"/>
  </g>
</svg>
