<?xml version="1.0" encoding="utf-8"?>
<!-- Generator: Adobe Illustrator 22.0.0, SVG Export Plug-In . SVG Version: 6.00 Build 0)  -->
<svg version="1.1" id="Layer_1" xmlns="http://www.w3.org/2000/svg" xmlns:xlink="http://www.w3.org/1999/xlink" x="0px" y="0px"
	 viewBox="0 0 306 304" style="enable-background:new 0 0 306 304;" xml:space="preserve">
<style type="text/css">
	.st0{display:none;}
	.st1{display:inline;}
	.st2{fill:none;stroke:#1E120D;stroke-linecap:round;stroke-linejoin:round;stroke-miterlimit:10;}
	.st3{enable-background:new    ;}
	.st4{display:none;fill:none;stroke:#000000;stroke-width:2;stroke-miterlimit:10;}
</style>
<g class="st0">
	<g class="st1">
		<line class="st2" x1="141.4" y1="296.4" x2="160.6" y2="315.6"/>
		<line class="st2" x1="166" y1="313" x2="158" y2="321"/>
		<line class="st2" x1="165.9" y1="316.8" x2="161.8" y2="320.9"/>
		<line class="st2" x1="165.1" y1="320.1" x2="167" y2="322"/>
		<line class="st2" x1="136" y1="299" x2="144" y2="291"/>
		<line class="st2" x1="136.1" y1="295.2" x2="140.2" y2="291.1"/>
		<line class="st2" x1="136.9" y1="291.9" x2="135" y2="290"/>
	</g>
	<g class="st1">
		<line class="st2" x1="160.6" y1="296.4" x2="141.4" y2="315.6"/>
		<line class="st2" x1="144" y1="321" x2="136" y2="313"/>
		<line class="st2" x1="140.2" y1="320.9" x2="136.1" y2="316.8"/>
		<line class="st2" x1="136.9" y1="320.1" x2="135" y2="322"/>
		<line class="st2" x1="158" y1="291" x2="166" y2="299"/>
		<line class="st2" x1="161.8" y1="291.1" x2="165.9" y2="295.2"/>
		<line class="st2" x1="165.1" y1="291.9" x2="167" y2="290"/>
	</g>
</g>
<g>
	<path d="M152.1,16c0-0.1,0-0.2,0-0.2l0,0c0,0,0,0.1-0.1,0.1c0,0,0-0.1-0.1-0.1l0,0c0,0,0,0.1,0,0.2c-3.8,7.3-94.8,177.9-91.6,177.8
		c4.3-0.1,8.7,0,13,0.3c1.7,0.1,2.3-0.8,3-2c4.5-8.4,68.9-128.7,75.7-140.9c6.7,12.2,70.6,132.5,75,140.9c0.7,1.2,1.3,2.1,3,2
		c4.3-0.2,8.6-0.4,12.9-0.3C246.1,193.9,155.9,23.4,152.1,16z"/>
	<path d="M213.5,194.2c-1.5-3.2-3.7-7.1-5.9-11c-1.2-2.1-1.5-2.6-5.8-2.6c-10.7,0-30.5-0.2-49.7-0.3l0,0H152h-0.1l0,0
		c-19,0.2-38.6,0.3-49.2,0.3c-4.3,0-4.6,0.5-5.7,2.6c-2.2,3.9-4.3,7.7-5.8,11c2.2,0,31.7,0,61-0.2
		C181.5,194.2,211.2,194.2,213.5,194.2z"/>
</g>
<g class="st0">
	<path class="st1" d="M151.9,86.7L151.9,86.7C151.9,86.6,151.9,86.6,151.9,86.7C151.8,86.6,151.8,86.7,151.9,86.7
		c0-0.1,0-0.1-0.1-0.1C151.8,86.6,151.8,86.6,151.9,86.7C151.8,86.7,151.8,86.7,151.9,86.7c-1.8,3.4-44,82.5-42.5,82.4
		c2,0,4,0,6,0.1c0.8,0,1.1-0.4,1.4-0.9c2.1-3.9,31.9-59.7,35.1-65.3c3.1,5.7,32.7,61.4,34.8,65.3c0.3,0.6,0.6,1,1.4,0.9
		c2-0.1,4-0.2,6-0.1C195.4,169.2,153.6,90.2,151.9,86.7z"/>
	<path class="st1" d="M180.3,169.4c-0.7-1.5-1.7-3.3-2.7-5.1c-0.5-1-0.7-1.2-2.7-1.2c-5,0-14.1-0.1-23-0.1l0,0c0,0,0,0-0.1,0
		c0,0,0,0-0.1,0l0,0c-8.8,0.1-17.9,0.1-22.8,0.1c-2,0-2.1,0.2-2.7,1.2c-1,1.8-2,3.6-2.7,5.1c1,0,14.7,0,28.3-0.1
		C165.5,169.4,179.3,169.4,180.3,169.4z"/>
</g>
<g class="st3">
	<path d="M58,239.8H42.8l-2.9,6.8h-5.3l13.3-30.1h5.2l13.2,30.1h-5.4L58,239.8z M56,235.3L50.4,222l-5.7,13.4H56z"/>
	<path d="M96.3,216.5V242h13v4.6H91.3v-30.1H96.3z"/>
	<path d="M159.1,226.8c0,6.8-4.3,10.7-11.9,10.7h-6.9v9.1h-5.1v-30.1h12C154.8,216.5,159.1,220.3,159.1,226.8z M154.3,226.9
		c0-4-2.6-5.8-7.3-5.8h-6.7V233h6.7C151.6,233,154.3,231,154.3,226.9z"/>
	<path d="M190.2,216.5v13.1h16v-13.1h5.1v30.1h-5.1v-12.5h-16v12.5h-5.1v-30.1H190.2z"/>
	<path d="M259.6,239.8h-15.2l-2.9,6.8h-5.3l13.3-30.1h5.2l13.2,30.1h-5.4L259.6,239.8z M257.6,235.3L252,222l-5.7,13.4H257.6z"/>
</g>
<g class="st3">
	<path d="M35.1,272.5h-8.8l-1.8,4.1h-2l7.2-16.1h1.9l7.2,16.1h-2L35.1,272.5z M34.4,270.8l-3.7-8.3l-3.6,8.3H34.4z"/>
	<path d="M72.4,260.5v1.7h-9.1v5.4h8.1v1.7h-8.1v5.6h9.4v1.7H61.5v-16.1H72.4z"/>
	<path d="M101.1,262.2c-2.1,0-3.4,0.8-3.4,2.2c0,4.2,9.1,2,9,7.8c0,2.7-2.4,4.4-5.8,4.4c-2.3,0-4.6-1-6.2-2.5l0.8-1.6
		c1.5,1.4,3.5,2.3,5.4,2.3c2.3,0,3.8-0.9,3.8-2.5c0-4.3-9-2-9-7.8c0-2.5,2.2-4.1,5.6-4.1c1.9,0,3.8,0.6,5.1,1.5l-0.8,1.6
		C104.1,262.6,102.4,262.2,101.1,262.2z"/>
	<path d="M140.6,260.5v1.7h-5.3v14.4h-1.8v-14.4h-5.2v-1.7H140.6z"/>
	<path d="M165.1,260.5v7.3h9.7v-7.3h1.8v16.1h-1.8v-7.1h-9.7v7.1h-1.8v-16.1H165.1z"/>
	<path d="M203.4,260.5v16.1h-1.8v-16.1H203.4z"/>
	<path d="M235.1,262.1c-3.6,0-6.6,2.8-6.6,6.4c0,3.5,2.9,6.4,6.6,6.4c1.8,0,3.5-0.7,4.8-1.9l1.1,1.2c-1.6,1.5-3.7,2.4-6,2.4
		c-4.6,0-8.3-3.6-8.3-8.1c0-4.5,3.7-8.1,8.4-8.1c2.2,0,4.3,0.9,5.9,2.3l-1.1,1.3C238.7,262.9,236.9,262.1,235.1,262.1z"/>
	<path d="M269,262.2c-2.1,0-3.4,0.8-3.4,2.2c0,4.2,9.1,2,9,7.8c0,2.7-2.4,4.4-5.8,4.4c-2.3,0-4.6-1-6.2-2.5l0.8-1.6
		c1.5,1.4,3.5,2.3,5.4,2.3c2.3,0,3.8-0.9,3.8-2.5c0-4.3-9-2-9-7.8c0-2.5,2.2-4.1,5.6-4.1c1.9,0,3.8,0.6,5.1,1.5l-0.8,1.6
		C272,262.6,270.3,262.2,269,262.2z"/>
</g>
<g>
	<g>
		<path d="M539,182.5c1.9,0,1.9-3,0-3S537.1,182.5,539,182.5L539,182.5z"/>
	</g>
</g>
<polyline class="st4" points="200.5,170 152.3,76 101.5,170 "/>
<line class="st4" x1="111" y1="170" x2="194" y2="170"/>
</svg>
