<svg xmlns="http://www.w3.org/2000/svg" id="Layer_1" version="1" viewBox="0 0 1818 493">
  <style>
    .st0{fill:#04e762}
  </style>
  <path d="M1457 474l7-3 2-1h3l1-1h1l6 1-4 1h6c2 0 6 0 4 2l-5 1h-1l-1-1v1l1 1h12l4 1v1l2-1c2 0 4 0 3 2l-6 1-7-1-7 1-5-2h-1c-3 1-6 2-9 1l-2-2c3-2-6 0-4-2zm279-102c-2-3-7-1-10-2 4-2-14-3 0-5 1 2 2 1 4 1 5 1 8 2 9 4s-2 3-3 2zm-201 80c6-1 8 3 13 2 3 2 1 3-1 4l-14-1-4-2c-4-3 2-2 4-3l1 1 1-1zm204-66h-9l-4-3h-1c-2-1-5-1-5-3h2c6-2 7 2 11 1 5 0 4 3 6 3v2zm-438-157h-2l-2 1-3-1-7-2c-1-1-4-1-3-2l4-1 15 1c1 1 2 2 0 3l-2 1zm427 100c-3 2-6 0-8-1l-2-1c-2-2-13 1-14-3l-6-1-7-2c-7 0-12-3-17-4l-6-2c-7 1-11-1-17-2l-6-2-8-1v-3h-8c-2-3-10-1-12-3l-1-1c-3 1-6 0-8-1-6 0-11-2-15-3l-8-2-6-2c-1-1 0-1 1-1l-5-1c-9 0-19-1-26-5l-5-1c-4 0-4-1-6-2l-10-2h-1l-7-1-7-2h-2c-2-2-4-3-9-3l-6-1-2-1-16-2v-1h-1c-7 0-11-2-15-3l-1-1-8-1-2-1-4-2c-7 1-11-2-17-3h-7c-2-5 3-3 8-2h1l3-1-4-2h-1v1h-4c-6 2-11 0-16-1l-1-1h-2c-4 0-6-1-8-3-2 0-3 2-5 0-8 0-14-2-19-4l-8-1-2-1v-2h-7c-2 0-2-1-2-2h-1l-8-1h-7c-6-2-13-3-11-7l-1-1c-4 0-6 1-7 2l-4-1-4-2-2-1h-1l-7-2 8-1h4-1 2l3 1 3 1c4 1 8 0 10 2 5 2 10 3 17 3 3 1 9 0 12 2h2l1-1c2 2 10 1 10 4 7 0 14 1 19 3l-1 1 1 2 2 1h4l3-1c2 1 2 2 1 3l2 1 2-1 1-2h4c0 1-1 2-4 2l1 1h12l29 7c14 1 22 6 34 8 6 1 12 1 16 4h2l8 1 7 1c3 1 6 1 6 3 4 2 11 2 16 3v1l7 1 10 3c9 1 16 4 25 6l6 1c5 0 7 2 10 3l6 1c7 1 16 2 21 6 6 0 12 1 17 3l8 2c4 0 10 1 13 3l11 3 18 3c4 0 7 2 8 3l9 1 5 2c3 1 8 1 9 3 3 0 5 0 6 2h5c1 1 6 2 3 3-1 2-5 2-8 2zm-170-46zm242 147c3-1 6-2 10-1l6 3c4 1 2 3 0 4-2 2-4 3-8 2l-7-3v-1c-2 0-7 0-2-3l1-1zm-640-47h-15c-1-1-2-2-1-3h12l-2-2 3-1 14 6h-1l-6-1v3l-4-3v1zm576 80c-2 0-4 0-3-1l5-1 4 1 1 1 1 1 1 3h-1c0 2-3 2-6 2-5 1-4-1-5-2l-3-1-3-2c3-1 7 1 9-1zm-62-100l2 1 4 2v2c-5 1-4-3-8-2l-6-2 8-1zm85 55v1l8-1h5c1 3-4 2-7 2v1c-6 2-9-1-14-2 1-2 6-1 8-1zm-57 36l6 1v2l-5 1-5-1c-1-2 1-2 3-3h1zm-30-3h-2c0-2 3-2 6-2h10l5 1 2-1 2-1 4 1 2 1v2h-12l-6-1h-11zm60-92c-2-2-7-1-9-2h1c3-3 6-3 12 0l2 1c-1 2-6 2-6 1zm-238 123h6l2 1-4 3-6-1c0-1 0-2 2-3zm-221-235l-7-1c2-4 6-2 10-1 1 1 1 2-3 2zm184 209l-4-2c2-2 4-2 9-1s-1 2 0 2l-5 1zm-17-20c-3-1-10 0-8-3h8c-1 1 2 2 0 3z" class="st0"/>
  <path d="M1509 474h-1c-2 2-4 2-7 2h-3l-1-1-6-1 3-1 4 1 8-1 3 1zm-453-190h-2l-4-2v-2l6-1h9c1 1 9 0 7 2h-12l-3-1c-1 2 1 3-1 4zm669 140h2l5-2c8 0-1 3 3 3 9 1 12 5 18 7l1 1h-1l1 3h-6l-3-1-6-1-1-4-9 1h-2l-2-1v-6zm20 11h-1 1zm-1-2l-1-2h-3l4 2zm-159 62c-1 3-5 2-8 2 1-2 4-2 8-2zm-155-67h2c2 2 0 3-2 5h-2l-1-3 3-2zm47 54l-7-2h7c1 1 6 2 0 2zm-380-227c-1-1-5-2-1-3l4 1-3 2zm583 192c0-2 1-2 4-2l2 1-4 2c-3 0-2-1-2-1zm-575-204h-1v-2l-4-2c-1-2 2-1 4-1l2 1v1c3 1 5 3-1 3zm-69 33v1l-2 2-4-1 2-2h4zm169-15h-3l-6-2h4c3 0 4 0 5 2zm-81 96h4c2 1 2 1-2 1l-1 1c-4-1-3-2-1-2zm607 101c2 0 5 0 5 2-7 0-7 0-5-2zm-12-106h-11l-2-1-6-1c-2 0-3-1-3-2h-2l-4-2h10l4-1 4 2c1 1 6 1 6 3l2 1s4 0 2 1zm-286 86l-1-1c11 3 11 3 4 7l-2-4h-4l-3-1h-3l-5 1-1 1h-2l-1 1 6 1c-3 2-5 1-8 0l-5-1v-1l2-1 8-1 1-1 6-1 3 1h5zm3 12l-2-1 4-2c1 1 2 2-2 3zm361-22c1-2 4-1 7-1h2c-2 1-5 2-9 1zm-284 32c1 0 0 0 0 0-2 1-5 1-5-1h2l3 1zm2 28v1h-6l6-1zm202-27c2 0 0 1 0 1h-4v-1h4zm-627-120l-4 1v-2c2 0 5 0 4 1zm-104-74c2 0 5 0 4 2h-4v-2zm220 114v2c-3 0-6-1-2-2h2zm-91-32c-2 0-3-1-3-2h3c1 1 3 2 0 2zm-100-73c-2 1-4-1-4-2h4c1 1 3 2 0 2zm26 102l7 2-2 1-6-2 1-1zm524 114c2 0 4 1 3 2-2 2-5 0-7 1-1 1-1 3-5 3-2-1-1-2-1-3v-1l3-1c1-1 4-2 7-1zm-10 2h-1 1zm-94-49c-3 2-6 1-8 0h8zm-359-191h3c3-1 6 0 7-2h6c0 1 6 3-1 3l-2 1-6 1c-6 1-5-2-7-3zm13 4l4 1h2l2 1v1h-6l-4-1-2-1v-1h4zm211 177h4c3-1 5 2 9 1l1 2c3 1 5-2 9-1v1l4 1c3-2 5-1 8 0l9 1v1h-2l18 6v3h5l-3-3h1l-2-1c1-4 3-4 11-2l3 4 7-5 2 1 1 4c-2-1-4 0-5 1l3 1-1 2c3 2 7 2 11 2h2c3 1 6 1 5 3-1 1 1 1 3 2 5-2 3 0 4 1h17l6 1h-1v1l1-1c2 2 5 0 7 0 7 2 1 4 0 6h-4l-3 1-1-1-3-1-4 1h-13c2-1 1-1 1-2l-2-2h-9c-3-1-1-1 0-2l-1-1h-16c-2-1-2-2-2-3l-2-1v1l-4-2v-1h-9c-4-3-10-2-15-2h1l-9 4-2-1 2-3-8-2-11-2c-2 1-5 0-6-1l3-1 3 1 4-2h-2v-2c-2-1-4-2-4-4l-3 2 3 4c-4 0-9 0-11-2l4-2v-1l-9-1c-1 2-3 2-4 1 0-2-3-4-7-4 1-2 4-1 6-1zm124 28h-3l1 1 2-1zm-48-10h-1 1zm18 5h-1 1zm-27-11h-2l6 2 1-1-5-1zm-8 3h-1 1zm125-1l3-1c4-1 6-1 9 1 4-1 7 0 11 1v2l-12-2-9 2-4-2 2-1zm146 8l10 3h8l2 1 4 2v1c3 1 3 3 1 4h-7c-3-1-1-2 0-3l-6-1-3-2h1-5c-11 0-6-3-5-5zm-1 7l-6 1 2-3 4 2z" class="st0"/>
  <path d="M1077 385c5 0 8-2 13-1l4-1 7 1 1 1 1-2c4 0 7 0 8 2h5c1 1 1 2-1 3l-4-1-3 1 1 1 1 1-1 1 3 2h3v-1l4-1 1-1 1 1v-3c1-2 4-1 7-1 1 1 1 2-2 3l-1 1h-1 22l8 4h4c5-2 7 0 11 1h2c5 0 10 0 14 2l4 1 2 1 13 4v1l-4 1c0 1-2 2 0 2l6 1c2 0 5-1 5 1l7 1h8c4 1 5 3 6 5l4-1h-1 1c1-1 1-3 6-2 2 1 7 2 9-1h2l2 1 4-3-12-5h2l-1-3-4 1c-5-1 0-2 0-4-6 1-8 1-11-1h-4l3 4-7-3-5-3v-3h-1l-2 1 3 2-4 5-2-1h-10l-6-1c-2-1-2-2-1-3l5-2-16-4h-1l-3-1 1 6c-9-1-1-7-12-7l-4 4h-2v-7l12-1c-4-3-3-6 2-7l-2-3v-1h2l2-3c2 0 3 2 4 0 2-3 5-1 8 0 5-1 5-2 2-4h-18l6 1-9 3-5-3-6 1-1-1 9-3 3 1c0-2-2-3-5-4l-2 2-3 1-4-1-2 1-4-2 6-2c3-2 6-4 12-3l5-2h1-1v-1h-17c2 3-5 4-7 6l-5 3h3c2 0 3 1 2 2v1l2 2h3v2h-4l-3 1-2 1c-7-1-14 0-19-2v-3l8 1h1l12-2h-2c-2-1-6 0-7-2h-11c-2 0-6 0-3-2l2-1 4-1 3 1-2-1 2-1h4l1-3 1-2c3-2 8-2 13-2h12l5-1-4-1h-3l-11-3-1 1h-1l-6 1-2-1-2-2 3-1-12-2v-1 1l3 2 2 1v1c-3 0-5 1-5-1l-2-2-6 1c-1 0-2 2-3 0 0-1-1-3 2-4h3c-1-1-2-1-1-2 4 1 8 2 7-2l-10-2-5-1-5-2-1 1-14-4-2-1-5-1-2-1-27-8h6c0-1-4-1-2-2l7 1 1 1 8 2h5c-1-2-5-1-7-2s-5-1-2-2l22 5h2-1l-2-1-19-4 2-1h3l14 3-6-2 10 1 10 3 2-1c-4-1-4-4-10-4-5-1-5-4-10-5l2-1 11 2h2c2 1 4 1 3 2h1c5 1 12 1 16 3l4-1c3 0 1-1 0-2s-7 0-6-2l1-1 4-1s1-1 0 0l-17-5 2-1c9 0 18 1 27 4h9l-7-1c-3-1-2-2-1-2l-2-1-1-1h-8l-12-4 2-1h2l4 1-3-1-7-2c-2 3-7 2-11 2-4-2 1-2 2-2 1-1 0-2 2-2h-6l-2-1v-1l-4 1-1 1-6 1-2-1-12-2c-4 0-6-2-9-3h-2v-2c0-2 3-2 6-3 0-2 1-3 4-3l2 2c2 0 5 0 4 1h-7l-2 1 1 2h11c0-3 2-4 9-2l-3 2v3l1-1c4-1 7 1 10 1 1-2 3-2 5-2l-2-1-5-1-4-1 1-2 8 2 15 3 2 1 15 3c0-2 2-3 4-4l7 1 5 2s1 0 0 0l10 1c-3-2-1-4-3-5v-1h-3l-2 1h-7c-1-2 2-2 4-2h-1l-5-2-6-1h-4l-3-2-2-1c-3 1-6 0-8-1l-2 1h-13c-1 0-4 1-4-1l4-1h2l5-1h-1l-4-2-1 1-6-2-17-4-11-3-20-5-18-4 2-1 26 5c4 1 9 1 11 3h1l22 5 19 4 5 2 18 4v1h3l5 2h3l4-2-9-2 3-2-4-1-4-1-4-1-20-4-9-2h-1l1 1h-11l-2-1c-2-1-2-2 0-3h1l5 1h2l-3-1-1-1 6 1 6-1 5 1-4 2 8 2c6-1 10 0 14 1 0-2-7-2-8-4l-2 1-4-1 7-1-6-2-2-3c0-1 0-2 3-1h1l2-1 1-1-7-2-9-3 2-1c-4-1-7-3-11-3-2-1-6-1-4-2l1-1 16 5h1c3 1 8 1 11 3l4 1 13 3h2l8 2 5 1 9 3 8 2 4-2h2c6 0 7 2 9 3l-2 1h-3l6 1v1l5 1h17l6 2c4 1 8-1 10 2 2 1 6 0 7 2l4 1h4-1l-12-3c-2 0-4 0-2-2h1l3-2 3 1 1 1h2l-6-2-3-2-4 1c-5-1-3-3-4-5l-1-1h-2l-12-1h-5l-7-2c-3-1-1-1 0-2l3-1 8-1 2-3h3c2 0 5 0 6 2 0 2 2 1 4 1v-1c1-2 3-4-1-5l-5 1-8-2h1l-1 1c-1 1 1 2-1 3h-4l-3-1h-1c-2 1-3 3-7 2l1 1v1l-3 1 2 3c-1 1-1 2-3 2l-3-1-4-2c0-2 2-2 4-2l-2-1-3 2h-3c-3-1-1-2-1-3 3 0 0-1 0-1h-1c-1-1-2-2-1-3l-9 2c-2-3-10-2-14-3-4 1-4-3-8-1v-1 1c-4 2-9-2-13-1l-15-2h-8c-2-3 6-2 6-4h4l1-1c-1-1 0-2 1-3h1l4 2v1l-3 1h4l3-1 4 1 1 1 3-1 2 1h7l3 1 3-1c0-1 0-2 2-2v-2c1-1-5-3 2-4l29 6-1 1h1v-1c7 0 14 2 20 4h4c5 2 12 3 19 2v1l7 1 2 1 6 1c4 1 2 2 0 3l-4 2h-4v-1h-2l-1 1-1 2h8v-2l4 1h2c-1-1 3-2 0-3 0-1 0-2 2-2l9 2 2 1 5 1h8l6 1 1-1c3 2 5 4 11 4l10 2 8 2 1 1c0 1 1 3-1 3l1 1-1 1 2 1h6l1 1h4l3 1c4 0 6-1 4-3h-3l-1-1-5 1c-3 0-6 0-6-2v-3l4-1 8 4 7 1 4 1c4 0 8 0 11 2l-1 1h2c2 1 3 1 2 3 2-1 7 1 7-2l4 1c3 1 8 0 12 2l-1-1c3 1 6 2 10 1l-3-1h-1c-4 1-6-1-7-2l-1-3h-1l-6 1h-6l-1-1h-1l-8-1h-1c-3 0-7 0-9-2h-1l-4-2h1l-9-3-2-2-3 1h-9c-3-1-6-2-7-4h-1c-3-1-7-1-7-3l-2-1h-10l-3-2h-1c6-1 9 1 14 1h10c1 2 6 3 6 5h5l5 1 3-3c4 1 4 3 8 3l10 2 5 1h2c2 0 3 1 3 2l6 1 4-1 2 1h4l2 1 10 2h1l-1 3h-1 1c4-1 9-2 13 0l6 1 4 1c4 2 13 2 14 5h2l1 1c3 0 7 0 8 2l6-1c2 1 5 1 2 3-4 1 2 0 2 1h7c5 0 9 2 14 0l2 1 2-1-1-1h-7c-2 0-4-1-3-3l3-1h-6c-6 2-8-1-12-1v-2l-3-1c-1-2-2-3-6-2l1 1c-8 4-9-1-13-2h-3l-6-1v-1h-10l-7-2-1-1h-2c-2-1-7 0-8-2l-3-1-4-1h-2c-3 0-4-2-6-3h-6v-1h-11v-1l-2-1h5l-4-2-7-1-5-1v-1c-5 1-8 0-8-2h-2c-5 0-9-2-13-1l-2-1h-6c-3-2-4-5-12-4-3-1-3-2 1-2h17l4 2 6 1h1l8 1 4 1v2c3 1 8 1 9 3h8l2 1 7 1c5 0 6 2 10 3 8 0 14 2 20 3h-1v1l1-1 15 4c6 0 11 1 14 3 8 0 13 2 19 4l15 3 15 4c6 0 10 0 12 3 9 1 18 3 25 6l3 1c5 0 10 1 13 3 6 0 11 1 16 3 3 0 6 0 7 2h2l6 1 2 1c5 1 9 3 11 5l15 2 15 4 8 2 5 1 12 3c4 0 6 2 9 3l4 2h7c4 1 4 3 6 4l9 2 6 1h3c6 0 8 3 13 3h2c7 0 6 3 10 4 5 1 13 0 16 3 5 0 9 1 11 3 5 0 5 2 4 3-2 2-5 1-8 0l-7-3-6-1h-12v-1c-3 1-7 0-8-2h-2c-4 0-7 0-9-2l-5-2h-7l-2-2h-5c-1 0-4 0-2-1l-3-1c1-1-2-1-2-1l-6-1h-3l-3-1v-1l-3-1h-5l-5-3h-7l-4-1-3-1c1 1 1 2 3 2 3 0 2 1 2 2h2c0 2 4 2 7 2 0 2 5 2 6 3v1h2l5 2h1v-1h3c7 0 14 1 18 3l3 2 4 2 5 1h6v1l8 2 5 1 1 1c3 1 12 0 11 4l-10 1h-3c-6 1-5-2-6-3h-9c0-3-6-3-9-4v-2h-4l-6 1c-3 0-7-1-8-3h-1c0-1-2-2 0-3 0-2-3-2-6-2-2 1-2 3-6 4v2h2l10 3 4 1c2 1 0 4 6 2h6l1 1v1h8c2 0 4 1 3 2h2v1h1l4 1c2 2-3 1-7 2l-1-1v1l2 2 2-1 4 1h4c2 1 2 3 4 3l4 2c4-3 4-2 7-1l-4 2h2l6 1h4l7-1 2 1 1 1c2 0 3 1 3 2h1c2 0 2 1 2 2 0 3-5 4-12 3l-3-1-14-4v-1c-1-1-8 1-6-2-10 1-6-3-10-5h-1c-5 0-10 1-12-2h-7l2-3-4-1h-6l3 1c2 0 5 0 4 1-1 2-4 1-6 0 0 2 5 3 3 4l4 1h4l7 2 8 3 1 1h3l6 1v1h1l6 1v1h2l16 5-1 1-7-2-14-3h-1l-2-1-14-3-1-1-9-2-12-1 1 1 8 2 6 1c4 0 5 2 2 3-2 1-4 0-4-1h-6l-1 2h4v1c2 1 2 3 0 4-1 1-1 2 3 2l5 2c2 1 1 1-2 1l-19-2-9-1v-1l-3-1h-3c-4 1-5 2-1 3l4 2 1 1h11l1 1h3l2 2v1l8 3 4-1 2-2h11l-1-2-4-1-1-2 4-1 2 1 1 2h9v1c2 0 6 0 5 2h-1l2 1v2c-4-1-8 0-10-2h-2l-1 1 3 2 6 1 2-1 7 1c0 1 1 1-1 2h-6l-2 1 2 1 10-1 1-1h2l4 2v1l2 4 2 1 2 1 2 1 7 1c6 0 9 1 8 4v1c4 1-1 3 0 4h2l4 1c-3 2 9 2 3 4l-2 1-4-1-5 1c0 1 0 2-2 3l-6-1-3-1-10-3c-1-1 0-2 4-2h3l-3-1h-6c-3-1-10 0-12-2l-5-1h-4c0-1-2-2-5-2h-6l-2-1-8-1-8-2c1 2 0 3 2 5l2 1 11 1h1c4 1 11 0 10 4h3c4-1 6 2 9 1l1 1 5 1c6 0 6 3 10 4 7-1 11 2 17 3l-8 1h-6l6 2 6 2-2 1v1c-4 1-4-2-7-2l-2 1c-2 2 0 5-8 4h-2c-2-1 0-3 0-4-4-1-7 0-10 1l-5 3 5 1c3 0 5-2 8 0v4h-4v1h3l3 2h-6c3 1 8 1 11 3h-11c-5-1-11-1-15-3l-10-2h-3l-8-2c-1 2-2 3 2 4l2 1h1l2 2 4 1c-2 0 6 4-4 3l-3 2v-4c-2-1-4-1-4 1h-2c-3-1 0-2 0-3h-2c-3-2-8 0-11-1h-5l-10-1-3-1-1-1h-3l-2-3 3-1c0-2 7 0 6-2l-4-1-1 1-6 1h-4v-2c-6-2-12-2-20-2l7-3-7-2h-2l-7-1-10-1c-2 0-5 1-8-1l-3 1h2l3 1h1l8 3 1-1 4 1 2 1c-1 1 1 2 2 2l-3 1c4 0 5 3 11 1 0 2-3 3-6 3 3 1 5 2 4 4l6 1h7l2 1h1c4-1 6 0 7 2l10 3c-4 1-7 5-12 1l-6 2 1 1c6 1 9 2 5 5v1l10-1 2-1c-1-2 2-3 3-4l2-1 4 1 2 1h2c-1 2 1 3 4 4h2l7 1-4 2h-6c-8 0-5 2-3 4 0 2 6 2 5 4-3 1-6 2-7-1l-8 2c2 2 1 3-3 2h-10l-8-1c-8 0-9-3-13-5h-8c-2-1 0-4-6-3h-1l-3-1v-1h-3l-1 1h-3c0-2-4-1-7-1l-6-1v-1l2-1-1-2h-8l-2-1h-2c-5 1-5-1-7-2l-2 1c-2 0 1-2 0-2h-4l-5-4h-1c-5-1-12 0-15-3-1-1 0-2 1-2h-9l1-2c2-2 1-3-5-2h-5l-7 1-2-2-2-2h-2c-5 1-10 1-15-1h-4c0 3 3 5 0 7 4-1 7 0 10 1l1 1 4-1h4l2 1 3 1 2 1v2l3 1c-1 0 4 0 2 1 0 3-2 3-6 2v-1l-2-1-3-1-5-1-7-1-1-2h1c-1-2-4-1-6-1h-2v-2l-6-2-2-1h-1v1h-4c-3-1-7-1-10-3h1c-1-2 3-1 5-2l2-1h8l1 1 1-1h5l5-3h-2l4-2v-1h-7c-1 3-3 3-7 1h-8l-6-1v-2l-6 1h-4c-2 1-3 0-4-1l-1-2 3-2-1-1h-12l-2 1h-1c-3-1-10-1-8-3 2-1 2-2 0-3h-1l-2 1-12-1-7-1c-2-1-1-2 0-3h-2l-1-1-2 1-6 1c-7 0-2-3-4-4h-2l-10-1v-1h-9l-2-1c-2-1-5-1-4-3h-2c1-1 1-2-2-2l-5-1c0 1-1 2-4 2l-4-2-6 1-4 1-6-2 4-4-3-1v-2l-1-1h-1c-1 2-2 4-8 4h-12l-2 1h2l1 1v1c3 0 4 2 7 3 2 0 4 1 2 2-8 1-4-3-9-3l-1 2-4-1-3-1-1 1-13-1h-2l2 3 6-2 3 4 8-1 2 4h1c7-5 7-5 18 0l-4 2 5 1 16 4h3l2 1c1 3-4 3-9 2h-4c-1 2-4 1-6 1-4-1-6-2-6-4v-1c-4 1-8 0-11-1h-6c-1 2-5 3-9 2-6 0-13 1-18 3l1 1 1 1v-1c7 1 12 0 17-2h9c-2 4 2 5 9 5v-2l-8-2 12-2-1 2 7 8-2-6 13 2 5-2h4c0-2 4-3 4-3 3 2 10 2 10 4 2 0-1-2 3-2l6 1 6 1 2 1h1c4 1 8 1 9 3 2-1 4 0 5 1 0 3-8 1-10 2h-4l-2 1h-3l-4-1-1-1c-1-1 0-1 2-1l1-2 2 1v-1h-4l-3 1h-1l-5-1h-4c-4 1-5-1-8-1l-2-1-6 1c4 1 4 1 3 2l-3 7-3-2-4 2 4 1h7v3c3 0 0 1 0 1-4 0-5 2-7 3l-3 2h-4c0-2 3-2 4-2l1-1c4-1 0-2-2-3h-1c-2 0-2-1-2-2l-6 1c-2 0-2-1-1-2l-8-2 1 1h2l2 3v1h-3c-3 0-4 3-9 1h-6l-3-1c-2-1-8-2 1-2l3-1-5-1c-6 1-11-2-17-1l1-2c-8 0-14-3-21-4l-2-2h-2c-10 0-16-3-25-5h-3c-1-1 1-2 3-2l-2-1h-3l-4 1-8-1-3 1c-4 0-7-2-9-3s-6-1-6-3l7-1h-1 4l-2 1h1v2h5c-2-1-1-2 2-3l-4-2h-6l-2-1-4-1v-1l-6 1 2 1-1 2-7 1h-2l-2-3 1-1-6-2h-1l-2 2h-2l-4 1-5-1c-1-2 1-2 3-2l3-1-3-1v-1h-10c1 2-3 2-5 2h-2l-9-1c-3-1-6-1-7-3h2-1l-7-1v-1l-3-2 1-1 2-2h-1v-1h-3l-10-1c-6 1-11 2-16 1l3-1zm33-56h1-1zm93-85l-4 1h-1l4 2 4-1-3-2zm-28-2h1-1zm-19 4v1-1zm294 184v1l3 1v-3l-3 1zm-203-32l-1-1-2 1h3zm-22-4l1-1h-2l1 1zm-18 1l4-2v-2c-1 1-5 2-4 4zm1-4l1-4c4 1 4 2 3 3l7 1v-2l3 2c2 0 4 0 4 2h8l11-4 1 3 6-2c2-1 5 0 7 1l-1-1h1l4-1 3 1 3 1c0-2 1-2 4-2l6-1h6c-1-1-3-1-2-2l2-2h-2c-7 2-13 2-19 0l-1-2h-9c2 1 2 2 1 3l-7 1c-2 2-4 2-7 1l-4-2-2 1-2-1c-3 1-4 3-10 2 1-2 4-2 8-3h6l2-1-2-1-1-1-6-1h19l-2-1c-2 1-5 0-8-1l-1-1h-1c-1 1-4 2-7 1h-4v2h-7c0-2-3-2-7-2l-4 1c-2-2-3-1-4 0h-6l2 1c-3 4-2 8 8 11zm175 10l-3-1 1 1h2zm164 47l6-1h-7l1 1zm142-57c1 0 0 0 0 0zm-47-12l-2 1v1h2v-2zm-21-15c1 0 0 0 0 0zm-274-93l1 1v-1h-1zm-135 105v1h6l5-1 1 1v-3l6-2v1-1h-2c-5 1-7-1-10-2h1-1c-2 0-2 3-6 1l-1-1h-7l-6 2v1l1-1 6 1c2 1 1 1 1 2 2-1 4 0 6 1zm180 27v-1h7-3l-3-1h-1l-3 1v1h3zm166 42h6l1 1h2l1-1-6-2v-1l3-3h-6l3 1c0 1 0 2-2 2h-3c-1 1-2 1-1 2l1 1h1zm25-7v-2l-4 2 4 1 2 1h1l-1-1-2-1zm-388-160l-2-1v1h2zm35 95l-1 1 2-1h-1zm255 50l1-1h1-4l-1 1h3zm75 12l6 1h4c-1-1 0-1 1-2l-3-2h-2c0-1-1-2-4-2v1l3 1h-5l-3 1-3 1-1 1c3 0 2 1 2 2l2 2h3c-2-1-2-2 0-4zm25 8l-5 1h10l-5-1zm-79-141l-7 1 5 2h8v-2h-1l-5-1zm-27-17v-1l-8 2h6l2-1zm-63 1h-4l-6-1v1h2l1 1 6 1h4v1l4 1h3l2-1h8l2-1-4-2v1l-13 1-5-2zm-128 92l-2-1-2 1h4zm341 37l2-1v-3h-10v1l2 2 4 1h2zm-408-125h-1 1zm347 69l-1-1 1 1zm-45-18h-1 1l3 1v-1h-3zm101 55h1-1zm-165-96h-1 1l2-1h2l2-1-6 2zm56 12h1l-1-1v1zm6-1l-2 1h5l2-1h-5zm68 99l2 1-2-1zm-141-118h2l-2-1-1 1h1zm23 4l1-4-2 1c2 1 0 2 1 3zm44 15l2-2v-1h-4c0 1 0 2 2 3zm29 4v2l-2 2v1h9v-1h3v-1c-3-1-10-1-8-4l-2 1zm21 3l-5 1-4 1c1 2 5 2 8 2l3-1c-2-1-2-2 1-3h-3zm16 12l3 1 2-1h-5zm85 91l-1 1h1v-1zm-231-129l-1 1h2v1-1h3l-2-2h-2v1zm154 33l-1-1 4-1-8-1c2 1 1 2 3 2l2 1c2 1 2 2 0 3v1l1-1 2 1c2-1 4-2 6-1l3-3c-4 1-8 2-12 0zm-340 46l4 2 4 1h1l3-2h1l-4-1h-5l-1-1h-3l-5 1h5zm-75-79h-1 1zm309 4l-2 3 2 1c0 2-3 2-6 2h-2v1h2c3 0 4 2 8 1l2 1h6l-3-1-2-1c-2 0-4-1-3-3l4-1v-2h-1l-5-1zm155 109zm-99 33l7-1 1-1-1-1h-4l-10 1 7 2zm-342-78l3 1 2-1h-1 1l-5-1v1zm193-78l4 1 4-1-9-1v1zm9-5l1 1 1-1h-2zm14 3l-4 2h2l2 1 4-2-1-2h-3v1zm207 56h-2c1 1 1 2-1 2h-3c-3-1-3-4-10-3h-3l17 5 2-1h2l-1-1v-2h-1zm29 59l-2-1h-10v1l1 1c0 2 1 2 2 1h3l6 1 2-2-2-1zm-53 47h1-1zm-135-26l-1 1 3 1 2-1h1l-5-1zm-13-1l-1-2-4-1h-1l-1 1 7 2zm-73-16h2-2zm-38-10h1l-1-1-3-1 3 2zm-142-16l-3-2-3 2h6zm193-97l-1 2h3l3-1c-1 0-2-1-1-2l-3 1h-1zm147 27h3l4 1h6l4 1c1 0 9 0 1 2h10l6 1c-3-1-5-1-4-3h-3l-11-1v-4h-3v-1l-1 1h-13l2 1c1 1 0 2-1 2zm93 36l-1 1-2 1 6 1h1v-1c-1-1-2-1-1-2h-3zm39 48l1-1-2-1-3 1 4 1zm-15 38l6 1-6-1zm-160 1l-1-1h-2l5 2-2-1zm-311-66h2c1-2 4-2 8-2l2-2-6-2-1 1c-2 2-5 1-7 0 2 2 3 3 2 5zm-35-25h1-1zm-21-46h-4 1c2 0 3 1 2 2h2l1-2h-2zm7-25c2 0 5 1 6-1v1l-6-1v1zm4-7h-4l9 2v-1l-4-1h-1zm90 2l1-1h-3l2 1zm55 6l-6-2-2-1c-3 0-6 0-7-2h-8v-1l-7 1-10 1h2c3 2 7 2 11 1l5-1h1v3l10 2v-2c2 0 6 0 5 2h-5v1h7l3 1h1l4 2h5l1-1c5 0 9 0 11-3l-4 1c-3 0-7-2-11 0-1 1-6 0-4-2h-2zm71 9h1v-1l-1 1zm23 2h-2c-3 0-7 0-10-2v1h-3l1 1 2 1h7l2 2h3c0-1-1-2 2-2l-2-1zm-14-9zm33 6h4-1l2-2c-3 0-5 0-5 2zm117 20l-10-3h-1l-8-1c-2 0-5 0-5-2h-2v1l5 2 4 1 4 1 4 1h2v1l4 2h7l3 1 5 1 3 1h7-1l1-2-4-2h-1c-5 0-8 0-9-2h-8zm144 50l-1 1h3l-2-1zm20 43h2-2zm12 11l-3-1v1h3zm9 18h-3v1l-3 1h-1c3 0 4 1 5 2l-1 2 2-1 2-1 2-2-1-1-2-1zm-25 15l-2-1h-1l3 1zm-86 3h3-3zm18 10h-2v1h9l-1-1h-6zm-4 13h5l1-1-5-1-6-1h-2v1c3 0 6 0 7 2zm-81-16l3-1c0-1 2-2 5-2l1-1v-3l-6 1-4 4h1c1 0-3 2 0 2zm-12-11l7-2h-1l-5-1-3 1v2h2zm-9 1l5 1 2-2c-3 0-4-1-5-2h-3l-2 1c-2 0-2 1-2 2l1 1 4-1zm-210-22v-1h1l1-2-1-1-1 1-1 2 1 1zm17 14l-11-1-1-1c-3 0-7-2-12-1l15 5 4 1h6l-1-3zm-44-2l-1-2h-1v2h2z" class="st0"/>
  <path d="M1220 410v-2l4 1-4 1zm210 35h2c0 2-1 3-5 2l3-2zm59 14h-12c1-2 5-2 8-2s4 1 4 2zm-6-5l2 2c-3-1-8 0-10-2h-2c-2-1-3-2-1-3-4-1-7-1-10 2l-1-1 2-5 11 3h1c1 1 5 1 4 3l4 1zm79 6h4l-2 1c-3 2-6 1-9 0h-1c2-2 5-3 8-1zm-8-3h5l-4 1-1-1zm-58 4v-1c2-1 4-2 6 0 0 0 2 1 0 1h-6zm293-35c2 0 4-1 5 1-2 1-4 2-6 1s-2-1-1-2h2zm-272 61c4 0 6 3 11 1h10v1l8 1 6 2v1h1l-4 1-3 1-2-1c-3 2-5 1-8 0-2-2 8 0 4-2l-4-1-2 1h-2l-3-2-4 1c-7 1-3-3-8-3 0 0-2-1 0-1zm-7-6h1l4-1 6-1h6l4 1v4c-5 3-8 1-12-1-5-1-9 2-14 0l5-2zm173-130l4-2 4 1c-2 2-5 0-8 1zm95 73l-7 1-1-1 1-1c2-1 4 0 7 1zm-629-141l-4 1v-2l2-1c1 1 3 1 2 2zm152 150c3 3-3 1-6 2 1-2 4-2 6-2zm-158-194l-11-1h-1c-1-1 0-2 2-3h10c1 1 5 3 0 4zm427 224c0 2-3 2-6 3-2-3 2-3 6-3zm93-95c1-1-1-2 1-3l3 1-1 3-3-1zm41-14c-1 1-3 2-7 1 2-2 5-1 7-1zm-563 29h-4c-1 0-3-1 0-2l4 2zm367 98l-6-2h-1l1-1h4c2 1 2 2 2 3zm-89-45l-8-1 4-1 7 1-3 1zm-205-51l-1-1 4-1c1 1 1 2-3 2zm392 50v-1c-5 0-6-2-6-4 3 1 7 0 7 2h2l1 2v2c-4 1-2-1-4-1zm-230-21s1 0 0 0v2c-5 2-5 0-6-1l6-1zm12 15h-1l-2 2v1l-17 4v-5h-1l1-2-3-2-4-3 13 1 7-1h-1l4 2 3-1c5 2 3 3 1 4zm14-3c-2-1-1-1 0-2l4 1c1 0 2 0 1 1h-5zm36 3h4l-2 1-2-1zm-13-4v1l-1 1h-5c-2 0-3-1-2-2h8zm-116-27l7 1h3l8 5 1-2h3c4 1 1 3 2 5-1 1-1 2-3 2-4 1-6 0-8-1h-1c-3-1-2-2-1-3l-3-1c-3-1-5-3-10-2l-9-2v-1l3-1h1v-1l-3-1 3-2 5 1v1l2 2zm-16-6h6v2c-4 0-6 0-6-2zm100 29h-1c-4-3 1-4 4-5l2 1v1l-4 3h-1zm-11-8l4 1c-2 0-1 1-2 2h-1c0-1-4-2-1-3zm-13 0l-1-1h-10c-4-1-11 1-15-2l-2-1c-2-2 1-2 4-2h2-2c-1 0-5 0-1-1l9-1 1 1v1l10 2h7v1h1l-3 3zm-328-56c11 5 11 0 14-1l-7-2 18-2c7-3 11-1 16 0l8 2-8 4c15 0 2 5 6 6h8l-6 2v1h18l-17 5-1 3-9-2c-4-2-13-1-11-6-6 0-13-3-18 1l-7-2-4-9z" class="st0"/>
  <path d="M1334 431c10-1 17 1 19 5-9 0-18-2-19-5zm-213-53c8-5 11-5 20-1h-8l-2 1-3-1 3 5-10-4zm289 57l1 1-1 2-1 1-2 1-7-1c-4 0-4-1-5-2h-5c-2 1-6-1-8-1l-1-3h4l2-2c7-3 8-3 10 1l4-1c2 0 5-1 6 1l-1 1h2v1h2v1zm43 16l-12-5h-1v-1c0-1-1-1 1-2l3-1c2 1 0 2 0 2l-2 1 18 5-7 1zm-29-3h3l3 4-9 1 3-5zM961 376l6-3 3-1h4v-1h1l6 1h-4l6 1c3 0 6 0 5 2l-5 1-2-1h-1l1 1v1h12l4 1v1l2-1c2 0 4 0 4 2l-6 1-6-1h-7l-7-1h-10l-1-1c3-2-7 0-5-2zm279-102c-2-3-7-1-9-3 3-1-14-2 0-4l3 1c6 0 9 2 10 4 0 1-3 3-4 2zm-200 80c6-1 9 3 14 2 1 2 0 3-3 4-4-1-8-2-14-1l-4-3c-3-2 2-1 4-2l1 1 2-1zm203-66l-8-1-5-2h-1l-4-3h2c5-2 6 1 11 1 4 0 3 2 5 3v2zM806 131l-1-1-2 1h-6l-5-2-4-2c1-1 3-2 5-1 4 1 9-1 14 1 2 1 2 2 1 3l-2 1zm427 100c-4 2-6 0-8-1l-2-1c-3-2-14 1-15-3l-5-1-8-2c-7 0-11-3-17-4l-6-2c-6 1-11-1-17-2l-5-2-8-1c-1-1-1-2 1-3h-10c-2-3-9-1-12-3l-1-1c-3 1-5 0-8-1l-15-3-8-2-6-2 2-2h-5c-10 0-19-1-27-5l-5-1c-4 0-4-1-6-2l-10-2h-1l-6-1-7-2h-2c-3-2-5-3-10-3l-5-1c-2 0-2-1-3-2l-14-1-1-1h-1c-7 0-12-2-16-3v-1h-1l-7-1-3-1-3-2c-8 1-12-2-18-3h-7c-2-5 3-3 8-2h2l2-2-4-1v1h-5c-6 1-11-1-16-1l-1-1h-1c-5 0-7-1-9-3-1 0-3 2-5 0-8-1-14-2-18-5h-9l-2-1v-2h-7c-2 0-2-1-2-2h-1l-7-1h-8c-6-2-13-3-11-7l-1-1-7 2-3-1-1-1-4-2h-2l-8-2 8-1h5l3 1 4 1c3 0 7 0 10 2 5 1 9 3 16 3 4 1 9 0 12 2h2l2-1c1 2 9 1 9 4 7 0 15 1 20 3l-1 1 1 2h1l1 1h4l4-1c2 1 1 2 0 3l2 2 2-2 2-2h4l-4 2v1h11l29 7c15 1 23 6 35 8 6 1 12 1 16 4h1l8 1h1l7 1c2 1 5 1 6 3 3 2 10 2 15 3v1l8 1 10 3c10 1 17 4 24 6l6 1c5 0 8 2 10 3l6 1c7 1 16 2 22 6 6 0 12 1 17 3l8 2c5 1 10 1 12 3l11 3 19 3c3 0 6 2 8 3l8 1 6 2c3 1 8 1 9 3 3 0 6 0 6 2h5c1 1 5 2 3 3-2 2-5 2-8 2zm-171-46l-1-1 1 1zm242 147c3-1 6-2 10-1l6 3c4 1 2 3 0 4-2 2-4 3-8 2l-7-3v-1c-2 0-7-1-2-3l1-1zm15 3h1-1zm-655-50h-14c-2-1-3-2-1-3 4 0 8-2 12-1l-3-1 3-1 14 5-1 1-6-1v3l-3-3-1 1zm577 80c-2 0-5 0-4-1 0-2 3-1 5-1l4 1h1v1l2 1h-1l2 2-2 1c0 1-2 2-6 2-4 1-4-1-5-2l-2-1c-1-1-4-1-3-2 2-1 6 1 9-1zm-63-100h2c0 2 3 2 4 3v2c-4 1-4-3-8-2l-6-2 8-1zm86 55l-1 1 8-1h6c0 3-5 2-8 2v1c-6 2-9-2-13-2 0-2 5-1 8-1zm-57 35l7 1v3h-7l-5-1 3-3h2zm-31-2h-1c-1-2 3-2 5-2h10l6 1 2-1 2-1 3 1h2c1 1 2 2 0 3h-11l-6-1h-12zm60-92c-1-2-7-1-9-2h1c3-3 7-3 12 0l2 1c-1 2-5 2-6 1zM999 384l5-1c2 1 3 1 2 2l-4 2h-5c-1-1 0-2 2-3zM777 149l-7-1c3-4 6-2 10-1 1 1 1 2-3 2zm184 208l-4-1c2-2 5-2 8-1 7 1 0 1 1 2h-5zm-17-19c-2-1-9 0-7-3h7c0 1 2 2 0 3z" class="st0"/>
  <path d="M1013 376h-1l-7 2h-2l-1-1-7-1 4-1 3 1 8-1 3 1zM560 186h-2l-4-2v-2l6-1 10-1c1 2 8 0 7 3h-13l-3-1c0 2 1 3-1 4zm669 140h3l5-2c7 0-1 3 2 3 9 1 12 5 19 7v4h-6c-2 0-3-1-3-2h-6l-1-4h1l-10 1h-2l-2-1c-1-2 2-4 0-6zm20 9l-2-2h-2l4 2zm-160 62c0 3-4 2-7 2 0-3 3-2 7-2zm-155-67h3c1 2-1 3-2 5h-2c-2-1-2-2-2-3l3-2zm47 54c-2-1-5-1-5-3l6 1c1 1 5 2-1 2zM602 156c-2 0-6-1-2-2l4 1-2 1zm582 193c0-2 2-2 4-2l2 1-4 2-2-1zM610 145h-2v-3l-4-1c0-2 2-1 4-1l2 1v1c3 1 6 2 0 3zm-70 33l1 1-3 1h-4l2-2h4zm169-16c0 1-1 2-3 1l-6-2h4l5 1zm-80 96l4 1c1 1 1 1-2 1l-2 1c-4-1-2-2 0-3zm606 102c3 0 5 0 5 2-7 0-7 0-5-2zm-12-106h-10l-2-1-6-1c-3 0-4-1-4-2h-1l-4-2h9l4-1 4 2c2 1 6 1 6 3l2 1s4 0 2 1zm-286 86v-1c10 3 10 3 3 7l-2-4h-4l-3-1h-2l-6 1v1h-3v1l5 1c-3 2-5 1-8 0v-1h-5v-1l2-1h1l7-1 1-1 6-1 4 1h4zm3 11h-1l3-2c2 1 3 2-2 2zm363-21h-1c2-2 4-1 7-1h1c-2 1-4 2-7 1zm-285 32c-3 1-6 1-6-1h2l4 1zm2 28v1h-6l6-1zm201-28c2 1 1 2 0 2h-3v-2h3zM595 243l-4 1v-2l4 1zm-105-74c2 0 5 0 5 2h-5v-2zm220 114v2c-3 0-5-1-2-2h2zm-90-32c-2 0-4-1-4-3l4 1c1 1 3 2 0 2zm-101-73c-2 0-3-1-3-2h3c2 1 3 2 0 2zm27 102c3 0 4 1 5 2v1l-6-2 1-1zm523 113c2 1 4 2 3 3-2 2-5 0-7 0-1 2-1 3-5 4-2-1-1-2-1-3v-2h3l7-2zm-103-46c-2 2-6 1-9 0h9zM606 155l4 1 7-2h5c0 1 6 2-1 3l-2 1-5 1c-7 1-6-2-8-4zm14 5l3 1h4v2h-6l-4-2h-2v-1h5zm211 176h3c4 0 5 3 10 2v2c4 1 6-2 10-1v1l3 1c3-2 6-1 9 0l8 1 1 1h-3l19 5-1 4 7-1-4-2h1l-2-1c2-4 3-4 10-2l3 4 7-5 2 1 2 3-6 2 4 1-2 2 12 2h2c3 0 6 1 4 3-1 1 1 1 3 2 6-2 4 0 4 1h9l8-1 6 2h8c6 2 1 4 0 6h-4l-4 1v-1l-4-1-3 1h-13l1-2-2-2h-10c-3-1 0-2 0-2l-1-1h-16c-2-1-2-2-1-3l-2-1v1l-4-2-1-1h-9c-3-3-9-2-14-2l-9 3h-2l3-3-9-2-10-2-6-1c-1-1 1-1 2-1l3 1h1l3-2h-2v-2c-1-1-3-2-3-4l-4 2 3 4c-4 0-8 0-11-2l4-2v-1l-9-1-3 1c-1-3-3-4-8-4 1-2 4-1 7-2zm124 29h-4l2 1 2-1zm-31-5h-1 1zm-26-11h-2l5 2 1-1-4-1zm-8 3h-1 1zm124-1l4-1c3-1 6-1 8 1 4-1 8 0 11 1v2l-12-2-9 2-3-2 1-1zm147 8l10 3h7l2 1 4 2v1c3 1 4 3 1 4h-6c-4-1-1-2-1-3l-5-1c-1-1-4-1-3-2h-5c-10 0-6-3-4-5zm-2 7l-5 1 1-3 4 2z" class="st0"/>
  <path d="M581 287c5 0 9-3 14-1l3-1h8l1 1 1-1c3 0 7 0 7 2h6c0 1 1 2-2 3l-3-1-3 1 1 1v2c2 0 3 1 2 2h3v-1l5-1 1-1v-2c2-2 6-1 9-1 0 1 0 2-2 2l-1 2h-1 21l8 4h3c6-2 8 0 11 1h2c5 0 10 0 14 2l5 1 1 1 14 4v1l-3 1c-1 1-3 1 0 2l5 1h6c1 2 4 2 6 2h7c5 1 5 3 6 5l4-1h1l-1-1c1 0 2-2 6-1 2 1 7 1 9-1h2l3 1 4-3-12-6h2l-1-2h-1l-4 1c-5-1 1-3 0-4v-1c-5 2-8 2-11 0h-3l2 4-6-3-6-3h1l-1-3h-1l-1 1 3 2h-1l-3 5-2-1h-9l-7-1v-3l4-2-16-4h-1l-4-1 1 6c-9-1 0-7-11-7l-4 4h-3v-7l14-1c-6-3-4-6 2-7-2-1-2-2-2-3v-2h2l2-2c1 0 2 2 3 0 2-3 5-1 8 0 6-1 5-2 2-4l-4-1c-2 2-6 1-9 1l-6-1 7 2-9 3-6-3h-6l8-3 3 1c1-2-2-3-4-5l-1 1-2 2-3 1c-2 1-2 0-3-1h-3c-2 0-4 0-3-1l6-2c2-2 7-4 12-3l6-2v-2h-3c-5 2-10 1-16 1 2 3-5 3-6 6l-6 3h3c2 0 3 1 3 2h-1l3 3h3v2h-4l-3 1-2 1h-1c-6-1-14 0-19-2v-3l8 1h2l11-2-2-1-6-1h-11c-3 0-6 0-4-2l2-1 5-1h2l-1-1h5v-1c2 0 2-1 1-3l1-1c4-2 9-2 13-2h3l11-1h4l-4-1h-2v-1l-13-2h-2c0 2-3 2-5 2l-2-1-1-1-1-1 3-1-13-3v1l4 2 2 1v1c-3 0-6 1-6-1l-2-2-4 1c-1 0-3 2-3 0-1-1-1-3 1-4h4l-2-2c4 1 8 2 7-2h-1l-8-2-6-2-5-1-1 1-13-4-3-1-4-1-3-1-28-8 1-1 5 1c1-1-4-1-2-2l9 1 9 3h5c-1-2-6-1-8-2-1-1-5-1-1-2l22 5h1-1l-1-1h-1c-7-1-13-2-18-5h4l14 3-5-2c3-1 6 1 9 1l11 3 1-1c-4-1-4-4-9-5-5 0-6-3-10-4l1-1 11 2h3l3 2h1c5 1 11 1 15 3l5-1c2-1 1-1 0-2-2-1-7 0-7-3h2c1 0 1-2 4-1h-1l-16-5c-1 0-1-1 1-1 10 0 19 1 27 3 2 1 5 2 8 1l-6-1c-2-1-2-2-1-2l-2-1v-1h-1l-7-1c-4-1-9-1-12-3l1-1h3l3 1h1l-3-1v-1l-7-1c-3 2-8 2-12 2-4-2 2-2 3-3l1-1h-5l-2-1v-1l-4 1-1 1-7 1-2-1-12-2c-5 0-7-2-10-3h-1l-1-2c1-2 4-3 6-3 0-2 1-3 4-3l2 1c2 1 7 1 4 2h-8v3h12c-1-4 2-5 9-3l-3 3-1 2h2c3-2 7 0 10 0l4-2h-1l-5-1-4-2v-1l8 1 15 3 2 2 16 3 4-4 6 1 6 1v1l9 1c-3-2 0-4-2-5l-1-1h-3l-2 1h-7c-1-2 2-2 4-2h-1l-5-2-4-1h-4l-3-2-3-1-8-1-1 1h-14l-4-1c-1-1 2-1 4-1l2-1h6l-1-1-6-1c-3 1-5 0-7-1l-17-4-10-3-21-5-16-4c-1-1 0-1 2-1l24 5c4 1 9 1 11 3h1c9 1 15 3 22 5l19 4 5 2 19 4-1 1h3l5 1 3 1 4-2-8-2 2-2-3-1-5-1-4-1-19-4-9-2h-2v1h-11l-2-1c-2-1-2-2 0-4h2l4 2h2l-3-1-1-1 7 1 4-1c3 0 6-1 6 1l-5 2 8 2c6-2 10 0 15 1 1-2-7-2-8-4l-2 1-4-1 7-1-5-2-3-3c0-1 0-2 3-2l1 1 3-1v-1l-8-2-8-3c-1-1-1-1 1-1-3-2-7-3-11-3-2-1-4-1-4-3h1l16 5h1c3 1 8 1 11 3h6c4 2 8 3 13 3l1 1 9 2 4 1 9 3 9 2 4-2h1c5 0 6 2 8 3l-2 1h-3l6 1v1l5 1h18l6 2c4 1 8-1 10 2 2 1 6 0 8 2l3 1h4l-13-3c-2 0-4-1-2-2h1l3-2 3 1 1 1h2l-6-2-3-2h-4c-5 0-3-2-4-4l-1-1h-2l-12-2-6 1-7-2c-3-1-1-2 1-2l2-1 8-1 2-3 3-1 7 2c0 2 2 2 5 2l-1-1c1-2 4-4-1-5l-4 1-8-2-1 1c-1 1 1 2-1 3h-4l-3-1h-1l-7 2v2l-3 1 2 3c0 1-1 2-3 2l-3-1-4-2c0-2 2-2 4-2l-2-1-3 2h-3c-3-1-1-2 0-3 2 0-1-1 0-1h-2l-1-3-9 2c-2-3-9-2-13-4-3 2-4-2-8 0v-1c-4 3-8-1-13 0l-15-2h-8c-2-3 6-2 6-4l4-1h1c-1-1 1-2 1-3h2l3 2v1h-3l4 1 3-1 5 1h3l2 1h8l2 1 3-1c0-1 0-2 2-2v-2c1-1-5-3 2-4l29 6-1 1h1v-1c7 0 13 2 19 4h4c6 2 13 3 20 2v1l8 1 2 1 5 1c4 1 2 2 0 3l-4 2-3-1h-3l-1 1-1 2h8v-2l4 1h2c-1-1 4-2 0-3 0-1 0-2 2-2l9 2h2l5 2h8l6 1 1-1c3 2 5 4 11 4l10 2 8 2 1 1c0 1 1 2-1 3l1 1-1 1 2 1h11l4 2c3-1 5-2 3-3h-3l-1-1-5 1c-3 0-6 0-6-2v-3l4-1 8 4 7 1 4 1c4 0 8 0 11 2l-1 1h2c2 1 3 1 2 2 2 0 7 1 7-1l4 1c3 1 8 0 12 2l-1-1c3 1 6 2 10 1v-1h-4c-4 1-6-1-7-2l-1-3h-1l-6 1h-6l-1-1h-1l-8-1h-1c-3 0-7 0-9-2h-1l-4-2h1l-9-3-2-2-3 1h-9c-3-1-6-2-7-4l-1-1c-3 0-7 0-7-2l-2-1h-10l-3-2h-1c6-2 9 1 14 1l9-1c1 3 7 3 7 6h6l4 1 4-3c3 0 3 3 7 2v1l10 2 5 1h2c2 0 3 1 3 2l7 1 4-1h2l3 1h2c4 0 7 2 10 3h1l-1 2-1 1 1-1c4 0 9-1 13 1l5 1 4 1c4 2 14 1 15 5h2l1 1c4 0 7 0 8 2l6-1c2 1 5 1 2 2-3 2 2 1 2 1l7 1c5-1 9 2 14 0h4l-1-1h-6c-3-1-5-2-4-3l3-1h-6c-6 2-8-1-12-2v-1l-3-1c0-2-2-3-5-2v1c-8 4-9-1-13-2h-3l-7-1v-2l-1 1h-8l-7-2-1-1h-2c-2-1-7 0-8-2l-3-1-4-1h-2c-3 0-4-2-6-3h-2l-4-1h-11v-1l-2-1h5c-2-1-4-1-4-3-3 1-5 0-7-1h-5v-1c-5 0-8 0-8-2h-2c-5 0-9-2-13-1l-2-1h-7c-3-2-4-5-11-4-3-1-3-2 1-2h17l4 2 6 1h1l8 1 4 1v2c3 1 8 1 9 3h8l2 1 7 1c5 0 6 2 10 3 8 0 14 2 20 3h-1v1l1-1 15 4c6 0 11 1 14 3 8 0 13 2 19 4l15 3c6 0 10 2 15 4 5 0 9 0 11 3 10 1 19 3 26 6l3 1 13 2 16 4c3 0 6 0 7 2h2l6 1 2 1c5 1 9 3 11 5l15 2 15 4 8 2 5 1 12 3c4 0 6 2 9 3l4 2h8l5 3v1l9 2 6 1h4c5 0 7 3 12 3h2c7-1 6 3 11 4 4 1 12 0 15 3 5 0 9 1 11 3 5 0 6 2 4 3-2 2-5 1-8 0l-7-3-6-2-5 1h-7v-1c-3 0-7 0-8-2h-2l-10-2v-1l-5-2c-2 2-4 0-6 0l-2-2-4 1c-2 0-4 0-3-1l-3-1c1-1-2-1-2-2h-9l-3-2v-1h-3l-5-1c-3 0-5-1-5-3h-7l-4-1h-3l3 1c3 1 2 2 2 2l2 1c0 2 4 1 7 1 0 2 5 2 6 4h2l5 2h4c7-1 14 0 18 3l2 2 4 1 5 1h7v1l8 3 5 1h1c3 2 12 1 11 5l-10 1h-2l-1-1c-6 1-5-1-6-3l-7 1-2-1c0-2-7-2-10-3v-3h-2l-2 1h-5c-4 1-7 0-8-2h-1c0-1-2-3 0-4l-6-2c-2 2-2 3-6 4v2l1 1v-1h1l10 4 4 1c2 0 0 4 6 1h5l1 2h8c2 1 4 1 3 2l2 1 2 1h3c2 3-3 2-6 2h-2l2 2h2l4 1h4l4 3 4 1c4-2 4-2 7-1l-3 2 1 1 7 1h2l2-1 7-1 2 1 1 1 4 2h-1v1l2-1 1 2c0 4-5 5-12 4l-3-2c-6-1-11-1-14-3v-1c-1-1-8 0-6-3-10 2-6-3-10-4h-1c-5 0-10 0-12-3h-7l2-2-4-1h-6 3c2 1 5 1 4 2h-6c0 1 5 2 4 4h3l4 1 7 2c2 1 6 1 8 3h5l5 2 1 1 6 1h2c5 2 12 3 16 6h-2l-6-1-14-4-1 1-2-1v-1l-14-3-1-1-9-1-12-2 2 1 7 2 6 1c4 1 5 2 2 4l-4-1-6-1v1l-1 1h1l3 1h1c1 2 1 3-1 4-1 2-1 2 3 3l5 1c2 1 1 2-2 1l-19-1-9-2v-1l-3-1h-3c-4 1-5 2-1 4 2 0 3 0 4 2l1 1 1-1 11 1v1h4l1 2 8 4 4-1 2-2h11l-1-2-4-1-1-2 4-1 2 1 1 1 8 1 1 1c2 0 5 0 4 2l2 1-1 2c-3-1-8 0-9-2h-2l-2 1 4 2 6 1 2-1 7 1-1 2h-6l-2 1 2 1 10-1v-1h3l4 2v1c0 2 0 3 2 5h2l2 1 1 1 8 1c5 0 9 1 8 4v1c4 1-1 3 0 4h2l4 1c-3 2 8 2 3 4l-2 1-4-1-5 1-2 3-6-1-4-1-9-3c-1-1 0-2 4-2h3l-3-1h-6c-3-1-10 0-12-2l-5-1h-4c-1-1-2-2-6-2h-5l-2-1-9-1-8-2c0 2-1 3 2 5l2 1 11 1h2c4 1 12 0 11 4h3c4-1 6 2 10 1v1l6 1c5 0 6 2 9 4 7-1 11 2 17 3l-7 1h-7l6 2 7 2-2 1-1 1c-4 1-4-2-7-2l-2 1c-2 2 0 5-8 5l-2-1v-4h1-1c-3-1-7 0-9 1l-6 3 6 1c2 0 4-2 7 0v4l-4 1h4l3 2h-7c3 1 8 1 11 3h-11c-5-1-10-1-14-3-4-1-9 0-11-2h-3l-9-2c0 2-1 3 2 4l2 1h1l2 2 5 1c-3 1 7 4-4 3l-4 2v-4c-2 0-4-1-4 1h-2c-2-1 1-2 0-3h-2l-9-1h-6l-10-1-3-1v-1h-4l-2-3 3-1c1-1 7 0 7-2h-6l-6 2h-4v-2c-5-2-12-3-19-3l6-2c-2-1-6-1-6-3h-3l-7-1-9-1c-3 1-6 1-9-1l-2 1h2l2 1h1l9 3 1-1 3 1 2 1c-1 1 2 2 3 2l-4 1c4 0 6 3 11 1 0 2-2 3-6 3 3 1 5 2 4 4l6 1h8l1 1h1c4-1 6 0 7 2l10 3c-4 1-7 5-12 1l-6 2 1 1c6 1 10 2 5 5v1l10-1 2-1c-1-2 2-3 4-4l2-1 4 1 1 1h2c-1 2 1 3 4 4h2l7 1-3 2h-6c-9 0-5 2-4 4 0 2 7 2 6 4-4 1-7 2-8-1l-8 2c3 1 2 2-2 2h-11l-8-1c-7 0-9-3-13-5h-9c-2-1 0-4-5-3h-2l-3-1v-1h-3v1h-3c-1-2-5-1-6-2h-6l-1-1 2-1-1-2h-8l-2-1h-2c-5 1-5-1-7-3-1 1 0 2-2 2-2-1 1-2 0-2h-4l-5-4-1-1c-5 0-12 1-15-2l1-2h-9l2-2c1-2 0-3-7-2h-5l-6 1-2-2-2-2h-2c-5 1-10 1-15-1h-3c-1 2 2 4 0 6l9 2 1 1 5-1h3l2 1 4 1 1 1v2l3 1s4 0 2 1c1 3-2 3-5 2l-1-1-2-1c-1 0-3-1-2-2h-5l-8-1-1-2h1c-1-2-3-1-6-1h-1l-1-2-5-2-2-1h-2v1h-4c-3-1-7-1-9-3-1-2 3-1 5-2l2-1h8l1 1 1-1h5l5-3-1-1 4-1-1-1h-6c-1 3-4 3-8 1h-8l-6-1 1-1-1-1-5 1h-4c-2 1-4 0-6-1l-1-2 3-2h1l-2-1h-12l-1 1h-2c-3-1-8-1-6-3 1-1 1-2-1-3h-1l-2 1-12-1-6-1c-3-1-1-2 0-3h-2l-2-1-2 1-6 1c-7 0-1-3-4-4h-2l-9-1-1-1h-9l-1-1c-3-1-6-1-5-3h-1c1-1 0-2-3-2l-4-1c-1 1-2 2-5 2l-4-2-7 1h1l-4 1-6-2 3-4-3-1v-3h-1c-2 2-3 4-9 4h-11l-2 1h2l1 1v1c3 0 4 2 6 3 2 0 4 1 2 2-6 1-4-3-8-3l-1 2-3-1-4-1v1l-14-1h-2l2 3 6-2 4 4 8-1 2 4h1c5-5 6-5 17 0l-4 2 5 1 16 4h4l1 1c1 3-4 3-9 2h-4c-1 2-4 1-7 1-3-1-6-2-5-4v-1c-5 1-8 0-12-1h-4c-2 2-5 3-10 2-6 0-13 1-17 3l1 1 1 1v-1c6 1 11 0 16-2h9c-1 4 3 5 8 5v-2l-6-2 11-2-2 2 7 8-1-6 13 2 6-2h3c0-2 4-3 5-3 2 2 9 2 9 4 2 0-1-2 4-2l5 1 6 1 2 1h2c3 1 7 1 8 3 3-1 4 0 5 1 0 3-8 1-9 2h-5l-2 1h-3l-4-1-1-1h1c-2-1-1-1 1-1l2-2 1 1v-1l-3-1-4 2v-1h-1l-5-1h-4c-4 2-5 0-8 0l-2-1c-3-1-4 0-6 1l4 1-3 8-4-2-4 1 4 2h8l-1 2c3 1 1 2 0 2-4 0-5 2-7 3l-3 2c-1 0-4 1-4-1l5-1v-1c4-2 0-2-2-3h-1l-2-2-5 1c-2-1-3-1-2-2l-7-2v1h2c1 1 3 1 2 2v2h-2c-4 0-5 3-10 1l-7-1h-3c-2-1-7-2 1-2l3-1-5-1c-5 0-10-2-16-1l1-2-21-4-2-2-2-1c-10 1-16-2-24-4h-4l4-3-2-1-4 1h-12l-4 1-8-3c-3-1-6-1-6-3l6-1h5l-2 1v1l6 1c-2-1-1-2 2-3l-3-3c-2 2-4 1-8 0l-1-1h-4v-1l-5 1 2 1c1 1 0 1-1 2l-7 1h-2l-2-3 1-1-5-2h-2l-2 2h-1l-4 1c-3 0-6 0-6-2l3-1 3-2h-2l-1-1h-11c1 2-3 2-5 2l-1-1c-3 0-7 1-10-1-2 0-6 0-6-2h1-1l-7-1v-1l-3-2 1-1 2-2h-1v-1h-3l-10-1c-5 0-9 2-15 1-2-1 0-1 1-1zm34-56h1-1zm25 13h-1 1zm-25-78h-1 1zm92-20l-3 1h-2l5 2 4-1-4-2zm-47 2l1 1-1-1zm294 184l1 1 2 1 1-2-1-1-3 1zm-203-32v-1l-2 1h2zm-22-4h1v-1h-2l1 1zm-18 1l5-2v-2c-2 1-5 2-5 4zm1-4l1-4c4 1 4 2 3 3l6 1v-2l4 2c2 0 4 0 4 2h8l11-4 1 3 6-3 8 2-1-1 4-1 7 2c-1-2 0-2 4-2l6-1h5c-1-1-3-1-2-2l2-2h-1c-7 2-14 2-20-1l-1-1h-3l-1-1-4 1h-1c2 0 3 1 2 2-2 2-5 2-8 2-2 2-4 2-6 1l-4-3-2 2-2-1c-3 1-5 3-9 2 1-2 4-2 7-3h6l2-1-2-1-1-1-7-1h20l-2-1-8-1-2-1c-2 1-4 2-8 1h-3v2h-7c-1-2-3-2-7-2h-4c-2-1-3 0-4 1h-4c-3 5-3 8 7 12zm175 10l-2-1-2-1 1 1 1 1h2zm166 47l4-1h-7l3 1zm93-69l-2 1 1 1h1v-2zm-21-15h1-1zm-273-93l1 1-1-1zM717 278v1h6l5-1v1h1-1v-3h1c0-1 2-2 5-2l1 1-1-1-2-1c-5 2-7 0-9-1l1-1-1 1c-2 0-2 3-6 1l-2-1h-6l-7 2h1l7 1v2c3-1 4 0 7 1zm179 27l1-1h6-2l-4-1h-1l-2 1-1 1h3zm166 41l7 1 1 1h2l1-1-6-2v-1h-1c0-2 1-3 4-3h-6l2 1c1 1 0 2-1 2h-4s-2 1-1 2l1 1 1-1zm25-6v-2l-3 1v1l3 1 2 1h2l-2-1-2-1zM699 180l-2-1v1h2zm35 95l-1 1 2-1h-1zm255 50l2-1h-4v1h-1 3zm76 12l5 1h5v-2h1l-4-2h-2c1-1-1-2-4-2v1l4 1h-5l-1-1-3 1v1l-3 1v1c2 0 2 1 1 2l3 1h2c-1 0-1-2 1-3zm24 8l-5 1h11l-6-1zm-79-141l-7 1 5 2h8v-2h-1l-5-1zm-26-17v-1l-7 2h1l4-1h2zm-64 1h-4l-5-1h-1l2 1 1 1 6 1h4v1l4 1h4l2-1h8l1-1-3-2-1 1-12 1-6-2zm-128 92l-2-1-1 1h3zm343 36l2-1-1-2h-10v1l2 2h7zM725 192h1-1zm347 69v-1 1zm-45-18h-1 4-3zm101 54l-1 1h2l-1-1zm-165-95l2-1h2l2-1-6 2zm57 11s0 1 0 0zm6 0l-1-1-2 2h5l2-1h-4zm68 99l2 1-2-1zM952 194h2l-2-1v1zm23 4v-1l1-3-1 1v3zm45 15l2-2v-1h-4c0 1-1 2 2 3zm30 3l-1 3-2 2 1 1h7v-1h4l-1-1c-2-1-10-1-8-4zm20 4l-5 1h-1l-3 1c1 2 4 2 8 2l3-1c-3-1-3-2 0-3h-2zm16 12l2 1 2-1h1-5zm84 91l-1 1h2l-1-1zM713 176h-1 1zm226 18l-1 1h2v1-1h3l-2-2h1-3v1zm154 33v-1l3-1c-2-1-5-2-7-1 1 0 1 2 3 2l1 1c2 1 2 2 0 3h1l3 1v-1h5l4-3h-13zm-340 46l4 2h4v1h2l2-2h1l-4-2h-9l-5 1h-1 6zm-21-6h1-1zm-54-73h-1 1zm309 4c0 1 0 2-2 3l3 1c-1 2-4 2-7 2h-1v1h1c4 0 5 2 8 1l2 1h6l-2-1-2-1c-2-1-5-1-4-3l4-2 1-2-2 1-5-1zm98 13h1-1zm57 96h-1 2-1zm-70 25h1-1zm-29 8l8-1 2-1-1-1h-4l-11 1 6 2zm-342-78l4 1 1-1-5-1v1zm194-78l3 1 4-1-7-1v1zm8-5l1 1 1-1h-2zm14 3l-3 2h1l2 1 4-2v-2h-3l-1 1zm207 56h-2c2 1 1 1-1 2h-2c-4-1-4-4-10-3h-4l19 4h3v-1h-1c-1-1 0-1 1-2h-3zm29 59l-2-1h-9l-1 1 1 1c0 2 1 2 3 1h2c3-1 5 0 6 1h1-1l2-2-2-1zm-186 21l-2 1 3 1 2-1h2l-5-1zm-15-2l-1-2h-5l-1 1 7 1zm-73-15h2-2zm-37-10v-1l-4-1 4 2zm-103-13h1-1zm-40-3l-3-2-3 2h6zm127-100h1-1zm66 3l-1 2h3v-1h3l-1-2-3 1h-1zm148 27h7l1 1h2l1-1 2 1h4c2 1 9 1 1 2l2 1h14c-2 0-5 0-4-2h-3l-10-1c-2-1 0-3-1-4h-2l-1-1c-5 2-9 0-14 1h-1l2 1v2zm94 36h-1l-1 1-1 1 4 1h1v-1l-1-2h-1zm9 14v-1 1zm28 34l1-1-2-1-3 1 4 1zm-14 38l5 1-5-1zm-152 0h1-1zm-9 1v-1h-3l5 1h-2zm-311-66h2c1-3 5-2 8-2l2-3-6-1-1 1c-2 2-4 1-7 0 3 2 3 3 2 5zm-35-25h2-2zm-21-47v1l-3-1 1 1c1 0 3 1 2 2h1v-1l1-1-2-1zm7-24c2 0 5 1 7-1h-6l-1 1zm4-7h-4l9 2v-1l-4-1h-1zm90 2l1-1-2-1-1 1 2 1zm56 6l-7-2-2-1c-3 0-5 0-7-2h-7l-1-1-7 1h-9l-1 1h1-1 2c4 2 8 2 12 1l4-1h1v3l10 2v-2c3 0 6-1 6 2h-6v1h8l2 1h1l4 2h5l1-1c5 0 9 0 11-3h-4c-3 1-7-1-10 1-2 1-7 0-5-2h-1zm93 11h-1l-11-2-3 1 2 1 1 1h8l1 2h3c0-1-1-2 2-2l-2-1zm-14-9zm33 6h4c-1-1 0-2 2-2-3 0-5 0-6 2zm117 20l-9-3-1-1h-8c-3 0-6 0-6-2h-2v1l5 2 5 1 3 1 5 1h1l1 1 3 2h8l2 1 5 1 3 1h7v-2l-4-2h-1c-4 1-8 0-8-2h-9zm144 50l-1 1h3l-2-1zm21 43h1v-1l-1 1zm12 11l-4-1v1h4zm8 18l-3-1v2l-3 1 4 2-1 2 3-2h1l2-2-1-1-2-1zm-24 15l-3-1h-1l4 1zm-87 3l3-1-3 1zm19 10h-2l-1 1h9l-1-1h-5zm-4 13h4l1-2h-4l-6-1h-3v1c4 0 6 0 8 2zm-82-17h3c0-2 3-2 5-3h1v-3l-5 1-4 4c2 0-3 1 0 1zm-11-10l6-2h-1l-5-1-3 1v2h3zm-10 1l5 1 2-2-5-2h-4c-2 1-2 2-2 3l1 1 3-1zm-210-22l1-1h1c-1-1 0-1 1-2l-2-1-1 1-1 2 1 1zm18 14l-10-1-1-1c-4 0-8-2-13-1l14 4 5 1 6 1-1-3zm-45-2v-2h-2v2h2z" class="st0"/>
  <path d="M725 312v-2l3 1-3 1zm210 35h2c-1 1-1 3-6 2l4-2zm58 14h-11c0-3 5-2 7-2 3 0 4 0 4 2zm-6-5l2 2c-3-1-8 0-10-2h-1c-3-1-3-2-2-3-4-1-7-1-9 2l-2-1 2-5 11 3h1c2 1 5 1 4 3l4 1zm80 6h3l-2 1c-2 2-5 1-7 0h-2c2-2 4-3 8-1zm-9-4l5 1-4 1-1-2zm-57 5l-1-1c2-1 4-2 6 0l1 1h-6zm293-35c2 0 4-1 4 1l-6 1-1-2h3zm-272 60c3 1 5 4 11 2l4-1 6 1v1l7 1 6 2 2 1-4 1h-6c-3 2-5 1-7 0-2-2 8 0 3-2l-4-1-1 1h-2l-4-2-4 1c-7 1-3-3-8-3 0 0-2-1 1-2zm-8-5l2-1h3l6-1h6l4 1v4c-5 3-8 0-12-1s-9 2-13 0l4-2zm174-131l4-1 4 1c-3 2-6 0-8 0zm94 73l-7 2-1-1 1-2 7 1zM654 185l-5 1v-2l2-1c2 0 3 1 3 2zm152 150c2 3-4 1-7 1l7-1zM647 141l-9-1h-3l3-3h9c2 1 6 2 0 4zm427 224c1 2-3 2-5 3-3-3 1-3 5-3zm93-95c1-1-1-2 2-3l2 1v3l-4-1zm42-14c-2 1-4 2-7 1 1-2 4-1 7-1zm-564 29h-4s-2-1 0-2l4 2zm367 97l-6-1v-1h4l2 2zm-89-44l-7-1 4-1 7 1-4 1zm-204-51l-1-2h4c1 1 1 2-3 2zm-38-30h1-1zm429 80v-1c-5 0-5-2-6-4 3 1 7 0 8 2h1l1 2v2c-4 1-2-1-4-1zm-230-21h1l-1 2c-4 2-5 0-5-1 1-2 3-1 5-1zm12 15h-1l-2 2v1l-16 4-1-5h-1l2-2-3-2c-2 0-3-2-5-3l13 1 7-1 3 2h1l3-1c4 1 2 3 0 4zm14-3c-2-1 0-1 0-2l4 1 2 1h-6zm36 2l4 1-1 1c-2 0-3-1-3-2zm-13-3v2h-6c-1-1-3-1-2-2h8zm-116-27h8l2 1 8 4 2-1h2c4 1 2 3 2 5 0 1-1 2-3 2l-7-1-1-1h-1c-2-1-2-1-1-2l-3-1c-2-2-5-3-10-2l-7-2v-1c-1-1 0-1 1-1h1v-1l-2-1 2-2 6 1-1 1 2 2zm-16-6l4-1 2 1v2c-2 0-6 0-6-2zm100 29c-4-3 0-4 3-5l3 1-1 1-4 3h-1zm-11-8c2-1 3 0 5 1-2 0-2 1-2 2h-2c0-1-3-2-1-3zm-13 0v-1h-11c-4-1-11 1-14-2l-2-1c-2-2 1-2 4-2h1-1c-2-1-5 0-2-2h9l2 1-1 1 11 2 2-1 4 1v1h1c0 1 0 2-3 3zm-328-56c10 5 10 0 14-1l-7-2c7-1 14-1 18-3 7-2 11 0 16 1l8 2-7 4c14 0 1 4 6 6h8l-7 2 1 1h17l-16 5-1 3c-4-1-7-1-10-3-3-1-13-1-11-5-6 0-12-3-18 1l-7-2-4-9zm346 90h1-1zm0 0h1-1zm-53-16c10-1 17 1 20 5-9 0-19-2-20-5zm-213-53c8-5 11-5 22-1h-9l-2 1-3-1 3 4-11-3zm290 57v3l-1 1h-10c-4 0-4-1-4-3l-5 1c-3 1-5-1-8-1v-3h3l3-2c6-3 6-3 8 0h10v2h1v1h2l1 1zm42 15l-12-4h-1v-1l1-2 4-1c1 1-1 1-1 2l-1 1 17 5h-7zm-28-2h2l3 4-9 1 4-5z" class="st0"/>
  <g>
    <path d="M456 266l6-3h4l2-1v-1h2l6 1-4 1h5c3 0 6 0 5 2l-5 1h-1l-1-1h-1l1 1v1h12l5 2h-1l3-1c2 0 4 1 3 2l-6 2-6-2h-1l-6 1-5-2h-1c-3 1-7 2-10 1l-2-2c3-2-6 0-4-2zm279-102c-2-2-8-1-10-2 3-2-14-3 0-5 0 2 2 1 4 1 5 1 8 2 9 5 1 1-2 2-3 1zm-201 80c6-1 8 3 13 3 3 1 1 2-1 3l-15-1-4-2c-3-3 2-2 4-3l1 1 2-1zm203-66h-8l-4-3h-1c-3-1-5-1-5-3h2c5-2 7 2 11 1 5 0 3 3 6 3 1 1 1 2-1 2zM300 21h-3l-1 1-3-1-7-2c-1-1-4-1-3-2l4-1 15 1c1 1 2 2 0 3l-2 1zm427 100c-3 2-6 0-8-1l-2-1c-3-2-13 1-14-3l-6-1-7-2c-8 0-12-3-18-4l-5-2c-7 1-12-1-17-2l-7-1-7-2c-2-1-1-2 0-3h-8c-2-2-10-1-12-3l-1-1c-3 1-6 0-8-1-6 0-11-2-15-3l-8-2-6-2c-1-1 0-1 1-1l-5-1c-10 0-19-1-26-5l-5-1c-4 1-4-1-6-2l-10-2h-1l-7-1-7-2h-2c-2-2-5-3-9-3l-6-1c-2 0-2-1-2-2l-16-1v-1h-1c-7 0-11-2-16-3v-1l-8-1-2-1-4-2c-7 1-11-2-17-3h-8c-1-5 4-3 8-2h2l3-2-4-1h-1v1h-4c-6 2-11 0-16-1l-1-1h-2c-4 0-7-1-8-3-2 0-4 2-6 0-8 0-14-2-18-4l-9-1-1-1v-2h-7l-2-1-1-1h-1c-2 0-5 1-7-1h-8c-5-2-12-3-11-7-4-1-6 0-8 1l-3-1-5-2-2-1c-3 0-7 0-8-2l9-1h3c1 0 1 0 0 0h2l2 1 4 2c4 0 8-1 10 1 5 2 10 3 17 3 3 1 9 0 12 2h-1 4c2 2 9 0 10 3 7 0 14 1 19 3l-2 2 2 1 2 1h7c2 1 2 1 0 2l2 1 3-1 1-2h4l-4 2 1 1h11l30 7c13 1 22 6 34 8 5 1 12 1 15 4h2l8 1h1l7 1c3 1 6 1 6 3 4 2 10 2 15 3l1 1 7 1 10 3c9 1 16 4 24 6l7 1c5 0 7 2 10 3l5 1c8 1 17 2 22 6 6 0 12 1 17 3l7 2c5 1 10 1 12 3l12 3 19 3c3 0 6 2 8 3l9 1 4 2c4 1 9 1 9 3 3 0 6 0 7 2h5c0 1 5 2 3 3-1 2-5 2-8 2zm72 101c3-1 6-2 10-1l5 3c5 2 2 3 0 4-1 2-3 3-8 2-3 0-4-2-5-3v-1c-4 0-8 0-4-3l2-1zm-640-47l-2 1-10-1h-3c-1-1-2-2-1-3h12l-2-2 3-1 14 6h-1l-6-1v3l-4-3v1zm576 80l-4-1c1-2 4-1 6-1l4 1v1l2 1 1 2-1 1-6 2c-5 1-4-1-6-2l-2-1-3-2c3-1 7 1 9-1zm-62-100l2 1 4 2v2c-5 1-4-2-8-2-3 0-5 0-6-2l8-1zm85 55v1l8-1h5c0 3-4 2-7 2v1c-7 2-9-1-14-2 1-2 5-1 8-1zm-57 36l6 1v2l-5 1-5-1c-1-2 1-3 2-3h2zm-30-3h-2c-1-2 3-1 6-2h10l5 1h2l2-2 4 1 1 1c2 0 2 1 0 2h-11c-2 1-4 0-6-1h-11zm60-92c-2-2-7-1-10-2h2c3-3 6-3 11 0l3 1c-2 2-6 2-6 1zM493 274h6l2 1-4 3-6-1c0-1 0-2 2-3zM272 39l-7-1c2-4 6-2 9-1 2 1 1 2-2 2zm184 209l-4-2c2-2 4-2 8-1 6 1 0 2 1 2h-4v1zm-17-20c-3-1-10 0-8-3h8c-1 1 2 2 0 3z" class="st0"/>
    <path d="M508 266l-1 1-7 1h-3l-1-1h-6l3-2 4 1 8-1 3 1zM54 76h-1l-4-2v-2l6-1h9c1 1 8 0 7 2H56c-1 1 0 2-2 3zm669 140l3 1 5-2c8 0-1 2 3 3 8 0 12 4 18 6l1 1h-1v3h-5l-4-1-5-1-1-4-9 1h-2l-2-1c-1-2 1-4-1-6zm21 11h-1 1zm-1-2l-1-2h-3l4 2zm-160 63c0 2-4 1-7 1 1-2 4-2 7-1zm-154-68h2c2 2 0 3-2 5h-2l-1-3 3-2zm47 54l-6-2h6c1 1 5 2 0 2zM96 47c-2-1-5-2-1-3l4 1-3 2zm582 192c0-2 2-2 4-2l3 1-4 2-3-1zM104 35h-1v-2l-4-2c-1-2 2-1 4-1l1 1 1 1c3 2 5 3-1 3zM35 68v1l-3 2-3-1 2-2h4zm168-15h-2l-6-1 4-1c2 0 4 0 4 2zm-80 96h4c1 1 1 1-2 1l-1 1c-4-1-3-2-1-2zm606 101c3 0 5 0 6 2-7 0-7 0-6-2zm-12-106h-10l-2-1-6-1c-3 0-3-1-3-2h-2l-4-2h13l6 1c1 1 4 1 4 3l3 1c-2 0 4 0 1 1zm-285 86l-1-1c10 3 10 3 4 7l-2-4h-4l-4-1h-2l-5 1-1 1-2 1h-1l5 2c-2 1-5 0-7-1h-6v-2l3-1 8-1 1-1 5-1 4 1h5zm3 12l-2-1 4-2c1 1 2 2-2 3zm361-21v-1l6-1h3l-9 2zm-284 31v1c-3 0-6 0-5-2h1l4 1zm2 28v1h-6l6-1zm202-27c2 0 0 1 0 1h-4v-1h4zM89 134h-4v-2c2 0 5 0 4 2zM-15 60l4 1h-4v-1zm219 113l1 3c-3-1-6-2-2-3h1zm-90-32c-2 0-3-1-3-3l3 1c1 1 3 2 0 2zM14 68l-4-2 4 1c1 0 3 1 0 1zm26 102l6 2-1 1-6-2 1-1zm524 114l3 2c-2 2-5 0-7 1-1 1-1 3-6 3-2-1-1-2-1-3v-1l3-1c2-1 5-2 8-1zm-105-47c-2 2-5 1-7 0h7zM101 46h3c3 0 6 0 7-2h6c1 1 5 3-1 3l-2 1-6 1c-6 1-5-2-7-3zm13 4l4 1h1l2 1v1h-6l-3-1-2-1v-1h4zm211 177h4c3-1 5 2 9 1l1 2c3 1 5-2 9-1v1l4 1c2-2 5-1 8 0l9 1v2h-2l18 5-1 3h7l-3-3h1-3c2-5 4-5 11-3l3 4 7-4h2l1 4c-3-1-4 0-5 1l3 1-1 2c3 2 7 2 11 2h2c3 1 6 1 4 3l4 2c5-2 3 1 4 1h5v1l1-1h11l6 1-1 1 1-1c2 2 5 0 7 1 7 2 1 4 0 6l-4-1-4 1v-1l-4-1-3 1h-13l1-2-2-2h-9c-3-1-1-1 0-2l-2-1h-15c-3-1-2-2-2-3l-2-1v1l-4-2v-1h-9c-4-3-9-2-15-2l-9 4-1-1 2-3-8-2-11-2c-3 1-5 0-6-1s1-1 2-1l4 1 3-2h-2l1-2c-2-1-4-2-4-4l-4 2 4 4c-5 0-9 0-11-2l3-2 1-1-10-1c0 2-2 2-3 1-1-2-3-4-8-4 2-2 5-1 7-1zm124 28h-3l1 2 2-2zm-31-5h1-1zm-26-11h-2l6 2h1l-5-2zm-8 3h-1 1zm125 0l3-2c3-1 6 0 8 1h1c4-1 7 0 10 1v2l-11-2-9 2-4-2h2zm146 7l10 3c3-1 4 0 6 1l1-1 3 1 3 2 1 1c2 1 3 3 0 4h-6c-3-1-1-2 0-3l-6-1c-1-1-4-1-3-2h-4c-11 0-6-3-5-5zm-2 7l-5 1 2-2 3 1z" class="st0"/>
    <path d="M76 177c4 0 8-3 13-1l4-1 7 1 1 1 1-2c4 0 7 0 8 2h5c0 1 1 2-1 3l-4-1-3 1 1 1 1 1-1 1 3 2h3v-1l4-1 1-1v1l1-3c1-2 4-1 7-1 0 1 0 2-2 2l-1 2h-1 22l8 4h4c5-2 7 0 10 1h3c4 0 10 0 14 2l4 1 2 1 13 4v1l-4 1c0 1-2 2 0 2l6 1c2 0 4-1 5 1l7 1h8c4 1 5 3 6 5l4-1h-1 1c1-1 1-3 5-2 3 1 8 2 10-1h2l2 1 4-3-12-5h2l-1-3h-1l-3 1c-6-1 0-2 0-4-1 0 0 0 0 0-6 1-8 1-11-1h-4l2 4-6-3-5-3v-3h-1l-2 1 3 2-4 5-2-1h-10l-7-1v-3l5-2-16-4h-1l-3-1v6c-8-1 0-7-11-7l-4 4h-2l-1-7 13-1c-5-3-3-6 2-7l-2-3v-1h2l2-3c1 0 2 2 4 0 2-3 5-1 7 0 7-1 7-2 2-4h-17l6 1-9 3-5-3-6 1-1-1 9-3 3 1c0-2-2-3-5-4l-2 2-3 1-4-1-2 1-4-2 6-2c3-2 6-4 12-3l5-2h1-1v-1h-17c2 3-6 4-7 6l-5 3h2c3 0 4 1 3 2v1l2 2h3v2h-4l-3 1-2 1h-1c-6-1-13 0-19-2-1-1 0-2 1-3l7 1h2l11-2h-1c-2-1-6 0-7-2h-11c-2 0-6 0-3-2l2-1 4-1 2 1-1-2h6l1-3 1-2c3-2 8-2 13-2h12l5-1-4-1h-3l-11-3-1 1h-1l-6 1-2-1v-1l-2-1 3-1-12-2v-1 1l3 2 2 1v1c-3 1-6 1-5-1l-3-2-4 1c-1 0-3 2-3 0 0-1-1-3 2-4h3l-2-2c5 1 8 2 7-1v-1l-9-2-6-1-5-1h-1l-14-4-2-1-5-1-3-1-26-8h5c1-1-3-1-1-2l7 1v1l9 2h5c-1-2-5-1-8-2-1-1-4-1-1-2l22 5h1l-2-1h-1l-18-4 2-1h2l15 3-6-2 10 1 10 3 2-1c-5-1-5-4-10-4-5-1-5-4-10-5l2-1 11 2h2l3 2h1c5 1 12 1 16 4h1c2-1 1-2 4-2s1-1 0-1c-1-2-8-1-7-3l2-1 4-1s1 0 0 0l-18-5 2-1c9 0 18 1 28 4h8l-6-1c-3-1-2-2-2-2l-1-1h-2l-8-1-12-4 1-1h3l4 1-3-1-7-1c-2 2-7 1-11 1-4-1 1-1 2-2s0-2 2-2h-6l-2-1v-1l-4 1-1 1-6 1-2-1-12-2c-4 0-6-2-10-3h-1v-2c0-2 3-3 6-3-1-2 1-3 3-3l3 1c2 1 5 1 3 2h-8l1 3h11c0-3 2-5 9-3l-3 3v2h11l5-1-2-1-5-1-4-1 1-2 8 2 15 2 2 2 16 3c0-2 2-3 4-4l6 1 5 1v1l10 1c-3-2-1-4-3-5l-1-1h-2l-2 1h-8c0-2 3-2 4-2h-1l-5-2-4-1h-4l-3-2-2-1-9-1-1 1h-14l-4-1 4-1 2-1h5l-1-1-5-1c-3 1-5 0-7-1l-16-4-11-3-21-5-17-4c-1-1 1-1 2-1l26 5c3 1 8 1 11 3h1l22 5 19 4 5 2h-1l19 4v1h2l5 1 3 1 5-2-9-2 3-2-4-1-4-1-4-1-20-4-9-2h-1v1h-12l-2-1c-2-1-2-2 0-4h2l5 2h2l-4-1v-1l6 1 6-1c2 0 5-1 5 1l-4 2 8 2c5-2 9 0 13 1 1-2-6-2-8-4l-1 1-5-1 8-1-6-2-2-3c-1-1-1-2 2-2l2 1 2-1 1-1-7-2-9-3c-1-1 0-1 2-1l-12-3c-1-1-5-1-3-3h1l16 5h1c3 1 8 1 11 3h4c4 2 8 3 13 3l1 1 9 2 5 1 9 3 8 2 4-2h2c4 0 6 2 7 3l-2 1h-2l6 1 1 1 5 1h16l7 2c3 1 8-1 9 2 3 1 6 0 8 2l3 1h5-1l-13-3c-1 0-3-1-2-2h1l3-2 3 1 2 1h2-1l-5-2-4-2h-3c-5 0-3-2-4-4l-2-1h-2l-11-2-5 1-7-2c-4-1-1-2 0-2l2-1 8-1h1l1-3 3-1 6 2c0 2 3 2 5 2v-1c1-2 3-4-1-5l-5 1-8-2v1c-2 1 0 2-2 3h-4l-3-1h-1l-6 2v2l-3 1c2 1 2 2 2 3l-2 2-4-1c-2 0-2-1-3-2-1-2 1-2 4-2l-3-1-2 2h-4c-3-1-1-2 0-3 3 0 0-1 0-1h-2l-1-3-8 2c-3-3-11-2-14-4-4 2-5-2-8 0v-1c-5 3-9-1-13 0l-16-2h-7c-2-3 6-2 5-4l4-1h1c-1-1 1-2 1-3h2l4 2v1h-4l4 1 4-1 4 1h4l1 1h8l2 1 4-1c0-1-1-2 1-2l1-2c1-1-5-3 2-4l28 6c8 0 14 2 20 4h3c6 2 13 3 20 2l1 1 7 1 2 1 5 1c4 1 2 2 0 3l-3 2-4-1h-3v1l-2 2h9l-1-2 4 1h2c0-1 4-2 1-3-1-1 0-2 1-2l10 2h1l5 2h9l6 1v-1c4 2 7 4 12 4l11 2 7 2 2 1-1 3 1 1-1 1 2 1h11l3 2c4-1 5-2 4-3h-4v-1l-5 1c-3 0-7 0-6-2v-3l4-1 8 4 7 1h4c4 0 8 1 10 3l1 1c2 1 4 1 3 2 2 0 7 1 7-1l4 1h-1c4 1 9 0 12 2v-1l9 1v-1h-3c-4 1-6-1-8-2v-3h-1l-7 1h-5l-1-1h-1l-8-1h-2c-3 0-6 0-8-2h-2l-3-2 1-1-9-2c-2 0-2-1-2-2l-4 1h-7l-9-4v-1c-3 0-7 0-8-2l-1-1h-10l-4-2c6-2 9 1 14 1h-1l10-1c1 2 7 3 7 6h5l4 1 4-3c3 0 3 3 8 2v1l9 2 6 1h2l3 2 6 1 4-1 2 1h3l2 1c5-1 7 1 10 2h2l-2 2v1l1-1c4 0 8-1 12 1l5 1 6 1c3 2 13 1 14 5h2-1l1 1c4 0 8 0 9 2l6-1c1 1 5 1 2 2-4 2 2 1 2 1l7 1c5-1 9 2 13 0h4v-1h-7c-2-1-4-2-3-3l3-1h-6c-6 2-8-1-12-2v-1l-4-1c0-2-1-3-5-2v1c-7 4-9-1-13-2l-3-1h-5l-1-2-10 1-7-2-1-1h-1c-3-1-7 0-8-2l-4-1-3-1h-2c-4 0-4-2-7-3h-1l-4-1h-11l-1-1-1-1h5l-4-3c-3 1-5 0-7-1h-5l-1-1c-4 0-7 0-8-2h-1c-5 0-9-2-14-1l-2-1h-5c-3-2-4-5-13-4-3-1-3-2 1-2h17l5 1 5 1 2 1 8 1h3l1 3 9 2 8 1 2 1 7 1c4 0 6 2 10 3 7 0 14 2 20 3h-1v1l1-1 15 4c5 0 11 1 14 3 7 0 13 2 18 4l16 3 16 4c4 0 9 0 10 3 10 1 19 3 26 6l2 1c6 0 10 1 14 3 6 0 11 1 15 3 3 0 6 0 8 2h1l8 1 2 1 11 5 13 2 16 4 7 2 6 1 11 3c5 0 6 2 10 3l4 2h8c3 1 4 3 5 4h1l7 2 7 1h3c5 0 8 3 13 3h1c7 0 7 3 11 4 5 1 13 0 15 3 5 0 10 1 12 3 6 0 6 2 3 3-1 2-5 1-7 0l-8-3-6-1h-11v-1c-4 1-7 0-8-2h-3c-3 0-7 0-9-2l-5-2h-6l-1-2h-5c-1 0-4 0-3-1l-2-1-3-1-6-1h-4l-2-1v-1l-3-1h-5l-6-3h-6l-5-1-3-1c1 1 2 2 4 1 2 1 1 2 2 3h1c1 2 5 2 7 2 1 2 6 1 7 3l-1 1h3l4 2h1l1-1h3c6 0 13 1 18 3l1 2 4 2 7 1h6v1l8 2 5 1v1c4 1 13 0 11 4l-9 1h-3v-1c-6 2-6-1-7-2h-8c-1-3-7-3-10-4v-2h1-4l-6 1c-5 0-7-1-8-3h-2c0-1-1-2 1-3-1-2-4-2-7-2-1 1-1 3-5 4v2h2l9 3h1l4 1c1 1 0 4 5 2h6l1 1 9 1c2 0 4 1 3 2h1v1h6c2 3-4 2-6 3v-1h-3l1 1 2 2 2-1 4 1h4c2 1 2 3 4 3l4 2c3-3 3-3 7-1l-4 2h2l6 1h4l7-1 2 1 1 1c2 0 3 0 3 2h1l2 1c0 4-5 5-13 4l-2-1-14-4v-1c-2-1-8 1-6-2-10 1-6-4-10-5h-1c-5 0-10 0-12-2h-7l1-3-3-1h-6l3 1c1 0 5 0 4 1h-6c-1 2 4 2 3 4h4l3 1 8 2c2 1 6 1 8 3h1l3 1 6 1v1l7 1v1h1c5 2 12 2 16 5l-1 1-7-2-14-3h-1l-1-1-14-4h-1l-9-2-12-2 1 2c4-1 6 1 8 2l5 1c5 0 6 1 3 3l-4-1-6-1v1l-1 2h4v1c2 1 1 2 0 4-2 1-1 2 2 2l6 2c1 1 1 1-2 1l-20-2-8-1v-1l-4-1-3-1c-4 2-4 3 0 4l3 2 2 1h11l1 1h3l2 2v1l8 3 3-1 2-1h10l2-1-2-2-3-1c-1-1-2-1-1-2h6v2h9l1 1c1 1 5 1 4 2v1l1 1v1c-3 0-8 0-10-2h-2l-1 1 4 2 5 1h10l-2 2-6 1-2 1 3 1 9-2h3l4 1 1 2h-1l2 4h2l2 1 2 1 8 2c5 0 9 1 8 3v1c4 1-1 3 0 4h1l4 1c-2 2 9 2 4 5h-2l-5-1-4 1-3 3-5-1-4-1-9-2c-1-2-1-3 3-3h4l-4-1h-5c-4-1-10 1-12-2h-8c-1-2-2-3-6-3l-4 1-2-1-1-1h-8v-1c-4 1-5-2-8-2 0 2-1 4 1 5l3 1 10 2 1-1c5 1 11 0 10 4l4 1c3-1 5 1 9 1l6 1c5 0 6 3 9 4 8 0 11 3 17 4h-14l7 2 6 2-2 2h-1c-4 1-4-1-7-1h-2c-2 2 1 5-8 5l-2-1v-3l1-1-1 1h-9l-6 3 6 2c2-1 4-2 8-1l-1 4-4 1h1l3 1 3 1h-7l12 4-12-1c-5-1-10-1-14-3-4 0-8 0-10-2h-3l-9-2c0 2-1 4 2 5l2 1h1l2 1 5 1c-3 1 6 5-4 3l-4 2v-4l-4 1h-1c-3-1 0-1-1-2l-1-1h-16c-2-2-8-1-11-2h-3v-2h-4l-1-3h2c1-2 8-1 8-3h-7l-6 2h-4v-2c-5-2-12-3-19-3l6-2c-2-1-5-1-6-3h-9l-10-2c-3 1-6 2-9 0l-2 1h2l2 1h1l9 2h1l3 1h2c0 2 2 2 3 3h-4c4 1 6 4 11 2 0 2-2 2-5 3 3 1 4 2 4 4l5 1h10c5-1 6 1 8 2l9 4c-4 1-6 5-12 1l-5 1v2c6 0 10 1 5 4l1 1h9l2-1c-1-2 2-3 4-5l2-1 4 2 2 1h1c0 1 1 3 4 4h2l8 1-4 2h-6c-9 0-5 2-4 3 0 2 7 2 6 5-4 1-7 2-8-1l-7 2-1-1v1c3 1 2 2-2 2l-9-1h-10c-7 0-9-3-13-5l-5-1h-2c-3 0-1-3-6-2h-2l-3-2h-3l-2 1h-1c0-2-5-1-6-2h-7l-1-2 2-1-1-1h-8l-2-1h-1c-6 1-6-2-8-3 0 1 0 2-2 2-2-1 1-2 0-3h-3l-6-3v-1c-6-1-12 0-15-3v-1h-9l2-2c1-2 1-3-5-2h-11l-3-1-2-2h-2c-5 1-10 0-16-1h-3c-1 2 2 4 0 6l10 1 1 2 5-1h5l4 1 2 1v2h-1l3 1c0 1 5 1 2 2 1 2-2 2-5 2l-1-1-2-1-2-2h-5l-9-2-1-1 1-1h-7l-1-3-5-1-2-1h-1l-5 1c-2-2-7-1-9-3-1-2 3-2 5-3h1l1-1h6v1h10c0-2 2-3 4-3l-1-1 4-2h-7c-1 2-4 3-8 1h-8l-5-1v-2h-1l-5 1h-4l-5-1-1-2c1-1 1-2 3-2h1l-2-1h-12l-1 1h-2c-3-1-8-1-6-4v-2h-2l-2 1-13-1-6-1c-2-1-1-2 0-3h-2v-1h-4l-6 2c-7 0-1-3-4-4h-2l-9-1-1-1-9-1h-1c-3-1-6-2-5-4h-1c1-1 0-1-2-2h-5c-1 1-2 2-5 1l-4-1-6 1 1-1-4 1-6-1 3-5-3-1v-2h-1c-2 2-3 4-10 4l-7-1h-3l-3 1 2 1 1 1h1l6 4c1 0 3 1 1 2-6 1-4-3-8-3l-1 1h-3l-4-1h-14l-2-1 2 4 6-2 4 4 8-2 2 4h1c5-4 6-4 18 1l-4 2 5 1 15 3 4 1h1c1 4-4 3-9 3h-4l-5 1c-4-1-7-3-6-5-6 1-9-1-13-1l-1-1-3 1c-2 2-5 2-9 2-7 0-14 1-18 3l1 1 1 1v-1c6 1 12 0 16-2h9c-1 3 3 4 9 5v-3l-7-1 12-2-2 1 7 8-1-6 12 3 6-2 3-1 5-2c2 2 9 1 9 4 2-1-1-3 4-2l5 1h6v1l2 1h2c3 0 7 1 8 3 3-1 4 0 5 1 0 3-7 0-9 2h-5l-2 1h-3l-4-2c-2-1-1-1 1-1l2-2 2 1-1-1-3-1-4 2v-1h-1l-5-1h-4c-3 2-5-1-8-1l-2-1-6 1 4 2-3 8-4-2-4 1 4 1 2 1h6l-1 2c3 1 1 1 0 2-4 0-4 1-7 2l-3 3-4-1 5-2c4-2 0-2-2-3v-1l-3-1-5 1c-2-1-3-1-2-2l-7-3v2h2c1 0 3 1 2 2v1h-2c-4 0-5 4-10 2l-6-1h-3c-2-1-7-2 1-3h4l-6-1-17-2 1-1-21-4-2-2-1-1c-10 1-17-3-25-4h-4c0-2 1-2 4-3l-2-1h-4l-4 1-7-1-4 1-8-2c-3-1-6-1-7-3l7-1 1-1 4 1-2 1v1l5 1c-2-2-1-3 2-4l-3-2h-8l-1-1h-5v-1l-5 1 2 1-1 1-7 1h-2l-2-2 1-1-5-2h-2l-2 2h-5c-3 0-6 1-6-1l3-1 3-2-2-1v-1h-8l-1 1h-3c1 1-3 1-5 2l-1-1-10-1-6-2h1v-1l-1 1-7-1v-1l-3-3h1l2-2h-1v-2l-3 1-9-1-16 1c-2-2 0-2 2-2zm33-56h1-1zm93-85l-4 1h-2l5 2h3l-2-3zm-47 2v1-1zm293 184l1 1 3 1v-2h-4zm-202-32l-1-1-2 1h3zm-22-4v-1h-1l1 1zm-18 1l4-2v-2c-2 1-5 2-4 4zm1-4l1-4c4 1 4 2 3 3l7 1v-2l3 2 4 2h7l12-4 1 3 6-2c2 0 5 0 7 2l-1-2h4l7 1c0-2 1-2 4-1l6-2h6c-1-1-3-1-2-2l2-2-2 1c-7 1-13 1-19-1l-1-2h-9c2 1 2 2 1 3l-7 1v1h-7l-4-2-2 1h-2c-3 0-4 2-9 1l7-2c2-2 4-1 6 0l2-2-2-1-1-1-6-1c2-1 5 0 8 1l1-1h10l-2-1-8-1-1-1h-1c-2 1-4 2-7 1h-4v2h-6c-1-2-4-2-7-2h-4c-2-1-4 0-4 1h-7 1c-2 5-1 9 9 12zm175 10l-3-1h-2 2l1 1h2zm164 47l4-1h-5l1 1zm95-69l-3 1 1 1h2v-2zM346 63l1 1-1-1zM211 168v1h6l5-1 1 1v-3l5-2 1 1-1-1h-1c-5 1-7-1-10-2h1-1c-2 0-2 3-6 1l-1-1h-7l-6 2v1l1-1 6 1 1 2c2-1 4 0 6 1zm179 27l1-1h7-3l-3-1h-1l-3 1v1h2zm166 42h7l1 1h2l1-1-6-2v-1h-1l4-3h-6l1 1c1 1 1 2-1 2h-3c-1 1-2 1-1 2v1h2zm26-7v-1l-4 1 4 1 2 1h1l-1-1-2-1zM193 70l-2-1 1 1h1zm36 95l-1 1 2-1h-1zm251 52h-1 1zm4-2l1-1h-3l-1 1h-1 4zm75 13h10c-1-1-1-1 1-2l-3-2h-2c0-1-1-2-4-2l-1 1 4 1h-5l-3 1-4 1v2c2 0 2 0 1 1 2 0 3 1 3 2h3c-2-1-2-2 0-3zm25 7l-5 1 1 1 4-1h5c-2 1-4 0-5-1zM504 94l-6 1 5 2h7v-2h-1l-5-1zm-26-17v-1l-7 2h1l4-1h2zm-63 1h-4l-6-1 1 1 2 1 6 1h3l1 1 3 1h4l2-1h8l2-1-4-2-1 1-12 1-5-2zm-129 92h1l-2-1-2 1h3zm342 37l2-1v-3h-10v1l2 2 4 1h2zM220 83v-1h-1l1 1zm347 68l-1-1 1 1zm-46-18h1l3 1v-1h-4zm102 55zM458 92h-1 1l2-1 2 1 2-2-6 2zm62 11l-1-1-1 2h5l1-1h-4zm68 99l2 1-2-1zM447 84h2l-2-1-1 1h1zm22 4l2-4-2 1v3zm45 15l2-2v-1h-4c0 1 0 2 2 3zm29 4v2l-2 3h7l2-1h3v-1c-3-1-10-1-9-4l-1 1zm21 3l-5 1h-1l-3 1c1 2 4 2 8 2l3-1c-3-1-3-2 0-3h-2zm16 13h3l2-1h-1l-4 1zm85 91h-1 1zM433 84v1h2v1-1h2l-1-2h-2l-1 1zm154 33v-1l3-1-7-1 3 3h2c1 1 2 2 0 3v1h3c2-1 4-2 6-1l3-2c-4 0-9 1-13-1zm-339 46l4 2 4 1h-1 2l3-2-3-2-5 1-1-1h-3l-5 1h5zm-75-79l-1 1 1-1zm309 4l-2 3 2 1c0 2-3 2-6 2h-2v1h2l8 2h7l-2-1-2-1c-2 0-4-1-3-3l3-1 1-2h-1l-5-1zm155 109s-1 0 0 0zm-99 33l7-1 1-1-1-1h-4l-10 1 7 2zm-343-78l4 1 1-1-4-1-1 1zm194-78l4 1 4-1-9-1v1zm9-5l1 1 1-1h-2zm14 3l-4 2h2l2 1 4-2-1-2h-3v1zm207 56h-2c1 1 0 2-1 2h-3c-4-1-3-4-10-3h-4 1l17 5 1-1h2v-3h-1zm29 59l-2-1h-10v1l1 1c0 2 1 2 2 2l1-1h2l6 1 1-2-1-1zm-53 48l1-1-1 1zm-135-27l-1 1 2 1 3-1h1l-5-1zm-13-1l-1-2-4-1h-2v1l7 2zm-73-16h1-1zm-38-10v-1l-3-1h-1l4 2zm-142-16l-3-2-4 2h7zm193-97l-1 2h3l2-1-1-2-2 1h-1zm147 27h3l4 1h6l3 1c2 0 9 0 2 2h9l8 1-5-2-1-1h-1l-12-1c-2-1 0-2 0-4h-3l-1-1v1h-13l2 1c1 1 0 2-1 2zm17-4h1-1zm76 40l-1 1c1 0 0 0 0 0l-2 1 5 2v-1l2-1-2-2h-2zm39 48l1-1h-5l4 1zm-15 38l5 2c0-2-2-2-5-2zm-160 1l-1-1h-2l4 2-1-1zm-311-66h2c0-2 4-2 8-2l1-2-6-2v1c-2 2-5 1-7 0 2 2 3 3 2 5zm-35-25h1-1zm-21-46h-4 1c2 0 3 1 2 2h2l1-2h-2zm6-25c2 0 6 1 7-1v1l-6-1-1 1zm4-7h-3l9 2v-1l-6-1zm91 2v-1h-2c1 0 0 0 0 0l2 1zm55 6l-6-2-2-1c-3 0-6 0-7-2h-8v-1l-8 1-9 1h2c3 2 7 2 11 1l4-1h2v3l10 2v-2c2 0 6 0 5 2h-5v1h7l2 1h2l4 2h5l1-1c4 0 9 0 11-2h-4c-3 0-7-2-11 0-1 1-6 0-4-2h-2zm71 9h1v-1l-1 1zm23 2h-2c-3-1-7 0-10-2v1h-3l1 1 1 1h8l2 2 1 1h2l-1-1c0-1 0-2 2-2l-1-1zm-14-9zm33 6h3c-1-1 0-2 2-2-3 0-5 0-5 2zm116 20l-9-3h-1l-8-1c-2 0-6 0-5-2h-2v1l5 2 4 1 4 1 4 1h1l1 1 4 2h7l3 1 5 1 2 1h8-1 1-1v-2l-3-2h-2c-4 0-7 0-8-2h-9zm145 50l-1 2 2-1h1l-2-1zm20 43h1v-1l-1 1zm12 11l-3-1v1h3zm-16 2c-1 0-1 0 0 0-1 0 0 0 0 0zm25 16h-3l-1 1-3 1c3 0 4 1 5 2l-1 2 2-2h2l1-2-1-1-1-1zm-25 15l-3-1 3 1zm-87 3h4-4zm19 10h-2l-1 1h10l-2-1h-5zm-4 13h5l1-1-5-1-6-1h-2v1l7 2zm-81-16l3-1c-1-1 2-2 4-2l2-1-1-3-5 1-4 4c2 0-2 2 1 2zm-12-11l6-1v-1l-5-1-3 1v2h2zm-10 1l5 1 3-2-6-2h-2l-2 1c-2 0-2 1-2 2l1 1 3-1zm-209-22v-1h1l1-2-1-1-1 1-1 2 1 1zm17 14l-11-1-1-1c-3 0-7-2-12-1l14 5h4l7 1-1-3zm-45-2v-2h-1v2h1z" class="st0"/>
    <path d="M219 202v-2l4 1c0 1-1 2-4 1zm210 35h2c0 2-1 3-5 2l3-2zm58 14h-11c1-2 5-1 7-2 4 0 5 1 4 2zm-5-5l2 2c-4-1-8 0-10-2h-2c-2-1-3-2-1-3-4-1-8-1-11 2l-1-1 2-5 12 3h1c1 1 5 1 4 3l4 1zm79 6h4l-3 1c-2 2-4 1-7 0h-2c2-2 5-2 8-1zm-8-3h4l-3 1-1-1zm-58 4l-1-1c3-1 5-2 7 0 0 0 2 1 0 1h-6zm293-35c2 0 4-1 4 1-1 1-3 2-5 1s-2-1-1-2h2zm-272 61c4 0 6 3 11 1h10v1l8 1 7 2v1l1 1h-4l-3 1h-2c-3 1-6 0-9-1-2-2 9 0 4-2l-4-1-2 1h-2l-4-2-4 1c-6 2-2-3-7-3 0 0-2-1 0-1zm-8-6h2l4-1 6-1h5l4 1 1 4c-5 3-8 1-12-1-5-1-9 2-14 0 1-1 5-1 4-2zm174-130l4-2 4 2h-8zm94 73l-6 1-1-1v-1c3-1 5 0 7 1zM148 75l-5 1 1-2 1-1c2 1 4 1 3 2zm152 150c3 3-3 1-6 2 0-2 3-2 6-2zM142 31l-11-1h-1c-1-1 0-2 2-3h10c1 1 5 3 0 4zm427 224c0 2-3 2-6 3-3-3 2-3 6-3zm92-95c2-1 0-2 2-3l2 1v3l-4-1zm42-14c-1 1-3 2-7 1 2-2 5-1 7-1zm-563 29h-4c-1 0-3-1 0-1 2-1 2 1 4 1zm366 98l-5-2h-1l1-1h4l1 3zm-88-45h-8l4-2 7 1-3 1zm-206-51v-2h4c1 1 1 2-4 2zm393 50v-1c-5 0-6-2-6-4 2 1 7 0 7 2h2l1 2-1 2c-3 1-1-1-3-1zm-231-21l1 1v1c-5 2-5 0-6-1l5-1zm13 15h-2l-1 2-1 1-16 4v-5h-1l1-2-3-1-4-4 14 2c1-1 2-2 5-2l4 2 3-1c4 2 2 3 1 4zm13-3c-1-1 0-1 1-2l3 1c2 0 3 0 2 1h-6zm37 3h3l-1 1-2-1zm-14-4l1 1-1 1h-5c-2 0-3-1-2-2h7zm-115-27l7 1h3c3 1 6 3 7 5l2-2h3c4 1 1 3 2 5-1 1-1 2-3 2-4 1-6 0-8-1h-1c-3-1-2-2-1-3l-3-1-10-2-8-2v-1l2-1 1-1h-3l2-3 6 1v2l2 1zm-17-6h6v2c-3 0-6 0-6-2zm101 29h-1c-4-2 0-3 4-4h2v1l-4 3h-1zm-12-8l4 1c-2 1-2 2-2 3h-1c1-2-3-3-1-4zm-13 0v-1h-10c-5-1-11 1-15-2l-2-1c-2-2 1-2 4-2h2-2c-2 0-5 0-2-1l9-1 2 1v1l10 2h6l1 1h1c-1 1-1 3-4 3zM40 149c10 5 10 0 14-1l-8-2 19-2c7-3 11-1 16 0l7 3-7 3c15 0 1 5 6 6l8 1-6 1v1h18l-17 5-1 3-9-2c-4-2-13-1-11-5-7-1-13-4-18 0l-7-2-4-9zm293 74c10-1 17 1 19 5-9 0-18-2-19-5zm-214-53c8-5 11-5 22-1h-10l2 1h-3l-2-1 3 5-12-4zm8-1h-1 1zm282 58l1 1-1 2-1 1-2 1-8-1c-3 0-3-1-4-2h-5c-3 1-6-1-9-1v-3h4l2-2c7-2 8-2 10 1l3-1c3 0 5-1 7 1l-1 1h1l1 1 2 1zm43 16l-12-5h-1v-1h-1 1c-1-1-1-1 1-2l3-1c1 1-1 2-1 2l-1 1 18 5-7 1zm-29-3h3l3 4-10 1 4-5z" class="st0"/>
  </g>
</svg>
