<?xml version="1.0" encoding="utf-8"?>
<!-- Generator: Adobe Illustrator 22.0.0, SVG Export Plug-In . SVG Version: 6.00 Build 0)  -->
<svg version="1.1" id="Layer_1" xmlns="http://www.w3.org/2000/svg" xmlns:xlink="http://www.w3.org/1999/xlink" x="0px" y="0px"
	 viewBox="0 0 1818 493" style="enable-background:new 0 0 1818 493;" xml:space="preserve">
<style type="text/css">
	.st0{fill:#04E762;}
</style>
<path class="st0" d="M1457.4,474l6.1-3l2-1h3l1-1h1l6.1,1l-4,1h6.1c2,0,6.1,0,4,2l-5.1,1h-1l-1-1v1l1,1h12.1l4,1v1l2-1c2,0,4,0,3,2
	l-6.1,1l-6.1-1h-1l-6.1,1l-5.1-2h-1c-3,1-6.1,2-9.1,1l-2-2C1464.4,474,1455.3,476,1457.4,474z M1735.7,372c-2-3-7.1-1-10.1-2
	c4-2-13.2-3,0-5c1,2,2,1,4,1c5.1,1,8.1,2,9.1,4C1739.8,372,1736.7,373,1735.7,372z M1535.3,452c6.1-1,8.1,3,13.2,2c2,2,0,3-2,4
	l-13.2-1l-4-2c-4-3,2-2,4-3l1,1L1535.3,452z M1738.7,386h-9.1l-4-3h-1c-2-1-5.1-1-5.1-3h2c6.1-2,7.1,2,11.1,1c5.1,0,4,3,6.1,3V386z
	 M1300.5,229h-2l-2,1l-3-1l-6.1-2c-1-1-4-1-3-2l4-1l14.2,1c1,1,2,2,0,3L1300.5,229z M1727.6,329c-3,2-5.1,0-7.1-1l-3-1
	c-2-2-12.1,1-13.2-3l-6.1-1l-7.1-2c-7.1,0-12.1-3-17.2-4l-6.1-2c-7.1,1-11.1-1-17.2-2l-6.1-2l-7.1-1v-3h-8.1c-2-3-10.1-1-12.1-3
	l-1-1c-3,1-6.1,0-8.1-1c-6.1,0-11.1-2-15.2-3l-8.1-2l-6.1-2c-1-1,0-1,1-1l-5.1-1c-9.1,0-18.2-1-25.3-5l-5.1-1c-4,0-4-1-6.1-2
	l-10.1-2h-1l-7.1-1l-7.1-2h-2c-2-2-4-3-9.1-3l-6.1-1l-2-1l-15.2-2v-1h-1c-7.1,0-11.1-2-15.2-3l-1-1l-8.1-1l-2-1l-4-2
	c-7.1,1-11.1-2-17.2-3h-7.1c-2-5,3-3,8.1-2h1l3-1l-4-2h-1v1h-4c-6.1,2-11.1,0-16.2-1l-1-1h-2c-4,0-6.1-1-8.1-3c-2,0-3,2-5.1,0
	c-7.1,0-13.2-2-18.2-4l-8.1-1l-2-1v-2h-7.1c-2,0-2-1-2-2h-1l-8.1-1h-7.1c-6.1-2-13.2-3-11.1-7l-1-1c-4,0-6.1,1-7.1,2l-4-1l-4-2l-2-1
	h-1l-7.1-2l8.1-1h4h-1h2l3,1l3,1c4,1,8.1,0,10.1,2c5.1,2,10.1,3,17.2,3c3,1,9.1,0,12.1,2h2l1-1c2,2,10.1,1,10.1,4
	c7.1,0,14.2,1,19.2,3l-1,1l1,2l2,1h4l3-1c2,1,2,2,1,3l2,1l2-1l1-2h4c0,1-1,2-4,2l1,1h11.1l29.4,7c14.2,1,22.3,6,34.4,8
	c6.1,1,12.1,1,15.2,4h2l8.1,1l7.1,1c3,1,6.1,1,6.1,3c4,2,11.1,2,16.2,3v1l7.1,1l10.1,3c9.1,1,16.2,4,24.3,6l6.1,1
	c5.1,0,7.1,2,10.1,3l6.1,1c7.1,1,16.2,2,21.3,6c6.1,0,12.1,1,17.2,3l8.1,2c4,0,9.1,1,12.1,3l11.1,3l18.2,3c4,0,7.1,2,8.1,3l9.1,1
	l5.1,2c3,1,8.1,1,9.1,3c3,0,5.1,0,6.1,2h5.1c1,1,5.1,2,3,3C1734.7,329,1730.6,329,1727.6,329z M1557.6,283L1557.6,283z M1799.5,430
	c3-1,6.1-2,10.1-1l6.1,3c4,1,2,3,0,4c-2,2-4,3-8.1,2l-6.1-3v-1c-3,0-7.1,0-3-3L1799.5,430z M1159.8,383h-15.2c-1-1-2-2-1-3h12.1
	l-2-2l3-1l14.2,6h-1l-6.1-1v3l-4-3V383z M1735.7,463c-2,0-4,0-3-1l5.1-1l4,1l1,1l1,1l1,3h-1c0,2-3,2-6.1,2c-5.1,1-4-1-5.1-2l-3-1
	l-3-2C1729.6,463,1733.7,465,1735.7,463z M1674,363l2,1l4,2v2c-5.1,1-4-3-8.1-2l-6.1-2L1674,363z M1759,418v1l8.1-1h5.1
	c1,3-4,2-7.1,2v1c-6.1,2-9.1-1-14.2-2C1751.9,417,1757,418,1759,418z M1702.3,454l6.1,1v2l-5.1,1l-5.1-1c-1-2,1-2,3-3H1702.3z
	 M1671.9,451h-2c0-2,3-2,6.1-2h8.1h2l5.1,1l2-1l2-1l4,1l2,1v2h-12.1l-6.1-1H1671.9z M1731.7,359c-2-2-7.1-1-9.1-2h1
	c3-3,6.1-3,12.1,0l2,1C1736.7,360,1731.7,360,1731.7,359z M1493.8,482h6.1l2,1l-4,3l-6.1-1C1491.8,484,1491.8,483,1493.8,482z
	 M1273.2,247l-7.1-1c2-4,6.1-2,10.1-1C1277.2,246,1277.2,247,1273.2,247z M1457.4,456l-4-2c2-2,4-2,8.1-1c5.1,1-1,2,0,2L1457.4,456z
	 M1440.2,436c-3-1-10.1,0-8.1-3h8.1C1439.1,434,1442.2,435,1440.2,436z"/>
<path class="st0" d="M1509,474h-1c-2,2-4,2-7.1,2h-3l-1-1l-6.1-1l3-1l4,1l8.1-1L1509,474z M1055.5,284h-2l-4-2v-2l6.1-1h9.1
	c1,1,9.1,0,7.1,2h-12.1l-3-1C1055.5,282,1057.6,283,1055.5,284z M1724.6,424h2l5.1-2c8.1,0-1,3,3,3c9.1,1,12.1,5,18.2,7l1,1h-1l1,3
	h-6.1l-3-1l-6.1-1l-1-4l-9.1,1h-2l-2-1V424z M1744.8,435h-1H1744.8z M1743.8,433l-1-2h-3L1743.8,433z M1584.9,495c-1,3-5.1,2-8.1,2
	C1577.8,495,1580.8,495,1584.9,495z M1430,428h2c2,2,0,3-2,5h-2l-1-3L1430,428z M1476.6,482l-6.1-2h6.1
	C1477.6,481,1482.7,482,1476.6,482z M1097,255c-1-1-5.1-2-1-3l4,1L1097,255z M1680,447c0-2,1-2,4-2l2,1l-4,2
	C1679,448,1680,447,1680,447z M1105.1,243h-1v-2l-4-2c-1-2,2-1,4-1l2,1v1C1109.2,241,1111.2,243,1105.1,243z M1036.3,276v1l-2,2
	l-4-1l2-2H1036.3z M1205.3,261h-3l-6.1-2h4C1203.3,259,1204.3,259,1205.3,261z M1124.4,357h4c2,1,2,1-2,1l-1,1
	C1121.3,358,1122.3,357,1124.4,357z M1730.6,458c2,0,5.1,0,5.1,2C1728.6,460,1728.6,460,1730.6,458z M1718.5,352h-10.1l-2-1l-6.1-1
	c-2,0-3-1-3-2h-2l-4-2h10.1l4-1l4,2c1,1,5.1,1,5.1,3l2,1C1716.5,351,1720.5,351,1718.5,352z M1433.1,438l-1-1c11.1,3,11.1,3,4,7
	l-2-4h-4l-3-1h-3l-5.1,1l-1,1h-2l-1,1l6.1,1c-3,2-5.1,1-8.1,0l-5.1-1v-1l2-1l8.1-1l1-1l6.1-1l3,1H1433.1z M1436.1,450l-2-1l4-2
	C1439.1,448,1440.2,449,1436.1,450z M1797.4,428c1-2,4-1,6.1-1h2C1803.5,428,1800.5,429,1797.4,428z M1513,460
	C1514,460,1513,460,1513,460c-2,1-5.1,1-5.1-1h2L1513,460z M1515.1,488v1h-6.1L1515.1,488z M1716.5,461c2,0,0,1,0,1h-4v-1H1716.5z
	 M1090,341l-4,1v-2C1087.9,340,1091,340,1090,341z M985.7,267c2,0,5.1,0,4,2h-4V267z M1206.4,381v2c-3,0-6.1-1-2-2H1206.4z
	 M1115.3,349c-2,0-3-1-3-2h3C1116.3,348,1118.3,349,1115.3,349z M1015.1,276c-2,1-4-1-4-2h4C1016.1,275,1018.1,276,1015.1,276z
	 M1041.4,378l6.1,2l-2,1c-3,0-4-1-5.1-2L1041.4,378z M1564.7,492c2,0,4,1,3,2c-2,2-5.1,0-7.1,1c-1,1-1,3-5.1,3c-2-1-1-2-1-3v-1l3-1
	C1558.6,492,1561.6,491,1564.7,492z M1554.5,494h-1H1554.5z M1461.4,445c-3,2-6.1,1-8.1,0H1461.4z M1102.1,254h3c3-1,6.1,0,7.1-2
	h6.1c0,1,6.1,3-1,3l-2,1l-6.1,1C1103.1,258,1104.1,255,1102.1,254z M1115.3,258l4,1h2l2,1v1h-6.1l-4-1l-2-1v-1H1115.3z M1325.8,435
	h4c3-1,5.1,2,9.1,1l1,2c3,1,5.1-2,9.1-1v1l4,1c3-2,5.1-1,8.1,0l9.1,1v1h-2l18.2,6v3h5.1l-3-3h1l-2-1c1-4,3-4,10.1-2l3,4l7.1-5l2,1
	l1,4c-2-1-4,0-5.1,1l3,1l-1,2c3,2,7.1,2,11.1,2h2c3,1,6.1,1,5.1,3c-1,1,1,1,3,2c5.1-2,3,0,4,1h7.1h10.1l6.1,1h-1v1l1-1
	c2,2,5.1,0,7.1,0c7.1,2,1,4,0,6h-4l-3,1l-1-1l-3-1l-4,1h-13.2c2-1,1-1,1-2l-2-2h-9.1c-3-1-1-1,0-2l-1-1h-16.2c-2-1-2-2-2-3l-2-1v1
	l-4-2v-1h-9.1c-4-3-9.1-2-14.2-2h1l-9.1,4l-2-1l2-3l-8.1-2l-11.1-2c-2,1-5.1,0-6.1-1l3-1l3,1l4-2h-2v-2c-2-1-4-2-4-4l-3,2l3,4
	c-4,0-9.1,0-11.1-2l4-2v-1l-9.1-1c-1,2-3,2-4,1c0-2-3-4-7.1-4C1320.7,434,1323.8,435,1325.8,435z M1450.3,463h-3l1,1L1450.3,463z
	 M1401.7,453h-1H1401.7z M1419.9,458h-1H1419.9z M1392.6,447h-2l6.1,2l1-1L1392.6,447z M1384.5,450h-1H1384.5z M1510,449l3-1
	c4-1,6.1-1,9.1,1c4-1,7.1,0,11.1,1v2l-12.1-2l-9.1,2l-4-2L1510,449z M1655.7,457l10.1,3h8.1l2,1l4,2v1c3,1,3,3,1,4h-7.1
	c-3-1-1-2,0-3l-6.1-1l-3-2h1h-5.1C1649.7,462,1654.7,459,1655.7,457z M1654.7,464l-6.1,1l2-3L1654.7,464z"/>
<path class="st0" d="M1076.8,385c5.1,0,8.1-2,13.2-1l4-1l7.1,1l1,1l1-2c4,0,7.1,0,8.1,2h5.1c1,1,1,2-1,3l-4-1l-3,1l1,1l1,1l-1,1l3,2
	h3v-1l4-1l1-1l1,1v-3c1-2,4-1,7.1-1c1,1,1,2-2,3l-1,1h-1h21.3l8.1,4h4c5.1-2,7.1,0,11.1,1h2c5.1,0,10.1,0,14.2,2l4,1l2,1l13.2,4v1
	l-4,1c0,1-2,2,0,2l6.1,1c2,0,5.1-1,5.1,1l6.1,1h8.1c4,1,5.1,3,6.1,5l4-1h-1h1c1-1,1-3,6.1-2c2,1,7.1,2,9.1-1h2l2,1l4-3l-12.1-5h2
	l-1-3l-4,1c-5.1-1,0-2,0-4c-6.1,1-8.1,1-11.1-1h-4l3,4l-7.1-3l-5.1-3v-3h-1l-2,1l3,2l-4,5l-2-1h-9.1l-6.1-1c-2-1-2-2-1-3l5.1-2
	l-16.2-4h-1l-3-1l1,6c-9.1-1-1-7-12.1-7l-4,4h-2v-7l12.1-1c-4-3-3-6,2-7l-2-3v-1h2l2-3c2,0,3,2,4,0c2-3,5.1-1,8.1,0c5.1-1,5.1-2,2-4
	H1177l6.1,1l-9.1,3l-5.1-3l-6.1,1l-1-1l9.1-3l3,1c0-2-2-3-5.1-4l-2,2l-3,1l-4-1l-2,1l-4-2l6.1-2c3-2,6.1-4,12.1-3l5.1-2h1h-1v-1
	h-17.2c2,3-5.1,4-7.1,6l-5.1,3h3c2,0,3,1,2,2v1l2,2h3v2h-4l-3,1l-2,1c-7.1-1-14.2,0-19.2-2v-3l8.1,1h1l12.1-2h-2c-2-1-6.1,0-7.1-2
	h-10.1c-3,0-6.1,0-4-2l2-1l4-1l3,1l-2-1l2-1h4l1-3l1-2c3-2,8.1-2,13.2-2h12.1l5.1-1l-4-1h-3l-11.1-3l-1,1h-1l-6.1,1l-2-1l-2-2l3-1
	l-12.1-2v-1v1l3,2l2,1v1c-3,0-5.1,1-5.1-1l-2-2l-5.1,1c-1,0-2,2-3,0c0-1-1-3,2-4h3c-1-1-2-1-1-2c4,1,7.1,2,6.1-2l-9.1-2l-5.1-1
	l-5.1-2l-1,1l-14.2-4l-2-1l-5.1-1l-2-1l-27.3-8h6.1c0-1-4-1-2-2l7.1,1l1,1l8.1,2h5.1c-1-2-5.1-1-7.1-2s-5.1-1-2-2l22.3,5h2h-1l-2-1
	l-19.2-4l2-1h3l14.2,3l-6.1-2l10.1,1l10.1,3l2-1c-4-1-4-4-10.1-4c-5.1-1-5.1-4-10.1-5l2-1l11.1,2h2c2,1,4,1,3,2h1
	c5.1,1,12.1,1,16.2,3l4-1c3,0,1-1,0-2c-1-1-7.1,0-6.1-2l1-1l4-1c0,0,1-1,0,0l-17.2-5l2-1c9.1,0,18.2,1,27.3,4h8.1l-6.1-1
	c-3-1-2-2-1-2l-2-1l-1-1h-8.1l-12.1-4l2-1h2l4,1l-3-1l-7.1-2c-2,3-7.1,2-11.1,2c-4-2,1-2,2-2c1-1,0-2,2-2h-6.1l-2-1v-1l-4,1l-1,1
	l-6.1,1l-2-1l-12.1-2c-4,0-6.1-2-9.1-3h-2v-2c0-2,3-2,6.1-3c0-2,1-3,4-3l2,2c2,0,5.1,0,4,1h-7.1l-2,1l1,2h11.1c0-3,2-4,9.1-2l-3,2v3
	l1-1c4-1,7.1,1,10.1,1c1-2,3-2,5.1-2l-2-1l-5.1-1l-4-1l1-2l8.1,2l15.2,3l2,1l15.2,3c0-2,2-3,4-4l6.1,1l5.1,2c0,0,1,0,0,0l10.1,1
	c-3-2-1-4-3-5v-1h-3l-2,1h-7.1c-1-2,2-2,4-2h-1l-5.1-2l-5.1-1h-4l-3-2l-2-1c-3,1-6.1,0-8.1-1l-2,1h-13.2c-1,0-4,1-4-1l4-1h2l5.1-1
	h-1l-4-2l-1,1l-6.1-2l-17.2-4l-11.1-3l-20.2-5l-17.2-4l2-1l25.3,5c4,1,9.1,1,11.1,3h1l22.3,5l19.2,4l5.1,2l17.2,4v1h3l5.1,2h3l4-2
	l-9.1-2l3-2l-4-1l-4-1l-4-1l-19.2-4l-9.1-2h-1l1,1h-11.1l-2-1c-2-1-2-2,0-3h1l5.1,1h2l-3-1l-1-1l6.1,1l5.1-1l5.1,1l-4,2l8.1,2
	c6.1-1,10.1,0,14.2,1c0-2-7.1-2-8.1-4l-2,1l-4-1l7.1-1l-6.1-2l-2-3c0-1,0-2,3-1h1l2-1l1-1l-7.1-2l-9.1-3l2-1c-4-1-7.1-3-11.1-3
	c-2-1-5.1-1-4-2l1-1l16.2,5h1c3,1,8.1,1,11.1,3l4,1l13.2,3h2l8.1,2l5.1,1l9.1,3l8.1,2l4-2h2c5.1,0,6.1,2,8.1,3l-2,1h-3l6.1,1v1
	l5.1,1h17.2l6.1,2c4,1,8.1-1,10.1,2c2,1,6.1,0,7.1,2l4,1h4h-1l-12.1-3c-2,0-4,0-2-2h1l3-2l3,1l1,1h2l-6.1-2l-3-2l-4,1
	c-5.1-1-3-3-4-5l-1-1h-2l-12.1-1h-5.1l-7.1-2c-3-1-1-1,0-2l3-1l8.1-1l2-3h3c2,0,5.1,0,6.1,2c0,2,2,1,4,1v-1c1-2,3-4-1-5l-5.1,1
	l-8.1-2h1l-1,1c-1,1,1,2-1,3h-4l-3-1h-1c-2,1-3,3-7.1,2l1,1v1l-3,1l2,3c-1,1-1,2-3,2l-3-1l-4-2c0-2,2-2,4-2l-2-1l-3,2h-3
	c-3-1-1-2-1-3c3,0,0-1,0-1h-1c-1-1-2-2-1-3l-9.1,2c-2-3-9.1-2-13.2-3c-4,1-4-3-8.1-1v-1v1c-4,2-9.1-2-13.2-1l-15.2-2h-8.1
	c-2-3,6.1-2,6.1-4h4l1-1c-1-1,0-2,1-3h1l4,2v1l-3,1h4l3-1l4,1l1,1l3-1l2,1h7.1l3,1l3-1c0-1,0-2,2-2v-2c1-1-5.1-3,2-4l29.4,6l-1,1h1
	v-1c7.1,0,13.2,2,19.2,4h4c5.1,2,12.1,3,19.2,2v1l7.1,1l2,1l6.1,1c4,1,2,2,0,3l-4,2h-4v-1h-2l-1,1l-1,2h8.1v-2l4,1h2c-1-1,3-2,0-3
	c0-1,0-2,2-2l9.1,2l2,1l5.1,1h8.1l6.1,1l1-1c3,2,5.1,4,11.1,4l9.1,2l8.1,2l1,1c0,1,1,3-1,3l1,1l-1,1l2,1h6.1l1,1h4l3,1
	c4,0,6.1-1,4-3h-3l-1-1l-5.1,1c-3,0-6.1,0-6.1-2v-3l4-1l8.1,4l7.1,1l4,1c4,0,8.1,0,11.1,2l-1,1h2c2,1,3,1,2,3c2-1,7.1,1,7.1-2l4,1
	c3,1,8.1,0,12.1,2l-1-1c3,1,6.1,2,10.1,1l-3-1h-1c-4,1-6.1-1-7.1-2l-1-3h-1l-6.1,1h-6.1l-1-1h-1l-8.1-1h-1c-3,0-7.1,0-9.1-2h-1l-4-2
	h1l-9.1-3l-2-2l-3,1h-8.1c-3-1-6.1-2-7.1-4h-1c-3-1-7.1-1-7.1-3l-2-1h-10.1l-3-2h-1c6.1-1,9.1,1,14.2,1h9.1c1,2,6.1,3,6.1,5h5.1
	l5.1,1l3-3c4,1,4,3,8.1,3l10.1,2l5.1,1h2c2,0,3,1,3,2l6.1,1l4-1l2,1h4l2,1l10.1,2h1l-1,3h-1h1c4-1,9.1-2,13.2,0l5.1,1l4,1
	c4,2,13.2,2,14.2,5h2l1,1c3,0,7.1,0,8.1,2l6.1-1c2,1,5.1,1,2,3c-4,1,2,0,2,1h7.1c5.1,0,9.1,2,14.2,0l2,1l2-1l-1-1h-7.1c-2,0-4-1-3-3
	l3-1h-6.1c-6.1,2-8.1-1-12.1-1v-2l-3-1c-1-2-2-3-6.1-2l1,1c-8.1,4-9.1-1-13.2-2h-3l-6.1-1v-1h-9.1l-7.1-2l-1-1h-2c-2-1-7.1,0-8.1-2
	l-3-1l-4-1h-2c-3,0-4-2-6.1-3h-6.1v-1h-11.1v-1l-2-1h5.1l-4-2l-7.1-1l-5.1-1v-1c-5.1,1-8.1,0-8.1-2h-2c-5.1,0-9.1-2-13.2-1l-2-1
	h-6.1c-3-2-4-5-11.1-4c-3-1-3-2,1-2h16.2l4,2l6.1,1h1l8.1,1l4,1v2c3,1,8.1,1,9.1,3h8.1l2,1l7.1,1c5.1,0,6.1,2,10.1,3
	c8.1,0,14.2,2,20.2,3h-1v1l1-1l14.2,4c6.1,0,11.1,1,14.2,3c8.1,0,13.2,2,19.2,4l15.2,3l15.2,4c5.1,0,9.1,0,11.1,3
	c9.1,1,18.2,3,25.3,6l3,1c5.1,0,10.1,1,13.2,3c6.1,0,11.1,1,16.2,3c3,0,6.1,0,7.1,2h2l6.1,1l2,1c5.1,1,9.1,3,11.1,5l14.2,2l15.2,4
	l8.1,2l5.1,1l12.1,3c4,0,6.1,2,9.1,3l4,2h7.1c4,1,4,3,6.1,4l8.1,2l6.1,1h3c6.1,0,8.1,3,13.2,3h2c7.1,0,6.1,3,10.1,4
	c5.1,1,13.2,0,16.2,3c5.1,0,9.1,1,11.1,3c5.1,0,5.1,2,4,3c-2,2-5.1,1-8.1,0l-7.1-3l-6.1-1h-12.1v-1c-3,1-7.1,0-8.1-2h-2
	c-4,0-7.1,0-9.1-2l-5.1-2h-6.1l-2-2h-5.1c-1,0-4,0-2-1l-3-1c1-1-2-1-2-1l-6.1-1h-3l-3-1v-1l-3-1h-5.1l-5.1-3h-7.1l-4-1l-3-1
	c1,1,1,2,3,2c3,0,2,1,2,2h2c0,2,4,2,7.1,2c0,2,5.1,2,6.1,3v1h2l5.1,2h1v-1h3c7.1,0,14.2,1,18.2,3l2,2l4,2l5.1,1h6.1v1l8.1,2l5.1,1
	l1,1c3,1,12.1,0,11.1,4l-10.1,1h-3c-6.1,1-5.1-2-6.1-3h-9.1c0-3-6.1-3-9.1-4v-2h-4l-5.1,1c-4,0-7.1-1-8.1-3h-1c0-1-2-2,0-3
	c0-2-3-2-6.1-2c-2,1-2,3-6.1,4v2h2l10.1,3l4,1c2,1,0,4,6.1,2h5.1l1,1v1h8.1c2,0,4,1,3,2h2v1h1l4,1c2,2-3,1-6.1,2l-2-1v1l2,2l2-1l4,1
	h4c2,1,2,3,4,3l4,2c4-3,4-2,7.1-1l-4,2h2l6.1,1h2h2l7.1-1l2,1l1,1c2,0,3,1,3,2h1c2,0,2,1,2,2c0,3-5.1,4-12.1,3l-3-1
	c-5.1-1-10.1-2-13.2-4v-1c-1-1-8.1,1-6.1-2c-10.1,1-6.1-3-10.1-5h-1c-5.1,0-10.1,1-12.1-2h-7.1l2-3l-4-1h-6.1l3,1c2,0,5.1,0,4,1
	c-1,2-4,1-6.1,0c0,2,5.1,3,3,4l4,1h4l7.1,2l8.1,3l1,1h3l6.1,1v1h1l6.1,1v1h2l16.2,5l-2,1l-6.1-2l-14.2-3h-1l-2-1
	c-4.6-1.4-9.4-2.4-14.2-3l-1-1l-9.1-2l-12.1-1l1,1l8.1,2l6.1,1c4,0,5.1,2,2,3c-2,1-4,0-4-1h-6.1l-1,2h4v1c2,1,2,3,0,4c-1,1-1,2,3,2
	l5.1,2c2,1,1,1-2,1l-19.2-2l-9.1-1v-1l-3-1h-3c-4,1-5.1,2-1,3l4,2l1,1h11.1l1,1h3l2,2v1l8.1,3l4-1l2-2h11.1l-1-2l-4-1l-1-2l4-1l2,1
	l1,2h9.1v1c2,0,6.1,0,5.1,2h-1l2,1v2c-4-1-8.1,0-10.1-2h-2l-1,1l3,2l6.1,1l2-1l7.1,1c0,1,1,1-1,2h-6.1l-2,1l2,1l10.1-1l1-1h2l4,2v1
	l2,4l2,1l2,1l2,1l7.1,1c6.1,0,9.1,1,8.1,4v1c4,1-1,3,0,4h2l4,1c-3,2,8.1,2,3,4l-2,1l-4-1l-5.1,1c0,1,0,2-2,3l-6.1-1l-3-1l-10.1-3
	c-1-1,0-2,4-2h3l-3-1h-6.1c-3-1-10.1,0-12.1-2l-5.1-1h-4c0-1-2-2-5.1-2h-6.1l-2-1l-8.1-1l-8.1-2c1,2,0,3,2,5l2,1l11.1,1h1
	c4,1,11.1,0,10.1,4h3c4-1,6.1,2,9.1,1l1,1l5.1,1c6.1,0,6.1,3,10.1,4c7.1-1,11.1,2,17.2,3l-8.1,1h-6.1l6.1,2l6.1,2l-2,1v1
	c-4,1-4-2-7.1-2l-2,1c-2,2,0,5-8.1,4h-2c-2-1,0-3,0-4c-4-1-7.1,0-10.1,1l-5.1,3l5.1,1c3,0,5.1-2,8.1,0v4h-4v1h3l3,2h-6.1
	c3,1,8.1,1,11.1,3h-11.1c-5.1-1-11.1-1-15.2-3l-10.1-2h-3l-8.1-2c-1,2-2,3,2,4l2,1h1l2,2l4,1c-2,0,6.1,4-4,3l-3,2v-4c-2-1-4-1-4,1
	h-2c-3-1,0-2,0-3h-2c-3-2-7.1,0-10.1-1h-5.1l-10.1-1l-3-1l-1-1h-3l-2-3l3-1c0-2,7.1,0,6.1-2l-4-1l-1,1l-6.1,1h-4v-2
	c-6.1-2-12.1-2-20.2-2l7.1-3l-7.1-2h-2l-7.1-1l-10.1-1c-2,0-5.1,1-8.1-1l-3,1h2l3,1h1l8.1,3l1-1l4,1l2,1c-1,1,1,2,2,2l-3,1
	c4,0,5.1,3,11.1,1c0,2-3,3-6.1,3c3,1,5.1,2,4,4l6.1,1h7.1l2,1h1c4-1,6.1,0,7.1,2l10.1,3c-4,1-7.1,5-12.1,1l-6.1,2l1,1
	c6.1,1,9.1,2,5.1,5v1l10.1-1l2-1c-1-2,2-3,3-4l2-1l4,1l2,1h2c-1,2,1,3,4,4h2l7.1,1l-4,2h-6.1c-8.1,0-5.1,2-3,4c0,2,6.1,2,5.1,4
	c-3,1-6.1,2-7.1-1l-8.1,2c2,2,1,3-3,2h-10.1l-8.1-1c-8.1,0-9.1-3-13.2-5h-8.1c-2-1,0-4-6.1-3h-1l-3-1v-1h-3l-1,1h-3c0-2-4-1-6.1-1
	l-6.1-1v-1l2-1l-1-2h-8.1l-2-1h-2c-5.1,1-5.1-1-7.1-2l-2,1c-2,0,1-2,0-2h-4l-5.1-4h-1c-5.1-1-12.1,0-15.2-3c-1-1,0-2,1-2h-9.1l1-2
	c2-2,1-3-5.1-2h-5.1l-6.1,1l-2-2l-2-2h-2c-5.1,1-10.1,1-15.2-1h-4c0,3,3,5,0,7c4-1,7.1,0,10.1,1l1,1l4-1h4l2,1l3,1l2,1v2l3,1
	c-1,0,4,0,2,1c0,3-2,3-6.1,2v-1l-2-1l-3-1l-5.1-1l-7.1-1l-1-2h1c-1-2-4-1-6.1-1h-2v-2l-6.1-2l-2-1h-1v1h-4c-3-1-7.1-1-10.1-3h1
	c-1-2,3-1,5.1-2l2-1h6.1h2l1,1l1-1h5.1l5.1-3h-2l4-2v-1h-7.1c-1,3-3,3-7.1,1h-8.1l-6.1-1v-1v-1l-6.1,1h-4c-2,1-3,0-4-1l-1-2l3-2
	l-1-1h-12.1l-2,1h-1c-3-1-9.1-1-7.1-3c2-1,2-2,0-3h-1l-2,1l-12.1-1l-7.1-1c-2-1-1-2,0-3h-2l-1-1l-2,1l-6.1,1c-7.1,0-2-3-4-4h-2
	l-10.1-1v-1h-9.1l-2-1c-2-1-5.1-1-4-3h-2c1-1,1-2-2-2l-5.1-1c0,1-1,2-4,2l-4-2l-6.1,1l-4,1l-6.1-2l4-4l-3-1v-2l-1-1h-1
	c-1,2-2,4-8.1,4h-11.1l-2,1h2l1,1v1c3,0,4,2,6.1,3c2,0,4,1,2,2c-7.1,1-4-3-8.1-3l-1,2l-4-1l-3-1l-1,1l-13.2-1h-2l2,3l6.1-2l3,4
	l8.1-1l2,4h1c6.1-5,6.1-5,17.2,0l-4,2l5.1,1l16.2,4h3l2,1c1,3-4,3-9.1,2h-4c-1,2-4,1-6.1,1c-4-1-6.1-2-6.1-4v-1c-4,1-8.1,0-11.1-1
	h-5.1c-1,2-5.1,3-9.1,2c-6.1,0-13.2,1-18.2,3l1,1l1,1v-1c7.1,1,12.1,0,17.2-2h9.1c-2,4,2,5,8.1,5v-2l-7.1-2l11.1-2l-1,2l7.1,8l-2-6
	l13.2,2l5.1-2h4c0-2,4-3,4-3c3,2,10.1,2,10.1,4c2,0-1-2,3-2l6.1,1l6.1,1l2,1h1c4,1,8.1,1,9.1,3c2-1,4,0,5.1,1c0,3-8.1,1-10.1,2h-4
	l-2,1h-3l-4-1l-1-1c-1-1,0-1,2-1l1-2l2,1v-1h-4l-3,1h-1l-5.1-1h-4c-4,1-5.1-1-8.1-1l-2-1l-6.1,1c4,1,4,1,3,2l-3,7l-3-2l-4,2l4,1h7.1
	v3c3,0,0,1,0,1c-4,0-5.1,2-7.1,3l-3,2h-4c0-2,3-2,4-2l1-1c4-1,0-2-2-3h-1c-2,0-2-1-2-2l-6.1,1c-2,0-2-1-1-2l-8.1-2l1,1h2l2,3v1h-3
	c-3,0-4,3-9.1,1h-6.1l-3-1c-2-1-8.1-2,1-2l3-1l-5.1-1c-5.1,1-10.1-2-16.2-1l1-2c-8.1,0-14.2-3-21.3-4l-2-2h-2c-10.1,0-16.2-3-25.3-5
	h-3c-1-1,1-2,3-2l-2-1h-3l-4,1l-8.1-1l-3,1c-4,0-7.1-2-9.1-3s-5.1-1-5.1-3l6.1-1h-1h4l-2,1h1v2h5.1c-2-1-1-2,2-3l-4-2h-6.1l-2-1
	l-4-1v-1l-5.1,1l2,1l-1,2l-7.1,1h-2l-2-3l1-1l-6.1-2h-1l-2,2h-2l-4,1l-5.1-1c-1-2,1-2,3-2l3-1l-3-1v-1h-10.1c1,2-3,2-5.1,2h-2
	l-9.1-1c-3-1-6.1-1-7.1-3h2h-1l-7.1-1v-1l-3-2l1-1l2-2h-1v-1h-3l-10.1-1c-5.1,1-10.1,2-15.2,1C1073.8,385,1074.8,385,1076.8,385z
	 M1110.2,329h1H1110.2z M1203.3,244l-4,1h-1l4,2l4-1L1203.3,244z M1175,242h1H1175z M1155.7,246v1V246z M1450.3,430v1l3,1v-2v-1
	L1450.3,430z M1246.8,398l-1-1l-2,1H1246.8z M1224.6,394l1-1h-2L1224.6,394z M1207.4,395l4-2v-2C1210.4,392,1206.4,393,1207.4,395z
	 M1208.4,391l1-4c4,1,4,2,3,3l6.1,1v-2l3,2c2,0,4,0,4,2h8.1l11.1-4l1,3l6.1-2c2-1,5.1,0,7.1,1l-1-1h1l4-1l3,1l3,1c0-2,1-2,4-2l6.1-1
	h6.1c-1-1-3-1-2-2l2-2h-2c-7.1,2-13.2,2-19.2,0l-1-2h-9.1c2,1,2,2,1,3l-7.1,1c-2,2-4,2-7.1,1l-4-2l-2,1l-2-1c-3,1-4,3-9.1,2
	c1-2,4-2,7.1-3h6.1l2-1l-2-1l-1-1l-6.1-1h19.2l-2-1c-2,1-5.1,0-8.1-1l-1-1h-1c-1,1-4,2-7.1,1h-4v2h-6.1c-1-2-4-2-7.1-2l-4,1
	c-2-2-3-1-4,0h-6.1l2,1C1197.2,384,1198.3,388,1208.4,391z M1382.5,401l-3-1l0,0l1,1H1382.5z M1547.4,448l5.1-1h-6.1L1547.4,448z
	 M1689.1,391C1690.2,391,1689.1,391,1689.1,391z M1641.6,379l-2,1v1h2V379z M1621.3,364C1622.3,364,1621.3,364,1621.3,364z
	 M1347,271l1,1v-1H1347z M1212.4,376v1h5.1l5.1-1l1,1v-3l6.1-2v1v-1h-2c-5.1,1-7.1-1-10.1-2h1h-1c-2,0-2,3-5.1,1l-2-1h-6.1l-6.1,2v1
	l1-1l6.1,1c2,1,1,1,1,2C1208.4,374,1210.4,375,1212.4,376z M1391.6,403v-1h7.1h-3l-3-1h-1l-3,1v1H1391.6z M1557.6,445h6.1l1,1h2l1-1
	l-6.1-2v-1l3-3h-5.1l2,1c0,1,0,2-2,2h-3c-1,1-2,1-1,2l1,1H1557.6z M1582.9,438v-2l-4,2l4,1l2,1h1l-1-1L1582.9,438z M1195.2,278l-2-1
	v1H1195.2z M1229.6,373l-1,1l2-1H1229.6z M1484.7,423l1-1h1h-4l-1,1h2H1484.7z M1559.6,435l6.1,1h4c-1-1,0-1,1-2l-3-2h-2
	c0-1-1-2-4-2v1l3,1h-5.1l-3,1l-3,1l-1,1c3,0,2,1,2,2l2,2h3C1557.6,438,1557.6,437,1559.6,435z M1584.9,443l-5.1,1h10.1L1584.9,443z
	 M1505.9,302l-7.1,1l5.1,2h8.1v-2h-1L1505.9,302z M1478.6,285v-1l-7.1,2h5.1L1478.6,285z M1415.9,286h-4l-6.1-1v1h2l1,1l6.1,1h4v1
	l4,1h3l2-1h8.1l2-1l-4-2v1l-13.2,1L1415.9,286z M1288.3,378l-2-1l-2,1H1288.3z M1629.4,415l2-1v-3h-10.1v1l2,2l4,1H1629.4z
	 M1220.5,290h-1H1220.5z M1567.7,359l-1-1L1567.7,359z M1523.2,341h-1H1523.2l3,1v-1H1523.2z M1624.4,396h1H1624.4z M1459.4,300h-1
	H1459.4l2-1h2l2-1L1459.4,300z M1515.1,312h1l-1-1V312z M1521.1,311l-2,1h5.1l2-1H1521.1z M1588.9,410l2,1L1588.9,410z M1448.3,292
	h2l-2-1l-1,1H1448.3z M1470.5,296l1-4l-2,1C1471.5,294,1469.5,295,1470.5,296z M1515.1,311l2-2v-1h-4C1513,309,1513,310,1515.1,311z
	 M1544.4,315v2l-2,2v1h8.1v-1h3v-1c-3-1-9.1-1-7.1-4L1544.4,315z M1564.7,318l-5.1,1l-4,1c1,2,5.1,2,8.1,2l3-1c-2-1-2-2,1-3H1564.7z
	 M1580.8,330l3,1l2-1H1580.8z M1665.9,421l-1,1h1V421z M1435.1,292l-1,1h2v1v-1h3l-2-2h-2V292z M1588.9,325l-1-1l4-1l-8.1-1
	c2,1,1,2,3,2L1588.9,325c2,1,2,2,0,3v1l1-1l2,1c2-1,4-2,6.1-1l3-3C1597,326,1593,327,1588.9,325z M1248.9,371l4,2l4,1h1l3-2h1l-4-1
	h-5.1l-1-1h-3l-5.1,1h3H1248.9z M1174,292h-1H1174z M1482.7,296l-2,3l2,1c0,2-3,2-6.1,2h-2v1h2c3,0,4,2,8.1,1l2,1h6.1l-3-1l-2-1
	c-2,0-4-1-3-3l4-1v-2h-1L1482.7,296z M1637.5,405L1637.5,405z M1539.3,438l7.1-1l1-1l-1-1h-4l-10.1,1L1539.3,438z M1197.2,360l3,1
	l2-1h-1h1l-5.1-1V360z M1389.5,282l4,1l4-1l-8.1-1V282z M1398.7,277l1,1l1-1H1398.7z M1412.8,280l-4,2h2l2,1l4-2l-1-2h-3V280z
	 M1620.3,336h-2c1,1,1,2-1,2h-3c-3-1-3-4-10.1-3h-3l17.2,5l2-1h2l-1-1v-2H1620.3z M1648.7,395l-2-1h-10.1v1l1,1c0,2,1,2,2,1h3l6.1,1
	l2-2L1648.7,395z M1596,442h1H1596z M1461.4,416l-1,1l3,1l2-1h1L1461.4,416z M1448.3,415l-1-2l-4-1h-1l-1,1L1448.3,415z M1375.4,399
	h2H1375.4z M1336.9,389h1l-1-1l-3-1L1336.9,389z M1195.2,373l-3-2l-3,2H1195.2z M1387.5,276l-1,2h3l3-1c-1,0-2-1-1-2l-3,1H1387.5z
	 M1535.3,303h3l4,1h4h2l4,1c1,0,9.1,0,1,2h10.1l6.1,1c-3-1-5.1-1-4-3h-3l-11.1-1v-4h-3v-1l-1,1h-13.2l2,1
	C1537.3,302,1536.3,303,1535.3,303z M1628.4,339l-1,1l-2,1l5.1,1h1v-1c-1-1-2-1-1-2H1628.4z M1666.9,387l1-1l-2-1l-3,1L1666.9,387z
	 M1651.7,425l6.1,1L1651.7,425z M1491.8,426l-1-1h-2l5.1,2L1491.8,426z M1181,360h2c1-2,4-2,8.1-2l2-2l-6.1-2l-1,1c-2,2-5.1,1-7.1,0
	C1181,357,1182.1,358,1181,360z M1145.6,335h1H1145.6z M1125.4,289h-4h1c2,0,3,1,2,2h2l1-2H1125.4z M1131.5,264c2,0,5.1,1,6.1-1v1
	l-5.1-1L1131.5,264z M1135.5,257h-4l9.1,2v-1l-4-1H1135.5z M1225.6,259l1-1h-3L1225.6,259z M1281.2,265l-6.1-2l-2-1
	c-3,0-6.1,0-7.1-2h-8.1v-1l-7.1,1l-10.1,1h2c3,2,7.1,2,11.1,1l5.1-1h1v3l10.1,2v-2c2,0,6.1,0,5.1,2h-5.1v1h7.1l3,1h1l4,2h5.1l1-1
	c5.1,0,9.1,0,11.1-3l-4,1c-3,0-7.1-2-11.1,0c-1,1-6.1,0-4-2H1281.2z M1352.1,274h1v-1L1352.1,274z M1375.4,276h-2c-3,0-7.1,0-10.1-2
	v1h-3l1,1l2,1h7.1l2,2h3c0-1-1-2,2-2L1375.4,276z M1361.2,267L1361.2,267z M1393.6,273h4h-1l2-2C1395.6,271,1393.6,271,1393.6,273z
	 M1511,293l-10.1-3h-1l-8.1-1c-2,0-5.1,0-5.1-2h-2v1l5.1,2l4,1l4,1l4,1h2v1l4,2h7.1l3,1l5.1,1l3,1h7.1h-1l1-2l-4-2h-1
	c-5.1,0-8.1,0-9.1-2H1511z M1654.7,343l-1,1h3L1654.7,343z M1675,386h2H1675z M1687.1,397l-3-1v1H1687.1z M1696.2,415h-3v1l-3,1h-1
	c3,0,4,1,5.1,2l-1,2l2-1l2-1l2-2l-1-1L1696.2,415z M1670.9,430l-2-1h-1L1670.9,430z M1584.9,433h3H1584.9z M1603.1,443h-2v1h9.1
	l-1-1H1603.1z M1599.1,456h5.1l1-1l-5.1-1l-6.1-1h-2v1C1595,454,1598.1,454,1599.1,456z M1518.1,440l3-1c0-1,2-2,5.1-2l1-1v-3
	l-6.1,1l-4,4h1C1519.1,438,1515.1,440,1518.1,440z M1505.9,429l7.1-2h-1l-5.1-1l-3,1v2H1505.9z M1496.8,430l5.1,1l2-2
	c-3,0-4-1-5.1-2h-3l-2,1c-2,0-2,1-2,2l1,1L1496.8,430z M1287.3,408v-1h1l1-2l-1-1l-1,1l-1,2L1287.3,408z M1303.5,422l-10.1-1l-1-1
	c-3,0-7.1-2-12.1-1l14.2,5l4,1h6.1L1303.5,422z M1260,420l-1-2h-1v2H1260z"/>
<path class="st0" d="M1219.5,410v-2l4,1L1219.5,410z M1430,445h2c0,2-1,3-5.1,2L1430,445z M1488.7,459h-12.1c1-2,5.1-2,8.1-2
	C1487.7,457,1488.7,458,1488.7,459z M1482.7,454l2,2c-3-1-8.1,0-10.1-2h-2c-2-1-3-2-1-3c-4-1-7.1-1-10.1,2l-1-1l2-5l11.1,3h1
	c1,1,5.1,1,4,3L1482.7,454z M1561.6,460h4l-2,1c-3,2-5.1,1-8.1,0h-2C1555.5,459,1558.6,458,1561.6,460z M1553.5,457h5.1l-4,1
	L1553.5,457z M1495.8,461v-1c2-1,4-2,6.1,0c0,0,2,1,0,1H1495.8z M1789.3,426c2,0,4-1,5.1,1c-2,1-4,2-6.1,1s-2-1-1-2H1789.3z
	 M1517.1,487c4,0,6.1,3,11.1,1h10.1v1l8.1,1l6.1,2v1h1l-4,1l-3,1l-2-1c-3,2-5.1,1-8.1,0c-2-2,8.1,0,4-2l-4-1l-2,1h-2l-3-2l-4,1
	c-7.1,1-3-3-8.1-3C1517.1,488,1515.1,487,1517.1,487z M1510,481h1l4-1l6.1-1h6.1l4,1v4c-5.1,3-8.1,1-12.1-1c-5.1-1-9.1,2-14.2,0
	L1510,481z M1683.1,351l4-2l4,1C1689.1,352,1686.1,350,1683.1,351z M1778.2,424l-7.1,1l-1-1l1-1C1773.2,422,1775.2,423,1778.2,424z
	 M1148.7,283l-4,1v-2l2-1C1147.6,282,1149.7,282,1148.7,283z M1300.5,433c3,3-3,1-5.1,2C1296.4,433,1298.5,433,1300.5,433z
	 M1142.6,239l-10.1-1h-2c-1-1,0-2,2-3h10.1C1143.6,236,1147.6,238,1142.6,239z M1569.7,463c0,2-3,2-6.1,3
	C1561.6,463,1565.7,463,1569.7,463z M1662.8,368c1-1-1-2,1-3l3,1l-1,3L1662.8,368z M1704.3,354c-1,1-3,2-7.1,1
	C1699.3,353,1702.3,354,1704.3,354z M1140.6,383h-4c-1,0-3-1,0-2L1140.6,383z M1508,481l-6.1-2h-1l1-1h4C1508,479,1508,480,1508,481
	z M1418.9,436l-8.1-1l4-1l7.1,1L1418.9,436z M1214.4,385l-1-1l4-1C1217.5,384,1217.5,385,1214.4,385z M1606.1,435v-1
	c-5.1,0-6.1-2-6.1-4c3,1,7.1,0,7.1,2h2l1,2v2C1606.1,437,1608.2,435,1606.1,435z M1376.4,414C1376.4,414,1377.4,414,1376.4,414v2
	c-5.1,2-5.1,0-6.1-1L1376.4,414z M1387.5,429h-1l-2,2v1l-16.2,4v-5h-1l1-2l-3-2l-4-3l13.2,1l6.1-1h-1l4,2l3-1
	C1391.6,427,1389.5,428,1387.5,429z M1401.7,426c-2-1-1-1,0-2l4,1c1,0,2,0,1,1H1401.7z M1438.1,429h4l-2,1L1438.1,429z M1425,425v1
	l-1,1h-5.1c-2,0-3-1-2-2H1425z M1308.6,398l7.1,1h1h2l8.1,5l1-2h3c4,1,1,3,2,5c-1,1-1,2-3,2c-4,1-6.1,0-8.1-1h-1c-3-1-2-2-1-3l-3-1
	c-3-1-5.1-3-10.1-2l-8.1-2v-1l2-1h1v-1l-3-1l3-2l5.1,1v1L1308.6,398z M1293.4,392h5.1v2C1295.4,394,1293.4,394,1293.4,392z
	 M1392.6,421h-1c-4-3,1-4,4-5l2,1v1l-4,3H1392.6z M1381.5,413l4,1c-2,0-1,1-2,2h-1C1382.5,415,1379.4,414,1381.5,413z M1369.3,413
	l-1-1h-10.1c-4-1-11.1,1-15.2-2l-2-1c-2-2,1-2,4-2h2h-2c-1,0-5.1,0-1-1l9.1-1l1,1v1l10.1,2h7.1v1h1L1369.3,413z M1041.4,357
	c10.1,5,10.1,0,13.2-1l-7.1-2l18.2-2c7.1-3,11.1-1,16.2,0l8.1,2l-8.1,4c15.2,0,2,5,6.1,6h8.1l-6.1,2v1h18.2l-17.2,5l-1,3l-9.1-2
	c-4-2-13.2-1-11.1-6c-6.1,0-13.2-3-18.2,1l-7.1-2L1041.4,357z"/>
<path class="st0" d="M1333.9,431c10.1-1,17.2,1,19.2,5C1344,436,1334.9,434,1333.9,431z M1121.3,378c8.1-5,11.1-5,20.2-1h-8.1l-2,1
	l-3-1l3,5L1121.3,378z M1409.8,435l1,1l-1,2l-1,1l-2,1l-7.1-1c-4,0-4-1-5.1-2h-5.1c-2,1-5.1-1-7.1-1l-1-3h4l2-2c6.1-3,7.1-3,9.1,1
	l4-1c2,0,5.1-1,6.1,1l-1,1h2v1h2V435z M1453.3,451l-12.1-5h-1v-1c0-1-1-1,1-2l3-1c2,1,0,2,0,2l-2,1l18.2,5L1453.3,451z M1424,448h3
	l3,4l-9.1,1L1424,448z"/>
<g>
	<path class="st0" d="M961.4,376l6.1-3l2-1h4v-1h1l6.1,1h-4l6.1,1c3,0,6.1,0,5.1,2l-5.1,1l-2-1h-1l1,1v1h12.1l4,1v1l2-1c2,0,4,0,4,2
		l-6.1,1l-6.1-1h-7.1l-6.1-1h-10.1l-1-1C968.5,376,959.4,378,961.4,376z M1239.8,274c-2-3-7.1-1-9.1-3c3-1-14.2-2,0-4l3,1
		c6.1,0,9.1,2,10.1,4C1243.8,273,1240.8,275,1239.8,274z M1040.4,354c5.1-1,8.1,3,13.2,2c1,2,0,3-3,4c-4-1-8.1-2-13.2-1l-4-3
		c-3-2,2-1,4-2l1,1L1040.4,354z M1242.8,288l-8.1-1l-5.1-2h-1l-4-3h2c5.1-2,6.1,1,11.1,1c4,0,3,2,5.1,3V288z M805.5,131l-1-1l-2,1
		h-5.1l-5.1-2l-4-2c1-1,3-2,5.1-1c4,1,9.1-1,13.2,1c2,1,2,2,1,3L805.5,131z M1232.7,231c-4,2-6.1,0-8.1-1l-2-1c-3-2-13.2,1-14.2-3
		l-5.1-1l-8.1-2c-7.1,0-11.1-3-17.2-4l-6.1-2c-6.1,1-11.1-1-17.2-2l-5.1-2l-8.1-1c-1-1-1-2,1-3h-9.1c-2-3-9.1-1-12.1-3l-1-1
		c-3,1-5.1,0-8.1-1l-15.2-3l-8.1-2l-6.1-2l2-2h-5.1c-10.1,0-19.2-1-26.3-5l-5.1-1c-4,0-4-1-6.1-2l-10.1-2h-1l-6.1-1l-7.1-2h-2
		c-3-2-5.1-3-10.1-3l-5.1-1c-2,0-2-1-3-2l-14.2-1l-1-1h-1c-6.1,0-11.1-2-15.2-3v-1h-1l-7.1-1l-3-1l-3-2c-8.1,1-12.1-2-18.2-3H927
		c-2-5,3-3,8.1-2h2l2-2l-4-1v1H930c-6.1,1-11.1-1-16.2-1l-1-1h-1c-5.1,0-7.1-1-9.1-3c-1,0-3,2-5.1,0c-7.1-1-13.2-2-17.2-5h-9.1l-2-1
		v-2h-7.1c-2,0-2-1-2-2h-1l-7.1-1H844c-6.1-2-13.2-3-11.1-7l-1-1l-7.1,2l-3-1l-1-1l-4-2h-2l-8.1-2l8.1-1h4h1l3,1l4,1
		c3,0,7.1,0,10.1,2c5.1,1,9.1,3,16.2,3c4,1,9.1,0,12.1,2h2l2-1c1,2,9.1,1,9.1,4c7.1,0,14.2,1,19.2,3l-1,1l1,2h1l1,1h4l4-1
		c2,1,1,2,0,3l2,2l2-2l2-2h4l-4,2v1H925l29.4,7c14.2,1,22.3,6,34.4,8c6.1,1,12.1,1,16.2,4h1l8.1,1h1l7.1,1c2,1,5.1,1,6.1,3
		c3,2,10.1,2,15.2,3v1l7.1,1l10.1,3c10.1,1,17.2,4,24.3,6l6.1,1c5.1,0,8.1,2,10.1,3l6.1,1c7.1,1,16.2,2,21.3,6c6.1,0,12.1,1,17.2,3
		l8.1,2c5.1,1,10.1,1,12.1,3l11.1,3l19.2,3c3,0,6.1,2,8.1,3l8.1,1l5.1,2c3,1,8.1,1,9.1,3c3,0,6.1,0,6.1,2h5.1c1,1,5.1,2,3,3
		C1238.7,231,1235.7,231,1232.7,231z M1061.6,185l-1-1L1061.6,185z M1303.5,332c3-1,6.1-2,10.1-1l6.1,3c4,1,2,3,0,4c-2,2-4,3-8.1,2
		l-6.1-3v-1c-3,0-7.1-1-3-3L1303.5,332z M1318.7,335h1H1318.7z M663.8,285h-14.2c-2-1-3-2-1-3c4,0,8.1-2,12.1-1l-3-1l3-1l14.2,5
		l-1,1l-6.1-1v3l-3-3L663.8,285z M1240.8,365c-2,0-5.1,0-4-1c0-2,3-1,5.1-1l4,1h1v1l2,1h-1l2,2l-2,1c0,1-2,2-6.1,2c-4,1-4-1-5.1-2
		l-2-1c-1-1-4-1-3-2C1233.7,365,1237.7,367,1240.8,365z M1178,265h2c0,2,3,2,4,3v2c-4,1-4-3-8.1-2l-6.1-2L1178,265z M1264,320l-1,1
		l8.1-1h6.1c0,3-5.1,2-8.1,2v1c-6.1,2-9.1-2-13.2-2C1255.9,319,1261,320,1264,320z M1207.4,355l6.1,1v3h-6.1l-5.1-1l3-3H1207.4z
		 M1176,353h-1c-1-2,3-2,5.1-2h10.1l6.1,1l2-1l2-1l3,1h2c1,1,2,2,0,3h-11.1l-6.1-1H1176z M1235.7,261c-1-2-7.1-1-9.1-2h1
		c3-3,7.1-3,12.1,0l2,1C1240.8,262,1236.7,262,1235.7,261z M998.9,384l5.1-1c2,1,3,1,2,2l-4,2h-5.1C995.8,386,996.8,385,998.9,384z
		 M777.2,149l-7.1-1c3-4,6.1-2,10.1-1C781.2,148,781.2,149,777.2,149z M961.4,357l-4-1c2-2,5.1-2,8.1-1c6.1,1-1,1,0,2H961.4z
		 M944.2,338c-2-1-9.1,0-7.1-3h7.1C944.2,336,946.2,337,944.2,338z"/>
	<path class="st0" d="M1013,376h-1l-7.1,2h-2l-1-1l-7.1-1l4-1l3,1l8.1-1L1013,376z M559.6,186h-2l-4-2v-2l6.1-1l10.1-1
		c1,2,8.1,0,7.1,3h-13.2l-3-1C560.6,184,561.6,185,559.6,186z M1228.6,326h3l5.1-2c7.1,0-1,3,2,3c9.1,1,12.1,5,19.2,7v4h-6.1
		c-2,0-3-1-3-2h-6.1l-1-4h1l-10.1,1h-2l-2-1C1227.6,330,1230.6,328,1228.6,326z M1248.9,335l-2-2h-2L1248.9,335z M1088.9,397
		c0,3-4,2-7.1,2C1081.9,396,1084.9,397,1088.9,397z M934.1,330h3c1,2-1,3-2,5h-2c-2-1-2-2-2-3L934.1,330z M980.6,384
		c-2-1-5.1-1-5.1-3l6.1,1C982.7,383,986.7,384,980.6,384z M602.1,156c-2,0-6.1-1-2-2l4,1L602.1,156z M1184.1,349c0-2,2-2,4-2l2,1
		l-4,2L1184.1,349z M610.2,145h-2v-3l-4-1c0-2,2-1,4-1l2,1v1C613.2,143,616.3,144,610.2,145z M540.4,178l1,1l-3,1h-4l2-2H540.4z
		 M709.4,162c0,1-1,2-3,1l-6.1-2h4L709.4,162z M629.4,258l4,1c1,1,1,1-2,1l-2,1C625.4,260,627.4,259,629.4,258z M1234.7,360
		c3,0,5.1,0,5.1,2C1232.7,362,1232.7,362,1234.7,360z M1222.5,254h-9.1l-2-1l-6.1-1c-3,0-4-1-4-2h-1l-4-2h9.1l4-1l4,2
		c2,1,5.1,1,5.1,3l2,1C1220.5,253,1224.6,253,1222.5,254z M937.1,340v-1c10.1,3,10.1,3,3,7l-2-4h-4l-3-1h-2l-6.1,1v1h-3v1l5.1,1
		c-3,2-5.1,1-8.1,0v-1h-5.1v-1l2-1h1l7.1-1l1-1l6.1-1l4,1H937.1z M940.2,351h-1l3-2C944.2,350,945.2,351,940.2,351z M1302.5,330h-1
		c2-2,4-1,7.1-1h1C1307.6,330,1305.5,331,1302.5,330z M1018.1,362c-3,1-6.1,1-6.1-1h2L1018.1,362z M1020.1,390v1h-6.1L1020.1,390z
		 M1220.5,362c2,1,1,2,0,2h-3v-2H1220.5z M595,243l-4,1v-2L595,243z M489.8,169c2,0,5.1,0,5.1,2h-5.1V169z M710.4,283v2
		c-3,0-5.1-1-2-2H710.4z M620.3,251c-2,0-4-1-4-3l4,1C621.3,250,623.4,251,620.3,251z M519.1,178c-2,0-3-1-3-2h3
		C521.1,177,522.1,178,519.1,178z M546.4,280c3,0,4,1,5.1,2l-1,1c-3,0-5.1-1-5.1-2L546.4,280z M1068.7,393c2,1,4,2,3,3
		c-2,2-5.1,0-7.1,0c-1,2-1,3-5.1,4c-2-1-1-2-1-3v-2h3L1068.7,393z M965.5,347c-2,2-5.1,1-8.1,0H965.5z M606.1,155l4,1l7.1-2h5.1
		c0,1,6.1,2-1,3l-2,1l-5.1,1C607.2,160,608.2,157,606.1,155z M620.3,160l3,1h4v2h-6.1l-4-2h-2v-1H620.3z M830.8,336h3
		c4,0,5.1,3,10.1,2v2c4,1,6.1-2,10.1-1v1l3,1c3-2,6.1-1,9.1,0l8.1,1l1,1h-3l19.2,5l-1,4l6.1-1l-4-2h1l-2-1c2-4,3-4,10.1-2l3,4l7.1-5
		l2,1l2,3l-6.1,2l4,1l-2,2l12.1,2h2c3,0,6.1,1,4,3c-1,1,1,1,3,2c6.1-2,4,0,4,1h6.1h3l8.1-1l6.1,2h8.1c6.1,2,1,4,0,6h-4l-4,1v-1l-4-1
		l-3,1h-13.2l1-2l-2-2H929c-3-1,0-2,0-2l-1-1h-16.2c-2-1-2-2-1-3l-2-1v1l-4-2l-1-1h-9.1c-3-3-9.1-2-13.2-2l-9.1,3h-2l3-3l-9.1-2
		l-10.1-2l-6.1-1c-1-1,1-1,2-1l3,1h1l3-2h-2v-2c-1-1-3-2-3-4l-4,2l3,4c-4,0-8.1,0-11.1-2l4-2v-1l-9.1-1l-3,1c-1-3-3-4-8.1-4
		C824.8,336,827.8,337,830.8,336z M955.3,365h-4l2,1L955.3,365z M924,360h-1H924z M897.6,349h-2l5.1,2l1-1L897.6,349z M889.5,352h-1
		H889.5z M1014,351l4-1c3-1,6.1-1,8.1,1c4-1,8.1,0,11.1,1v2l-12.1-2l-9.1,2l-3-2L1014,351z M1160.8,359l10.1,3h7.1l2,1l4,2v1
		c3,1,4,3,1,4h-6.1c-4-1-1-2-1-3l-5.1-1c-1-1-4-1-3-2h-5.1C1154.7,364,1158.8,361,1160.8,359z M1158.8,366l-5.1,1l1-3L1158.8,366z"
		/>
	<path class="st0" d="M580.8,287c5.1,0,9.1-3,14.2-1l3-1h8.1l1,1l1-1c3,0,7.1,0,7.1,2h6.1c0,1,1,2-2,3l-3-1l-3,1l1,1v1v1
		c2,0,3,1,2,2h3v-1l5.1-1l1-1v-2c2-2,5.1-1,8.1-1c0,1,0,2-2,2l-1,2h-1h21.3l8.1,4h3c6.1-2,8.1,0,11.1,1h2c5.1,0,10.1,0,14.2,2l5.1,1
		l1,1l13.2,4v1l-3,1c-1,1-3,1,0,2l5.1,1h6.1c1,2,4,2,6.1,2h7.1c5.1,1,5.1,3,6.1,5l4-1h1l-1-1c1,0,2-2,6.1-1c2,1,7.1,1,9.1-1h2l3,1
		l4-3l-12.1-6h2l-1-2h-1l-4,1c-5.1-1,1-3,0-4v-1c-5.1,2-8.1,2-11.1,0h-3l2,4l-6.1-3l-6.1-3h1l-1-3h-1l-1,1l3,2h-1l-3,5l-2-1h-9.1
		l-7.1-1v-3l4-2l-15.2-4h-1l-4-1l1,6c-9.1-1,0-7-11.1-7l-4,4h-3v-7l13.2-1c-5.1-3-4-6,2-7c-2-1-2-2-2-3v-2h2l2-2c1,0,2,2,3,0
		c2-3,5.1-1,8.1,0c6.1-1,5.1-2,2-4l-4-1c-2,2-6.1,1-9.1,1l-5.1-1l6.1,2l-8.1,3l-6.1-3h-6.1l8.1-3l3,1c1-2-2-3-4-5l-1,1l-2,2l-3,1
		c-2,1-2,0-3-1h-3c-2,0-4,0-3-1l6.1-2c2-2,6.1-4,11.1-3l6.1-2v-2h-3c-5.1,2-10.1,1-15.2,1c2,3-5.1,3-6.1,6l-6.1,3h3c2,0,3,1,3,2h-1
		l3,3h3v2h-4l-3,1l-2,1h-1c-6.1-1-14.2,0-19.2-2v-3l8.1,1h2l11.1-2l-2-1l-6.1-1h-11.1c-3,0-6.1,0-4-2l2-1l5.1-1h2l-1-1h5.1v-1
		c2,0,2-1,1-3l1-1c4-2,9.1-2,13.2-2h3l10.1-1h4l-4-1h-2v-1l-12.1-2h-2c0,2-3,2-5.1,2l-2-1l-1-1l-1-1l3-1l-13.2-3v1l4,2l2,1v1
		c-3,0-6.1,1-6.1-1l-2-2l-4,1c-1,0-3,2-3,0c-1-1-1-3,1-4h4l-2-2c4,1,8.1,2,7.1-2h-1l-8.1-2l-6.1-2l-5.1-1l-1,1l-13.2-4l-3-1l-4-1
		l-3-1l-27.3-8l1-1l5.1,1c1-1-4-1-2-2l8.1,1l9.1,3h5.1c-1-2-6.1-1-8.1-2c-1-1-5.1-1-1-2l22.3,5h1h-1l-1-1h-1c-7.1-1-13.2-2-18.2-5h4
		l14.2,3l-5.1-2c3-1,6.1,1,9.1,1l11.1,3l1-1c-4-1-4-4-9.1-5c-5.1,0-6.1-3-10.1-4l1-1l11.1,2h3l3,2h1c5.1,1,11.1,1,15.2,3l5.1-1
		c2-1,1-1,0-2c-2-1-7.1,0-7.1-3h2c1,0,1-2,4-1h-1l-16.2-5c-1,0-1-1,1-1c10.1,0,19.2,1,27.3,3c2,1,5.1,2,8.1,1l-6.1-1c-2-1-2-2-1-2
		l-2-1v-1h-1l-7.1-1c-4-1-9.1-1-12.1-3l1-1h3l3,1h1l-3-1v-1l-7.1-1c-3,2-8.1,2-12.1,2c-4-2,2-2,3-3l1-1h-5.1l-2-1v-1l-4,1l-1,1
		l-7.1,1l-2-1l-11.1-2c-5.1,0-7.1-2-10.1-3h-1l-1-2c1-2,4-3,6.1-3c0-2,1-3,4-3l2,1c2,1,6.1,1,4,2h-8.1v3H595c-1-4,2-5,9.1-3l-3,3
		l-1,2h2c3-2,7.1,0,10.1,0l4-2h-1l-5.1-1l-4-2v-1l8.1,1l15.2,3l2,2l15.2,3l4-4l6.1,1l6.1,1v1l9.1,1c-3-2,0-4-2-5l-1-1h-3l-2,1h-7.1
		c-1-2,2-2,4-2h-1l-5.1-2l-4-1h-4l-3-2l-3-1l-8.1-1l-1,1h-13.2l-4-1c-1-1,2-1,4-1l2-1h5.1l-1-1l-5.1-1c-3,1-5.1,0-7.1-1l-17.2-4
		l-10.1-3l-21.3-5l-16.2-4c-1-1,0-1,2-1l24.3,5c4,1,9.1,1,11.1,3h1c9.1,1,15.2,3,22.3,5l19.2,4l5.1,2l18.2,4l-1,1h3l5.1,1l3,1l4-2
		l-8.1-2l2-2l-3-1l-5.1-1l-4-1l-18.2-4l-9.1-2h-2v1h-11.1l-2-1c-2-1-2-2,0-4h2l4,2h2l-3-1l-1-1l7.1,1l4-1c3,0,6.1-1,6.1,1l-5.1,2
		l8.1,2c6.1-2,10.1,0,14.2,1c1-2-7.1-2-8.1-4l-2,1l-4-1l7.1-1l-5.1-2l-3-3c0-1,0-2,3-2l1,1l3-1v-1l-7.1-2l-8.1-3c-1-1-1-1,1-1
		c-3-2-7.1-3-11.1-3c-2-1-4-1-4-3h1l16.2,5h1c3,1,8.1,1,11.1,3h5.1c4,2,8.1,3,13.2,3l1,1l9.1,2l4,1l9.1,3l9.1,2l4-2h1
		c5.1,0,6.1,2,8.1,3l-2,1h-3l6.1,1v1l5.1,1h17.2l6.1,2c4,1,8.1-1,10.1,2c2,1,6.1,0,8.1,2l3,1h4l-13.2-3c-2,0-4-1-2-2h1l3-2l3,1l1,1
		h2l-6.1-2l-3-2h-4c-5.1,0-3-2-4-4l-1-1h-2l-12.1-2l-5.1,1l-7.1-2c-3-1-1-2,1-2l2-1l8.1-1l2-3l3-1l6.1,2c0,2,2,2,5.1,2l-1-1
		c1-2,4-4-1-5l-4,1l-8.1-2l-1,1c-1,1,1,2-1,3h-4l-3-1h-1l-6.1,2v2l-3,1l2,3c0,1-1,2-3,2l-3-1l-4-2c0-2,2-2,4-2l-2-1l-3,2h-3
		c-3-1-1-2,0-3c2,0-1-1,0-1h-2l-1-3l-9.1,2c-2-3-9.1-2-13.2-4c-3,2-4-2-8.1,0v-1c-4,3-8.1-1-13.2,0l-15.2-2h-8.1c-2-3,6.1-2,6.1-4
		l4-1h1c-1-1,1-2,1-3h2l3,2v1h-3l4,1l3-1l5.1,1h3l2,1h8.1l2,1l3-1c0-1,0-2,2-2v-2c1-1-5.1-3,2-4l29.4,6l-1,1h1v-1
		c7.1,0,13.2,2,19.2,4h4c5.1,2,12.1,3,19.2,2v1l8.1,1l2,1l5.1,1c4,1,2,2,0,3l-4,2l-3-1h-3l-1,1l-1,2h8.1v-2l4,1h2c-1-1,4-2,0-3
		c0-1,0-2,2-2l9.1,2h2l5.1,2h8.1l6.1,1l1-1c3,2,5.1,4,11.1,4l9.1,2l8.1,2l1,1c0,1,1,2-1,3l1,1l-1,1l2,1h11.1l4,2c3-1,5.1-2,3-3h-3
		l-1-1l-5.1,1c-3,0-6.1,0-6.1-2v-3l4-1l8.1,4l7.1,1l4,1c4,0,8.1,0,11.1,2l-1,1h2c2,1,3,1,2,2c2,0,7.1,1,7.1-1l4,1c3,1,8.1,0,12.1,2
		l-1-1c3,1,6.1,2,10.1,1v-1h-4c-4,1-6.1-1-7.1-2l-1-3h-1l-6.1,1h-6.1l-1-1h-1l-8.1-1h-1c-3,0-7.1,0-9.1-2h-1l-4-2h1l-9.1-3l-2-2
		l-3,1h-8.1c-3-1-6.1-2-7.1-4l-1-1c-3,0-7.1,0-7.1-2l-2-1h-10.1l-3-2h-1c6.1-2,9.1,1,14.2,1l9.1-1c1,3,6.1,3,6.1,6h6.1l4,1l4-3
		c3,0,3,3,7.1,2v1l10.1,2l5.1,1h2c2,0,3,1,3,2l7.1,1l4-1h2l3,1h2c4,0,7.1,2,10.1,3h1l-1,2l-1,1l1-1c4,0,9.1-1,13.2,1l5.1,1l4,1
		c4,2,13.2,1,14.2,5h2l1,1c4,0,7.1,0,8.1,2l6.1-1c2,1,5.1,1,2,2c-3,2,2,1,2,1l7.1,1c5.1-1,9.1,2,14.2,0h4l-1-1h-6.1c-3-1-5.1-2-4-3
		l3-1h-6.1c-6.1,2-8.1-1-12.1-2v-1l-3-1c0-2-2-3-5.1-2v1c-8.1,4-9.1-1-13.2-2h-3l-6.1-1v-2l-1,1h-8.1l-7.1-2l-1-1h-2
		c-2-1-7.1,0-8.1-2l-3-1l-4-1h-2c-3,0-4-2-6.1-3h-2l-4-1h-11.1v-1l-2-1h5.1c-2-1-4-1-4-3c-3,1-5.1,0-7.1-1h-5.1v-1
		c-5.1,0-8.1,0-8.1-2h-2c-5.1,0-9.1-2-13.2-1l-2-1h-6.1c-3-2-4-5-11.1-4c-3-1-3-2,1-2h16.2l4,2l6.1,1h1l8.1,1l4,1v2c3,1,8.1,1,9.1,3
		h8.1l2,1l7.1,1c5.1,0,6.1,2,10.1,3c8.1,0,14.2,2,20.2,3h-1v1l1-1l14.2,4c6.1,0,11.1,1,14.2,3c8.1,0,13.2,2,19.2,4l15.2,3
		c6.1,0,10.1,2,15.2,4c5.1,0,9.1,0,11.1,3c9.1,1,18.2,3,25.3,6l3,1l13.2,2l16.2,4c3,0,6.1,0,7.1,2h2l6.1,1l2,1c5.1,1,9.1,3,11.1,5
		l14.2,2l15.2,4l8.1,2l5.1,1l12.1,3c4,0,6.1,2,9.1,3l4,2h8.1l5.1,3v1l8.1,2l6.1,1h4c5.1,0,7.1,3,12.1,3h2c7.1-1,6.1,3,11.1,4
		c4,1,12.1,0,15.2,3c5.1,0,9.1,1,11.1,3c5.1,0,6.1,2,4,3c-2,2-5.1,1-8.1,0l-7.1-3l-6.1-2l-5.1,1h-7.1v-1c-3,0-7.1,0-8.1-2h-2l-9.1-2
		v-1l-5.1-2c-2,2-4,0-6.1,0l-2-2l-4,1c-2,0-4,0-3-1l-3-1c1-1-2-1-2-2h-9.1l-3-2v-1h-3l-5.1-1c-3,0-5.1-1-5.1-3h-7.1l-4-1h-3l3,1
		c3,1,2,2,2,2l2,1c0,2,4,1,7.1,1c0,2,5.1,2,6.1,4h2l5.1,2h4c7.1-1,14.2,0,18.2,3l2,2l4,1l5.1,1h6.1v1l8.1,3l5.1,1h1
		c3,2,12.1,1,11.1,5l-10.1,1h-2l-1-1c-6.1,1-5.1-1-6.1-3l-7.1,1l-2-1c0-2-6.1-2-9.1-3v-3h-2l-2,1h-5.1c-4,1-7.1,0-8.1-2h-1
		c0-1-2-3,0-4l-6.1-2c-2,2-2,3-6.1,4v2l1,1v-1h1l10.1,4l4,1c2,0,0,4,6.1,1h5.1l1,2h8.1c2,1,4,1,3,2l2,1l2,1h3c2,3-3,2-6.1,2h-2l2,2
		h2l4,1h4l4,3l4,1c4-2,4-2,7.1-1l-3,2l1,1l6.1,1h2l2-1l7.1-1l2,1l1,1l4,2h-1v1l2-1l1,2c0,4-5.1,5-12.1,4l-3-2c-5.1-1-10.1-1-13.2-3
		v-1c-1-1-8.1,0-6.1-3c-10.1,2-6.1-3-10.1-4h-1c-5.1,0-10.1,0-12.1-3h-7.1l2-2l-4-1h-6.1h3c2,1,5.1,1,4,2h-6.1c0,1,5.1,2,4,4h3l4,1
		l7.1,2c2,1,6.1,1,8.1,3h5.1l5.1,2l1,1l6.1,1h2c5.1,2,12.1,3,16.2,6h-2l-6.1-1l-14.2-4l-1,1l-2-1v-1c-4.6-1.4-9.4-2.4-14.2-3l-1-1
		l-9.1-1l-12.1-2l2,1l7.1,2l6.1,1c4,1,5.1,2,2,4l-4-1l-6.1-1v1l-1,1h1l3,1h1c1,2,1,3-1,4c-1,2-1,2,3,3l5.1,1c2,1,1,2-2,1l-19.2-1
		l-9.1-2v-1l-3-1h-3c-4,1-5.1,2-1,4c2,0,3,0,4,2l1,1l1-1l11.1,1v1h4l1,2l8.1,4l4-1l2-2h11.1l-1-2l-4-1l-1-2l4-1l2,1l1,1l8.1,1l1,1
		c2,0,5.1,0,4,2l2,1l-1,2c-3-1-8.1,0-9.1-2h-2l-2,1l4,2l6.1,1l2-1l7.1,1l-1,2h-6.1l-2,1l2,1l10.1-1v-1h3l4,2v1c0,2,0,3,2,5h2l2,1
		l1,1l8.1,1c5.1,0,9.1,1,8.1,4v1c4,1-1,3,0,4h2l4,1c-3,2,8.1,2,3,4l-2,1l-4-1l-5.1,1l-2,3l-6.1-1l-4-1l-9.1-3c-1-1,0-2,4-2h3l-3-1
		h-6.1c-3-1-10.1,0-12.1-2l-5.1-1h-4c-1-1-2-2-6.1-2h-5.1l-2-1l-8.1-1l-8.1-2c0,2-1,3,2,5l2,1l11.1,1h2c4,1,11.1,0,10.1,4h3
		c4-1,6.1,2,10.1,1v1l6.1,1c5.1,0,6.1,2,9.1,4c7.1-1,11.1,2,17.2,3l-7.1,1h-7.1l6.1,2l7.1,2l-2,1l-1,1c-4,1-4-2-7.1-2l-2,1
		c-2,2,0,5-8.1,5l-2-1v-4h1h-1c-3-1-7.1,0-9.1,1l-6.1,3l6.1,1c2,0,4-2,7.1,0v4l-4,1h4l3,2h-7.1c3,1,8.1,1,11.1,3h-11.1
		c-5.1-1-10.1-1-14.2-3c-4-1-8.1,0-10.1-2h-3l-9.1-2c0,2-1,3,2,4l2,1h1l2,2l5.1,1c-3,1,6.1,4-4,3l-4,2v-4c-2,0-4-1-4,1h-2
		c-2-1,1-2,0-3h-2l-9.1-1h-6.1l-10.1-1l-3-1v-1h-4l-2-3l3-1c1-1,7.1,0,7.1-2h-6.1l-6.1,2h-4v-2c-5.1-2-12.1-3-19.2-3l6.1-2
		c-2-1-6.1-1-6.1-3h-3l-7.1-1l-9.1-1c-3,1-6.1,1-9.1-1l-2,1h2l2,1h1l9.1,3l1-1l3,1l2,1c-1,1,2,2,3,2l-4,1c4,0,6.1,3,11.1,1
		c0,2-2,3-6.1,3c3,1,5.1,2,4,4l6.1,1h8.1l1,1h1c4-1,6.1,0,7.1,2l10.1,3c-4,1-7.1,5-12.1,1l-6.1,2l1,1c6.1,1,10.1,2,5.1,5v1l10.1-1
		l2-1c-1-2,2-3,4-4l2-1l4,1l1,1h2c-1,2,1,3,4,4h2l7.1,1l-3,2h-6.1c-9.1,0-5.1,2-4,4c0,2,7.1,2,6.1,4c-4,1-7.1,2-8.1-1l-8.1,2
		c3,1,2,2-2,2h-11.1l-8.1-1c-7.1,0-9.1-3-13.2-5h-8.1c-2-1,0-4-5.1-3h-2l-3-1v-1h-3v1h-3c-1-2-5.1-1-6.1-2h-6.1l-1-1l2-1l-1-2h-8.1
		l-2-1h-2c-5.1,1-5.1-1-7.1-3c-1,1,0,2-2,2c-2-1,1-2,0-2h-4l-5.1-4l-1-1c-5.1,0-12.1,1-15.2-2l1-2h-9.1l2-2c1-2,0-3-6.1-2h-5.1
		l-6.1,1l-2-2l-2-2h-2c-5.1,1-10.1,1-15.2-1h-3c-1,2,2,4,0,6l9.1,2l1,1l5.1-1h3l2,1l4,1l1,1v2l3,1c0,0,4,0,2,1c1,3-2,3-5.1,2l-1-1
		l-2-1c-1,0-3-1-2-2h-5.1l-8.1-1l-1-2h1c-1-2-3-1-6.1-1h-1l-1-2l-5.1-2l-2-1h-2v1h-4c-3-1-7.1-1-9.1-3c-1-2,3-1,5.1-2l2-1h8.1l1,1
		l1-1h5.1l5.1-3l-1-1l4-1l-1-1h-6.1c-1,3-4,3-8.1,1h-8.1l-6.1-1l1-1l-1-1l-5.1,1h-4c-2,1-4,0-5.1-1l-1-2l3-2h1l-2-1h-12.1l-1,1h-2
		c-3-1-8.1-1-6.1-3c1-1,1-2-1-3h-1l-2,1l-12.1-1l-6.1-1c-3-1-1-2,0-3h-2l-2-1l-2,1l-6.1,1c-7.1,0-1-3-4-4h-2l-9.1-1l-1-1h-9.1l-1-1
		c-3-1-6.1-1-5.1-3h-1c1-1,0-2-3-2l-4-1c-1,1-2,2-5.1,2l-4-2l-6.1,1h1l-4,1l-6.1-2l3-4l-3-1v-2v-1h-1c-2,2-3,4-9.1,4h-11.1l-2,1h2
		l1,1v1c3,0,4,2,6.1,3c2,0,4,1,2,2c-6.1,1-4-3-8.1-3l-1,2l-3-1l-4-1v1l-14.2-1h-2l2,3l6.1-2l4,4l8.1-1l2,4h1c5.1-5,6.1-5,17.2,0
		l-4,2l5.1,1l15.2,4h4l1,1c1,3-4,3-9.1,2h-4c-1,2-4,1-6.1,1c-3-1-6.1-2-5.1-4v-1c-5.1,1-8.1,0-12.1-1h-4c-2,2-5.1,3-10.1,2
		c-6.1,0-13.2,1-17.2,3l1,1l1,1v-1c6.1,1,11.1,0,16.2-2h9.1c-1,4,3,5,8.1,5v-2l-6.1-2l11.1-2l-2,2l7.1,8l-1-6l12.1,2l6.1-2h3
		c0-2,4-3,5.1-3c2,2,9.1,2,9.1,4c2,0-1-2,4-2l5.1,1l6.1,1l2,1h2c3,1,7.1,1,8.1,3c3-1,4,0,5.1,1c0,3-8.1,1-9.1,2h-5.1l-2,1h-3l-4-1
		l-1-1h1c-2-1-1-1,1-1l2-2l1,1v-1l-3-1l-4,2v-1h-1l-5.1-1h-4c-4,2-5.1,0-8.1,0l-2-1c-3-1-4,0-6.1,1l4,1l-3,8l-4-2l-4,1l4,2h8.1l-1,2
		c3,1,1,2,0,2c-4,0-5.1,2-7.1,3l-3,2c-1,0-4,1-4-1l5.1-1v-1c4-2,0-2-2-3h-1l-2-2l-5.1,1c-2-1-3-1-2-2l-7.1-2v1h2c1,1,3,1,2,2v2h-2
		c-4,0-5.1,3-10.1,1l-6.1-1h-3c-2-1-7.1-2,1-2l3-1l-5.1-1c-5.1,0-10.1-2-16.2-1l1-2l-21.3-4l-2-2l-2-1c-10.1,1-16.2-2-24.3-4h-4l4-3
		l-2-1l-4,1h-11.1l-4,1l-8.1-3c-3-1-6.1-1-6.1-3l6.1-1h5.1l-2,1v1l5.1,1c-2-1-1-2,2-3l-3-3c-2,2-4,1-7.1,0l-1-1H680v-1l-5.1,1l2,1
		c1,1,0,1-1,2l-7.1,1h-2l-2-3l1-1l-5.1-2h-2l-2,2h-1l-4,1c-3,0-6.1,0-6.1-2l3-1l3-2h-2l-1-1h-10.1c1,2-3,2-5.1,2l-1-1
		c-3,0-7.1,1-10.1-1c-2,0-6.1,0-6.1-2h1h-1l-7.1-1v-1l-3-2l1-1l2-2h-1v-1h-3l-10.1-1c-5.1,0-9.1,2-15.2,1
		C577.8,287,579.8,287,580.8,287z M615.3,231h1H615.3z M639.5,244h-1H639.5z M615.3,166h-1H615.3z M707.4,146l-3,1h-2l5.1,2l3-1
		L707.4,146z M659.8,148l1,1L659.8,148z M954.3,332l1,1l2,1l1-2l-1-1L954.3,332z M750.9,300v-1l-2,1H750.9z M728.6,296h1v-1h-2
		L728.6,296z M711.4,297l5.1-2v-2C714.4,294,711.4,295,711.4,297z M712.4,293l1-4c4,1,4,2,3,3l6.1,1v-2l3,2c2,0,4,0,4,2h8.1l11.1-4
		l1,3l6.1-3l8.1,2l-1-1l4-1c2.5,0.2,4.9,0.9,7.1,2c-1-2,0-2,4-2l6.1-1h5.1c-1-1-3-1-2-2l2-2h-1c-7.1,2-14.2,2-20.2-1l-1-1h-3l-1-1
		l-4,1h-1c2,0,3,1,2,2c-2,2-5.1,2-8.1,2c-2,2-4,2-6.1,1l-4-3l-2,2l-2-1c-3,1-5.1,3-9.1,2c1-2,4-2,7.1-3h6.1l2-1l-2-1l-1-1l-7.1-1
		h20.2l-2-1l-8.1-1l-2-1c-2,1-4,2-8.1,1h-3v2h-7.1c-1-2-3-2-7.1-2h-4c-2-1-3,0-4,1h-4C702.3,286,702.3,289,712.4,293z M886.5,303
		l-2-1l-2-1l1,1l1,1H886.5z M1052.5,350l4-1h-6.1L1052.5,350z M1145.6,281l-2,1l1,1h1V281z M1125.4,266h1H1125.4z M852.1,173l1,1
		L852.1,173z M716.5,278v1h6.1l5.1-1v1h1h-1v-3h1c0-1,2-2,5.1-2l1,1l-1-1l-2-1c-5.1,2-7.1,0-9.1-1l1-1l-1,1c-2,0-2,3-6.1,1l-2-1
		h-6.1l-6.1,2h1l7.1,1v2C713.4,276,714.4,277,716.5,278z M895.6,305l1-1h6.1h-2l-4-1h-1l-2,1l-1,1H895.6z M1061.6,346l7.1,1l1,1h2
		l1-1l-6.1-2v-1h-1c0-2,1-3,4-3h-5.1l1,1c1,1,0,2-1,2h-4c0,0-2,1-1,2l1,1L1061.6,346z M1086.9,340v-2l-3,1v1l3,1l2,1h2l-2-1
		L1086.9,340z M699.3,180l-2-1v1H699.3z M733.7,275l-1,1l2-1H733.7z M988.7,325l2-1h-4v1h-1H988.7z M1064.7,337l5.1,1h5.1v-2h1l-4-2
		h-2c1-1-1-2-4-2v1l4,1h-5.1l-1-1l-3,1v1l-3,1v1c2,0,2,1,1,2l3,1h2C1062.6,340,1062.6,338,1064.7,337z M1088.9,345l-5.1,1h11.1
		L1088.9,345z M1010,204l-7.1,1l5.1,2h8.1v-2h-1L1010,204z M983.7,187v-1l-7.1,2h1l4-1H983.7z M919.9,188h-4l-5.1-1h-1l2,1l1,1
		l6.1,1h4v1l4,1h4l2-1h8.1l1-1l-3-2l-1,1l-12.1,1L919.9,188z M792.4,280l-2-1l-1,1H792.4z M1134.5,316l2-1l-1-2h-9.1v1l2,2h4H1134.5
		z M724.6,192h1H724.6z M1071.7,261v-1V261z M1027.2,243h-1h4H1027.2z M1128.4,297l-1,1h2L1128.4,297z M963.4,202l2-1h2l2-1
		L963.4,202z M1020.1,213C1020.1,213,1020.1,214,1020.1,213z M1026.2,213l-1-1l-2,2h5.1l2-1H1026.2z M1094,312l2,1L1094,312z
		 M952.3,194h1h1l-2-1V194z M974.6,198v-1l1-3l-1,1V198z M1020.1,213l2-2v-1h-4C1018.1,211,1017.1,212,1020.1,213z M1049.5,216l-1,3
		l-2,2l1,1h7.1v-1h4l-1-1c-2-1-9.1-1-7.1-4H1049.5z M1069.7,220l-5.1,1h-1l-3,1c1,2,4,2,8.1,2l3-1c-3-1-3-2,0-3H1069.7z M1085.9,232
		l2,1l2-1h1H1085.9z M1169.9,323l-1,1h2L1169.9,323z M713.4,176h-1H713.4z M939.1,194l-1,1h2v1v-1h3l-2-2h1h-3V194z M1093,227v-1
		l3-1c-2-1-5.1-2-7.1-1c1,0,1,2,3,2L1093,227c2,1,2,2,0,3h1l3,1v-1h5.1l4-3H1093z M752.9,273l4,2h4v1h2l2-2h1l-4-2h-9.1l-5.1,1h-1
		H752.9z M731.7,267h1H731.7z M678,194h-1H678z M986.7,198c0,1,0,2-2,3l3,1c-1,2-4,2-7.1,2h-1v1h1c4,0,5.1,2,8.1,1l2,1h6.1l-2-1
		l-2-1c-2-1-5.1-1-4-3l4-2l1-2l-2,1L986.7,198z M1084.9,211h1H1084.9z M1141.6,307h-1h2H1141.6z M1071.7,332h1H1071.7z M1043.4,340
		l7.1-1l2-1l-1-1h-4l-10.1,1L1043.4,340z M701.3,262l4,1l1-1l-5.1-1V262z M894.6,184l3,1l4-1l-7.1-1V184z M902.7,179l1,1l1-1H902.7z
		 M916.9,182l-3,2h1l2,1l4-2v-2h-3L916.9,182z M1124.4,238h-2c2,1,1,1-1,2h-2c-4-1-4-4-10.1-3h-4l18.2,4h3v-1h-1c-1-1,0-1,1-2
		H1124.4z M1152.7,297l-2-1h-9.1l-1,1l1,1c0,2,1,2,3,1h1h1c3-1,5.1,0,6.1,1h1h-1l2-2L1152.7,297z M966.5,318l-2,1l3,1l2-1h2
		L966.5,318z M952.3,316l-1-2h-5.1l-1,1L952.3,316z M879.4,301h2H879.4z M842,291v-1l-4-1L842,291z M738.7,278h1H738.7z M699.3,275
		l-3-2l-3,2H699.3z M825.8,175h1H825.8z M891.6,178l-1,2h3v-1h3l-1-2l-3,1H891.6z M1040.4,205h6.1l1,1h2l1-1l2,1h4c2,1,9.1,1,1,2
		l2,1h14.2c-2,0-5.1,0-4-2h-3l-10.1-1c-2-1,0-3-1-4h-2l-1-1c-5.1,2-9.1,0-13.2,1h-1l2,1V205z M1133.5,241h-1l-1,1l-1,1l4,1h1v-1
		l-1-2H1133.5z M1142.6,255v-1V255z M1170.9,289l1-1l-2-1l-3,1L1170.9,289z M1156.8,327l5.1,1L1156.8,327z M1004.9,327h1H1004.9z
		 M995.8,328v-1h-3l5.1,1H995.8z M685.1,262h2c1-3,5.1-2,8.1-2l2-3l-6.1-1l-1,1c-2,2-4,1-7.1,0C686.1,259,686.1,260,685.1,262z
		 M649.7,237h2H649.7z M629.4,190v1l-3-1l1,1c1,0,3,1,2,2h1v-1l1-1L629.4,190z M635.5,166c2,0,5.1,1,7.1-1h-6.1L635.5,166z
		 M639.5,159h-4l9.1,2v-1l-4-1H639.5z M729.6,161l1-1l-2-1l-1,1L729.6,161z M786.3,167l-7.1-2l-2-1c-3,0-5.1,0-7.1-2H763l-1-1
		l-7.1,1h-9.1l-1,1h1h-1h2c4,2,8.1,2,12.1,1l4-1h1v3l10.1,2v-2c3,0,6.1-1,6.1,2h-6.1v1h8.1l2,1h1l4,2h5.1l1-1c5.1,0,9.1,0,11.1-3h-4
		c-3,1-7.1-1-10.1,1c-2,1-7.1,0-5.1-2H786.3z M879.4,178h-1l-11.1-2l-3,1l2,1l1,1h8.1l1,2h3c0-1-1-2,2-2L879.4,178z M865.3,169
		L865.3,169z M897.6,175h4c-1-1,0-2,2-2C900.7,173,898.7,173,897.6,175z M1015.1,195l-9.1-3l-1-1h-8.1c-3,0-6.1,0-6.1-2h-2v1l5.1,2
		l5.1,1l3,1l5.1,1h1l1,1l3,2h8.1l2,1l5.1,1l3,1h7.1v-2l-4-2h-1c-4,1-8.1,0-8.1-2H1015.1z M1158.8,245l-1,1h3L1158.8,245z M1180,288
		h1v-1L1180,288z M1192.2,299l-4-1v1H1192.2z M1200.3,317l-3-1v2l-3,1l4,2l-1,2l3-2h1l2-2l-1-1L1200.3,317z M1176,332l-3-1h-1
		L1176,332z M1088.9,335l3-1L1088.9,335z M1108.2,345h-2l-1,1h9.1l-1-1H1108.2z M1104.1,358h3h1l1-2h-4l-6.1-1h-3v1
		C1100.1,356,1102.1,356,1104.1,358z M1022.1,341h3c0-2,3-2,5.1-3h1v-3l-5.1,1l-4,4C1024.2,340,1019.1,341,1022.1,341z M1011,331
		l6.1-2h-1l-5.1-1l-3,1v2H1011z M1000.9,332l5.1,1l2-2l-5.1-2h-4c-2,1-2,2-2,3l1,1L1000.9,332z M791.4,310l1-1h1c-1-1,0-1,1-2l-2-1
		l-1,1l-1,2L791.4,310z M808.6,324l-10.1-1l-1-1c-4,0-7.1-2-12.1-1l13.2,4l5.1,1l6.1,1L808.6,324z M764,322v-2h-2v2H764z"/>
	<path class="st0" d="M724.6,312v-2l3,1L724.6,312z M935.1,347h2c-1,1-1,3-6.1,2L935.1,347z M992.8,361h-11.1c0-3,5.1-2,7.1-2
		C991.8,359,992.8,359,992.8,361z M986.7,356l2,2c-3-1-8.1,0-10.1-2h-1c-3-1-3-2-2-3c-4-1-7.1-1-9.1,2l-2-1l2-5l11.1,3h1
		c2,1,5.1,1,4,3L986.7,356z M1066.7,362h3l-2,1c-2,2-5.1,1-7.1,0h-2C1060.6,361,1062.6,360,1066.7,362z M1057.6,358l5.1,1l-4,1
		L1057.6,358z M1000.9,363l-1-1c2-1,4-2,6.1,0l1,1H1000.9z M1294.4,328c2,0,4-1,4,1l-6.1,1l-1-2H1294.4z M1022.1,388
		c3,1,5.1,4,11.1,2l4-1l6.1,1v1l7.1,1l6.1,2l2,1l-4,1h-6.1c-3,2-5.1,1-7.1,0c-2-2,8.1,0,3-2l-4-1l-1,1h-2l-4-2l-4,1
		c-7.1,1-3-3-8.1-3C1021.1,390,1019.1,389,1022.1,388z M1014,383l2-1h3l6.1-1h6.1l4,1v4c-5.1,3-8.1,0-12.1-1c-4-1-9.1,2-13.2,0
		L1014,383z M1188.1,252l4-1l4,1C1193.2,254,1190.2,252,1188.1,252z M1282.3,325l-7.1,2l-1-1l1-2L1282.3,325z M653.7,185l-5.1,1v-2
		l2-1C652.7,183,653.7,184,653.7,185z M805.5,335c2,3-4,1-6.1,1L805.5,335z M646.6,141l-9.1-1h-3l3-3h9.1
		C648.7,138,652.7,139,646.6,141z M1073.8,365c1,2-3,2-5.1,3C1065.7,365,1069.7,365,1073.8,365z M1166.9,270c1-1-1-2,2-3l2,1v3
		L1166.9,270z M1209.4,256c-2,1-4,2-7.1,1C1203.3,255,1206.4,256,1209.4,256z M644.6,285h-4c0,0-2-1,0-2L644.6,285z M1012,382
		l-6.1-1v-1h4L1012,382z M922.9,338l-7.1-1l4-1l7.1,1L922.9,338z M718.5,287l-1-2h4C722.5,286,722.5,287,718.5,287z M681,257h1H681z
		 M1110.2,337v-1c-5.1,0-5.1-2-6.1-4c3,1,7.1,0,8.1,2h1l1,2v2C1110.2,339,1112.2,337,1110.2,337z M880.4,316h1l-1,2
		c-4,2-5.1,0-5.1-1C876.4,315,878.4,316,880.4,316z M891.6,331h-1l-2,2v1l-15.2,4l-1-5h-1l2-2l-3-2c-2,0-3-2-5.1-3l13.2,1l6.1-1l3,2
		h1l3-1C895.6,328,893.6,330,891.6,331z M905.7,328c-2-1,0-1,0-2l4,1l2,1H905.7z M942.2,330l4,1l-1,1C943.2,332,942.2,331,942.2,330
		z M929,327v2h-6.1c-1-1-3-1-2-2H929z M812.6,300h8.1l2,1l8.1,4l2-1h2c4,1,2,3,2,5c0,1-1,2-3,2l-7.1-1l-1-1h-1c-2-1-2-1-1-2l-3-1
		c-2-2-5.1-3-10.1-2l-7.1-2v-1c-1-1,0-1,1-1h1v-1l-2-1l2-2l6.1,1l-1,1L812.6,300z M797.4,294l4-1l2,1v2
		C800.5,296,797.4,296,797.4,294z M896.6,323c-4-3,0-4,3-5l3,1l-1,1l-4,3H896.6z M885.5,315c2-1,3,0,5.1,1c-2,0-2,1-2,2h-2
		C886.5,317,883.5,316,885.5,315z M873.4,315v-1h-11.1c-4-1-11.1,1-14.2-2l-2-1c-2-2,1-2,4-2h1h-1c-2-1-5.1,0-2-2h9.1l2,1l-1,1
		l11.1,2l2-1l4,1v1h1C876.4,313,876.4,314,873.4,315z M545.4,259c10.1,5,10.1,0,13.2-1l-7.1-2c7.1-1,14.2-1,18.2-3
		c7.1-2,11.1,0,16.2,1l8.1,2l-7.1,4c14.2,0,1,4,6.1,6h8.1l-7.1,2l1,1h17.2l-16.2,5l-1,3c-4-1-7.1-1-10.1-3c-3-1-13.2-1-11.1-5
		c-6.1,0-12.1-3-18.2,1l-7.1-2L545.4,259z M890.6,349h1H890.6z M890.6,349h1H890.6z M837.9,333c10.1-1,17.2,1,20.2,5
		C849.1,338,838.9,336,837.9,333z M625.4,280c8.1-5,11.1-5,21.3-1h-9.1l-2,1l-3-1l3,4L625.4,280z M914.9,337v3l-1,1h-10.1
		c-4,0-4-1-4-3l-5.1,1c-3,1-5.1-1-8.1-1v-3h3l3-2c6.1-3,6.1-3,8.1,0h10.1v2h1v1h2L914.9,337z M957.4,352l-12.1-4h-1v-1l1-2l4-1
		c1,1-1,1-1,2l-1,1l17.2,5H957.4z M929,350h2l3,4l-9.1,1L929,350z"/>
</g>
<g>
	<path class="st0" d="M456.4,266l6.1-3h3l2-1v-1h2l6.1,1l-4,1h5.1c3,0,6.1,0,5.1,2l-5.1,1h-1l-1-1h-1l1,1v1h12.1l5.1,2h-1l3-1
		c2,0,4,1,3,2l-6.1,2l-6.1-2h-1l-6.1,1l-5.1-2h-1c-3,1-6.1,2-9.1,1l-2-2C463.4,266,454.3,268,456.4,266z M734.7,164
		c-2-2-8.1-1-10.1-2c3-2-13.2-3,0-5c0,2,2,1,4,1c5.1,1,8.1,2,9.1,5C738.7,164,735.7,165,734.7,164z M534.3,244c6.1-1,8.1,3,13.2,3
		c2,1,0,2-2,3l-14.2-1l-4-2c-3-3,2-2,4-3l1,1L534.3,244z M736.7,178h-8.1l-4-3h-1c-3-1-5.1-1-5.1-3h2c5.1-2,7.1,2,11.1,1
		c5.1,0,3,3,6.1,3C738.7,177,738.7,178,736.7,178z M299.5,21h-3l-1,1l-3-1l-6.1-2c-1-1-4-1-3-2l4-1l14.2,1c1,1,2,2,0,3L299.5,21z
		 M726.6,121c-3,2-6.1,0-8.1-1l-2-1c-3-2-12.1,1-13.2-3l-6.1-1l-7.1-2c-8.1,0-12.1-3-18.2-4l-5.1-2c-7.1,1-12.1-1-17.2-2l-6.1-1
		l-7.1-2c-2-1-1-2,0-3h-8.1c-2-2-10.1-1-12.1-3l-1-1c-3,1-6.1,0-8.1-1c-6.1,0-11.1-2-15.2-3l-8.1-2l-6.1-2c-1-1,0-1,1-1l-5.1-1
		c-9.1,0-18.2-1-25.3-5l-5.1-1c-4,1-4-1-6.1-2l-10.1-2h-1l-7.1-1l-7.1-2h-2c-2-2-5.1-3-9.1-3l-6.1-1c-2,0-2-1-2-2l-15.2-1v-1h-1
		c-7.1,0-11.1-2-16.2-3v-1l-8.1-1l-2-1l-4-2c-7.1,1-11.1-2-17.2-3h-8.1c-1-5,4-3,8.1-2h2l3-2l-4-1h-1v1h-4c-6.1,2-11.1,0-16.2-1
		l-1-1h-2c-4,0-7.1-1-8.1-3c-2,0-4,2-5.1,0c-8.1,0-14.2-2-18.2-4l-9.1-1l-1-1v-2h-7.1l-2-1l-1-1h-1c-2,0-5.1,1-7.1-1h-8.1
		c-5.1-2-12.1-3-11.1-7c-4-1-6.1,0-8.1,1l-3-1l-5.1-2l-2-1c-3,0-6.1,0-7.1-2l8.1-1h3c1,0,1,0,0,0h2l2,1l4,2c4,0,8.1-1,10.1,1
		c5.1,2,10.1,3,17.2,3c3,1,9.1,0,12.1,2h-1h4c2,2,9.1,0,10.1,3c7.1,0,14.2,1,19.2,3l-2,2l2,1l2,1h7.1c2,1,2,1,0,2l2,1l3-1l1-2h4
		l-4,2l1,1h11.1l29.4,7c13.2,1,22.3,6,34.4,8c5.1,1,12.1,1,15.2,4h2l7.1,1h1l7.1,1c3,1,6.1,1,6.1,3c4,2,10.1,2,15.2,3l1,1l7.1,1
		l10.1,3c9.1,1,16.2,4,24.3,6l6.1,1c5.1,0,7.1,2,10.1,3l5.1,1c8.1,1,17.2,2,22.3,6c6.1,0,12.1,1,17.2,3l7.1,2c5.1,1,10.1,1,12.1,3
		l11.1,3l19.2,3c3,0,6.1,2,8.1,3l9.1,1l4,2c4,1,9.1,1,9.1,3c3,0,6.1,0,7.1,2h5.1c0,1,5.1,2,3,3C733.7,121,729.6,121,726.6,121z
		 M798.5,222c3-1,6.1-2,10.1-1l5.1,3c5.1,2,2,3,0,4c-1,2-3,3-8.1,2c-3,0-4-2-5.1-3v-1c-4,0-7.1,0-4-3L798.5,222z M158.8,175l-2,1
		l-10.1-1h-3c-1-1-2-2-1-3h12.1l-2-2l3-1l14.2,6h-1l-6.1-1v3l-4-3V175z M734.7,255l-4-1c1-2,4-1,6.1-1l4,1v1l2,1l1,2l-1,1l-6.1,2
		c-5.1,1-4-1-6.1-2l-2-1l-3-2C728.6,255,732.7,257,734.7,255z M672.9,155l2,1l4,2v2c-5.1,1-4-2-8.1-2c-3,0-5.1,0-6.1-2L672.9,155z
		 M758,210v1l8.1-1h5.1c0,3-4,2-7.1,2v1c-7.1,2-9.1-1-14.2-2C750.9,209,754.9,210,758,210z M701.3,246l6.1,1v2l-5.1,1l-5.1-1
		c-1-2,1-3,2-3H701.3z M670.9,243h-2c-1-2,3-1,6.1-2h10.1l5.1,1h2l2-2l4,1l1,1c2,0,2,1,0,2h-11.1c-2,1-4,0-6.1-1H670.9z M730.6,151
		c-2-2-7.1-1-10.1-2h2c3-3,6.1-3,11.1,0l3,1C734.7,152,730.6,152,730.6,151z M492.8,274h6.1l2,1l-4,3l-6.1-1
		C490.8,276,490.8,275,492.8,274z M272.1,39l-7.1-1c2-4,6.1-2,9.1-1C276.2,38,275.2,39,272.1,39z M456.4,248l-4-2c2-2,4-2,8.1-1
		c5.1,1-1,2,0,2h-4V248z M439.1,228c-3-1-10.1,0-8.1-3h8.1C438.1,226,441.2,227,439.1,228z"/>
	<path class="st0" d="M508,266l-1,1l-7.1,1h-3l-1-1h-6.1l3-2l4,1l8.1-1L508,266z M53.5,76h-1l-4-2v-2l6.1-1h9.1c1,1,8.1,0,7.1,2
		H55.5C54.5,74,55.5,75,53.5,76z M722.5,216l3,1l5.1-2c8.1,0-1,2,3,3c8.1,0,12.1,4,18.2,6l1,1h-1v3h-5.1l-4-1l-5.1-1l-1-4l-9.1,1h-2
		l-2-1C722.5,220,724.6,218,722.5,216z M743.8,227h-1H743.8z M742.8,225l-1-2h-3L742.8,225z M582.9,288c0,2-4,1-7.1,1
		C576.8,287,579.8,287,582.9,288z M429,220h2c2,2,0,3-2,5h-2l-1-3L429,220z M475.6,274l-6.1-2h6.1C476.6,273,480.6,274,475.6,274z
		 M96,47c-2-1-5.1-2-1-3l4,1L96,47z M678,239c0-2,2-2,4-2l3,1l-4,2L678,239z M104.1,35h-1v-2l-4-2c-1-2,2-1,4-1l1,1l1,1
		C108.2,34,110.2,35,104.1,35z M35.3,68v1l-3,2l-3-1l2-2H35.3z M203.3,53h-2l-6.1-1l4-1C201.3,51,203.3,51,203.3,53z M123.4,149h4
		c1,1,1,1-2,1l-1,1C120.3,150,121.3,149,123.4,149z M728.6,250c3,0,5.1,0,6.1,2C727.6,252,727.6,252,728.6,250z M716.5,144h-9.1
		l-2-1l-6.1-1c-3,0-3-1-3-2h-2l-4-2h13.2l5.1,1c1,1,4,1,4,3l3,1C714.4,143,719.5,143,716.5,144z M432.1,230l-1-1c10.1,3,10.1,3,4,7
		l-2-4h-4l-4-1h-2l-5.1,1l-1,1l-2,1h-1l5.1,2c-2,1-5.1,0-7.1-1h-6.1v-2l3-1l8.1-1l1-1l5.1-1l4,1H432.1z M435.1,242l-2-1l4-2
		C438.1,240,439.1,241,435.1,242z M796.4,221v-1l6.1-1h2L796.4,221z M512,252v1c-3,0-6.1,0-5.1-2h1L512,252z M514,280v1H508L514,280
		z M715.5,253c2,0,0,1,0,1h-4v-1H715.5z M88.9,134h-4v-2C86.9,132,90,132,88.9,134z M-15.3,60l4,1h-4V60z M204.3,173l1,3
		c-3-1-6.1-2-2-3H204.3z M114.2,141c-2,0-3-1-3-3l3,1C115.3,140,117.3,141,114.2,141z M14,68l-4-2l4,1C15.1,67,17.1,68,14,68z
		 M40.4,170l6.1,2l-2,1c-3,0-4-1-5.1-2L40.4,170z M563.6,284l3,2c-2,2-5.1,0-7.1,1c-1,1-1,3-5.1,3c-2-1-1-2-1-3v-1l3-1
		C557.6,284,560.6,283,563.6,284z M459.4,237c-2,2-5.1,1-7.1,0H459.4z M101.1,46h3c3,0,6.1,0,7.1-2h6.1c1,1,5.1,3-1,3l-2,1l-6.1,1
		C102.1,50,103.1,47,101.1,46z M114.2,50l4,1h1l2,1v1h-6.1l-3-1l-2-1v-1H114.2z M324.8,227h4c3-1,5.1,2,9.1,1l1,2c3,1,5.1-2,9.1-1v1
		l4,1c2-2,5.1-1,8.1,0l9.1,1v2h-2l18.2,5l-1,3h6.1l-3-3h1h-3c2-5,4-5,11.1-3l3,4l7.1-4h2l1,4c-3-1-4,0-5.1,1l3,1l-1,2
		c3,2,7.1,2,11.1,2h2c3,1,6.1,1,4,3l4,2c5.1-2,3,1,4,1h5.1v1l1-1h11.1l6.1,1l-1,1l1-1c2,2,5.1,0,7.1,1c7.1,2,1,4,0,6l-4-1l-4,1v-1
		l-4-1l-3,1h-13.2l1-2l-2-2H424c-3-1-1-1,0-2l-2-1h-15.2c-3-1-2-2-2-3l-2-1v1l-4-2v-1h-9.1c-4-3-9.1-2-14.2-2l-9.1,4l-1-1l2-3
		l-8.1-2l-11.1-2c-3,1-5.1,0-6.1-1s1-1,2-1l4,1l3-2h-2l1-2c-2-1-4-2-4-4l-4,2l4,4c-5.1,0-9.1,0-11.1-2l3-2l1-1l-10.1-1c0,2-2,2-3,1
		c-1-2-3-4-8.1-4C319.7,226,322.7,227,324.8,227z M449.3,255h-3l1,2L449.3,255z M417.9,250h1H417.9z M391.6,239h-2l6.1,2h1
		L391.6,239z M383.5,242h-1H383.5z M509,242l3-2c3-1,6.1,0,8.1,1h1c4-1,7.1,0,10.1,1v2l-11.1-2l-9.1,2l-4-2H509z M654.7,249l10.1,3
		c3-1,4,0,6.1,1l1-1l3,1l3,2l1,1c2,1,3,3,0,4h-6.1c-3-1-1-2,0-3l-6.1-1c-1-1-4-1-3-2h-4C648.7,254,653.7,251,654.7,249z M652.7,256
		l-5.1,1l2-2L652.7,256z"/>
	<path class="st0" d="M75.8,177c4,0,8.1-3,13.2-1l4-1l7.1,1l1,1l1-2c4,0,7.1,0,8.1,2h5.1c0,1,1,2-1,3l-4-1l-3,1l1,1l1,1l-1,1l3,2h3
		v-1l4-1l1-1v1l1-3c1-2,4-1,7.1-1c0,1,0,2-2,2l-1,2h-1h21.3l8.1,4h4c5.1-2,7.1,0,10.1,1h3c4,0,10.1,0,14.2,2l4,1l2,1l13.2,4v1l-4,1
		c0,1-2,2,0,2l6.1,1c2,0,4-1,5.1,1l6.1,1h8.1c4,1,5.1,3,6.1,5l4-1h-1h1c1-1,1-3,5.1-2c3,1,8.1,2,10.1-1h2l2,1l4-3l-12.1-5h2l-1-3h-1
		l-3,1c-6.1-1,0-2,0-4c-1,0,0,0,0,0c-6.1,1-8.1,1-11.1-1h-4l2,4l-6.1-3l-5.1-3v-3h-1l-2,1l3,2l-4,5l-2-1h-9.1l-7.1-1v-3l5.1-2
		l-16.2-4h-1l-3-1v6c-8.1-1,0-7-11.1-7l-4,4h-2l-1-7l13.2-1c-5.1-3-3-6,2-7l-2-3v-1h2l2-3c1,0,2,2,4,0c2-3,5.1-1,7.1,0
		c6.1-1,6.1-2,2-4H176l6.1,1l-9.1,3l-5.1-3l-6.1,1l-1-1l9.1-3l3,1c0-2-2-3-5.1-4l-2,2l-3,1l-4-1l-2,1l-4-2l6.1-2c3-2,6.1-4,12.1-3
		l5.1-2h1h-1v-1h-17.2c2,3-6.1,4-7.1,6l-5.1,3h2c3,0,4,1,3,2v1l2,2h3v2h-4l-3,1l-2,1h-1c-6.1-1-13.2,0-19.2-2c-1-1,0-2,1-3l7.1,1h2
		l11.1-2h-1c-2-1-6.1,0-7.1-2h-10.1c-3,0-6.1,0-4-2l2-1l4-1l2,1l-1-2h6.1l1-3l1-2c3-2,8.1-2,13.2-2h12.1l5.1-1l-4-1h-3l-11.1-3l-1,1
		h-1l-6.1,1l-2-1v-1l-2-1l3-1l-12.1-2v-1v1l3,2l2,1v1c-3,1-6.1,1-5.1-1l-3-2l-4,1c-1,0-3,2-3,0c0-1-1-3,2-4h3l-2-2
		c5.1,1,8.1,2,7.1-1v-1l-9.1-2l-5.1-1l-5.1-1h-1l-14.2-4l-2-1l-5.1-1l-3-1l-26.3-8h5.1c1-1-3-1-1-2l7.1,1v1l9.1,2h5.1
		c-1-2-5.1-1-8.1-2c-1-1-4-1-1-2l22.3,5h1l-2-1h-1l-18.2-4l2-1h2l15.2,3l-6.1-2l10.1,1l10.1,3l2-1c-5.1-1-5.1-4-10.1-4
		c-5.1-1-5.1-4-10.1-5l2-1l11.1,2h2l3,2h1c5.1,1,12.1,1,15.2,4h1c2-1,1-2,4-2s1-1,0-1c-1-2-7.1-1-6.1-3l1-1l4-1c0,0,1,0,0,0l-17.2-5
		l2-1c9.1,0,18.2,1,27.3,4h8.1l-6.1-1c-3-1-2-2-2-2l-1-1h-2l-7.1-1l-12.1-4l1-1h3l4,1l-3-1l-7.1-1c-2,2-7.1,1-11.1,1c-4-1,1-1,2-2
		s0-2,2-2h-6.1l-2-1v-1l-4,1l-1,1L95,86l-2-1l-12.1-2c-4,0-6.1-2-10.1-3h-1v-2c0-2,3-3,6.1-3c-1-2,1-3,3-3l3,1c2,1,5.1,1,3,2h-8.1
		l1,3h11.1c0-3,2-5,9.1-3l-3,3v2h11.1l5.1-1l-2-1l-5.1-1l-4-1l1-2l8.1,2l15.2,2l2,2l15.2,3c0-2,2-3,4-4l6.1,1l5.1,1v1l10.1,1
		c-3-2-1-4-3-5l-1-1h-2l-2,1h-8.1c0-2,3-2,4-2h-1l-5.1-2l-4-1h-4l-3-2l-2-1l-9.1-1l-1,1h-13.2l-4-1l4-1l2-1h5.1l-1-1l-5.1-1
		c-3,1-5.1,0-7.1-1L90,60l-11.1-3l-21.3-5l-16.2-4c-1-1,1-1,2-1l25.3,5c3,1,8.1,1,11.1,3h1l22.3,5l19.2,4l5.1,2h-1l18.2,4v1h2l5.1,1
		l3,1l5.1-2l-9.1-2l3-2l-4-1l-4-1l-4-1l-19.2-4l-9.1-2h-1v1h-12.1l-2-1c-2-1-2-2,0-4h2l5.1,2h2l-4-1v-1l6.1,1l5.1-1c2,0,5.1-1,5.1,1
		l-4,2l8.1,2c5.1-2,9.1,0,13.2,1c1-2-6.1-2-8.1-4l-1,1l-5.1-1l8.1-1l-6.1-2l-2-3c-1-1-1-2,2-2l2,1l2-1l1-1l-7.1-2l-9.1-3
		c-1-1,0-1,2-1c-4-2-7.1-3-11.1-3c-2-1-5.1-1-4-3h1l16.2,5h1c3,1,8.1,1,11.1,3h4c4,2,8.1,3,13.2,3l1,1l9.1,2l5.1,1l9.1,3l8.1,2l4-2
		h2c4,0,6.1,2,7.1,3l-2,1h-2l5.1,1l1,1l5.1,1h16.2l7.1,2c3,1,8.1-1,9.1,2c3,1,6.1,0,8.1,2l3,1h5.1h-1l-13.2-3c-1,0-3-1-2-2h1l3-2
		l3,1l2,1h2h-1l-5.1-2l-4-2h-3c-5.1,0-3-2-4-4l-2-1h-2l-11.1-2l-5.1,1l-7.1-2c-4-1-1-2,0-2l2-1l8.1-1h1l1-3l3-1l6.1,2c0,2,3,2,5.1,2
		v-1c1-2,3-4-1-5l-5.1,1l-8.1-2v1c-2,1,0,2-2,3h-4l-3-1h-1l-6.1,2v2l-3,1c2,1,2,2,2,3l-2,2l-4-1c-2,0-2-1-3-2c-1-2,1-2,4-2l-3-1
		l-2,2h-4c-3-1-1-2,0-3c3,0,0-1,0-1h-2l-1-3l-8.1,2c-3-3-10.1-2-13.2-4c-4,2-5.1-2-8.1,0v-1c-5.1,3-9.1-1-13.2,0l-16.2-2h-7.1
		c-2-3,6.1-2,5.1-4l4-1h1c-1-1,1-2,1-3h2l4,2v1h-4l4,1l4-1l4,1h4l1,1h8.1l2,1l4-1c0-1-1-2,1-2l1-2c1-1-5.1-3,2-4l28.3,6l0,0
		c8.1,0,14.2,2,20.2,4h3c5.1,2,12.1,3,19.2,2l1,1l7.1,1l2,1l5.1,1c4,1,2,2,0,3l-3,2l-4-1h-3v1l-2,2h9.1l-1-2l4,1h2c0-1,4-2,1-3
		c-1-1,0-2,1-2l10.1,2h1l5.1,2h9.1l6.1,1v-1c4,2,6.1,4,11.1,4l11.1,2l7.1,2l2,1l-1,3l1,1l-1,1l2,1h11.1l3,2c4-1,5.1-2,4-3h-4v-1
		l-5.1,1c-3,0-7.1,0-6.1-2v-3l4-1l8.1,4l7.1,1h4c4,0,8.1,1,10.1,3l1,1c2,1,4,1,3,2c2,0,7.1,1,7.1-1l4,1h-1c4,1,9.1,0,12.1,2v-1
		l9.1,1v-1h-3c-4,1-6.1-1-8.1-2v-3h-1l-7.1,1h-5.1l-1-1h-1l-8.1-1h-2c-3,0-6.1,0-8.1-2h-2l-3-2l1-1l-9.1-2c-2,0-2-1-2-2l-4,1h-7.1
		l-8.1-4v-1c-3,0-7.1,0-8.1-2l-1-1h-10.1l-4-2c6.1-2,9.1,1,14.2,1h-1l10.1-1c0,2,6.1,3,6.1,6h5.1l4,1l4-3c3,0,3,3,8.1,2v1l9.1,2
		l6.1,1h2l3,2l6.1,1l4-1l2,1h3l2,1c5.1-1,7.1,1,10.1,2h2l-2,2v1l1-1c4,0,8.1-1,12.1,1l5.1,1l5.1,1c3,2,13.2,1,14.2,5h2h-1l1,1
		c4,0,8.1,0,9.1,2l6.1-1c1,1,5.1,1,2,2c-4,2,2,1,2,1l7.1,1c5.1-1,9.1,2,13.2,0h4v-1h-7.1c-2-1-4-2-3-3l3-1h-6.1c-6.1,2-8.1-1-12.1-2
		v-1l-4-1c0-2-1-3-5.1-2v1c-7.1,4-9.1-1-13.2-2l-3-1h-5.1l-1-2l-9.1,1l-7.1-2l-1-1h-1c-3-1-7.1,0-8.1-2l-4-1l-3-1h-2c-4,0-4-2-7.1-3
		h-1l-4-1h-11.1l-1-1l-1-1h5.1l-4-3c-3,1-5.1,0-7.1-1h-5.1l-1-1c-4,0-7.1,0-8.1-2h-1c-5.1,0-9.1-2-14.2-1l-2-1h-5.1c-3-2-4-5-12.1-4
		c-3-1-3-2,1-2h16.2l5.1,1l5.1,1l2,1l8.1,1h3l1,3l9.1,2l8.1,1l2,1l7.1,1c4,0,6.1,2,10.1,3c7.1,0,13.2,2,19.2,3h-1v1l1-1l15.2,4
		c5.1,0,11.1,1,14.2,3c7.1,0,13.2,2,18.2,4l16.2,3l15.2,4c4,0,9.1,0,10.1,3c10.1,1,19.2,3,26.3,6l2,1c6.1,0,10.1,1,14.2,3
		c6.1,0,11.1,1,15.2,3c3,0,6.1,0,8.1,2h1l7.1,1l2,1l11.1,5l13.2,2l16.2,4l7.1,2l6.1,1l11.1,3c5.1,0,6.1,2,10.1,3l4,2h7.1
		c3,1,4,3,5.1,4h1l7.1,2l7.1,1h3c5.1,0,8.1,3,13.2,3h1c7.1,0,7.1,3,11.1,4c5.1,1,13.2,0,15.2,3c5.1,0,10.1,1,12.1,3c5.1,0,5.1,2,3,3
		c-1,2-5.1,1-7.1,0l-8.1-3l-6.1-1h-11.1v-1c-4,1-7.1,0-8.1-2h-3c-3,0-7.1,0-9.1-2l-5.1-2h-6.1l-1-2h-5.1c-1,0-4,0-3-1l-2-1l-3-1
		l-5.1-1h-4l-2-1v-1l-3-1h-5.1l-6.1-3h-6.1l-5.1-1l-3-1c1,1,2,2,4,1c2,1,1,2,2,3h1c1,2,5.1,2,7.1,2c1,2,6.1,1,7.1,3l-1,1h3l4,2h1
		l1-1h3c6.1,0,13.2,1,18.2,3l1,2l4,2l6.1,1h6.1v1l8.1,2l5.1,1v1c4,1,13.2,0,11.1,4l-9.1,1h-3v-1c-6.1,2-6.1-1-7.1-2h-8.1
		c-1-3-7.1-3-10.1-4v-2h1h-4l-5.1,1c-5.1,0-7.1-1-8.1-3h-2c0-1-1-2,1-3c-1-2-4-2-7.1-2c-1,1-1,3-5.1,4v2h2l9.1,3h1l4,1
		c1,1,0,4,5.1,2h6.1l1,1l8.1,1c2,0,4,1,3,2h1v1h6.1c2,3-4,2-6.1,3v-1h-3l1,1l2,2l2-1l4,1h4c2,1,2,3,4,3l4,2c3-3,3-3,7.1-1l-4,2h2
		l6.1,1h4l7.1-1l2,1l1,1c2,0,3,0,3,2h1l2,1c0,4-5.1,5-13.2,4l-2-1c-5.1-1-10.1-2-13.2-4v-1c-2-1-8.1,1-6.1-2c-10.1,1-6.1-4-10.1-5
		h-1c-5.1,0-10.1,0-12.1-2h-7.1l1-3l-3-1h-6.1l3,1c1,0,5.1,0,4,1h-6.1c-1,2,4,2,3,4h4l3,1l8.1,2c2,1,6.1,1,8.1,3h1l3,1l6.1,1v1
		l7.1,1v1h1c5.1,2,12.1,2,16.2,5l-1,1l-7.1-2l-14.2-3h-1l-1-1c-4.6-1.7-9.3-3-14.2-4h-1l-9.1-2l-12.1-2l1,2c4-1,6.1,1,8.1,2l5.1,1
		c5.1,0,6.1,1,3,3l-4-1l-6.1-1v1l-1,2h4v1c2,1,1,2,0,4c-2,1-1,2,2,2l6.1,2c1,1,1,1-2,1l-20.2-2l-8.1-1v-1l-4-1l-3-1c-4,2-4,3,0,4
		l3,2l2,1h11.1l1,1h3l2,2v1l8.1,3l3-1l2-1h10.1l2-1l-2-2l-3-1c-1-1-2-1-1-2h6.1v2h9.1l1,1c1,1,5.1,1,4,2v1l1,1v1c-3,0-8.1,0-10.1-2
		h-2l-1,1l4,2l5.1,1h10.1l-2,2l-6.1,1l-2,1l3,1l9.1-2h3l4,1l1,2h-1l2,4h2l2,1l2,1l8.1,2c5.1,0,9.1,1,8.1,3v1c4,1-1,3,0,4h1l4,1
		c-2,2,8.1,2,4,5h-2l-5.1-1l-4,1l-3,3l-5.1-1l-4-1l-9.1-2c-1-2-1-3,3-3h4l-4-1h-5.1c-4-1-10.1,1-12.1-2H681c-1-2-2-3-6.1-3l-4,1
		l-2-1l-1-1h-8.1v-1c-4,1-5.1-2-8.1-2c0,2-1,4,1,5l3,1l10.1,2l1-1c5.1,1,11.1,0,10.1,4l4,1c3-1,5.1,1,9.1,1l6.1,1c5.1,0,6.1,3,9.1,4
		c8.1,0,11.1,3,17.2,4h-14.2l7.1,2l6.1,2l-2,2h-1c-4,1-4-1-7.1-1h-2c-2,2,1,5-8.1,5l-2-1v-3l1-1l-1,1h-9.1l-6.1,3l6.1,2
		c2-1,4-2,8.1-1l-1,4l-4,1h1l3,1l3,1h-7.1l12.1,4l-12.1-1c-5.1-1-10.1-1-14.2-3c-4,0-8.1,0-10.1-2h-3l-9.1-2c0,2-1,4,2,5l2,1h1l2,1
		l5.1,1c-3,1,6.1,5-4,3l-4,2v-4l-4,1h-1c-3-1,0-1-1-2l-1-1h-16.2c-2-2-7.1-1-10.1-2h-3v-2h-4l-1-3h2c1-2,7.1-1,7.1-3h-6.1l-6.1,2h-4
		v-2c-5.1-2-12.1-3-19.2-3l6.1-2c-2-1-5.1-1-6.1-3h-9.1l-10.1-2c-3,1-6.1,2-9.1,0l-2,1h2l2,1h1l9.1,2h1l3,1h2c0,2,2,2,3,3h-4
		c4,1,6.1,4,11.1,2c0,2-2,2-5.1,3c3,1,4,2,4,4l5.1,1h10.1c5.1-1,6.1,1,8.1,2l9.1,4c-4,1-6.1,5-12.1,1l-5.1,1v2c6.1,0,10.1,1,5.1,4
		l1,1h9.1l2-1c-1-2,2-3,4-5l2-1l4,2l2,1h1c0,1,1,3,4,4h2l8.1,1l-4,2h-6.1c-9.1,0-5.1,2-4,3c0,2,7.1,2,6.1,5c-4,1-7.1,2-8.1-1l-7.1,2
		l-1-1v1c3,1,2,2-2,2l-9.1-1h-10.1c-7.1,0-9.1-3-13.2-5l-5.1-1h-2c-3,0-1-3-6.1-2h-2l-3-2h-3l-2,1h-1c0-2-5.1-1-6.1-2h-6.1l-1-2l2-1
		l-1-1h-8.1l-2-1h-1c-6.1,1-6.1-2-8.1-3c0,1,0,2-2,2c-2-1,1-2,0-3h-3l-6.1-3v-1c-6.1-1-12.1,0-15.2-3v-1h-9.1l2-2c1-2,1-3-5.1-2
		h-11.1l-3-1l-2-2h-2c-5.1,1-10.1,0-15.2-1h-3c-1,2,2,4,0,6l9.1,1l1,2l5.1-1h5.1l4,1l2,1v2h-1l3,1c0,1,5.1,1,2,2c1,2-2,2-5.1,2l-1-1
		l-2-1l-2-2h-5.1l-8.1-2l-1-1l1-1h-7.1l-1-3l-5.1-1l-2-1h-1l-5.1,1c-2-2-7.1-1-9.1-3c-1-2,3-2,5.1-3h1l1-1h6.1v1h10.1c0-2,2-3,4-3
		l-1-1l4-2h-7.1c-1,2-4,3-8.1,1h-8.1l-5.1-1v-2h-1l-5.1,1h-4l-5.1-1l-1-2c1-1,1-2,3-2h1l-2-1h-12.1l-1,1h-2c-3-1-8.1-1-6.1-4v-2h-2
		l-2,1l-12.1-1l-6.1-1c-2-1-1-2,0-3h-2v-1h-4l-6.1,2c-7.1,0-1-3-4-4h-2l-9.1-1l-1-1l-9.1-1h-1c-3-1-6.1-2-5.1-4h-1c1-1,0-1-2-2h-5.1
		c-1,1-2,2-5.1,1l-4-1l-6.1,1l1-1l-4,1l-6.1-1l3-5l-3-1v-1v-1h-1c-2,2-3,4-9.1,4l-7.1-1h-3l-3,1l2,1l1,1h1l6.1,4c1,0,3,1,1,2
		c-6.1,1-4-3-8.1-3l-1,1h-3l-4-1h-14.2l-2-1l2,4l6.1-2l4,4l8.1-2l2,4h1c5.1-4,6.1-4,17.2,1l-4,2l5.1,1l15.2,3l4,1h1c1,4-4,3-9.1,3
		h-4l-5.1,1c-4-1-7.1-3-6.1-5c-5.1,1-8.1-1-12.1-1l-1-1l-3,1c-2,2-5.1,2-9.1,2c-7.1,0-14.2,1-18.2,3l1,1l1,1v-1c6.1,1,12.1,0,16.2-2
		h9.1c-1,3,3,4,8.1,5v-3l-6.1-1l11.1-2l-2,1l7.1,8l-1-6l12.1,3l6.1-2l3-1l5.1-2c2,2,9.1,1,9.1,4c2-1-1-3,4-2l5.1,1h6.1v1l2,1h2
		c3,0,7.1,1,8.1,3c3-1,4,0,5.1,1c0,3-7.1,0-9.1,2h-5.1l-2,1h-3l-4-2c-2-1-1-1,1-1l2-2l2,1l-1-1l-3-1l-4,2v-1h-1l-5.1-1h-4
		c-3,2-5.1-1-8.1-1l-2-1l-6.1,1l4,2l-3,8l-4-2l-4,1l4,1l2,1h6.1l-1,2c3,1,1,1,0,2c-4,0-4,1-7.1,2l-3,3l-4-1l5.1-2c4-2,0-2-2-3v-1
		l-3-1l-5.1,1c-2-1-3-1-2-2l-7.1-3v2h2c1,0,3,1,2,2v1h-2c-4,0-5.1,4-10.1,2l-6.1-1h-3c-2-1-7.1-2,1-3h4l-6.1-1l-16.2-2l1-1l-21.3-4
		l-2-2l-1-1c-10.1,1-17.2-3-25.3-4h-4c0-2,1-2,4-3l-2-1h-4l-4,1l-7.1-1l-4,1l-8.1-2c-3-1-5.1-1-6.1-3l6.1-1l1-1l4,1l-2,1v1l5.1,1
		c-2-2-1-3,2-4l-3-2H180l-1-1H174v-1l-5.1,1l2,1l-1,1l-7.1,1h-2l-2-2l1-1l-5.1-2h-2l-2,2h-5.1c-3,0-6.1,1-6.1-1l3-1l3-2l-2-1v-1
		h-7.1l-1,1h-3c1,1-3,1-5.1,2l-1-1l-10.1-1l-6.1-2h1v-1l-1,1l-7.1-1v-1l-3-3h1l2-2h-1v-2l-3,1l-9.1-1l-16.2,1
		C71.7,177,73.8,177,75.8,177z M109.2,121h1H109.2z M202.3,36l-4,1h-2l5.1,2h3L202.3,36z M154.7,38v1V38z M448.3,222l1,1l3,1v-2
		H448.3z M245.8,190l-1-1l-2,1H245.8z M223.6,186v-1h-1L223.6,186z M206.4,187l4-2v-2C208.4,184,205.3,185,206.4,187z M207.4,183
		l1-4c4,1,4,2,3,3l6.1,1v-2l3,2l4,2h7.1l12.1-4l1,3l6.1-2c2,0,5.1,0,7.1,2l-1-2h4c2.4-0.1,4.8,0.2,7.1,1c0-2,1-2,4-1l6.1-2h6.1
		c-1-1-3-1-2-2l2-2l-2,1c-7.1,1-13.2,1-19.2-1l-1-2h-9.1c2,1,2,2,1,3l-7.1,1v1h-7.1l-4-2l-2,1h-2c-3,0-4,2-9.1,1l7.1-2
		c2-2,4-1,6.1,0l2-2l-2-1l-1-1l-6.1-1c2-1,5.1,0,8.1,1l1-1h9.1h1l-2-1l-8.1-1l-1-1h-1c-2,1-4,2-7.1,1h-4v2h-6.1c-1-2-4-2-7.1-2h-4
		c-2-1-4,0-4,1h-6.1h1C196.2,176,197.2,180,207.4,183z M381.5,193l-3-1h-2h2l1,1H381.5z M546.4,240l4-1h-5.1L546.4,240z M640.6,171
		l-3,1l1,1h2V171z M346,63l1,1L346,63z M211.4,168v1h5.1l5.1-1l1,1v-3l5.1-2l1,1l-1-1h-1c-5.1,1-7.1-1-10.1-2h1h-1c-2,0-2,3-5.1,1
		l-2-1h-6.1l-6.1,2v1l1-1l6.1,1l1,2C207.4,166,209.4,167,211.4,168z M389.5,195l1-1h7.1h-3l-3-1h-1l-3,1v1H389.5z M555.5,237h7.1
		l1,1h2l1-1l-6.1-2v-1h-1l4-3h-5.1l1,1c1,1,1,2-1,2h-3c-1,1-2,1-1,2v1H555.5z M581.9,230v-1l-4,1l4,1l2,1h1l-1-1L581.9,230z
		 M193.2,70l-2-1l1,1H193.2z M228.6,165l-1,1l2-1H228.6z M479.6,217h-1H479.6z M483.7,215l1-1h-3l-1,1h-1h3H483.7z M558.6,228h10.1
		c-1-1-1-1,1-2l-3-2h-2c0-1-1-2-4-2l-1,1l4,1h-5.1l-3,1l-4,1v2c2,0,2,0,1,1c2,0,3,1,3,2h3C556.6,230,556.6,229,558.6,228z
		 M583.9,235l-5.1,1l1,1l4-1h5.1C586.9,237,584.9,236,583.9,235z M503.9,94l-6.1,1l5.1,2h7.1v-2h-1L503.9,94z M477.6,77v-1l-7.1,2h1
		l4-1H477.6z M414.9,78h-4l-6.1-1l1,1l2,1l6.1,1h3l1,1l3,1h4l2-1h8.1l2-1l-4-2l-1,1l-12.1,1L414.9,78z M286.3,170h1l-2-1l-2,1H286.3
		z M628.4,207l2-1v-3h-10.1v1l2,2l4,1H628.4z M219.5,83v-1h-1L219.5,83z M566.7,151l-1-1L566.7,151z M521.1,133h1l3,1v-1H521.1z
		 M623.4,188L623.4,188z M458.4,92h-1H458.4l2-1l2,1l2-2L458.4,92z M520.1,103l-1-1l-1,2h5.1l1-1H520.1z M587.9,202l2,1L587.9,202z
		 M447.2,84h2l-2-1l-1,1H447.2z M468.5,88l2-4l-2,1V88z M514,103l2-2v-1h-4C512,101,512,102,514,103z M543.4,107v2l-2,3h7.1l1-1h3
		v-1c-3-1-9.1-1-8.1-4L543.4,107z M563.6,110l-5.1,1h-1l-3,1c1,2,4,2,8.1,2l3-1c-3-1-3-2,0-3H563.6z M579.8,123h3l2-1h-1L579.8,123z
		 M664.9,214h-1H664.9z M433.1,84v1h2v1v-1h2l-1-2h-2L433.1,84z M586.9,117v-1l3-1l-7.1-1l3,3h2c1,1,2,2,0,3v1h3c2-1,4-2,6.1-1l3-2
		C596,118,591,119,586.9,117z M247.8,163l4,2l4,1h-1h2l3-2l-3-2l-5.1,1l-1-1h-3l-5.1,1l0,0H247.8z M172.9,84l-1,1L172.9,84z
		 M481.7,88l-2,3l2,1c0,2-3,2-6.1,2h-2v1h2l8.1,2h7.1l-2-1l-2-1c-2,0-4-1-3-3l3-1l1-2h-1L481.7,88z M636.5,197
		C636.5,197,635.5,197,636.5,197z M538.3,230l7.1-1l1-1l-1-1h-4l-10.1,1L538.3,230z M195.2,152l4,1l1-1l-4-1L195.2,152z M388.5,74
		l4,1l4-1l-8.1-1V74z M397.6,69l1,1l1-1H397.6z M411.8,72l-4,2h2l2,1l4-2l-1-2h-3V72z M619.3,128h-2c1,1,0,2-1,2h-3c-4-1-3-4-10.1-3
		h-4h1l17.2,5l1-1h2v-1v-2H619.3z M647.6,187l-2-1h-10.1v1l1,1c0,2,1,2,2,2l1-1h2l6.1,1l1-2L647.6,187z M595,235l1-1L595,235z
		 M460.4,208l-1,1l2,1l3-1h1L460.4,208z M447.2,207l-1-2l-4-1h-2v1L447.2,207z M374.4,191h1H374.4z M335.9,181v-1l-3-1h-1L335.9,181
		z M194.2,165l-3-2l-4,2H194.2z M386.5,68l-1,2h3l2-1l-1-2l-2,1H386.5z M534.3,95h3l4,1h6.1l3,1c2,0,9.1,0,2,2h9.1l7.1,1l-5.1-2
		l-1-1h-1l-11.1-1c-2-1,0-2,0-4h-3l-1-1v1h-13.2l2,1C536.3,94,535.3,95,534.3,95z M550.5,91h1H550.5z M627.4,131l-1,1c1,0,0,0,0,0
		l-2,1l5.1,2v-1l1-1l-2-2H627.4z M665.9,179l1-1h-5.1L665.9,179z M650.7,217l5.1,2C655.7,217,653.7,217,650.7,217z M490.8,218l-1-1
		h-2l4,2L490.8,218z M180,152h2c0-2,4-2,8.1-2l1-2l-6.1-2v1c-2,2-5.1,1-7.1,0C180,149,181,150,180,152z M144.6,127h1H144.6z
		 M124.4,81h-4h1c2,0,3,1,2,2h2l1-2H124.4z M130.4,56c2,0,5.1,1,6.1-1v1l-5.1-1L130.4,56z M133.5,49h-3l9.1,2v-1l-5.1-1H133.5z
		 M224.6,51v-1h-2c1,0,0,0,0,0L224.6,51z M280.2,57l-6.1-2l-2-1c-3,0-6.1,0-7.1-2H257v-1l-8.1,1l-9.1,1h2c3,2,7.1,2,11.1,1l4-1h2v3
		l10.1,2v-2c2,0,6.1,0,5.1,2h-5.1v1h7.1l2,1h2l4,2h5.1l1-1c4,0,9.1,0,11.1-2h-4c-3,0-7.1-2-11.1,0c-1,1-6.1,0-4-2H280.2z M351.1,66
		h1v-1L351.1,66z M374.4,68h-2c-3-1-7.1,0-10.1-2v1h-3l1,1l1,1h8.1l2,2l1,1h2l-1-1c0-1,0-2,2-2L374.4,68z M360.2,59L360.2,59z
		 M392.6,65h3c-1-1,0-2,2-2C394.6,63,392.6,63,392.6,65z M509,85l-9.1-3h-1l-8.1-1c-2,0-6.1,0-5.1-2h-2v1l5.1,2l4,1l4,1l4,1h1l1,1
		l4,2h7.1l3,1l5.1,1l2,1h8.1h-1h1h-1v-2l-3-2h-2c-4,0-7.1,0-8.1-2H509z M653.7,135l-1,2l2-1h1L653.7,135z M674,178h1v-1L674,178z
		 M686.1,189l-3-1v1H686.1z M669.9,191C668.9,191,668.9,191,669.9,191C668.9,191,669.9,191,669.9,191z M695.2,207h-3l-1,1l-3,1
		c3,0,4,1,5.1,2l-1,2l2-2h2l1-2l-1-1L695.2,207z M669.9,222l-3-1L669.9,222z M582.9,225h4H582.9z M602.1,235h-2l-1,1h10.1l-2-1
		H602.1z M598.1,248h5.1l1-1l-5.1-1l-6.1-1h-2v1L598.1,248z M517.1,232l3-1c-1-1,2-2,4-2l2-1l-1-3l-5.1,1l-4,4
		C518.1,230,514,232,517.1,232z M504.9,221l6.1-1v-1l-5.1-1l-3,1v2H504.9z M494.8,222l5.1,1l3-2l-6.1-2h-2l-2,1c-2,0-2,1-2,2l1,1
		L494.8,222z M286.3,200v-1h1l1-2l-1-1l-1,1l-1,2L286.3,200z M302.5,214l-10.1-1l-1-1c-3,0-7.1-2-12.1-1l14.2,5h4l6.1,1L302.5,214z
		 M258,212v-2h-1v2H258z"/>
	<path class="st0" d="M218.5,202v-2l4,1C222.5,202,221.5,203,218.5,202z M429,237h2c0,2-1,3-5.1,2L429,237z M486.7,251h-11.1
		c1-2,5.1-1,7.1-2C486.7,249,487.7,250,486.7,251z M481.7,246l2,2c-4-1-8.1,0-10.1-2h-2c-2-1-3-2-1-3c-4-1-7.1-1-10.1,2l-1-1l2-5
		l11.1,3h1c1,1,5.1,1,4,3L481.7,246z M560.6,252h4l-3,1c-2,2-4,1-7.1,0h-2C554.5,251,557.6,251,560.6,252z M552.5,249h4l-3,1
		L552.5,249z M494.8,253l-1-1c3-1,5.1-2,7.1,0c0,0,2,1,0,1H494.8z M788.3,218c2,0,4-1,4,1c-1,1-3,2-5.1,1s-2-1-1-2H788.3z
		 M516.1,279c4,0,6.1,3,11.1,1h10.1v1l8.1,1l6.1,2v1l1,1h-4l-3,1h-2c-3,1-5.1,0-8.1-1c-2-2,8.1,0,4-2l-4-1l-2,1h-2l-4-2l-4,1
		c-6.1,2-2-3-7.1-3C516.1,280,514,279,516.1,279z M508,273h2l4-1l6.1-1h5.1l4,1l1,4c-5.1,3-8.1,1-12.1-1c-5.1-1-9.1,2-14.2,0
		C504.9,274,509,274,508,273z M682.1,143l4-2l4,2H682.1z M776.2,216l-6.1,1l-1-1v-1C772.1,214,774.2,215,776.2,216z M147.6,75
		l-5.1,1l1-2l1-1C146.6,74,148.7,74,147.6,75z M299.5,225c3,3-3,1-5.1,2C294.4,225,297.4,225,299.5,225z M141.6,31l-10.1-1h-2
		c-1-1,0-2,2-3h10.1C142.6,28,146.6,30,141.6,31z M568.7,255c0,2-3,2-6.1,3C559.6,255,564.7,255,568.7,255z M660.8,160c2-1,0-2,2-3
		l2,1v3L660.8,160z M703.3,146c-1,1-3,2-7.1,1C698.3,145,701.3,146,703.3,146z M139.5,175h-4c-1,0-3-1,0-1
		C137.5,173,137.5,175,139.5,175z M505.9,273l-5.1-2h-1l1-1h4L505.9,273z M417.9,228h-8.1l4-2l7.1,1L417.9,228z M212.4,177v-2h4
		C216.5,176,216.5,177,212.4,177z M605.1,227v-1c-5.1,0-6.1-2-6.1-4c2,1,7.1,0,7.1,2h2l1,2l-1,2C605.1,229,607.2,227,605.1,227z
		 M374.4,206l1,1v1c-5.1,2-5.1,0-6.1-1L374.4,206z M386.5,221h-2l-1,2l-1,1l-15.2,4v-5h-1l1-2l-3-1l-4-4l13.2,2c1-1,2-2,5.1-2l4,2
		l3-1C389.5,219,387.5,220,386.5,221z M399.7,218c-1-1,0-1,1-2l3,1c2,0,3,0,2,1H399.7z M437.1,221h3l-1,1L437.1,221z M422.9,217l1,1
		l-1,1h-5.1c-2,0-3-1-2-2H422.9z M307.6,190l7.1,1h3c3,1,6.1,3,7.1,5l2-2h3c4,1,1,3,2,5c-1,1-1,2-3,2c-4,1-6.1,0-8.1-1h-1
		c-3-1-2-2-1-3l-3-1l-10.1-2l-8.1-2v-1l2-1l1-1h-3l2-3l6.1,1v2L307.6,190z M291.4,184h6.1v2C294.4,186,291.4,186,291.4,184z
		 M391.6,213h-1c-4-2,0-3,4-4h2v1l-4,3H391.6z M380.4,205l4,1c-2,1-2,2-2,3h-1C381.5,207,378.4,206,380.4,205z M367.3,205v-1h-10.1
		c-5.1-1-11.1,1-15.2-2l-2-1c-2-2,1-2,4-2h2h-2c-2,0-5.1,0-2-1l9.1-1l2,1v1l10.1,2h6.1l1,1h1C370.3,203,370.3,205,367.3,205z
		 M40.4,149c10.1,5,10.1,0,13.2-1l-7.1-2l18.2-2c7.1-3,11.1-1,16.2,0l7.1,3l-7.1,3c15.2,0,1,5,6.1,6l8.1,1l-6.1,1v1h18.2L90,164
		l-1,3l-9.1-2c-4-2-13.2-1-11.1-5c-7.1-1-13.2-4-18.2,0l-7.1-2L40.4,149z M332.9,223c10.1-1,17.2,1,19.2,5
		C343,228,333.9,226,332.9,223z M119.3,170c8.1-5,11.1-5,21.3-1h-10.1l2,1h-3l-2-1l3,5L119.3,170z M127.4,169h-1H127.4z M408.8,227
		l1,1l-1,2l-1,1l-2,1l-8.1-1c-3,0-3-1-4-2h-5.1c-3,1-5.1-1-8.1-1v-3h4l2-2c6.1-2,7.1-2,9.1,1l3-1c3,0,5.1-1,7.1,1l-1,1h1l1,1
		L408.8,227z M452.3,243l-12.1-5h-1v-1h-1h1c-1-1-1-1,1-2l3-1c1,1-1,2-1,2l-1,1l18.2,5L452.3,243z M422.9,240h3l3,4l-10.1,1
		L422.9,240z"/>
</g>
</svg>
