<?xml version="1.0" encoding="utf-8"?>
<!-- Generator: Adobe Illustrator 22.0.0, SVG Export Plug-In . SVG Version: 6.00 Build 0)  -->
<svg version="1.1" id="Layer_1" xmlns="http://www.w3.org/2000/svg" xmlns:xlink="http://www.w3.org/1999/xlink" x="0px" y="0px"
	 viewBox="0 0 1000 1000" style="enable-background:new 0 0 1000 1000;" xml:space="preserve">
<style type="text/css">
	.st0{fill:#853617;}
	.st1{fill:#C52727;}
	.st2{fill:#203C4B;}
	.st3{fill:#3D85A2;}
	.st4{fill:#F4B594;}
	.st5{fill:#FFEFEF;}
	.st6{fill:#FFC099;}
	.st7{fill:#B37C5C;}
	.st8{fill:#FFD8BA;}
	.st9{fill:#3B3B3B;}
	.st10{opacity:0.17;fill:#1D0202;}
	.st11{fill:#81C2DE;}
	.st12{fill:#132C38;}
	.st13{fill:#76B1CF;}
	.st14{opacity:0.17;fill:url(#SVGID_1_);}
	.st15{fill:#FF4A10;}
	.st16{fill:#EE3700;}
	.st17{opacity:0.17;fill:url(#SVGID_2_);}
	.st18{fill:#006890;}
	.st19{fill:#001724;}
	.st20{fill:#BA2301;}
	.st21{fill:#4D3348;}
	.st22{fill:#F84949;}
	.st23{fill:#FF8F8F;}
	.st24{fill:#8E1414;}
	.st25{fill:#A44A1B;}
	.st26{fill:#060607;}
	.st27{fill:#FFD2AB;}
	.st28{fill:#FFDCC5;}
	.st29{fill:#1E1E1E;}
	.st30{fill:#FF4634;}
	.st31{fill:#FF683F;}
	.st32{fill:#FDC498;}
	.st33{fill:#A31C1C;}
</style>
<g>
	<path class="st0" d="M502.5,439.3V195.6c0,0-129.5,5.1-136.8,19.1c-7.3,14.1,14.6,238.9,14.6,238.9L502.5,439.3z"/>
	<path class="st0" d="M502.5,439.3V195.6c0,0,129.5,5.1,136.8,19.1c7.3,14.1-14.6,238.9-14.6,238.9L502.5,439.3z"/>
	<path class="st1" d="M502.5,430V213c0,0-108.4,4.5-114.6,17c-6.1,12.5,12.2,212.7,12.2,212.7L502.5,430z"/>
	<path class="st1" d="M502.5,430V213c0,0,108.4,4.5,114.6,17c6.1,12.5-12.2,212.7-12.2,212.7L502.5,430z"/>
</g>
<path class="st2" d="M502.5,273v167.5h-72.3l-13.1-142.5C417.1,297.9,425.2,277.4,502.5,273z"/>
<rect x="501.5" y="297.5" class="st3" width="2.1" height="143"/>
<g>
	<g>
		<g>
			<g>
				<g>
					<path class="st2" d="M502.5,253.2v195.5h-84.4l-15.3-166.4C402.8,282.4,412.3,258.5,502.5,253.2z"/>
					<g>
						<path class="st2" d="M402.8,282.4c0,0-35.6,41.5-105.9,28.5c-70.3-13-34.9-110.2-34.9-110.2l-34.6-9.5
							c0,0-42.1,135.6,58.8,154.3c101,18.7,155.3-42.1,155.3-42.1S436.4,263.3,402.8,282.4z"/>
						<path class="st4" d="M265.1,192.8l-28.9-2.6c-6.2-0.6-10.8-6.1-10.3-12.3l4.1-45.7c0.6-6.2,6.1-10.8,12.3-10.3l28.9,2.6
							c6.2,0.6,6.4,4.9,5.9,11.1l-4.2,47.1C272.4,188.9,271.3,193.4,265.1,192.8z"/>
						<polygon class="st5" points="225,185.3 222.3,196 266.2,213.2 273.9,188.8 						"/>
						<g>
							<path class="st5" d="M298.3,147.5l-107.9,24.6c-1.9,0.4-3.8-0.8-4.3-2.7l-0.8-3.6c-0.4-1.9,0.8-3.8,2.7-4.3L295.9,137
								c1.9-0.4,3.8,0.8,4.3,2.7l0.8,3.6C301.4,145.2,300.2,147.1,298.3,147.5z"/>
							<path class="st5" d="M283.7,139.8l81.3-19.4c0,0,3.4,8.6-4.3,14c-7.7,5.4-59.3,18.5-59.3,18.5S293.4,154.2,283.7,139.8z"/>
						</g>
						<path class="st6" d="M237.1,167.7L237.1,167.7c-4,0.2-7.5-2.9-7.8-6.9l-1.9-31.4c-0.2-4,2.9-7.5,6.9-7.8l0,0
							c4-0.2,7.5,2.9,7.8,6.9l1.9,31.4C244.3,163.9,241.2,167.5,237.1,167.7z"/>
						<path class="st6" d="M253,166.6L253,166.6c-4,0.2-7.5-2.9-7.8-6.9l-1.9-31.4c-0.2-4,2.9-7.5,6.9-7.8l0,0
							c4-0.2,7.5,2.9,7.8,6.9l1.9,31.3C260.1,162.8,257,166.3,253,166.6z"/>
						<path class="st6" d="M269.2,165.6L269.2,165.6c-4,0.2-7.5-2.9-7.8-6.9l-1.9-31.4c-0.2-4,2.9-7.5,6.9-7.8l0,0
							c4-0.2,7.5,2.9,7.8,6.9l1.9,31.3C276.3,161.8,273.2,165.3,269.2,165.6z"/>
						<path class="st6" d="M262.7,167.6c0,0-13.5-6.5-11.7-13.1c1.7-6.6,7.9,1,19.6-0.2c11.7-1.2,19.3-1.6,18.3,2.4
							c-1,4-9,32.3-18.3,32.2C261.2,188.7,262.7,167.6,262.7,167.6z"/>
						<path class="st7" d="M228.9,150.1c0,0-0.1,16.2,7.8,16.9c8.8,0.8,7.1-11.7,6.5-22.5c0,0,5.4,24.3-4.2,25
							C229.4,170,228.1,161.2,228.9,150.1z"/>
						<path class="st7" d="M263.2,166.6c0,0,1.4,3.9,6.7,4.7c0,0-4.1-2.1-4.1-4.5L263.2,166.6z"/>
						<path class="st7" d="M244.2,144.9c0,0-1.2,24.3,11.2,19.4l1.4,1.3c0,0-6.9,3.9-10.5-2.1C242.7,157.7,244.2,144.9,244.2,144.9z
							"/>
						<path class="st7" d="M250.9,154.9c0,0-0.8-3.3,2-2.7c2.8,0.6,11.8,4.5,25.8,1.4c0,0-14.6,1.5-20.8-1
							C251.6,150.1,249.4,150.6,250.9,154.9z"/>
						<path class="st7" d="M261.8,153.6c0,0-1-6.8-1.1-9.8l-0.2,9.7L261.8,153.6z"/>
						<polygon class="st7" points="274.8,154 275.1,141.9 276.3,153.9 						"/>
						<polygon class="st7" points="258.3,153.1 258.6,142.6 259.4,153.4 						"/>
						<path class="st6" d="M262,166.4c0,0-4.1,0.8-6.7,6.8c-11.2,25.3,18.8,14.2,18.8,14.2L262,166.4z"/>
						<path class="st7" d="M250.8,156.5c0,0,3.2,12,18.8,8.8C269.7,165.3,256.3,174.2,250.8,156.5z"/>
						<path class="st7" d="M260.9,166.7c0,0-4.2,2.9-5.7,7c0,0-0.4-3.4,4.3-7.5L260.9,166.7z"/>
						<path class="st8" d="M227.5,130c0,0-1-6.6,5.7-8.2c6.7-1.6,8.7,4.7,8.8,5.8c0,0-2.5-6.4-8.3-5.3
							C228,123.5,227.5,130,227.5,130z"/>
						<path class="st8" d="M243.4,129c0,0-1-6.6,5.7-8.2c6.7-1.7,8.7,4.7,8.8,5.8c0,0-2.5-6.4-8.3-5.3
							C243.8,122.5,243.4,129,243.4,129z"/>
						<path class="st8" d="M259.5,128c0,0-1-6.6,5.7-8.2c6.7-1.7,8.7,4.7,8.8,5.8c0,0-2.5-6.4-8.3-5.3
							C260,121.5,259.5,128,259.5,128z"/>
					</g>
				</g>
				<g>
					<path class="st2" d="M502.5,253.2v195.5h84.4l15.3-166.4C602.2,282.4,592.7,258.5,502.5,253.2z"/>
					<g>
						<path class="st2" d="M602.2,282.4c0,0,35.6,41.5,105.9,28.5c70.3-13,34.9-110.2,34.9-110.2l34.6-9.5
							c0,0,42.1,135.6-58.8,154.3c-101,18.7-155.3-42.1-155.3-42.1S568.5,263.3,602.2,282.4z"/>
						<path class="st4" d="M739.9,192.8l28.9-2.6c6.2-0.6,10.8-6.1,10.3-12.3l-4.1-45.7c-0.6-6.2-6.1-10.8-12.3-10.3l-28.9,2.6
							c-6.2,0.6-6.4,4.9-5.9,11.1l4.2,47.1C732.6,188.9,733.7,193.4,739.9,192.8z"/>
						<polygon class="st5" points="779.9,185.3 782.7,196 738.8,213.2 731.1,188.8 						"/>
						<g>
							<path class="st5" d="M706.7,147.5l107.9,24.6c1.9,0.4,3.8-0.8,4.3-2.7l0.8-3.6c0.4-1.9-0.8-3.8-2.7-4.3L709.1,137
								c-1.9-0.4-3.8,0.8-4.3,2.7l-0.8,3.6C703.6,145.2,704.8,147.1,706.7,147.5z"/>
							<path class="st5" d="M696.1,123.1c1.5,0.4,2.5,2,2.1,3.5c-0.4,1.5-2,2.5-3.5,2.1l-25.8-3.7l24.5,9.1c1.5,0.4,2.5,2,2.1,3.5
								c-0.4,1.5-2,2.5-3.5,2.1l-25.9-3.6l24.5,9c1.5,0.4,2.5,2,2.1,3.5c-0.4,1.5-2,2.5-3.5,2.1l-26-3l26.4,6.7
								c9.4,2.4,19-3.3,21.4-12.7c2.4-9.4-3.3-19-12.7-21.4l-26.4-6.7L696.1,123.1z"/>
						</g>
						<path class="st6" d="M767.8,167.7L767.8,167.7c4,0.2,7.5-2.9,7.8-6.9l1.9-31.4c0.2-4-2.9-7.5-6.9-7.8l0,0
							c-4-0.2-7.5,2.9-7.8,6.9l-1.9,31.4C760.7,163.9,763.8,167.5,767.8,167.7z"/>
						<path class="st6" d="M752.1,166.6L752.1,166.6c4,0.2,7.5-2.9,7.8-6.9l1.9-31.4c0.2-4-2.9-7.5-6.9-7.8l0,0
							c-4-0.2-7.5,2.9-7.8,6.9l-1.9,31.3C745,162.8,748.1,166.3,752.1,166.6z"/>
						<path class="st6" d="M735.8,165.6L735.8,165.6c4,0.2,7.5-2.9,7.8-6.9l1.9-31.4c0.2-4-2.9-7.5-6.9-7.8l0,0
							c-4-0.2-7.5,2.9-7.8,6.9l-1.9,31.3C728.6,161.8,731.8,165.3,735.8,165.6z"/>
						<path class="st6" d="M742.3,167.6c0,0,13.5-6.5,11.7-13.1c-1.7-6.6-7.9,1-19.6-0.2c-11.7-1.2-19.3-1.6-18.3,2.4
							c1,4,9,32.3,18.3,32.2C743.8,188.7,742.3,167.6,742.3,167.6z"/>
						<path class="st7" d="M776.1,150.1c0,0,0.1,16.2-7.8,16.9c-8.8,0.8-7.1-11.7-6.5-22.5c0,0-5.4,24.3,4.2,25
							C775.6,170,776.8,161.2,776.1,150.1z"/>
						<path class="st7" d="M741.8,166.6c0,0-1.4,3.9-6.7,4.7c0,0,4.1-2.1,4.1-4.5L741.8,166.6z"/>
						<path class="st7" d="M760.8,144.9c0,0,1.2,24.3-11.2,19.4l-1.4,1.3c0,0,6.9,3.9,10.5-2.1C762.3,157.7,760.8,144.9,760.8,144.9
							z"/>
						<path class="st7" d="M754.1,154.9c0,0,0.8-3.3-2-2.7c-2.8,0.6-11.8,4.5-25.8,1.4c0,0,14.6,1.5,20.8-1
							C753.4,150.1,755.5,150.6,754.1,154.9z"/>
						<path class="st7" d="M743.2,153.6c0,0,1-6.8,1.1-9.8l0.2,9.7L743.2,153.6z"/>
						<polygon class="st7" points="730.2,154 729.8,141.9 728.6,153.9 						"/>
						<polygon class="st7" points="746.7,153.1 746.3,142.6 745.5,153.4 						"/>
						<path class="st6" d="M743,166.4c0,0,4.1,0.8,6.7,6.8c11.2,25.3-18.8,14.2-18.8,14.2L743,166.4z"/>
						<path class="st7" d="M754.1,156.5c0,0-3.2,12-18.8,8.8C735.3,165.3,748.7,174.2,754.1,156.5z"/>
						<path class="st7" d="M744.1,166.7c0,0,4.2,2.9,5.7,7c0,0,0.4-3.4-4.3-7.5L744.1,166.7z"/>
						<path class="st8" d="M777.5,130.1c0,0,1-6.6-5.7-8.2c-6.7-1.7-8.7,4.7-8.8,5.8c0,0,2.5-6.4,8.3-5.3
							C777,123.6,777.5,130.1,777.5,130.1z"/>
						<path class="st8" d="M761.9,128.8c0,0,1-6.6-5.7-8.2c-6.7-1.7-8.7,4.7-8.8,5.8c0,0,2.5-6.4,8.3-5.3
							C761.4,122.3,761.9,128.8,761.9,128.8z"/>
						<path class="st8" d="M745.5,127.8c0,0,1-6.6-5.7-8.2c-6.7-1.7-8.7,4.7-8.8,5.8c0,0,2.5-6.4,8.3-5.3
							C745,121.3,745.5,127.8,745.5,127.8z"/>
					</g>
				</g>
				<path class="st9" d="M256.5,199.3c0-1.7,1.3-3,3-3c1.7,0,3,1.3,3,3c0,1.7-1.3,3-3,3C257.8,202.3,256.5,200.9,256.5,199.3z"/>
				<path class="st9" d="M741.7,199.3c0-1.7,1.3-3,3-3c1.6,0,3,1.3,3,3c0,1.7-1.3,3-3,3C743.1,202.3,741.7,200.9,741.7,199.3z"/>
			</g>
			<path class="st6" d="M526.7,257.6c0,13.4-10.9,24.3-24.3,24.3l0,0c-13.4,0-24.3-10.9-24.3-24.3v-48c0-13.4,10.9-24.3,24.3-24.3
				l0,0c13.4,0,24.3,10.9,24.3,24.3V257.6z"/>
			<path class="st10" d="M526.7,229.6c0,13.4-10.9,24.3-24.3,24.3l0,0c-13.4,0-24.3-10.9-24.3-24.3v-48c0-13.4,10.9-24.3,24.3-24.3
				l0,0c13.4,0,24.3,10.9,24.3,24.3V229.6z"/>
			<g>
				<g>
					<g>
						<path class="st11" d="M474.7,267.1c0,0-18.4,58.6-19.9,64c-1.5,5.4,10.3,113.6,10.3,113.6l37.3-2.5V281.8L474.7,267.1z"/>
						<polygon class="st12" points="471.7,276.7 448.1,293.9 454.7,301.2 431.2,321.7 465.1,444.7 455.1,333.1 						"/>
					</g>
					<g>
						<path class="st11" d="M530,267.1c0,0,18.4,58.6,19.9,64c1.5,5.4-10.3,113.6-10.3,113.6l-37.3-2.5V281.8L530,267.1z"/>
						<polygon class="st12" points="533.1,276.7 556.6,293.9 550.1,301.2 573.6,321.7 539.7,444.7 549.7,333.1 						"/>
					</g>
				</g>
				<g>
					<g>
						<path class="st13" d="M502.5,281.8l-4.9-15.3l-26.4-21.6l-3.2,30.7C468.1,275.6,493.3,283.9,502.5,281.8z"/>
						<polygon class="st3" points="471.3,244.9 478.2,242.6 478.2,250.6 						"/>
					</g>
					<g>
						<path class="st13" d="M502.5,281.8l4.9-15.3l26.4-21.6l3.2,30.7C536.9,275.6,511.7,283.9,502.5,281.8z"/>
						<polygon class="st3" points="533.7,244.9 526.7,242.8 526.7,250.6 						"/>
					</g>
					<path class="st9" d="M490.6,274.4c0-1.4,1.2-2.6,2.6-2.6c1.4,0,2.6,1.2,2.6,2.6c0,1.4-1.2,2.6-2.6,2.6
						C491.8,277,490.6,275.8,490.6,274.4z"/>
					<path class="st9" d="M508.9,274.4c0-1.4,1.2-2.6,2.6-2.6c1.4,0,2.6,1.2,2.6,2.6c0,1.4-1.2,2.6-2.6,2.6
						C510,277,508.9,275.8,508.9,274.4z"/>
				</g>
			</g>
			<g>
				<g>
					<path class="st6" d="M575.9,140.2c-3.2,12.4,0.1,24,7.3,25.8c7.2,1.8,15.6-6.7,18.8-19.2c3.2-12.4-0.1-24-7.3-25.8
						C587.5,119.2,579.1,127.8,575.9,140.2z"/>
					
						<linearGradient id="SVGID_1_" gradientUnits="userSpaceOnUse" x1="352.3662" y1="157.7619" x2="352.3662" y2="129.3474" gradientTransform="matrix(-1 0 0 1 941.333 0)">
						<stop  offset="0" style="stop-color:#FFFFFF"/>
						<stop  offset="0.2303" style="stop-color:#C8B9B9"/>
						<stop  offset="0.5092" style="stop-color:#8B6B6B"/>
						<stop  offset="0.7396" style="stop-color:#5D3131"/>
						<stop  offset="0.9093" style="stop-color:#420D0D"/>
						<stop  offset="1" style="stop-color:#370000"/>
					</linearGradient>
					<path class="st14" d="M580.8,141.5c-2,7.8,0.1,15,4.6,16.1c4.5,1.1,9.8-4.2,11.7-12c2-7.8-0.1-15-4.6-16.1
						C588.1,128.4,582.8,133.7,580.8,141.5z"/>
				</g>
				<g>
					<g>
						<path class="st6" d="M592,121c0-49-39.7-88.7-88.7-88.7c-49,0-88.7,39.7-88.7,88.7c0,9.3,1.4,18.2,4.1,26.6
							c19.7,84.8,79.2,84.7,84.4,84.6c5.2,0.2,65.3,0.2,85.2-84.7l-0.2,0C590.5,139.1,592,130.2,592,121z"/>
						<path class="st10" d="M451.4,104c0,0,65.2,32.9,140.3,11.8c-2.7-46.6-41.3-83.6-88.6-83.6c-49,0-88.7,39.7-88.7,88.7
							c0,9.2,1.4,18,4,26.4C428,139.5,440.4,126.1,451.4,104z"/>
					</g>
					<g>
						<path class="st15" d="M414.5,144.9c0,0,18.4-13,33.4-50.4c0,0,104.7,56.3,194.4-13.5c0,0-34.9,8-50.4-17
							c-15.5-24.9-95.7-71.8-148.1-20.4C443.9,43.7,383.1,40.2,414.5,144.9z"/>
						<path class="st16" d="M642.2,81.2C600,99.6,526.7,98.1,526.7,98.1l4.9,7c-59.1,1.7-90.2-27.7-90.2-27.7
							c-2.5,11.5-7.7,23.2-7.7,23.2l-1-10.7c-6.1,12.6-18.6,22.1-25.1,26.4c1.4,8.6,3.6,18.1,6.9,28.7c0,0,18.4-13,33.4-50.4
							C447.9,94.6,552.5,150.8,642.2,81.2z"/>
						<path class="st5" d="M511.9,69.6c29.7,0,57.2-2.3,79.5-6.2c-1.1-1.7-2.5-3.5-4.2-5.3c-20.1,2.8-43.4,4.4-68.2,4.4
							c-38.9,0-73.9-3.9-98.7-10.2c-2.3,2-4.5,4.4-6.4,7.3C438.7,65.8,473.4,69.6,511.9,69.6z"/>
						<polygon class="st5" points="518.7,68 524.9,74.3 523.9,68 						"/>
						<polygon class="st5" points="504.5,63.7 496.8,56.9 496.8,65 						"/>
						<polygon class="st5" points="564.8,62.5 561.3,55.1 571.4,63.7 						"/>
					</g>
					<g>
						<path class="st6" d="M427.5,140.2c3.2,12.4-0.1,24-7.3,25.8c-7.2,1.8-15.6-6.7-18.8-19.2c-3.2-12.4,0.1-24,7.3-25.8
							C415.9,119.2,424.4,127.8,427.5,140.2z"/>
						<linearGradient id="SVGID_2_" gradientUnits="userSpaceOnUse" x1="414.4784" y1="157.7619" x2="414.4784" y2="129.3474">
							<stop  offset="0" style="stop-color:#FFFFFF"/>
							<stop  offset="0.2303" style="stop-color:#C8B9B9"/>
							<stop  offset="0.5092" style="stop-color:#8B6B6B"/>
							<stop  offset="0.7396" style="stop-color:#5D3131"/>
							<stop  offset="0.9093" style="stop-color:#420D0D"/>
							<stop  offset="1" style="stop-color:#370000"/>
						</linearGradient>
						<path class="st17" d="M422.6,141.5c2,7.8-0.1,15-4.6,16.1c-4.5,1.1-9.8-4.2-11.7-12c-2-7.8,0.1-15,4.6-16.1
							C415.4,128.4,420.7,133.7,422.6,141.5z"/>
					</g>
					<g>
						<path class="st10" d="M494.2,179c0,0,0.9,6.9,8.3,6.9c7.4,0,7.3-6.9,7.3-6.9s1.3,10.3-7.3,10.3
							C493.8,189.3,494.2,179,494.2,179z"/>
						<g>
							<g>
								<path class="st5" d="M484.3,147.4c2.4,13.3-1.1,25.1-7.7,26.3c-6.7,1.2-14-8.6-16.5-21.9c-2.4-13.3,1.1-25.1,7.7-26.3
									C474.6,124.3,481.9,134.1,484.3,147.4z"/>
								<path class="st18" d="M481.9,143.4c1.7,9.2-0.7,17.4-5.4,18.2c-4.6,0.8-9.7-5.9-11.4-15.2c-1.7-9.2,0.7-17.4,5.4-18.2
									C475.2,127.4,480.3,134.2,481.9,143.4z"/>
								<path class="st19" d="M477.1,138.1c1,5.3-0.4,9.9-3.1,10.4c-2.7,0.5-5.6-3.4-6.5-8.7c-1-5.3,0.4-9.9,3.1-10.4
									C473.2,128.9,476.2,132.8,477.1,138.1z"/>
								<path class="st5" d="M471.2,166.7c0,1.1-0.7,2.1-1.6,2.1c-0.9,0-1.6-0.9-1.6-2.1c0-1.1,0.7-2.1,1.6-2.1
									C470.5,164.6,471.2,165.5,471.2,166.7z"/>
							</g>
							<g>
								<path class="st5" d="M520.6,147.4c-2.4,13.3,1.1,25.1,7.7,26.3c6.7,1.2,14.1-8.6,16.5-21.9c2.4-13.3-1.1-25.1-7.7-26.3
									C530.4,124.3,523.1,134.1,520.6,147.4z"/>
								<path class="st18" d="M525.4,143c-1.7,9.2,0.7,17.4,5.4,18.2c4.6,0.8,9.7-5.9,11.4-15.2c1.7-9.2-0.7-17.4-5.4-18.2
									C532.2,127,527.1,133.8,525.4,143z"/>
								<path class="st19" d="M532.1,137c-1,5.3,0.4,9.9,3.1,10.4c2.7,0.5,5.6-3.4,6.5-8.7c1-5.3-0.4-9.9-3.1-10.4
									C536,127.8,533.1,131.7,532.1,137z"/>
								<path class="st5" d="M533.8,166.7c0,1.1,0.7,2.1,1.6,2.1c0.9,0,1.6-0.9,1.6-2.1c0-1.1-0.7-2.1-1.6-2.1
									C534.5,164.6,533.8,165.5,533.8,166.7z"/>
							</g>
							<path class="st20" d="M447.1,113.9l2.2,6.8c0,0,17.5-10.9,34.6-6.8C484,113.9,462.1,97.4,447.1,113.9z"/>
							<path class="st20" d="M562.3,131l-4,5.9c0,0-13.9-15.2-31.6-15.8C526.7,121.2,552.3,111.1,562.3,131z"/>
						</g>
						<g>
							<path class="st21" d="M465.6,185.3c0,0,9.6,10.9,36.8,10.9c27.2,0,35.4-10.9,35.4-10.9s-4.1,30.7-35.3,30.7
								C471.2,216.1,465.6,185.3,465.6,185.3z"/>
							<path class="st5" d="M467.3,186.8c3.6,4.2,13.6,12.9,35.2,12.9c21.8,0,30.8-8.9,33.9-13c-3.2,2.9-12.9,9.5-34,9.5
								C481.5,196.2,471,189.8,467.3,186.8z"/>
							<g>
								<path class="st22" d="M513.1,214.6c-6.3-9.3-22.7-12-22.7-12c0.9,1,3.7,5.5,3.7,5.5c-5.7-6.2-17.3-7.3-21.9-7.5
									c5.3,7.7,14.5,15.3,30.1,15.3C506.4,216,510,215.5,513.1,214.6z"/>
								<path class="st23" d="M475.4,201.9c0,0,11.4,0.7,17.9,6.9C493.3,208.8,477.1,203.1,475.4,201.9z"/>
								<path class="st23" d="M493.8,204.5c0,0,10.5,2,17.9,9.4C511.6,214,494.4,205,493.8,204.5z"/>
							</g>
						</g>
					</g>
				</g>
			</g>
		</g>
		<path class="st16" d="M569.8,108.3c0,0,11.9,39.6,17.4,42.8c5.6,3.2,12.3-32.6,10.7-45.2C596.2,93.3,569.8,108.3,569.8,108.3z"/>
	</g>
	<polygon class="st24" points="474.8,277.6 492.5,285.4 492,281.4 	"/>
	<polygon class="st24" points="529.9,277.6 512.2,285.4 512.7,281.4 	"/>
	<path class="st1" d="M505.6,295.8L505.6,295.8c3-2.5,7-7.2,7.1-14.2c0,0-7.9,1.9-10.4,0c-2.5,1.9-10.4,0-10.4,0
		c0.1,7,4.1,11.7,7.1,14.2c0,0-3.9,9-4.5,25c-0.6,15.9,1.2,100.8,1.2,100.8l6.6,8.6l6.6-8.6c0,0,1.7-84.9,1.2-100.8
		C509.6,304.9,505.6,295.8,505.6,295.8z"/>
</g>
<g>
	<path class="st25" d="M248.9,991.9L248.9,991.9c-7.4,0-13.5-6.1-13.5-13.5V795.5c0-7.4,6.1-13.5,13.5-13.5l0,0
		c7.4,0,13.5,6.1,13.5,13.5v182.9C262.4,985.8,256.3,991.9,248.9,991.9z"/>
	<path class="st25" d="M761.6,991.9L761.6,991.9c-7.4,0-13.5-6.1-13.5-13.5V795.5c0-7.4,6.1-13.5,13.5-13.5l0,0
		c7.4,0,13.5,6.1,13.5,13.5v182.9C775.1,985.8,769.1,991.9,761.6,991.9z"/>
	<g>
		<path class="st0" d="M248.9,907.9l13.5-3.8V795.5c0-7.4-6.1-13.5-13.5-13.5c-7.4,0-13.5,6.1-13.5,13.5v108.6L248.9,907.9z"/>
		<path class="st0" d="M761.6,907.9l13.5-3.8V795.5c0-7.4-6.1-13.5-13.5-13.5s-13.5,6.1-13.5,13.5v108.6L761.6,907.9z"/>
		<g>
			<path class="st25" d="M668.3,955.9L668.3,955.9c-7.4,0-13.5-6.1-13.5-13.5V759.5c0-7.4,6.1-13.5,13.5-13.5l0,0
				c7.4,0,13.5,6.1,13.5,13.5v182.9C681.8,949.8,675.7,955.9,668.3,955.9z"/>
			<path class="st0" d="M668.3,871.9l13.5-3.8V759.5c0-7.4-6.1-13.5-13.5-13.5c-7.4,0-13.5,6.1-13.5,13.5v108.6L668.3,871.9z"/>
		</g>
		<g>
			<path class="st25" d="M619.6,971.1L619.6,971.1c-7.4,0-13.5-6.1-13.5-13.5V774.7c0-7.4,6.1-13.5,13.5-13.5l0,0
				c7.4,0,13.5,6.1,13.5,13.5v182.9C633.1,965,627.1,971.1,619.6,971.1z"/>
			<path class="st0" d="M619.6,887.1l13.5-3.8V774.7c0-7.4-6.1-13.5-13.5-13.5c-7.4,0-13.5,6.1-13.5,13.5v108.6L619.6,887.1z"/>
		</g>
		<g>
			<path class="st25" d="M564.5,954.5L564.5,954.5c-7.4,0-13.5-6.1-13.5-13.5V758.1c0-7.4,6.1-13.5,13.5-13.5l0,0
				c7.4,0,13.5,6.1,13.5,13.5V941C578,948.4,571.9,954.5,564.5,954.5z"/>
			<path class="st0" d="M564.5,870.5l13.5-3.8V758.1c0-7.4-6.1-13.5-13.5-13.5c-7.4,0-13.5,6.1-13.5,13.5v108.6L564.5,870.5z"/>
		</g>
		<g>
			<path class="st25" d="M442.6,954.5L442.6,954.5c-7.4,0-13.5-6.1-13.5-13.5V758.1c0-7.4,6.1-13.5,13.5-13.5l0,0
				c7.4,0,13.5,6.1,13.5,13.5V941C456.1,948.4,450,954.5,442.6,954.5z"/>
			<path class="st0" d="M442.6,870.5l13.5-3.8V758.1c0-7.4-6.1-13.5-13.5-13.5c-7.4,0-13.5,6.1-13.5,13.5v108.6L442.6,870.5z"/>
		</g>
		<g>
			<path class="st25" d="M386.2,971.1L386.2,971.1c-7.4,0-13.5-6.1-13.5-13.5V774.7c0-7.4,6.1-13.5,13.5-13.5l0,0
				c7.4,0,13.5,6.1,13.5,13.5v182.9C399.7,965,393.7,971.1,386.2,971.1z"/>
			<path class="st0" d="M386.2,887.1l13.5-3.8V774.7c0-7.4-6.1-13.5-13.5-13.5c-7.4,0-13.5,6.1-13.5,13.5v108.6L386.2,887.1z"/>
		</g>
		<path class="st25" d="M341.1,955.9L341.1,955.9c-7.4,0-13.5-6.1-13.5-13.5V759.5c0-7.4,6.1-13.5,13.5-13.5l0,0
			c7.4,0,13.5,6.1,13.5,13.5v182.9C354.6,949.8,348.5,955.9,341.1,955.9z"/>
	</g>
</g>
<g>
	<g>
		<path class="st2" d="M440.5,890.9c3.2,14.8-18.6,18.7-18.6,18.7c-12.2,3.2-22.6,3.7-25.8-8.4l-59.9-228.9
			c-3.2-12.2,4.1-24.6,16.2-27.8l0,0c12.2-3.2,24.6,4.1,27.8,16.2L440.5,890.9z"/>
		<g>
			<path class="st26" d="M395.3,902.7c0,0,1.1,6.5,3,13.1c1.9,6.5,1.6,26.5-8.1,34c-9.7,7.5-32.7,17.4-31.8,29.3l1.9,7.8
				c0,0,19.3,11.8,47.5,0c28.2-11.8,21.3-21.5,50.2-35.2c0,0,4.2-10-2.2-24.9c-6.4-15-13.6-32-13.5-40c0.2-7.9-28.9,12.3-32,16.2
				C407.2,906.7,400.1,900,395.3,902.7z"/>
			<g>
				<path class="st27" d="M357.5,978c0,0,26.2,11.4,44.6,0.6c18.4-10.8,22.5-15.8,33.4-24.1c11-8.3,24.3-12.9,24.3-12.9
					s0.4,6.4-1.1,10.3c0,0-14.8,7.1-22.1,14.9c-7.3,7.9-20.3,21.5-42,25.2c-21.6,3.7-35.5-4.3-35.5-4.3S357.6,984.5,357.5,978z"/>
				<path class="st28" d="M357.5,978c0,0-0.6-8.9,17.6-19.6c0,0,19.5-4,29.4,18.7C404.6,977.1,389.5,991.9,357.5,978z"/>
				<path class="st27" d="M444.2,910.2c1.6,5.9,0.7,11.3-2,12c-2.7,0.7-6.2-3.5-7.8-9.3c-1.6-5.9-0.7-11.3,2-12
					C439.1,900.1,442.6,904.3,444.2,910.2z"/>
				<g>
					<g>
						<path class="st28" d="M414.3,906.8c0-1.5,1.2-2.7,2.7-2.7c1.5,0,2.7,1.2,2.7,2.7s-1.2,2.7-2.7,2.7
							C415.5,909.4,414.3,908.3,414.3,906.8z"/>
						<circle class="st29" cx="417" cy="906.8" r="1.8"/>
					</g>
					<g>
						<path class="st28" d="M415.2,916.5c0-1.5,1.2-2.7,2.7-2.7c1.5,0,2.7,1.2,2.7,2.7c0,1.5-1.2,2.7-2.7,2.7
							C416.4,919.2,415.2,918,415.2,916.5z"/>
						<path class="st29" d="M416.1,916.5c0-1,0.8-1.8,1.8-1.8c1,0,1.8,0.8,1.8,1.8c0,1-0.8,1.8-1.8,1.8
							C416.9,918.3,416.1,917.5,416.1,916.5z"/>
					</g>
					<g>
						<path class="st28" d="M415.2,926.9c0-1.5,1.2-2.7,2.7-2.7c1.5,0,2.7,1.2,2.7,2.7c0,1.5-1.2,2.7-2.7,2.7
							C416.4,929.6,415.2,928.4,415.2,926.9z"/>
						<path class="st29" d="M416.1,926.9c0-1,0.8-1.8,1.8-1.8c1,0,1.8,0.8,1.8,1.8c0,1-0.8,1.8-1.8,1.8
							C416.9,928.7,416.1,927.9,416.1,926.9z"/>
					</g>
					<g>
						<path class="st28" d="M412.5,937.5c0-1.5,1.2-2.7,2.7-2.7s2.7,1.2,2.7,2.7c0,1.5-1.2,2.7-2.7,2.7S412.5,939,412.5,937.5z"/>
						<path class="st29" d="M413.4,937.5c0-1,0.8-1.8,1.8-1.8c1,0,1.8,0.8,1.8,1.8c0,1-0.8,1.8-1.8,1.8
							C414.2,939.2,413.4,938.5,413.4,937.5z"/>
					</g>
					<g>
						<path class="st28" d="M407.2,947c0-1.5,1.2-2.7,2.7-2.7c1.5,0,2.7,1.2,2.7,2.7s-1.2,2.7-2.7,2.7
							C408.4,949.6,407.2,948.5,407.2,947z"/>
						<path class="st29" d="M408.1,947c0-1,0.8-1.8,1.8-1.8c1,0,1.8,0.8,1.8,1.8c0,1-0.8,1.8-1.8,1.8
							C408.9,948.7,408.1,948,408.1,947z"/>
					</g>
					<g>
						<path class="st28" d="M400.4,954.6c0-1.5,1.2-2.7,2.7-2.7c1.5,0,2.7,1.2,2.7,2.7c0,1.5-1.2,2.7-2.7,2.7
							C401.5,957.2,400.4,956,400.4,954.6z"/>
						<path class="st29" d="M401.3,954.6c0-1,0.8-1.8,1.8-1.8c1,0,1.8,0.8,1.8,1.8c0,1-0.8,1.8-1.8,1.8
							C402,956.3,401.3,955.5,401.3,954.6z"/>
					</g>
					<path class="st27" d="M416.5,905.6c0,0-19.8,7.7-19.7,8.3c0.1,0.6,0.8,2.7,0.8,2.7l20.3-8.5C417.9,908,417.3,905.6,416.5,905.6
						z"/>
					<path class="st27" d="M395.8,907.4l22.4,8.2l-0.5,2.9c0,0-22-8.6-21.9-8.8C396,909.5,395.8,907.4,395.8,907.4z"/>
					<polygon class="st27" points="397.9,914.2 418.2,926.1 417,929.1 397.3,917.7 					"/>
					<polygon class="st27" points="415.4,915.4 398.3,924.2 398.6,927.4 417.9,917.6 					"/>
					<polygon class="st27" points="398.8,925.1 398.3,929.1 414.8,939.2 416.1,936.5 					"/>
					<polygon class="st27" points="416.3,926.1 397.3,933.6 396.7,936.8 418.2,928.6 					"/>
					<polygon class="st27" points="397.6,934.2 410.6,946.3 408.8,948.7 396.2,937.1 					"/>
					<polygon class="st27" points="414.4,936.2 395.8,940.6 394.3,943.7 416.1,938.8 					"/>
					<polygon class="st27" points="395,941.5 404.8,954.6 402.4,956.3 393.4,944.3 					"/>
					<polygon class="st27" points="409.5,945.3 389.8,948.9 386.6,951.9 410.6,948.2 					"/>
					<polygon class="st27" points="387.5,949.9 404.4,954 403,956.3 386.2,951.9 					"/>
				</g>
			</g>
		</g>
	</g>
	<g>
		<path class="st2" d="M564.4,890.9c-3.2,14.8,18.6,18.7,18.6,18.7c12.2,3.2,22.6,3.7,25.8-8.4l59.9-228.9
			c3.2-12.2-4.1-24.6-16.2-27.8l0,0c-12.2-3.2-24.6,4.1-27.8,16.2L564.4,890.9z"/>
		<g>
			<path class="st26" d="M609.6,902.7c0,0-1.1,6.5-3,13.1c-1.9,6.5-1.6,26.5,8.1,34c9.7,7.5,32.7,17.4,31.8,29.3l-1.9,7.8
				c0,0-19.3,11.8-47.5,0c-28.2-11.8-21.3-21.5-50.2-35.2c0,0-4.2-10,2.2-24.9c6.4-15,13.6-32,13.5-40c-0.2-7.9,28.9,12.3,32,16.2
				C597.7,906.7,604.7,900,609.6,902.7z"/>
			<g>
				<path class="st27" d="M647.3,978c0,0-26.2,11.4-44.6,0.6c-18.4-10.8-22.5-15.8-33.4-24.1c-11-8.3-24.3-12.9-24.3-12.9
					s-0.4,6.4,1.1,10.3c0,0,14.8,7.1,22.1,14.9c7.3,7.9,20.3,21.5,42,25.2c21.6,3.7,35.5-4.3,35.5-4.3S647.2,984.5,647.3,978z"/>
				<path class="st28" d="M647.3,978c0,0,0.6-8.9-17.6-19.6c0,0-19.5-4-29.4,18.7C600.3,977.1,615.4,991.9,647.3,978z"/>
				<path class="st27" d="M560.6,910.2c-1.6,5.9-0.7,11.3,2,12c2.7,0.7,6.2-3.5,7.8-9.3c1.6-5.9,0.7-11.3-2-12
					C565.7,900.1,562.2,904.3,560.6,910.2z"/>
				<g>
					<g>
						<path class="st28" d="M590.5,906.8c0-1.5-1.2-2.7-2.7-2.7c-1.5,0-2.7,1.2-2.7,2.7s1.2,2.7,2.7,2.7
							C589.3,909.4,590.5,908.3,590.5,906.8z"/>
						<circle class="st29" cx="587.9" cy="906.8" r="1.8"/>
					</g>
					<g>
						<path class="st28" d="M589.6,916.5c0-1.5-1.2-2.7-2.7-2.7c-1.5,0-2.7,1.2-2.7,2.7c0,1.5,1.2,2.7,2.7,2.7
							C588.4,919.2,589.6,918,589.6,916.5z"/>
						<path class="st29" d="M588.7,916.5c0-1-0.8-1.8-1.8-1.8c-1,0-1.8,0.8-1.8,1.8c0,1,0.8,1.8,1.8,1.8
							C587.9,918.3,588.7,917.5,588.7,916.5z"/>
					</g>
					<g>
						<path class="st28" d="M589.6,926.9c0-1.5-1.2-2.7-2.7-2.7c-1.5,0-2.7,1.2-2.7,2.7c0,1.5,1.2,2.7,2.7,2.7
							C588.4,929.6,589.6,928.4,589.6,926.9z"/>
						<circle class="st29" cx="587" cy="926.9" r="1.8"/>
					</g>
					<g>
						<path class="st28" d="M592.3,937.5c0-1.5-1.2-2.7-2.7-2.7c-1.5,0-2.7,1.2-2.7,2.7c0,1.5,1.2,2.7,2.7,2.7
							C591.1,940.1,592.3,939,592.3,937.5z"/>
						<path class="st29" d="M591.4,937.5c0-1-0.8-1.8-1.8-1.8c-1,0-1.8,0.8-1.8,1.8c0,1,0.8,1.8,1.8,1.8
							C590.6,939.2,591.4,938.5,591.4,937.5z"/>
					</g>
					<g>
						<path class="st28" d="M597.7,947c0-1.5-1.2-2.7-2.7-2.7c-1.5,0-2.7,1.2-2.7,2.7s1.2,2.7,2.7,2.7
							C596.5,949.6,597.7,948.5,597.7,947z"/>
						<path class="st29" d="M596.8,947c0-1-0.8-1.8-1.8-1.8c-1,0-1.8,0.8-1.8,1.8c0,1,0.8,1.8,1.8,1.8
							C596,948.7,596.8,948,596.8,947z"/>
					</g>
					<g>
						<path class="st28" d="M604.5,954.6c0-1.5-1.2-2.7-2.7-2.7c-1.5,0-2.7,1.2-2.7,2.7c0,1.5,1.2,2.7,2.7,2.7
							C603.3,957.2,604.5,956,604.5,954.6z"/>
						<path class="st29" d="M603.6,954.6c0-1-0.8-1.8-1.8-1.8c-1,0-1.8,0.8-1.8,1.8c0,1,0.8,1.8,1.8,1.8
							C602.8,956.3,603.6,955.5,603.6,954.6z"/>
					</g>
					<path class="st27" d="M588.4,905.6c0,0,19.8,7.7,19.7,8.3c-0.1,0.6-0.8,2.7-0.8,2.7L587,908C587,908,587.6,905.6,588.4,905.6z"
						/>
					<path class="st27" d="M609,907.4l-22.4,8.2l0.5,2.9c0,0,22-8.6,21.9-8.8C608.9,909.5,609,907.4,609,907.4z"/>
					<polygon class="st27" points="607,914.2 586.6,926.1 587.9,929.1 607.6,917.7 					"/>
					<polygon class="st27" points="589.5,915.4 606.6,924.2 606.2,927.4 587,917.6 					"/>
					<polygon class="st27" points="606.1,925.1 606.6,929.1 590,939.2 588.7,936.5 					"/>
					<polygon class="st27" points="588.5,926.1 607.6,933.6 608.1,936.8 586.6,928.6 					"/>
					<polygon class="st27" points="607.2,934.2 594.3,946.3 596,948.7 608.6,937.1 					"/>
					<polygon class="st27" points="590.4,936.2 609,940.6 610.5,943.7 588.7,938.8 					"/>
					<polygon class="st27" points="609.8,941.5 600.1,954.6 602.5,956.3 611.5,944.3 					"/>
					<polygon class="st27" points="595.4,945.3 615,948.9 618.3,951.9 594.3,948.2 					"/>
					<polygon class="st27" points="617.3,949.9 600.5,954 601.8,956.3 618.6,951.9 					"/>
				</g>
			</g>
		</g>
	</g>
</g>
<path class="st0" d="M341.1,871.9l13.5-3.8V759.5c0-7.4-6.1-13.5-13.5-13.5c-7.4,0-13.5,6.1-13.5,13.5v108.6L341.1,871.9z"/>
<g>
	<path class="st30" d="M831.6,507.2l-0.2,0c0-32.3-148.2-58.5-330.9-58.5c-182.8,0-330.9,26.2-330.9,58.5
		c1.6,110.9,21,301.3,21,301.3c88.6,70.4,307.8,98.9,308.2,98.9v0l0,0l0,0v0c0.5-0.1,222-28.6,311.5-98.9
		C810.4,808.5,830.1,618.1,831.6,507.2z"/>
	<path class="st31" d="M500.5,448.7c-182.8,0-330.9,26.2-330.9,58.5c0,1.6,0,3.2,0.1,4.8c41.9,22.1,173.3,38.3,328.9,38.3
		c161,0,296.1-17.3,333-40.6c0-0.8,0-1.7,0-2.5l-0.2,0C831.4,474.8,683.3,448.7,500.5,448.7z"/>
	<g>
		<path class="st1" d="M182.7,722.9c0.3,3.6,0.6,7.2,0.9,10.7c282.2,51.1,539.1,16.6,633.9-0.1c0.3-3.3,0.6-6.6,0.9-10
			C543.2,775.1,278,739.3,182.7,722.9z"/>
		<path class="st1" d="M186,760.2c0.3,3.8,0.7,7.3,1,10.7c277.6,49.7,530.1,16.7,627.1-0.1c0.3-3.2,0.6-6.5,0.9-10
			C544.1,811,283.6,776.8,186,760.2z"/>
		<path class="st1" d="M189.5,797.5c0.6,6.2,1,10,1.1,10.8c272.7,48.1,520.7,16.8,619.8-0.1c0.1-0.9,0.4-4.3,1-9.9
			C545,846.9,289.3,814.3,189.5,797.5z"/>
		<path class="st1" d="M802.4,483.1H198.7c-6.2,2.4-11.4,4.9-15.7,7.5h635.1C813.8,488.1,808.5,485.6,802.4,483.1z"/>
		<path class="st1" d="M274.7,464.4h451.7c-15.2-2.5-31.8-4.8-49.5-6.7H324.1C306.4,459.6,289.9,461.9,274.7,464.4z"/>
		<path class="st1" d="M251.3,843.4c13.3,5.9,27.3,11.3,41.6,16.3c164.4,18.3,313.1,10.5,416.4-0.8c11.8-4.1,23.4-8.5,34.6-13.3
			C546.4,872.3,361.8,857.9,251.3,843.4z"/>
		<path class="st1" d="M170.4,537.1c0.1,3.5,0.3,6.9,0.4,10.5c301.4,57.3,576.3,15.5,659.7,0c0.1-3.4,0.3-6.8,0.4-10.1
			C538.2,595.1,254.2,552.3,170.4,537.1z"/>
		<path class="st1" d="M175.2,496.4c-3.2,3.1-5.1,6.2-5.5,9.4c302.9,57.8,579.3,15.4,661.6,0c-0.4-3.1-2.1-6.1-5.1-9
			C540.7,552,264.2,512.2,175.2,496.4z"/>
		<path class="st1" d="M172,574.1c0.2,3.5,0.4,7,0.6,10.5c298.4,56.3,570.7,15.7,656,0c0.2-3.4,0.4-6.7,0.6-10.1
			C539,631.3,257.7,589.6,172,574.1z"/>
		<path class="st1" d="M176.7,648.4c0.3,3.6,0.5,7.1,0.8,10.6c290.9,53.9,556.1,16.2,646.1-0.1c0.3-3.3,0.5-6.7,0.8-10.1
			C541.1,703.4,267.1,664.4,176.7,648.4z"/>
		<path class="st1" d="M179.6,685.6c0.3,3.6,0.6,7.2,0.9,10.7c286.7,52.6,547.8,16.4,640.2-0.1c0.3-3.3,0.5-6.7,0.8-10
			C542.1,739.3,272.4,701.9,179.6,685.6z"/>
		<path class="st1" d="M174.2,611.2c0.2,3.5,0.5,7.1,0.7,10.6c295,55.2,563.8,15.9,651.4-0.1c0.2-3.3,0.4-6.7,0.7-10.1
			C540,667.4,262.1,627,174.2,611.2z"/>
	</g>
	<g>
		<path class="st1" d="M366.6,453.7L309.4,542l26.3,331.3c4.1,1.2,8.1,2.3,12.2,3.4c-5.9-53.9-25.3-329.3-25-334.3
			c0.3-4.6,41.7-69.6,54.4-89.5C373.7,453.2,370.1,453.4,366.6,453.7z"/>
		<path class="st1" d="M240.6,532l30,319.6c3.8,1.5,7.6,3,11.5,4.4c-6.7-60.9-26.9-315.2-26.6-320c0.3-4.5,47.9-59.7,63.4-77.6
			c-4.2,0.5-8.3,1-12.3,1.5L240.6,532z"/>
		<path class="st1" d="M445.7,449.5c-2.7,0.1-5.3,0.2-8,0.3l-52.5,96.4l19.5,344.4c4.3,0.9,8.5,1.8,12.6,2.7
			c-4.9-42-19.2-341.4-18.9-346.5C398.7,541.8,438.9,462.7,445.7,449.5z"/>
		<path class="st1" d="M223.8,830c-8.3-85.2-26-303.1-25.7-307.5c0.2-3.9,31.3-35.5,48.6-52.9c-5,1.1-9.8,2.1-14.4,3.3l-49.1,45.3
			l29,305.2C216,825.6,219.8,827.9,223.8,830z"/>
		<path class="st1" d="M768.9,473c-4.6-1.1-9.4-2.2-14.4-3.3c17.3,17.3,48.3,49,48.6,52.8c0.3,4.4-17.4,221.8-25.7,307.2
			c4-2.2,7.8-4.4,11.6-6.6L818,518.2L768.9,473z"/>
		<path class="st1" d="M682.3,458.3c15.6,17.9,63.1,73.1,63.4,77.6c0.3,4.8-19.9,257.8-26.6,319.6c3.9-1.4,7.7-2.9,11.5-4.4
			l30-319.2l-66-72.1C690.6,459.3,686.5,458.8,682.3,458.3z"/>
		<path class="st1" d="M466.4,546.7c0.3-4.8,11.2-80.5,13.7-97.9c-2.7,0-5.4,0.1-8.1,0.1l-18.8,97.2l10,355.8
			c4,0.7,7.8,1.3,11.3,1.9C470.2,857.6,466.1,551.8,466.4,546.7z"/>
		<path class="st1" d="M534.8,546.7c0.3,5-3.7,308.7-8.1,356.6c3.5-0.6,7.2-1.2,11.2-1.9l10-355.2l-18.8-97.2
			c-2.7,0-5.4-0.1-8.1-0.1C523.6,466.2,534.5,541.9,534.8,546.7z"/>
		<path class="st1" d="M678.3,542.4c0.3,4.9-18.9,278.7-24.9,333.8c4-1.1,8.1-2.2,12.2-3.4L691.8,542l-57.2-88.3
			c-3.5-0.3-7.1-0.5-10.7-0.8C636.7,472.8,678.1,537.8,678.3,542.4z"/>
		<path class="st1" d="M602.8,546.7c0.3,5.1-13.8,302.2-18.8,345.9c4.1-0.9,8.3-1.7,12.6-2.7L616,546.2l-52.5-96.4
			c-2.6-0.1-5.3-0.2-8-0.2C562.3,462.8,602.5,541.8,602.8,546.7z"/>
	</g>
	<path class="st27" d="M708.7,539l-63.4-84.5c0,0-105.2-7.8-145.6-5.9c-40.4-1.9-145.6,5.9-145.6,5.9L290.7,539
		c48.5,75.9,190.5,165.6,208.1,176.5v1.1c0,0,0.3-0.2,0.9-0.6c0.6,0.4,0.9,0.6,0.9,0.6v-1.1C518.2,704.6,660.2,614.9,708.7,539z"/>
	<path class="st32" d="M498.7,715.5v1.1c0,0,0.3-0.2,0.9-0.6c0.6,0.4,0.9,0.6,0.9,0.6v-1.1c17.6-10.9,159.6-100.7,208.1-176.5
		c-259.2,20.6-418,0-418,0C339.1,614.9,481.1,704.6,498.7,715.5z"/>
	<path class="st33" d="M190.8,808.6c66.1,52.4,204.6,81.6,271,93c0,0,0.1,0,0.1,0c0,0-181.6-36.5-233.4-78.7
		C205.3,804.1,194.8,803.2,190.8,808.6z"/>
	<path class="st33" d="M810.2,808.6c-66.8,52.4-206.7,81.6-273.9,93c0,0-0.1,0-0.1,0c0,0,183.5-36.5,235.9-78.7
		C795.6,804.1,806.2,803.2,810.2,808.6z"/>
</g>
</svg>
