<?xml version="1.0" encoding="utf-8"?>
<!-- Generator: Adobe Illustrator 22.0.0, SVG Export Plug-In . SVG Version: 6.00 Build 0)  -->
<svg version="1.1" id="Layer_1" xmlns="http://www.w3.org/2000/svg" xmlns:xlink="http://www.w3.org/1999/xlink" x="0px" y="0px"
	 viewBox="0 0 1000 1000" style="enable-background:new 0 0 1000 1000;" xml:space="preserve">
<style type="text/css">
	.st0{display:none;fill:#FFEFEF;}
	.st1{fill:#006890;}
	.st2{display:none;fill:#001724;}
</style>
<g>
	<g>
		<path class="st0" d="M484.3,147.4c2.4,13.3-1.1,25.1-7.7,26.3c-6.7,1.2-14-8.6-16.5-21.9c-2.4-13.3,1.1-25.1,7.7-26.3
			C474.6,124.3,481.9,134.1,484.3,147.4z"/>
		<path class="st1" d="M481.9,143.4c1.7,9.2-0.7,17.4-5.4,18.2c-4.6,0.8-9.7-5.9-11.4-15.2c-1.7-9.2,0.7-17.4,5.4-18.2
			C475.2,127.4,480.3,134.2,481.9,143.4z"/>
		<path class="st2" d="M477.1,138.1c1,5.3-0.4,9.9-3.1,10.4s-5.6-3.4-6.5-8.7c-1-5.3,0.4-9.9,3.1-10.4
			C473.2,128.9,476.2,132.8,477.1,138.1z"/>
	</g>
	<g>
		<path class="st0" d="M520.6,147.4c-2.4,13.3,1.1,25.1,7.7,26.3c6.7,1.2,14.1-8.6,16.5-21.9c2.4-13.3-1.1-25.1-7.7-26.3
			C530.4,124.3,523.1,134.1,520.6,147.4z"/>
		<path class="st1" d="M525.4,143c-1.7,9.2,0.7,17.4,5.4,18.2c4.6,0.8,9.7-5.9,11.4-15.2c1.7-9.2-0.7-17.4-5.4-18.2
			C532.2,127,527.1,133.8,525.4,143z"/>
		<path class="st2" d="M532.1,137c-1,5.3,0.4,9.9,3.1,10.4c2.7,0.5,5.6-3.4,6.5-8.7c1-5.3-0.4-9.9-3.1-10.4
			C536,127.8,533.1,131.7,532.1,137z"/>
	</g>
</g>
</svg>
