<?xml version="1.0" encoding="utf-8"?>
<!-- Generator: Adobe Illustrator 22.0.0, SVG Export Plug-In . SVG Version: 6.00 Build 0)  -->
<svg version="1.1" id="Layer_1" xmlns="http://www.w3.org/2000/svg" xmlns:xlink="http://www.w3.org/1999/xlink" x="0px" y="0px"
	 viewBox="0 0 1080 1080" style="enable-background:new 0 0 1080 1080;" xml:space="preserve">
<style type="text/css">
	.st0{fill:#F44E66;}
	.st1{fill:#FFFFFF;}
</style>
<g id="XMLID_56_">
	<path id="XMLID_57_" class="st0" d="M933.5,175.1h-787C89.3,175.1,43,221.5,43,278.6v380.8C43,716.6,89.3,763,146.5,763H339
		c11.7,0,23,4.2,31.9,11.8l137.8,117.9c18,15.4,44.6,15.4,62.6,0l137.8-117.9c8.9-7.6,20.2-11.8,31.9-11.8h192.5
		c57.2,0,103.5-46.3,103.5-103.5V278.6C1037,221.5,990.7,175.1,933.5,175.1z"/>
	<path id="XMLID_55_" class="st1" d="M540,694L333.7,538.7c-22.7-17.1-41-40.1-50.2-67c-37.9-110.6,73.6-238.1,197.3-182.4
		c2.9,1.3,5.7,2.7,8.5,4.1l50.6,26.1l50.6-26.1c2.8-1.5,5.7-2.8,8.5-4.1c123.7-55.7,235.2,71.9,197.3,182.4
		c-9.2,26.9-27.5,49.9-50.2,67L540,694z"/>
</g>
</svg>
