<?xml version="1.0" encoding="utf-8"?>
<!-- Generator: Adobe Illustrator 22.0.0, SVG Export Plug-In . SVG Version: 6.00 Build 0)  -->
<svg version="1.1" id="Layer_1" xmlns="http://www.w3.org/2000/svg" xmlns:xlink="http://www.w3.org/1999/xlink" x="0px" y="0px"
	 viewBox="0 0 1080 1080" style="enable-background:new 0 0 1080 1080;" xml:space="preserve">
<style type="text/css">
	.st0{fill:#FFCDFF;}
	.st1{fill:#22B3C3;}
</style>
<g>
	<path class="st0" d="M481.4,186.7c-50-37.6-104-59.6-167.4-59.6C167.4,127.1,48.2,246.4,48.2,393c0,135,101.2,246.5,231.7,263.4
		v161.9h-67.5c-18.9,0-34.2,15.3-34.2,34.2c0,18.9,15.3,34.2,34.2,34.2h67.5v53.1c0,18.9,15.3,34.2,34.2,34.2
		c18.9,0,34.2-15.3,34.2-34.2v-53.1h67.5c18.9,0,34.2-15.3,34.2-34.2c0-18.9-15.3-34.2-34.2-34.2h-67.5V656.4
		C478.6,639.5,579.8,528,579.8,393C580.6,317.5,538.7,226.5,481.4,186.7z M314,590.5c-108.9,0-197.5-88.6-197.5-197.5
		S205.1,195.5,314,195.5S511.4,284.1,511.4,393S422.9,590.5,314,590.5z"/>
	<path class="st1" d="M876.9,106.2c-20.6,0-36.9,18.1-33.8,39.3c2.4,16.9,17.7,29.1,34.9,29.1h37.3L774.6,315.2
		c-45.7-37.2-104-59.6-167.4-59.6c-146.6,0-265.8,119.2-265.8,265.8c0,134.8,101,246.3,231.2,263.3c31.9,3.4,68.8,0.1,68.8,0.1
		C771.8,767.9,873,656.4,873,521.4c0-58.6-19.2-112.6-51.4-156.6l142-142v29.2c0,17.1,12.2,32.5,29.2,34.9
		c21.1,3,39.2-13.3,39.2-33.8V130.3c0-13.3-10.8-24.2-24.2-24.2H876.9z M625.2,718.1c-123,11-225.7-91.7-214.7-214.7
		c8.4-94.3,84.3-170.3,178.7-178.7c123-11,225.7,91.7,214.7,214.7C795.4,633.8,719.5,709.7,625.2,718.1z"/>
</g>
</svg>
