<?xml version="1.0" encoding="utf-8"?>
<!-- Generator: Adobe Illustrator 22.0.0, SVG Export Plug-In . SVG Version: 6.00 Build 0)  -->
<svg version="1.1" id="Layer_1" xmlns="http://www.w3.org/2000/svg" xmlns:xlink="http://www.w3.org/1999/xlink" x="0px" y="0px"
	 viewBox="0 0 1080 1080" style="enable-background:new 0 0 1080 1080;" xml:space="preserve">
<style type="text/css">
	.st0{fill:#FFCE00;
}
	.st1{fill:#261F11;}
	.st2{fill:#483D23;}
	.st3{fill:#562912;}
</style>

<g>

	<ellipse class="st0" cx="540.5" cy="540.4" rx="460.6" ry="460.6" />
	<g>
		<g>
			<g>
				<path class="st1" d="M621,349.9c-29.4,9.8-65.9,11.4-80.4,11.7c-14.5-0.3-51.1-1.9-80.5-11.7c-56-18.7-146.1-30.5-214.8-28.8
					c-50.9,1.2-103.5,8.1-136.3,14.7c-14.7,2.9-24,17.2-20.6,31.7l3.5,15.1c2.1,8.8,8.8,15.2,17.3,18.3c4.4,1.6,8.6,4.4,10.5,9.6
					c5.9,15.8,37.8,109.9,55,144.6c14.1,28.4,52.5,52.8,141.5,53.2C443,608.7,486.9,524.8,507,470.7c2.1-5.7,5.3-16.5,8.2-27
					c4.1-15,13.3-29.8,17.4-32c2.4-1.2,5.2-2.2,8-2.2s5.6,1,8.1,2.2c4,2.1,13,16.9,17.2,32c2.9,10.5,6,21.3,8.1,27
					c20.1,54.1,64,138,190.8,137.4c89.1-0.3,127.4-24.7,141.5-53.2c17.3-34.7,49.1-128.8,55.1-144.6c1.9-5.1,6.1-8,10.5-9.6
					c8.5-3,15.3-9.5,17.3-18.3l3.5-15.1c3.3-14.5-5.9-28.7-20.5-31.7c-32.8-6.6-85.5-13.4-136.3-14.7C767,319.5,677,331.3,621,349.9
					z"/>
			</g>
			<g>
				<path class="st2" d="M600,433.9c2.7,61.4,62.4,120.4,118.4,133.9c82.3,19.9,144.1,2.2,179.2-73.4c10.6-22.8,33.2-72.5,31.7-99
					c-2.5-46-61-38-98.3-38.9C827,356.4,596.3,350,600,433.9z"/>
			</g>
			<g>
				<path class="st2" d="M483.4,433.9C480.7,495.3,421,554.3,365,567.8c-82.2,19.9-144.1,2.2-179.2-73.4
					c-10.6-22.8-33.2-72.5-31.7-99c2.5-46,61-38,98.3-38.9C256.4,356.4,487,350,483.4,433.9z"/>
			</g>
		</g>
	</g>
	<g>
		<path class="st3" d="M638.8,776c-12.2,0-24.7-0.9-37.3-2.8c-12.3-1.9-20.8-13.3-18.9-25.6c1.9-12.3,13.2-20.7,25.6-18.9
			c71.3,10.7,134.6-16.3,161.3-68.7c5.7-11.1,19.2-15.5,30.3-9.8c11.1,5.6,15.5,19.2,9.8,30.3C778.9,740.7,714.1,776,638.8,776z"/>
	</g>
</g>
</svg>
