<svg version="1" id="Layer_1" xmlns="http://www.w3.org/2000/svg" viewBox="0 0 1080 1080">
  <style>
    .st0{fill:#d14844}.st1{fill:#bb8738}.st2{fill:#fab44b}.st3{fill:#f1f2f2}.st4{fill:#d1d3d4}.st6{fill:#333}
  </style>
  <path class="st0" d="M495 448c-6 1-10-3-11-8-24-108-40-257-13-347 1-6 7-9 13-8 6 2 9 8 7 14-21 72-16 201 14 336 1 6-3 12-9 13h-1z"/>
  <path class="st1" d="M89 119l78 93 160-40-81-99z"/>
  <path class="st2" d="M242 64L94 109s-17 6-24 13c-6 8 2 11 2 11l20 131 162-41-26-132 2-1 16-17c2-6-2-9-4-9z"/>
  <path class="st3" d="M224 84L68 129l3 3 1 1 155-45-3-4z"/>
  <path class="st1" d="M242 64l-20 17c0 1-1 7 5 7h2l16-14 2-2c1-5-3-8-5-8z"/>
  <path class="st3" d="M322 170l-78-96c2-6 0-8-2-8s-16 13-18 16c-1 5 5 5 5 5l25 128c1 0 58-21 68-45z"/>
  <path class="st4" d="M264 207h-1L233 95v-1l2 1 30 111v1h-1zM272 192l-1-1-23-68 1-2 1 1 23 68v2h-1zM289 193h-1L239 89l1-1h1l49 104v1h-1zM301 182h-1l-44-72 1-2 1 1 44 71-1 2zM311 175h-1l-64-91v-1h2l64 90v2h-1z"/>
  <path class="st1" d="M254 223h2L229 87l-2 1zM327 172l2-2-82-98-1 1z"/>
  <path class="st0" d="M518 697l-8 135 28 159s-44-35-73 15c-24 40 94 5 94 5l-23-180 23-122-41-12zM678 697l-8 135 27 159s-43-35-73 15c-24 40 94 5 94 5l-22-180 22-122-40-12z"/>
  <path class="st3" d="M678 697l-5 71 11-5 22 14 12-68-40-12z"/>
  <g>
    <path class="st3" d="M513 779c13-4 25-9 36-17l10-53-41-12-5 82z"/>
  </g>
  <g>
    <path class="st3" d="M484 440a11 11 0 0 0 13 8c5-1 9-7 8-13-13-56-21-112-25-163l-21 6c5 56 14 113 25 162z"/>
  </g>
  <g>
    <path d="M974 589c0-38-20-73-49-93a114 114 0 0 0-142-145 139 139 0 0 0-248-35 117 117 0 0 0-150 94 139 139 0 0 0-26 268 124 124 0 0 0 190 46 131 131 0 0 0 137 1 121 121 0 0 0 183-24c59-3 105-52 105-112z" fill="#f38a86"/>
    <path class="st0" d="M767 772c-30 0-59-10-83-29a147 147 0 0 1-134-1 139 139 0 0 1-201-52 155 155 0 0 1 23-293 132 132 0 0 1 157-98 154 154 0 0 1 263 35 129 129 0 0 1 150 157 127 127 0 0 1-65 225c-25 35-66 56-110 56zm-79-65l8 7a106 106 0 0 0 160-21l4-6h8a97 97 0 0 0 48-178l-9-7 3-10c4-11 6-21 6-32a99 99 0 0 0-129-94l-14 5-5-15a124 124 0 0 0-220-31l-6 9-11-3a101 101 0 0 0-131 81l-2 11-10 2c-61 9-105 61-105 122 0 52 33 99 82 117l6 2 2 6a109 109 0 0 0 166 40l9-6 9 5a117 117 0 0 0 121 2l10-6z"/>
  </g>
  <g>
    <path class="st3" d="M891 585c-1-7-7-11-13-9-7 1-11 7-9 13 11 55 13 97 7 129l1-2 24-5c5-41-2-87-10-126z"/>
  </g>
  <g>
    <path class="st0" d="M808 858c-5 0-10-3-11-8-2-7 2-13 8-15 55-15 89-39 103-71 16-40 4-94-38-171a12 12 0 1 1 20-11c32 57 65 131 39 191-16 39-55 67-118 85h-3z"/>
  </g>
  <g>
    <path class="st6" d="M711 536c-6 0-10-5-10-11a45 45 0 0 0-89 0 10 10 0 1 1-21 0 65 65 0 0 1 131 0c0 6-5 11-11 11z"/>
  </g>
  <g>
    <path class="st6" d="M512 536c-6 0-11-5-11-11a45 45 0 0 0-89 0 10 10 0 1 1-21 0 65 65 0 0 1 131 0c0 6-5 11-10 11z"/>
  </g>
  <g>
    <path class="st6" d="M260 123l12 20c182-30 369-35 554-13l3-23c-190-21-382-16-569 16z"/>
  </g>
  <g>
    <path class="st0" d="M497 75c-10-2-23 3-29 23l25-1h1l2 1c2 2 3 5 2 7 0 6 4 12 10 13h2c5 0 10-4 10-10 3-15-8-31-23-33z"/>
  </g>
  <g>
    <path class="st1" d="M815 49l36 116 162 27-36-123z"/>
    <path class="st2" d="M977 59L823 42s-18-2-26 3c-9 4-3 10-3 10l-33 128 165 27 27-132h3l21-9c5-5 2-10 0-10z"/>
    <path class="st3" d="M953 70L792 50l1 4 1 1 160 20-1-5z"/>
    <path class="st1" d="M977 59s-22 6-24 8c-1 0-5 6 1 8h2l19-6 3-1c4-4 1-9-1-9z"/>
    <path class="st3" d="M1009 187L975 69c4-5 3-7 1-8-1-1-20 5-22 7-4 5 2 7 2 7l-27 127s62 4 80-15z"/>
    <path class="st4" d="M942 199h-1l-1-1 16-114 1-1c1 0 2 0 1 1l-15 115h-1zM955 188l-1-1 5-72 2-1 1 1-6 72-1 1zM970 196l-1-1-5-114 2-1 1 1 4 114-1 1zM985 191l-1-1-12-84 1-1 1 1 12 83-1 2zM997 188l-1-1-23-108 1-1h1l23 109-1 1z"/>
    <path class="st1" d="M926 210h2l28-135h-2zM1013 192l3-2-38-122-1 1z"/>
  </g>
  <g>
    <path class="st4" d="M272 144h-1l-12-21 1-1h1l12 21-1 1z"/>
  </g>
</svg>
