<svg version="1" id="Layer_1" xmlns="http://www.w3.org/2000/svg" viewBox="0 0 492 492">
  <style>
    .st1{fill:#c69870}.st19{fill:#825839}.st23{fill:#9d6e4b}.st25{fill:#c49671}.st31{fill:#976a4a}.st33{fill:#a47552}.st34{fill:#b68762}.st35{fill:#b5835d}.st37{fill:#edc59e}.st38{fill:#f2cca8}.st41{fill:#ebbe94}.st43{fill:#e5af81}.st44{fill:#edc299}.st45{fill:#deb289}.st46{fill:#e5b98f}.st47{fill:#e3b78e}.st48{fill:#c3936c}.st49{fill:#f6d6b5}.st50{fill:#f5d9b7}.st51{fill:#f5d5b3}
  </style>
  <path d="M444 317l13 13c7 7 11 16 14 26 4 8 2 17 2 26a68 68 0 0 1-44 56c-16 7-33 11-50 17l-18 6a355 355 0 0 1-115 19c-24 1-48-2-72-5-21-3-42-4-63-4l-18 3c-15 2-29-1-40-14-3-3-3-7-4-11-1-3 0-6 1-9v-1c4 0 4 4 5 7 9 19 23 24 41 22 11-2 22-4 34-3 16 0 32 0 47 3l11 1c5 2 10 1 15 2 11 2 21 1 32 1h37a320 320 0 0 0 72-13l11-3c5 0 9-3 13-5l30-10 27-9 18-10c7-4 11-11 14-18 9-19 11-39 3-59-3-8-9-15-14-21l-4-4c0-2 0-3 2-3z" fill="#643c20"/>
  <path class="st1" d="M105 186l12-27c6-14 8-30 5-45-3-23 5-41 19-59 13-17 30-25 52-24l15 3c6 4 13 6 20 9l4 2c2 1 3 2 2 4-7 0-13-4-19-6-19-8-38-8-56 4-11 7-18 18-24 30-6 11-8 22-8 35 1 12 1 23-1 34-1 9-5 18-8 26l-22 56-17 52-6 27c0 1 0 4-2 4-3-4-2-7-1-11a530 530 0 0 1 35-114z"/>
  <path d="M105 186c1 4-1 8-3 12a1924 1924 0 0 0-26 85c-3 9-6 18-5 28l1 5c-3 12-4 23-3 35 0 4 0 7-2 10-3 0-2-3-2-4v-23-9c0-3-1-5-4-5 3-26 10-51 19-75 7-20 16-40 25-59z" fill="#c28f66"/>
  <path d="M188 470l-55-4c-12-1-24 1-37 3-17 3-32-3-40-18-2-4-3-9-6-12l3-18c4-15 4-31 5-46 4-1 4 2 5 4 3 6 0 13 1 19 0 7-4 13-4 20v1l-3 13c-2 6 0 12 3 18 7 13 20 18 35 16l21-3h23c7 0 14 0 21 2l10 1 9 1c3 0 7-1 10 1l-1 2z" fill="#8b5d3c"/>
  <path d="M61 320c3-2 5-2 5 3 2 11-1 22 0 33 0 1-1 3 1 5l1 4c0 13 2 25-1 37-2 9-3 19-6 27l-1 6c0 3 1 6-1 8l-1 1c-3-3-2-6-2-9l3-16c3-13 5-26 4-40l-1-16c1-6 0-11-2-17v8c0 2 1 4-2 5l3-39z" fill="#b98259"/>
  <path d="M268 95v8c0 2 0 4-2 5-3 5-8 8-12 11l-27 18-19 10c-5 1-9 4-12 8-1 1-2 3-4 3-3-1-1-3-1-4 3-5 7-8 11-11 11-4 20-11 30-17l23-13c9-6 12-17 4-26l-2-2c-1-2-1-3 1-4 4 1 6 3 7 6 1 2 3 5 3 8z" fill="#71492d"/>
  <path d="M259 82c-4 2 0 3 0 4 3 3 6 7 6 12 0 6-2 11-7 14l-26 15v-1c0-3 2-3 4-4l17-10c4-2 7-4 7-9V92l-1-2c-5-4-5-9-3-14 0-4 3-6 3-10l-2-8c-2-5-7-7-12-9h-4l-11-4c-2-1-4-2-4-5h1l21 5 3 1c1 2 4 2 6 4 3 3 6 7 6 12l-1 13-3 7z" fill="#8b6142"/>
  <path d="M58 359c2-5 0-10 1-16 5 4 4 10 5 14 0 17 1 33-1 49-1 5-1 9-4 13-1-8 4-14 3-21 0-6 2-12 0-18-1-2-1-5-4-5v-16z" fill="#a2734e"/>
  <path d="M261 76V64c1-8-3-13-9-16-1-1-3-1-1-2l3 1c10 3 12 6 12 17 0 5 0 9-5 12z" fill="#673f24"/>
  <path d="M227 40c0 3 2 3 5 4s7 1 9 4l-6 1h-1c0-3-2-4-4-4l-21-9c-1-1-2-1-1-2 6 1 13 3 19 6z" fill="#ad805c"/>
  <path d="M212 308c11-14 24-26 40-35 24-14 49-19 77-17 9 0 19 1 28 4l15 6 8 3c1 0 3 1 2 3l-2 1-28-9c-19-5-37-4-56-3l-9 3c-16 2-29 9-41 18l-13 10-7 5-8 10-2 2c-4 2-5 7-9 9l-2-1c1-4 4-6 7-9z" fill="#794f32"/>
  <path d="M183 190c1 2-2 5-1 7-1 41-1 82-4 123l-1 26-1 13c-1 1-1 3-3 3-1-1-2-2-1-4 0-9 0-19 2-28v-22c1-4 0-8 2-12v-6-41l1-2v-20-21l2-16c1-2 2-3 4-3v3z" fill="#784e30"/>
  <path d="M382 272c-6-5-14-7-22-9l-4-2c-1-1 0-1 1-1 15 3 29 10 42 18 17 10 32 24 45 39l-1 3c-2 1-3-1-4-2a263 263 0 0 0-53-42l-4-4z" fill="#6b4327"/>
  <path d="M382 272c12 5 23 13 34 22l20 18 7 8c14 13 23 28 23 48 0 17-3 32-13 46-3 3-5 7-10 9-1-2 0-3 1-4l7-8c11-18 14-38 10-58l-3-6c-3-10-10-17-17-24-14-16-30-31-48-42l-9-5c-2-1-4-2-3-4h1z" fill="#815536"/>
  <path d="M445 420l-2 3c-9 7-20 10-30 14l-30 10c-9 3-18 8-27 10-1-3 2-3 3-4 9-4 17-8 26-10 19-7 38-11 55-22 2-1 3-2 5-1z" fill="#8c5f3e"/>
  <path d="M188 470l1-1c4-3 8 0 11 0a370 370 0 0 0 61 2c8 0 17 0 26-2h12l2 1c-5 3-11 2-16 3-21 2-42 0-63 1l-31-2-3-2z" fill="#895c3b"/>
  <path d="M301 470h-2c0-3 2-2 3-3l18-3c12-4 24-6 36-11l4 1c-1 1-4 1-4 3-18 7-36 11-55 13z" fill="#926443"/>
  <path d="M234 49h6c1 1 4 1 3 3-3 2-5 1-8 0l-35-9c-22-4-40 4-54 21-7 10-12 21-15 32l-1 7v32c1 11-3 21-6 31l-18 44-1 5c-13 30-24 62-29 95l-3 12c0 1 0 3-3 2-1-3 0-5 1-8v-5l6-26 9-33 14-39 20-49c4-10 6-20 6-31v-27c1-25 13-45 32-60 12-9 27-13 42-9a132 132 0 0 1 34 12z" fill="#dfaf86"/>
  <path d="M71 316v9l1 4v54l-1 3c1 9-2 17-3 26-1 6-4 12-4 18-1 10-2 19 7 25 4 3 7 4 11 4l17-1 25-1 51 4 25 3c25 3 50 3 74 1a309 309 0 0 0 91-20c3-1 6-2 9-1 0 3-2 3-3 4a294 294 0 0 1-117 23c-16 0-31 1-47-1l-20-3-8-1-22-2c-20-1-39-2-58 1-10 2-20 2-29-4-5-4-10-8-11-14v-4c-1-9 1-17 3-26 5-17 5-34 5-51v-6c0-14-1-28 3-42l1-2z" fill="#daa57a"/>
  <path class="st19" d="M187 171l-3 11c-1 2 1 5-1 8v-2l-2 2-1-4c1-10 4-20 7-29 3-6 6-10 11-13 2-1 3-2 5 0-5 3-9 6-11 11v3c1 5-3 9-5 13z"/>
  <path d="M179 466c12 0 24 3 36 4h50c14 0 28-3 42-5 13-1 26-4 38-8 10-4 20-6 29-12 5-2 9-6 15-5 1 4-3 2-4 4l-25 10c-5 0-10 3-15 4l-24 7-31 5-2 1h-20l-18 1h-26l-24-2-11-1c-3-1-7-2-10-1v-2z" fill="#c18e66"/>
  <path d="M179 466v2c-3 0-6 1-8-1-3-2-7 0-10-1-7 0-15-2-22-1h-24l-16 2c-15 3-28 0-38-13l-2-4c-1-2-2-4-1-6h1c3 9 8 17 18 20 8 2 15 1 23 0 12-1 24-3 36-1 8 1 16-1 24 1l19 2z" fill="#b47d55"/>
  <path d="M58 444l1 6c-4-5-5-11-4-17l4-14-2 16 1 9z" fill="#9e6b47"/>
  <path class="st23" d="M115 465c8-2 16-2 24 0h-24zM161 466c3 0 7-1 10 1-3-1-7 1-10-1z"/>
  <path d="M203 144l-4 1v-1c1-3 3-3 5-4 8-3 15-9 22-13 2-1 4-3 6-1v1c-9 6-18 13-29 17z" fill="#966a4a"/>
  <path class="st25" d="M232 126c-6 2-10 6-15 9l-18 9c-7 4-11 10-13 18-1 1-1 3-3 3l-1-3c1-11 8-18 17-23l3-1c10-4 19-10 27-16 10-5 20-10 28-17 1 0 2-2 4-1-1 6-6 8-10 10-6 3-11 7-17 9l-2 3z"/>
  <path d="M261 104l-3 2v-4c2-4 0-7-3-10-2-2-7-3-7-7s3-6 4-9c2-3 1-7 5-8 2 3-1 5-1 7-3 7-4 9 3 14l2 3c1 4 2 8 0 12z" fill="#dbae86"/>
  <path d="M256 76l1-8c-2-2-1-4-1-6v-5h2c4 6 2 13-1 19h-1z" fill="#b78b68"/>
  <path d="M256 76h1c-2 5-2 9 3 13l1 3-6-5c-3-3-3-7 1-11z" fill="#b28663"/>
  <path d="M258 57h-1c-4 0-6-4-10-5-1-2-5-1-6-4 7 0 13 2 17 9z" fill="#b3845f"/>
  <path class="st1" d="M241 48c2 2 6 0 7 4-3 2-5-3-8-2l-5-1c2-2 4-1 6-1z"/>
  <path d="M183 162v3c2 3-1 6-1 9l-2 9v2c-2 4-2 8-2 12v2l-1 17v5l-1 28v1l-1 15v35l-1 25-2 32v4c0 2 1 5 4 5 3 1 5-1 6-3l6-14 10-18 18-22 1-2 10-11 3-2 15-11c10-7 20-14 33-17l2 1v1c-7 4-15 6-21 10-6 3-11 6-15 10l-6 5c-14 10-24 23-34 37l-1 1c-1 2-3 3-3 5l-1 2-3 5-1 1c-2 2-3 5-3 7l-5 10-3 6c-3 3-6 5-10 4-5-1-6-5-7-9v-10c3-11 2-21 2-32 2-23 3-47 3-71v-34c0-15 3-30 6-45 1-3 1-7 5-8z" fill="#c9976e"/>
  <path class="st31" d="M175 250v-1-21l1-7v-5-13l1-5 2-14 2-10 2-9 4-8c3-6 5-11 12-13v1c-7 5-10 11-12 19-3 9-5 17-6 26-2 5-2 10-2 16l-1 20v23l-1 15v33c-2 3-1 7-1 11l-1 16v6l-2 31 2-2v3l1 3 3-1 3-6c7-14 14-29 24-41l1 1c0 4-4 6-6 10l-2 3c-3 7-8 12-10 19l-6 12c-2 3-4 6-8 6-4-1-4-5-4-9l2-33v-20l1-6v-1-12l1-37z"/>
  <path d="M280 267h-2c1-5 5-3 8-4 7-3 14-4 22-4 11 0 22-1 33 1l23 6 17 6c3 4 9 4 12 8h-4l-23-10-9-2c-16-5-32-5-49-5-8 1-16 0-24 4h-4z" fill="#b5855f"/>
  <path class="st33" d="M286 263c-2 2-6 1-8 4-13 3-23 10-34 17l-14 11c-1-2 1-2 2-3 8-8 17-14 26-19l20-9 8-1zM199 331c1-4 4-7 6-10l2-3c3-3 4-8 9-9-2 5-6 8-9 12s-4 8-8 10zM228 297c-3 4-6 8-11 10 1-5 6-7 9-10h2z"/>
  <path class="st31" d="M228 297h-2c2-2 3-5 6-5l-2 3-2 2z"/>
  <path class="st19" d="M177 297v-43c0-2-1-4 1-5v43c0 1 1 3-1 5zM178 247v-36c0-2-1-4 1-5v36c0 1 1 3-1 5zM175 330v-17c0-2-1-4 1-5v17l-1 5z"/>
  <path class="st34" d="M393 280a271 271 0 0 1 51 44c5 7 12 13 15 22 6 14 5 29 2 44-1 2-1 4-3 5-3-3-1-5 0-8a63 63 0 0 0-4-43c-7-14-19-25-30-35-9-9-19-17-29-24-1-2-3-3-2-5z"/>
  <path class="st35" d="M385 444l4-3c2-3 6-4 9-5l24-8c9-3 16-9 24-14l4-2h1l-6 8c-9 5-17 10-26 13l-34 11zM458 395c6-14 7-27 3-42l-2-7c3 4 4 8 4 13 2 18 0 35-10 51l-2 2c-2-4 2-6 3-9v-1c2-2 2-5 3-7h1z"/>
  <path class="st23" d="M200 470l52 2 28-2c2 0 5-1 8 1-23 3-46 2-68 2-7-1-14 1-20-3zM290 470l23-4 8-1-20 4-2 1h-9z"/>
  <path d="M71 384v-59l2-10c0-2 0-4 2-5 2 3 1 6 1 9v2c-2 11-3 21-2 31v13l1 40c1 5 1 6 6 6l48-5 46-4 47-3 72-7 68-5 55-5 25-2c6 0 9-4 10-9 2-9 0-17-3-25-3-6-6-11-11-16l-20-22c-2-1-3-2-3-4v-1c2-1 3 1 4 2l25 25c5 5 7 12 12 17l1 5 1 6c2 11 1 21-5 31-4 9-12 14-22 14l-39 3-57 5-37 3-57 5-51 4-58 5-37 3-20 1c-6 1-9-2-9-9l2-13c3-9 2-17 3-26z" fill="#edc29a"/>
  <path class="st37" d="M257 62v6l-4 8-1-1v-5c1-7-1-11-8-13-8-3-17-3-26-6l-17-5c-15-3-29-1-41 9-12 9-20 21-25 35l-2 14v10c2 24-3 46-13 68l-11 27c-1 2-1 6-5 6 0-6 3-10 5-15l14-35c4-12 7-23 6-35v-20c-1-25 10-44 29-59 13-11 29-13 46-8l33 9h6c7 0 12 3 14 10z"/>
  <path class="st38" d="M104 215l4-5c1 6-3 10-5 14l-2 8-8 21-5 16-2 7a54 54 0 0 0-3 12c-2 5-3 9-3 14v2l-3 12c0 2 0 4-2 4v-10c0-12 4-23 7-34l10-32c4-10 7-20 12-29z"/>
  <path d="M257 62c-4-5-8-9-14-10l-3-2c3-1 5 2 8 2 4 0 6 3 9 5v5z" fill="#d9ab82"/>
  <path d="M456 352l-1-5v-4c6 10 8 21 6 32l-3 20c-2 2-2 5-3 8l-8 12-17 11-30 11-11 4c-4-1-7 1-10 2l-5 2c-7 0-13 4-19 6a258 258 0 0 1-82 16h-59l-41-4c-22-3-43-4-65-4l-26 2c-10-1-19-8-20-18 0-4-1-9 1-13 2 2 1 4 1 6-1 10 7 19 19 17l44-4 54-4 51-5 66-5 66-6c18-1 35-2 53-6 21-4 33-17 39-36 3-12 5-23 0-35z" fill="#e6b082"/>
  <path class="st41" d="M71 384c0 12 0 24-3 36v5c0 4 1 6 5 6l31-2 27-3 44-4 31-2 46-4 25-2 43-4 30-2 42-4 25-2 19-1c11-1 15-10 19-19 3-8 3-16 2-25 3 1 2 4 2 6 0 7 0 14-2 21-1 5-3 9-6 14-6 12-16 17-29 17l-42 4-34 2-42 4-56 5c-13 0-25 2-38 3l-55 5-39 3-42 4c-8 0-10-3-10-11-1-7 1-14 3-21l4-29z"/>
  <path d="M67 413l-2 14v8c0 6 2 8 9 8l29-3 17-1 44-4c14 0 28-2 41-3l39-4 16-1 55-4 62-5 48-4c15-1 24-12 30-26 0-1 0-3 2-4v3c-5 18-15 31-33 36l-42 6-40 4-27 2-41 4-30 2-43 4-25 2-44 4-14 1c-13 0-26 1-38 3-9 1-17-7-17-15v-10c-1-6 2-11 4-17z" fill="#e9b78a"/>
  <path class="st43" d="M183 162c-4 6-5 13-6 19-3 15-3 31-3 46-1 21 0 42-2 62l-2 57-2 14c0 4 1 8 5 10 4 1 8-1 10-5l4-5c2 3 0 6-2 8-4 6-11 9-17 12-4 2-6 0-8-4-7-21-13-43-8-66l8-42 8-76c2-12 4-25 11-36 4-8 10-14 19-18h3l2 1c-8 4-15 8-19 17l-1 6z"/>
  <path class="st37" d="M253 76c-3 6-5 11 3 15 6 3 4 10 2 15-5 6-12 8-18 12l-10 5h-2c0-3 2-3 4-4l19-11c2-1 4-3 5-6 1-4 0-8-5-9h-17l-4 1c-1 0-3 0-3-2-1-1 0-3 1-4l9-4c5-1 10-3 13-7 1-1 2-2 3-1z"/>
  <path class="st44" d="M228 123h2c-5 5-12 8-18 12-3 1-5 4-9 4h-2c0-3 2-3 4-4l18-11c2 0 3-2 5-1zM199 139c-17 8-24 23-27 40-4 20-5 41-7 61-3 24-7 49-12 73-3 15-2 30 3 45l6 18c1 4 3 5 6 3 5-4 11-6 15-11 2-2 4-5 4-8l4-9 4-7 4-7 4-6c10-15 21-28 35-39l5-4c8-7 18-12 28-16l5-2 2 1c-1 4-5 4-8 6-16 7-30 17-42 30-16 16-28 34-36 55-5 11-13 19-23 25-6 3-11 1-13-6l-8-33c-2-12-1-24 0-36 2-15 7-30 8-45l6-51c0-7 1-15 3-22 2-9 3-19 6-28 5-11 10-21 20-27l4-1 4 1z"/>
  <path class="st45" d="M238 292l-7 7c-8 6-14 14-20 22l-8 10c2-7 7-11 11-16 6-8 13-16 21-22l3-1zM276 271c-9 2-17 7-24 12l-9 5c8-8 18-13 28-17 2-1 5-3 9-3 0 3-3 2-4 3z"/>
  <path class="st25" d="M175 250v44l-1 5v-44c0-2-1-4 1-5zM176 221v23l-1 5v-23c0-2-1-4 1-5z"/>
  <path class="st46" d="M276 271l4-3v-1h4c2-1 3-2 5 0-1 3-7 5-11 4h-2z"/>
  <path class="st25" d="M174 300v21l-1 5v-21c0-2-1-4 1-5zM177 198c-1 6 1 12-1 18 0-6-1-12 1-18zM179 184l-2 14c0-5 0-10 2-14z"/>
  <path class="st43" d="M199 337c0 3-2 5-4 7 0-3 1-6 4-7zM195 344c-1 3-1 5-4 7 0-3 1-6 4-7z"/>
  <path class="st25" d="M181 174l-2 10c0-4 0-7 2-10z"/>
  <path class="st43" d="M203 331l-4 6c0-3 2-5 4-6z"/>
  <path class="st47" d="M290 267h-6c2-3 6-3 9-4 19-2 38-2 57 2l8 2 26 10c1 0 3 1 2 3-2 1-4 0-6-1-18-8-38-12-58-14-11-1-21 1-32 2z"/>
  <path class="st48" d="M387 280c-6-5-13-7-19-9l-10-4c8 0 15 4 22 7 3 1 7 3 10 6h-1-2zM393 280l3 4h-2-1c-1-1-4-2-3-4h3z"/>
  <path class="st47" d="M394 284h2c14 10 28 22 40 34 7 8 15 15 19 25v4l-3-2c-6-14-17-23-27-34l-9-8-13-10-6-4-2-2c-1-1-2-2-1-3z"/>
  <path class="st34" d="M447 415c2-4 4-9 8-12 0 3-4 5-4 9l-4 3zM455 403c0-3 1-6 3-8 0 3-1 6-3 8z"/>
  <path class="st38" d="M396 287l1 1 18 15 12 13c8 8 17 16 22 26 4 10 7 19 4 30-1 8-4 9-14 10-14 0-27 2-41 3l-52 5c-15 0-30 2-44 3-13 1-26 1-38 4l-16 1-46 4c-14 0-27 2-41 3l-38 4-29 2-15 1c-4 1-5 0-5-4l-1-47-1-11c0-9 0-19 3-29 2 3 1 7 1 11 0 12 0 25 2 37 1 7 2 7 8 7l54-5c6-1 7-2 6-7l-3-20c-1-9-1-19 1-28 3-20 8-40 10-60l7-65c2-15 5-30 14-42 6-8 13-14 24-16 5-1 11-3 16-6l31-19 5-3c1-1 3-3 2-5 0-3-2-4-4-4-6-1-12 0-17 2l-11 3h-5c-2-3 0-5 1-6l4-5 8-6 12-4c6-2 10-7 9-13 0-4-6-9-11-10h-4c-12-1-24-5-35-9-16-5-29 0-41 10a65 65 0 0 0-23 38l-1 10c0 11 1 23-1 34-1 12-4 22-9 32l-12 32c-1 2-1 6-5 6 0-7 5-13 7-19l13-34c4-16 4-32 4-47-1-16 4-29 13-42 8-12 19-20 33-23 7-2 15-2 23 0a295 295 0 0 0 46 12c6 2 8 7 7 14l-1 5c-5 5-10 8-17 10l-7 3-2 3c1 2 3 1 4 0h17c5 1 9 2 10 7 0 4-3 9-8 11l-22 13-16 10-7 3-10 3-3 1c-10 5-16 14-20 24s-5 20-6 30l-5 44c-3 22-6 44-11 66-4 20-4 40 3 59l4 17c1 7 6 8 12 5 13-7 20-20 26-33 6-15 15-28 26-40 15-18 34-31 56-40l1-1 12-4c30-6 59-1 88 11 6 2 13 4 18 9z"/>
  <path class="st47" d="M457 387v-3l2-19-2-8c-2-2-1-3-1-5 3 1 3 4 3 6 1 10 2 20-2 29z"/>
  <path class="st49" d="M75 332v-11-1l3-15 1-2c1 1 2 3 1 4-1 8 0 16-2 23l-3 2z"/>
  <path class="st41" d="M415 303l-18-15c7 3 13 9 19 15h-1z"/>
  <path class="st50" d="M77 331l2-28 3-15 3-12c0-3 0-5 2-7l5-16c2-7 4-14 8-21l20-48c4-10 9-20 12-31 4-16 3-32 3-48 0-10 3-20 8-29 10-16 23-29 43-30 7-1 14 0 20 4 4 3 5 5 4 10-5 3-11 3-17 4s-9 4-9 10c1 6 1 12 4 17 5 7 6 15 7 23 0 4-3 7-6 9-4 2-6 5-8 9l-3 6c-11 13-16 29-20 45l-18 81c-3 15-6 31-7 47-1 11-2 24-9 34l-6 9c-6 7-13 11-21 14-5 2-10 1-14-3-2-4-3-9-6-12-1-8-2-15 0-22z"/>
  <path class="st51" d="M210 60c0-7-7-12-15-13-18-3-32 4-43 18a61 61 0 0 0-15 42c0 17 0 33-5 49l-14 36-16 37-2 3c0-6 4-11 6-16l2-6c5-8 7-17 11-25 4-11 9-21 12-32 4-15 3-30 3-45 0-8 1-16 4-23 8-21 22-36 45-40 7-1 14 0 21 3 10 4 19 7 30 7l2 1-2 2c-6 0-10 3-12 9-4-2-8-6-12-7z"/>
  <path class="st49" d="M92 253l-5 16c0-6 2-11 5-16zM82 288l-3 15 3-15zM85 276l-3 12 3-12z"/>
  <path class="st37" d="M195 139c3-2 6-3 10-3l-4 3h-6zM166 194c0-17 4-33 15-47 3-3 6-6 11-7-6 4-11 9-15 16-5 9-8 18-9 28l-2 10z"/>
  <path class="st46" d="M396 287a157 157 0 0 0-96-20h-10c10-3 19-5 30-4l25 4c8 1 17 4 25 7 6 1 11 5 17 6l7 4 2 3z"/>
  <path class="st47" d="M394 284c-3-1-6-2-7-4h3l4 4z"/>
  <path d="M330 303c-19-1-36 1-53 5-9 2-18 7-27 11l-11 4c-4 1-8 1-11-2-2-4 0-7 1-10 7-11 17-18 27-25 10-6 21-11 32-14 14-3 28-3 42-1 12 1 24 3 36 8 4 1 8 3 11 7 5 5 4 9-2 12-7 3-14 3-20 4-9 0-18 2-25 1z" fill="#f4e5c2"/>
  <path class="st51" d="M77 331c0 7-1 15 2 22 1 4 2 8 5 11 3 4 7 5 12 3 8-2 15-7 21-13l11-17c2-4 4-7 8-9l2-3 10-51 6-57c3-19 4-38 11-57 6-15 15-28 33-30 6-1 11-3 15-7l30-17 3-2c1 0 3-1 2-3 0-2-2-2-4-2-5 1-10 1-15 4l-10 5c-6 2-8 1-9-6 1-6 6-9 10-12h3l-6 6c-1 1-2 2-1 4h4l12-4c6-1 12-3 18-1 3 0 4 2 5 4 1 3-1 5-2 6-4 4-9 6-13 8l-26 16c-4 2-9 5-14 5-14 2-22 11-28 22s-8 23-9 35l-6 50-4 33c-1 12-4 24-7 36-3 16-2 32 1 48 2 13 1 14-11 15l-52 4c-5 1-6-1-7-4l-2-20v-21l2-1z"/>
  <path class="st50" d="M223 90c-5 2-9 6-11 12l-1 3c0 2-1 5-4 5-4 1-4-2-5-5-1-4 1-8 4-11 7-8 14-16 16-27 2-8 3-9 11-10l3-1h1c5 0 9 3 11 8 1 6-2 10-6 13l-12 8-7 5z"/>
  <path class="st51" d="M230 85c3-4 7-5 10-7 6-5 8-10 6-14s-5-7-9-8c6-1 11 3 14 8 2 3 1 7-1 11l-7 5-13 5z"/>
  <path d="M82 326c-1-30 7-56 17-81 11-27 24-54 34-82 5-14 8-28 9-44 0-10-2-20 1-29 5-18 16-33 34-39 5-2 10-3 15-1l3 2c0 2-2 2-3 2-14 3-17 11-14 26l9 25c2 5 0 8-4 11l-10 11-8 13c-10 17-14 37-19 57-5 18-9 37-12 55-5 22-10 44-10 67a46 46 0 0 1-22 40c-11 6-14 4-18-8-2-9-3-18-2-25z" fill="#f4e7c5"/>
  <path class="st49" d="M203 105c1 1 0 5 3 5s4-4 5-6l1-2c0 6 1 7 7 4 7-3 13-7 21-8h1c3 0 8-2 9 2 2 4-3 5-6 7l-28 16c-7 6-16 7-24 10-14 4-21 16-26 29s-7 26-8 40l-6 50c-2 21-7 41-10 61-1 4-3 8-2 13l-2 3c-6 2-8 7-11 12-2 5-5 10-10 13 3-6 7-10 9-16 4-9 5-18 6-27 0-17 4-33 7-50l18-79c3-13 6-26 14-38l12-18 5-4c3-2 5-4 6-8 4 1 6-1 7-5 0-2-1-4 2-4z"/>
  <path d="M203 105c-2 2-1 4-2 6-2 5-3 6-7 3-1-9-4-17-8-25-3-6-4-13-2-20 1-3 3-6 6-6 7 0 13-2 20-3 5-1 9 3 12 7 1 10-6 17-12 24-4 4-7 8-7 14z" fill="#ebbe95"/>
  <path class="st49" d="M84 364a980 980 0 0 1 0 0z"/>
  <path d="M242 65c0 5-3 9-6 12-4 4-9 8-14 10h-3v-2c5-7 7-15 10-22 2-3 4-4 7-4 4 0 6 2 6 6z" fill="#f4e4c2"/>
  <path d="M217 77l-2 5h-17c-3 0-7 2-10 0-2-2-2-5-2-8 0-5 3-8 8-8 4 0 8 0 11-2l9 4c2 3 3 5 3 9z" fill="#d89362"/>
  <path d="M188 82c9-2 18-2 27 0-8 8-15 16-18 27-1-10-6-18-9-27z" fill="#c67a47"/>
  <path d="M217 77c-2-7-7-10-12-13l6-1c7-1 10 3 7 11l-1 3z" fill="#b46836"/>
</svg>
