<svg xmlns="http://www.w3.org/2000/svg" id="Layer_1" viewBox="0 0 1000 1000">
  <style>
    .st0{fill:#e7e6e2}.st2{fill:#fff}.st8{fill:#fff200}.st21{fill:#bc8639}
  </style>
  <path d="M641.2 333.8l-.2 14.3c-1.3 86.6-4.9 193.7-14.1 271-18.1 151.7-39 183.4-30.5 206.5l.3.8a38 38 0 0 1 1.5 5.1h.1c6.2 23.6 2.8 59.4 2.8 59.4s-46.1 44.4-189.2 45.2C268.6 936.9 222 893 222 893s-3.9-36.9 2.5-60.6l1.4-4.7c.8-2 1.2-4 1.5-6.2 3.1-23.3-16.1-61.4-34.2-199.9-10-77.1-14.8-184.3-17.2-270.8l-.9-36.4c-1.2-65.2-1.1-111.7-1.1-111.7l467.4-2.6s.7 57.1-.2 133.7z" class="st0"/>
  <path fill="#eaeaea" d="M601 890.8s-46.1 44.5-189.2 45.2c-143.2.9-189.8-43.1-189.8-43.1s-3.9-36.9 2.4-60.6c12-4.2 37 1.5 48.2-2.7 0 0 6.3 20.3 57 20 50.7-.3 66.8-21.8 66.8-21.8s12.1 21.4 69.6 21.1c57.5-.3 64.1-50.2 64.1-50.2s29.7 38.3 68 32.9h.1c6.2 23.5 2.8 59.2 2.8 59.2z"/>
  <path d="M240.6 832.5s37.3 2.9 43.1-3c6 4.9 6.1 10.1 37.4 19-19.8-.9-30.7-4.5-37.7-13.7 0 0-36.8 1.5-42.8-2.3zM348.3 850.7s37.4-6.4 49.2-22.2c7 11.2 28.7 20.9 56.3 21.7-26.1 1-57.1-10.9-57.1-10.9s-9.6 7.8-48.4 11.4zM488.3 847.1s29.8-5.1 38.5-22.5a101 101 0 0 0 50.3 8.2c-18.6 4.6-47.8.5-47.8.5s-21.3 11.8-41 13.8z" class="st2"/>
  <path fill="#ccc" d="M221.2 881.8l.8 11.1s46.6 44 189.7 43.2c143.2-.8 189.2-45.2 189.2-45.2s2.1-22.5-.1-43.5c-21.3 95.5-263.8 97.9-379.6 34.4z"/>
  <path d="M227.9 845s-5.1 27.8-2.1 35.9c6.6 18.3 119.1 59.4 284.4 38.7 0 0-210.1 12.5-272.3-41.4-.1.1-9.6-9.7-10-33.2z" class="st2"/>
  <path fill="#f2f2f2" d="M641.5 200.1c-.1-14.3-104.8-25.4-233.9-24.7-129.1.7-233.7 12.9-233.6 27.3 0 14.3 104.8 25.3 233.8 24.6 129.1-.7 233.7-12.9 233.7-27.2z"/>
  <path fill="#aaa" d="M630.9 200.1c-.1-11-100.1-19.3-223.3-18.7-123.3.7-223.2 10.1-223.1 21.1.1 11 100 19.3 223.3 18.7 123.3-.6 223.2-10.1 223.1-21.1z"/>
  <path fill="#ffc408" d="M624.3 348.2c-.5 35.1-1.3 73.7-2.7 112.3l-1.4 35.5-.1 2a20001.2 20001.2 0 0 1-2.5 45.8l-.6 8.9a2094 2094 0 0 1-4.1 50.8l-.8 8-.8 7.7c-16.7 151.7-36.1 183.4-28.2 206.5l.3.9c.5 1.6 1 3.3 1.3 5-35.5 5.3-57.9-7-57.9-7s-11.3 24-64.6 24.3c-53.4.3-64.6-21.1-64.6-21.1s-9.8 21.7-56.8 21.9c-47 .3-57-20.2-57-20.2-14.2 7.9-33.3 3.3-45.7 2.7l1.3-4.7c.7-2 1.2-4 1.4-6.2 1.7-13.9-3.9-33.1-12.4-75.8-5.7-28.8-12.6-68.3-19.4-124.1-9.3-77.1-13.8-184.3-16-270.8l431.3-2.4z"/>
  <g id="XMLID_31_" opacity=".6">
    <path id="XMLID_40_" d="M530.6 407.8a20.3 20.3 0 1 1-40.6-2.2 20.3 20.3 0 0 1 40.6 2.2z" class="st8"/>
    <path id="XMLID_39_" d="M380.4 786.9a10.3 10.3 0 0 1-11 9.8 10.3 10.3 0 0 1-9.8-11c.3-5.8 5.2-10.2 11-9.8 5.7.3 10.1 5.3 9.8 11z" class="st8"/>
    <path id="XMLID_38_" d="M466.1 620.9a8.3 8.3 0 0 1-8.8 7.8 8.3 8.3 0 0 1 .9-16.5c4.7.2 8.2 4.1 7.9 8.7z" class="st8"/>
    <path id="XMLID_37_" d="M336.1 631c-.3 5-4.6 8.8-9.6 8.6-5-.3-8.8-4.6-8.6-9.6.3-5 4.6-8.8 9.6-8.6a9 9 0 0 1 8.6 9.6z" class="st8"/>
    <path id="XMLID_43_" d="M433 489.7c-.3 5-4.6 8.8-9.6 8.6-5-.3-8.8-4.6-8.6-9.6.3-5 4.6-8.8 9.6-8.6a9 9 0 0 1 8.6 9.6z" class="st8"/>
    <path id="XMLID_36_" d="M391.4 685.4a11.5 11.5 0 0 1-12.2 10.9 11.5 11.5 0 0 1-10.9-12.2c.4-6.4 5.8-11.3 12.2-10.9 6.3.3 11.2 5.8 10.9 12.2z" class="st8"/>
    <path id="XMLID_41_" d="M408.8 578a11.5 11.5 0 0 1-12.2 10.9 11.5 11.5 0 0 1-10.9-12.2c.4-6.4 5.8-11.3 12.2-10.9 6.4.3 11.3 5.8 10.9 12.2z" class="st8"/>
    <path id="XMLID_42_" d="M385.7 411.4a7.4 7.4 0 1 1-14.8-.8 7.4 7.4 0 1 1 14.8.8z" class="st8"/>
    <path id="XMLID_35_" d="M354.6 371.5a4 4 0 0 1-4.2 3.8 4 4 0 0 1-3.8-4.2 4 4 0 0 1 4.2-3.8 4 4 0 0 1 3.8 4.2z" class="st8"/>
    <path id="XMLID_34_" d="M322.4 391.9c-.1 2.2-2 3.9-4.2 3.7-2.2-.1-3.9-2-3.7-4.2.1-2.2 2-3.9 4.2-3.7a4 4 0 0 1 3.7 4.2z" class="st8"/>
    <path id="XMLID_33_" d="M478 466.2a4 4 0 0 1-4.2 3.8c-2.2-.1-3.9-2-3.7-4.2.1-2.2 2-3.9 4.2-3.7a4 4 0 0 1 3.7 4.1z" class="st8"/>
    <path id="XMLID_32_" d="M350.5 516.3a4 4 0 0 1-4.2 3.8c-2.2-.1-3.9-2-3.7-4.2a4 4 0 0 1 4.2-3.8 4 4 0 0 1 3.7 4.2z" class="st8"/>
  </g>
  <path fill="#fff1e6" d="M623 348.2l-430.2 2.4c-2.3-32.1-.7-148.1-.7-148.1l431.2-2.4-.3 148.1z"/>
  <path fill="#ffac06" d="M624.1 348.2c-.5 35.1-1.3 73.7-2.7 112.3L620 496l-.1 2a20001.2 20001.2 0 0 1-2.5 45.8l-.6 8.9a2094 2094 0 0 1-4.1 50.8l-.8 8-.8 7.7C594.4 770.9 575 802.6 583 825.7l.3.9c.6 1.6 1 3.3 1.3 5.1-35.5 5.3-57.9-7-57.9-7s-11.3 24-64.6 24.3c-53.4.3-64.6-21.1-64.6-21.1s-8.2 21.7-55.2 21.9c-47 .3-58.5-20.2-58.5-20.2-14.2 7.9-33.3 3.3-45.7 2.7l1.3-4.7c.7-2 1.2-4 1.4-6.2 1.7-13.9-3.9-33.1-12.4-75.8 61.5 139.3 260.6 87.1 309.5-74.3C562.6 562 588.6 460 595.7 348.4" opacity=".3"/>
  <path fill="#ffdec5" d="M595.6 348.4c3.1-48.8 4.8-98.2 5.1-148.1l23.6-.1s.7 57.2-.1 133.7l-.2 14.3"/>
  <path fill="#fff" d="M484.8 424.7c.8 139.3-53.9 252.5-122.2 252.9-68.2.4-124.2-112.2-125-251.5-.8-139.3 53.9-252.5 122.2-252.9 68.3-.4 124.2 112.2 125 251.5z" opacity=".5"/>
  <g>
    <path fill="#ffebde" d="M368.7 150.7a70.8 70.8 0 1 1-141.6.8 70.8 70.8 0 0 1 141.6-.8z"/>
    <path fill="#fffaf8" d="M561.3 134c.2 40-43.9 72.8-98.6 73.1-54.7.3-99.2-31.9-99.4-72C363 95 407.2 62.3 461.9 62c54.7-.3 99.2 31.9 99.4 72z"/>
    <path fill="#fffefa" d="M426 93.3c-6.4-.6-80.9-9.5-119.5 15.1-38.6 24.6-29.9 1.3-69.7 18.1-39.8 16.8-57.1 31.2-63 43.6-4.7 10-12.6 38.4 25.8 50.7 63.4 20.3 18.3 41.4 63.9 87.7 45.7 46.3 50.5-20.7 105.7-56.5 55.2-35.7 92.5-21.6 152.3-28.6 59.8-7 109.8-9.8 116.7-16.8C685 159.1 641 98.4 523.5 104.9c-49.8 2.8-17.7-4.3-97.5-11.6z"/>
    <path fill="#f2e6dd" d="M523.5 104.9c-41.7 2.3-26.1-2.3-66.7-8.1 41 18.2 129.6 5.1 155.4 42.7 6.7 9.8.5 33.1-4 38-80.1 86.9-231.8-9.7-306.9 108.6-4.4 13.4-34.1 21.8-50.7 6.5a98.8 98.8 0 0 0 13 15.8c45.7 46.3 50.5-20.7 105.7-56.5 55.2-35.7 92.5-21.6 152.3-28.6 59.8-7 107.1-9.2 119.2-21.3 43-42.9.2-103.6-117.3-97.1z"/>
  </g>
  <g>
    <path fill="#f4f4f4" d="M639.4 299.1c1.1 1.2 8.6 24.2 28.6 25.6 20 1.5 135.7-8.6 154.5 44.4 18.7 53.1 0 184.7-12.4 223.8-12.4 39-59.1 166.6-163.1 202-24.2 7.5-44 33.9-44 33.9s-8.4 12.7-13.8-25.2c-5.5-37.9-3.5-70.5 42.8-62.4 46.4 8.2 130.1-73.3 147.2-224 17.1-150.6-41.6-145-71.7-139.6-30.1 5.4-57.9 26.1-65.2 37.7-7.3 11.6-16.3.1-17.5-24.6-1.4-24.7-.8-107.8 14.6-91.6z"/>
    <path fill="#d3d3d3" d="M635.4 327.5s6.1 17.2 50.2 10.6c44.2-6.6 113.6-16.1 124.6 74.4s-39.3 249.4-74.3 274.8c0 0 77.8-145.7 61.1-255.1-9.4-51.2-46.9-96.6-125.2-49.8-40.5 26.8-42.6 27-36.4-54.9z" opacity=".2"/>
    <path d="M616.3 745s-22.7 1.5-21.8 33.6c.9 32.1-.3 65.6 26.3 16.3 8.8-16 68.6-12.6 109.8-75.3 41.3-62.8-78.7 85-114.3 25.4z" class="st0"/>
    <path d="M680.4 337.6s78.7-7.3 104.1 9.7c25.4 17.1 34.6 59.4 27.7 159.4-6.9 100-45.6 154.2-45.6 154.2s48.3-79 38.1-229c-6.9-61.8-32.4-85.8-124.3-94.3z" class="st2"/>
  </g>
  <path fill="#e2e2e2" d="M186.3 172.3s-1.7 37.9 53.7 49.8c19.2 2.3 5.8 34.2 15.7 50.1 9.9 15.9-8.9-4.6 3.5-47.8 12.5-43.1-43.9 20.5-72.9-52.1z" opacity=".1"/>
  <g opacity=".2">
    <path d="M502.6 788.6a37 37 0 1 1-74.2.4l-2.2-389.7a37 37 0 1 1 74.2-.4l2.2 389.7zM576.4 361.4a37 37 0 0 0-36.9 37.3l2.2 389.7a37 37 0 0 0 41.2 36.7c-7.4-23.1 11.8-55.5 28.4-205.8l.8-7.7.8-8 .8-8.1 1.1-12.6-1-184.5a37.3 37.3 0 0 0-37.4-37zM276.2 789.9L274 400.2a37 37 0 1 0-74.2.4l.7 128.6a1698.2 1698.2 0 0 0 27.7 216.3c8.4 42.7 14.1 61.9 12.4 75.8-.2 2.1-.7 4-1.3 5.8 20.5-.2 37-16.8 36.9-37.2zM389.4 789.2a37 37 0 1 1-74.2.4L313.1 400a37 37 0 1 1 74.2-.4l2.1 389.6z" class="st21"/>
  </g>
  <g>
    <path fill="#fff1e6" d="M228.9 204.9S217.1 645 261.4 784.1c6.5 20.5 56.3 19.5 76.5 26 0 0-46.3-266.5-33.1-600.4l-75.9-4.8z" opacity=".5"/>
    <path fill="#fff" d="M298.6 786.5S257.3 497 260.8 349.6c0 0-15.3 193.2 2.8 344.8 4.8 41 16.2 72.8 35 92.1z" opacity=".8"/>
  </g>
</svg>
