<svg xmlns="http://www.w3.org/2000/svg" xmlns:xlink="http://www.w3.org/1999/xlink" id="Layer_1" viewBox="0 0 1000 1000">
  <style>
    .st15,.st16{fill:#fff6ff}.st16{clip-path:url(#SVGID_5_)}.st19,.st22{opacity:.6;fill:#f3f3f4}.st22{opacity:.5}
  </style>
  <path fill="#a6def2" d="M374.6 203.7L228 845.6c-4.8 21.2 46 50.9 113.6 66.4 67.6 15.4 126.3 10.8 131.2-10.4l146.6-641.9-244.8-56z"/>
  <path fill="#c8e9f6" d="M619.4 259.7c-4.8 21.2-63.6 25.9-131.2 10.4-67.6-15.4-118.5-45.2-113.6-66.4 4.8-21.2 63.6-25.9 131.2-10.5 67.5 15.5 118.4 45.3 113.6 66.5z"/>
  <path fill="#84cfeb" d="M601 255.5c-4 17.4-53.8 20.8-111.2 7.7-57.5-13.1-100.8-37.9-96.9-55.3 4-17.4 53.8-20.9 111.3-7.7 57.4 13.1 100.8 37.9 96.8 55.3z"/>
  <linearGradient id="SVGID_1_" x1="483.9" x2="483.9" y1="924.7" y2="377.8" gradientTransform="rotate(12.9 720.5 315.7) scale(.9999)" gradientUnits="userSpaceOnUse">
    <stop offset="0" stop-color="#c6193e"/>
    <stop offset=".2" stop-color="#ce2d3e"/>
    <stop offset=".6" stop-color="#e3603e"/>
    <stop offset="1" stop-color="#ffa33e"/>
  </linearGradient>
  <path fill="url(#SVGID_1_)" d="M377.1 300.9L262.2 804c-3.8 16.6 37.4 40.2 92 52.7s102 9.1 105.8-7.5l114.9-503.1-197.8-45.2z"/>
  <path fill="#ffb15f" d="M574.9 346.1c-3.8 16.6-51.2 20-105.8 7.5-54.6-12.5-95.8-36.1-92-52.7 3.8-16.6 51.2-20 105.8-7.5 54.6 12.5 95.8 36.1 92 52.7z"/>
  <path fill="#425355" d="M428.9 317.8c-.1 1.9-4.3 3.3-9.3 3-5-.3-9-2.1-8.9-4.1l4.2-71.8c5.5 2.7 11.5 5.3 17.8 7.8l-3.8 65.1z" opacity=".7"/>
  <path fill="#2a4146" d="M433.8 78c5 .3 9 2.1 8.9 4.1l-5.9 101.3-.5 8-3.1 53.2a182 182 0 0 1-17.7-8.9l2.5-43 .5-9 6-102.6c.1-2 4.2-3.4 9.3-3.1z"/>
  <path fill="#62868e" d="M424.4 81c-.1 1.9 3.9 3.8 8.9 4.1 5 .3 9.2-1 9.3-3 .1-2-3.9-3.8-8.9-4.1-5-.3-9.1 1.1-9.3 3z"/>
  <g>
    <path fill="#b8d661" d="M438.4 327.6c-.6 1.9 2.8 4.6 7.6 6.1s9.2 1.3 9.8-.6l20.9-65.9c-6-1.6-11.9-3.2-17.5-5l-20.8 65.4z" opacity=".6"/>
    <path fill="#81b738" d="M527.2 108.1c.6-1.9-2.8-4.6-7.6-6.1s-9.2-1.2-9.8.6l-48.5 152.8c5.6 1.8 11.4 3.6 17.5 5.1l48.4-152.4z"/>
    <path fill="#5d9300" d="M509.9 102.6c-.6 1.9 2.8 4.6 7.6 6.1s9.2 1.3 9.8-.6c.6-1.9-2.8-4.6-7.6-6.1-4.9-1.5-9.2-1.3-9.8.6z"/>
  </g>
  <g>
    <defs>
      <path id="SVGID_2_" d="M604.8 403.5l107.3 5.7 60.4-135-24.5-58.7-18.1-93.7-133.7-35.9s8.9 126.6 12.2 165.6c1.3.6 10.7 2.7 11.4 3.7 0 26.9-14.5 146.5-15 148.3z"/>
    </defs>
    <clipPath id="SVGID_3_">
      <use overflow="visible" xlink:href="#SVGID_2_"/>
    </clipPath>
    <g clip-path="url(#SVGID_3_)">
      <path fill="#ffd629" d="M690.6 156.4a125.5 125.5 0 1 1-157.8 195.4 125.5 125.5 0 0 1 157.8-195.4z"/>
      <path fill="#ffee6e" d="M683 165.9a113.4 113.4 0 1 1-142.5 176.4A113.4 113.4 0 0 1 683 166z"/>
      <defs>
        <path id="SVGID_4_" d="M683 165.9a113.4 113.4 0 1 1-142.5 176.4A113.4 113.4 0 0 1 683 166z"/>
      </defs>
      <clipPath id="SVGID_5_">
        <use overflow="visible" xlink:href="#SVGID_4_"/>
      </clipPath>
      <g clip-path="url(#SVGID_5_)">
        <path d="M733.6 345.5l-10.6-7.4c-6.6-4.8-16.3-11.5-27.6-19.9-5.7-4.1-11.7-8.9-18.3-13.4l-20.7-14.5c-14.3-10.1-29.4-21.2-44.5-32.2l-22.5-16.7-21.6-16.3c-14-10.6-26.7-20.9-37.8-29.5-11.1-8.6-20-16.2-26.4-21.3l-9.9-8.3 10.9 7c6.8 4.6 16.7 10.9 28.2 18.9 11.5 8 25.1 17.2 39.4 27.4l22 15.8 22.5 16.4c15.1 11.2 30.1 22.4 44.1 33.1l20 15.5c6.3 4.9 12 10 17.4 14.5 10.8 9 19.5 16.9 25.7 22.2l9.7 8.7z" class="st15"/>
        <path d="M523.9 375.5l7.4-10.6c4.8-6.6 11.5-16.3 19.9-27.5 4.1-5.7 8.9-11.6 13.4-18.3l14.5-20.7c10.1-14.3 21.2-29.4 32.2-44.4 11.1-15 22.2-30.2 32.8-44.2a1530 1530 0 0 1 29.5-37.9c8.7-11 16.4-19.9 21.6-26.3l8.4-9.8-7.1 10.8c-4.6 6.8-11 16.6-19.1 28L650.1 214c-10.1 14.4-21 29.6-32 44.7-11.2 15-22.4 30.1-33.2 44l-15.6 20c-4.9 6.4-10 12.1-14.4 17.5-9 10.8-16.9 19.4-22.3 25.6l-8.7 9.7z" class="st15"/>
        <path d="M465.6 276.8l12.7-2.3c8.1-1.3 19.7-3.4 33.6-5.4 6.9-1.1 14.5-1.9 22.4-3.5l24.9-4.4c17.3-2.9 35.7-5.8 54.2-8.6s37-5.7 54.4-8c17.4-2.4 33.6-4.5 47.6-6 14-1.6 25.7-2.5 33.8-3.3l12.8-1-12.6 2.6c-8.1 1.5-19.5 3.9-33.4 6.3l-47.2 8.6c-17.3 3.1-35.8 6-54.3 9-18.6 2.7-37.2 5.4-54.6 7.7l-25.2 3.1c-8 1.1-15.6 1.5-22.6 2.1-14 1.2-25.7 1.8-33.9 2.4l-12.6.7z" class="st15"/>
      </g>
      <path d="M600.6 267.8c-6-7.7-8.8-17.3-2.7-24.9a17.8 17.8 0 0 1 27.6 22.3c-6.1 7.6-20.3 8.4-24.9 2.6z" class="st16"/>
      <path d="M704.9 329.3A121 121 0 0 0 688.5 159a121 121 0 0 0-169.9 19.8 121 121 0 0 0 16.5 170.3 120.9 120.9 0 0 0 169.8-19.8zm-188-58.2s-13.9-11.8-5.9-41.6 23-33.5 23-33.5c1.3-28.5 45.3-48.4 68.2-31.9 17.4-23.4 66-13.7 67.8 17.9 0 0 21.2-4.4 36.7 22.9 15.6 27.3 1 37.1 1 37.1s12.8 9 9.1 36.9c-3.7 27.9-25.2 33-25.2 33s5.4 18.1-25.5 34.8c-30.9 16.7-36.6 7.6-36.6 7.6s-11.6 13.9-42.9 6.1C555.3 352.6 554 338 554 338s-12.7.5-30.7-22.3-6.4-44.6-6.4-44.6z" class="st16"/>
    </g>
  </g>
  <g opacity=".3">
    <path fill="#f3f3f4" d="M514.1 499a24 24 0 0 1 .7 33.8l-23.4 25.8c-9.1 10-24.2 11.2-33.7 2.6l-29.2-26.5a24 24 0 0 1-.7-33.8l23.4-25.8c9.1-10 24.2-11.2 33.7-2.6l29.2 26.5z" opacity=".3"/>
    <path d="M437.2 743.4c-12 4.5-25.6-2.2-30.4-14.9l-12.2-32.6a24 24 0 0 1 13.2-31.1l37-13.8c12-4.5 25.6 2.2 30.4 14.9l12.2 32.6a23.9 23.9 0 0 1-13.2 31.1l-37 13.8z" class="st19"/>
    <path fill="#f3f3f4" d="M337.4 649.9a23.8 23.8 0 0 1 33.6-3.4l27.5 21.3a24 24 0 0 1 5.2 33.4l-24.2 31.2a23.9 23.9 0 0 1-33.7 3.3l-27.5-21.3a24 24 0 0 1-5.2-33.4l24.3-31.1z" opacity=".4"/>
    <path fill="#f3f3f4" d="M429 703.2a24 24 0 0 1 3 33.7l-21.6 27.3C402 774.8 387 777 377 769l-31-24.5a24 24 0 0 1-3-33.7l21.6-27.3a24 24 0 0 1 33.5-4.9l30.9 24.6z" opacity=".7"/>
    <path d="M371.5 800.1a23.9 23.9 0 0 1-23.4 24.4l-34.8 1.8a24 24 0 0 1-25.7-22l-2-39.4a23.9 23.9 0 0 1 23.4-24.4l34.8-1.7a24 24 0 0 1 25.7 22l2 39.3z" class="st19"/>
    <path d="M437.4 633.4a24 24 0 0 1-13.8-30.9l11.6-32.8a23.9 23.9 0 0 1 30.1-15.4l37.2 13.1a24 24 0 0 1 13.7 30.9l-11.6 32.8a23.9 23.9 0 0 1-30.1 15.4l-37.1-13.1z" class="st22"/>
    <path d="M417.4 845.5a24 24 0 0 1-33.6-3.6l-22.6-26.4a24 24 0 0 1 1.7-33.8l30-25.6c9.8-8.4 24.8-6.7 33.6 3.6l22.6 26.5a24 24 0 0 1-1.7 33.8l-30 25.5z" class="st19"/>
    <path fill="#f3f3f4" d="M432.4 606.6c2.3 12.6-6.7 24.8-20 27.2l-34.2 6.2a24 24 0 0 1-28.3-18.5l-7-38.9c-2.3-12.6 6.7-24.8 20-27.2l34.2-6.2a24 24 0 0 1 28.3 18.5l7 38.9z" opacity=".8"/>
    <path d="M451.2 474.6c-12 4.5-25.6-2.2-30.4-14.9l-12.2-32.6c-4.7-12.7 1.1-26.7 13.2-31.1l37-13.8c12-4.5 25.6 2.2 30.4 14.9l12.2 32.6a23.9 23.9 0 0 1-13.2 31.1l-37 13.8z" class="st19"/>
    <path d="M386.1 540.2c-12 4.5-25.6-2.2-30.4-14.9l-12.2-32.6c-4.7-12.7 1.2-26.7 13.2-31.1l37-13.8c12-4.5 25.6 2.2 30.4 14.9l12.2 32.6c4.7 12.7-1.1 26.7-13.2 31.1l-37 13.8z" class="st22"/>
  </g>
</svg>
