<svg xmlns="http://www.w3.org/2000/svg" id="Layer_1" version="1" viewBox="0 0 1000 1000">
  <style>
    .st1{fill:#fff1ae}.st2{fill:#f4a45b}.st3{fill:#fff}.st4{fill:#e24b4b}.st5{fill:#bc3f3f}.st7{fill:#fff9de}
  </style>
  <path fill="#6ea6af" d="M795 289c-14 3-27 11-41 17 2-23 1-63-8-80-9 8-28 37-39 42-13 5-22-21-35-30-13-10-28-24-41-13-16 14-10 33-38 23-26-9-25-10-49 1-21 10-32-4-52-5-15-1-29 8-44 9-16 1-30-5-45-3l-69 15c-22 3-29-3-44-20-11 18-14 61-16 82-22-18-43-39-65-56 19 31 39 61 55 95 11 23 29 69 50 83 35 22 89 17 131 18 47 0 90 2 136-11l24-6 190-161z"/>
  <path d="M520 152c7-20-17-50-35-57-14-6-34-8-45 6-13 15 0 39 19 40-5-18-33-16-43-2s-9 36-1 49c16 24 74 32 90-3l15-33z" class="st1"/>
  <path d="M519 152c3-7 1-14-2-21a78 78 0 0 0-28-31c-6-3-13-5-19-6-7-1-14 0-20 2-5 3-11 8-13 14-1 7 0 14 4 20 4 5 11 9 18 9l-2 2c-1-5-4-8-9-10-4-2-9-2-14-1-4 1-9 3-12 6l-4 5-3 7c-6 18-2 40 16 48 16 9 38 11 55 4l12-8 8-13c5-8 9-18 13-27zm4 1c-8 9-10 18-13 28l-8 14c-3 4-8 8-13 10-9 6-20 8-31 7-11 0-22-3-31-8l-13-11c-4-5-6-10-7-16-3-10-2-21 2-32l3-7 6-6c5-3 10-5 16-6 5-1 10 0 15 2 6 2 10 7 11 12v2h-1c-16-1-29-17-26-33l5-10 9-8c7-5 16-5 24-4l11 3 10 5c7 4 12 10 16 16 5 6 8 13 11 20 2 6 5 14 3 21l1 1z" class="st2"/>
  <path d="M363 207c-15 2-42-3-44-20s14-18 26-16c-38-20-1-80 37-54 21 14 34 96-12 87l-7 3z" class="st1"/>
  <path d="M363 208h-23c-7-2-16-5-21-12-3-4-4-8-4-13 0-4 2-9 6-12s9-4 13-4l12 2-2 5c-9-5-15-14-16-24-1-9 2-19 7-26 5-8 14-15 24-16 10-2 20 1 28 7 8 8 11 17 14 26s4 18 4 28-2 20-8 28c-3 4-7 7-12 8-5 2-10 1-15 0h1l-8 3zm0-1l7-4v-1l1 1c4 0 8 0 12-2 4-1 7-4 9-7 4-7 5-16 5-25 0-8-2-17-4-25-3-8-6-17-11-22-6-5-15-9-23-8-8 0-16 5-22 12-5 7-8 16-6 24 1 9 8 16 15 19l19 8-21-3c-6-1-14 0-19 3-4 2-4 11-1 15 3 6 10 9 17 11s14 4 22 4z" class="st2"/>
  <path d="M526 192c-36 0-27-65-7-82 10-7 27-13 40-11 17 5 15 20 17 35 4-40 65-39 60 5-4 31-33 60-65 49l-45 4z" class="st1"/>
  <path d="M526 196c-8 0-16-6-20-13-4-6-6-15-7-23-1-16 2-32 12-46 5-7 13-11 20-14 8-2 16-4 24-3s16 4 19 12l3 21h-3c1-9 5-15 11-21s14-8 23-9c9 0 18 4 24 11s9 17 8 25c-1 17-9 34-22 45-6 6-14 10-23 12-8 2-17 0-25-3h1l-23 2c-7 1-15-5-22 4zm0-5l22-2 23-3h1c15 4 30-1 40-11 11-10 18-24 20-39 0-7-1-14-6-19-4-6-11-9-18-9-7-1-15 2-20 6-6 5-10 12-11 20l-1 13-1-13c-1-8-1-16-4-22-2-7-9-11-16-11s-15 2-21 5c-7 3-13 7-17 12-8 12-12 26-13 41-1 7 0 15 3 22l8 8 11 2z" class="st2"/>
  <path d="M682 255c16-11 22-49 19-66-4-19-18-28-37-29-13-1-39 9-35 26 3 16 20 6 19-6-1-14-19-20-31-19-24 3-45 38-44 61 1 27 77 81 88 41l21-8z" class="st1"/>
  <path d="M682 254c8-5 11-14 14-23a118 118 0 0 0 2-40v-2l-1-1-1-3-3-6c-4-7-11-11-19-14l-13-2a43 43 0 0 0-24 9c-3 2-6 6-6 10-1 4 0 9 3 11 4 1 8-2 10-5 3-4 3-8 2-12-2-4-5-7-9-9-8-4-17-5-25-2s-14 9-20 16c-5 7-9 15-12 23-3 9-4 18 0 24a103 103 0 0 0 61 47c4 0 8 0 12-2s6-6 8-10v-1l21-8zm0 1l-20 9v-1c-1 5-3 9-7 12-5 3-10 4-15 4-10 0-19-3-27-8-9-4-17-10-24-16-7-7-13-14-18-23l-2-8v-8c0-5 1-10 3-14 3-9 8-18 14-25 7-8 14-14 24-17s20-1 29 3c4 3 8 7 9 12 2 4 1 10-1 14l-6 5c-2 1-5 2-8 1l-5-6-1-8c1-5 4-9 7-13 4-3 8-6 13-7 4-2 9-4 14-4 5-1 10 0 15 1 9 3 19 9 24 18l3 7 1 3v19c-1 9-3 18-7 27-3 8-7 18-15 23z" class="st2"/>
  <path d="M569 276c42-1 42-69 26-92-17-21-50-32-72-9-17 17-11 43 16 41 5-21-29-36-45-31-23 7-29 36-26 55 3 25 16 39 39 46 12 3 32 11 42 1l20-11z" class="st1"/>
  <path d="M569 278c5 0 10-3 15-6l10-11c5-9 7-20 8-30 0-10-1-21-4-31-1-4-3-9-6-13l-10-11c-8-6-17-11-27-12s-21 3-29 9c-7 7-13 18-10 28 1 4 4 9 8 11 5 2 10 2 15 2l-2 2c2-9-5-17-13-22-8-4-18-7-26-6s-16 8-20 16a61 61 0 0 0-5 40l4 13c4 8 10 15 18 20l13 6 14 4c9 3 19 5 26-1l1 1 20-9zm0-1l-19 11c-3 4-9 6-14 6l-16-2-14-3-15-6c-9-5-17-13-22-23l-5-15-1-15c0-11 2-21 8-31 5-9 14-17 26-18 11-1 21 2 30 8l11 11c3 5 4 11 3 16l-1 2h-1c-6 0-12 0-17-3s-9-8-10-14c-2-11 4-22 12-30 8-7 19-12 30-11a57 57 0 0 1 44 23l7 15c3 11 3 22 3 33-1 11-5 22-11 31-6 10-17 16-28 15z" class="st2"/>
  <path d="M360 269c-30 2-33-50 1-47v1c-16-13-10-41 12-49 11-5 24-3 32 4 4 4 13 32 0 26-10-5 0-23 7-27 8-5 25 0 32 3 16 5 47 33 22 50 17-3 25 23 21 38-5 17-27 27-43 31-30 8-61 7-84-12v-18z" class="st1"/>
  <path d="M359 269c-6 1-13-1-18-6-4-5-7-12-7-19 0-6 2-14 7-19 6-5 13-7 20-6h3v11l-5-4c-7-6-11-15-11-24 1-9 5-17 11-23l11-8 12-3c9 0 18 3 24 9l6 12c1 4 2 8 1 13 0 1 0 2-2 3l-4 1-6-4c-3-4-1-9 0-13l7-11c3-3 8-4 12-4 9 0 17 1 25 4h-1l16 8 13 13c3 5 6 11 6 18-1 7-6 13-11 16l-3-7c5 0 11 1 15 4s6 7 8 11c4 8 5 17 3 26-2 10-8 17-15 22-7 6-15 9-23 12l-5 2h-2l-1 1h-4a172 172 0 0 1-37 3c-16-1-33-7-45-18l-1-1v-1l1-18zm1 1l1 18v-1c12 9 28 14 44 14a115 115 0 0 0 35-4l3-1 1-1h1l6-2c7-3 14-6 20-11 6-4 11-10 12-17 1-6 1-14-2-21-3-6-8-11-14-10l-19 3 16-10c4-3 8-6 8-11 1-4-1-9-4-13a55 55 0 0 0-25-21c-7-3-15-5-23-5-8-1-14 6-17 13-1 3-2 8 0 10 1 2 3 3 5 3 1 0 2 0 2-2l-2-11-5-10c-6-5-13-6-20-6-7 1-14 5-19 10s-8 11-8 18c-1 7 2 14 7 19l-5 2v-1l3 3c-6 0-12 1-16 4-4 4-6 10-6 15-1 6 1 13 5 18 3 4 9 8 16 8z" class="st2"/>
  <path d="M352 281c16-32 15-64-16-82-15-8-41-13-59-4-25 14-4 37 13 47-29-14-49 15-32 39 11 15 55 25 68 7l26-7z" class="st1"/>
  <path d="M352 281c6-17 10-35 5-51-5-17-19-28-36-34-8-2-16-4-25-4s-18 2-24 8c-3 3-5 7-5 11l5 12c5 7 12 12 20 17l-4 5c-10-5-22-4-28 5s-4 21 2 29c3 4 9 7 14 9 5 3 11 4 16 5 6 1 12 2 18 1 5-1 11-3 14-7l1-1 27-5zm0 0c-8 3-17 7-26 9h2c-4 5-11 9-17 10-7 1-13 2-20 1-6-1-12-2-18-5s-12-5-17-11-8-12-8-19c-1-7 1-15 5-21 5-6 12-9 19-10s14 1 19 5l-3 5c-8-5-14-12-19-20-3-4-4-9-5-14 0-5 3-9 6-13 7-6 17-9 26-10l27 3c9 2 18 6 25 12 8 7 13 15 15 25 5 19-1 38-11 53z" class="st2"/>
  <path d="M314 373c-26-10-69-73-39-100 19-17 70 6 58 31-7 18-22-4-21-15 1-16 13-26 27-26 30-1 65 52 32 74 30-5 13 37-3 47-12 8-40 12-50 0l-4-11z" class="st1"/>
  <path d="M313 373c-7-3-14-8-20-13a118 118 0 0 1-27-41c-3-8-5-16-5-25 1-9 4-18 11-24 8-6 18-6 26-5s16 4 23 9c7 4 13 11 15 20 1 4 0 8-2 12l-4 5c-2 2-5 2-7 0-4-2-7-5-9-9l-4-12c0-9 4-17 11-23 6-6 15-8 24-7s17 6 23 11c7 6 12 13 16 21 3 7 6 16 4 26-1 9-7 17-14 22l-4-8h9c3 1 7 2 9 5 5 6 4 13 3 18-3 10-8 20-16 27-4 4-9 6-14 8l-15 3c-5 1-10 0-15-1s-10-4-13-8h-1l-4-11zm1-1l5 11c3 3 8 5 12 6h15c9-2 18-5 25-11 6-7 10-16 12-25 0-4 0-8-2-10-1-2-5-3-9-2l-22 4 19-12c6-4 10-10 11-17 1-6-1-14-4-21-3-6-7-13-13-18-5-5-12-9-19-11-7-1-15 1-20 5-6 4-10 11-10 19 0 4 1 7 3 11l7 8c3 2 6-1 8-4 1-4 2-7 1-11-9-29-64-34-64 1-2 15 5 30 13 43l14 19c5 6 11 12 18 15z" class="st2"/>
  <path d="M425 385c-22 6-53-12-60-32-11-29 28-57 47-34-24-3-36-35-12-49 22-13 47-5 65 10 17 15 30 36 27 60 0 13-9 51-25 47l-42-2z" class="st1"/>
  <path d="M425 385c-13 4-27 1-38-5-12-6-23-15-27-29-4-15 4-30 15-38 6-3 13-6 20-5 8 0 14 4 19 10l2 4-4-1c-12-2-21-11-25-22-2-5-2-11 0-17 2-5 6-10 11-13 10-7 22-9 33-8 12 2 23 6 32 13s18 15 24 25 10 21 10 33a93 93 0 0 1-14 49c-1 3-3 5-6 7s-7 3-10 2l-42-5zm0 0h43c4 1 7-3 10-7l6-15a73 73 0 0 0-25-83c-9-6-19-11-29-13s-21 0-30 5c-5 2-8 6-10 11s-2 10-1 15c3 10 13 19 23 19l-2 3c-4-4-9-7-15-7s-11 3-16 6c-9 7-15 19-12 30 2 11 12 21 22 27 11 7 23 9 36 9z" class="st2"/>
  <path d="M553 368c49-10 45-62-7-59 34-1 25-49 9-64-22-20-75 0-52 31 10 15 24 4 17-10-6-12-25-13-36-12-27 2-45 30-35 55 3 7 10 12 15 16-12-1-11 17-9 26 4 15 13 24 27 29 8 2 37 9 39 4l32-16z" class="st1"/>
  <path d="M553 368c8-2 17-5 23-11 7-6 11-15 10-23s-8-15-15-18c-8-4-16-4-25-3v-8c7 0 12-2 16-7 3-5 4-12 4-18 0-7-2-14-4-20-3-6-6-12-11-16-11-8-27-7-39-1-6 3-12 8-13 15s2 13 7 18c2 3 4 5 7 5s5-2 6-4c2-6-2-13-7-16s-12-4-19-4l-10 1-9 3c-12 4-21 16-23 28-1 7 0 13 3 19 2 5 8 10 13 14l11 9-15-1c-2-1-2 0-3 1l-2 7 1 8v4l1 4c2 6 5 10 9 14s9 7 14 9a223 223 0 0 0 34 7l4-1 32-15zm0 1l-31 16 1-1c-2 3-4 3-6 3h-5l-10 1-21-3v-1c-6-2-12-6-17-10s-9-10-11-17l-2-4-1-5v-10c0-4 0-7 2-11l5-5 7-1-3 8a40 40 0 0 1-18-40 45 45 0 0 1 39-38h11c7 0 15 1 22 6 7 4 11 13 8 21-1 4-6 8-10 7-5 0-8-3-10-6-4-6-8-14-7-21 2-8 8-14 14-17 13-7 30-8 43 0 6 4 11 11 14 17 3 7 5 14 6 22 0 7-1 15-5 22-3 4-6 7-10 8l-12 3v-7c9-1 19 0 28 5 8 4 15 13 15 23 1 9-5 18-12 24s-15 9-24 11z" class="st2"/>
  <path d="M599 375c-18 3-27-15-28-31-15 13-39-10-33-28 5-16 35-20 44-8a29 29 0 0 1 10-51c27-7 38 17 38 39 41-33 56 80 4 87l-35-8z" class="st1"/>
  <path d="M599 376c-4 1-8 0-12-1s-7-4-10-7c-5-7-8-15-9-24l5 3c-4 3-9 5-15 4-5-1-10-3-13-6-8-7-13-17-11-28l1-4 2-3 6-6c4-3 9-4 14-5s10-1 14 1c5 1 10 3 13 7l9 13-12-11c-8-7-12-19-10-30s10-20 21-24c5-2 11-2 17-1s11 5 15 10c7 9 10 21 10 32l-7-3c5-4 11-8 18-7 8 0 14 5 17 10 7 11 9 23 9 34 1 12-2 24-8 35-3 5-6 10-11 13-5 4-11 6-17 7h-1l-35-9zm0 0l36 5-1-1c11-2 19-9 23-18 5-10 6-21 6-31 0-11-2-22-8-30-3-4-6-7-10-7-4-1-9 2-13 5l-6 5v-8c0-10-2-21-7-29-3-4-7-7-11-8h-15a27 27 0 0 0-10 48l-2 2c-6-6-15-6-23-4s-16 6-17 14c-1 7 2 15 8 20 6 6 14 8 20 3l3-4v6c0 7 3 15 7 21l8 9 12 3v-1z" class="st2"/>
  <g>
    <path d="M702 355c-59 13-115-103-34-106-4-18 23-24 36-19 18 7 14 25 14 42 48-35 65 58 14 80l-30 3z" class="st1"/>
    <path d="M702 355c-15 3-30-1-43-9-12-9-23-20-29-34s-9-31-1-45c4-7 10-13 17-15 7-3 15-4 22-5l-1 2c-1-4-1-9 2-13l11-7c7-3 16-4 25-2 4 2 8 4 11 8 3 3 4 8 5 12 2 9 1 17 1 24l-6-3 16-8c7-1 14 0 20 4 11 8 14 21 15 33s-2 24-8 34-16 18-27 22v-1l-30 3zm0-1l30-3h-1c10-5 18-13 22-23 5-10 7-20 6-31-1-10-5-21-12-26s-18-2-26 4l-7 4 1-8v-23c-1-7-5-13-12-16-6-2-15-2-22 0-4 1-7 3-9 6-3 3-3 7-3 10l1 2h-2c-7 0-14 1-20 5-7 3-12 8-14 14-6 13-2 27 3 40 6 13 14 25 25 34 5 4 11 8 18 10 7 3 15 3 22 1z" class="st2"/>
  </g>
  <g>
    <path d="M616 359c10-16 18-38 26-55 14 17 29 33 42 51l2-4c2 111 6 403-6 533l-76 8c13-155 12-448 12-533z" class="st3"/>
    <path d="M686 351c9-22 24-42 36-64 13 14 24 35 37 52 9-20 23-36 35-52-5 24-8 48-11 73-10 93-38 517-38 517l-65 7c12-130 8-422 6-533zM384 387s32-52 37-69c19 13 28 40 45 57 1 83 5 377-6 533l-56 6-10-90c-11-81-9-161-22-237-7-45-8-88-18-130l-15-69c-6-21-20-42-22-62 18 13 67 61 67 61z" class="st4"/>
    <path d="M466 375l2 2c6-21 11-42 20-61 13 16 24 39 39 54l1-2c2 85 9 378-2 533l-66 7c11-156 8-450 6-533z" class="st3"/>
    <path d="M528 368c14-14 30-45 36-62 18 16 35 37 50 57l2-4c1 85 1 378-12 533l-77 9c10-155 3-448 1-533z" class="st4"/>
  </g>
  <g>
    <path d="M471 617c0 29 48 50 108 46 59-3 107-30 106-60-1-29-49-49-108-45-58 3-106 30-106 59z" class="st1"/>
    <path d="M472 617c0 11 7 20 16 26 9 5 19 9 29 12a238 238 0 0 0 126-8c9-4 19-9 27-16 7-7 13-17 13-27s-7-18-15-24c-9-6-19-10-29-13a219 219 0 0 0-124 7c-10 4-20 9-28 16-8 6-15 16-15 27zm-1 0c0-12 7-21 14-29 8-8 18-13 27-18a181 181 0 0 1 129-10c11 3 21 8 30 15 9 6 17 17 16 29 0 12-8 22-16 29s-18 12-27 17c-20 9-42 14-63 17-22 1-45 0-65-7-11-4-21-9-29-16-9-6-16-16-16-27z" class="st2"/>
  </g>
  <g>
    <path d="M319 322c16 33 24 66 32 104 18 85 28 175 37 268 7 68 17 142 15 213l-29-27c-10-195-47-417-65-513 3-15 4-31 10-45zM269 365l-1-14c19 79 66 296 77 503l-24-23-1-14-1-35c-6-87-20-166-36-247-10-48-26-95-35-141-10-45-33-84-43-126 24 13 58 68 64 97z" class="st5"/>
    <path fill="#9ddbea" d="M269 294c19 25 29 52 38 82l2-10c18 97 55 319 65 514l-29-26c-11-207-58-424-77-503l1-57z"/>
  </g>
  <path d="M458 206c-2 4-10 4-18 0s-13-10-10-15c2-4 10-4 18 0s12 11 10 15z" class="st7"/>
  <ellipse cx="297" cy="280" class="st7" rx="10" ry="2"/>
  <path d="M323 209c5 4 6 11 3 15-4 4-11 3-16-2s-6-12-3-15c4-4 11-3 16 2zM578 187c0 6-5 10-11 10s-11-4-11-10 5-10 11-10 11 5 11 10zM587 215c0 2-2 4-4 4-3 0-5-2-5-4 0-3 2-5 5-5 2 0 4 2 4 5zM693 194c-1 2-8 1-14-3-7-4-11-10-10-12 2-2 9-1 15 3 7 4 11 10 9 12zM556 120c0 2-5 4-12 4-6 0-12-2-12-4s6-4 12-4c7 0 12 2 12 4z" class="st7"/>
</svg>
