<?xml version="1.0" encoding="utf-8"?>
<!-- Generator: Adobe Illustrator 22.0.0, SVG Export Plug-In . SVG Version: 6.00 Build 0)  -->
<svg version="1.1" id="Layer_1" xmlns="http://www.w3.org/2000/svg" xmlns:xlink="http://www.w3.org/1999/xlink" x="0px" y="0px"
	 viewBox="0 0 1080 1080" style="enable-background:new 0 0 1080 1080;" xml:space="preserve">
<style type="text/css">
	.st0{fill:#FFCE00;}
	.st1{fill:#562912;}
	.st2{fill:#CC342F;}
</style>
<g>
	<path class="st0" d="M1011,540.2c0,259.8-210.6,470.4-470.4,470.4c-259.8,0-470.4-210.6-470.4-470.4
		c0-259.8,210.6-470.4,470.4-470.4C800.4,69.8,1011,280.4,1011,540.2z"/>
	<g>
		<g>
			<g>
				<path class="st1" d="M851.6,479.6c4.8,3,11.3-0.4,11.3-6.1c0-0.1,0-0.1,0-0.1c0-34.3-27.8-62.1-62.1-62.1
					c-34.3,0-62.1,27.8-62.1,62.1c0,0,0,0.1,0,0.1c0,5.7,6.4,9.1,11.3,6.1c14.8-9.1,32.2-14.4,50.8-14.4
					C819.4,465.2,836.8,470.5,851.6,479.6z"/>
			</g>
		</g>
		<g>
			<g>
				<path class="st1" d="M331.3,479.6c4.9,3,11.3-0.4,11.3-6.1c0-0.1,0-0.1,0-0.1c0-34.3-27.8-62.1-62.2-62.1
					c-34.3,0-62.1,27.8-62.1,62.1c0,0,0,0.1,0,0.1c0,5.7,6.4,9.1,11.3,6.1c14.8-9.1,32.2-14.4,50.8-14.4
					C299.1,465.2,316.5,470.5,331.3,479.6z"/>
			</g>
		</g>
	</g>
	<g>
		<g>
			<path class="st1" d="M300.1,611.5c-15,5.1-23.6,21.5-17.7,36.2c35,88.7,137.7,163.3,258.3,163.3c120.5,0,223.2-74.7,258.3-163.3
				c5.8-14.8-2.7-31.1-17.7-36.2C635.8,562.3,445.4,562.3,300.1,611.5z"/>
		</g>
	</g>
	<g>
		<g>
			<path class="st2" d="M411.2,780.7c38.5,19,82.6,30.3,129.4,30.3c46.8,0,90.8-11.4,129.4-30.3c-35.7-26.9-80.5-43-129.4-43
				C491.7,737.7,446.9,753.9,411.2,780.7z"/>
		</g>
	</g>
</g>
</svg>
