<?xml version="1.0" encoding="utf-8"?>
<!-- Generator: Adobe Illustrator 22.0.0, SVG Export Plug-In . SVG Version: 6.00 Build 0)  -->
<svg version="1.1" id="Layer_1" xmlns="http://www.w3.org/2000/svg" xmlns:xlink="http://www.w3.org/1999/xlink" x="0px" y="0px"
	 viewBox="0 0 1080 1080" style="enable-background:new 0 0 1080 1080;" xml:space="preserve">
<style type="text/css">
	.st0{fill:#D14844;}
	.st1{fill:#BB8738;}
	.st2{fill:#FAB44B;}
	.st3{fill:#F1F2F2;}
	.st4{fill:#D1D3D4;}
	.st5{fill:#F38A86;}
	.st6{fill:#333333;}
</style>
<g>
	<g>
		<g>
			<path class="st0" d="M494.5,448.3c-5.1,0.2-9.7-3.3-10.9-8.4c-24-108.4-40-256.6-13.1-347.3c1.7-5.7,7.7-9,13.4-7.3
				c5.7,1.7,8.9,7.7,7.3,13.4c-21.5,72.6-16.4,201.5,13.4,336.5c1.3,5.8-2.4,11.5-8.2,12.8C495.9,448.2,495.2,448.3,494.5,448.3z"/>
		</g>
	</g>
	<g>
		<g>
			<polygon class="st1" points="88.7,118.5 167.4,211.7 327.2,171.9 245.6,73.3 			"/>
		</g>
		<g>
			<path class="st2" d="M242.1,64.2c-1.7,0.2-148.5,45.2-148.5,45.2s-16.9,5.3-23.1,12.9c-6.1,7.6,1.5,10.5,1.5,10.5l20,130.8
				l162-40.6L227.5,90.5l2.4-0.6l15.8-16.6C248.4,66.9,243.8,64,242.1,64.2z"/>
		</g>
		<g>
			<path class="st3" d="M223.9,83.7L68.4,129.2c0.5,1.4,1.5,2.3,2.3,2.9l1.3,0.7l155-44.6L223.9,83.7z"/>
		</g>
		<g>
			<path class="st1" d="M242.1,64.2c0,0-18.2,13.9-19.6,16.6c-0.7,1.2-1.5,7.6,4.5,7.3l1.8-0.5l15.8-13.2l2.1-2
				C248.4,67.2,243.8,64,242.1,64.2z"/>
		</g>
		<g>
			<path class="st3" d="M321.9,169.5l-77.4-95.2c1.2-6.2-0.4-7.8-2.2-7.9c-1.9-0.1-16.5,12.8-18.1,15.5c-1.6,5.5,4.5,4.9,4.5,4.9
				l25.7,127.9C254.5,214.7,312,193.6,321.9,169.5z"/>
		</g>
		<g>
			<path class="st4" d="M264.2,207.3c-0.5,0-0.9-0.3-1.1-0.8L232.7,95.1c-0.2-0.6,0.2-1.2,0.8-1.3c0.6-0.1,1.2,0.2,1.3,0.8
				L265.3,206c0.2,0.6-0.2,1.2-0.8,1.3C264.4,207.3,264.3,207.3,264.2,207.3z"/>
		</g>
		<g>
			<path class="st4" d="M272.3,191.5c-0.5,0-0.9-0.3-1-0.7l-23.5-68.2c-0.2-0.6,0.1-1.2,0.7-1.4c0.6-0.2,1.2,0.1,1.4,0.7l23.5,68.2
				c0.2,0.6-0.1,1.2-0.7,1.4C272.5,191.5,272.4,191.5,272.3,191.5z"/>
		</g>
		<g>
			<path class="st4" d="M289.1,193.4c-0.4,0-0.8-0.2-1-0.6L239,89.3c-0.3-0.5,0-1.2,0.5-1.5c0.5-0.3,1.2,0,1.5,0.5l49.1,103.5
				c0.3,0.5,0,1.2-0.5,1.5C289.4,193.4,289.3,193.4,289.1,193.4z"/>
		</g>
		<g>
			<path class="st4" d="M300.8,182c-0.4,0-0.7-0.2-0.9-0.5l-43.7-71.8c-0.3-0.5-0.1-1.2,0.4-1.5c0.5-0.3,1.2-0.1,1.5,0.4l43.7,71.8
				c0.3,0.5,0.1,1.2-0.4,1.5C301.2,182,301,182,300.8,182z"/>
		</g>
		<g>
			<path class="st4" d="M310.9,175.2c-0.3,0-0.7-0.2-0.9-0.5l-64-90.5c-0.3-0.5-0.2-1.2,0.3-1.5c0.5-0.3,1.2-0.2,1.5,0.3l64,90.5
				c0.3,0.5,0.2,1.2-0.3,1.5C311.4,175.1,311.1,175.2,310.9,175.2z"/>
		</g>
		<g>
			<polygon class="st1" points="254.1,222.9 256,222.5 228.7,86.9 227,88.1 			"/>
		</g>
		<g>
			<polygon class="st1" points="327.2,171.9 329,169.7 246.6,72.4 245.6,73.3 			"/>
		</g>
	</g>
	<g>
		<g>
			<path class="st0" d="M518.3,696.7l-8.2,134.8L538,990.9c0,0-43.6-34.5-73.1,14.8c-24.2,40.3,93.7,4.9,93.7,4.9l-22.2-179.1
				l22.2-122.4L518.3,696.7z"/>
		</g>
	</g>
	<g>
		<g>
			<path class="st0" d="M677.7,696.7l-8.2,134.8l27.9,159.4c0,0-43.6-34.5-73.1,14.8c-24.2,40.3,93.7,4.9,93.7,4.9l-22.2-179.1
				L718,709.1L677.7,696.7z"/>
		</g>
	</g>
	<g>
		<g>
			<path class="st3" d="M677.7,696.7l-4.3,71.2c3.6-1.5,7.2-3,10.6-4.8c6.8,5.2,14.1,9.8,21.7,13.6l12.3-67.8L677.7,696.7z"/>
		</g>
	</g>
	<g>
		<g>
			<path class="st3" d="M513.2,779.2c12.6-3.9,24.6-9.6,35.7-17.1l9.6-53.1l-40.3-12.3L513.2,779.2z"/>
		</g>
	</g>
	<g>
		<path class="st3" d="M483.7,439.9c1.1,5.1,5.8,8.6,10.9,8.4c0.7,0,1.3-0.1,2-0.3c5.8-1.3,9.5-7,8.2-12.8
			c-12.5-56.6-20.6-112.1-24.3-162.8c-7.2,1.3-14.2,3.1-21,5.5C463.7,334.1,472.9,391,483.7,439.9z"/>
	</g>
	<g>
		<g>
			<g>
				<g>
					<g>
						<path class="st5" d="M974,589.4c0-38.7-19.6-72.9-49.4-93.1c3.9-11.5,6-23.7,6-36.5c0-62.7-50.9-113.6-113.6-113.6
							c-12.1,0-23.7,1.9-34.6,5.4c-18.3-55.6-70.5-95.7-132.2-95.7c-47.7,0-89.7,24-114.8,60.5c-11-3.4-22.7-5.3-34.9-5.3
							c-58.4,0-106.8,42.8-115.5,98.8c-66.4,10.5-117.2,68.1-117.2,137.4c0,60.2,38.2,111.4,91.6,130.8
							c19.5,42.8,62.5,72.5,112.6,72.5c28.9,0,55.5-9.9,76.5-26.6c20.2,12.6,44.1,19.9,69.6,19.9c24.7,0,47.8-6.8,67.6-18.7
							c21.5,19.5,50.1,31.3,81.4,31.3c42.6,0,80.1-22,101.7-55.2C927.5,697.8,974,649.1,974,589.4z"/>
					</g>
				</g>
			</g>
		</g>
		<g>
			<g>
				<g>
					<g>
						<path class="st0" d="M767.1,771.8c-30.2,0-59.4-10-83.1-28.3c-20.3,10.2-42.9,15.6-65.8,15.6c-24,0-47.6-5.9-68.6-17.1
							c-22.9,15.5-49.5,23.7-77.5,23.7c-52.1,0-100-29.5-123.6-75.7c-57.5-23.6-95.7-80.2-95.7-142.7c0-36.9,13.3-72.7,37.3-100.6
							c21.5-24.9,50.3-42.3,82.1-49.7c6.4-26.6,21.1-50.8,42-68.9c23.9-20.7,54.5-32.1,86.2-32.1c9.8,0,19.4,1.1,28.9,3.2
							c29.2-36.7,73.6-58.4,120.8-58.4c62,0,117.2,36.8,141.5,92.8c8.3-1.7,16.8-2.5,25.4-2.5c70.9,0,128.7,57.7,128.7,128.7
							c0,10.4-1.2,20.6-3.7,30.7c29.7,24.1,47.1,60.3,47.1,98.9c0,64.6-48.5,118.7-111.8,126.4C851.5,751,810.9,771.8,767.1,771.8z
							 M687.6,706.8l8.3,7.5c19.6,17.7,44.9,27.4,71.3,27.4c36.1,0,69.4-18.1,89.1-48.4l4.1-6.3l7.5-0.5c51.1-3.2,91.1-45.8,91.1-97
							c0-32.3-16-62.5-42.8-80.6l-9.5-6.4l3.7-10.9c3.5-10.2,5.2-20.9,5.2-31.7c0-54.3-44.2-98.5-98.5-98.5c-10.2,0-20.3,1.6-30,4.7
							l-14.2,4.5l-4.7-14.2c-16.8-51.1-64.2-85.4-117.9-85.4c-40.9,0-79.2,20.2-102.4,54l-6.3,9.2l-10.6-3.3
							c-9.8-3.1-20-4.6-30.4-4.6c-50.5,0-92.8,36.2-100.6,86l-1.7,10.8l-10.8,1.7c-60.6,9.6-104.5,61.2-104.5,122.6
							c0,52,32.8,98.9,81.7,116.7l5.9,2.2l2.6,5.7c17.6,38.7,56.4,63.7,98.9,63.7c24.6,0,47.9-8.1,67.2-23.3l8.3-6.6l9,5.6
							c18.5,11.5,39.8,17.6,61.6,17.6c21.1,0,41.8-5.7,59.8-16.5L687.6,706.8z"/>
					</g>
				</g>
			</g>
		</g>
	</g>
	<g>
		<g>
			<path class="st3" d="M891.2,584.8c-1.3-6.3-7.4-10.3-13.7-9c-6.3,1.3-10.3,7.4-9,13.7c11.3,54.2,13.8,96.2,7.4,128.1
				c0.4-0.6,0.9-1.1,1.3-1.7c8.1-1,15.9-2.7,23.4-5.2C906.3,669.8,899.4,624.3,891.2,584.8z"/>
		</g>
	</g>
	<g>
		<g>
			<path class="st0" d="M808,858.1c-5.1,0-9.7-3.3-11.1-8.5c-1.7-6.2,1.9-12.5,8-14.3c55.5-15.5,89.2-38.9,102.9-71.6
				c16.5-39.3,4.4-93.7-38.1-171.1c-3.1-5.6-1-12.6,4.6-15.7c5.6-3.1,12.6-1,15.7,4.6c31.5,57.4,64.5,131,39.2,191.2
				c-16.7,39.6-55.2,67.4-118,84.9C810.1,858,809.1,858.1,808,858.1z"/>
		</g>
	</g>
	<g>
		<g>
			<path class="st6" d="M711.3,535.5c-5.8,0-10.4-4.7-10.4-10.4c0-24.6-20-44.6-44.6-44.6c-24.6,0-44.6,20-44.6,44.6
				c0,5.8-4.7,10.4-10.4,10.4c-5.8,0-10.4-4.7-10.4-10.4c0-36.1,29.3-65.4,65.4-65.4c36.1,0,65.4,29.3,65.4,65.4
				C721.7,530.8,717,535.5,711.3,535.5z"/>
		</g>
	</g>
	<g>
		<g>
			<path class="st6" d="M511.6,535.5c-5.8,0-10.4-4.7-10.4-10.4c0-24.6-20-44.6-44.6-44.6c-24.6,0-44.6,20-44.6,44.6
				c0,5.8-4.7,10.4-10.4,10.4c-5.8,0-10.4-4.7-10.4-10.4c0-36.1,29.3-65.4,65.4-65.4S522,489,522,525
				C522,530.8,517.4,535.5,511.6,535.5z"/>
		</g>
	</g>
	<g>
		<g>
			<path class="st6" d="M260.2,122.6l11.7,20.7c182.6-30.2,369.1-34.8,554.5-13.7l2.5-22.2C638.8,85.8,447.4,90.9,260.2,122.6z"/>
		</g>
	</g>
	<g>
		<g>
			<g>
				<path class="st0" d="M497,74.5c-10.3-1.6-23.5,3.9-28.7,23.9c8.2-0.5,16.5-1,24.7-1.4c0.2-0.2,0.4-0.4,0.5-0.4
					c0.3,0,1.4,0.4,2.7,1.8c1.7,1.9,2.5,4.4,2.2,6.8c-0.8,6.1,3.4,11.8,9.6,12.6c0.6,0.1,1.2,0.1,1.7,0.1c5.4-0.1,10.1-4.1,10.8-9.7
					C522.7,92.5,511.7,76.8,497,74.5z"/>
			</g>
		</g>
	</g>
	<g>
		<g>
			<polygon class="st1" points="814.8,48.5 850.5,165.2 1013,191.5 976.9,68.7 			"/>
		</g>
		<g>
			<path class="st2" d="M977.2,59c-1.6-0.5-154.3-16.9-154.3-16.9s-17.6-1.8-26.3,2.8c-8.6,4.6-2.8,10.3-2.8,10.3l-33.1,128.1
				l164.9,26.4l27.7-132.2l2.4,0.3l21-9C981.9,64,978.8,59.4,977.2,59z"/>
		</g>
		<g>
			<path class="st3" d="M952.8,69.7L792,50.4c-0.1,1.4,0.4,2.7,1,3.6l0.9,1.2l160,19.9L952.8,69.7z"/>
		</g>
		<g>
			<path class="st1" d="M977.2,59c0,0-22.1,5.6-24.5,7.6c-1.1,0.9-4.4,6.4,1.2,8.5l1.8,0.2l19.7-6l2.7-1
				C981.8,64.2,978.8,59.4,977.2,59z"/>
		</g>
		<g>
			<path class="st3" d="M1009.1,187.2l-33.7-118c3.5-5.2,2.7-7.3,1.1-8.1c-1.7-0.8-20.2,5.2-22.7,7.2c-3.7,4.4,2.2,6.3,2.2,6.3
				l-26.6,127.7C929.3,202.3,990.5,205.5,1009.1,187.2z"/>
		</g>
		<g>
			<path class="st4" d="M941.6,199.4c-0.1,0-0.1,0-0.2,0c-0.6-0.1-1-0.6-0.9-1.2l15.8-114.5c0.1-0.6,0.7-1,1.2-0.9
				c0.6,0.1,1,0.6,0.9,1.2l-15.8,114.5C942.7,199,942.2,199.4,941.6,199.4z"/>
		</g>
		<g>
			<path class="st4" d="M955.3,188C955.2,188,955.2,188,955.3,188c-0.7,0-1.1-0.6-1.1-1.2l5.2-72c0-0.6,0.6-1.1,1.2-1
				c0.6,0,1.1,0.6,1,1.2l-5.2,72C956.3,187.5,955.8,188,955.3,188z"/>
		</g>
		<g>
			<path class="st4" d="M970,196.4c-0.6,0-1.1-0.5-1.1-1.1l-4.4-114.5c0-0.6,0.4-1.1,1.1-1.1c0.7,0,1.1,0.4,1.1,1.1l4.4,114.5
				C971.1,195.9,970.6,196.4,970,196.4C970,196.4,970,196.4,970,196.4z"/>
		</g>
		<g>
			<path class="st4" d="M985.2,190.5c-0.5,0-1-0.4-1.1-0.9l-11.9-83.2c-0.1-0.6,0.3-1.2,0.9-1.2c0.6-0.1,1.1,0.3,1.2,0.9l11.9,83.2
				c0.1,0.6-0.3,1.2-0.9,1.2C985.3,190.5,985.3,190.5,985.2,190.5z"/>
		</g>
		<g>
			<path class="st4" d="M997.2,188.2c-0.5,0-1-0.4-1.1-0.9L972.9,78.9c-0.1-0.6,0.2-1.2,0.8-1.3c0.6-0.1,1.2,0.2,1.3,0.8l23.3,108.4
				c0.1,0.6-0.2,1.2-0.8,1.3C997.4,188.2,997.3,188.2,997.2,188.2z"/>
		</g>
		<g>
			<polygon class="st1" points="925.7,209.6 927.7,210 955.9,74.6 953.9,75.1 			"/>
		</g>
		<g>
			<polygon class="st1" points="1013,191.5 1015.5,190.2 978.1,68.3 976.9,68.7 			"/>
		</g>
	</g>
	<g>
		<path class="st4" d="M271.9,144.4c-0.4,0-0.8-0.2-1-0.6l-11.7-20.7c-0.3-0.5-0.1-1.2,0.4-1.5c0.5-0.3,1.2-0.1,1.5,0.4l11.7,20.7
			c0.3,0.5,0.1,1.2-0.4,1.5C272.3,144.4,272.1,144.4,271.9,144.4z"/>
	</g>
</g>
</svg>
