<?xml version="1.0" encoding="utf-8"?>
<!-- Generator: Adobe Illustrator 22.0.0, SVG Export Plug-In . SVG Version: 6.00 Build 0)  -->
<svg version="1.1" id="Layer_1" xmlns="http://www.w3.org/2000/svg" xmlns:xlink="http://www.w3.org/1999/xlink" x="0px" y="0px"
	 viewBox="0 0 491.7 491.7" style="enable-background:new 0 0 491.7 491.7;" xml:space="preserve">
<style type="text/css">
	.st0{fill:#643C20;}
	.st1{fill:#C69870;}
	.st2{fill:#C28F66;}
	.st3{fill:#8B5D3C;}
	.st4{fill:#B98259;}
	.st5{fill:#71492D;}
	.st6{fill:#8B6142;}
	.st7{fill:#A2734E;}
	.st8{fill:#673F24;}
	.st9{fill:#AD805C;}
	.st10{fill:#794F32;}
	.st11{fill:#784E30;}
	.st12{fill:#6B4327;}
	.st13{fill:#815536;}
	.st14{fill:#8C5F3E;}
	.st15{fill:#895C3B;}
	.st16{fill:#926443;}
	.st17{fill:#DFAF86;}
	.st18{fill:#DAA57A;}
	.st19{fill:#825839;}
	.st20{fill:#C18E66;}
	.st21{fill:#B47D55;}
	.st22{fill:#9E6B47;}
	.st23{fill:#9D6E4B;}
	.st24{fill:#966A4A;}
	.st25{fill:#C49671;}
	.st26{fill:#DBAE86;}
	.st27{fill:#B78B68;}
	.st28{fill:#B28663;}
	.st29{fill:#B3845F;}
	.st30{fill:#C9976E;}
	.st31{fill:#976A4A;}
	.st32{fill:#B5855F;}
	.st33{fill:#A47552;}
	.st34{fill:#B68762;}
	.st35{fill:#B5835D;}
	.st36{fill:#EDC29A;}
	.st37{fill:#EDC59E;}
	.st38{fill:#F2CCA8;}
	.st39{fill:#D9AB82;}
	.st40{fill:#E6B082;}
	.st41{fill:#EBBE94;}
	.st42{fill:#E9B78A;}
	.st43{fill:#E5AF81;}
	.st44{fill:#EDC299;}
	.st45{fill:#DEB289;}
	.st46{fill:#E5B98F;}
	.st47{fill:#E3B78E;}
	.st48{fill:#C3936C;}
	.st49{fill:#F6D6B5;}
	.st50{fill:#F5D9B7;}
	.st51{fill:#F5D5B3;}
	.st52{fill:#F4E5C2;}
	.st53{fill:#F4E7C5;}
	.st54{fill:#EBBE95;}
	.st55{fill:#F4E4C2;}
	.st56{fill:#D89362;}
	.st57{fill:#C67A47;}
	.st58{fill:#B46836;}
</style>
<g>
	<path class="st0" d="M444.1,316.7c3.9,4.9,8.6,9.1,13,13.5c7.1,7.1,10.8,16.2,13.6,25.7c4.2,8.3,2.7,17.2,2.4,26
		c-1.3,7.4-2.9,14.7-6.3,21.6c-7.6,16.9-20.9,27.6-37.6,34.7c-16.3,6.9-33.5,11.1-50.3,16.6c-5.9,1.9-11.6,4.2-17.4,6.2
		c-25.2,8.7-51.2,13.5-77.6,16.4c-12.6,1.4-25.2,2.5-37.8,2.9c-24.1,0.7-47.9-2.1-71.6-5.4c-21.2-2.9-42.4-4.2-63.8-3.6
		c-5.8,0.2-11.6,1.4-17.3,2.3c-15.7,2.5-29.4-1-40.1-13.6c-3-2.9-3.3-7-4.5-10.8c-0.9-3.2,0.5-6.3,0.8-9.4c0.1-0.3,0.3-0.7,0.4-1
		c4.1,0.6,4.1,4.5,5.3,7.1c9.2,19.6,22.3,24.6,40.5,21.8c11.4-1.7,22.7-3.7,34.1-3.1c15.9,0.8,31.9,0.6,47.6,3.6
		c3.6,0.7,7.3-0.4,10.9,0.9c4.7,2.3,9.8,1.3,14.7,2.1c10.5,1.7,21.2,1.2,31.9,1.2c12.5,0,25,0.4,37.5-0.1c9.2-0.4,18.5-0.9,27.6-3.1
		c15.1-2.2,29.9-5.3,44.5-9.6c3.7-1.1,7.1-2.8,10.8-3.7c4.6-0.2,8.4-3,12.5-4.6c10-3.9,20.3-7,30.4-10.7c8.7-3.2,17.6-5.9,26.3-9
		c6.5-2.3,12.2-6,17.9-9.7c7.2-4,11.5-10.6,14.7-17.7c8.7-19.4,11.1-39.3,2.7-59.4c-3.2-7.7-8.4-14.3-14-20.5
		c-1.3-1.5-3-2.7-3.7-4.7C442.1,318.1,441.9,316.6,444.1,316.7z"/>
	<path class="st1" d="M105,185.9c3.8-8.8,7.6-17.7,11.5-26.5c6.4-14.6,8.1-30.1,5.9-45.5c-3.2-22.8,5-41.1,18.2-58.6
		C153.9,37.6,171.3,30,192.9,31c5.1,0.2,10.2,0.7,15.1,2.7c5.9,4.4,13,6.4,19.7,9.3c1.5,0.7,3.2,0.9,4.6,1.9
		c1.5,1.1,3.1,2.3,1.3,4.4c-6.6-0.5-12.2-3.9-18.2-6.3c-19.5-7.9-38.4-7.9-56.2,4.1c-10.8,7.3-18.3,17.8-24.1,29.5
		c-5.6,11.2-8.5,22.9-8,35.5c0.5,11.5,0.7,23-1.1,34.4c-1.4,8.9-4.7,17.3-8,25.7c-7.2,18.6-14.6,37.2-21.7,55.8
		c-6.5,17.1-12.3,34.4-17.2,52.1c-2.4,8.8-3.6,17.9-6,26.6c-0.4,1.6,0.1,3.9-2.5,4.2c-2.3-3.6-1.3-7.4-0.6-11.1
		c4.3-21.4,10.2-42.4,17.1-63.1c5.4-16.3,10.8-32.5,17.3-48.4C104.9,187.6,105.1,186.7,105,185.9z"/>
	<path class="st2" d="M105,185.9c1,4.5-1.4,8.2-2.8,12c-5.5,15.3-10.6,30.7-15.7,46.1c-4.2,12.8-8.1,25.6-11,38.6
		c-2.1,9.3-5.6,18.4-4.7,28.2c1.4,1.5,1.3,3.3,1,5.1c-2.9,11.6-3.3,23.4-3.1,35.3c0.1,3.3,0.1,6.6-1.7,9.6c-2.8-0.1-2.4-2.4-2.5-4
		c-0.1-7.6-0.7-15.3,0.4-22.8c0.5-3.2,0.2-6.3-0.1-9.4c-0.3-2.8-1.3-4.6-4.3-4.9c3.4-25.8,10.8-50.7,19.6-75.1
		C87.4,224.6,95.8,205.1,105,185.9z"/>
	<path class="st3" d="M187.8,469.9c-18.3-1.3-36.6-2.9-54.9-3.9c-12.3-0.7-24.4,0.9-36.5,3.2c-17,3.3-32.6-3.5-40.8-18.4
		c-2.1-3.8-2.6-8.5-5.6-11.9c-0.3-6.2,1.3-12.2,2.9-18.1c4.2-15.1,4.3-30.5,5.1-45.9c3.5-1,3.7,2,4.6,3.9c3,6.2,0.7,12.7,0.9,19.1
		c0.2,6.9-3.3,13.1-3.5,19.9c-0.1,0.5-0.2,1.1-0.3,1.6c-1.3,4.1-2.1,8.4-3.1,12.6c-1.4,6.2,0.1,12.2,3.1,17.7
		C67,463,79.6,468,94.6,465.9c7.1-1,14.1-2.2,21.2-2.5c7.6,0,15.2,0,22.8,0c7.3-0.2,14.5,0.1,21.7,1.3c3.3,1.2,6.9,0.4,10.2,1.1
		c2.7,0.9,5.5,0.7,8.3,0.7c3.4,0.1,6.9-0.4,9.8,1.9C189.3,469.4,189,469.9,187.8,469.9z"/>
	<path class="st4" d="M60.6,319.7c3.4-1.4,5-1.6,5.6,3.4c1.3,10.9-1.5,21.7-0.3,32.6c0.2,1.7-0.6,3.7,1,5.2c1.4,1.3,1.5,3,1.5,4.6
		c-0.3,12.3,1.5,24.7-1.2,36.8c-2,9-3.1,18.3-6.2,27c-0.7,2-0.5,3.9-0.6,5.9c-0.2,2.8,0.5,5.7-0.9,8.3c-0.4,0.5-0.9,0.7-1.6,0.6
		c-2.9-2.7-2.1-6.1-1.7-9.3c0.6-5.4,1.9-10.6,2.7-16l0,0c3.6-13,5.6-26.2,3.9-39.7c-0.7-5.5-0.3-11-0.3-16.4c0-5.4-0.7-10.6-2.1-17
		c-0.1,3.7,0.2,6.2-0.1,8.7c-0.2,1.7,0.3,3.8-2.2,4.5C57.8,345.7,58.7,332.7,60.6,319.7z"/>
	<path class="st5" d="M268.1,94.8c-0.1,2.7-0.2,5.3-0.2,8c-0.4,1.8-0.2,3.8-1.5,5.4c-3.6,4.5-8,8-12.9,10.9
		c-9.1,5.5-17.8,11.6-26.8,17.4c-6.1,3.8-12,7.6-18.9,10c-4.8,1.6-8.7,4.8-12.2,8.5c-1.1,1.2-2,2.7-3.8,3.1c-2.6-1-1.2-2.6-0.5-4
		c2.5-4.9,6.3-8.5,11.1-11.1c10.6-4.3,19.5-11.5,29.3-17c7.4-4.7,15.2-8.9,22.8-13.3c9.5-5.6,12.8-16.6,4.4-25.5
		c-0.8-0.8-1.7-1.7-2.1-2.7c-0.7-1.7-0.5-2.9,1.6-3.2c3.2,0.6,5.1,2.9,6.5,5.6C266.2,89.4,267.6,91.9,268.1,94.8z"/>
	<path class="st6" d="M258.6,81.9c-3.6,1.9-0.1,2.8,0.7,3.8c2.9,3.6,5.5,7.1,5.8,12.2c0.3,6-2.5,10.8-6.7,13.7
		c-8.4,5.8-17.6,10.3-26.4,15.4c-0.3-0.4-0.5-0.8-0.5-1.3c0.4-2.3,2.3-3.1,4.1-4c6.1-3.1,11.9-6.7,17.8-10.1
		c3.1-1.8,6.2-4.1,6.7-8.2c1-3.7,0.9-7.3-0.1-11c-0.3-0.9-0.2-2.1-1.1-2.7c-5.3-3.8-5.3-8.7-3.1-14.1c0.7-3.3,3-6.1,3-9.8
		c0-2.9-0.5-5.5-1.9-7.9c-2.2-5.4-7.1-7.1-12.1-8.5c-1.3-0.3-2.6-0.3-3.9-0.8c-3.5-1.4-6.9-2.9-10.5-4.1c-2.1-0.7-4.3-1.5-4.1-4.5
		c0-0.1,0.2-0.1,0.4-0.1c0.2,0,0.3,0.1,0.5,0.1c6.9,1.6,13.9,3.3,20.8,4.9c1.1,0.3,2.3,0.2,3.2,1.1c1.2,2.3,4,2.2,5.6,3.8
		c3.4,3.4,6.1,6.9,5.8,12.1c-0.3,4.5-0.1,9-0.8,13.4C261.4,77.8,259.9,79.8,258.6,81.9z"/>
	<path class="st7" d="M58.1,358.8c2-4.9-0.1-10.1,1.3-15.5c5.1,3.7,4.1,9.4,4.2,13.8c0.5,16.4,1.1,33-0.9,49.3
		c-0.5,4.2-0.4,9-3.8,12.4c-0.9-7.4,3.7-13.9,3.3-21.2c-0.4-6,2.1-12-0.5-17.9c-0.8-1.8-1-4.3-3.6-4.9C58,369.5,58,364.2,58.1,358.8
		z"/>
	<path class="st8" d="M260.7,75.8c-1.1-4,0.1-8,0.4-12c0.5-7.7-3.1-12.3-9.2-15.8c-1-0.6-2.6-0.6-1-2.2c1,0.6,2.1,0.7,3.1,1
		c10.4,3.3,12.2,5.9,11.9,17C265.7,68.5,265.5,73.1,260.7,75.8z"/>
	<path class="st9" d="M226.9,39.8c0.4,2.8,2.4,3.4,4.8,4.1c3.2,1,6.8,1,9.2,3.8c-0.1,0.2-0.3,0.4-0.4,0.5c-1.7,0.9-3.6,0.7-5.3,1
		c-0.5,0-0.9-0.2-1.2-0.5c-0.2-2.5-2.2-3.2-4-3.8c-7.4-2.2-14.2-5.7-21.1-9c-1.3-0.6-2.2-0.9-0.7-2.3
		C214.4,35.4,220.9,36.8,226.9,39.8z"/>
	<path class="st10" d="M211.7,307.8c11.8-13.6,24.7-26,40.4-35.2c23.7-14,49.3-18.9,76.5-17.1c9.6,0.7,19.2,1.2,28.4,4.2
		c4.6,3.3,10.4,3.4,15.3,5.9c2.3,1.2,5.1,1.5,7.3,3c1.3,0.8,3.3,1.4,1.9,3.7c-0.5,0.3-1,0.4-1.5,0.4c-9.7-2.3-18.7-6.6-28.4-8.9
		c-18.5-4.4-37.1-4.3-55.8-2.5c-3.2,0.3-6,2-9.1,2.3c-15.2,2.8-28.6,9.7-40.9,18.7c-4.4,3.2-9,6.3-13.2,9.8
		c-2.4,1.4-4.4,3.3-6.2,5.3c-2.9,3.2-6.7,5.7-8.6,9.7c-0.4,0.9-0.9,1.6-1.7,2.2c-4.1,1.9-5.3,6.9-9.4,8.8c-0.8-0.1-1.3-0.6-1.5-1.3
		C205.6,312.6,209.3,310.6,211.7,307.8z"/>
	<path class="st11" d="M182.9,190c0.8,2.4-1.7,4.5-0.9,6.9c-0.6,40.9-0.8,81.9-3.9,122.7c-0.6,8.6-1,17.3-1.5,25.9
		c-0.2,4.6,0.9,9.3-1,13.8c-0.7,1-0.9,2.9-2.6,2.4c-1.5-0.4-1.6-2.1-1.5-3.4c0.4-9.5,0.4-19.1,2.2-28.5c1.5-7.2,0.3-14.5,0.7-21.8
		c0.2-4-0.6-8.1,1.3-11.9c1-2,0.7-4.2,0.7-6.4c0.1-13.5-0.1-27,0.1-40.4c0-0.9,0.1-1.9,0.4-2.8c1.3-6.6,0.4-13.2,0.6-19.8
		c0.2-6.8,0-13.6,0-20.4c0-5.7,0.5-11.3,2-16.8c0.9-1.1,1.5-3,3.1-2.6C183.8,187.3,183.4,188.9,182.9,190z"/>
	<path class="st12" d="M381.9,271.8c-6.3-5.1-14.1-6.6-21.5-8.9c-1.6-0.5-3.4-0.6-4.5-1.8c-0.9-1.1,0.6-1,1.2-1.3
		c15.2,3.1,28.9,9.7,41.9,17.8c17,10.7,31.6,24.3,45,39.2c-1.3,0.7-1.2,1.9-1.2,3.1c-2.1,0.7-3-0.9-4.1-2.1
		c-11.4-12.3-24-23.3-37.5-33.2c-4.7-3.4-9.6-6.5-14.8-9.1C384.7,274.5,382.9,273.7,381.9,271.8z"/>
	<path class="st13" d="M381.9,271.8c12.5,5.6,23.4,13.5,33.7,22.3c6.9,5.9,13.5,12.2,20.3,18.2c2.6,2.3,3.7,6,7,7.5
		c13.9,13.1,23.3,28.1,23.2,48.2c-0.1,16.6-3.3,32-13.1,45.6c-2.7,3.7-5.4,7.5-10.1,9.2c-0.7-1.6,0.6-2.6,1.2-3.8c2-3,5-5.1,6.7-8.3
		c11.6-17.9,14.3-37.3,10-57.9c-0.5-2.1-1.5-4-2.4-6c-3.8-9.4-10.4-16.8-17.1-24.2c-14.5-16-30.6-30.2-48.7-42
		c-2.8-1.7-5.6-3.4-8.6-4.9c-1.5-0.8-3.5-1.4-3.2-3.8C381.1,271.9,381.5,271.8,381.9,271.8z"/>
	<path class="st14" d="M444.8,419.8c-0.7,1-1.3,2-2,3C434,430,423.4,433.3,413,437c-10.1,3.6-20.2,7.1-30.3,10.4
		c-9,3-17.5,7.4-26.8,9.4c-0.4-2.8,2.3-2.9,3.6-4.2c8.2-3.9,16.6-7.4,25.4-9.7c18.7-7,38.6-10.9,55.6-22.1
		C441.7,420,443,418.6,444.8,419.8z"/>
	<path class="st15" d="M187.8,469.9c0.4-0.3,0.7-0.7,1.1-1c3.8-2.4,7.6,0.2,11.4,0c6.9,2.5,14.1,1.9,21.2,2.3
		c13.1,0.7,26.3,0.7,39.4,0c8.6-0.5,17.3-0.2,25.8-1.8c1.2,0,2.3-0.4,3.4-0.6c2.9-0.5,5.7-0.4,8.6-0.2c0.9,0.2,1.7,0.5,2.2,1.2
		c-4.8,3.6-10.6,2.2-15.8,2.8c-21,2.4-42.2,0.8-63.3,1.2c-10.3,0.2-20.4-2.1-30.7-2.1C189.6,471.8,188.5,471.1,187.8,469.9z"/>
	<path class="st16" d="M300.9,469.9c-0.7,0-1.4,0-2.1-0.1c0.2-2.4,2.2-2,3.7-2.3c6-1.3,12-1.9,17.9-3.6c11.7-3.5,23.8-6.1,35.2-10.6
		c1.4-0.6,2.9-0.6,4.2,0.6c-0.9,1.5-3.5,1-4,3.1C338.1,463.6,319.8,468.2,300.9,469.9z"/>
	<path class="st17" d="M233.9,48.8c0.3,0,0.6,0,0.9-0.1c1.8-0.1,3.5,0.1,5.3,0.4c1.1,0.8,3.5,0.6,2.5,3.1c-2.6,1.5-5.1,0.9-7.7,0.1
		c-11.4-3.6-23-6.7-34.7-9c-22.2-4.4-40,3.4-54,20.9c-7.7,9.5-12.2,20.5-15.4,32c-0.6,2.3-0.6,4.6-0.6,6.9c0,10.8-0.3,21.6,0.1,32.4
		c0.3,10.8-3.4,20.6-6.8,30.4c-5.2,15-11.1,29.9-17.5,44.5c-0.6,1.4-0.8,2.9-1.1,4.3c-13,30.7-23.9,62.1-29.3,95.2
		c-1.9,3.7-1.3,7.8-2.5,11.6c-0.4,1.3,0.1,3.7-2.7,2.8c-1-3,0-5.8,0.4-8.7c0-1.7,0-3.3,0-5c2-8.6,4.1-17.1,5.9-25.7
		c2.3-11.1,5.8-21.8,9.4-32.5c4.4-13.3,8.9-26.6,14.3-39.5c6.8-16.2,12.7-32.8,19.3-49.1c4-9.9,6.1-20.2,6.2-30.9
		c0.1-9-0.4-18,0.1-27c1.3-24.8,12.6-44.8,32-59.6c12.1-9.2,26.7-12.9,41.9-9.4c9.8,2.2,19.4,5.4,28.5,9.8
		C230.1,47.7,231.9,48.5,233.9,48.8z"/>
	<path class="st18" d="M70.8,315.8c0,3,0,6,0,9c1.4,1.3,1.4,3,1.4,4.6c-0.1,17.8,0.3,35.6-0.2,53.4c-0.1,1-0.7,2-0.6,2.9
		c0.8,9.1-2.1,17.7-3.5,26.5c-1.2,6-4.2,11.6-4.2,17.9c-1.2,9.5-1.6,18.7,7.5,25.2c3.4,2.4,6.9,4,11.1,3.9c5.5,0,11,0.3,16.4-0.8
		c8.4-1.7,16.9-1.3,25.4-1c17.1,0.8,34.2,2,51.2,3.7c8.3,0.8,16.4,2.6,24.7,3.4c24.8,2.3,49.5,2.1,74.3,0.9
		c21.6-1.1,42.7-4.9,63.5-10.4c9.3-2.5,18.4-5.7,27.3-9.6c2.7-1.2,5.4-2.8,8.5-1c0.4,2.4-1.6,2.6-3,3.2
		c-14.8,6.4-30.1,11.2-45.8,14.9c-23.4,5.6-47,8.6-71.1,8.4c-15.5-0.1-30.9,0.7-46.4-1.1c-6.9-0.8-13.8-1.8-20.7-2.9
		c-2.7-0.4-5.3-0.3-7.9-0.4c-7.4-0.6-14.8-1.6-22.2-2.2c-19.3-1.4-38.7-2.3-58,0.9c-9.8,1.6-19.9,2.1-28.8-4.2
		c-5.1-3.6-9.3-8-11.2-14.2c-0.3-1.1-0.8-2.2,0-3.3c-0.8-9.1,1.3-17.7,3.8-26.3c4.9-16.8,4.4-34,4.2-51.2c0-1.8,0-3.7,0-5.5
		c0.5-14.3-0.1-28.7,3-42.8C70,317.3,70.5,316.6,70.8,315.8z"/>
	<path class="st19" d="M187.1,170.8c-1.3,3.5-2,7.2-2.6,10.9c-1.4,2.6,0,5.7-1.6,8.3c-0.1-0.8-0.3-1.5-0.4-2.3
		c-0.6,0.7-1.1,1.4-1.7,2.1c-1.2-1.2-1.2-2.7-1-4.2c1.5-9.8,4.2-19.3,7.6-28.6c2.1-5.7,6-9.8,10.7-13.3c1.6-0.7,3.1-1.4,4.7,0
		c-4.6,3-8.4,6.6-11.1,11.5c-0.5,0.9-1.1,1.7,0,2.5C192.9,163.2,188.8,166.6,187.1,170.8z"/>
	<path class="st20" d="M178.8,465.8c12.3,0.1,24.3,2.9,36.5,3.7c1.8,0.1,3.6,0.3,5.5,0.3c14.8,0,29.6,0,44.4,0
		c13.9,0,27.6-2.8,41.4-4.4c13.1-1.6,26-4.8,38.6-8.9c9.8-3.1,19.9-5.9,28.8-11.7c4.7-2.1,9-5.5,14.7-4.5c1.2,3.7-2.7,2-3.7,3.5
		c-8.4,3.1-17,5.9-25,9.9c-5.3,0.1-9.8,2.9-14.6,4.4c-8.1,2.5-16.3,4.3-24.4,6.7c-10.3,1.9-20.6,3.9-31,5c-0.4,0.8-1.2,0.9-2,0.9
		c-6.6-0.8-13.2,0.3-19.7,0.8c-6.1,0.5-12.2,0.6-18.3,0.7c-8.8,0.1-17.6,0.3-26.4,0c-7.9-0.3-15.7-1.4-23.6-2.3
		c-3.7-0.3-7.3-0.7-11-1c-3.3-0.7-6.6-1.4-10-1.1C178.3,467.1,178.3,466.5,178.8,465.8z"/>
	<path class="st21" d="M178.8,465.8c0,0.7,0,1.3,0,2c-2.7-0.3-5.5,0.9-8-0.9c-3.2-1.5-6.8,0.3-10-1c-7.3-0.3-14.6-1.6-22-1
		c-8-0.9-16-0.9-24,0c-5.2,0.6-10.5,0.8-15.6,1.8c-15.3,3.1-28.4,0.2-38.5-12.4c-1.1-1.3-2-2.6-1.9-4.4c-0.8-1.9-2.1-3.8-1-6
		c0.3,0,0.7,0,1,0c3.1,9.4,8.5,16.8,18.4,19.9c7.4,2.3,15.1,1.5,22.6,0.5c12.1-1.5,24.2-3.3,36.5-1.6c7.9,1,15.9-0.3,23.8,1.1
		C166.3,464.9,172.6,465.2,178.8,465.8z"/>
	<path class="st22" d="M57.8,443.8c0.3,2,0.6,4,1,6c-3.9-4.9-4.7-10.7-3.8-16.4c0.8-4.9,1.7-10,3.8-14.6c0.3,5.5-0.8,10.9-1.7,16.2
		C56.7,438.1,57.1,441,57.8,443.8z"/>
	<path class="st23" d="M114.8,464.8c8-1.7,16-2,24,0C130.8,464.8,122.8,464.8,114.8,464.8z"/>
	<path class="st23" d="M160.8,465.9c3.3,0.4,6.8-1.1,10,1C167.5,466.4,164,467.8,160.8,465.9z"/>
	<path class="st24" d="M202.9,143.9c-1.5-0.2-2.8,0.3-4,1c-0.4-0.4-0.5-0.8-0.4-1.4c1.1-2.1,3.2-3,5.1-3.7
		c8.4-2.9,15.3-8.5,22.9-12.8c1.7-0.9,3.2-2.6,5.4-1.2c0,0.4,0,0.7,0,1.1C222.5,133,213.5,139.9,202.9,143.9z"/>
	<path class="st25" d="M231.8,125.8c-5.6,2.1-10.1,6-15.1,8.9c-5.8,3.3-11.9,6.1-17.9,9.1c-6.7,4.3-10.6,10.5-12.9,17.9
		c-0.6,1.8-0.7,3.7-3.3,3.2c-0.7-0.8-0.9-1.8-1-2.9c1-11.3,8.3-17.8,17.7-22.6c1-0.5,2.1-0.9,3.2-1.3c9.7-4,18.4-9.9,27-15.8
		c9.3-5.6,19.2-9.9,27.6-16.9c1.1-0.8,2-2.2,3.8-1.5c-0.7,5.9-5.6,7.9-9.8,10.2c-5.7,3-10.8,7-16.9,9.3
		C233.2,123.7,232.6,124.9,231.8,125.8z"/>
	<path class="st26" d="M260.9,103.9c-1,0.7-2,1.3-3,2c-1.1-1.1-0.9-2.5-0.3-3.7c2.2-4.1,0.5-7.4-2.4-10.2c-2.4-2.4-6.7-3.2-6.8-7.3
		c-0.1-3.4,2.5-6,3.6-9.1c1.8-2.5,1.3-6.5,5.1-7.6c1.9,2.7-0.6,4.9-0.8,7.3c-3.1,6.8-4.4,8.9,2.5,13.8c1,0.7,1.2,1.9,2,2.8
		C262.4,95.8,262.5,99.8,260.9,103.9z"/>
	<path class="st27" d="M255.8,75.8c0.2-2.7,1.6-5.2,1.1-8c-1.6-1.6-1.3-3.7-1.4-5.7c0.1-1.7,0-3.5,0.9-5c0.4-0.5,0.9-0.6,1.5-0.3
		c3.9,6.5,1.8,12.8-1,19C256.5,76.2,256.1,76.2,255.8,75.8z"/>
	<path class="st28" d="M255.8,75.8c0.4,0,0.7,0,1.1,0c-2.2,5.1-2.4,9.6,3.1,12.9c1.1,0.6,1,2,0.9,3.1c-2.1-1.6-4.2-3.1-6.2-4.8
		C251.6,84.4,252.1,79.9,255.8,75.8z"/>
	<path class="st29" d="M257.8,56.9c-0.4,0-0.7,0-1.1,0c-3.8-0.2-5.9-3.7-9.3-4.6c-1.8-2.1-5.5-1.2-6.6-4.3c0,0,0.1-0.1,0.1-0.1
		C248.1,47.9,254.1,50.2,257.8,56.9z"/>
	<path class="st1" d="M240.8,47.9c2,2,5.9,0.4,7.1,3.8c-3.4,2.2-5.1-2.4-8.1-1.9c-1.8,0.1-3.5,0-5-1.1
		C236.6,47.1,238.8,48.1,240.8,47.9z"/>
	<path class="st30" d="M182.8,161.8c0,1,0,2.1,0.1,3.1c1.6,3.2-0.6,5.9-1.1,8.8c-1,3.1-1.6,6.2-1.9,9.4c-0.1,0.5-0.2,1-0.3,1.5
		c-1.2,4.2-1.4,8.5-1.7,12.8c-0.1,0.5-0.2,1.1-0.4,1.6c-0.5,5.6-0.1,11.2-0.2,16.9c0,1.8,0,3.6-0.4,5.3c-1.4,9.1-0.1,18.2-0.7,27.3
		c0,0.6-0.1,1.2-0.3,1.8c-1.1,4.8-0.4,9.6-0.5,14.4c-0.3,11.1,0.4,22.3-0.4,33.4c-0.1,0.6-0.1,1.2-0.2,1.8c-1,8.3-0.2,16.6-0.5,25
		c-0.9,10.7-2.2,21.3-2.4,32.1c0,1.2-0.1,2.3,0,3.5c0.2,2.7,1.4,5,4.1,5.7c3,0.8,4.6-1.5,5.8-3.7c2.4-4.5,4.4-9.2,6.4-13.9
		c2.6-6.2,6.2-11.7,9.6-17.4c6.3-7.2,11.2-15.6,18.1-22.3c0.4-0.6,0.8-1.3,1.1-1.9c3.3-3.7,7.2-6.8,10.3-10.7c0.7-1,1.6-1.8,2.6-2.3
		c5-3.5,9.6-7.6,14.6-11.1c10.3-7.3,20.9-13.9,33.4-17c0.8,0,1.5,0.2,2.1,0.7c0.3,0.5,0.3,0.9,0.1,1.4c-7,3.8-14.8,5.8-21.6,10.1
		c-5.1,3.2-10.5,5.8-14.7,10.1c-1.7,1.7-3.5,3.2-5.6,4.3c-14,10.2-24.6,23.4-34.1,37.6c-0.2,0.4-0.5,0.8-0.7,1.1
		c-1.4,1.6-3,3.1-3.6,5.2c-0.2,0.4-0.4,0.8-0.7,1.1c-1.5,1.6-2.6,3.5-3.2,5.6c-0.2,0.4-0.4,0.8-0.6,1.2c-1.9,2-3.1,4.4-3.7,7.1
		c-1.1,3.5-2.3,6.9-4.3,9.9c-1,1.9-2.2,3.8-3.5,5.5c-2.5,3.4-6,4.8-10.1,3.9c-4.3-0.9-6.2-4.3-6.9-8.3c-0.6-3.6-0.9-7.4,0.1-10.9
		c2.8-10.3,1.9-20.9,2.4-31.3c1.2-23.6,2.5-47.2,2.5-70.8c0-11.4,0.7-23,0.6-34.4c-0.2-15.5,2.2-30.5,5.7-45.5
		C178.7,166.8,178.8,162.9,182.8,161.8z"/>
	<path class="st31" d="M174.8,249.9c0-0.3,0-0.7,0-1c1.1-6.9,0.2-13.8,0.5-20.7c0.1-2.4-0.5-4.9,0.5-7.3c0-1.7,0-3.3,0-5
		c1.1-4.2,0.2-8.5,0.5-12.7c0.1-1.8-0.4-3.6,0.5-5.3l0,0c0.8-4.6,0.7-9.4,2-14l0,0c0.8-3.3,1-6.7,2-10c0.7-3,1.4-6,2-9
		c2.6-2.1,2.6-5.5,4-8.2c2.8-5.4,5.3-11.1,12-12.9c0,0.4,0,0.7,0,1.1c-6.6,4.7-10.1,11.2-12.3,19c-2.4,8.6-4.9,17-5.7,25.9
		c-1.6,5.2-2,10.6-2,16c-1.1,6.6-0.2,13.2-0.5,19.8c-0.3,7.1,0.6,14.2-0.5,21.3c0,0.7,0,1.3,0,2c-1.1,4.9-0.3,9.9-0.5,14.8
		c-0.4,11.1,0.6,22.2-0.5,33.2c-1.9,3.5-0.7,7.3-1,11c-1.1,5.4-0.2,10.8-0.5,16.2c-0.1,1.9,0.5,3.9-0.5,5.8
		c-0.9,10.2-2,20.5-2.1,30.9c1.5,0.1,0.9-1.7,1.9-1.9c0.1,1.2,0.1,2.3,0.2,3.5c0.1,1.1,0.4,2,1.5,2.3c1.2,0.4,2.4,0,3-1.1
		c1-1.7,1.8-3.5,2.7-5.3c6.6-14.6,13.6-29,23.7-41.7c0.4,0.4,0.7,0.8,1.1,1.2c0,4.4-3.9,6.6-5.6,10c-0.5,1.1-1.7,1.9-2.3,3.1
		c-3,6.7-7.8,12.5-10.3,19.5c-1.5,4.1-3.7,8-5.8,11.9c-1.6,3-3.4,6.1-7.4,5.3c-4.3-0.9-4.8-4.4-4.6-8.2c0.7-11.2,1.4-22.4,2-33.6
		c1.1-6.5,0.2-13.1,0.5-19.6c0.1-2.1-0.5-4.3,0.4-6.3c0-0.3,0-0.7,0-1c1.1-3.9,0.4-7.9,0.5-11.8
		C174.7,274.6,173.8,262.2,174.8,249.9z"/>
	<path class="st32" d="M279.9,266.9c-0.7,0-1.4,0-2-0.1c1.1-4.4,5.5-2.3,8-4c7-2.6,14.2-4,21.7-3.9c11.1,0.1,22.3-1,33.2,1.3
		c7.6,1.6,15.5,2.5,22.9,5.7c5.5,2.5,11.4,4.1,17.2,6c3.3,3.8,8.8,4.2,12.1,7.9c-0.2,0.2-0.4,0.4-0.6,0.5c-1,0.5-2,0.3-3-0.1
		c-7.5-4-15.2-7.5-23.2-10.4c-3-1.1-6-1.9-9.2-1.7c-15.9-5-32.2-5.4-48.6-4.8c-8.2,0.3-16.6,0.2-24.2,4.2
		C282.6,268,281.1,267.9,279.9,266.9z"/>
	<path class="st33" d="M285.8,262.8c-2.2,2.2-6.3,0.8-8,4c-12.7,3.1-23.3,10.1-33.9,17.3c-4.9,3.3-8.7,8-14.1,10.7
		c-0.6-1.9,1.2-2.1,2-3c7.9-7.6,17.1-13.4,26.4-19c6.4-3.9,13.5-5.9,20.3-8.8C280.8,263.1,283.3,262.6,285.8,262.8z"/>
	<path class="st33" d="M198.9,330.9c1.3-3.9,4.4-6.7,6.5-10.1c0.6-1,1.4-1.8,1.4-3c2.9-3.1,4.3-7.7,9-9c-2.1,4.9-6.2,8.4-9.2,12.6
		C204.2,324.7,202.6,328.7,198.9,330.9z"/>
	<path class="st33" d="M227.8,296.8c-3.2,3.8-6.2,7.9-10.8,10.1c1.4-4.7,5.6-7,8.9-10.1C226.5,296.3,227.1,296.2,227.8,296.8z"/>
	<path class="st31" d="M227.8,296.8c-0.7,0-1.3,0-2,0c1.7-2,3.1-4.5,6-5c-0.7,1-1.3,2-2,3C229.2,295.5,228.5,296.2,227.8,296.8z"/>
	<path class="st19" d="M176.8,296.8c0-14.3,0-28.6,0-42.8c0-1.7-0.6-3.7,1-5.2c0,14.3,0,28.6,0,42.8
		C177.8,293.4,178.5,295.4,176.8,296.8z"/>
	<path class="st19" d="M177.9,246.8c0-11.9,0-23.9,0-35.8c0-1.7-0.6-3.7,0.9-5.2c0,11.9,0,23.9,0,35.8
		C178.8,243.4,179.5,245.4,177.9,246.8z"/>
	<path class="st19" d="M174.8,329.8c0-5.8,0-11.6,0-17.3c0-1.6-0.5-3.3,0.9-4.7c0,5.8,0,11.6,0,17.4
		C175.8,326.8,176.4,328.5,174.8,329.8z"/>
	<path class="st34" d="M392.9,279.8c6,2.3,10.8,6.5,15.5,10.5c12.4,10.4,24.7,20.8,35.2,33.4c5.8,7,12.1,13.4,15.2,22.1
		c6.3,14.5,5.4,29.2,1.9,44.1c-0.4,1.8-0.4,4-2.5,5c-2.8-2.5-0.9-5.4-0.2-7.9c3.1-12.6,3.4-25.1-1.1-37.5c-0.7-1.9-1.5-3.7-2.4-5.4
		c-7.8-13.8-19-24.7-30.4-35.4c-9.1-8.5-18.8-16.3-28.6-24.1c-1.1-1.5-3.1-2.4-2.6-4.7L392.9,279.8z"/>
	<path class="st35" d="M384.9,443.9c1.3-1,2.7-2,4-3.1c2.1-3.2,5.8-3.7,9-4.8c8.2-2.7,16.3-5.4,24.5-8.2c8.8-3,15.9-8.7,23.4-13.8
		c1.5-0.7,2.7-2.1,4.4-2.4c0.2,0.1,0.5,0.2,0.7,0.2c-0.6,3.7-4.5,4.9-6,8c-8.4,4.8-16.4,10.3-25.9,13
		C407.5,436.1,396.5,441.2,384.9,443.9z"/>
	<path class="st35" d="M457.8,394.8c5.9-13.5,6.7-27.3,3-41.4c-0.6-2.5-2.1-4.9-2-7.6c3.3,3.7,4.1,8.5,4.5,12.9
		c1.7,18.2-0.4,35.8-10.8,51.5c-0.4,0.7-1.2,1.1-1.8,1.7c0,0,0,0,0,0c-1.5-3.7,2.2-5.6,3-8.5c0.2-0.4,0.4-0.8,0.6-1.2
		c1.3-2.1,1.6-4.7,2.9-6.8C457.5,395.1,457.6,395,457.8,394.8z"/>
	<path class="st23" d="M199.8,469.9c17.5,1,35,2.6,52.6,2c9.1-0.3,18.2-1,27.2-1.9c2.7-0.3,5.6-1.1,8.2,0.8
		c-22.7,2.7-45.4,2.5-68.2,1.8C213.2,472.3,206.1,473.6,199.8,469.9z"/>
	<path class="st23" d="M289.9,469.9c7.6-1.3,15.1-2.7,22.7-4c2.8-0.5,5.5-1.3,8.3-1c-6.2,2.4-12.9,2.8-19.4,4c-1,0.2-2,0.1-2.6,1
		C295.8,469.8,292.9,469.8,289.9,469.9z"/>
	<path class="st36" d="M70.8,383.8c0-19.7,0-39.3,0-59c1.4-3.1,1.7-6.5,1.9-9.8c0.1-2,0.4-3.9,2-5.2c2.4,2.9,1.1,6.4,1.3,9.6
		c0,0.6-0.1,1.2-0.3,1.8c-1.7,10.3-3.2,20.6-1.8,31.2c0.6,4.1,0.2,8.3,0.3,12.5c0.2,13.5-0.2,26.9,1,40.4c0.4,5,0.7,5.7,5.6,5.2
		c16.1-1.7,32.2-2.3,48.3-4.1c15.2-1.7,30.6-2.1,45.8-3.9c15.7-1.9,31.5-2.5,47.3-3.9c23.9-2.2,47.7-4.2,71.6-6.2
		c22.9-1.9,45.8-4,68.7-5.6c18.3-1.3,36.4-3.5,54.7-4.4c8.5-0.5,16.9-1.9,25.3-2.5c5.6-0.4,8.3-3.6,9.4-8.7
		c1.9-8.8,0.4-17.3-3.1-25.4c-2.5-5.8-6-11.1-10.5-15.7c-6.9-7.2-13.4-14.8-20.7-21.7c-1.2-1.1-2.4-2.4-3-4c-0.2-0.5-0.1-1,0.2-1.5
		c2.2-1,3.4,0.7,4.7,1.9c8.4,8.1,16.6,16.4,24.5,24.9c4.9,5.2,7.2,12,11.6,17.4c0.9,1.6,1.4,3.4,1.5,5.2c-0.1,1.9,0.4,3.8,0.9,5.7
		c1.9,10.8,0.6,21.2-4.6,30.9c-4.8,9-11.9,13.7-22.4,13.8c-13.1,0.1-26.2,2.4-39.3,3.3c-18.9,1.2-37.8,3.6-56.7,4.7
		c-12.3,0.8-24.5,2.5-36.8,3.3c-18.9,1.2-37.8,3.6-56.7,4.7c-17.3,1.1-34.5,3.1-51.7,4.2c-19.3,1.3-38.4,3.7-57.7,4.8
		c-12.3,0.7-24.5,2.1-36.8,3.4c-6.6,0.7-13.3,0.8-19.9,1.3c-6.7,0.5-8.9-2.1-8.9-8.9c0-4.5,1-9,2-13.3
		C70.5,401.4,70,392.6,70.8,383.8z"/>
	<path class="st37" d="M256.8,61.8c0,2,0,4,0,6c-1.3,2.7-2.7,5.3-4,8c-0.2-0.2-0.4-0.4-0.6-0.6c-0.9-1.8-0.1-3.6,0.1-5.4
		c0.7-7-1.6-10.3-8.2-12.9c-8.3-3.2-17.3-3-25.7-5.8c-5.7-1.9-11.5-3.6-17.3-4.8c-14.9-3.2-29-1.4-41.6,8.2
		c-11.9,9.1-19.3,21.3-24.3,35.2c-1.6,4.5-1.7,9.5-2,14.2c-0.2,3.3-0.3,6.7,0,10c1.8,23.8-3.7,46.1-13.2,67.8
		c-4,9.1-7.7,18.4-11.2,27.7c-1.3,2.1-1.3,5.5-5,5.4c-0.2-5.4,3.1-9.8,5-14.4c4.8-11.8,9.5-23.7,13.8-35.7c4-11.2,7.4-22.6,6.3-34.9
		c-0.6-6.6,0.1-13.3-0.1-20c-0.7-24.7,10.5-44,28.9-58.8c13.1-10.5,29.2-12.9,45.8-8.4c11.2,3,22.5,5.1,33.4,9c1.8,0.6,4,0.2,6,0.2
		C249.5,52.4,254.8,54.9,256.8,61.8z"/>
	<path class="st38" d="M103.8,214.8c2.3-0.9,2.2-3.7,4-5c0.2,0.2,0.3,0.4,0.5,0.6c0.4,5.3-3.3,9.1-4.8,13.7c-0.9,2.6-2.4,5-2.8,7.8
		c-2.7,7-4.9,14.2-7.9,21.1c-2,5.1-4,10.2-5,15.6c-0.7,2.4-1.2,4.8-2,7.1c-1.4,3.6-2.3,7.4-2.9,11.3c-0.1,0.5-0.2,1-0.3,1.4
		c-1.3,4.5-2.5,9-2.7,13.8c-0.1,0.5-0.2,1-0.3,1.5c-1.2,4.1-1.1,8.4-2.2,12.5c-0.4,1.4,0,3.5-2.4,3.6c0-3.3,0-6.7,0-10
		c0.3-11.5,4-22.4,6.9-33.4c2.9-11.1,6.3-22.2,10.4-32.9C95.7,233.9,98.7,223.9,103.8,214.8z"/>
	<path class="st39" d="M256.8,61.8c-3.5-5-8-8.6-14-10c-1-0.7-2-1.3-3-2c3-0.7,5.3,1.8,8.1,1.9c3.8,0.2,6,3.3,8.8,5.2
		C256.8,58.5,256.8,60.2,256.8,61.8z"/>
	<path class="st40" d="M455.9,351.8c-0.3-1.7-0.7-3.3-1-5c-0.8-1.3-1.2-2.7,0-4c6,9.9,7.7,20.7,6.4,32c-0.8,6.7-2.3,13.3-3.5,20
		c0,0,0,0,0,0c-1.3,2.5-2,5.4-3,8l0,0c-2.8,3.9-4.8,8.4-8.1,12c-5.6,3.5-10.5,8-16.6,10.9c-9.7,4.6-20.1,7.5-30.2,11
		c-3.7,1.3-7.4,2.7-11.1,4c-3.5-0.4-6.3,1.7-9.3,2.8c-1.9,0.7-3.7,1.4-5.7,1.3c-7,0.2-12.9,4.2-19.2,6.4c-12.6,4.5-25.4,8-38.5,10.5
		c-14.1,2.7-28.3,4.9-42.8,5.4c-19.9,0.7-39.7,0.9-59.6,0c-13.8-0.6-27.3-3.1-40.9-4.5c-21.5-2.2-42.9-3.7-64.5-3.7
		c-8.7,0-17.3,2.4-26.2,2c-9.7-0.4-19.3-8.2-20.1-17.9c-0.4-4.3-1.3-8.9,0.8-13.2c1.9,1.9,1.5,4.4,1.3,6.6
		c-0.6,9.3,7.1,18.3,18.7,16.5c14.4-2.2,29.2-2.3,43.8-3.5c18.2-1.5,36.5-3.1,54.7-4.7c17.1-1.5,34.2-2.7,51.2-4.4
		c21.9-2.1,43.8-3.9,65.7-5.6c21.9-1.7,43.8-3.8,65.7-5.5c17.7-1.4,35.5-2.7,53.1-6.1c20.7-4,32.6-16.7,38.6-36
		C459.3,375.3,460.6,363.6,455.9,351.8z"/>
	<path class="st41" d="M70.8,383.8c0.3,12.3,0.2,24.5-2.9,36.6c-0.4,1.6-0.1,3.3-0.1,5c-0.1,3.8,1.6,5.7,5.4,5.4
		c10.2-0.7,20.5-1.3,30.7-2.2c8.9-0.8,17.7-2.3,26.6-2.7c15.1-0.6,30-2.9,44.9-3.8c10.1-0.6,20.1-1.5,30.2-2.3
		c15.5-1.2,31-2.5,46.4-3.8c8.2-0.7,16.5-1.4,24.7-2.1c14.5-1.2,29-2.1,43.5-3.8c9.8-1.2,19.8-1.4,29.7-2.2c14-1.2,28-2.6,42-3.8
		c8.4-0.8,16.8-1.4,25.2-2.2c6.3-0.6,12.6-0.5,18.8-1.2c10.7-1.1,15.4-9.4,18.8-18.4c3.2-8.2,3-16.8,2-25.4c3,1.2,2.3,4.1,2.4,6.3
		c0.4,7,0.2,14-2,20.7c-1.4,4.8-3.3,9.4-5.7,13.8c-6.3,11.8-16.5,17-29.4,17.6c-14.1,0.7-28.2,2.4-42.3,3.6
		c-11.1,0.9-22.2,1.7-33.4,2.4c-14.3,0.9-28.5,2.7-42.8,3.6c-18.6,1.1-37.1,3.4-55.7,4.7c-12.6,0.8-25.2,2.5-37.8,3.4
		c-18.3,1.2-36.4,3.4-54.7,4.6c-13.1,0.8-26.2,2.7-39.3,3.4c-14,0.7-27.8,3.3-41.8,3.5c-7.9,0.1-10.2-2.5-10.7-10.4
		c-0.5-7.3,1.9-14.1,3-21C68.2,403.2,69.5,393.5,70.8,383.8z"/>
	<path class="st42" d="M66.8,412.8c0.3,4.7-0.8,9.2-1.5,13.8c-0.4,2.7-0.6,5.3-0.4,7.9c0.5,6.6,2.4,8.4,9,8.2
		c9.8-0.3,19.5-1.2,29.1-2.7c5.5-0.8,11.2-0.8,16.8-1.1c14.9-0.8,29.6-3.3,44.5-3.8c13.8-0.5,27.4-2.5,41.1-3.4
		c12.8-0.9,25.8-1.4,38.5-3.6c5.2-0.9,10.6-0.8,15.9-1c18.6-0.7,36.9-3.4,55.4-4.5c20.6-1.2,41.2-3.5,61.9-4.9
		c15.8-1.1,31.6-3,47.5-4c15.8-1,24.7-11.5,30.2-25.3c0.6-1.5,0.6-3.3,2-4.5c0.7,1,0.7,2,0,3c-4.7,17.7-14.4,31-32.9,35.9
		c-13.6,3.6-27.5,5.4-41.6,6.2c-13.3,0.7-26.6,2.9-40,3.6c-9.1,0.5-18.1,1.6-27.2,2.3c-13.8,1.1-27.7,1.9-41.5,3.7
		c-9.7,1.2-19.5,1.5-29.2,2.3c-14.3,1.2-28.6,2.6-43,3.8c-8.4,0.7-16.8,1.5-25.2,2.1c-14.7,1.1-29.3,2.1-44,3.8
		c-4.7,0.5-9.6,0.9-14.3,1.1c-12.7,0.6-25.4,1.5-38.1,3.1c-8.3,1-17-6.6-17.2-15c-0.1-3.3,0-6.7,0-10
		C61.7,423.6,65.3,418.5,66.8,412.8z"/>
	<path class="st43" d="M182.8,161.8c-4.2,5.7-4.4,12.8-5.8,19.3c-3.3,15.1-3.2,30.6-3.3,46c-0.2,20.8-0.1,41.6-1.2,62.3
		c-1,18.8-1.7,37.7-2.9,56.5c-0.3,4.6-1.9,9.2-1.8,14c0.1,4.4,1.2,8.3,5.4,9.6c4.3,1.4,8.1-0.5,10.3-4.8c0.9-1.7,2.2-3.3,3.3-4.9
		c2,3.3-0.2,5.8-2,8.1c-4.3,5.8-10.6,9.1-16.9,12.1c-3.5,1.7-6.2,0.2-7.6-4.1c-7.2-21.3-13.1-42.6-8.3-65.5c2.9-14,6-28,7.7-42.3
		c3-25.3,5.6-50.6,8.7-75.9c1.6-12.6,3.9-24.9,10.2-36.3c4.6-8.2,10.9-14.1,19.5-17.8c0.8-0.3,1.7-0.4,2.5-0.4
		c0.9,0.1,1.7,0.3,2.2,1.1c-7.8,3.8-15,8.2-18.7,16.8C183.3,157.8,182.8,159.6,182.8,161.8z"/>
	<path class="st37" d="M252.9,75.9c-3.1,6-5.3,11,3.3,15.4c5.8,2.9,3.9,9.3,1.7,14.6c-4.7,5.9-11.9,8.1-18,11.8
		c-3.2,2-6.1,4.6-10,5.2c-0.7,0.5-1.4,0.6-2.1,0.1c-0.2-2.9,2.2-3.5,4-4.4c6.4-3.2,12.2-7.3,18.8-10.3c2.6-1.2,4.5-3.3,5.4-6.2
		c1.3-4.3-0.4-7.7-4.8-8.6c-5.5-1.2-11.1-1.9-16.8-0.4c-1.3,0.3-2.6,0.6-3.9,0.7c-1.5,0.1-3.2,0.2-3.8-1.5c-0.6-1.6,0.3-3,1.5-3.9
		c2.5-2,5.4-3.4,8.4-4.3c5.1-1.5,10.2-2.9,13.7-7.4C250.7,75.8,251.7,75.4,252.9,75.9L252.9,75.9z"/>
	<path class="st44" d="M227.8,122.8c0.7,0,1.3,0,2,0c-4.8,5.5-11.7,8.1-17.7,11.9c-2.8,1.7-5.4,4.5-9.3,4.2c-0.7,0-1.3,0-2,0
		c0-2.6,2.4-2.7,3.9-3.8c6.6-2.6,12.2-7,18.3-10.6C224.5,123.5,225.8,122,227.8,122.8z"/>
	<path class="st44" d="M198.9,138.9c-16.9,8.2-23.9,23.2-26.9,40.4c-3.6,20-5.1,40.3-7.3,60.5c-2.6,24.5-6.5,48.7-11.4,72.9
		c-3.1,15.3-2,30.7,3.2,45.6c2,5.8,3.5,11.7,5.3,17.6c1.1,3.8,3.3,4.9,6.7,2.7c5-3.2,10.6-5.7,14.6-10.3c2.1-2.4,3.8-5,3.9-8.4
		c1.3-3,2.7-6,4-9c1.7-2.1,2.3-4.9,4-7l0,0c1.3-2.4,2.6-4.7,4-7l0,0c1-2.2,2.6-4,4-6l0,0c10-14.5,21.1-28,35-39c1.7-1.3,3.3-2.7,5-4
		c8.5-6.6,17.9-11.6,27.6-16.1c1.8-0.8,3.6-1.6,5.6-1.7c0.8,0,1.5,0.3,2,1.1c-1.5,3.6-5.1,4-8,5.3c-16.2,7.2-30.3,17.4-42.4,30.2
		c-15.3,16.3-27.4,34.7-36,55.4c-4.6,11-12.5,18.7-22.5,24.6c-6,3.5-11.6,1.4-13.1-5.4c-2.4-11.2-5.9-22.2-8.2-33.5
		c-2.4-11.9-1.5-23.8,0.1-35.8c2-15.2,6.7-29.9,8.1-45.1c1.5-17,4-34,5.6-51c0.7-7.2,1.4-14.6,3.2-21.7c2.1-9.5,2.6-19.4,6.3-28.6
		c4.3-10.7,9.8-20.3,20.2-26.2c1.2-0.7,2.4-1.2,3.7-1.5C196.5,137.7,197.8,137.7,198.9,138.9z"/>
	<path class="st45" d="M237.8,291.8c-1.7,2.9-4.3,5.1-6.8,7.2c-7.7,6.2-13.7,13.8-19.6,21.6c-2.7,3.5-5,7.4-8.5,10.2
		c2.1-6.5,7.1-11.1,11.1-16.3c6.2-8,13.3-15.3,21.3-21.5C235.9,292.5,236.9,292.2,237.8,291.8z"/>
	<path class="st45" d="M275.8,270.8c-8.8,2.5-16.5,7.2-24.2,11.8c-2.9,1.7-5.3,4.4-8.8,5.2c7.7-8.2,17.8-12.4,27.7-16.9
		c2.9-1.3,5.9-3,9.3-3.1C280.1,270.9,277,269.6,275.8,270.8z"/>
	<path class="st25" d="M174.8,249.9c0,14.8,0,29.5,0,44.3c0,1.6,0.5,3.4-1,4.7c0-14.6,0-29.2,0-43.8
		C173.9,253.3,173.2,251.3,174.8,249.9z"/>
	<path class="st25" d="M175.8,220.9c0,7.8,0,15.6,0,23.3c0,1.6,0.5,3.4-1,4.7c0-7.8,0-15.6,0-23.4
		C174.9,223.9,174.3,222.2,175.8,220.9z"/>
	<path class="st46" d="M275.8,270.8c1.3-1,2.7-2,4-3c0-0.3,0-0.6,0-0.9c1.3,0,2.6,0,3.9-0.1c1.9-1,3.8-1.4,5.7-0.3
		c-1.4,3.5-7,5.5-11.6,4.3C277.2,270.8,276.5,270.8,275.8,270.8z"/>
	<path class="st25" d="M173.8,299.9c0,7.1,0,14.2,0,21.3c0,1.6,0.5,3.3-0.9,4.7c0-7.1,0-14.2,0-21.3
		C172.9,302.9,172.3,301.2,173.8,299.9z"/>
	<path class="st25" d="M176.8,197.8c-0.5,6,1.1,12.1-1,18C176.4,209.9,174.6,203.7,176.8,197.8z"/>
	<path class="st25" d="M178.9,183.8c-0.1,4.7-0.6,9.4-2,14C176.8,193.1,176.6,188.3,178.9,183.8z"/>
	<path class="st43" d="M198.8,336.8c0,3.1-1.8,5.2-4,7C194.8,340.7,196.2,338.4,198.8,336.8z"/>
	<path class="st43" d="M194.8,343.8c-0.7,2.7-1,5.6-4,7C190.9,347.8,192.1,345.4,194.8,343.8z"/>
	<path class="st25" d="M180.8,173.9c0.2,3.5-0.6,6.8-2,10C178.7,180.4,178.9,176.9,180.8,173.9z"/>
	<path class="st43" d="M202.8,330.8c-0.6,2.5-1.9,4.5-4,6C198.6,333.8,200.7,332.3,202.8,330.8z"/>
	<path class="st47" d="M289.8,266.8c-2,0-4.1,0-6.1,0c2.5-3,6.3-3.3,9.5-3.6c18.9-1.8,37.8-2.3,56.5,1.6c2.7,0.6,5.1,2.6,8.1,2.1
		c8.8,2.6,17.5,5.6,25.7,9.8c1.2,0.6,3.7,0.9,2.8,3.6c-2.3,1.1-4.2-0.3-6.1-1.1c-18.5-8.2-38-12.2-58.1-14.2
		c-10.8-1.1-21.1,0.9-31.6,2.1C290.4,266.9,290.1,266.9,289.8,266.8z"/>
	<path class="st48" d="M386.9,279.8c-5.6-4.5-12.4-6.7-19-8.9c-3.4-1.2-6.9-2.2-10-4c8.1,0,14.8,4.4,21.9,7.2
		c3.5,1.3,7.4,2.6,10.1,5.8c-0.2,0.2-0.3,0.3-0.5,0.5c-0.7,0.3-1.3,0.3-2,0C387.2,280.2,387,280,386.9,279.8z"/>
	<path class="st48" d="M392.8,279.9c1,1.3,2,2.6,3,3.9c-0.5,0.5-1.1,0.6-1.8,0.5c-0.4-0.1-0.8-0.3-1.2-0.5c-1.2-1.1-3.4-1.6-3-3.9
		c0,0,0.1-0.1,0.1-0.1C390.8,279.8,391.8,279.9,392.8,279.9z"/>
	<path class="st47" d="M393.9,283.8c0.7,0,1.3,0,2,0c14.3,10.3,27.7,21.7,39.8,34.5c7.1,7.5,15.1,14.6,19.2,24.5c0,1.3,0,2.7,0,4
		c-0.9-0.8-2.1-1.4-2.5-2.3c-6.2-13.7-17.7-23-27.8-33.5c-2.8-2.9-5.8-5.5-8.7-8.2c-5.2-2.4-8.7-7-13.3-10.3
		c-1.9-1.3-3.7-2.8-5.8-3.8c-0.6-0.3-1.1-0.8-1.6-1.3C394.4,286.4,393.2,285.4,393.9,283.8z"/>
	<path class="st34" d="M446.8,414.8c2.2-4.3,4.3-8.7,8.1-12c-0.1,3.5-3.8,5.5-4,9C449.5,412.8,448.1,413.8,446.8,414.8z"/>
	<path class="st34" d="M454.8,402.8c-0.1-3.1,0.9-5.7,3-8C457.5,397.8,457,400.6,454.8,402.8z"/>
	<path class="st38" d="M395.8,286.9c0.3,0.3,0.7,0.7,1,1c6.3,4.7,12.6,9.3,18,15c4.1,4.3,8.5,8.5,12.4,13c7.5,8.6,16.4,16,21.6,26.5
		c4.6,9.3,6.7,19,4.5,29.2c-1.8,8-4.1,9.8-14,10.2c-13.9,0.6-27.7,2.6-41.6,3.3c-17.3,0.9-34.5,3.9-51.9,4.6
		c-14.8,0.6-29.4,2.6-44.1,3.5c-12.7,0.7-25.4,1.3-38,3.5c-5,0.9-10.2,0.7-15.4,1.1c-15.5,1-30.9,3.4-46.5,4
		c-13.6,0.6-27,2.4-40.6,3.4c-12.7,0.9-25.4,1.9-38,3.5c-9.5,1.2-19.1,1.7-28.7,2.2c-5.3,0.3-10.6,0.9-15.8,1.5
		c-3.6,0.4-4.8-0.3-5-3.9c-1-15.9-0.9-31.8-1-47.6c0-3.5-0.3-7-0.5-10.4c-0.6-9.9-0.4-19.8,2.5-29.4c2.4,3.2,1,6.9,1.4,10.4
		c-0.1,12.6-0.3,25.3,1.9,37.8c1.1,6.2,1.6,6.8,7.8,6.3c18.2-1.3,36.5-2.3,54.6-4.8c5.4-0.7,6.2-1.7,5.7-7.1
		c-0.6-6.5-2.1-12.8-3-19.2c-1.5-9.7-0.6-19.2,0.9-28.8c3.1-20.1,8.2-39.8,10.1-60.1c2.1-21.7,4.7-43.3,7.3-65
		c1.8-14.9,4.9-29.2,13.7-41.8c5.8-8.3,13.3-13.9,23.5-15.5c5.9-0.9,11.1-3.5,16-6.7c10-6.6,20.5-12.4,31-18.2c1.7-1,3.5-2,5-3.3
		c1.7-1.4,3.3-3,2.8-5.5c-0.6-2.6-2.8-3.2-4.9-3.5c-5.7-1-11.3,0.1-16.7,1.5c-3.5,0.9-6.9,2.5-10.4,3.7c-1.9,0.6-4,1.1-5.5-0.8
		c-1.7-2.2-0.3-4.1,1-5.8c1.3-1.7,3-3.1,4.4-4.8c2.3-2.6,5.2-4.2,8.1-5.9c3.7-1.4,7.3-3.2,11.1-4.3c6.7-1.9,10.5-6.9,9.9-12.5
		c-0.5-4.4-6.1-9.1-11.8-9.9c-0.7-0.1-1.3-0.1-2-0.1c-0.5,0-1-0.1-1.5-0.2c-12.2-0.9-23.6-5.2-35.2-8.8c-15.4-4.9-29.3-0.5-41.3,9.6
		c-11.9,10-19.7,22.8-22.7,38.3c-0.6,3.2-0.6,6.3-0.7,9.4c-0.4,11.6,0.4,23.2-0.7,34.9c-1.1,11.3-4.8,21.7-9.1,32
		c-4.3,10.5-8.2,21.1-12.7,31.4c-1,2.4-1.2,5.7-4.9,6.2c0,0,0,0,0,0c0.7-7,4.8-12.6,7.1-19c4.2-11.5,9.4-22.6,12.9-34.4
		c4.7-15.3,4.5-31.2,3.9-46.9c-0.6-15.4,4.1-29,12.9-41.5c8.3-11.8,19-20.6,33.3-23.6c7.6-1.6,15.6-1.8,23.2,0.4
		c12.2,3.6,24.5,7,37.1,9c2.9,0.5,5.8,1.4,8.5,2.6c6.1,2.8,8.2,7.6,6.9,14.4c-0.3,1.6-0.6,3.3-0.8,4.9c-4.5,5.1-10.1,8.3-16.8,9.6
		c-2.4,0.4-4.5,2.1-6.7,3.3c-1.3,0.7-2.4,1.8-1.9,3.1c0.6,1.7,2.2,0.8,3.4,0.5c5.8-1.3,11.6-1.9,17.7-0.8c4.8,0.9,8.5,2,9.3,7.2
		c0.6,4.1-3.2,9-7.7,11.2c-7.6,3.9-15.4,7.6-22.3,12.9c-5.3,3.3-10.6,6.6-15.8,9.9c-2.2,1.4-4.5,2.7-7.2,3.1c-3.2,1.4-6.6,2.2-10,3
		c-1,0.3-2,0.7-3,1c-10.1,5.1-15.4,14.2-19.5,24.1c-4,9.6-5.2,19.7-6.5,29.9c-2,14.7-3.4,29.5-5.2,44.3c-2.6,22-5.1,44-10.1,65.6
		c-4.6,19.8-4.2,39.8,2.4,59.4c1.8,5.5,2.7,11.3,3.9,16.9c1.4,6.7,6.1,8.4,12.3,5c13.4-7.4,19.7-20,25.6-33.1
		c6.6-14.6,15.7-27.5,26-39.8c15.3-18.3,34-31.4,55.9-40.3c0.4-0.2,0.7-0.7,1.1-1c4.3-0.4,8.1-2.5,12-4c0,0,0,0,0,0
		c30.5-5.7,59.7-0.7,88,10.8C384.1,280.1,391,281.6,395.8,286.9z"/>
	<path class="st47" d="M456.8,386.8c0-1,0-2,0-3c0.5-6.2,2.6-12.2,2.1-18.6c-0.3-3-0.5-5.8-2.1-8.4c-1.7-1.4-0.8-3.3-1-5
		c3.3,1,3.3,4.3,3.5,6.5C460.1,367.9,461.2,377.6,456.8,386.8z"/>
	<path class="st49" d="M74.9,331.8c0-3.7,0-7.3,0-11c0-0.3,0-0.7,0-1c2.3-4.7,1.7-10,3-14.8c0.2-0.8,0.6-1.4,1-2.2
		c1.4,1.3,1.6,3,1.3,4.6c-1,7.6-0.7,15.3-2.5,22.7C77.1,331.4,76.3,332.2,74.9,331.8z"/>
	<path class="st41" d="M414.8,302.8c-6.1-4.8-12.5-9.4-18-15c7.6,3.5,13.2,9.3,19,15C415.5,302.8,415.2,302.8,414.8,302.8z"/>
	<path class="st50" d="M76.8,330.8c0.7-9.3,1.3-18.7,2-28c0,0,0,0,0,0c0.8-5,1.8-10,3-15l0,0c1-4,1.8-8.1,3-12c0.2-2.5,0.7-4.9,2-7
		c1.4-5.4,3.6-10.6,5-16c2.5-7.1,4.5-14.3,8-21c6.6-16,13.9-31.6,20.2-47.7c4-10.4,8.8-20.5,11.8-31.2c4.3-15.6,3.6-31.6,3.6-47.5
		c0-10.5,2.1-20.2,7.4-29.1c9.8-16.6,22.7-29.1,43.2-30.7c6.9-0.6,13.6,0.6,19.7,4.2c4.7,2.8,5.8,5.5,4.6,10.2
		c-5.1,3.3-11.1,3.1-16.8,4c-6.2,1-9.1,3.9-9,10.3c0.1,5.7,0.9,11.3,3.9,16.3c4.3,7.2,6.1,15,6.7,23.2c-0.5,4.2-3.2,6.9-6.4,9.1
		c-3.6,2.4-6.1,5.5-7.9,9.4c-0.9,1.8-1.7,3.7-3,5.2c-11.2,13.1-15.3,29.3-19.3,45.5c-6.6,26.8-13,53.7-18.2,80.8
		c-3,15.5-6.3,30.9-7.2,46.8c-0.7,11.8-2.4,23.9-8.7,34.5c-1.9,3.2-4.4,5.9-6.4,8.9c-5.5,7-12.8,11.4-21.1,14.3
		c-5.3,1.8-10.1,0.9-13.8-3.8c-2.4-3.8-3.5-8.1-5.8-11.9C75.6,345.3,75,338.1,76.8,330.8z"/>
	<path class="st51" d="M209.8,59.8c-0.1-6.4-6.6-12-14.5-13c-18.1-2.3-31.9,4.5-43.6,18.2c-10.5,12.5-15.5,26.1-15.1,42.4
		c0.4,16.2,0.1,32.6-4.8,48.3c-3.9,12.4-9.3,24.2-14.2,36.1c-5.1,12.4-10.5,24.7-15.9,37.1c-0.4,1-1.3,1.9-1.9,2.9
		c0.1-5.9,4.1-10.3,5.8-15.5c0.7-2.2,2.4-4,2.2-6.5c5.1-7.7,7.5-16.6,10.9-25c4.3-10.6,9.1-21,12.2-32.1c4.1-14.7,2.9-29.7,2.8-44.6
		c0-8.1,1-16,4.1-23.4c8.5-20.4,22-35.5,44.9-39.6c7.3-1.3,14.5-0.1,21.5,2.7c9.4,3.8,19,6.9,29.3,7.2c0.8,0,1.5,0.6,2.3,0.9
		c0.3,1.4-0.7,1.8-1.7,1.9c-6,0.6-10.6,2.8-12.2,9.2C217.8,64.8,214.4,61.3,209.8,59.8z"/>
	<path class="st49" d="M91.8,252.8c-0.6,5.7-2.5,10.9-5,16C87.1,263.1,89.4,257.9,91.8,252.8z"/>
	<path class="st49" d="M81.8,287.8c-0.2,5.2-1.2,10.2-3,15C78.6,297.6,79.7,292.6,81.8,287.8z"/>
	<path class="st49" d="M84.8,275.8c-0.2,4.2-1.2,8.2-3,12C81.8,283.6,82.6,279.5,84.8,275.8z"/>
	<path class="st37" d="M194.8,138.8c3.1-1.8,6.4-3,10-3c-1.3,1-2.7,2-4,3c-0.7,0-1.3,0-2,0C197.5,138.8,196.2,138.8,194.8,138.8z"/>
	<path class="st37" d="M165.8,193.8c0.4-17,4.6-32.8,15.2-46.4c2.8-3.6,6.3-6.4,10.8-7.6c-5.9,4.5-11.2,9.5-14.9,16.2
		c-5,8.9-7.6,18.3-9.1,28.2C167.3,187.5,167.4,190.9,165.8,193.8z"/>
	<path class="st46" d="M395.8,286.9c-11.3-5.9-22.9-11.2-35.2-14.6c-20.1-5.6-40.5-8.1-61.3-5.6c-3.1,0.4-6.3,0.1-9.5,0.2
		c9.8-3,19.6-4.6,30-3.4c8.4,0.9,16.6,2.3,24.9,3.3c8.8,1.1,17.1,4.4,25.5,6.8c5.7,1.7,10.6,5.4,16.5,6.3c0,0,0,0,0,0
		c2.3,1.4,4.7,2.5,7,4c0,0,0,0,0,0C394.5,284.8,395.2,285.8,395.8,286.9z"/>
	<path class="st47" d="M393.9,283.8c-2.7-0.7-5.4-1.5-7-4c1,0,2,0.1,2.9,0.1C391.1,281.2,392.5,282.5,393.9,283.8z"/>
	<path class="st52" d="M330.2,302.9c-19.5-0.4-36.3,1.2-52.8,4.9c-9.6,2.2-18,7.7-27.1,11.2c-3.9,1.5-7.7,3.1-11.7,4.3
		c-3.9,1.2-7.6,0.8-10.3-2.7c-2.7-3.5-0.7-6.8,1.1-9.6c6.8-10.5,16.5-17.9,26.9-24.5c10-6.4,20.5-11.8,32.1-14.5
		c13.7-3.2,27.6-2.6,41.5-1.3c12.4,1.2,24.5,3.8,36.2,8.1c4.3,1.6,8.2,3.7,11.4,6.9c4.9,5,3.7,9.3-2.8,12.1
		c-6.4,2.8-13.2,3.4-19.8,3.9C345.9,302.3,336.8,303.8,330.2,302.9z"/>
	<path class="st51" d="M76.8,330.8c0.2,7.4-0.9,14.9,2,22c1,4,2,7.9,5,11c3.4,3.9,7.6,4.9,12.5,3.3c8-2.6,14.6-7.4,20.5-13.3
		c4.7-5,8.4-10.7,11.2-16.9c1.6-3.6,3.8-7.1,7.8-8.7c1.5-0.6,2.2-1.9,2.4-3.5c2.6-16.9,7-33.5,9.5-50.5c2.8-18.9,4.6-38,6.7-57
		c2.2-19.1,3.2-38.5,10.4-56.8c6.2-15.7,15.4-28,33.4-30.9c5.3-0.9,10.3-3,14.6-6.1c9.7-6.9,20.3-12.1,30.6-17.9
		c0.7-0.4,1.5-0.7,2.2-1.2c1.2-0.8,3-1.5,2.6-3.3c-0.5-2.1-2.6-1.8-4.2-1.7c-5.1,0.4-10.3,1-15,3.4c-3.3,1.7-6.5,3.4-9.8,4.9
		c-5.9,2.6-8.2,1.2-8.7-5.3c0.9-5.9,5.4-9,9.6-12.5c0.8-0.6,1.8-0.7,2.7,0c-1.9,2.1-3.8,4.1-5.6,6.4c-0.8,1-1.8,2.2-0.7,3.6
		c1,1.3,2.3,0.9,3.6,0.4c3.9-1.5,7.7-3.2,11.7-4.2c5.9-1.5,11.8-2.8,18.1-1.4c2.9,0.6,4.5,1.9,5.4,4.4c1,2.9-0.9,4.7-2.7,6.4
		c-3.7,3.5-8.5,5.2-12.8,7.7c-8.7,5.1-17.5,10.1-26.1,15.6c-4.1,2.7-8.6,5-13.7,5.6c-13.8,1.6-21.9,10.7-28,22.1
		c-5.8,10.7-7.8,22.5-9.2,34.4c-2,16.6-4.2,33.1-5.9,49.7c-1.1,11.2-2.6,22.3-3.9,33.5c-1.4,12-4.4,23.8-6.6,35.6
		c-3.2,16.4-2.9,32.5,0.4,48.7c2.6,12.9,1.6,13.6-11.2,14.7c-17.3,1.4-34.6,2.8-51.9,4.2c-4.5,0.4-5.9-1.3-6.4-4.6
		c-1-6.5-2-13.1-2.4-19.7c-0.4-7-0.1-14-0.1-21C75.5,331.5,76.2,331.2,76.8,330.8z"/>
	<path class="st50" d="M222.8,89.8c-5,2.7-9.2,6.3-11,12c-0.8,0.8-0.5,1.9-0.7,2.8c-0.5,2.7-1.1,5.5-4.4,5.8
		c-3.5,0.3-4.1-2.7-4.9-5.3c-0.4-4.3,1.3-7.9,3.9-11c7-8.2,14.2-16.2,16-27.4c1.8-8.1,2.8-9.1,11.4-10c1-0.1,2-0.1,2.6-1
		c0.3,0,0.7,0,1,0c5.3,0.8,9.3,3.5,10.8,8.8c1.6,5.6-1.3,9.6-5.4,12.9c-3.7,3.1-8.6,4.4-12.4,7.3C227.5,86.5,225.2,88.2,222.8,89.8z
		"/>
	<path class="st51" d="M229.8,84.8c2.7-3.5,7.1-4.7,10.5-7.2c5.8-4.2,8-9.1,5.9-13.8c-1.8-4-5.4-6.3-9.4-8c6.3-0.3,10.8,3.1,14,7.8
		c2.4,3.6,1,7.6-1.1,11.2c-1.5,2.6-3.8,4.1-6.5,5.1C238.9,81.7,234.3,83.3,229.8,84.8z"/>
	<path class="st53" d="M81.8,326.3c-0.5-30.1,6.9-56,17-81.2c10.9-27.4,24.1-54,34.3-81.7c5.3-14.3,8.4-28.9,8.8-44.1
		c0.2-9.9-1.8-20.2,1.1-29.8c5.4-17.9,15.7-32.1,34.1-38.7c4.6-1.6,9.5-2.8,14.6-1c1.5,0.5,3.2,0.8,3.3,2.5c0.1,1.8-1.8,1.5-3.1,1.7
		c-13.8,2.9-16.8,11.4-13.8,25.7c1.8,8.7,6.4,16.3,8.9,24.8c1.5,5.4-0.2,8.9-4.2,11.6c-4.3,2.9-7.1,6.8-9.4,11.3
		c-2.3,4.4-5.5,8.3-8.1,12.5c-10.6,17.5-14.5,37.3-19.4,56.8c-4.6,18.4-8.7,37.1-12.4,55.7c-4.3,21.9-9.7,43.5-10,66.1
		c-0.2,15.6-5.5,29.6-19.1,39.1c-0.8,0.6-1.6,1.1-2.5,1.6c-10.6,5.8-14.4,4-17.5-7.8C82.1,342.3,81.3,333.1,81.8,326.3z"/>
	<path class="st49" d="M202.8,104.8c1.2,1.6,0.5,4.8,3.4,4.8c3.2,0,3.3-3.1,4.3-5.2c0.4-0.9,0.9-1.7,1.3-2.5
		c0.2,6.6,1.3,7.3,7.4,4.3c6.7-3.2,13-7.4,20.8-7.9c0.3,0,0.6-0.3,1-0.3c3.3,0.2,7.9-1.8,9.4,2.2c1.5,4.3-3.5,4.9-6.1,6.4
		c-9.6,5.6-19.8,10.2-28.8,16.9c-7,5.2-15.3,6.6-23.4,9c-14.4,4.3-21.2,16.3-26.3,29.3c-5.1,12.9-6.4,26.6-8,40.3
		c-1.9,16.7-4.5,33.4-5.8,50.2c-1.6,20.7-6.7,40.7-10.2,61.1c-0.7,4-2.6,7.8-2,12.1c0.2,1.6-0.6,3.4-2,3.7
		c-6.3,1.5-7.8,7.2-10.4,11.7c-2.8,4.9-5.9,9.6-10.6,13c2.8-5.6,7-10.2,9.4-16.2c3.5-8.8,4.9-18.1,5.3-27.1
		c0.8-16.8,4.6-33,7.7-49.4c5.1-26.5,11.4-52.7,17.8-78.8c3.3-13.3,6.3-26.9,14.4-38.4c4-5.7,7.6-11.6,11.1-17.6
		c1.3-2.2,3.4-3.1,5.2-4.4c2.9-2.1,5.5-4.3,6.1-8.1c4.3,0.7,6.2-1.3,6.7-5.4C200.8,107,200.3,104.8,202.8,104.8z"/>
	<path class="st54" d="M202.8,104.8c-2,1.8-0.7,4.3-1.6,6.5c-1.9,4.8-3,5.3-7.4,2.5c-0.9-8.7-3.4-16.7-7.6-24.4
		c-3.4-6.3-4.7-13.4-2.3-20.7c1-3.1,3-5.5,6.3-5.7c6.6-0.5,13.1-1.9,19.6-3.2c5.6-0.3,9,2.9,12,7c0.8,10.4-5.6,17.3-11.8,24.2
		C206.4,95.1,203.3,99.2,202.8,104.8z"/>
	<path class="st49" d="M83.8,363.8c-4-2.6-4.8-6.7-5-11C80.5,356.5,82.2,360.2,83.8,363.8z"/>
	<path class="st55" d="M241.9,65.2c-0.4,4.3-2.8,8.5-6,11.7c-4,4.1-8.7,7.6-14.2,9.9c-0.7,0.3-1.5,1-2.3,0.3
		c-0.8-0.6-0.6-1.6-0.1-2.3c4.9-6.5,6.2-14.6,9.8-21.7c1.4-2.7,3.5-4.4,6.7-4.4C239.7,58.8,241.7,60.8,241.9,65.2z"/>
	<path class="st56" d="M216.7,76.7c-0.2,1.9-0.6,3.7-1.9,5.1c-5.5,1.5-11.1,0.3-16.7,0.4c-3.4,0.1-6.9,1.3-10.2-0.4
		c-1.6-2.2-1.7-4.9-1.9-7.5c-0.3-5.4,3-8.6,8.4-8.5c3.7,0,7.3,0.1,10.5-1.9c3.1,1.1,6.3,1.8,8.6,4.4
		C215.8,70.7,217.2,73.3,216.7,76.7z"/>
	<path class="st57" d="M187.9,81.8c9-1.6,18-1.6,27,0c-7.9,7.8-14.9,16.2-18,27.6C196,99.3,190.6,91,187.9,81.8z"/>
	<path class="st58" d="M216.7,76.7c-1.3-6.7-6.7-9.7-11.8-12.8c1.9-0.4,3.9-1,5.8-1.1c7.8-0.5,10.6,3.6,7.6,10.8
		C217.8,74.7,217.3,75.7,216.7,76.7z"/>
</g>
</svg>
