<svg version="1" id="Layer_1" xmlns="http://www.w3.org/2000/svg" xmlns:xlink="http://www.w3.org/1999/xlink" viewBox="0 0 1000 1000">
  <style>
    .st4{fill:#e6af00}.st5{fill:#f8be00}.st6{fill:#ffec11}.st9{fill:#fff}.st10{fill:#ff8200}.st11{fill:#cc0400}.st13{fill:#ff9427}.st14{fill:#f3700f}.st16{fill:#ffff1d}.st17{fill:#ffece9}.st20{fill:#9b765d}.st21,.st22{clip-path:url(#SVGID_4_);fill:#a63814}.st22{fill:#ea744f}.st23{clip-path:url(#SVGID_6_);fill:#a63814}.st25{fill:#fffb8b}.st26{fill:#e40500}.st27{fill:#ff1e06}.st28{fill:#00b200}.st29{fill:#00c800}.st30{fill:#f4e000}.st31{fill:#ffef5d}.st35{fill:#ffd06b}
  </style>
  <path d="M955 651v-1c0-55-204-100-457-100-252 1-457 45-457 100v21c0 55 205 100 457 100 253 0 457-45 457-100v-1-1-1-1-1-1-1-1-1-1-1-1-1-1-1-1-1-1-1-1z" fill="#a4a4a4"/>
  <ellipse cx="498" cy="650" rx="457" ry="107" fill="#eaeaea"/>
  <path d="M166 589c-49 10-58 28-46 59s123 89 301 77c179-12 227-58 227-58l25 4s30-14 61-9l79 9 61-53s-22-24-90-34c-68-11-293-66-618 5z" fill="#d1d1d1"/>
  <g>
    <path fill="#ac0000" d="M586 423l60-13 193-7 50 29-66 43H654z"/>
    <path class="st4" d="M718 335s10-81 25-110h36c7 1 15 19 15 19s-26 54-33 115c-7 62-5 111-5 111l-19 10-19-5V335z"/>
    <path class="st5" d="M779 228s-39 82-39 107c0 0-7-27-12-33-1-6 13-71 16-74s30 0 35 0z"/>
    <path class="st4" d="M807 261s-28 85-28 154c0 68 2 76 2 76l26-5s12-115 46-209l-25-13-21-3z"/>
    <path class="st5" d="M810 266l18 2s-25 89-29 108c0 0 1-34-2-35l-4-2s7-42 17-73z"/>
    <path class="st4" d="M678 409s-64-91-78-106l20-20c6-6 23 0 23 0s50 63 60 102c11 39 11 84 11 84l-22 11s4-28-14-71z"/>
    <path class="st5" d="M605 304s18-18 21-17c2 0 52 76 57 93 0 0-35-51-40-53-5-1-16 7-16 7l-22-30z"/>
    <g>
      <path class="st4" d="M653 466s-61-97-98-125v-22l24-11s77 73 102 154-28 4-28 4z"/>
      <path class="st5" d="M563 321l15-7s34 30 36 39l-8 12s-24-31-43-44z"/>
    </g>
    <g>
      <path class="st4" d="M834 380s29-88 52-107c0 0 20 3 28 7l5 22s-64 100-75 133l-28 22c-5 3 14-45 18-77z"/>
      <path class="st5" d="M886 275l25 7s-37 55-38 59l-17-7c-4-1 21-47 30-59z"/>
    </g>
    <path class="st4" d="M709 485s-13-82-38-119l26-17h17s41 112 26 185l-17 8h-16s6-36 2-57z"/>
    <g>
      <path class="st5" d="M701 376s-32-88-47-103l24-18c6-4 29 0 29 0s23 60 31 98 14 117 14 117l-15 21-14-6s-8-75-22-109z"/>
      <path class="st6" d="M661 276l21-15s52 100 55 193c0 0-14 9-14 6s-5-84-62-184z"/>
      <path class="st5" d="M750 491s13-73-6-156l38 6 12 8s2 105-15 149l-29-7z"/>
      <path class="st6" d="M750 341s25 2 29 4v112c-2 6-21 3-21 3s2-95-8-119z"/>
      <path class="st5" d="M682 485s-22-82-73-109c0 0 4-22 11-29 6-8 23-12 23-12s48 45 69 124c20 79 6 81 6 81l-22 2-9-11s5-20-5-46z"/>
      <path class="st6" d="M614 372s3-20 8-23c4-2 58 50 69 108 0 0-8 9-12 7-5-2-18-57-65-92z"/>
      <g>
        <path class="st5" d="M839 335s-62 85-60 163l22 8s18-63 31-90c12-26 46-67 46-67s-23-16-39-14z"/>
        <path class="st6" d="M841 336s16 0 15 5c-1 4-48 79-55 105l-8-10c-2-4 15-52 48-100z"/>
      </g>
      <g>
        <path class="st5" d="M652 484s-55-75-100-90l13-33 26 2s82 70 100 139l-9 12-15-4s1-6-15-26z"/>
        <path class="st6" d="M560 392s4-22 9-24c4-1 72 45 84 87l-34-16c-6-2-12-24-59-47z"/>
      </g>
      <g>
        <path class="st5" d="M805 494s12-88 99-142l19 4 4 20s-52 38-84 104l-38 14z"/>
        <path class="st6" d="M828 438s29-56 78-83l11 3s-59 43-76 85c0 0-16 2-13-5z"/>
      </g>
    </g>
    <g>
      <path d="M586 423l71 44 171-1 61-34-33 191-51 37s-68-18-127-1c-10-3-50-39-50-39l-42-197z" fill="#ff2b06"/>
      <path d="M750 524c-21-4-30-45-56-40-26 4-32 24-32 24l3 33h1c14-31 43-20 57 3 13 23 39 26 56 4 17-21 44-34 44-34l3-30c-36-4-55 45-76 40z" fill="#ffc1bb"/>
      <path class="st9" d="M662 508s-17 8-33-24c-15-33-35-23-35-23l6 29c15-6 20 19 32 37 11 17 30 15 33 14l-3-33z"/>
      <path class="st10" d="M632 527c-12-18-17-43-32-37l28 130c40 36 50 39 50 39l-13-118c-3 1-22 3-33-14zM630 484c15 32 32 24 32 24l-5-41-71-44 8 38s20-10 36 23z"/>
      <g>
        <path class="st11" d="M851 537c-11 5-21-21-28-23l-18 146 51-37 21-124s-15 32-26 38z"/>
        <path class="st11" d="M847 504c4 18 21-29 35-31l-3 13 10-54-61 34-2 18s17 2 21 20z"/>
        <path d="M882 473c-14 2-31 49-35 31s-21-20-21-20l-3 30c7 2 17 28 28 23 10-6 26-38 26-38l2-13 3-13z" fill="#ff8b86"/>
      </g>
    </g>
  </g>
  <g>
    <path class="st13" d="M129 559s-8 12-9 26c-2 13-3 35 4 49 8 14 48 77 243 78 197 1 257-58 262-70 10-23 7-79 0-83-6-3-164-12-269-15-106-3-185-7-231 15z"/>
    <path class="st14" d="M249 694c-32-6-86-26-111-54s-8-34 13-21c20 13 90 44 199 47s227-26 267-65c0 0 10-6 10 6 0 11 2 30-10 40s-129 89-368 47z"/>
    <path d="M140 560c-24 6-1 25 36 44 36 19 105 37 165 36 59-1 139-2 195-19 56-18 61-35 67-48 7-14-399-28-463-13z" fill="#ffd97f"/>
    <path class="st16" d="M230 608s63 55 79 77l79-77c10-12-133-7-158 0z"/>
    <path class="st9" d="M309 673c-4-10-13-18-21-25-7-7-14-15-25-18v1c5 9 13 16 20 23s14 17 23 22c2 1 4-1 3-3z"/>
    <path class="st17" d="M501 602s7 31 29 23c23-7 28-14 35-11 7 2 29-8 35-20 0 0 47-31 17-41-29-10-101 32-116 49zM262 610s-7 19 18 24c26 5 43 8 53 14 10 5 25-4 34-8 0 0 39 7 41-10 3-17-109-43-146-20z"/>
    <path class="st9" d="M301 626c-3-4-7-6-12-6l-15 3c-2 1-2 3-1 4 3 3 8 4 12 4h5c2 0 4 2 5 3 6 4 11-4 6-8zM355 633c-4-3-8-4-12-2h-7c-3 1-4 2-4 4-7-1-13-5-21-3-2 0-1 3 0 4 10 2 16 10 26 10 2-1 4-2 4-4 3 3 7 2 9 0 4 2 9-5 5-9z"/>
    <path class="st17" d="M133 553s-23 11-18 28c4 17 15 25 30 24s32 7 42 15c9 8 26 8 35-7s-79-67-89-60z"/>
    <path class="st9" d="M198 613l-2-6-7-7c-4-3-10-2-13 2-3-4-8-4-13-6-6-3-12-1-18-2-2 0-2 2-1 3 3 4 10 2 14 3 6 1 11 6 15 8l3 1c1 4 5 7 9 8 2 2 5 3 8 2l1-1c2 0 4-3 4-5zM137 590c-2-4-6-6-9-9-2-4 0-9 3-12l-1-3c-8-5-12 7-12 13 0 7 8 18 16 17 3-1 4-3 3-6z"/>
    <defs>
      <path id="SVGID_1_" d="M115 501s-3 37 11 55c15 18 25 33 41 35 15 1 28 7 37 14s33 6 38 5c0 0 24 16 48 6 0 0 18 14 34 12s23-4 37 0c15 4 46 3 65-6 0 0 25 2 39-6 13-8 29 0 42 0 14 0 40-9 50-20 0 0 19 4 32-6l33-25c10-7 18-19 14-39s-7-43-74-42c-66 1-435-38-447 17z"/>
    </defs>
    <use xlink:href="#SVGID_1_" overflow="visible" fill="#563d29"/>
    <clipPath id="SVGID_2_">
      <use xlink:href="#SVGID_1_" overflow="visible"/>
    </clipPath>
    <path d="M120 541s21 31 38 35 36 3 47 13c10 10 35 8 35 8s27 7 47 0c0 0 45 20 63 13 0 0 50 10 69 0 0 0 39 6 53-9 0 0 62 11 78-12 0 0 59-16 63-26s20-28 22-18c2 9-36 57-68 64-31 6-257 44-296 33-39-12-168-63-151-101z" clip-path="url(#SVGID_2_)" fill="#3b2313"/>
    <path d="M119 542s47-22 61-24c0 0-17 21-16 30s46 43 59 41c12-2 22-16 29-17s51 9 63 2c11-7 11-32 11-32s56 54 60 55c4 0 44-50 44-50s15 35 21 42c7 7 27-8 35-13 0 0 90-8 96-21s-10-34-10-34c1 0 76 50 47 21-8-8 23-17-34-55-58-37-407-39-466 55z" fill="#43291b"/>
    <path class="st20" d="M309 587l-14-7c-5-2-12 0-17 0l-16-4c-5-2-11 0-15 1-2 0-2 3 0 3l14 1 16 5h8c10-2 14-2 24 2v-1zM375 583c-6-5-15-1-22-3-9-2-15 1-24 2v2l9 1c6 0 11 1 16 3 6 2 15 1 20-2 1 0 2-2 1-3zM446 582c-6-3-13 1-20 1-8 1-16 0-23 2v2h9l14 2c7 0 15 0 20-4v-3zM527 572c-9-2-17 0-25 3-9 3-19 2-29 4v3c17 4 37-2 54-7v-3zM556 564l-13 2c-2 0-1 3 0 3l12 1c2 0 7-1 7-4s-4-3-6-2zM147 543l-6-6h-9c-2 1-3 4 0 5l7 4 5 5c2 2 10 3 11-1 2-6-6-5-8-7zM162 555c-2 0-1 3 0 3h2l1-1-3-2zM579 557c-2 0-9 4-8 6 3 4 9 2 11-1 3-2 1-7-3-5zM597 549c-1-1-3 1-4 2 0 1 1 2 2 1l2-2v-1z"/>
    <g>
      <defs>
        <path id="SVGID_3_" d="M224 485s-50 31-52 58c0 1 23 27 46 30 0 0 12-21 25-17 14 3 36 11 47 6 11-4 31-44 47-56 17-12-85-24-113-21z"/>
      </defs>
      <use xlink:href="#SVGID_3_" overflow="visible" fill="#c1542a"/>
      <clipPath id="SVGID_4_">
        <use xlink:href="#SVGID_3_" overflow="visible"/>
      </clipPath>
      <path class="st21" d="M189 513s71 26 133 11l11-17-137-3-7 9zM218 573s19-33 12-42c-7-8-32 36-32 36l20 6z"/>
      <path class="st22" d="M196 551c-8-3 9-26 16-24 6 1-10 27-16 24zM243 556s16-24 34-24c11 0-14 29-14 29l-20-5z"/>
    </g>
    <g>
      <defs>
        <path id="SVGID_5_" d="M392 503s56 40 65 70c0 0 13 1 29-13 0 0 10 2 28 0s42-10 43-15 0-48-37-56c-37-7-95-20-128 14z"/>
      </defs>
      <use xlink:href="#SVGID_5_" overflow="visible" fill="#c1542a"/>
      <clipPath id="SVGID_6_">
        <use xlink:href="#SVGID_5_" overflow="visible"/>
      </clipPath>
      <path class="st23" d="M402 510l19 17s82 14 131-11c0 0-5-5-12-17-7-11-123 12-138 11z"/>
      <path d="M486 560s-8-20-25-22 11 33 11 33l14-11z" clip-path="url(#SVGID_6_)" fill="#ea744f"/>
      <path class="st23" d="M489 553c-8-8-3-20 6-11 8 9 3 20-6 11z"/>
    </g>
    <g>
      <path class="st16" d="M290 506s58 45 80 67c0 0 52-42 71-70 19-27-119-97-151 3z"/>
      <path class="st25" d="M315 521c-4 0 48 41 51 42 3 0 42-42 43-42 0 0-29-5-33-8l-4-5-57 13z"/>
      <path class="st9" d="M362 554c-2-4-6-6-9-8l-13-11c-7-6-12-13-20-16-2-1-3 1-2 2 8 6 13 14 20 20 6 5 14 14 22 15l2-2z"/>
    </g>
    <g>
      <path class="st16" d="M142 451s-36 22-46 40 7 65 7 65 26-31 48-37c21-7 102-29 126-24s-78-59-135-44z"/>
      <path class="st25" d="M127 465c-1 1-28 18-31 28s1 40 5 47c0 0 21-24 31-29 11-5 26-9 26-9s-26-8-29-17c-3-8-2-20-2-20z"/>
      <path class="st9" d="M119 475c-22 7-31 41-20 59 1 2 5 1 5-1 1-9-2-18-1-27 1-13 7-21 17-28 1-1 0-3-1-3z"/>
    </g>
    <g>
      <path class="st16" d="M495 486s107 27 136 69c0 0 30-58-22-91s-145-8-114 22z"/>
      <path class="st9" d="M630 539c-3-9-13-15-20-20-11-7-22-10-35-12v1l27 12c10 6 17 14 26 20 1 2 3 0 2-1z"/>
    </g>
    <g>
      <path class="st26" d="M370 471s160-37 259-19l-7 31s-135 63-239 26c0 0-14-29-13-38z"/>
      <path class="st27" d="M387 506l-4-22s14-4 16 3c3 8 26 28 48 19s23-9 39-6c15 3 27-4 34-11 7-6 23 5 30 2s21-14 21-14 25 2 35-10c11-11 13-8 13-8l-2 18s-29 15-72 28c-43 12-114 13-158 1z"/>
    </g>
    <g>
      <path class="st26" d="M142 451s-3 21 0 30c3 8 34 29 103 36 70 6 139-17 143-22 5-5 6-24 0-33-6-8-118-61-246-11z"/>
      <path class="st27" d="M175 495s19-4 23-3c4 2 12 11 14 14 2 4-32-6-37-11zM234 507c2-6 20-15 22-15l24 18c6 4-48 4-46-3zM297 509c6-3 13-12 18-14h16s28 6 39-3l2 7c0 1-59 15-75 10z"/>
    </g>
    <g>
      <path class="st28" d="M157 448s-14 30 0 39c13 9 38-1 47 2 9 4 5 18 20 17 14-1 20-22 32-19 13 3 21 22 34 19 14-3 17-16 23-15 5 2 30-3 39-13 9-11-12-28-42-26-29 3-136 1-153-4z"/>
      <path class="st29" d="M157 444s-14 30 0 39c13 9 42-4 51 0 9 3 4 13 19 12 14-1 16-24 29-20 12 3 18 23 32 20 13-3 19-17 24-15 6 1 31 4 40-7 9-10-12-27-41-25-30 3-137 1-154-4z"/>
    </g>
    <g>
      <path class="st28" d="M400 467s-2 21 14 31 40-3 49-7 13 6 32 4c19-1 16-13 25-16 9-2 16 11 29 5 14-5 22-16 23-24 0-8-33-15-66-14-32 0-94 0-106 21z"/>
      <path class="st29" d="M400 467s-3 14 13 24c16 11 41-4 50-8s13 4 32 3c19-2 18-10 27-13 9-2 11 10 25 5 13-5 24-11 25-19 0-8-33-14-65-13-33 0-95 0-107 21z"/>
    </g>
    <g>
      <path class="st30" d="M127 422s-38 1-39 13c-1 13 12 4 15 15s22 16 35 9c14-6 26 7 33 14 7 6 21 14 38 6s47-2 47-20c1-17-66-9-129-37z"/>
      <path class="st31" d="M100 428zM109 430c-1-2-3-4-6-3h-1l-2 1h-2c-2-1-4 1-5 3-2 4 1 7 4 9h5l1 1c4 2 8 0 8-4 1-3 0-5-2-7zM128 447l-3 1-3-3c-2-1-4 0-5 1-3-1-6 1-6 5 0 3 3 6 6 7l6-1c3 0 7 0 9-4 2-2-1-6-4-6zM198 468c-8-1-15-2-20-7l-8-7-11-2c-2-1-3 2-2 3l10 9 8 10c6 4 15 5 22 4 5-1 6-9 1-10z"/>
    </g>
    <g>
      <path class="st30" d="M271 452s4 29 23 27c19-1 26 3 40 12 15 10 31 1 44-12 14-12 24-3 35 4 11 6 26 7 37 0s21-19 37-20c16-2 10-24-53-15s-146 12-163 4z"/>
      <path class="st31" d="M371 471c-6 0-7 0-13 3-13 6-21 2-32-3-12-5-25-3-37-3-2 0-3 2-2 3 6 4 10 6 16 7 12 2 20 3 30 10 13 8 29-1 41-9 4-2 2-9-3-8zM441 467c-5 3-9 4-14 4l-20-1c-3-1-4 3-2 5 9 6 38 15 44-1 2-4-3-10-8-7z"/>
    </g>
    <g>
      <path class="st30" d="M514 452s4 24 20 18c17-5 27-5 38 0 10 6 23 4 30-8s16-13 27-10c11 4 28-17 7-27-22-10-102 24-122 27z"/>
      <path class="st31" d="M562 455c-13-6-23 4-35 7-3 1-3 6 0 6 5 1 9 1 14-1 5-1 11-4 16-2 3 1 5 1 7-1l2-3c0-2-1-5-4-6zM589 455l-3 2h-1l-2 1c-3-1-8-1-10 2-1 1-2 3-1 5 3 3 9 5 13 5 7 1 13-4 13-11 0-4-6-7-9-4zM642 438c-2-4-8-3-10 0v1l-5 1-9 3c-2 1-1 4 1 5 3 3 9 3 13 3 7-1 13-6 10-13z"/>
    </g>
    <g>
      <path class="st13" d="M389 236c-84 0-275 2-262 191 0 0 0 40 234 40s271-36 275-42c17-23 36-189-247-189z"/>
      <path d="M252 462c-28-4-88-11-101-20-14-10-28-11-20-39 3-12 29-3 41 3 12 5 79 21 159 24 80 2 211-6 249-20 36-13 51-25 57-19 9 9 7 29-18 44-23 15-102 26-182 28-81 2-143 4-185-1z" fill="#ffb557"/>
      <path d="M257 460c-29-4-93-11-106-21-14-9-23-17-20-29s29 1 41 7c12 5 77 19 157 22 81 2 215-6 253-20 36-13 45-26 53-21 4 3 8 15 0 25-4 4-13 8-21 12-26 13-98 25-179 27s-137 3-178-2z" fill="#ffe2aa"/>
      <path class="st14" d="M383 246c-78 1-176 13-215 69-38 57 13 77 67 87 67 12 366 15 383-33 11-32-38-125-235-123z"/>
      <path class="st13" d="M338 243c-49 0-111 8-135 44-24 35 18 42 53 45s215 8 227-17c12-26-21-73-145-72z"/>
      <path d="M290 253c-40 8-82 32-82 44 0 23 181 14 178-23-3-28-46-30-96-21z" fill="#ffa637"/>
    </g>
    <g>
      <path class="st35" d="M287 280c-4 2-5 7-5 12 1 1 3 3 4 1l3-5 2-6c0-2-2-4-4-2zM277 267c-2 0-4 2-5 4l-1 4v3c1 2 4 2 4-1l2-3c1-2 3-3 3-5 1-2-1-3-3-2zM310 271c-2-2-5-1-5 1 1 3 0 6 2 8 1 2 5 2 5-1 1-3 0-6-2-8zM240 285c-4 3-6 9-4 13 0 2 3 3 4 1l2-5 2-5c1-3-2-5-4-4zM229 268c-2-1-4 2-5 3-1 3-2 4-1 7 0 2 3 2 4 0l1-2 2-3c1-1 1-5-1-5zM259 260c-2-1-4 1-6 2-2 2-2 5-1 7s4 2 4 0l2-3 3-2c1-2 0-4-2-4zM199 279c-2-1-4 0-5 1l-4 6c-1 2 3 4 4 2l5-4c1-1 2-4 0-5zM203 292c-4 1-5 6-5 10 0 2 3 3 4 1l5-8c1-3-2-4-4-3zM259 285c-1-3-4-5-7-5-2-1-3 2-2 4s4 5 7 5c2 0 3-2 2-4zM312 248c-3-1-4 0-7 1l-5 5c-1 2 2 5 4 3l9-5c1-1 1-4-1-4zM365 268c-4 0-8 2-9 6 0 1 2 3 3 2 2-2 5-2 7-3 3-2 2-5-1-5zM341 274c-1-3-4-2-4 0-1 3 1 7 3 9s4 1 4-1c1-3-2-6-3-8zM384 251c-2-5-7-7-12-5-1 1-1 3 1 4s5 4 8 4c2 1 4-1 3-3zM394 277c-1-3-4-4-6-5a8 8 0 0 0-6 0l-1 1c-1 0-2 2 0 3l1 1 3 1 4 3c2 1 6-1 5-4zM370 289c-5-1-3 9-3 11 1 2 4 2 5 0 0-3 2-10-2-11zM329 293l-2-5c-1-2-4-2-5 0-1 4 0 11 4 13 2 1 5 0 5-3l-2-5zM267 318c-3 0-4 4-4 7 1 3 5 4 6 0l2-5c0-2-2-3-4-2zM184 312l-2-1c-3 0-4 3-5 5s-2 5-1 7c0 3 4 3 5 0l2-5c1-2 2-4 1-6zM174 299l-2-1-5 2c-2 2-3 4-3 7 0 2 3 3 5 2l4-5 1-5zM351 249c-2-3-6-3-8-1l-3 3-1 1v2c-1 2 3 3 4 1l2-1c3 0 5-1 6-3v-2zM322 264c-2-2-4-1-6-2-2 0-3 2-2 3 1 2 4 4 6 3 3 0 4-3 2-4zM421 241l-5-1-5 2c-1 2 1 5 3 4h-1 3l4 3c2 1 7 3 7-1-1-3-3-6-6-7zM414 266l-4-8c-1-2-4-2-5 1l1 6c0 2 2 4 4 5 1 1 3 0 4-1v-3zM444 261c-3 0-5 2-8 3s-2 4 0 4c3 1 6 0 9-1 2 0 5 2 6-1 1-4-4-5-7-5zM430 288l-3-4c-1-3-5-3-5 0-1 4 1 7 4 9 3 1 5-2 4-5zM488 273l-5-2c-3-1-5 3-2 4 1 1 7 4 7 0v-2zM469 252c-1-2-4-2-6-3-3 0-5 4-2 6 3 1 7 8 10 4 2-3 0-5-2-7zM463 279c-3 3-4 6-5 9 0 2 3 3 4 2l5-7c1-2-2-5-4-4zM509 270c-1-4-7-8-11-7-2 1-3 5 0 6l3 2 4 3c2 1 4-2 4-4zM494 254c0-2 0-2-2-2-3-2-6 2-8 5-2 2 2 5 5 4 2-2 6-4 5-7zM533 263c-2-1-5 1-4 3v4l-1 3 1 3c0 1 2 2 4 1l3-3v-5c0-2-1-5-3-6zM525 288l-6-4c-3-1-5 3-2 5l2 1 3 3c1 2 3 3 4 1 2-1 0-5-1-6zM560 281l-3 3-2 1-1 2c-2 2 1 5 3 3h1l2-1c3-1 4-2 5-4 2-2-2-6-5-4zM481 302c-3-1-4 3-2 5 1 2 6 9 9 4 3-4-3-9-7-9zM583 292c-3 0-3 3-5 5-1 2 1 5 3 3l5-6c0-2-1-3-3-2zM554 308l-2-5c-2-3-7-1-5 2l2 6c1 3 6 0 5-3zM412 327v-4l-1-3c-1-3-5-3-6 0 0 3 0 5 2 7 1 1 2 2 3 1h1l1-1c1 0 1-1 0 0zM350 322l-1-2c-1-2-4-1-4 1l2 4c1 1 2 0 3-1v-2zM521 323c-1-3-5-3-6 0 0 3 1 5 4 6 1 1 3 0 3-2l-1-4zM383 340c-1-2-4-1-5 1 0 2 0 4 3 5h1c2-1 1-4 1-6z"/>
    </g>
  </g>
</svg>
