<svg xmlns="http://www.w3.org/2000/svg" id="Layer_1" version="1" viewBox="0 0 1000 1000">
  <style>
    .st0{fill:#b82014}.st5{fill:#f8be00}.st6{fill:#ffec11}.st7{fill:#f5d600}.st8{fill:#fff081}.st9{fill:#9a0e04}.st15{fill:#d31501}.st17{fill:#ff0e00}.st19{fill:#ff7320}.st20{fill:#e40400}.st21{fill:#e96739}.st22{fill:#ffa684}.st23{fill:#008c00}.st24{fill:#00b200}
  </style>
  <path d="M356 604c-27 7-54 13-82 9-26-3-51-16-74-30-16-9-31-20-47-30-14-7-43-21-36-40 1-2-2-5-4-3-30 26 45 61 60 71 27 17 55 34 87 42 33 9 67 1 100-7 8-2 4-15-4-12z" class="st0"/>
  <path d="M314 614c-6-7-18-4-26-5-9 0-18-1-27 1-3 0-2 4 0 5 8 4 18 6 28 7 8 1 19 3 25-3v-5zm453 6c-34 8-60-15-92-23-14-3-30-2-44-2-13 1-26 1-37 9-3 2-1 6 2 6 36 2 67-6 101 9 23 9 51 25 75 10 6-3 1-11-5-9z" class="st0"/>
  <path d="M799 635c-11-6-25-11-38-11-4 0-5 6-1 8 9 6 20 8 31 13 5 2 11 5 16 9 4 3 6 6 12 5l3-3c1-11-14-17-23-21zm-489 9c-17 1-31 5-47-1-18-6-26-20-35-36-2-4-8-1-7 3 2 40 60 62 92 44 5-3 2-10-3-10zM95 595l-6-19c-3-12-9-25-20-31-4-1-7 3-5 6 7 11 13 21 16 34 2 8 5 24 14 25 1 1 3 0 4-2 2-5-1-7-3-13zm18-85c-7-3-16-1-24-2s-14-4-16-12c-2-4-7-3-8 1-3 10 5 18 14 21 5 2 11 3 17 3 5 1 12 2 17 0 4-2 5-9 0-11zm80 98c-8 8-25 8-36 7-13-1-20-19-33-18-2 0-2 1-2 2 0 15 24 28 37 29 13 0 35 0 43-12 4-7-4-15-9-8zm163 35l-12-4c-3-1-7-5-10-2-5 4 2 10 5 12l15 5c2 0 5-1 6-3l1-3c0-3-2-5-5-5zm67 22c-1-3-5-5-8-2-6 9-8 21-17 28-6 5-16 7-24 8-17 3-37 2-45-16 0-2-3-2-4 0-8 24 28 29 43 29 25-1 59-16 55-47z" class="st0"/>
  <path d="M499 688c-1-3-4-2-5 0-6 8-4 17-14 21-7 4-16 3-24 3s-17-1-25-4c-13-5-9-23-9-33 0-5-6-5-8-1-4 13-5 27 4 39 8 9 24 11 35 11 13 1 27 0 38-7 9-6 14-20 8-29z" class="st0"/>
  <path d="M577 690c-2-3-8-3-8 1-1 8 0 15-2 23-2 15-17 6-25 4-17-5-31-11-46-20-3-2-6 3-5 6 7 11 18 16 29 20 12 4 26 9 39 11 21 2 28-32 18-45z" class="st0"/>
  <path d="M661 651c-2-4-8-2-8 3 3 17 0 37-20 41-18 4-38 0-56-2-4 0-6 4-3 7 15 14 53 11 71 4 19-8 26-37 16-53zm60 0c-3 1-15-18-16-20-6-7-12-10-20-13-16-7-37 1-53 5-4 1-2 6 1 7 8 3 16 1 24-1 19-5 33 1 45 17 6 9 11 24 24 15 4-4 0-13-5-10zm147 64c-16 11-33-9-39-22-7-14-6-28-10-43 0-2-5-2-5 0-8 19 1 46 13 62 8 11 42 29 47 7 1-4-3-6-6-4z" class="st0"/>
  <path fill="#de3a21" d="M168 440c-32 12-55 39-75 40-20 2-54 16-36 42 17 26-5 58 21 80s61 32 75 28c1 0 19 19 48 14 0 0 14 56 112 23 0 0-16 37 24 53 41 16 89-4 108-4 18-1 28 39 73 52 46 13 82-45 116-49s62-43 85-45c23-1 69-16 90 27s74 43 76-1 9-95-80-133-410-216-637-127z"/>
  <path fill="#3d7100" d="M506 317s26-47 52-54 35 15 35 15 48-26 41 29c0 0 24-4 29 19 5 22 0 42 0 42s34 5 31 26-20 45-20 45 34-4 48 9c13 13 0 41 0 41s66 0 60 50c0 0 3 12 32 11 29-2 22 34 22 34s25 18 11 30-126-48-153-73c-28-25-217-121-188-224z"/>
  <path fill="#89c61d" d="M428 327s-2-25 11-41 37-25 57-17c20 7 24 34 24 34s27-23 37-2c0 0 25-30 56-7 31 24 14 57 14 68 0 0 30-6 20 15 0 0 49-1 16 50 0 0-19 45-19 64s-234-52-216-164z"/>
  <path fill="#66ab04" d="M428 327s-2-25 11-41 33-15 53-8c21 8 27 34 27 34s26-24 36-3c0 0 21-28 52-5 31 24 10 57 10 68 0 0 32-7 23 14 0 0 43-2 19 39 0 0-15 47-15 66s-234-52-216-164z"/>
  <g>
    <path d="M137 476s-10-23-21-23c-10 0-43 23-47 27s5 27 8 30c4 3 51 3 60-2 10-5 0-32 0-32z" class="st5"/>
    <path d="M72 482c4-8 34-25 43-25s19 10 17 17c-1 6-47 19-55 20-7 0-5-12-5-12z" class="st6"/>
    <path d="M126 472c-1-2-1-3-3-3-3-1-5 1-7 3l-6 4c-4 2-1 8 3 6l7-3c3-2 7-4 6-7z" class="st7"/>
    <path d="M121 464c-2-1-5 1-7 2l-2 4c1 1 3 3 5 2l6-3c1-2 0-4-2-5z" class="st7"/>
    <path d="M80 477c-2 2-3 3-3 5v3c1 3 6 4 7 2l2-4 1-1v-1c0-4-5-6-7-4zm13-6l-2 2c-3 2 1 6 4 3l1-1c2-3-1-6-3-4z" class="st8"/>
  </g>
  <g>
    <path d="M142 461c-19 23-28 48-30 63-2 14 36 22 52 40 15 18 60 45 94 48 35 3 93 1 120-9 28-10 171-1 194 1 23 1 92-6 103-7 10-2 64 33 73 33 10 0 16-4 16-4s43 15 51 26 4 66 29 62c26-4 36-33 25-54-12-21-216-90-216-90L142 461z" class="st9"/>
    <path fill="#ffcdae" d="M726 546s104 60 136 67c0 0 21-37 63-22 42 16 42 71-11 71 0 0 21 42 0 53-46 25-103 3-74-63l-161-74c-16-7 25-45 47-32z"/>
    <path fill="#ffeadb" d="M911 599c-19-12-48 23-31 35s81-5 31-35zm-80 13c-13-8-28-12-41-19-14-7-27-18-41-22-3-1-6 3-4 6 9 10 23 17 34 24 15 8 32 18 49 20 5 0 7-6 3-9z"/>
    <path fill="#ee9f76" d="M914 663l-3 2-4 2-3 1-3 1c-4 1-8 0-13-1s-10-4-14-8h4l10 1h12l14 2z"/>
    <path fill="#af1701" d="M144 446s3-91 17-119 50-58 60-63c10-6 50-8 50-8s50-17 72-13c21 5 110 30 151 57 40 28 146 99 169 146 0 0 75 78 83 90 7 13-2 38-5 36-4-2-35-3-35-3s51 37 50 44c-2 8-8 12-8 12s-70-36-82-35c-13 2-93 12-146-8s-109-3-128 5-101 31-166 3c-64-28-87-48-100-73 0 0-2-27 18-71z"/>
    <path fill="#7f1506" d="M268 262s-59 62-71 86c-11 25-47 90-47 90l40-92c6-14 46-59 78-84z"/>
    <path d="M219 317c-17 22-54 95-55 121-1 27 2 36 18 45s39 8 49 17c11 9 21 36 46 43 25 8 40-1 56-7 16-5 37 5 49 17 13 11 56 12 81 4s44-10 69-4c26 5 31-13 33-28 3-15 21-12 35 0 13 12 32 5 43-4 11-8 21-18 38-11 18 6 40-3 33-10l-45-48c-11-12-11-21-33-42-22-20-62-64-125-102-63-37-145-65-178-66-34 0-63 17-76 29-13 13-26 30-38 46z" class="st15"/>
    <path fill="#ff1004" d="M277 267c-34 22-62 58-75 89s0 64 19 66 42-18 56-7c14 12 13 55 58 61 46 5 57-35 92-38 35-2 44 54 70 54 27 1 55-18 85-6 31 12 106 11 78-35a875 875 0 0 0-245-177c-65-29-104-28-138-7z"/>
    <path d="M284 525c-8 9-18-1-18-12 1-11 23-8 33-5 9 4 17-13 27 2s-4 24-14 19c-9-5-21-11-28-4zm136-51c-12-2-9 18-17 23-8 6-21 4-24 16s27 17 36-3c8-20 17-35 5-36zm-169-44c-5-3-12-3-16 2-3 5-3 11-1 16l4 5 7 4h3c3 0 6-1 8-3 2-1 4-3 4-6 3-7-2-15-9-18zm-60-37l-4-2c-2-1-4 0-6 1-4-1-7 6-7 9-1 5 2 12 7 14 2 3 5 5 7 3 5-3 6-8 6-12 1-4 0-9-3-13z" class="st17"/>
    <path d="M346 313c-6-2-11 3-13 9-1 4 1 10 4 13l6 4c4 4 9 4 14 1 11-9 1-25-11-27zm30 28l-1-1c-2-2-5-1-6 1-1 3 0 5 3 6h2c3 0 4-5 2-6zm79 28c-7-8-22-13-30-3-5 7 0 19 9 20 2 4 6 6 11 7 6 1 10-3 13-8s1-12-3-16z" class="st19"/>
    <path d="M449 381h-6l-5-2c-4-3-4-6-4-10 0-2-3-3-5-2-7 4-3 15 1 19 6 6 17 10 23 3 3-3 0-8-4-8zm20-62h-1l-1-1c-2 0-4 1-4 3v4l1 1h1c5 3 9-5 4-7zm-172 25c-3-6-10-11-17-8-2 1-3 2-2 4l1 5 1 1 4 4c4 3 8 2 11-1 2-1 3-3 2-5zm-26-56c-1-2-4-1-5 0v3c0 2 4 3 5 0v-3zm81 15c-1-2-1-5-3-7l-7-2c-2 0-4 1-4 3v4l2 4c1 3 5 3 7 4 4 0 7-3 5-6zm134 92l-2-2c-3-2-6 3-4 5l3 2c3 2 6-3 3-5zm143 35c-2-9-13-17-21-12l-1 1c-6 6-1 16 4 20 4 3 8 4 12 2 5-2 7-7 6-11zm9 6c0-1 0-1 0 0zm1 1l-1-1c-2-2-5 0-5 2v3c2 2 4 2 6 0l1-2-1-2zm-395-61c-6-7-17-7-25-3-8 5-10 17-5 25 4 8 14 12 22 9l5-2 3-3c8-7 8-19 0-26zm19 3l-3-4c-2-2-4-2-5-1-2 1-4 3-4 5l1 1c-1 4 4 6 7 6l4-2v-5zm66-116c-6-5-15-7-23-6-15 2-28 17-18 32 3 6 10 9 17 11l10-1 5-5c5 0 11-3 14-8 4-8 1-18-5-23zm71 28a70 70 0 0 0-21-24c-12-8-26-12-37-1-9 9 1 22 9 27 6 5 14 9 22 8 6 3 13 3 19 2 5-1 10-6 8-12z" class="st19"/>
    <path d="M419 290l-7-7-3-1h-8c-4 0-7 4-7 8 0 6 3 11 8 13 2 1 4 2 7 1h3c7-1 11-8 7-14zm-62 23v-4c-1-5-2-9-6-12-3-4-7-5-12-5-3 0-7 3-7 7v1c-2 2-2 4-1 7l3 5 1 1 4 4c2 2 4 3 7 3 2 1 4 0 6-2l5-5zm113 3c-10-5-23-7-31 3-7 9-2 20 6 27 6 5 12 7 19 8 12 4 25 0 25-15 0-11-11-19-19-23z" class="st19"/>
    <path d="M474 359c-1-4-5-7-10-8-3-1-7 2-8 5l-2 2c-2 3-1 5 0 8 4 7 13 8 20 4 4-2 3-8 0-11zm75 23l1-5c-1-10-10-17-19-16-6 0-11 3-13 8-3 5-1 11 2 15 6 8 18 14 27 8 3-3 4-7 2-10zm-190 50c-4-7-13-10-21-11s-16 0-22 5c-6 6-8 14-4 22 6 11 23 17 34 11 5 0 9-1 12-4 6-6 6-16 1-23z" class="st19"/>
    <path d="M367 430l-5-3c-2-1-5 0-7 2l-2 5 1 3 5 6h6l4-3c3-3 2-8-2-10zm-182-33c-1-2-2-3-4-3l-3 3v4c-1 1 0 2 1 3l2 1h2l1-2 1-1v-5zm65 40c1-3-1-6-4-7l-6 2c-2 2-2 5-1 7 2 2 5 3 8 3 2 0 3-3 3-5zm173 45c-1-3-3-4-6-3l-3 1c-3 3-4 7-3 11 1 3 4 5 6 3 4-3 7-7 6-12zm-26 24c-2-2-5-3-8-1-3 1-6 3-6 6-1 2 1 4 3 3l2-1c2 1 6 0 8-1s4-4 1-6zm-109 3c-3-2-7-3-10-3l-1 1-1-1c-3 0-6 2-6 5s2 4 4 5c4 2 9 2 13 0 4-1 4-5 1-7zm32-2c-2-1-3-2-5-1l-2 2c-3 2-1 7 2 6l5-1c2-1 3-5 0-6z" class="st19"/>
    <g>
      <path d="M239 271c-8-10-23 2-34 14-9 7-24 17-23 31 1 13 19 17 23 3l24-21c6-6 17-17 10-27z" class="st15"/>
      <path d="M232 275c-1-3-5-4-7-3-4 1-8 3-11 6-6 4-10 9-11 15-1 3 1 5 3 6 1 1 4 2 5 1l10-5 6-4c4-4 6-10 5-16z" class="st17"/>
    </g>
    <g>
      <path d="M406 327h-2c-2 8 0 16-1 24 0 9-4 17-9 25-9 13-24 20-38 28-2 1 0 5 3 4 30-8 68-48 47-81zm68 79l-3-1c-3 0-5 3-3 5l4 1c3 0 5-3 2-5z" class="st20"/>
      <path d="M535 344c-18-4-34 5-47 17-11 11-22 31-16 47 1 2 4 2 5 0 2-16 4-27 14-40 12-13 27-18 44-18 4 0 4-5 0-6zm-222 65c-5 0-10 3-14 6-6 2-11 5-14 10-1 1 0 2 2 2 5-1 10-5 15-7 5-3 10-5 12-10l-1-1zm-2-90c-24-25-80-11-85 24 0 2 2 3 3 1 6-14 16-24 31-29 17-5 32 3 47 10 4 1 6-3 4-6zm278 121a79 79 0 0 1-54 14c-18-2-29-12-40-25-2-2-5 1-4 3 12 42 75 33 102 14 4-2 0-8-4-6z" class="st20"/>
      <path d="M350 393l5 14s69-14 49-90h-8s27 73-46 76zm152 25l-11 10s38 59 102 12l-3-7s-58 52-88-15zm-190-95l5-13s-59-37-97 32l5 5s31-71 87-24zm5 86l-7-12s-65 27-30 98l7-2c0 1-40-66 30-84zm225-58l-1-15s-69-8-73 71l7 3s-3-78 67-59z" class="st21"/>
      <path d="M307 403c-12 0-25 12-28 24 0 1 2 2 3 1l11-12c4-5 10-7 15-10 1-1 0-3-1-3zm-56-92c-12 4-23 17-28 28-1 2 2 4 4 2l11-14 14-14c1-1 0-2-1-2zm129 76c-3 0-6 2-9 4l-12 5c-2 1-1 5 1 4 7-1 18-5 21-11 1-1 0-2-1-2zm99-14c-7 7-12 22-10 32 0 2 3 2 4 0l3-15 5-16c0-1-1-2-2-1zm39 70l-9-8-9-9c-2-2-5 1-4 3l8 10c3 3 7 6 11 7 2 1 4-2 3-3z" class="st22"/>
    </g>
    <g>
      <path d="M424 304s-39-11-45-7 16 11 16 11-19 4-17 16c1 11 37 0 37 0s-7 12 0 12c6 0 20-23 9-32z" class="st23"/>
      <path d="M424 304s-24-6-27-4c-4 3 9 7 9 7s-11 2-10 9 22 0 22 0-4 8 0 8 13-14 6-20z" class="st24"/>
      <path d="M402 284s-45 3-52-11c-7-15 15-4 15-4s-18-13-15-24c3-12 18 6 18 6s-14-20-7-25c8-5 27 21 27 25 0 0 6-12 15-11 10 1 0 22 0 22s15-11 12 4-13 18-13 18z" class="st23"/>
      <path d="M400 281s-35 2-40-9c-5-10 12-2 12-2s-14-10-12-19c2-8 14 5 14 5s-11-15-5-19 20 16 20 19c0 0 4-9 11-8 8 1 0 17 0 17s12-9 9 2c-2 12-9 14-9 14z" class="st24"/>
      <path d="M424 304s-6-12-4-20c3-7 11 0 11 0s7-13 15-11c8 1 0 21 0 21s14-8 11 4c-2 12-29 17-33 6z" class="st23"/>
      <path d="M427 304s-4-7-3-12c2-5 7 0 7 0s5-9 10-8 0 14 0 14 9-5 7 3-19 11-21 3z" class="st24"/>
      <path d="M390 269s31 55 74 68l5-6s-28 1-79-62z" class="st23"/>
    </g>
    <g>
      <path d="M159 543l-2-4-1-5-1-3v-20c1-6 3-12 6-17a234 234 0 0 0-2 49zm53 35l-1-4v-11l3-16 8-16v5l-2 12-8 30zm-4-33v-10c1-5 4-12 10-18l-2 11c-1 5-3 11-8 17zm492 20l-3-1-7-5c-5-4-11-12-14-20a66 66 0 0 0 24 26zm-30 19l-2-2-5-7c-4-6-7-14-9-23l2 2 6 7c4 6 8 14 8 23zm-28-55v1l-1 3a80 80 0 0 0-2 26l3 17-3-3-5-12c-1-5-2-11 0-17 1-6 4-11 8-15zm-283 47l-4-7-2-4-1-4-3-6-1-6a79 79 0 0 1 5-62l-2 9-1 10-1 12c0 17 5 38 10 58z" class="st9"/>
    </g>
  </g>
  <g>
    <path d="M173 545c-4-2-34 8-40 13-7 5-7 35-7 39 0 3 33 28 38 27 5 0 27-5 33-8 7-3 15-32 12-39s-26-27-36-32z" class="st5"/>
    <path d="M168 552c-15 3-31 6-26 12 4 6 16 19 26 21s35-2 32-7c-2-4-22-28-32-26z" class="st6"/>
    <path d="M182 574l-3-1h-10c-4-2-6 5-2 7 5 2 14 4 17-2 0-2 0-4-2-4z" class="st7"/>
    <path d="M185 568l-2-1h-1c-4-2-8 3-5 6 1 2 4 4 7 3 4 0 5-6 1-8z" class="st7"/>
    <path d="M165 557c-3-3-11-3-14 1l-1 1-3 3c-1 1 0 3 1 4h2l1 2c2 4 7 3 8 1l2-1 1-5 4-2c1-1 0-3-1-4z" class="st8"/>
    <path d="M170 557l-1-1c-1-1-4 1-3 3l1 1c2 3 6-1 3-3z" class="st8"/>
    <path d="M588 561c-1-5-59-16-63-15-3 2-17 50-18 56-1 7 58 22 63 19s20-50 18-60z" class="st5"/>
    <path d="M575 561c-1-4-46-12-48-11-3 1-13 38-14 43s44 17 48 14c4-2 15-38 14-46z" class="st6"/>
    <path d="M550 560c-6-4-15-6-22-1-6 3-11 12-7 19h4c4-5 3-13 12-12 4 0 14 8 16-1 0-2-1-4-3-5z" class="st8"/>
    <path d="M544 570c-1-4-6-5-9-4-2 1-3 4 0 5 2 1 3 3 5 3 3 0 5-2 4-4z" class="st8"/>
    <path d="M555 575c-2 2-3 5-7 7l-8 1c-5 1-11 2-14 7-2 3 2 5 4 5l10-4 9-1c6-2 12-7 12-13 0-3-4-4-6-2z" class="st7"/>
    <path d="M565 729c-6-1-77-24-75-34 1-11 24-52 31-53 6-1 56 13 58 20 2 6-9 69-14 67z" class="st5"/>
    <path d="M550 708c-4-1-55-18-53-25 1-7 17-37 22-37 5-1 40 9 41 13s-6 50-10 49z" class="st6"/>
    <path d="M534 650c-7-4-14-6-20 0s-8 13-12 19c-3 6 6 10 9 4l5-8 6-9c2-1 6 1 8 2 5 2 9-5 4-8z" class="st8"/>
    <path d="M546 675h-5c-2-1-4-2-5-1-3 1-4 4-3 6 0 3 3 5 5 6h8c2 0 4-3 3-4 0-3-1-5-3-7zm-19 12l-3-3c-2-2-5-1-7 0-1 2-1 5 1 6l5 4c3 0 7-4 4-7z" class="st7"/>
    <path d="M503 658c-4-2-72-18-77-16s-10 65 0 70c10 4 59 7 67 0s15-52 10-54z" class="st5"/>
    <path d="M482 660c-3-2-51-12-54-11-4 1-7 45 0 49 7 3 42 5 47 0 6-5 10-37 7-38z" class="st6"/>
    <path d="M444 658c-7-5-15 1-17 7-2 7 2 14 7 18 1 1 3 0 3-2-2-3-2-8-2-12 1-5 4-3 8-3s4-6 1-8z" class="st8"/>
    <path d="M463 685h-7c-2 1-5-1-8-1-5-2-7 6-3 9 6 3 12 5 18 1 2-1 2-3 2-5l-2-4zm2-11l-3 1c-2 0-4 2-4 4s2 3 4 3 4 0 6-2 1-6-3-6z" class="st7"/>
    <path d="M607 598c-5-3-53-7-66 0-12 7-5 55 0 60 6 5 62 0 65-3 4-4 5-54 1-57z" class="st5"/>
    <path d="M589 600c-3-3-40-5-49 0s-4 42 0 45c4 4 46 0 49-2 3-3 4-41 0-43z" class="st6"/>
    <path d="M568 606c-1-7-13-5-17-3-2 1-3 2-3 4 1 7 0 15 2 22 1 2 4 3 5 0 3-5 2-12 1-18 5 0 12 0 12-5z" class="st8"/>
    <path d="M571 634c-5 1-10 2-14 5-2 2-2 5 1 6l9 1c4-1 7-2 9-5 3-4 0-9-5-7z" class="st7"/>
    <path d="M580 623l-6 3c-4 2 0 9 4 7l5-4c2-2 0-6-3-6z" class="st7"/>
    <path d="M544 605s-69-1-75 3c-6 3 4 68 10 71 6 2 58-4 66-10s0-59-1-64z" class="st5"/>
    <path d="M525 610s-51-1-55 1c-5 3 3 51 7 52 4 2 43-2 49-7 6-4-1-43-1-46z" class="st6"/>
    <path d="M505 611c-4-1-7 1-10 2-3 2-7 1-11 1-5 0-11 2-13 7 0 3 3 4 5 3 4-4 10-2 14-1 6 2 9-2 14-2 6-1 6-8 1-10z" class="st8"/>
    <path d="M487 625c-3-3-9 1-11 4-1 4-2 10 3 11l3-1 2-6 2-2 2-2c1-1 0-3-1-4z" class="st8"/>
    <path d="M506 642l-6-1-3-1c-5-3-9 4-5 8 3 2 10 5 14 2 3-2 3-6 0-8zm12-8c-2-2-4-3-6-2-2 0-4 1-5 3s0 5 2 6c3 1 6 1 8-2 1-2 2-4 1-5z" class="st7"/>
    <g>
      <path d="M419 643c-2-4-73 1-86 10s-7 46 0 47c7 0 62 5 69 0s21-47 17-57z" class="st5"/>
      <path d="M389 649c-1-3-47 1-56 7-8 6-4 29 0 29 5 1 40 4 45 0 5-3 14-29 11-36z" class="st6"/>
      <path d="M349 654c-5-1-10 4-13 7-4 5-5 11-2 15 2 2 5 2 5-1l3-9c2-3 6-3 9-4 4-2 3-8-2-8z" class="st8"/>
      <path d="M352 663c-3 0-7 2-9 5-1 1-1 4 2 4 3 1 6 0 9-1 4-2 3-8-2-8z" class="st8"/>
      <path d="M379 678c0-3-2-4-4-4l-3 1-2 1h-2c-2-1-4 0-5 1-2 2-2 5 0 7 3 2 5 3 9 2 4 0 8-4 7-8zm-2-17v1c-5 1-3 8 2 8l4-2c3-4-2-9-6-7z" class="st7"/>
    </g>
    <g>
      <path d="M335 637c-7-7 13-48 23-52 9-5 61 9 65 18s-6 47-16 49c-9 1-65-9-72-15z" class="st5"/>
      <path d="M342 622c-5-5 9-33 16-36 6-3 42 6 45 13 2 6-5 32-11 33-7 1-45-6-50-10z" class="st6"/>
      <path d="M363 593c-2-1-4-2-6-1l-2 3-1 2-1 5c0 2 2 4 4 4h5l3-3 2-5c0-3-2-4-4-5z" class="st8"/>
      <path d="M370 607h-4l-4-2-6 1h-2c-2-1-3-1-4 1l-3 3c-3 3 1 7 4 6l1-1c2 1 4 0 4-3h11c2 3 6 2 6-2 0-2-1-3-3-3z" class="st8"/>
      <path d="M387 621l-13-1-13-2c-3 0-4 4-2 6 6 4 26 11 30 0 1-2 0-3-2-3zm7-11l-5 1c-6 0-5 9 1 9 3-1 5-2 6-4 2-2 0-5-2-6z" class="st7"/>
    </g>
    <g>
      <path d="M478 610s-19-56-26-59-54 18-58 23c-5 6 19 52 26 54 8 2 52-10 58-18z" class="st5"/>
      <path d="M454 596s-12-40-17-42-40 16-43 19c-3 4 12 38 17 39 5 2 39-11 43-16z" class="st6"/>
      <path d="M417 602c-1-2-2-5-4-6s-5 1-5 3l1 4 1 1c1 4 9 2 7-2z" class="st5"/>
      <path d="M422 562c-4-1-7 2-9 4-3 3-6 3-10 4-8 2-10 15-1 17 2 1 4-1 4-3s-2-5 1-5l8-2c4-2 8-7 9-12l-2-3z" class="st8"/>
      <path d="M421 575c-5-1-8 3-10 7l2 3c2 1 4 1 5-1l3-2c3-1 3-6 0-7z" class="st8"/>
      <path d="M445 586h-4l-12 8c-4 1-3 6 0 7 4 1 9 0 12-3 4-3 6-7 4-12z" class="st7"/>
      <path d="M440 582c-1-4-7-5-8 0v1h-1l-2 2-2 2 1 4 4 1 5-2c2-2 4-4 3-8z" class="st7"/>
    </g>
    <g>
      <path d="M666 634c-1-2-84-7-89-1-5 5-12 62 0 64s71 6 77 0 16-55 12-63z" class="st5"/>
      <path d="M645 637c-1-2-62-5-66-1-3 4-9 46 0 48 9 1 53 4 57 0 4-5 12-41 9-47z" class="st6"/>
      <path d="M630 652c0-2-2-4-4-5l-1-2c0-4-5-4-8-2-1 0-2 0-3 2l-2 4-4 7c-3 5 4 10 7 6v-1l1 1c2 1 5 2 7 0 1 2 4 2 5 0 2-3 3-6 2-10z" class="st8"/>
      <path d="M622 670c-7 1-17 3-24 1-6-3-10 6-4 8 9 4 21 3 30-1 4-1 3-8-2-8zm13-6c-2-1-4 0-6 1-5 4 1 11 5 8l1-1 3-2c1-3-1-6-3-6z" class="st7"/>
    </g>
    <g>
      <path d="M515 569c-6-1-51 3-66 5-15 1-2 35 4 44 5 10 69 11 75 7 5-5-3-55-13-56z" class="st5"/>
      <path d="M498 572c-5-1-37 2-48 3s-2 26 2 32c5 7 51 8 55 5s-2-39-9-40z" class="st6"/>
      <path d="M486 578c-3-2-6-2-9-1-5 2-2 9 3 8l4-1c3 0 4-4 2-6z" class="st8"/>
      <path d="M499 593l-3 2-1 1c-1-1-2 0-3 1-1 2 0 4 1 4 5 2 10 0 11-5 0-3-3-5-5-3z" class="st7"/>
      <path d="M491 590c-2 0-4 3-5 5-2 4 4 7 6 3l2-3c2-2 0-5-3-5z" class="st7"/>
    </g>
    <g>
      <path d="M415 614c2-3 61-2 71 2 9 3-6 48-10 52-3 3-65 7-71 0-5-8 2-44 10-54z" class="st5"/>
      <path d="M419 616c1-2 40-1 46 1s-4 31-6 34c-3 2-43 4-47 0-3-5 1-29 7-35z" class="st6"/>
      <path d="M445 621c-1-2-4-2-7-3l-11-1c-5 0-12 3-8 9h12c4 1 10 4 13 1 2-1 3-3 1-6z" class="st8"/>
      <path d="M439 625h-1c-2-2-5-2-7-2-3 0-5 4-2 6l4 2h5c3 0 4-5 1-6z" class="st8"/>
      <path d="M452 630l-6 4c-2 0-3 3-2 5 1 3 3 3 5 3 5-1 9-4 10-9 0-4-4-7-7-3z" class="st7"/>
      <path d="M441 633h-1c-6 1-5 10 1 9 3-1 5-3 6-6 1-4-4-5-6-3z" class="st7"/>
    </g>
    <g>
      <path d="M234 598l-13 5s15 68 91 46v-7s-72 29-78-44zm482 64l12-7c0 1-23-65-96-34l1 7s68-37 83 34zM43 530s61 5 62 75l-9 4s14-64-56-66l3-13z" class="st21"/>
      <path d="M69 542c-4-8-18-8-26-7-2 1-2 3 0 4l12 3c4 1 8 3 13 3 1 0 2-1 1-3zm174 89l-7-12-6-15c0-2-4-2-4 0-2 11 6 22 13 29 1 2 4 0 4-2z" class="st22"/>
    </g>
  </g>
</svg>
