<svg xmlns="http://www.w3.org/2000/svg" xmlns:xlink="http://www.w3.org/1999/xlink" id="Layer_1" version="1" viewBox="0 0 1000 1000">
  <style>
    .st2{fill:#f3700f}.st4{fill:#ffbf7c}.st7{fill:#e64b1f}.st8{fill:#8f2203}.st9{clip-path:url(#SVGID_4_)}.st10{fill:#dfbc00}
  </style>
  <path fill="#ff9427" d="M195 694c-52 14-129 3-152-56-24-59-25-117 76-195 101-79 340-194 425-223 85-30 203-63 247 13 45 75 4 145-48 188-52 42-284 202-548 273z"/>
  <path fill="#ffd48b" d="M406 338c-134 63-272 148-301 176-30 28-40 91-21 130 19 38 58 63 95 53 37-9 162-43 337-132 174-90 316-183 292-288s-125-71-402 61z"/>
  <path d="M42 540c3-31 81-94 123-125 43-31 222-115 301-155 78-40 158-61 200-67s64 2 58 6-105 10-176 45-324 149-370 182C118 469 40 555 42 540z" class="st2"/>
  <path fill="#ffb557" d="M715 214c-62 6-126 33-183 57-61 26-119 57-177 87-59 31-115 66-173 100-37 21-91 50-102 95-1 2 2 3 3 1 29-48 71-72 119-99 55-32 109-65 165-94 55-29 110-58 167-83 59-25 120-44 182-61 2 0 1-3-1-3z"/>
  <path d="M406 367l-1-1v-4c-1-3-5-4-8-3-11 4-23 10-25 22-1 4 3 8 6 7h4c6 0 12-1 17-5 4-3 6-7 6-12l1-4z" class="st4"/>
  <path d="M428 357c-5 2-8 4-11 8l-3-1c-4 1-8 3-9 8 0 3 3 7 7 5 8-4 15-7 21-13 3-3-1-8-5-7zm-74 30l-2-1-2-1c-2 0-4 2-4 4s2 4 4 4 3-1 3-2l1-1v-3zm4 20c-8-2-16 0-23 4-5 3-8 6-10 10l-4 6c-2 3 0 7 3 8v1c2 2 5 3 7 2 7-2 14-6 19-11 5-3 9-8 11-13 1-3 0-7-3-7zm-46-6c-3 0-8 2-9 6 0 2 1 4 3 4h1c2 1 3 0 3-1h1l2-1c5 0 4-8-1-8zm-20 39c0-2-2-4-4-5-13-1-29 7-35 19-1 3 1 6 4 5v2c0 3 3 6 6 5 14-2 31-9 29-26zm-21 13l4-5 5-1-9 6zm212-101zm-1 0h1v-1l-1 1c2-2 0-6-3-5h-8c-4 1-7 4-7 9-1 3 3 8 7 6l7-5c2 0 3-1 4-3l1-2h-1zm-49 30c-2-2-4-1-4 2h-2c-3 0-5 4-2 6 3 3 7 3 10 0 3-2 1-6-2-8zm94-77c2-5-2-8-6-7-6 1-11 4-15 6-4 3-8 6-8 10 0 3 3 4 5 3l2-1c1 2 3 2 5 2h2l8-3 1-1h1l5-1c2-2 2-6 0-8zm33 3c-1-3-4-2-6-1-2 0-2 3-1 4 1 2 2 3 5 2 2 0 4-3 2-5zm-99 17h1c-4-1-7 3-5 7l2 1c2 2 6 1 7-1 2-4-1-8-5-7zm126-52c-9 1-18 5-25 12-3 3 0 8 4 8 0 2 1 3 2 3 10 5 21-7 25-15 1-4-1-9-6-8z" class="st4"/>
  <path d="M469 329c-4-2-9-1-12 1l-10 8c-1 3 2 6 4 4l9-6c3-1 7-2 9-5v-2zm60-9h-7l-3 3c0 3 1 5 3 6s5 0 7-1c5-1 4-7 0-8zM199 478c-8 1-16 4-21 10-4 5 2 10 6 7l4-1 2-2 1-1 4 1c3-2 6-3 9-7 1-3-2-7-5-7zm31-29c-7 1-13 4-17 9l-1 3-4 5c-2 4 2 9 6 7 8-4 14-9 20-16 2-3 0-8-4-8zm8 23h-2l-1 1-2 3c1 2 5 1 7-1 0-1 0-3-2-3zm-87 38c-10-6-26 2-28 13-1 3 3 5 5 3l4-3c5 6 15-1 20-6 3-2 1-6-1-7zm37-8l-5 2c-3-1-6 2-8 5-2 1-1 3 1 4 0 2 2 3 4 3l7-2c3 0 4-4 6-6 2-3-2-7-5-6zm48-22h-1c-1-2-3-1-4 0l-1 1c-1 3 0 5 3 5l2 1c4-1 4-7 1-7zm427-229c-7-1-15 1-21 5-4 3 0 8 4 6l4-2 1 1c4 7 12 1 15-4 2-2 0-5-3-6zm-115 66l-5 4c-2 3-1 6 2 7 4 2 8 0 10-4 2-3-2-9-7-7z" class="st4"/>
  <defs>
    <path id="SVGID_1_" d="M52 699c-25-29-39-100 9-129 47-30 256-109 395-186 139-76 290-187 355-185 65 1 101 77 43 142S474 588 329 655c-144 69-211 123-277 44z"/>
  </defs>
  <use fill="#b0360c" overflow="visible" xlink:href="#SVGID_1_"/>
  <clipPath id="SVGID_2_">
    <use overflow="visible" xlink:href="#SVGID_1_"/>
  </clipPath>
  <path fill="#9e2805" d="M186 731c-39 11-89 19-117-14 0 0 29 13 47 6s59-49 74-84 52-62 113-87 333-165 395-206c63-40 185-81 179-113-7-32 32 29 6 77-26 47-406 335-697 421z" clip-path="url(#SVGID_2_)"/>
  <path fill="#811e02" d="M90 659l-1-2-1-4c0-4 0-11 3-17 3-7 9-14 17-18 7-4 16-7 26-8l-7 3-14 9c-6 4-12 9-16 15-5 6-7 14-7 22zm0-67l-4 5c-3 3-5 8-8 14-2 6-3 14-3 22 0 9 1 17 6 25l-1-1-4-4c-3-3-6-10-7-17-1-8 0-17 3-25 4-8 10-16 18-19zm-48 53l3 2 8 5c8 3 17 8 28 10l-4 1H65l-14-6c-4-3-8-7-9-12zm54 17l4 3 11 4c9 2 22 2 35-2l-1 1-3 3a37 37 0 0 1-31 4c-7-2-13-7-15-13zm-6 5l2 5 2 4 3 6 9 14 12 14-4-2c-3-1-8-4-11-8-3-1-4-4-6-6l-5-8c-2-6-3-13-2-19zm-4 1l-3 3-2 3c-1 2-3 3-3 5-3 3-4 7-5 12l-1 15-2-4-2-4-1-7 1-7 4-8c4-4 9-7 14-8z"/>
  <path d="M808 214c-35 8-67 27-97 45l-109 64c-82 46-162 94-245 137-75 38-153 60-230 90-31 12-103 41-84 86 3 6 12 4 12-3-3-48 87-72 122-84 76-27 148-54 220-92 73-38 143-81 214-121 67-38 130-83 202-109 9-3 4-15-5-13z" class="st7"/>
  <path d="M128 592c-7-7-21 1-28 4-10 6-19 16-23 26-2 5 5 10 8 5 6-7 12-14 20-18 7-5 20-5 24-12 1-2 0-4-1-5zm31 55c3-3 1-8-3-9-6-1-11 1-16 2l-19 4c-6 1-7 11 0 12" class="st7"/>
  <path d="M340 517c-33 7-74-10-105 5-13 6-17 17-17 31 0 7 3 14 6 20 6 12 7 18-1 29-1 2-1 4 1 5 10 5 18 1 23-9 7-13-4-30-7-43-3-19 28-15 39-14 21 2 42 5 64 0 14-3 13-27-3-24z" class="st8"/>
  <path d="M828 238c-1-8-12-14-18-6-14 20-48 14-69 15-8 1-13 9-13 16 2 43-50 31-77 29-29-3-40 20-29 44 3 7 13 16 7 24-7 10-24 12-35 13-21 2-41-9-62-13-26-5-46 12-39 39 4 17 20 40-4 50-11 4-27-1-39-4-19-4-46-14-65-2-7 5-11 12-14 21-3 14 8 33-1 46-11 17-54 5-72 12-5 2-6 9-1 11 23 8 52 11 76 5 34-9 21-45 25-70 1-9 62 8 70 9 26 4 62-9 62-40 0-6-12-49-9-50 18-2 39 11 56 14 33 5 83-10 81-50 0-6-3-12-6-18-7-12-12-14 3-12 14 2 27 5 42 3 16-3 31-7 44-17 12-8 15-19 16-31 30 0 76-2 71-38z" class="st8"/>
  <path d="M388 507l-7-2c-4 1-9 3-10 8-14 39-74 3-101 8-5 1-10 7-6 13 15 17 52 21 74 23 27 2 57-8 58-40 0-4-4-9-8-10zm16-77c-6-2-10-3-16-1s-11 5-15 9c-9 8-19 24-10 36 4 6 16 6 19-2 2-3 2-7 2-9l6-8 8-6 8-7c5-4 3-11-2-12z" class="st8"/>
  <defs>
    <path id="SVGID_3_" d="M192 597v-3l-2-5-2-6a121 121 0 0 1-5-29l1-14c2-10 7-21 16-29 9-9 20-14 31-17l18-3h19l36 6c11 2 22 3 29 2l5-1 2-1h-1 1l1-1h1s1-1 0 0h1l1-4v-8l-2-24c0-4 0-10 2-15a40 40 0 0 1 22-26c4-3 9-4 14-5 10-2 19-2 27-1l25 4 22 4c7 2 13 2 18 2l3-1h2l3-1h1l-2 3v2l-1-6-6-22-4-13c-1-5-2-10-1-16l2-10 2-5 1-1 1-1v-1l1-1 1-1 1-1 2-2 4-3 8-4c11-3 20-3 29-3 17 1 34 5 49 8l11 1 12 2c7 2 13 2 17 2l2-1h-1v2c-1 1 0 1 0 0l-3-7-5-9-6-13c-1-3-3-9-3-14-1-5-1-12 2-19a28 28 0 0 1 15-13l14-4h23c15 0 28 2 41 5 13 2 25 4 33 3h4l-2 3v1l-1-7-4-17v-9l3-13c2-4 6-9 11-10l11-3 16 2 22 6c7 1 12 2 15 1 1 0 0 0 0 0h1s-1 0 0 0l1-2 2-7a15 15 0 0 1 28 12l-2 4-7 9a36 36 0 0 1-12 8h-1v1h-1l-7 1c-9 0-15-2-23-4l-21-6-11-2-2 1 1-1 1 2 1 5 5 14c2 2 3 5 4 9l1 7a24 24 0 0 1-10 20l-8 4-7 2h-6c-16 1-28-3-41-6l-37-7h-18l-6 2-1 1 1 2 3 7 5 6 8 9 7 14a35 35 0 0 1 0 28l-2 2-2 4-1 1-1 1-1 1-5 4c-7 5-14 6-20 7-12 0-20-2-28-5l-11-3-12-4c-15-6-29-11-43-13-7 0-14 0-18 2l-4 3-1 1v-1 1l1 2c0 3 3 10 7 16l12 22c2 5 4 10 5 17 0 4 0 8-2 13-1 5-5 9-8 13-7 7-14 8-20 10a62 62 0 0 1-12 1h-3c-11 0-20-2-28-4l-23-8-20-7c-6-1-13-2-18-1-4 1-9 4-10 6l-1 3 2 6 7 19 3 12c1 4 2 10 1 16 0 6-3 13-7 19s-8 10-15 14l-1 1h-1l-2 1-1 1h-1l-7 3-15 2c-9 1-17 0-24-2l-20-6c-11-4-21-9-30-11l-7-1-3-1h-2l-12 1c-8 2-13 5-16 9s-4 7-4 11c0 8 5 15 9 19l2 3 2 2 2 2c10 10 11 26 1 36a25 25 0 0 1-36 1l-7-10z"/>
  </defs>
  <use fill="#ffe800" overflow="visible" xlink:href="#SVGID_3_"/>
  <clipPath id="SVGID_4_">
    <use overflow="visible" xlink:href="#SVGID_3_"/>
  </clipPath>
  <g class="st9">
    <path d="M248 579c-3-7-12-8-15-1s-7 12-13 17l-14 8h-6c-5 0-6 5-4 8l2 2c0 5 4 8 9 7l5-1c7-1 15-3 20-6 13-7 21-21 16-34zm140-110c-2-3-7-3-8 1-5 23-8 47-33 58-15 6-37-5-51-9-24-8-45-8-61 12-2 2 0 5 2 4 11-3 19-8 30-8 13 1 25 6 37 11 13 4 29 9 43 6 31-7 54-44 41-75z" class="st10"/>
    <path d="M385 502c-1-2-3-2-4-1-8 8-8 19-17 26s-21 9-32 10c-22 1-40-8-61-12-4-1-5 4-3 7 17 19 55 21 78 17 19-3 53-25 39-47zm137-106h-3c-12 33-23 58-62 56-23-2-42-19-66-11-4 2-2 8 2 8 21-1 40 13 61 17 13 2 27 0 39-5 22-9 45-43 29-65zm124-71c-2-2-7 0-6 3 17 80-91 30-126 34-5 0-5 7 0 8 33 7 68 24 102 19 27-4 53-42 30-64zm114-55c-3-4-9-1-9 3-2 65-87-7-114 28-1 3 0 6 3 6 18-2 31-2 48 3 14 4 27 8 42 7 20-1 44-28 30-47zm76-53c-2-3-6-10-11-6-6 5-4 15-8 22-4 9-12 19-21 23-10 5-20-2-30 3v5c15 11 34 10 48-2 9-8 28-31 22-45z" class="st10"/>
  </g>
  <path fill="#fff7c3" d="M203 520c-9 7-10 20-10 30 0 9 1 26 11 30l3-1c3-7-1-16-2-23-2-12 1-21 3-33 1-2-3-5-5-3zm171-94c-11 0-18 12-21 22-4 14-4 28 0 42 1 3 6 2 6-1l1-30c1-6 4-13 8-18 3-4 6-7 8-12 1-2 0-3-2-3zm122-74c1-2-1-5-4-4-10 1-16 12-16 22 0 13 5 27 12 37 2 2 5 1 5-1-1-9-5-17-7-26-1-6-1-11 1-16l9-12zm119-21c-4-9-8-16-10-25-1-11 7-15 9-24 0-2-2-3-3-3-11 0-16 14-16 23 1 12 6 24 15 32 2 1 6-1 5-3zm122-103c-20-2-18 27-8 37 1 2 4 0 4-1l-2-16c-1-7 1-9 6-12 4-2 4-8 0-8z"/>
  <g>
    <defs>
      <path id="SVGID_5_" d="M168 733c-13-44 18-98 98-144s251-109 334-157c82-47 235-170 291-149s105 112 22 210-198 188-391 263-326 71-354-23z"/>
    </defs>
    <use fill="#ff9427" overflow="visible" xlink:href="#SVGID_5_"/>
    <clipPath id="SVGID_6_">
      <use overflow="visible" xlink:href="#SVGID_5_"/>
    </clipPath>
    <path fill="#ffb557" d="M199 793c-23-26-19-54-5-84 12-26 34-35 54-53 9-9 23-34 36-38 14-5 33 4 48 0 37-11 40-36 80-43 28-5 50-14 72-32 16-14 32-39 53-46 16-6 34 1 50-4 22-7 37-24 51-41 25-30 65-43 96-66 37-26 89-67 128-90 26-16 50-15 74-3 35 18 54 28 72 57l10 15c-27-46-64-130-130-120-25 4-50 18-73 29-38 18-76 37-112 58-97 53-187 120-287 168-71 35-153 50-215 102-29 24-60 58-62 97-3 34 19 59 41 81l19 13z" clip-path="url(#SVGID_6_)"/>
    <path fill="#ffd48b" d="M180 780c-23-26-6-59 8-89 12-26 33-35 53-53 9-8 15-24 28-29l46-15c37-10 51-35 91-43 27-5 50-8 72-26 16-14 49-42 70-49 16-6 26 0 42-5 23-7 22-23 36-41 26-29 76-35 108-58 37-26 51-48 89-71 27-15 76-22 106-26 40-5 55 28 73 57l10 15c-27-46-65-130-130-120-25 4-50 18-73 29-38 18-76 37-112 57-97 54-187 121-287 169-71 35-153 50-215 102-29 24-60 58-62 97-3 34 19 59 41 81l6 18z" clip-path="url(#SVGID_6_)"/>
    <path d="M686 667c-77 49-285 138-371 127-86-10-48-91 17-132s185-66 229-97c45-32 92-63 125-77 32-13 159-116 184-129 35-19 100 4 57 85a707 707 0 0 1-241 223z" class="st2"/>
    <path fill="#ffd06b" d="M583 636c-1-2-3-2-4-2-4 0-6 3-8 6s-4 6-4 9c-1 4 2 7 6 6l8-8c2-4 4-7 2-11zm43-59c-4-1-7 3-4 6l5 5c2 2 4 5 8 4l3-2c1-6-8-11-12-13zm60 15c-1-4-5-6-9-4l-5 6c-4 2-1 9 3 8 3 0 5 0 7-2s4-5 4-8zm-48 50c-1-4-6-5-7 0l-3 7c-1 3-3 7 1 8 4 2 7-2 8-5s2-7 1-10zm28-114l-2-6c-1-4-7-5-7-1-1 4 0 8 3 11s7-1 6-4zm90-6c-3-1-7 1-9 4l-6 8c-1 3 2 7 5 5l7-5c3-3 6-5 5-8 0-2 0-3-2-4zm52-49c-2 4-3 9-2 14 1 2 4 2 5 1 3-4 3-8 5-12 1-5-7-7-8-3zm-1 74c-6 1-9 6-14 8-5 3-1 12 5 9 5-2 11-6 13-12 1-2 0-6-4-5zm62-54c-3 4-3 8-5 13-2 4 5 7 7 3 3-5 6-9 6-15-1-4-6-5-8-1zm34-65c-1-5-9-3-8 2 1 4-1 8 1 12 1 3 5 3 7 1 3-4 2-10 0-15zm-33-25c-1-3-5-4-6-1l-2 8c-1 6 7 7 9 2 1-3 0-6-1-9zm52-2c0 4 0 8 2 12 1 3 5 2 7-1l1-12c0-6-11-5-10 1zM770 620c0-2-2-3-3-2-6 0-7 8-8 13 0 3 3 5 6 4 3 0 4-2 4-5 0-4 3-7 1-10zm-54 11c-1-5-9-5-9 0l-2 12c0 4 6 5 9 1 2-3 2-9 2-13zm-184 87l-7 1c-7 1-6 12 1 11 5 0 14-2 13-9 0-3-4-4-7-3zm-34-67c-5 4-7 12-5 19 0 3 6 4 8 1 3-4 5-11 5-17 0-3-5-5-8-3zm42-70l-4 7c-1 6 6 9 9 4l3-7c0-4-5-8-8-4zm-95 157c-2 4-5 7-4 11 0 1 1 3 3 2 4 0 6-6 8-10 1-4-6-8-7-3zm-39-40c0-4-6-5-8-1l-3 8v9c0 2 3 3 5 2 5-3 6-12 6-18zm-45 66c-5 3-4 8-4 13 1 4 8 5 8 0l2-10c0-3-4-5-6-3zm-42-42l-3-7c-2-5-8-3-8 1 1 6 2 13 6 16 3 2 8 1 8-4l-3-6zm45-50c-2-5-10-1-7 4l2 5c2 3 6 3 7-1 1-2 0-5-2-8zm-117 75c-3 5-4 13 0 18 3 3 7 2 8-2l1-14c1-5-7-7-9-2zm59 53c-4 1-6 4-9 6-3 3 0 7 3 5s7-5 8-9l-2-2z"/>
  </g>
</svg>
