<svg xmlns="http://www.w3.org/2000/svg" xmlns:xlink="http://www.w3.org/1999/xlink" id="Layer_1" version="1" viewBox="0 0 1000 1000">
  <style>
    .st0{fill:#a4a4a4}.st3{fill:#d09255}.st5{fill:#e1a973}.st6{fill:#fff2d6}.st10{fill:#680600}.st11{fill:#c52009}.st12{fill:#eeb77e}.st13{fill:#c98d52}.st16{fill:#cf8f52}.st18{fill:#d42e07}.st19{fill:#ff4f38}.st21{fill:#ba1f02}.st22{fill:#d93418}.st25{fill:#970e03}.st30{fill:#ffd8ac}
  </style>
  <path d="M973 627c0-57-212-104-474-104S25 570 25 627v21c0 57 212 103 474 103s474-46 474-103v-21z" class="st0"/>
  <ellipse cx="499" cy="626" fill="#eaeaea" rx="474" ry="111"/>
  <path d="M130 567c-28 5-63 22-64 48s84 45 109 60c14 8 59 22 89 20 30-3 82 0 108 7 21 6 72 10 115-8 22-8 86-9 108 8 39 31 142 9 179 0 33-8 66-33 93-36 27-4 98-34 69-68-29-35-642-64-806-31z" class="st0"/>
  <defs>
    <path id="SVGID_1_" d="M516 317c-82 3-227 4-278 50-50 46-38 108-11 126 26 19 285 62 427 27 143-35 178-85 120-153-46-53-145-53-258-50z"/>
  </defs>
  <use fill="#facc98" overflow="visible" xlink:href="#SVGID_1_"/>
  <clipPath id="SVGID_2_">
    <use overflow="visible" xlink:href="#SVGID_1_"/>
  </clipPath>
  <path fill="#efb27e" d="M205 434s12 16 24 13c11-3 28-29 42-35 13-6 20 4 32 17s28 37 54 26c25-10 41-21 46 5s30 56 55 29 43-59 70-60c26-1 78 71 106 60 29-12 53-37 67-40 14-2 79 35 100-18 22-52 3-67-18-91-22-24-385-73-499-26-114 46-79 120-79 120z" clip-path="url(#SVGID_2_)"/>
  <path d="M206 434l10-3 11-2h17c24 0 58 7 97 22l30 13 15 6 16 6a340 340 0 0 0 150 14l40-7 5-2 5-1 9-4 20-7-10 5-12 5-17 7a309 309 0 0 1-175 3c-11-2-23-7-35-11l-34-15c-22-11-46-19-70-25s-48-9-72-4z" class="st3"/>
  <path d="M271 412l9 1 11 1 14 3 18 4 21 6 50 13a389 389 0 0 0 267-27l-8 5-11 6-14 8a289 289 0 0 1-159 29c-32-2-45-5-67-10-23-6-45-14-67-21-21-7-43-14-64-18z" class="st3"/>
  <defs>
    <path id="SVGID_3_" d="M695 465c-54 20-120 60-229 37-108-24-222-79-303-37s-90 122-38 163c0 0 117 92 233 29 115-62 196-73 268-79 71-6 134 4 145-50s-7-88-76-63z"/>
  </defs>
  <use fill="#ffe0ac" overflow="visible" xlink:href="#SVGID_3_"/>
  <clipPath id="SVGID_4_">
    <use overflow="visible" xlink:href="#SVGID_3_"/>
  </clipPath>
  <path fill="#e1ab73" d="M144 642c-3-1 72 40 127 37s70-9 83-26c13-16-63-11-63-11 13 15-9 27-23 14 0 0-28 23-39-2 0 0-37 4-85-12z" clip-path="url(#SVGID_4_)"/>
  <path d="M565 533l-9 4a246 246 0 0 1-64 23 161 161 0 0 1-85-8 245 245 0 0 0-101-15c-12 1-24 3-35 8s-21 12-28 23c-7 10-11 22-14 35-2 13-3 26-2 39v-3l-1-8c-1-7-1-17 1-29l1-10 3-11a67 67 0 0 1 33-40c9-5 19-8 29-10a221 221 0 0 1 102 8l17 6 8 3 8 2c23 6 47 7 70 4 24-4 46-12 67-21z" class="st5"/>
  <path d="M544 524l-2 1-7 3c-6 3-14 6-26 8a227 227 0 0 1-98-2c-20-5-40-13-62-19-22-7-46-10-70-8a124 124 0 0 0-53 16 76 76 0 0 0-32 46l-4 20-1 20-1-11c0-7 0-17 3-30s9-28 22-41c12-13 31-23 53-26 21-4 44-4 68 1 23 5 46 14 69 21 11 4 23 8 35 9l18 2a277 277 0 0 0 54-1c12-2 23-4 34-9z" class="st5"/>
  <path d="M453 514l-35-5-19-3-21-5a1242 1242 0 0 0-25-5l-26-6-15-2-15-3-15-2-8-1h-9l-16-1-17 1c-11 0-23 3-34 6a92 92 0 0 0-54 44l-7 18-4 18c-3 12-3 25-1 38l-2-10c-1-7-2-17 0-29l1-10 3-11 1-5 3-6 2-5 3-6 3-6 4-5 10-11 5-4 6-5 14-8c18-9 41-12 64-13 11 1 23 1 34 3l17 2 18 3 17 4 17 5 17 4 17 5 67 16z" class="st5"/>
  <path d="M412 498l-14-4-37-8-25-5-28-5-15-2a679 679 0 0 0-45-5h-15l-7 1-8 1h-4l-3 1-7 1-14 3-13 4-12 5a109 109 0 0 0-35 29l-5 7a344 344 0 0 1-9 15l-2 4 1-4 3-10 4-7a139 139 0 0 1 17-26l20-18 12-8 14-7 15-5 8-2 4-1h4l8-1s1 0 0 0h9l16 1 16 2 16 3a575 575 0 0 1 117 35l14 6z" class="st6"/>
  <path d="M150 575v-3l1-7a94 94 0 0 1 31-52c5-5 10-9 17-12l9-5 10-4 10-3 5-1 5-1 11-1h10l4-1 5 1h9l9 1 8 2a214 214 0 0 1 24 6l9 3-9-2-11-2-14-1-8-1h-26l-10 1-9 2-5 1-5 1-9 3-9 4-9 4-15 11a129 129 0 0 0-29 37l-5 10-4 9z" class="st6"/>
  <path fill="#d69e69" d="M309 656l-7-5a118 118 0 0 1-29-34c-3-6-6-13-7-21l-1-3v-9l4-13c4-9 12-15 21-20a123 123 0 0 1 70-5l9 3 15 7a140 140 0 0 0 102 11c24-5 47-15 70-25l-9 5-10 6a491 491 0 0 1-56 21 140 140 0 0 1-85-4l-30-13-8-2a93 93 0 0 0-23-4c-11 0-22 1-33 4-10 3-20 8-26 17-6 8-6 20-4 31 3 10 8 20 14 29 7 9 15 17 23 24z"/>
  <g>
    <path fill="#dfa772" d="M487 647s73 61 201 53c48-3 101-1 131-37 31-36-64-88-150-85s-175 53-182 69z"/>
    <defs>
      <path id="SVGID_5_" d="M612 584s-27-12-41 17c0 1-36 13-18 46 0 0 3 27 36 32 0 0 6 14 32 11 0 1 11 11 27-2 0 0 25 6 30-17 15 2 14-22 11-27 0 0 11-15-2-30 6-5-3-28-26-27-3-12-34-24-49-3z"/>
    </defs>
    <use fill="#a31901" overflow="visible" xlink:href="#SVGID_5_"/>
    <clipPath id="SVGID_6_">
      <use overflow="visible" xlink:href="#SVGID_5_"/>
    </clipPath>
    <path fill="#7a0a01" d="M545 634c8 5 19-4 26-8l35-13c9-3 22-7 32-6l6 2c2 0 5-3 8-3 6-1 10 3 11 8 13-1 19-2 29 5 8-8 3-21-5-26-12-8-5-14-18-15 3-3-18 5-18-1-1-5-7-8-11-10-17-7-40 7-56 13-17 6-29 10-42 24-6 6-9 8-9 17 0 5 0 18 8 17" clip-path="url(#SVGID_6_)"/>
    <path d="M604 642h7l6-4 5-7s1 4-2 9c-1 3-4 5-8 6-3 0-6-1-8-4zm45-13l7-3c4-2 8-4 10-11l1 3c0 2 0 4-2 6-1 3-4 5-7 6s-6 1-9-1zm-8 32a38 38 0 0 0 14 0c4-1 8-4 9-9v-16a89 89 0 0 0 3 9l1 3v4l-1 4-2 4-8 5c-6 1-12-1-16-4zm-40 13h3l8-1 8-7 7-11v4l-3 9c-2 3-5 7-10 8-4 1-9 0-13-2zm33 13l3-1 6-2c2-1 4-2 6-5 2-2 3-5 4-9l1 3-1 8c-2 3-5 6-9 7-3 1-7 1-10-1zm-63-47h2l5-2c2-1 4-2 5-5l2-8 1 2 1 7c-1 3-3 6-7 7-3 2-7 1-9-1z" class="st10"/>
    <path d="M659 643c-1-4-4-7-8-8a11 11 0 0 0-10 0c-2 0-3 1-4 3-2 2-3 5-2 8 0 3 1 7 5 8l3 1h5l5-1c5-1 8-6 6-11zm-42 6l-6-2c-4-2-9 0-13 4-4 3-5 8-4 13 1 4 5 6 9 6 6 0 13-4 17-9l2-6c0-2-2-6-5-6zm-1-23c0-4-2-6-5-7-7-3-12 3-13 8-2 6 2 11 8 12 6 2 12-3 12-9l-2-4z" class="st11"/>
    <path d="M644 627v-2c0-5-4-9-9-11-4-1-8 1-11 3-2 3-3 6-3 10-1 3 1 6 4 8l2 2c2 3 6 3 9 2h2c4-2 6-5 6-9v-3zm27-6c-13 5-7 27 7 24 3-1 5-4 5-7l2-4c2-8-6-15-14-13z" class="st11"/>
    <path d="M732 675c-1-4-5-6-9-8l-2-1c-2-18-57-20-99-11-45 11-91 0-91 0-47 4 40 38 95 44 52 5 83-5 93-26 3 2 6 6 10 6l3-4z" class="st12"/>
    <path d="M541 653l4 1 12 2c10 2 25 1 43-2 17-3 38-9 61-11 11-1 24-1 36 3l16 8 14 13-4-3-12-7c-5-3-11-5-19-6-7-2-16-2-25-1-19 2-39 7-61 11-11 1-23 2-34 1s-22-4-31-9z" class="st13"/>
    <path d="M527 658l5 2 5 2 7 2c10 3 26 5 44 4 19 0 41-4 65-6 12 0 24 0 37 2a90 90 0 0 1 35 15l-4-2-14-5c-12-3-28-4-48-2-19 1-42 5-65 6-12 0-24-1-35-4-12-2-23-7-32-14zm170-51l1-1h5a51 51 0 0 1 36 21 26 26 0 0 1 4 28v-4l-1-3c-1-4-4-10-8-15s-10-10-17-14c-6-5-13-9-20-12z" class="st13"/>
    <path d="M726 634c-3-1-6 2-6 5 4 12 16 19 18 33 1 3 5 2 5-1 1-12-6-30-17-37zm-3 46l-9-4-3-1-5-1c-2 0-4 3-2 5l3 3 4 2c3 2 7 4 10 2 3 0 4-4 2-6zm35-41c-1-1-3-2-4-1-3 4-4 9-5 14s-4 12-3 18c0 2 2 3 4 2 5-4 7-11 9-16 1-6 2-12-1-17z" class="st12"/>
  </g>
  <g>
    <defs>
      <path id="SVGID_7_" d="M538 642s80-54 165-46c114 10 46 56 56 75 13 25 53 8 60-8 0 0 46-1 71-36 0 0 46 5 46-29 0 0 19-21 0-47 0 0 19-17-13-58-33-41-127-65-191-56-79 11-149 108-216 124-66 16-101 17-129 2-35-20-92-21-113 12-22 34 21 86 91 107 69 20 147-22 173-40z"/>
    </defs>
    <use fill="#ffe0ac" overflow="visible" xlink:href="#SVGID_7_"/>
    <clipPath id="SVGID_8_">
      <use overflow="visible" xlink:href="#SVGID_7_"/>
    </clipPath>
    <path fill="#efb27e" d="M761 455c-44-5-82 3-116 28-29 22-23 54-54 74-26 16-56 29-85 38-23 7-47 16-71 15-20-1-43-1-62-11-16-9-35-26-54-16-17 8-23 26-13 44 11 21 28 38 47 52 5 3 14 6 16 12-47 3-100-22-119-66s-8-96 46-106c55-10 111 14 166 12 42-1 79-21 115-42 28-16 58-30 86-48 29-18 110-22 144-9 0 0-6 28-46 23z" clip-path="url(#SVGID_8_)"/>
    <path fill="#eeb77e" d="M805 435c22 3 53 25 73 39 19 14 13 26 18 47 13 12 22 35 18 48-8 21-31 17-46 8 4 6 10 27-4 24 0 11-12 35-23 41-11 5-31 3-40-7 2 26-37 42-38 8-11 13-17 38-3 51 28 25 81-6 104-20 19-11 34-15 50-31 15-17 31-46 39-68 12-31 4-64-13-92-15-25-43-35-70-39l-27-3c-4 0 4 0 0 0s-18-12-22 2l-16-8z" clip-path="url(#SVGID_8_)"/>
    <path d="M798 647l1-3 2-9a99 99 0 0 0-12-58c-4-8-10-16-19-20-9-5-20-7-31-9h-37a290 290 0 0 0-81 19c-28 10-55 26-85 40l-12 4-12 4-12 4-12 3-51 9c-17 1-35 1-52-2a99 99 0 0 1-44-21l9 6c8 5 20 10 37 12 33 5 80-3 131-21 25-9 50-24 78-37a295 295 0 0 1 91-26c16-2 32-3 49-1l24 5 5 2 6 3 10 7a89 89 0 0 1 17 89z" class="st16"/>
    <path d="M295 582a270 270 0 0 0 0 5l1 4c1 5 4 13 11 21 6 8 15 16 27 24 12 7 27 14 44 17l3 1 4 1h6l7 1h7l29-2c20-4 40-10 61-18l63-27 32-15c11-4 22-9 34-11l-9 3-10 5-14 6c-21 10-49 27-83 42-17 8-36 15-57 20-20 5-42 7-65 4a135 135 0 0 1-61-26c-8-7-16-15-22-24-6-10-9-20-8-31z" class="st16"/>
    <path fill="#daa366" d="M291 615l1 2 4 6a200 200 0 0 0 87 52h-3l-8-1a105 105 0 0 1-74-41c-4-6-7-12-7-18z"/>
    <path d="M336 559a260 260 0 0 0 8 10l2 3 3 3 7 5 4 3 5 3 5 2 5 1 7 1 6 1 14 2a266 266 0 0 0 68-5c13-2 26-6 39-11 26-9 53-24 83-38l46-19a265 265 0 0 1 162-4 126 126 0 0 1 79 78l-3-3-2-5-3-5c-5-9-13-21-26-33-14-12-33-23-57-29-23-7-51-9-80-6a301 301 0 0 0-90 24c-30 13-60 29-92 42a235 235 0 0 1-103 19c-17 0-34-2-51-7-8-2-15-7-21-13-6-5-11-12-15-19z" class="st16"/>
    <path d="M841 563l2 1 4 3c4 3 8 7 12 14s7 17 8 27c0 10-2 20-6 30v-8a184 184 0 0 0-8-43l-12-24zM916 566l-2-6-2-6-2-5-2-4c-6-13-18-30-39-43-10-7-22-13-35-17a197 197 0 0 0-136 4l5-3 17-8a168 168 0 0 1 166 28 98 98 0 0 1 30 60z" class="st16"/>
    <path d="M711 492l8-2a183 183 0 0 1 55-7 168 168 0 0 1 65 14l9 4 14 11 6 5 5 7a79 79 0 0 1 11 21l2 8-6-6-7-7-4-4-5-4-5-5-6-4-6-4-7-4-15-7-17-6-18-4-17-3-16-1-15-1h-13l-10-1h-8zm-80 81s9-6 25-11l12-4 15-4a175 175 0 0 1 49-3l8 1 8 2 8 3 7 4 11 10c3 3 5 7 6 11 2 3 2 6 2 8l1 6v2l-2-1-3-5-2-3-2-1-1-2a68 68 0 0 0-17-13l-3-2-3-1-6-2-7-2-7-2-15-1h-15l-16 1-27 4c-16 2-26 5-26 5z" class="st6"/>
    <path d="M619 546l10-5 11-4a507 507 0 0 1 54-15l22-3h36l6 1 6 1c8 1 16 4 23 7l11 5 5 3 4 4 8 8 3 5 2 4 4 8 2 8 1 7v6l-2 11-1-3-3-7a213 213 0 0 1-5-10l-4-6-5-6-12-10-3-2-4-2-9-4-19-6a180 180 0 0 0-43-4 379 379 0 0 0-42 2l-18 2a638 638 0 0 0-38 5z" class="st6"/>
  </g>
  <g>
    <path d="M711 530c3-10 10-18-7-28-17-9-38-12-55-7-18 6-20 16-24 16s-32 8-47 15c-14 7-15 24-17 27-3 2-14 11-5 20 10 10 25 1 41-9 17-10 33-13 40-11 7 1 21 0 28-10 7-9 43-2 46-13z" class="st18"/>
    <path d="M563 556c-8 0-10 12 0 16 9 4 19-15 0-16z" class="st19"/>
    <path fill="#a31200" d="M677 357c-6 0-14-3-17 4-2 6 3 11 6 14l12 7c4 4 6 9 9 13 11 15 32 11 48 8 17-5 35-2 44-22 11-23-10-36-31-37-15-1-32-2-46 0-5 0-11 2-15 5-3 3-4 8-10 7"/>
    <path d="M499 272c-37 1-87 25-104 23-17-1-75 2-105 21-29 19-73 42-83 74-10 26-9 44 5 48 15 5 27 1 40-18 19-28 42-25 50-8 9 17 23 41 43 38 20-4 35-27 57-21 21 6-9 48 25 54 35 6 34-39 68-58 34-20 70-10 91 18 22 28 45 42 69 19 23-23 38-32 59-25 22 8 45 19 74 8 24-9 25-20 19-46-6-24-18-32-33-50s-115-55-150-54c-35 2-42-26-125-23z" class="st21"/>
    <path d="M466 290c-40 4-66 15-100 17s-51-2-95 26c-45 28-43 66-14 57 30-9 63-2 70 9 7 12 48 23 74 0 25-22 57-9 75 0 19 9 45-3 61-9s41 35 73 35 39-25 58-28c19-2 49-80-13-87-61-8-73-32-189-20z" class="st22"/>
    <path d="M268 340c-18 12-26 24-10 27 17 3 38-8 49 0 12 8 52-19 29-27-23-7-29 14-40 6-10-8-18-12-28-6z" class="st19"/>
    <path d="M425 467c-8 2-10-28 0-42 10-15 29 36 0 42z" class="st22"/>
    <path d="M336 382c-7-12 18-21 37-15 19 7-18 46-37 15z" class="st19"/>
    <path d="M216 431c-16 0-12-35 0-41s22 42 0 41zm119 7c-18-2-20-21-29-32-8-11 0-14 8-8 7 6 19 24 38 19s39 0 26 8c-12 7-25 16-43 13z" class="st22"/>
    <path d="M583 401c7 10 17 18 36 11 19-8 38-11 39-23s-12-24-35-24c-22 1-54 16-40 36z" class="st21"/>
    <path d="M495 325c-29-6-46 6-19 19 28 13 56-12 19-19zm146 2c-4-13-41-25-54-17-13 7-47 7-50 20s44 24 59 13 51 4 45-16z" class="st19"/>
    <path d="M727 435c-20-7-39-16-34-25 5-8 76 12 68 25-8 14-19 5-34 0z" class="st22"/>
    <path d="M559 389c-16-6-10-21 1-23 12-2 18 31-1 23z" class="st21"/>
    <defs>
      <path id="SVGID_9_" d="M453 305s-8-14 0-24c0 1-3-28 20-28 0 0 16-12 34 0 0 0 31-17 39 9 0 0 22 5 15 27 0 0 8 0 6 13l-49 7c-7 2-37 0-44-5-6-5-21 1-21 1z"/>
    </defs>
    <use fill="#a31901" overflow="visible" xlink:href="#SVGID_9_"/>
    <clipPath id="SVGID_10_">
      <use overflow="visible" xlink:href="#SVGID_9_"/>
    </clipPath>
    <path fill="#7a0a01" d="M530 247c13 6 19 26 4 34-1 16-17 19-28 12-1 10-9 14-16 18l14 4c5 2 9 4 14 3 15-1 30-3 44-7 33-8-3-57-20-65-4-2-7-1-11-1l-1 2z" clip-path="url(#SVGID_10_)"/>
    <path fill="#b82003" d="M425 314l3-2 9-3c8-3 20-7 34-7h23l25 2c17 1 36-1 54-3l-13 4-16 4-10 2h-11l-5 1h-6l-13-1-24-2c-17 0-34 2-50 5z"/>
    <path d="M542 268l1 1 1 3c1 3 0 7-4 9v-9l2-4zm-31-9h1l1 2 3 7c0 3 0 7-2 10-2 4-6 6-10 7l1-1 1-1c2-1 3-3 4-6 2-5 2-11 1-18zm9 40l2-2 1-2 2-2 9-13 1 3-2 6-4 7-9 3zm-44-11h2l2-1 2-2 13-8-1 2a16 16 0 0 1-10 10c-2 1-5 1-8-1z" class="st10"/>
    <path d="M503 253c-3-2-6-3-10-3h-3c-7 0-12 6-14 12-1-3-4-4-7-4-4 0-7 3-9 7l-1 2c-3 5-1 12 4 15h8c4-3 7-7 7-11 2 7 10 11 17 9l6-5 4-3c4-6 3-14-2-19zm33 3c-1-4-5-7-10-7-4 1-7 3-9 7-2 3-2 7 0 10 2 4 7 6 11 4 2 0 3-1 4-3 4-2 6-7 4-11zm-68 31c-7-4-14 2-13 10 1 3 4 4 7 4 3 1 7 1 9-2 4-4 2-10-3-12z" class="st11"/>
    <path d="M414 330c11 0 42 7 41 26-1 20-50 40-77 21-28-18-7-47 36-47z" class="st25"/>
    <defs>
      <path id="SVGID_11_" d="M389 297s-18-9-27 13c0 0-24 8-12 32 0 0 2 20 24 24 0 0 4 10 21 8 0 0 8 8 18-2 1 0 17 5 20-12 10 2 10-16 8-20 0 0 7-11-2-21 4-4-1-20-17-20-2-9-23-17-33-2z"/>
    </defs>
    <use fill="#a31901" overflow="visible" xlink:href="#SVGID_11_"/>
    <clipPath id="SVGID_12_">
      <use overflow="visible" xlink:href="#SVGID_11_"/>
    </clipPath>
    <path fill="#7a0a01" d="M422 298c4 6 13 9 10 17-2 5-7 10-12 13 6 9 8 21-3 27 1 8-1 16-10 16s-12-5-19-9c-1 9-11 11-18 7 13 22 37 15 55 4 9-6 16-10 21-20 6-12 3-24-1-37-2-6-2-14-6-19-3-3-12-6-14-2l-3 3z" clip-path="url(#SVGID_12_)"/>
    <path d="M384 339h4l4-2 4-6-2 7c0 2-2 3-5 4-2 0-4-1-5-3zm30-9l4-2c3-2 6-4 7-8v1l-1 5c-1 2-2 4-4 4h-6zm-6 23h10c3-1 5-3 5-6l1-13a27 27 0 0 0 2 7v8l-2 3-5 4c-4 1-8-1-11-3zm-26 9h2l5-1 6-4 4-8v2l-2 7c-1 2-3 5-6 6s-7 0-9-2zm22 10l2-1 4-1 4-4 3-6v2l-1 5c-1 3-3 5-5 5h-7zm-42-34l1-1 4-1 3-3 1-6 1 1v5c0 3-2 5-4 6l-6-1z" class="st10"/>
    <path d="M414 297c0-2-1-4-3-5-3-3-7-4-11-2-2 0-4 2-6 4-2 0-4 2-5 4l-1 4-4-4h-9c-4 1-6 4-8 8-1 3 0 7 2 10-2-2-5-3-8-3-4 1-7 3-9 6l-1 5c0 2 1 5 3 7l2 1c3 2 6 2 8 1l5-5 1-1 1-3c1-2 0-4-1-6l4 3h1v7l3 4 1 1c1 2 4 2 6 2h1c4 0 6-4 6-7v-1c2-1 2-4 2-6l-4-5 1-2v-3l5 5c6 4 16-1 18-7 2-4 2-8 0-12zm-33 45c-2-2-4-3-6-2-7-2-13 4-13 11s9 12 15 9c4-2 7-4 8-8s-1-8-4-10zm35-6c-2-2-4-4-7-4l-4 2h-1c-4 1-5 5-4 9 2 7 11 7 15 2 2-2 3-6 1-9z" class="st11"/>
    <path d="M396 324c-2-4-5-7-10-7h-2l-2 1-2 3c-1 2-2 4-1 6 0 3 3 6 7 6h4c4 0 8-4 6-9z" class="st11"/>
    <g>
      <path d="M658 340s-5 28 14 34c0 0 15 20 27 19 0 1 13 15 36 10 22-6 37-10 39-19s-2-26-14-30c-11-4-85-42-102-14z" class="st25"/>
      <defs>
        <path id="SVGID_13_" d="M712 279s-18-9-29 11c0 0-39 12-24 45 0 0-3 31 25 36 0 0 3 15 24 13 0 0 13 13 27 0 0 0 21 2 30-13 10-15 7-25 4-31 0 0 9-15-2-29 6-6-2-28-22-28-1-12-24-17-33-4z"/>
      </defs>
      <use fill="#a31901" overflow="visible" xlink:href="#SVGID_13_"/>
      <clipPath id="SVGID_14_">
        <use overflow="visible" xlink:href="#SVGID_13_"/>
      </clipPath>
      <path fill="#7a0a01" d="M722 271c6 0 16 6 19 12l3 9c2 4 5 5 6 11 0 4-1 6-3 10l-1 10c0 11-6 12-15 12 4 16-10 19-23 19 2 7 1 19-7 23-5 3-11 1-16-2-12 18 25 23 35 24 14 1 29-7 40-15s16-23 23-34c6-12 9-22 6-35-4-14-6-29-14-40s-21-16-34-16c-5 0-18 0-20 6l1 6z" clip-path="url(#SVGID_14_)"/>
      <path d="M747 309l2 2c2 1 4 2 5 5 2 2 3 6 2 10s-5 6-9 7l2-2 2-3 1-3c1-4-2-10-5-16zm-29 7l2 1 5 4c2 2 3 6 1 10-1 3-4 5-8 6l2-2 2-5c2-4-1-8-4-14zm36 42l1-1 1-2v-2l2-13 1 2 2 5v3l-1 4c-1 3-4 5-6 4zm-69-3l6-3 11-8s1 4-3 8c-3 4-10 6-14 3zm35 12l5-5c3-3 6-6 7-13 0 0 3 4 1 9-1 3-2 5-5 7-2 2-5 2-8 2zm-27-72l2 2 3 6c0 2 1 6-1 9-1 3-4 6-7 7l1-2 2-6v-16z" class="st10"/>
      <path d="M682 305c-3-5-10-6-14-3-6 5-10 14-8 22 1 6 8 8 13 7 4-1 6-4 8-8l1-3c2-4 3-10 0-15zm54-19c0-7-6-11-13-11-6 1-10 6-9 12v3l2 5 2 3c5 4 13 2 16-4l1-2 1-6zm-25 0c-1-4-6-7-10-7s-7 4-7 7c0 6 7 14 13 10l2-3c2-1 2-4 2-7zm4 28l-5-3c-3 0-7 0-9 2-4 3-6 8-6 13s4 10 9 12c6 1 12-3 14-8 2-6 2-12-3-16z" class="st11"/>
      <path d="M686 334l-7-4c-1-3-4-4-8-3s-5 5-4 8l-2 2-2 3-1 6c0 7 7 13 14 12 7 0 14-5 15-12 1-5-1-10-5-12zm31-42c-3-2-6-1-9 0s-6 3-7 6c-3 4-1 9 2 13 3 2 6 3 9 2 3 0 5-1 7-3l3-3 1-3c0-5-2-10-6-12z" class="st11"/>
      <path d="M698 328l-4-1c-3-1-6-1-8 2-5 5-2 13 5 15 4 1 7-2 9-5 2-4 1-8-2-11zm44-23c-1-2-4-3-6-3-8 1-14 10-9 17l4 3c4 2 8 2 10-2 2-1 3-4 4-6 1-3-1-6-3-9z" class="st11"/>
    </g>
    <path d="M137 613c-19-10-64 2-71 13-8 12 11 43 37 41s38 17 47 22c8 4 29 14 44 5 15-8 54 2 58-10 5-11-35-12-66-41-26-24-34-22-49-30z" class="st18"/>
    <g>
      <path d="M250 450c-29 1-36 20-2 22 35 3 30-23 2-22z" class="st18"/>
      <path d="M249 452c-17-1-24 11-10 12 13 2 19-11 10-12z" class="st19"/>
    </g>
    <g>
      <path d="M429 509c-38-4-53 8-26 14 35 9 56-12 26-14z" class="st18"/>
      <path d="M404 510c-11 0-13 7 0 9 13 3 16-9 0-9z" class="st19"/>
    </g>
    <g>
      <path d="M580 546l18 6c7 2 26-1 39-7 13-7 24-13 35-22 10-9 1-20-18-25-19-6-98 40-74 48z" class="st25"/>
      <defs>
        <path id="SVGID_15_" d="M634 456s-4-13-24-9c-21 4-27-2-38 9 0 0-15-1-19 10-3 11 0 18-4 21s-9 27 6 34c0 0 5 26 30 25 0 0 21 7 35-1 0 0 17-7 24-16 0 0 10-1 13-16 3-16-6-21-4-25 3-4 12-31-19-32z"/>
      </defs>
      <use fill="#a31901" overflow="visible" xlink:href="#SVGID_15_"/>
      <clipPath id="SVGID_16_">
        <use overflow="visible" xlink:href="#SVGID_15_"/>
      </clipPath>
      <path fill="#7a0a01" d="M630 451c11 13-2 25-14 26 4 6 0 12-4 15 4 6 10 10 12 18 1 6-1 13-7 17 13 5 2 18-4 24 5 0 12-6 16-8 6-3 13-6 18-10 9-6 14-21 12-31-1-6-3-10-2-15 2-7 4-15 3-22-3-10-15-19-25-15l-3 1h-2z" clip-path="url(#SVGID_16_)"/>
      <path d="M642 478l2 2 4 6c1 3 2 6 1 10s-4 7-7 9l1-3 2-6c1-5-1-11-3-18zm-19 27l2 2 2 6c1 3 0 6-2 10-2 3-5 5-9 6l2-2 3-6c3-4 2-10 2-16zm-11-36l2 2 2 6c1 2 1 6-1 9-1 3-4 5-7 6l4-7v-16zm-12 36l1 2 1 6-4 8c-3 2-7 3-10 2 0 0 4-2 6-5 3-3 5-7 6-13zm-23-18l1 2 1 5c0 3-1 6-4 8-2 3-6 3-9 3 0 0 4-2 6-5 3-3 4-8 5-13z" class="st10"/>
      <path d="M575 466c-5-10-18-5-19 5v1l-1 1c-1 5 0 11 4 14-4-1-7 1-10 5l-1 6c-1 3 1 7 3 10 2 2 6 2 9 1 4-3 8-9 7-15l-5-6c5 2 8-1 11-4 5-4 6-13 2-18z" class="st11"/>
      <path d="M608 470c0-5-3-11-8-14-4-2-9-1-13 1l-5 7-1-1c-2-1-4 0-6 1s-3 3-3 5c1 3 2 6 5 7l4 1c2 8 10 15 18 11 7-3 10-11 9-18zm-14 32c-3-3-7-4-11-3-2 0-3 1-5 3l-2 5v7l-4-1c-3 1-7 2-8 5-3 3-3 6-3 10l5 8 3 2h1c4 3 11 3 14-2 4-5 4-11 0-16 2 0 5 0 6-2 5-3 8-11 4-16zm29-51c-5-3-11-3-15 1-2 2-3 4-3 7l5 8c4 2 10 2 13-2h1c4-4 3-11-1-14z" class="st11"/>
      <path d="M593 458v-1c-2-4-7-6-12-5s-8 8-8 13c1 5 4 8 9 9 3 1 8 0 11-3 3-4 3-9 0-13zm18 70l-2-2c-3-2-8-3-11 1-3 2-4 6-3 10v2l1 2c1 2 4 3 6 3 3 1 5 1 8-1 3-1 4-5 4-8s-1-5-3-7z" class="st11"/>
    </g>
    <g>
      <path d="M157 680c11 1 25 3 34-4 11-9 7-22-3-30-11-8-25-9-37-9-10 0-28-3-36 3-25 19 31 39 42 40z" class="st25"/>
      <defs>
        <path id="SVGID_17_" d="M193 575s1-16-20-21c1 0-11-23-38-9 0 0-23 0-37 16s-5 30-5 30-15 17-8 28c7 10 14 14 14 14s-4 14 8 23c11 10 20 7 20 7s23 11 37 0c0 0 24 7 28-19 0 0 22-9 15-32 0 0 16-29-14-37z"/>
      </defs>
      <use fill="#a31901" overflow="visible" xlink:href="#SVGID_17_"/>
      <clipPath id="SVGID_18_">
        <use overflow="visible" xlink:href="#SVGID_17_"/>
      </clipPath>
      <path fill="#7a0a01" d="M172 552c8 4 20 12 20 22 1 5-3 7-5 12s1 8 1 14c0 8 8 23-3 27-9 5-22-1-30-3 0 19-22 22-35 16 1 13-12 15-19 6-2 25 37 37 56 32 14-4 29-14 41-23 14-10 19-25 21-43 1-12-2-24-6-36-4-10-14-15-22-21l-19-3z" clip-path="url(#SVGID_18_)"/>
      <path d="M188 608l2 2c1 1 3 3 3 6l1 6-4 5c-3 3-7 4-11 4l8-6c2-2 3-4 3-7l-2-10zm-62 31l3 1h7l9-4 9-8s0 5-6 11c-2 2-6 4-10 4-5 1-9-1-12-4zm31 13a24 24 0 0 0 9-1l6-4 7-8v3l-3 7c-2 3-5 5-9 6-4 0-7-1-10-3zm-23-45l2-1 7-1 8-4 9-8-1 3-4 7c-3 3-6 5-10 6-4 0-8 0-11-2zm-31 21a264 264 0 0 0 9 2l9-1 10-5c0-1-2 4-8 8-2 2-7 3-10 2-4 0-8-3-10-6z" class="st10"/>
      <path d="M153 584c0-3-2-6-4-7l4-2h1c7-3 10-10 11-17 0-8-7-14-14-15s-12 5-15 10l-2 8-3-4c-6-4-11 1-13 6l-3-2c-3-1-7 0-10 2-4 1-6 5-7 9l-1 5c0 6 5 10 11 11 5 1 10-3 12-8 2-2 2-4 2-7l3 2c4 0 8-1 9-5v-1l2 2 5 5-6 2c-2 1-5 3-6 6l-1 3c-2 5 1 10 5 13 3 3 9 2 12 0 4-2 6-5 7-9v-1l1-6z" class="st11"/>
      <path d="M126 601h-1c-1-4-4-7-9-8-9-1-17 4-20 13-3 10 5 22 17 21 6-1 11-3 14-8 4-5 3-13-1-18zm60-26c1-3 0-6-1-9-3-5-8-7-14-6-4 1-7 5-8 9-3 8 4 17 12 17 6 0 10-5 11-11zm-9 27c-4-2-7-2-11-1-4 2-6 7-6 10 1 5 3 8 8 9l2 1c5 2 11-2 12-7s-1-10-5-12z" class="st11"/>
    </g>
    <g>
      <path d="M459 346l-3-6c0-2-2-2-2 0-1 2 0 5 1 7s3 4 6 4l1-1c0-2-2-3-3-4zm3-10c0-2-2-3-4-4l-5-5c-2-1-4 1-3 2l5 5 6 4 1-2zm1-7l-2-4c0-2-3-1-3 1 1 3 3 8 6 8l2-1-3-4zm8 0c-3 3-5 7-5 11-1 3 2 3 3 1 0-4 3-7 4-11l-2-1zm5 13l-5 6c-1 2 1 3 2 2l4-7-1-1zm3-11l-4-4c-1-2-3 1-2 2 1 2 2 4 4 4 2 1 4-1 2-2zm4-9l-4-3-7-2c-1-1-2 1-1 2l6 3c2 1 4 2 5 1l1-1zm-17-2l1-5c0-2-4-2-4 0 0 3-2 8 2 10l1-1v-4zm-4-12l-4 2-5 3c-2 0-1 3 1 3 3-1 8-3 9-6 1-1 0-2-1-2zm21 5c-2-1-3 2-2 3 3 1 6 4 9 3l1-2c-1-3-6-4-8-4zm9 14c-1 2-2 5 0 6 2 2 3-4 4-5 1-3-3-4-4-1zm-3 20l-5 5c-2 1 1 4 3 2 1-1 4-3 4-6l-2-1zm33-4c-3 0-5 5-9 5-2 0-1 3 1 3l5-2c2-1 4-3 4-5l-1-1zm-20 23c-1-3-4-2-4 1 1 2 1 5 3 5h1v-6zm-31-3c-1-2-3-2-3 0 0 3 1 8 4 9h1l-2-9zm-17 0c-3 1-5 5-6 8-1 2 2 3 3 1l2-4 2-4-1-1zm28-5c-1-2-4-1-3 1 0 2 1 5 3 5l1-1-1-5zm-18 0l-6-2-1 2c2 1 5 2 7 1v-1zm72-34c-1 3-3 5-2 8h1c2-2 2-5 3-7s-2-2-2-1zm7 27l-3-4c0-2-2-1-2 1 1 1 2 4 4 4l1-1zm-19-20c0-3-3-2-3 0v4c1 2 4 2 3 0v-4zm-16 6l-3 5 1 1c3 1 4-2 5-4s-2-3-3-2zm3-13c-1-2-4 0-3 1 1 2 3 6 6 6v-1c1-2-2-5-3-6zm-12 16c0-2-3-2-3 0l1 8 1-1c2-1 2-5 1-7zm-9-3l-6-1c-1 0-2 3 0 3l6-1v-1zm18-24c-2-2-5-1-7-2s-3 0-2 1c2 3 7 4 9 2v-1zm23 6c0-2-4-2-4 0 0 3 2 6 5 6l1-2-2-4zm-10-2c0-2-3-2-3 0v7h2l1-7zm-21 5l-2 4h1l3-3-2-1zm-54-15l-2-4c-1-2-3 0-3 1 1 3 3 8 6 7l1-2-2-2zm1-8c-1-2-4-2-6-3-1-1-3 1-2 2 2 2 5 4 8 3v-2zm-94 61l-2-3-4-3c-1-1-3 0-2 1 2 2 4 6 7 6l1-1zm45-60c-1-2-4 0-3 2 2 2 5 4 7 3l1-1-5-4zm-12 5c-1 2-2 5-1 7h1l2-6c0-2-2-2-2-1zm23-7l-2-1-3-2c-1-1-3 0-2 2 1 1 5 5 7 2v-1zm0 15c0-2-4-2-4 0 1 2 1 4 3 5l1-1v-4zm-33 2v3h1v-3h-1zm1-11c-2 1-5 3-4 5l1 1 2-2 2-3c2-1 0-2-1-1zm-13 14h-3l2 4 1-1v-3zm26 4c0-2-4-2-4 0l4 5 1-1-1-4z" class="st30"/>
      <path d="M377 315c0-2-2-2-3 0 0 2-1 6 1 8l2-1v-7zm49-2c0-2-2-3-3-4-1-2-3 0-2 1 1 2 2 4 4 4l1-1zm145-9c-2-1-3 1-2 3 2 2 5 5 9 5l1-1c-1-4-5-5-8-7zm0 15l-1-4c0-2-2-2-3 0 0 3 1 9 4 10l2-1-2-5zm-19-9c-1 3-2 5 0 7h1l2-6c0-2-3-2-3-1zm16 28l-4-4-4-4c-2-1-4 1-2 2l4 5 5 2 1-1zm34-3c-1-3-5-3-8-5-2-1-4 2-2 4 3 1 7 3 9 2l1-1zm2-18c-1-2-4 0-3 2 1 1 5 4 7 2 1-2-3-3-4-4zm6-14l-6-2c-1-1-3 1-2 2 2 2 4 4 7 3 2 0 2-2 1-3zm-22-5l-1 3 1 1 2-4h-2zm-6 28c-2 2-5 6-4 8l2 1 2-3 3-5c1-1-2-3-3-1zm-38 4c-2 1-5 5-2 7h1l1-2 2-3c2-2-1-4-2-2zm15 20l-5-3c-1-2-3 0-2 2 2 1 4 3 6 2l1-1zm-34-4v5h1l2-4c0-2-2-3-3-1zm1 20l-1-4c0-2-3-2-3 0s1 7 4 6h1l-1-2zm16-49l-1-2c0-2-2-1-2 0l2 3 1-1zm8-53c-1-1-3 0-2 2l4 4h1c1-3-2-4-3-6zm-15-10c-1-3-5-5-8-5-1 0-2 3 0 3 3 0 4 2 7 3l1-1zm-26 1l-3-3c-1-1-3 0-2 2 2 1 3 5 6 4h1l-2-3zm-13 2l-2 6h2l1-6h-1zm-23 3c-1-2-4 0-3 1 0 3 2 7 5 8l1-1c0-3-2-5-3-8zm15-4c0-2-4-2-3 0l1 6 2-1v-5zm-1 10l-4 3c-2 0 0 3 1 2l4-4-1-1zm-23-5c-1 3-2 7 1 8h1v-4l1-4c0-2-3-2-3 0zm39 15l-2-3c-1-2-3-1-3 0 0 2 2 4 4 4l1-1zm24-18c-2-1-3 1-2 2 2 1 2 3 4 3l1-1c0-2-2-3-3-4zm-51-8c0-2-3-2-3 0s2 5 4 4l1-1-2-3zm153 56c-1-1-2 1-1 2l4 4h2c1-3-2-5-5-6z" class="st30"/>
      <path d="M589 295c0-1-2-2-2 0-1 3-3 8-1 10h2l1-4v-6zm-8-3c-1-2-4-2-3 0 0 1 0 3 2 4l1-1v-3zm54 27c-2-1-3 2-1 3l3 2 1-1c1-2-1-3-3-4zm16-13c-1-2-4 0-3 2 1 1 2 4 4 3s-1-4-1-5zm-28 8c-1-1-4 0-3 2 1 1 2 3 4 3l1-1-2-4zm9 24c-1-1-3 1-2 2 1 2 1 3 3 3l1-1-2-4zm21-13l-2-3c-1-2-4 1-2 2l1 2 2 1h1v-2zm-31 2c-1-2-3-1-3 1l2 4h1v-5zm-25-3v1c0 2 4 2 4-1v-1c0-2-4-1-4 1zm19-14c0-1-3 0-2 1 1 2 1 4 3 4h1l-2-5zm-8 33l-2-3c-1-1-2 1-1 2l3 1c0 1 0 0 0 0zm-24 0c-1-1-3 0-2 1l1 3h2l-1-4zm13-26zm-259 3c0 2-2 5-1 7h2l2-6c0-1-2-2-3-1zm-13-1l-2 4c-1 1-2 1-2 3l1 1c3-1 4-5 5-7l-2-1zm16-5c0-1-2-1-2-3-1-1-4 0-3 2l3 3c1 2 3 0 2-2zm-22-3l-3 3 1 1c1 1 3-1 4-2s-1-3-2-2zm-19 6l-5 4 1 1c2 1 4-2 6-3 1-2-1-3-2-2zm5 15l1 4h1v-4h-2zm25-1h-3c1 2 0 5 2 6l1-1v-5zm-18-9c0-2-3-2-3 0v5h1c2-1 2-3 2-5zm-25 7l-5 6 1 2 2-1 1-2 3-2c1-1-1-4-2-3zm31 10c0-2-3-2-3 0s0 4 2 4h1v-4zm-24 2c-1 1-2 3-1 5h1c2-1 1-2 2-3 2-2-1-4-2-2zm59-37l-2-4c-1-1-3 0-2 1l3 3h1zm-4 7c0-3-4-2-4 0v4c0 2 4 2 4 0v-4zm-15-8l-1-4c0-2-3-2-3 0s1 6 4 5v-1zm27-9c-1 2-3 5-2 7h1c2-1 2-3 3-5s-1-3-2-2zm24 4l-1-1-3 3c-2 2 0 3 2 2l2-4zm52-10v1h1v-1h-1zm-4 5c0-2-3-2-3 0v6l1 1h1l1-1v-6zm-10-8c-2 2-4 6-2 9h1l1-3 2-5c0-1-2-3-2-1zm29-10c-1-2-3-2-3 0-1 3 0 6 3 8h1c2-3-1-6-1-8zm-8 8c0-2-3-1-3 0l1 6h1l1-6zm259-1l-1-1c-2 1-3 3-3 5 0 4 4 4 4 1v-5zm-20 10h-1v3c0 2 2 1 2 0l-1-3zm29 2c0-2-4-1-3 1 1 3-1 5-1 8l1 1c4-2 5-7 3-10zm17-13c-1-2-4 0-3 2l3 4c0 1 0 2 2 3h1c3-2-1-7-3-9zm15 2c0-3-4-3-4 0l2 6h1c2-2 1-4 1-6zm-27-2c-1 2-3 4-3 7h1l2-2 2-4c1-2-1-3-2-1zm12 10c-1-2-4-1-3 2l2 4h1c2-2 1-4 0-6zm-55 17l-3 6h1c2-1 2-3 3-5 1 0 0-2-1-1zm-8-4c-2 2-6 7-3 10l1-1 2-3 2-4c2-2-1-4-2-2zm41 13c-1-2-4 0-3 2l2 5c1 1 3 1 3-1l-2-6zm-29 4l-4 7 1 2h1l1-1 3-6c1-1-1-3-2-2zm-105 25c-1-1-3 1-2 3 2 2 4 5 7 6l1-1c0-3-3-6-6-8zm18 27c-1-1-4 0-3 2l6 6h2c1-3-3-6-5-8zm-56 23l-1-4c0-2-3-2-3 0s0 8 4 7l1-1-1-2zm-69 17h-2v6c0 2 2 2 2 0v-6zm31-3c-1-2-3 0-2 1 1 2 2 5 5 4v-1c0-2-2-3-3-4zm-15 10c0-2-2-2-2 0l1 4h1v-4zm-90-18c-2 0-2 2-3 3-1 2 1 3 2 1l2-4h-1zm280-17v-1c0-2-2-2-2 0l2 2v-1zm-346-11c0-2 0-5-2-6l-2 1c-1 2 0 4 1 6 1 3 4 2 3-1zm9 10l-2-4-1-4h-1c-3 3 0 8 1 10s4 0 3-2zm-13 32c0-2-3-1-2 1l3 4h1l-2-5zm15 4l-2-2c-1-1-3 0-2 1l3 2c1 1 1 0 1-1zm259 45l-5-7c-1-1-3 1-2 2 2 2 3 5 6 6 1 1 1 0 1-1zm24-9c-2-2-5-2-6-4s-4 0-3 2c2 2 5 4 8 4l1-2zm-45 9c-1 1-2 3-1 5h2l1-4c1-2-1-3-2-1zm33-8zm-36-181l-3 7c-1 2-2 5 0 7h1l2-5 2-8c1-1-2-3-2-1zm-42 24c-2-1-4 1-2 2l3 4c1 2 1 4 3 4h1c2-3-3-8-5-10zm-8 4c-1-2-3-2-3 0l1 4h1l1-4zm115-14c-1-2-4 0-3 2l3 4 3 3 1-1c1-3-2-6-4-8zm-143 1c-4-1-7 4-8 7-1 1 1 3 2 1l3-3 3-3v-2zm0 10l-4 4c-1 2 2 3 2 2l3-5-1-1zm290 68l-1-6c0-3-4-3-4 0l1 5 2 4h1l1-3zm-9-9l-2 4h1l2-4h-1zm-25-69c-2-1-3 1-2 2l5 3 3 4 2-1c0-4-5-7-8-8zm-6 10c-1-2-4-1-3 1 0 2 0 4 2 5h1v-6zm-127-9c0-1-2-2-3 0l-1 6c0 2-1 4 1 5h1l2-4v-7zm41 6c-3 0-6 4-6 6 0 1 1 2 2 1 1-2 5-3 5-5l-1-2zm-13 34l-2-4c-1-2-4-1-3 1s2 6 5 7l1-1-1-3zm1 5c-4-1-7 4-8 7-1 1 1 2 2 1l6-7v-1zm7 12c-3 0-5 2-6 3-2 2 1 5 2 3l4-5v-1zm-34-7l-1 1c-1 2 0 3 1 5 0 2 2 2 2 0s0-4-2-6zm-8-12l-2 1c0 1 0 3 2 4l1-1-1-4zm-11 17c-1 3-4 8-3 11h2l1-5 2-6c1-1-2-2-2 0z" class="st30"/>
      <path d="M633 333c-2 0-3 2-3 4-1 1 1 2 2 1l3-4c0-1-1-2-2-1zm-43-22c-2 1-2 3-2 5s3 2 3 0v-4l-1-1zm-327 28l-3-3-3-1-2 1c-2 2 5 5 7 6 1 0 2-2 1-3zm14-16l-1-1c-2 2-3 5-3 7s2 2 2 0l2-6zm-9 19l3 4 1-1c1-2-4-5-4-3zm-11 7l-3 5v5h1c2 0 2-2 2-3l2-5c2-1 0-3-2-2zm-14 3l-1-5v-5l-1-1c-4 2-2 9-1 12 1 2 3 1 3-1zm40-7l-6 6c0 2 2 3 3 2 2-3 4-5 4-8h-1zm15 9l-2 2c-2 0-1 3 1 3 2-1 2-2 2-4l-1-1zm14-52c-3 2-5 7-3 10l1 1c3-3 3-7 5-10 0-1-2-3-3-1zm-24 16c-4 0-6 4-5 7h3l1-3 2-3-1-1z" class="st30"/>
    </g>
  </g>
</svg>
