<svg xmlns="http://www.w3.org/2000/svg" xmlns:xlink="http://www.w3.org/1999/xlink" id="Layer_1" version="1" viewBox="0 0 1000 1000">
  <style>
    .st5{fill:#fffdca}.st7{fill:#fff}.st8{fill:#c5c264}.st10{fill:#e4f7f8}.st18{fill:#00f86d}.st20{fill:#007110}.st21{fill:#00d849}.st24{fill:#ffdc61}.st25{fill:#ffe69c}.st26{fill:#ffc63e}.st27{fill:#dda21e}.st28{fill:#008e00}.st29{fill:#f9bc3c}
  </style>
  <path fill="#a4a4a4" d="M973 647v-1c0-78-213-141-475-141S23 568 23 646v19c0 1 0 0 0 0v11c0 78 213 141 475 141s475-61 475-140v-30z"/>
  <ellipse cx="498" cy="646" fill="#eaeaea" rx="475" ry="152"/>
  <ellipse cx="388" cy="643" fill="#f6f6f6" rx="356" ry="114"/>
  <path fill="#d1d1d1" d="M183 560s-92 50-117 84l52-3s27 32 115 47c0 0 94 101 147 96l6-39 29-3s101 51 129 48l14-12 9 12s106-40 129-64c0 0 6 19 13 19s126-42 136-56c9-14-32-55-32-55s94-21 107-30c12-9-75-53-149-71-75-17-463-51-588 27z"/>
  <path fill="#42893a" d="M448 212c-20-40-85-30-85-30l3 7c5-2 13-3 22-3 17 1 46 9 55 31 10 20-1 47-37 65l2 6c15-6 61-37 40-76z"/>
  <path d="M382 226l8 17c14-17-1-17-8-17z" class="st5"/>
  <path fill="#e2e28a" d="M443 217c-9-22-38-30-55-31l-22 2 16 38c7-1 22 0 8 17l15 38c37-17 48-44 38-64z"/>
  <path d="M381 223s6 1 10-5c3-5 2-22-2-25s-19 0-19 0l11 30zm17 3c-4-3-3-30 2-32 4-2 20 5 23 10s-21 25-25 22zm4 9c-2-3 25-27 31-21s9 24 0 34c-10 11-31-13-31-13z" class="st5"/>
  <path d="M393 247s4-7 7-6c2 1 23 8 19 17-1 5-17 16-17 16l-9-27z" class="st5"/>
  <path d="M375 200h-1l2 7h1l-2-7zm5-4h-2c0 6 1 12 4 17 1 1 2 0 2-1l-4-16zm9 4h-3l1 6h2v-6zm12 1c-3 5-4 13-3 19h2l1-8 2-10c1-1-1-2-2-1zm4 6l-2 4c0 2 2 3 2 2l2-5-2-1zm7 0l-4 5c-1 1 0 3 1 2l4-6c1-1 0-1-1-1zm12 11c-8 1-15 9-19 14-1 2 1 4 2 3l8-8c3-3 7-4 10-6 1-1 1-3-1-3z" class="st7"/>
  <path d="M424 225c-6 1-11 4-14 8-1 1 1 3 2 2 4-4 8-5 12-8v-2zm-5 11l-6 1c-1 0-1 2 1 2l5-2v-1zm-6 20l-6-6-7-7c-1 0-2 1-1 2l6 6 7 7c1 1 2 0 1-2zm-16-9l-1 1 4 10 2-1-5-10zm-5-16l-4-1v2l3 2h2c1-1-1-3-1-3z" class="st7"/>
  <path d="M402 194zm-2 0v1c4 2 9 2 14 3 3 1 5 3 6 6 2 3 0 5 0 8h1c10-10-14-20-21-18zm-7 2c-6-7-15-7-23-4v1c8-2 18-4 22 5 2 8-1 14-2 21 0 1 0 2 1 1 4-5 6-18 2-24zm41 20c-4-4-10-4-14 0l1 1c5-2 9-4 13 2 3 4 4 9 4 14s-2 11-6 15c-9 7-19-3-27-7v1c6 7 18 14 27 9 6-4 8-10 8-17 1-7-1-13-6-18z" class="st8"/>
  <path d="M411 247l-1 1c3 2 7 3 9 6s0 6-2 9c-4 4-10 7-15 10-1 1 0 2 1 2 7-3 15-8 18-14 2-7-3-13-10-14zm-14-18h-1c-2 1-2 4-2 6-1 1-1 6-3 7-2 0-1 2 0 2 3 0 4-4 5-6 0-2 2-7 1-9zm19-37v1c8 5 16 11 22 19 9 12 6 22 2 35 0 2 2 3 2 1 12-24-3-46-26-56z" class="st8"/>
  <path d="M429 214h-4v1l4-1c1 0 1 0 0 0z" class="st8"/>
  <path d="M430 214c0-1-1 0 0 0l3 3 1 2 1-1c0-2-3-3-5-4z" class="st8"/>
  <path d="M431 214h-6 5l4 3h1c-1-1-2-3-4-3z" class="st8"/>
  <path fill="#87a9a7" d="M483 308c-67 2-250 9-269 73-18 64 138 109 275 101s273-33 268-97c-6-65-220-79-274-77z"/>
  <path d="M483 308c139 0 252 34 257 77l38 1c-12-51-139-91-295-91-153 0-279 39-294 88l38 1c9-43 120-76 256-76z" class="st10"/>
  <path d="M218 383c8-43 124-78 265-78 143 0 260 35 266 80h17c-12-49-134-86-283-86-147 0-269 37-283 85v1h17l1-2z" class="st7"/>
  <defs>
    <path id="SVGID_1_" d="M188 393s13 272 271 280 322-217 320-280c0 0-122 110-296 89-173-21-253-31-295-89z"/>
  </defs>
  <use fill="#b6dbda" overflow="visible" xlink:href="#SVGID_1_"/>
  <clipPath id="SVGID_2_">
    <use overflow="visible" xlink:href="#SVGID_1_"/>
  </clipPath>
  <path fill="#d1eded" d="M214 427s199 99 435 47c0 0-6 185-153 178-191-10-264-101-282-225z" clip-path="url(#SVGID_2_)"/>
  <path fill="#e2f1f1" d="M214 421s79 56 299 62c0 0-25 160-113 151-130-14-167-89-186-213z" clip-path="url(#SVGID_2_)"/>
  <path fill="#fff" d="M229 442s89 31 139 36c0 0 12 110-60 108s-79-144-79-144z" clip-path="url(#SVGID_2_)"/>
  <path fill="#5cbade" d="M195 439l10 10c7 6 18 14 33 22 16 8 35 16 58 23l18 4 10 3 9 2 21 3 21 3c7 2 15 2 23 3l23 2 24 1h78l54-4c37-4 74-11 111-24 18-6 36-15 52-26 8-5 16-11 22-19a76 76 0 0 0 12-18l2-7v4c-1 3-2 7-5 11-5 9-15 21-30 33-16 11-36 22-61 31s-53 16-84 20c-31 5-64 8-99 8h-39l-14-1-27-1-27-3c-36-4-72-12-106-24a271 271 0 0 1-71-38l-5-4-4-4-9-10z"/>
  <g>
    <defs>
      <path id="SVGID_3_" d="M214 414s-2-12 6-19 16-5 16-5 3-14 21-13c0 0 5-2 7-16s19-5 23-14 6-18 18-23 25-6 32-20 4-25 13-35 26 0 26 0 1-11 13-13 22 3 26 6c0 0 3-17 18-25s23 0 23 0 4-10 13-7c9 2 13 8 16 7 4-2 8-19 17-24 8-5 17 1 20 0 4-2 14-10 28-8 13 3 25 24 23 42 0 0 15-5 27 2s15 24 18 25c4 2 26 12 28 35 0 0 12-3 15 7 0 1 21 5 28 21 7 17 15 23 20 24s22 6 21 19 11 15 9 24c-3 9-31 75-221 78-188 3-258-30-304-68z"/>
    </defs>
    <use fill="#00d849" overflow="visible" xlink:href="#SVGID_3_"/>
    <clipPath id="SVGID_4_">
      <use overflow="visible" xlink:href="#SVGID_3_"/>
    </clipPath>
    <path fill="#00ab1e" d="M549 204c24 7 29 43 14 60 22 12 33 32 4 42 4 6 6 16-3 19 4 8 7 20 5 29-3 11-6 8-16 16 12 30-6 31-30 33-4 26-16 27-39 20 16 6 25 25 3 30-15 3-34-7-47-11-10 17-47 7-61-1-18 15-46 12-66 5-15-6-33-2-46-12 100 72 230 56 345 37 41-7 116-13 144-51 29-40-35-89-61-111-44-38-92-70-138-106l-8 1z" clip-path="url(#SVGID_4_)"/>
    <path fill="#00ab1e" d="M537 369c-1-6-10-5-9 1 1 8-3 14-11 15-3 1-6 0-9-1s-4-2-6-1l-2 2c1 8 16 9 21 8 11-3 18-13 16-24zm-53-29a89 89 0 0 1-83 27c-2 0-3 3-1 4 11 9 29 3 41 0 18-3 39-11 50-26 3-4-3-10-7-5zm-92 69c-28 14-63 9-91-2-2-1-4 2-2 3 26 19 68 19 94 0 0 0 0-2-1-1zm-7 23c-6 5-12 7-20 5-2 0-2 2-1 3 8 5 19 4 26-2 2-3-2-8-5-6zm116-165c-2-1-3 1-3 2 1 3 4 8 3 11s-5 4-8 5c-7 1-12-5-18-7-2 0-3 1-2 2 3 12 18 16 28 12 11-5 11-20 0-25zm82 0c-7-5-19-6-29-7-9-1-21-2-29 4-1 1 0 4 2 4 9-2 17-3 26-1s18 5 28 6c3 0 5-4 2-6zm-15-28c-1-2-4-3-6-1l-2 6c-2 2-5 3-8 3-6 1-11-4-17-5l-2 1c-1 10 14 14 22 13 7-1 19-9 13-17zm-212 85c-3-3-7 1-5 4 4 5 4 9-1 13-3 2-10 2-11 6l1 2c3 1 6-1 9-2l8-5c5-5 5-14-1-18z"/>
    <path fill="#cae3e5" d="M490 339l-10-8c0 1-33 48-86 36 1 0 50 23 96-28zm-191 68l4-11s38 34 89 11c0 0-41 29-93 0zm224-140s42-10 56 0c0 0-20-16-56-8v8z"/>
    <path d="M423 309c-6-6-16-9-24-6-4 0-8 2-11 6-5 9-1 21 5 27 8 8 22 11 31 5 12-8 7-23-1-32z" class="st18"/>
    <path d="M388 308c0-4-3-7-7-7h-6v-1c-5-1-9 2-12 6v1l-1 5 2 6 5 3v1l3 1h4c2 0 4-1 5-3l3-1a8 8 0 0 0 4-8v-3zm-31-39l-5 4-3 4c-3 5-2 11 1 15 2 5 7 6 12 6 8 0 16-8 15-17s-11-14-20-12zm64 5c-2-9-10-14-19-14-8-4-17-3-19 7-1 4 1 8 3 12 0 5 3 8 7 9l5 4c11 7 25-5 23-18zm-93 64c-1-7-7-12-14-13-4 0-7 3-9 5-4 2-6 6-6 10l1 4v5c2 6 9 8 14 6 4-1 6-3 8-6 4-2 6-6 6-11z" class="st18"/>
    <path d="M334 322c-1-1-1-2-3-2-3-1-8 2-8 6v6c1 4 5 8 10 6l3-2c3-1 5-3 4-7 0-4-2-7-6-7zm190-104c-3-3-9-3-13-2-5-1-9 2-13 6l-3 4-1 4-2 8c-1 13 10 19 22 15 8-3 13-10 12-18l4-6c1-5-2-9-6-11zm-33 30l-1-1c-1-3-4-4-7-4h-8c-3 2-4 3-5 6-1 4 1 7 4 9l5 2h4c7 2 12-6 8-12zm-39 90c-1-3-4-6-7-8l-10-5c-2-1-6 2-4 5l3 5 3 4c3 3 7 5 11 5 3 0 4-3 4-6zm-160 22v-1c-4-8-15-8-20-1v1l-4 4c-2 5 0 10 4 15l3 4 1 1c3 3 8 4 12 3l1-1c3-1 7-2 10-5 6-7 0-16-7-20z" class="st18"/>
    <path d="M310 358h-1l-1-2c-4-4-9-2-12 1-2 2-3 6-2 9 1 5 8 8 12 9s8-2 9-6c0-4-1-9-5-11zm249-70c0-6-5-11-11-14-7-3-17-5-23 1-4 3-7 8-7 14l-1 2c-1 6 2 11 6 15l7 5c4 2 8 2 13 1l5-1c7-1 12-7 12-14 1-3 0-6-1-9zm-100 7c1-4 0-8-2-10-3-4-7-6-12-6-6 0-11 4-14 7l-1 2c-2 2-3 6-1 9 0 5 4 10 8 13 6 3 15 0 20-4 3-3 3-8 2-11zm-100 96c0-3-2-5-4-6s-5-2-8-1c-2 0-5 1-6 4-2 5 0 9 3 12s8 4 12 2c2-2 3-5 3-8v-3zm38-47c-2-6-9-11-16-7l-6 5c-2 2-4 4-4 7l-1 3c-2 6 2 14 6 18 5 5 13 5 19 4 6-2 12-6 13-13 2-8-5-13-11-17zm-19-11c1-5-3-9-8-9-5 1-7 5-7 10 1 5 7 8 12 5l2-4 1-2zm126-30c-1-3-3-6-7-7a6 6 0 0 0-4 11c1 2 3 3 5 3 3 0 6-3 6-7z" class="st18"/>
    <path d="M464 252c-5-20-31-21-41-4-4 8-1 19 5 25 4 4 9 6 14 7 6 2 14 0 18-5 5-6 6-15 4-23zm5 29l-1-1c-3-3-7-1-8 2-2 4 1 7 4 7h3c3-1 4-6 2-8zm3 32c-4-1-7 0-10 2-2 1-1 5 2 5l5 1 6 2c1 0 3-1 3-3 1-4-3-6-6-7zm-12 3c-2-3-7-5-11-3-3 2-2 7 2 7l4 1h4l1-1v-4zm-106-14c-3-2-7-2-10 1-3 2-1 5 2 5l2 1s1 0 0 0l4 3 4-1c1-4 1-7-2-9zm71-19c-1-1-3 1-4 2l-1 5c0 4 5 3 5 0 0-2 4-7 0-7z" class="st18"/>
    <path fill="#005300" d="M496 370c0-5 33-8 37-5 3 3-6 19-7 22s-21 3-25 0c-3-2-5-12-5-17zm-149-53c2-2 14 15 13 18-1 2-17 12-20 12-3-1 3-27 7-30zm124-39c0-4 16-20 19-20 4 1 21 14 17 20-3 6-14 11-18 10-3 0-18-10-18-10zm62-57c0-2 32 12 34 14s-7 16-10 17c-4 2-20-4-24-9-3-5 1-16 0-22zm78 203c-2-5 16-21 20-22s18 15 20 18c1 3-22 15-26 14s-14-10-14-10zm100-22c-5 2-8 2-11 0-3-3-3-11 0-13s8-1 11 0l2 1s3 10-2 12z"/>
    <path d="M495 263l-2 1-2-2c0-1-1-3-3-1-5 3-10 8-12 14-1 1 1 2 2 2l3-1 6-6c-1 2 2 3 4 2l6-5c2-2 1-4-2-4zm52-33l-6-4c-2-1-3 0-4 1l-2 2v12c1 4 5 2 5-1v-7l3 1c3 3 6-2 4-4zm-36 138c0-2-3-3-4-1v-1l-2 1-4 2c-4 4-1 9 1 13 2 2 7 0 5-3l-2-5 1-1c3-1 7-2 5-5zm-4-2c1 0 0 0 0 0zm-154-37l-2-4-3-5c-1-1-2 0-2 1-1 3 1 9 3 11s5 0 4-3z" class="st20"/>
    <path d="M346 321c-2 2-3 5-3 7v7h3c2-1 1-4 1-6l1-7-2-1zm284 86l-10 5c-3 3-6 6-6 10 1 2 3 3 4 1l6-6 8-5c1-2 0-5-2-5z" class="st20"/>
    <path d="M624 425l-3-2-2-2c-1-1-2-1-3 1-1 3 3 7 6 7 2 0 3-3 2-4zm84-34v-1c-3-3-6 0-7 2-2 3-2 8 1 10l4-2-1-5 3-4z" class="st20"/>
    <g>
      <path d="M602 336v-1l-2-4c-4-5-11-8-17-7l-3 1c-5 2-7 7-8 12 0 5 2 8 6 11 3 2 8 3 13 2h1c4 2 9 0 10-4v-10zm-20 59c-2-2-4-3-7-3-2 0-4 2-4 4-1 1 0 3 1 3v1c1 1 2 3 4 3l6-2c2-1 3-5 0-6zm13-144c-2-2-5-2-8-3-4-1-9 0-12 3-3-2-6-1-8 2-3 4 1 9 4 12l6 3 1 2c6 4 14 5 20 0 6-6 4-15-3-19zm-59 159c-3-2-6-1-9 1l-1 1v7l4 2c2 1 6 0 8-3 1-2 0-6-2-8z" class="st21"/>
      <path d="M579 398h-3v-1h1v-2l-2-2-2 1c-2 2-3 5-1 8 2 2 7 3 8-1 1-1 0-2-1-3zm-62 56c-1-3-5-10-9-10v1c-2-1-4 1-4 3 1 5 4 9 9 10 3 0 5-2 4-4z" class="st21"/>
    </g>
    <g>
      <path fill="#3bff99" d="M436 241h-1c-3 1-4 4-4 6 1 3 4 4 7 4 2 0 5-1 6-3 3-6-4-10-8-7zm46 8l-1-1v-2c-1-2-3-2-4-2l-5 4 1 3c2 2 4 2 7 2 2 0 3-2 2-4zm30-28c-10-5-22 18-14 20l2-1 1-4 2-5 4-4 5-3v-3zm-118 41c-6 0-10 11-3 13l1-1 1 1c4 1 7-2 7-5 1-4-2-7-6-8zm-35 12l-5 4-3 6c1 2 2 3 4 2l3-5c1-1 3-3 3-5l-2-2zm92 8c-3-4-11-2-15 0-3 2-9 7-6 11h2l7-6 11-1c2 0 3-3 1-4zm18-3h-6c-2 1-2 4-1 5 0 2 2 2 3 1 0-2 1-2 2-3 1 0 3 0 3-2l-1-1zm78 0c-3-6-14-3-19-1-6 2-14 9-11 16h2c3-5 6-9 12-11l7-2 8 1c1-1 2-2 1-3zm-161 61c-6-2-12 3-15 7-3 6-2 12 3 16 1 1 3 0 2-2-2-3-2-7-1-10 3-5 7-5 11-6l2-2v-1l-2-2zm23-35c-3-6-13-2-17 0-5 3-9 10-6 16 1 1 3 1 3-1l2-5c0-2 2-4 4-5l7-2c2 0 4 1 6-1l1-2zm-30-4l-5-1-5 4c-3 2-5 8-2 11l3-1 2-7 3-2 3-1c1 0 2-2 1-3zm-88 57c-4-5-12-3-17-1-4 3-9 12-4 16l3-1v-5l4-5c4-3 8-2 12-2 2 1 3-1 2-2zm28-33c-11-5-21 10-17 19 0 2 2 1 2 0 0-6 3-13 9-15h7c2-1 1-3-1-4zm13-5l-7 2c-2 2-3 4-2 6 0 2 2 2 2 1 1-4 5-4 7-6 2 0 2-3 0-3zm20-20c-3-1-11 2-10 7l1 1 5-2 5-1c2-1 2-4-1-5z"/>
    </g>
    <path fill="#e0eeef" d="M324 411l-10-5c-4-1-6-4-9-7-1-1-3 0-3 2 1 4 5 6 8 8 4 2 10 5 14 4v-2zm152-61c-10 3-19 10-29 14-14 6-27 8-41 5l-1 1c13 3 27 2 40-1 10-3 25-9 32-17 1-1 0-3-1-2zm67-90c-3-2-6-3-10-2-3 0-7 0-9 3l1 2c3 1 6-1 9-1l9-1v-1z"/>
    <g>
      <path d="M595 319s56-101 61-106c5-6 103 86 108 94 6 8-113 50-117 53 0 0-10-10-23-15-12-5-8-24-29-26z" class="st24"/>
      <path d="M743 307c-10-11-21-20-32-30-12-11-20-26-32-36-31-25-39 18-51 39l-22 34c22 0 23 32 48 31 11-1 16-12 24-17 11-7 21-2 32-6 7-2 26-6 29-13l4-2z" class="st25"/>
      <path d="M696 321l-1-1 1-2c0-3-3-4-5-4l-7 5c-3 2-4 4-5 7v6h2l1-2c3 0 7 0 11-2 2-2 4-5 3-7zm-11 4l7-2-3 2h-4zm-44-46c0-2-1-2-2-3h-4c-6 1-14 9-11 15l2 5c2 2 4 0 5-1 6-2 11-11 10-16zm1-22v-1c-1-1-3-1-4 1v1l-2 3c-1 2 2 4 4 3 1-2 3-5 2-7zm53-7c0-2-2-3-3-3l-5 2-5 2c-4 3-7 7-8 11-2 2-4 6-1 9l1 1c1 2 3 3 6 2 5 0 11-7 12-13l3-11zm-8 29l-2-1c-3 0-5 2-6 4l-1 1c-1 3 1 5 3 5 5 0 8-5 6-9zm-20 40l-2-1-3-1c-7 2-17 8-15 16v1l1 1c2 4 7 2 10 0l7-8c2-2 4-5 2-8z" class="st24"/>
      <path d="M692 320c-1-2-4 0-6 2l-2 6c1 2 2 2 3 2l4-2v-4c2 0 3-2 1-4z" class="st24"/>
      <path d="M693 316c-3-2-8 0-10 3-3 2-6 7-4 11 1 1 3 0 2-1 0-2 4-5 5-6l4-2v2l-4 5v4c1 1 3 2 4 1 6-3 10-14 3-17z" class="st24"/>
      <path d="M761 308c-20 9-39 19-59 27l-33 12c-8 3-17 5-23 11-1 1 0 2 1 2 9-5 19-8 29-11l34-12 33-15c6-3 15-5 20-10 1-2 0-4-2-4z" class="st26"/>
      <path d="M765 309a826 826 0 0 0-109-96c3 4 7 6 11 9 6 4 10 9 15 14l29 26c19 14 38 29 51 49 1 1 3 0 3-2zm-77-53l-1-2-3 1h-1l-4 5-2 3c0 2 2 4 4 4 5-1 10-6 7-11zm62 48v1l-2 1v3l3 1c2-1 3-2 3-4s-2-3-4-2zm-116-23c-3 1-5 3-5 6 0 2 2 4 4 2v-1l1-1 2-1c3-2 1-6-2-5zm75 15h-2l-4 2-5 5c-1 2 0 4 2 4 3 0 6-1 8-4l3-3c1-2 0-5-2-4zm-22 23l-1 1-2 1h-1c0 1 0 2 2 3 2 2 5 0 6-2s-2-4-4-3z" class="st26"/>
      <path d="M704 298l-1 3c0 2 1 2 3 2l2-2c1-2-2-5-4-3zm-48 28l-2 3c1 2 2 2 3 1l1-1c2-2 0-5-2-3zm12-29l-3 5c0 1 1 2 3 1l4-4c1-2-2-4-4-2zm15-38c-2 2-2 3-2 5l2 1 3-4c1-2-2-4-3-2zm-52 23c-2 1-3 4-1 6h2l2-4c2-2-2-4-3-2zm9-26l-1 4 3 1 1-4c0-1-2-2-3-1zm13-31l-2 4c0 2 2 2 3 1l2-3c2-2-1-3-3-2zm3 48l-2 4c0 1 1 3 2 1l3-3c1-2-1-4-3-2zm-49 31l-2 5c0 1 2 2 3 0l2-3c1-2-2-4-3-2zm20 5h-1l-2 1v3c-1 1 1 1 1 1l2-3v-2zm59-28c-1-1-2 1-3 2s1 2 2 1l1-2v-1zm38-2l-3 2c-1 1 0 3 2 2l3-1c2-2 0-5-2-3zm-35 41c-2 0-3 1-3 2-1 1 0 2 1 1h2c2 0 1-3 0-3z" class="st27"/>
    </g>
    <g>
      <path d="M246 409l2-1 4-3c3-2 9-4 16-4 6-1 15 1 23 6a26 26 0 0 1 10 25l-1-2-1-5c-2-4-5-9-10-12-5-4-12-6-20-7l-23 3zm147 33l1-2 2-4 3-4 13-5h18l19 3 10-1 9-5 6-3 7-2c4 0 9 2 13 4 7 5 12 12 17 19l-9-9c-3-2-7-6-12-7-5-2-11-2-15 1l-9 6-2 1-3 1-6 1h-12l-11-3c-7-1-15-3-22-2l-9 3-8 8zm-83-72l1-1h4l7 2 7 4 1 1 2 1 1-1 3-2c1-1 3-3 5-3l7-1 6 2c4 3 5 7 5 11 0 0 0-2-3-4-2-3-7-5-12-3l-6 4-2 3-1 2-1 1-1-1-4-2-1-1-1-1-8-7-9-4zm79-66v-1c1 0 2-1 2-3 2-2 6-5 12-7 6-1 13 1 20 4a49 49 0 0 1 15 12l1 1 1-1 6-4h4l4 1 5 1h13l11 7-3-1-5-2-5-2-7 2-4 1h-3l-2-1-4-1h-1l-2 1-3 3-1 1-2 2-3 4-3-6-1-1-1-1-1-1-2-3-3-2-12-8c-4-1-9-3-14-2-4 1-9 4-12 7zm132-26l1-1 4-4c4-2 11-5 19-5a38 38 0 0 1 19 6l3 2 1 1 1-1 4-2 9 2c5 3 8 8 8 14l-1-2c0-2-1-3-3-5-1-2-4-3-7-4h-4l-2 1-1 1-1 1-2 2-1 1h-1l-2-2-1-1-1-1a43 43 0 0 0-17-7c-8-1-17 0-25 4zm48 47l2-1 7-4 11-3c5 0 11 1 16 3 3 2 6 3 8 6l6 7 6 8 6 6 4 3 5 3 8 8c2 3 5 7 4 11l-2 6-2 2-2 1 2-2c1-1 3-4 2-7 0-3-3-7-6-10l-6-4-7-4a39 39 0 0 1-14-13l-6-8-6-6c-5-4-11-5-18-5-6-1-12 1-18 3z" class="st28"/>
      <path d="M587 383s1-3 5-6c5-4 12-7 22-6l8 1 3 2 2 1 2 1 3 3 2 1 7 1h9l9 3 7 5c2 3 3 7 2 10v-3l-3-5c-2-2-5-3-9-4l-6-1h-6l-3 1h-4a12 12 0 0 1-9-3l-6-4-6-3h-15c-5 0-10 2-14 6z" class="st28"/>
      <path d="M567 390h1l1-3c2-2 4-4 9-5 4-2 10-1 15 3 4 3 7 9 7 14l-1-1-2-2a22 22 0 0 0-17-9l-13 3z" class="st28"/>
    </g>
  </g>
  <g>
    <path d="M740 386v3c0 44-115 80-257 80s-256-36-256-80v-5l-38-1-1 10c0 54 132 98 295 98s296-44 296-98l-1-7h-38z" class="st10"/>
    <path d="M767 385h-18l1 4c0 46-120 87-267 87s-266-41-266-87v-4h-17l-1 8c0 52 127 95 284 95 158 0 285-43 285-95l-1-7v-1z" class="st7"/>
  </g>
  <g>
    <path d="M412 743l176-58c12-4-45 93-49 103s-122-41-127-45z" class="st24"/>
    <path d="M530 781c-18-11-39-14-58-21-5-2-26-6-26-13-1-7 20-13 25-14 21-6 39-8 58-17 16-7 49-24 30 6-7 11-19 17-24 29-4 9-2 19-6 27l1 3z" class="st25"/>
    <path d="M546 737v-2c-1-2-2-3-4-2-6 2-12 9-12 15 0 2 3 3 4 2h3l8-8 1-3v-2zm-43 12c0-2-2-4-3-4l-6 3c-3 1-5 3-5 5-1 2-1 3 1 4v1l3 2c5-1 8-4 9-9l1-2zm-40-15c-5 0-10 2-11 8 0 1 2 3 4 2l1-1 4 1c4-1 5-4 5-7 0-2-1-3-3-3zm23-1c-2 0-4 0-5 2h-1c-1 0-1 0 0 0l-2 1v3c0 1 2 2 3 1 2-1 5-2 6-4 1-1 1-3-1-3zm43-15l-1-1-2-1c-3-1-6 0-9 2 0 1-5 4-5 6l-2 6c0 1 0 3 2 3 5 0 9-2 13-4 3-2 7-7 4-11zm-2 56c-2 3-4 6-4 10 0 2 4 3 5 1l2-3v-1l2-4c1-3-3-5-5-3zm21-54l-1 1-2 1-1 1 1 2c3 1 4-1 5-3 1-1-1-3-2-2zm3-12c-2-2-4 1-3 3 0 2 2 2 3 1l1-3-1-1z" class="st24"/>
    <path d="M588 686c-9 24-23 45-34 68-3 7-5 13-9 19l-9 14v1c3 3 16-23 17-25l22-40 10-21c2-5 5-10 5-15l-2-1z" class="st29"/>
    <path d="M537 786c-21 0-40-13-60-19-12-3-23-6-34-11l-30-14v1c18 13 39 22 59 28 12 4 24 6 35 11 10 4 20 7 31 7 2 0 1-3-1-3zm7-48c0-1-1-2-3-1-3 1-6 3-6 7l2 2h2c3 0 5-4 5-8zm3 28c-1-1-2-2-3-1-3 1-4 4-5 7 0 2 3 3 4 0l1-1c2-1 3-2 3-5zm-26-45l-2 2c-3 1-1 5 1 4 3-1 4-2 4-5 0-1-2-2-3-1zm-22 30v-2h-3l-2 2c-1 2 0 4 2 4l3-3v-1zm-57-12l-4 2-2-1-3 2-1 3c5 5 10 2 12-3 1-2-1-3-2-3zm18-1c-2-1-4-1-5 1-1 1 1 4 3 3l2-2v-2zm116-39l-2 1c-4 3-7 7-8 12 0 2 3 4 4 2 4-4 7-8 8-14 1-1-1-2-2-1zm-41 75c-1-1-2-2-3-1-2 1-4 3-4 6-1 2 3 3 3 0h1c2 0 3-2 3-5z" class="st29"/>
    <path d="M572 703c-3 1-4 4-4 7h4l2-5-2-2zm-49 18c-2 0-3 1-4 3-1 1 1 3 2 2l3-3-1-2zm16 19l-2 3c-1 1 0 2 1 2 1-1 3-2 3-4 0-1-1-2-2-1zm8-19l-1-1-2 2c-1 2 3 3 3 1v-2zm-45 30l-2-1-1 1-1 2c-1 1 1 3 2 2l2-3v-1zm-18-18l-3 2 2 2 3-2c1-1-1-3-2-2zm12-13c-2 0-2 1-3 2 0 1 1 2 2 1l2-1c1-1 0-3-1-2zm-35 17l-4 1c-1 1 0 3 2 2l3-1-1-2zm60 29l-2 3c-1 2 2 3 3 1l1-3-2-1zm22-11l-2 3c-1 2 2 4 3 2 1-1 2-3 1-4 0-1-1-2-2-1zm-14 23c-2 2 0 4 1 2v-1l-1-1zm-88-36l-3 1c-1 1 0 3 2 2l2-1c1-1 0-2-1-2zm118-11l-1 1c-2 2 1 4 2 2l2-2c0-2-3-3-3-1z" class="st27"/>
    <path d="M589 714l141-122c9-8-6 104-6 114 0 11-128 10-135 8z" class="st24"/>
    <path d="M713 704c-20-3-42 2-62 3-5 0-26 4-29-2-3-7 14-20 18-23 17-13 33-22 47-38 12-12 36-41 30-6-2 12-11 23-11 36 0 9 6 18 5 27l2 3z" class="st25"/>
    <path d="M711 658l-1-2c-1-2-3-3-5-1-5 4-8 13-5 19 1 2 4 1 5 0l3-1 3-11v-4zm-36 26c0-1-2-3-4-2l-4 5c-2 2-3 5-3 7s1 3 3 3v1c1 1 3 2 4 1 4-3 6-7 5-12l-1-3zm-42 2c-4 2-8 6-7 12 0 1 3 2 4 1l1-2 4-1c3-2 4-6 2-9l-4-1zm21-9c-2 0-3 1-4 3l-1 1s-1 0 0 0l-1 1 1 3h3c2-2 4-4 4-6 1-1 0-3-2-2zm34-31h-1l-3-1c-3 1-5 3-7 6 0 0-3 5-2 8v5c0 1 2 3 3 2 4-1 8-5 10-9 2-2 4-8 0-11zm20 53c-1 3-2 6 0 10 1 2 4 2 5 0v-10c0-3-4-3-5 0zm-2-58l-1 1-1 1v2l2 1c2 0 2-2 3-4 0-1-2-3-3-1zm-2-13c-2 0-3 3-1 5l2-1v-3l-1-1z" class="st24"/>
    <path d="M730 594c1 25-4 50-5 75l-1 22-3 16v1c4 2 6-27 7-30l4-45 1-24c0-5 1-10-1-15h-2z" class="st29"/>
    <path d="M722 705c-20 9-43 4-63 7l-36 3-32-2-1 1c21 5 45 5 66 3l36-3c11-1 21-1 31-6 2 0 1-4-1-3zm-12-46c-1-2-3-2-4-1-3 3-4 6-2 10l2 1 1-1c4-1 4-6 3-9zm13 25c-1-1-3-2-4 0-2 2-2 5-1 8 1 2 4 1 4-1v-2c2-1 2-3 1-5zm-41-32c-1 1-2 2-1 3-2 2 1 5 2 3 2-2 3-3 2-6h-3zm-9 36v-1l-1-1-3 1-1 3c0 2 2 4 3 3 2-1 2-2 2-4v-1zm-57 11l-3 3-2 1-2 2v3c6 3 9-2 10-7 0-2-2-3-3-2zm16-8c-2 0-4 1-4 3-1 2 2 3 3 1l1-2v-2zm92-80l-2 1c-2 4-4 10-2 14 1 2 4 3 4 0 2-4 3-10 2-15 0-2-2-2-2 0zm-9 85c-1-1-3-2-4 0l-1 7c0 2 4 1 4-1 2-2 2-4 1-6z" class="st29"/>
    <path d="M722 616c-3 2-3 5-1 7 1 2 3 1 3-1v-5c0-1-1-2-2-1zm-39 36l-2 3c-1 2 2 3 2 1l2-3c0-1-1-2-2-1zm23 10l-1 4c-1 1 1 2 2 1 0-1 2-3 1-5h-2zm0-20h-2l-1 2c0 2 4 2 4-1l-1-1zm-31 45h-1l-1 1v2c-1 2 2 3 3 1v-3l-1-1zm-23-10l-1 3c-1 1 1 2 2 2l2-3c0-2-2-3-3-2zm6-17l-2 4h2l2-2c1-1-1-3-2-2zm-26 30l-3 3c0 1 1 2 3 1 1-1 2-1 2-3l-2-1zm67 3l-1 4c0 2 4 2 4 0v-4h-3zm16-19l-1 5c0 2 4 2 4 0l-1-5h-2zm-4 28c-2 2 2 3 2 1v-1h-2zm-95 0l-2 2c-1 2 1 3 2 2l1-2c1-1 0-2-1-2zm104-56v2c-1 2 2 3 3 1v-3c0-2-3-2-3 0z" class="st27"/>
    <path d="M127 587s79-115 85-118c5-4 50 94 54 100s-127 19-139 18z" class="st24"/>
    <path d="M211 477c-15 22-31 42-45 64-5 6-13 18-5 25 10 7 30 1 40-1 14-2 29-4 44-4 0-9-4-13-9-20s-8-14-10-22-4-14-8-20l-5-8-2-9v-5z" class="st25"/>
    <path d="M190 559c-7-1-16 2-17 9l2 3 1-1v2l3 2c5-1 8-3 10-6l2-6c1-1 0-3-1-3zm-22-12l-1 1-1 1c-1 2 1 4 3 3l1-2c0-1 0-3-2-3zm38-20l1-4-3-2c-4 0-10 1-11 6l-1 2-1 6c0 1 1 2 3 2l3-1h1l6-2 2-7zm32 6l-2-1c-1-2-4-2-6-1-4 2-5 6-4 10 0 3 4 5 7 4 4-1 11-10 5-12zm-35-33h-1v-2c0-1-2-3-3-2l-8 5-6 6 1 3 3 2h3l5-2 5-2c3-1 4-5 1-8zm9 2h-2v1c-1 1 0 2 1 2l2-1-1-2zm-31 20h-3l-2 3c-2 1 0 4 2 3l2-2 1-1v-3zm6 6c-1-1-2 0-3 1 0 2 3 3 3 1v-2zm49 30h-1c-3-4-11-4-12 2h-1c-2 1-1 5 1 5h2l2 1c3 1 8-2 11-4 2-1 0-4-2-4zm-20-8l-3 2v-3c-1-1-2 0-3 1-2 1-2 2-2 4l2 2c3-1 5-2 7-5 1-1 0-2-1-1z" class="st24"/>
    <path d="M269 568a1612 1612 0 0 0-55-99c3 17 15 31 22 47 9 19 16 38 27 55 2 3 7 1 6-3zm-33 7l-51 3c-20 1-38 8-58 7l-1 1c14 5 30 1 45-1l66-8c1 0 1-2-1-2zm13-1h-6v1l6-1c1 0 0 0 0 0zm6-1l-1-1-2 1v1c1 0 4 0 3-1z" class="st29"/>
    <path d="M264 569c-17 3-35 4-52 8l1 2c17 0 35 0 52-5 2-1 1-6-1-5zm-65-42l-2-2c-1 0-3 0-3 2l-1 2c0 1 1 3 3 3l3-2v-3zm-51 40l-2-1c-2 1-5 3-6 6l1 3c1 2 3 2 4 2 3-2 6-3 6-7 1-2-1-3-3-3zm44 0l-7 1c-2 1-2 6 1 5h7c3-2 2-6-1-6zm-16 10c-6-6-14-3-19 0-3 2-2 4-1 5l2 2c5 2 12 1 16-1 3-1 4-4 2-6z" class="st29"/>
    <path d="M221 576c-4-4-10-3-15-3-6 0-13 2-18 5-1 1-1 3 1 2l16-1c5-1 11 1 15-1l1-2zm12-15c-1-2-5 0-6 2l2 2c1-1 6-1 4-4z" class="st29"/>
    <path d="M200 497c-2 1-4 3-2 5h2l1-1c3 0 2-4-1-4zm-23 45c-2 0-2 1-3 2-2 2 1 4 2 3l2-3c1-1 0-2-1-2zm9-16l-1 1c-2 1 1 3 2 1 1-1 0-2-1-2zm23 18l-3 1c-2 1 0 4 2 2l2-2c1-1 0-2-1-1zm-49 9c-3 0-5 2-6 4-2 3 3 5 5 2l2-4c1-1 0-2-1-2zm61-30h-1c-2 0-2 3 0 3l2-2-1-1zm-31 38h-5c-1 2 1 4 2 3h2l1-1v-2zm39-8c-2-1-4 0-5 1s-1 3 1 3l3-1 2-1v-1l-1-1zm-66 21h-2l1 3 2-2-1-1zm77-37l-2 1c-1 0-2 1 0 2l2-2v-1zm-32 38l-5 1v2c2 1 5 2 6-2l-1-1z" class="st27"/>
    <path d="M490 586c0-3 126-2 131 0s-70 149-76 157-57-152-55-157z" class="st24"/>
    <path d="M580 602c-15-11-27-13-44-6-9 3-31 8-30 19 0 6 8 12 10 17 2 8-1 15-1 22 1 14 10 30 14 43 9 28 22-4 22-19 26 3 18-16 25-32 4-7 32-36 11-40l-7-4z" class="st25"/>
    <path d="M578 635c0-3-3-4-4-3l-1 1h-1c-6 4-9 11-5 17v2c1 2 4 3 5 1 2-1 3-3 4-6 2-3 3-8 2-12zm-22 38c-1-2-3-2-4 0-3 2-3 6-2 9 1 2 4 2 5 0l1-4v-5zm-24-11v-2c-1-3-2-6-5-6-4-1-7 4-7 7 0 4 1 9 4 12 2 3 7 2 9-1s1-7-1-10zm-13-33c-2 1-3 3-2 4v5l2 1h2l2-2c1-3 0-8-4-8zm21-15c2-4 2-9 1-14-1-2-3-3-5-2l-2 3c-4 5-3 12-2 18 0 2 4 3 5 1v-1l1-1 2-4zm33-16c-1-1-3-2-4 1l1 3c-1 1 0 2 1 2v1l3-2-1-5z" class="st24"/>
    <path d="M556 663c-1-1-3-2-5-1-3 5-4 11-2 16l1 1v1l2 1h2l1-2v-1c3-5 3-10 1-15zm-10 21c-1-2-5-1-5 1v2l-1 2 2 3h1l2-2 1-6z" class="st24"/>
    <path d="M619 587c-24 53-51 104-77 156-1 2 3 4 4 1 13-25 25-52 39-77 13-26 28-51 36-79 1-2-2-3-2-1z" class="st29"/>
    <path d="M618 584c-13-3-28-1-42-1-17 1-34 0-51 2v1c30 4 62-3 92 2 4 1 5-4 1-4zm-74 158c-3-11-9-21-13-31-6-13-10-26-14-40l-25-77c0-2-2-1-2 0 0 12 5 25 9 36l13 39c8 26 17 51 29 74 1 2 4 1 3-1zm30-99c0-1-1-2-2-1-1 0-3 1-2 2l1 1h2v-2h1zm15 2c0-2-2-2-4-1l-3 5v1c-2 3-3 7-3 10 0 2 1 2 2 2v1c1 1 3 0 3-1 5-4 8-11 5-17zm18-46c-1-2-3-2-4-1-3 3-5 7-4 12 0 1 2 2 4 1l3-4c2-2 2-6 1-8zm-68 14l-1-4c0-2-2-2-3 0v5c0 1 1 2 2 1l2-2zm16 92c0-2-2-3-3-1h-1c-5 4-6 10-6 16 0 2 3 3 4 2 4-5 7-11 6-17zm-10-17c-1-2-3-1-3 0v3h3v-3zm10-19h-3c-2 2-2 6-2 9 0 2 5 2 5 0v-1c0-2 2-6 0-8zm-27-7c-1-2-2-1-3-1h-1l-1 2 1 4 2 2h1c1 0 2-1 2-3l-1-4zm-24-69c-1-2-3-2-5-1v1l-1 1-1 2 1 5v1c0 1 0 2 2 2h2l2-1v-10zm8 0c0-2-3-1-3 0v2l1 2h1l2-1-1-3z" class="st29"/>
    <path d="M587 650h-3v1l-1 1c-2 1-1 4 1 4l2-1 1-5zm-37 61h-2c-1 1-2 3-1 4l2 1c2-1 2-3 2-4 1-1-1-2-1-1zm16-26c0-1-1-2-2-1l-2 4c0 2 2 3 3 2l2-3-1-2zm-13-13c0-2-2-2-2 0l-1 2c1 2 3 2 3 0v-2zm-9 16h-3v2c0 2 3 2 3 0v-2zm-17-24c0-2-2-2-2 0v1l1 1 1-1v-1zm-15-28v-2l-1-2h-2l-1 1v3l2 1 2-1zm24-29c-2 1-2 3-1 4s3 0 3-1v-1c1-1-1-2-2-2zm35-9l-1 4c0 2 2 2 3 0v-4c0-2-2-2-2 0zm-70-3c-2 0-2 4 1 4 2 0 2-4-1-4zm21-3h-2l-1 2h2l1-1v-1zm82 13v-1c0-1-1-2-2-1h1-1l-1 2v2h3v-2zm-10-15v-1l-1-1-2 1-1 1v2c0 3 4 2 4 0v-2z" class="st27"/>
    <g>
      <path d="M590 695s13-146 18-152c6-6 111 75 122 85s-130 62-140 67z" class="st24"/>
      <path d="M595 686c5-22 12-41 11-63 0-13-7-56 16-53 11 2 20 13 27 20 11 9 23 14 35 22 8 5 27 17 16 28-9 11-30 13-42 19-13 6-23 13-37 15-10 1-20 1-24 12l-1-2-1 2z" class="st25"/>
      <path d="M656 600l-3-6-7-5c-2-1-4 1-3 3v1c0 2 1 5 3 7 1 2 4 4 6 4s4-2 4-4zm-40-23c-1-2-4-3-5-1-2 2-4 5-2 8l1 1-1 4c-2 3 3 5 4 2 3-4 4-9 3-14z" class="st24"/>
      <path d="M605 575l-1 3-1 1v10c0 3 4 3 5 1l3-14c0-3-4-3-6-1zm20 57c0-3 0-6-2-9-1-2-3-2-4-1l-1 1c-3 2-4 6-4 9-1 5-1 10 3 11v1c1 1 3 1 4-1 3-1 4-3 4-6v-5zm-17 1h-4l-2 8 3 2 2-2c3-1 3-5 1-8zm45 15c0-2-1-2-2-2-1-1-3-2-4-1l-4 6c-4 5-5 12-1 17l2 1c1-1 2-1 2-3v-1l1 1c11 3 9-13 6-18zm31-16c0-2-1-4-3-4h-2l-1 2 2 2 1 2c2 1 4 0 3-2zm4-15c-1-6-8-11-14-14l-3 1v4l1 1 13 11c1 1 4-1 3-3zm-95 59v11c0 2 3 2 3 0l2-11c0-3-4-3-5 0z" class="st24"/>
      <path d="M730 629c-7-9-17-15-26-21l-31-25a738 738 0 0 0-63-42l-1 2c21 14 42 27 60 45 17 17 41 26 58 44 2 1 4-1 3-3z" class="st29"/>
      <path d="M724 631c-21 12-42 23-65 32s-44 21-68 29c-2 1-1 4 1 3 13-3 25-9 36-14 12-6 24-10 36-14 12-5 24-9 35-15 9-4 21-10 28-18 1-2-1-5-3-3zm-39-18l-2-4v-1l-1-1-1-1-2-1c-1-1-2 0-3 1v3l5 7c2 2 5 0 4-3zm24 11l-2-3h-3v2c0 2 1 3 3 4s4-2 2-3zm-59-31zm2 3l-1-2-1-1v1l-1-2c-1-1-4 0-4 2l3 5c2 2 5-1 4-3zm-2-22l-3 3c1 5 3 9 8 12l2 1c1 1 3 1 4-1 2-7-5-13-11-15zm-33 7c-1-1-3-2-4 0h1c-1 0-2 2-1 3v1c1 3 4 1 4-1v-3zm5 49l-1-1c0-3-4-2-4 1l1 3c1 1 4 1 4-1v-2zm26 25l-1 2v1l-1 4c1 2 4 3 5 1l1-7c0-2-3-2-4-1zm-42-20c0-3-4-3-4 0l-1 2-1 4c0 2 4 3 4 1l1-3 1-4zm18-77c-1-2-3-4-5-4h-1c-1-1-2 0-2 1v1l1 1 4 5c3 1 4-2 3-4z" class="st29"/>
      <path d="M656 582l-1-2-2-1c-2-1-4 2-2 3l1 1c2 3 4 1 4-1zm-32-26l-1-1h-1c-1-2-3-1-2 1v2c1 2 4 2 5 0l-1-2zm12 15l-1-1c-1-1-2 1-2 1v1c1 3 5 2 3-1zm-27 13v-4h-2l-1 3c0 2 1 2 2 2l1-1zm29 22h-1c1-2-1-3-2-3l-2 2v2l1 2v1c1 2 4 1 4-1v-3zm-10-25h-3l1 2 1 1h1l1-1v-1l-1-1zm-23 58l-1-2c0-1-2-2-2 0l-1 2 2 1 2-1zm15-13l-1-1h-2v1l-1 3c0 1 1 2 2 1 1 1 2 0 2-1v-3zm31 31v-3c0-1-2-2-3 0v3l2 2 1-2zm34-29l-1-1c-1-1-3 1-2 2l1 1c1 2 4-1 2-2zm-73 36l-1 5 2 1 2-1 1-3c0-2-3-4-4-2zm100-39c-1-2-2-2-3-2-2-2-4 1-2 3l1 1c2 2 5 0 4-2zm-32-27h-2c-1 0-2 0-1 1 0 2 1 4 3 3l2-2-2-2z" class="st27"/>
      <path d="M597 642c0-1 0-1 0 0-5 7-3 17-6 25-1 7-2 18-1 26 0 2 3 1 3-1-1-16 2-34 4-50zm4-46c-6 12-4 27-3 40 0 1 0 1 0 0 1-13 4-26 4-40h-1z" class="st29"/>
    </g>
    <g>
      <path d="M717 619c8 0 91-56 89-58-24-24-88-78-88-78 0 14-9 136-1 136z" class="st24"/>
      <path d="M776 576c-12 10-28 25-44 27-17 3-10-22-9-32l2-30-1-24c2-19 21 2 26 8 13 14 24 32 28 51h-2z" class="st25"/>
      <path d="M723 535c-1-1-2 0-3 1 0 3-2 7 0 10l4 2v1l4 3c1 1 3 1 3-1v-7c0-3-1-5-3-6-1-2-3-3-5-3zm48 8l-4-2-3 1v1c-1-1-3 0-3 2 0 3 3 8 6 10l5 1h1c2 1 3 0 3-2v-1c2-4-1-8-5-10zm-21 26c-2 0-3 1-3 2l2 4c0 1 2 2 3 1v-3l-2-4zm-19 11c-2 0-4 1-4 3v1l1 3 2 2c1 2 4 3 6 0 2-2 1-3 0-5s-3-4-5-4zm12-48h-1l-2 1 1 1 1 1h2v-3h-1zm-11-25c-2-1-4 0-4 2 0 4 2 8 6 10 1 1 3 0 3-1 1-3 1-5-1-7l-1-1-3-3zm44 58l-2-1c-3-2-5-4-8-3-3 2-3 4-3 7-1 2-1 5 2 7l2 1c1 1 4 2 6 1l2 1c1 1 3 1 3-1v-5c1-3 1-6-2-7z" class="st24"/>
      <path d="M718 484c3 6 9 10 14 14l20 18 28 23c8 8 14 17 23 23 2 1 4-2 2-3l-22-23-22-18c-7-6-14-13-22-18-7-5-14-9-19-16h-2z" class="st29"/>
      <path d="M803 560c-14 8-27 19-40 29-15 11-30 19-46 28-1 1 0 2 1 2 16-6 30-16 44-26l21-14 22-16c1-2 0-4-2-3zm-34-15c-1 0-3 1-3 3h1v1l1 2 2 1h3v-2l-1-3-3-2zm17 8l-1 1-1 1c1 4 3 7 7 8 1 1 2 0 3-1 2-5-3-10-8-9zm-15 13h-2v3l1 1v1l2 1 2-1v-3l-3-2zm-47-28c-1-2-3-1-3 1 0 4 3 7 6 9 2 0 3-1 3-2 0-4-3-7-6-8zm6-25l1 2h2l1-2-1-2c-2-2-4 1-3 2zm3 70l-1 1 1 3h1l1-1v-2l-2-1z" class="st29"/>
      <path d="M769 547l-1 1v3h2c1 1 3-1 1-2l-2-2zm-29-4l1 1 1-1v-1l1-1c-1-3-4 0-3 2zm-14-1l-2-3c-2 0-3 2-2 3l1 1v2h1c2 2 4 0 3-1l-1-2zm8-29v-1l-1-1h-1c-1 0-2 1-1 2l2 2c1 1 2-1 1-2zm-10-13l1 1v1l1 1 1-1-1-3-2 1zm9 84c-1-1-2 0-2 1h1l1 2c1 1 3 0 2-1l-1-2h-1zm-13-17v1c1 1 3 0 2-1v-1c-1-1-3-1-2 1zm30 5l-1-1-2 1c0 1 1 2 2 1h1v-1zm-10-40l2 2 1-1-1-2-2 1zm34 39l-1-2-2-1c-1-1-3 0-2 1l3 4c1 1 3-1 2-2zm15-13c-1 0-2 1-1 2v1l1 1h2c2-2 0-4-2-4zm-68 46h-1v3c1 1 3 1 2-1 0-1 1-2-1-2z" class="st27"/>
    </g>
    <g>
      <path d="M58 630s99-101 104-102c5-2 59 79 64 84S63 633 58 630z" class="st24"/>
      <path d="M196 598h-1c-9-14-18-40-34-47-15-7-29 14-38 23-7 8-15 14-23 21-5 5-17 14-18 21-1 8 8 5 13 4l36-8h35c11-2 20-9 29-15l1 1z" class="st25"/>
      <path d="M158 546c-5 2-12 7-11 13 0 2 2 3 4 3h1c7-1 12-5 12-12 0-3-3-5-6-4zm-5 32c-2-2-5-1-7 1-1 2 1 5 3 4 2 0 6-2 4-5zm-40 14c0-2-2-3-3-2l-4 2h-2c-3 1-5 4-3 8l4 2c4-1 9-5 8-10zm17 3h-4v2l4-1v-1zm45 6l-3-2-3-2h-5c-5 0-9 2-13 5-1 1-2 4-1 6h1l2 2c0 4 3 7 7 8 3 0 7-1 10-3l2-2c4-2 8-9 3-12zm9-26l-3 2h-1c-1 2-1 5 1 6h3c2-1 4-2 5-5s-3-5-5-3zm-88 37l-5 2v3h5c3-1 2-5 0-5z" class="st24"/>
      <path d="M226 610c-11-14-19-29-30-43-11-12-19-28-32-39-1-1-3 1-2 2l31 40 13 23c4 7 11 13 16 19 2 3 6 0 4-2zm-38 7L60 628c-2 0-2 3 0 3 43 3 86-7 129-11 1-1 1-4-1-3z" class="st29"/>
      <path d="M222 611c-3-1-8 2-12 3l-18 3v1l19-1c4 0 11-1 12-5l-1-1z" class="st29"/>
      <path d="M156 552c-1 0-2 0-3 2-2 1 1 4 3 3l2-4-2-1zm16 14h-2c-2 0-1 3 1 2 1 0 2-1 1-2zm-63 25l-3 2c-1 2 1 3 2 2s2-1 2-3c1-1 0-1-1-1zm18-19l-2 1c-2 0-1 3 1 3l4-1c1-2-1-5-3-3zm-48 42l-1 1 1 2 1-2-1-1zm54-11l-3 2v2l4-1c1-1 1-3-1-3zm17-25c-3-1-3 4 0 3l1-1c1-1 0-2-1-2zm17 25l-4 2c-1 1 0 3 2 3l3-1c3-1 1-6-1-4zm30-17l-3 1c-3 2-1 6 2 5l3-2c1-2 0-4-2-4z" class="st27"/>
    </g>
    <g>
      <path d="M142 603c-4-4 120-58 129-57s24 87 23 101-145-37-152-44z" class="st24"/>
      <path d="M278 629c0-14-2-27-6-41-3-8-7-30-17-32-5-1-10 3-13 5l-17 6c-11 4-21 12-33 16-5 2-12 1-18 3-5 2-8 7-11 12 8 3 16 1 23 1h12l11 8 15 6c4 0 8-2 12 0 4 1 6 5 8 7l11 5c7 3 13 6 21 6v-2h2z" class="st25"/>
      <path d="M273 566l-5-4c-5-4-12 1-11 7l2 4 1 1 3 3h8c4-1 5-8 2-11zm-23 23c-3-1-6 1-5 4 0 1 0 1 0 0l1 2 1 2 2 2c2 1 4 0 5-2 2-4-1-7-4-8zm-32-7v-1h-1l-2-1c-2-1-3-2-5-1-2 0-2 2-1 4s4 3 7 3l2-3v-1zm16 13v1c0 3 5 3 5 0v-1c0-3-5-3-5 0zm-38 18c-1-3-4-5-6-7-1-2-4-2-6 0s-1 5 1 7l3 4c1 1 3 2 5 1s3-3 3-5zm-11-20c1 2 4 2 4 1l1-1c1-4-6-4-5 0z" class="st24"/>
      <path d="M292 623c-1-11-5-21-6-31-3-16-3-33-13-47l-2 1c8 15 8 31 12 47 4 17 8 36 8 55 0 2 3 1 3 0 2-8-1-17-2-25zm-137-15l-6-4-6-3-1 1 6 4 6 2h1z" class="st29"/>
      <path d="M293 646c-13 0-24-2-36-5l-35-8c-11-3-22-8-33-13l-34-11c9 6 20 9 30 13l33 12c25 8 49 14 75 15 2 0 2-3 0-3zm-55-20c-2-3-4-4-7-3-2 0-4 3-2 4l2 1c1 1 2 2 4 1 0 1 0 0 0 0 2 1 3-1 3-3zm34-63h-3l-1 1 2 1 1 1 2-2-1-1z" class="st29"/>
      <path d="M271 563c-1-2-3-1-5-1s-2 3 1 3l4-1v-1zm-55 17h-3l1 2 2-2c1 0 0 0 0 0zm23 7h-4c-1 1 0 3 1 2l3-1v-1zm14 6h-3v2h3v-2zm-21 32c-1 0-1 3 1 2 1 0 7 2 7-1-1-3-6-2-8-1zm36-10l-3-1v2l3-1zm-68-7c-2-2-5-2-7-1-1 1-1 3 1 3h4c2 0 2-1 2-2zm-11-18l-4 1 1 2c1 0 3 0 4-2l-1-1zm12-13h-3v2l3-2zm-37 21c-1-1-3 0-4 1v2l5-2-1-1zm120 7h-2c-2 0-2 2 0 2h2v-2zm-7-20c-1-1-2 0-3 1s0 2 1 1l2-1v-1z" class="st27"/>
    </g>
    <g>
      <path d="M650 567c-3-5 132-18 140-14 8 3-4 90-10 103-5 13-126-80-130-89z" class="st24"/>
      <path d="M771 634c4-14 6-26 7-41 0-8 3-31-6-36-4-2-10 0-15 1l-17 1c-12 0-24 5-36 4l-19-2c-6 0-10 4-14 8 7 4 15 5 22 8l11 4 8 10c3 4 8 8 13 11 3 1 8 1 11 3s4 7 6 10l8 8c6 5 10 10 18 12l1-1h2z" class="st25"/>
      <path d="M785 572l-3-5c-4-6-12-3-12 4v4l1 1 2 4c2 2 4 2 7 2 5 0 8-5 5-10zm-28 15c-3-2-6 0-6 3v4l1 2c2 1 5 1 6-1 3-2 1-6-1-8zm-28-16l-1-1v-1l-2-2-4-2c-2 0-3 2-3 3 1 3 3 5 6 6 1 0 3-1 3-3h1zm11 16l-1 2c-1 3 4 5 5 2l1-2c0-3-4-4-5-2zm-42 6l-3-9c-1-2-4-2-6-1-3 1-3 4-2 6l2 5c1 2 2 3 4 3 3 0 4-2 5-4zm-4-22v1c0 1 2 2 3 1l1-1c3-3-4-5-4-1z" class="st24"/>
      <path d="M786 632c3-10 2-21 4-31 2-16 7-32 2-48h-2c3 17-2 31-3 48-2 18-4 37-10 55 0 1 2 2 3 1 5-7 5-16 6-25zm-126-57l-4-5-6-4c0-1-1 0 0 0l5 5 4 5 1-1z" class="st29"/>
      <path d="M780 655c-12-4-22-10-32-16-10-7-21-12-31-18l-28-23-28-21h-1c7 8 16 14 24 21l29 22c20 15 42 29 66 38 2 0 2-3 1-3zm-47-36c0-3-2-5-5-5-2-1-5 1-3 3l1 2 4 2c1 1 4-1 3-2zm53-50l-3-1c-1 0-2 1-1 2h1v1l1 1 2-1v-2z" class="st29"/>
      <path d="M785 569l-4-3c-3 0-3 3-1 4h4l1-1zm-58-1h-2v1l2-1c1 0 1 0 0 0zm20 14c0-2-3-2-4-1-1 0-1 2 1 2h3v-1zm11 10l-3-1v1c1 1 2 2 3 1v-1zm-30 24v2c1 1 7 4 8 1 0-3-5-4-8-3zm38 1l-3-1-1 1 3 1 1-1zm-63-27c-1-3-4-3-6-3s-2 2 0 3l4 1c1 1 2 0 2-1zm-4-20l-4-1v2h4v-1zm15-10h-4c-1 0 0 2 1 1h3v-1zm-42 9l-4-1v2h5l-1-1zm112 44l-2-1-1 2 2 1 1-2zm0-21h-3v1h2l1-1z" class="st27"/>
      <path d="M758 552l-48 3c-15 2-30 6-45 7v2l17-2 24-3 27-2c8-2 17-2 25-3v-2zm23-1h-7l-9 2v1l9-1 7-1v-1z" class="st29"/>
      <path d="M790 550c-14 0-28 2-41 3-2 0-2 2 0 2 13 2 28-1 41-2 3 0 2-3 0-3z" class="st29"/>
    </g>
    <g>
      <path d="M102 647c-2 0 113-50 120-49 8 1 46 77 52 88s-172-39-172-39z" class="st24"/>
      <path d="M120 646h-2c20-10 42-14 63-23 9-5 19-13 29-14 11-1 17 8 21 16 6 11 10 23 14 34-9 2-17-2-26-3-9-2-15 0-24 2-11 1-17-3-26-8-8-3-17-5-24-2-5 3-17 5-24 0l-1-2z" class="st25"/>
      <path d="M166 629h-7l-2 1-2 1c-4 1-3 6 0 6 1 1 2 2 3 1l9-2c3-1 3-6-1-7zm12 10c0-1 0-1 0 0zm7-3l-5 1-2 1-1 1c1 0 0 0 0 0-1 2 1 5 3 5 2 1 5 0 6-2 3-1 2-6-1-6zm-2-13v-1c-4-4-7 5-2 4h1c2 0 2-2 1-3zm34 27l-3-2c-3-1-8 1-11 2-3 2-4 5-2 7 2 4 6 7 10 7 4-1 7-4 8-7s0-5-2-7zm-80-7v-1c-3 0-4 3-1 5h1c3 0 3-4 0-4zm81-29c-6-3-17 0-18 8 0 5 6 6 9 5l2-1c4-1 7-3 8-6 2-2 2-5-1-6z" class="st24"/>
      <path d="M262 662l-15-27c-6-12-12-29-23-38-1 0-3 1-2 2 12 11 17 28 24 41 7 16 16 32 26 47 1 1 3 0 2-1-3-9-9-16-12-24z" class="st29"/>
      <path d="M270 684c-10-4-21-4-32-5l-44-8-44-10c-14-4-29-10-44-13v1c25 12 54 17 80 23l40 9c14 2 29 2 41 7 3 1 5-3 3-4z" class="st29"/>
      <path d="M214 673c-9-4-21-8-31-6-2 0-2 2-1 3l15 4 15 5c4 0 6-5 2-6zm-2-59c-1 1-3 0-4 2s-1 4 1 4a38 38 0 0 0 5-1c2-1 1-6-2-5zm7-12h-2l-2 1c-1 1 0 3 1 2 2 0 4-1 3-3zm2-6c-14 1-25 12-39 16l1 1c13-3 24-13 38-14 2 0 2-3 0-3z" class="st29"/>
      <path d="M165 632c-1-1-2-2-3-1-2 0-2 2 0 3l3-1v-1zm16 29c1 0 1 0 0 0zm2-2h-5v3l5 1c2-1 2-5 0-4zm3-21h-4v2h2c1 1 2-1 2-2zm37 5l-1-1-5 1c-1 1-1 3 1 3h4l1-2v-1zm-8 12l-4 1c-1 1-1 3 1 3l3-1c2 0 2-3 0-3zm-3-41c-2 0-3 1-3 2-1 1 0 2 1 2 2-1 3-1 3-3l-1-1zm5-11c-1-1-2 1-4 2-1 1 1 3 2 2s3-1 3-3l-1-1zm-41 15l-4 2v1c2 1 6 1 6-2l-2-1zm75 53h-6c-1 1 0 3 1 3h4l1-1 1-1-1-1zm-96-18h-1c-2-1-4 1-2 2l3 1c2 0 2-3 0-3zm-19-11c-2 1-2 3 0 4 1 0 4 0 4-2 1-2-3-2-4-2z" class="st27"/>
    </g>
    <g>
      <path d="M922 595s-126-65-131-65-31 94-35 100c-3 7 162-31 166-35z" class="st24"/>
      <path d="M776 606l1-1c4-16 1-53 14-65 16-3 35 15 47 21l28 12c6 3 21 8 24 15 3 6-7 6-12 7l-36 4c-11 3-22 8-33 10s-22-1-33-5v2z" class="st25"/>
      <path d="M800 546c6 1 14 3 15 9 1 2-1 4-3 4l-1 1c-6 1-13-2-15-9-1-2 2-5 4-5zm15 29c1-2 5-3 7-1 2 1 1 5-2 5-1 0-6-1-5-4zm42 1c0-2 1-3 3-3l4 1 2-1c3 0 6 3 6 6l-4 4c-4 0-10-2-11-7zm-15 8c1-2 2-1 4-1 1-1 2 2 0 2h-4v-1zm-41 20l3-3 2-3 5-2c4-1 9 0 13 2 2 0 4 2 3 5h-1l-1 3c2 4 0 8-4 9-3 2-7 2-11 0h-2c-4-2-10-7-7-11zm-16-22l3 1h1c2 1 3 4 1 5 0 1-1 2-2 1h-1c-2 1-4 0-6-3-2-2 1-5 4-4zm96 8h4l1 2c-1 2-3 2-5 2-3 0-3-3 0-4z" class="st24"/>
      <path d="M794 623c42-9 83-20 125-30 2 0 3 3 1 4-40 16-84 19-126 28-1 1-2-2 0-2zm-34 5c2-2 8-1 12-1l18-3 1 2-19 5c-3 1-10 2-13-1l1-2z" class="st29"/>
      <path d="M804 551c1-1 2 0 4 1s0 4-2 4c-1-1-3-1-3-3l1-2zm-11 19c0-1 1-2 2-1 2 0 2 3 0 2l-2-1zm68 4c1-1 3 0 4 1s-1 3-2 3l-3-2c-1-1 0-2 1-2zm-23-13h2c2 0 2 3 1 4h-5c-1-2 0-5 2-4zm58 26h2v2l-2-1v-1zm-54 6h4v2h-4c-2 0-2-2 0-2zm-24-19c3-2 4 3 1 3h-2c-1-1 0-3 1-3zm-8 29l3 1c2 0 2 3 0 3h-3c-3 0-3-5 0-4zm-34-6h3c4 0 3 5-1 5l-3-1c-1-1-1-4 1-4z" class="st27"/>
      <path d="M920 592l-25-13-33-18-32-15c-9-4-18-10-28-12v1c19 8 36 20 55 29l30 13 31 17c2 1 3-1 2-2z" class="st29"/>
      <path d="M804 535l-4-2-5-2-1 1 4 3c2 1 4 2 5 1l1-1z" class="st29"/>
    </g>
    <g>
      <path d="M200 669c6 8 128 49 129 45 6-44 10-150 10-150-14 10-145 97-139 105z" class="st24"/>
      <path d="M290 695c-20-4-47-8-62-22-16-16 14-29 25-35l33-22c8-6 15-14 24-20 20-13 14 23 12 33-5 25-14 50-30 69l-2-3z" class="st25"/>
      <path d="M290 609l-3-1c-4 1-9 3-10 7v7l-1 6c1 2 2 3 4 2 3 0 6-3 7-6 3-1 4-4 4-7 1-2 1-5-1-8zm30 56l-1-6c-1-1-3-3-4-2-1-1-3-3-5-1-4 2-6 9-5 14 0 2 0 4 2 5l1 2c1 2 3 3 4 2l2-2c4-1 6-7 6-12zm-44-2c0-2-3-2-4 0l-3 4c0 1 1 4 2 3 2 0 3-1 3-2 2-1 3-3 2-5zm-26-10c-1-2-3-3-5-2l-1 1-3 3v3c-1 4 0 7 5 7 2 0 3-2 4-4 2-2 2-5 0-8zm59-25v-1l-1-1h-3l-1 1v1l2 2 2-1v-1h1zm17-32c-1-2-3-3-5-2-5 3-7 8-6 13v2c0 1 2 2 4 1 3-1 5-3 6-6v-2l1-6zm-24 90l-2-3c1-4 0-8-3-9-3-2-6-1-8 2-4 0-7 2-6 7v2c0 4 1 6 3 8l1 3c0 1 2 3 4 2l3-2 3-2c3-1 5-4 5-8z" class="st24"/>
      <path d="M337 565c-4 7-2 17-3 25l-2 34c-1 15 0 31-2 46-1 14-6 28-4 42 0 3 4 2 4-1l6-39 1-38 2-36c-1-11-3-21 1-32 0-2-2-3-3-1z" class="st29"/>
      <path d="M327 710c-19-8-40-13-60-18-23-7-43-15-65-25-1 0-2 2-1 3a820 820 0 0 0 91 34c11 3 23 8 34 10 2 0 3-3 1-4zm-11-45c-1-3-4-4-5-1l-1 1-1 3v3l2 2h1l2-1 2-4v-3zm5 22h-3c-4 4-6 9-3 14l3 2c7-3 8-11 3-16zm-25-4l-2-2h-1l-1 1v3h-1v3l2 2c2 0 3-1 3-3v-4zm-8-70v-1c1-2-1-3-3-2-4 3-6 9-4 14 0 1 2 2 4 1 4-3 4-8 3-12zm30-13l-1 2 1 1 1 1 1-1h1l1-3c0-2-4-3-4 0zm-69 57h-3v4l1 1 3-1-1-4z" class="st29"/>
      <path d="M313 666l-1-1-3 2 1 3c0 2 4 2 4-1l-1-3zm-18-33v2h3l2-1c2-4-4-4-5-1zm-10-16l1-4c-1-2-4-1-4 1l-1 1v4c-1 2 2 3 3 1l1-3zm37-14v-2h-1c0-2-2-2-3 0v3c0 2 3 1 4 0v-1zm4-19v1h-1v2l1 1c2-1 2-2 2-4h-2zm-78 73h-2v1l-1 2c0 2 2 3 3 1l1-2-1-2zm7-26l-1 1c-1 2 3 4 3 2l1-2c1-1-2-2-3-1zm18 34l1-1-2-1c-2 0-2 2-1 3l1 1 1-1v-1zm33-41l-1 4h2l2-2c1-2-2-3-3-2zm-12 65v-2l1-3c0-2-3-3-4-1l-1 6c0 2 3 2 3 0h1zm24 6c0-1-2-2-3-1v4l1 2c3 0 4-3 2-5zm-99-34h-1c-2 0-3 1-3 2-1 2 1 3 2 2s3-2 2-4z" class="st27"/>
    </g>
    <g>
      <path d="M717 732c10 2 127-49 125-52-25-37-92-119-92-119-4 18-43 170-33 171z" class="st24"/>
      <path d="M801 692c-18 10-40 26-61 25-22-2-9-31-5-43s8-25 10-38l4-31c6-23 26 8 31 16 13 22 23 46 24 72l-3-1z" class="st25"/>
      <path d="M743 628c-1-1-2 0-3 1-2 4-4 8-2 12 0 2 2 3 3 4h1v1l4 5c1 1 3 1 4-1 2-2 3-6 2-9 0-3 0-6-2-8l-7-5zm59 21l-4-3c-1-1-3-1-4 1-2-1-4 0-5 2-1 4 2 11 6 14 1 2 3 3 6 2l1 1c2 1 4 0 4-2v-2c3-3 1-9-4-13zm-33 28c-1-1-3 1-3 2l1 6c0 1 2 2 4 1v-4c1-1 0-3-2-5zm-26 10c-2-1-4 0-5 2v5l2 3c2 3 5 5 8 2 2-1 1-4 0-6 0-3-2-5-5-6zm27-58h-1l-1-1c-1 0-3 1-2 2v2h3c0 1 0 0 0 0h1v-3zm-9-34c-2-2-4-1-5 1-1 6 0 11 4 14l1 1c2 1 4 0 4-1 2-3 2-6 1-9l-2-1c0-2-1-4-3-5zm43 82l-3-1c-3-3-6-6-9-5-4 1-5 4-5 7-3 3-3 6 0 9l2 2c2 3 5 4 8 4l2 1c1 1 4 2 5 0v-5l1-2c1-3 2-7-1-10z" class="st24"/>
      <path d="M749 563c2 9 9 15 14 21l21 27c10 12 21 23 30 36 8 11 14 24 25 33 2 2 4-1 3-3-9-11-15-23-23-33-15-20-15-20-24-29l-23-28c-7-8-16-14-21-25 0-1-3 0-2 1z" class="st29"/>
      <path d="M839 678c-20 7-39 18-58 27-21 10-42 18-64 25-2 0-1 3 1 3 21-4 42-14 62-23l29-13c10-5 22-9 31-15 2-2 1-5-1-4zm-40-26c-2-2-4 0-4 2v1l1 1 1 2c0 2 1 3 2 3h4v-3l-1-4-3-2zm20 13l-2 1-1 1c0 6 2 10 7 12 2 1 3 0 4-1 3-6-2-13-8-13zm-22 13h-2l-1 1v2l1 2v1l2 2 3-1v-3l-3-4zm-53-46v-1c-1-1-4-1-4 1-1 5 2 10 6 13 2 1 4 0 4-2 1-5-2-9-6-11zm13-30l2 2 2 1 1-2-1-3c-1-2-5 0-4 2zm-12 89l-2 2 2 3h2c1-1 2-2 1-3l-3-2z" class="st29"/>
      <path d="M799 654l-2 1v3l2 1c1 2 4-1 2-2l-2-3zm-36-12l1 1 2-1c1 0 2-1 1-2-1-4-5-1-4 2zm-18-5l-2-3c-2-2-4 1-3 3l1 1 1 2v1l1 1c1 2 4 0 4-2l-2-3zm18-35l-2-1c-2-1-3 0-2 2l1 2c2 1 4-1 3-2v-1zm-10-17v2l1 1 2-1c1-1-1-2-1-3-1-1-2 0-2 1zm-8 107c-1-1-3 0-2 1v1l1 2c2 2 4 0 3-1l-1-3h-1zm-13-25v2c1 2 4 1 3-1v-1c0-2-3-1-3 0zm37 14h-1v-1h-2c-1 2 0 3 1 2v1l2-1v-1zm-3-53l1 3c1 1 2 0 2-1l-1-2c0-2-2-1-2 0zm34 57l-2-2-1-3c-1-1-4 0-3 2 0 2 2 4 3 5 1 2 3 0 3-2zm22-12c-1-1-3 0-3 1l1 1v2l1 1h2c2-2 1-5-1-5zm-96 41l-2 1v4c0 1 3 1 2-1 0-1 2-3 0-4z" class="st27"/>
    </g>
    <g>
      <path d="M387 644s-138 25-153 36 109 103 119 104c1 0 36-136 34-140z" class="st24"/>
      <path d="M241 686c21 17 40 35 59 54 12 12 29 32 43 12 7-11 11-24 15-36s9-26 9-39c-1-26-35-12-50-8-25 7-49 15-74 18l-2-1z" class="st25"/>
      <path d="M331 676l-7-1c-4 1-7 2-9 5-2 0-3 1-3 3-2 4 0 7 4 8s8-1 12-2l5-4c3-3 2-7-2-9zm-37-3l-7 3-3 1c-2 1-2 3-3 5 0 2 2 4 4 4 6 1 14-2 14-9 1-3-3-4-5-4zm67 5c-2-1-4 0-5 1l-2 4c0 4 5 5 7 2v-1l1-2c1-2 0-3-1-4zm-31 44c0-3-3-3-6-3l-8 4c-3 1-6 4-7 7l-1 1v2c0 2 1 5 4 5h4c8-1 17-7 14-16zm-39-10h-1l-3 3c-1 3 1 7 5 6l4-4c2-4-2-6-5-5zm63 4c-2 1-4 3-4 5-1 2 2 3 3 1l2-4c1-1 0-2-1-2zm0 2zm-95-28c-2-1-5 0-5 2v1l1 3c2 1 4 1 6-1 1-2 0-4-2-5z" class="st24"/>
      <path d="M386 643c-4 10-5 21-7 31-2 12-7 22-9 34l-10 35-8 40c0 2 3 3 4 0 2-12 3-24 7-35l9-36c4-23 12-45 16-68 0-1-1-2-2-1z" class="st29"/>
      <path d="M353 781c-13-6-25-12-37-21-11-8-21-18-31-27-19-16-40-27-51-50-1-1-2 0-2 1 5 22 32 36 48 49 22 19 45 39 72 51 2 1 3-3 1-3zm-3-26c-1-1-3-2-4-1l-2 5-1 2 1 2 1 3h3c4-2 4-7 2-11zm-29-28c0-2-2-2-3-1l-2 1c-3 0-4 4-3 6l3 2c4-2 6-4 5-8zm36-46h-1l-1 3c0 2 2 3 3 1l2-2c1-2-1-3-3-2zm-39 3c-1 0-2 1-2 3l1 1h2c1-1 2-1 2-3 0-1-2-2-3-1zm57-31l-3 2c-2 1-3 2-3 5 0 1 1 3 3 2 3-2 5-4 5-8 0-1-1-2-2-1z" class="st29"/>
      <path d="M361 708v-5c0-2-2-2-3-2l-3-1c-2 1-4 1-5 3-7 4-16 13-10 19 0 2 1 4 4 5 0 2 3 4 4 3l6-4c5-3 9-11 7-18z" class="st24"/>
      <path d="M356 711c-1-2-3-2-4-1s-4 4-3 6v1c0 1 1 2 3 2 3 0 5-5 4-8zm-64-35l-1-2-2 1-2 1v1l3 2c2 0 3-2 2-3z" class="st29"/>
      <path d="M350 758c-1-2-3-1-4 1l1 4h2l1-5zm-56-20v-1c0-1-1-2-2-1h-1c-2 0-2 2-1 4h3c1 0 2-1 1-2zm25-7v-1l-1-2c-2-1-4 2-3 4h4v-1zm35-18v-1l-2-1-2 3 2 2 2-2v-1zm-49-5l-1 2v2h1l3-2c1-2-2-4-3-2zm15-24l-3 2c-1 1 1 2 2 1l2-2c0-1 0-2-1-1zm41-6c-2 0-3 3-3 4-1 2 1 2 2 1s3-2 2-4l-1-1zm-18-6l-4 3 1 2 4-4-1-1zm-3 27l-2 3 1 1 3-3c1-1-1-2-2-1zm-49-24c-3-1-5 2-6 4 0 2 2 3 3 2 2-1 4-3 4-5l-1-1zm-16 25l-3 2c-1 1 1 2 2 2l2-1c2 0 1-3-1-3zm-16-8l-2-1-2 1h-1c-1 2 1 4 2 3l2-2 1-1zm116-35c0-1-1-2-2-1l-1 1v2h2l1-2zm-43 2l-6 3c-1 2 1 3 2 2l5-2c1-1 1-3-1-3zm-81 20l-5 2c-1 1 0 3 2 2l3-2v-2z" class="st27"/>
    </g>
    <g>
      <path d="M266 655s117-40 129-38 32 91 31 97c0 5-153-52-160-59z" class="st24"/>
      <path d="M274 655c17-2 33-7 48-14 17-7 36-17 54-12 18 4 33 23 32 41-2 24-32 19-47 15-24-6-47-16-71-22l-16-8z" class="st25"/>
      <path d="M376 627l-3-3h-4c-5-1-10 2-13 5-2 1-1 4 1 5 6 1 12-1 17-3l2-3v-1zm-27 25l-4 2h-1c-2 0-3 2-2 4 1 3 4 4 7 4s7-2 7-5c0-4-4-6-7-5zm-16-11c-6-3-13-2-18 2l-2 3c-1 1 0 2 1 3 5 3 12 2 16-2l3-2c2-1 2-4 0-4zm-12 26c-2-2-5-2-8-2h-3c-2 0-3 4-1 5l3 1h9c2 0 1-3 0-4zm63 8h-1l-2-1v1h-2c-2 0-3 3 0 4l2 1 2-1c2 0 3-3 1-4zm26 8c-1-2-3-3-5-3-5-3-11-3-16 0l-1 3c3 8 15 6 21 3 1 0 2-2 1-3zm-21-35l-2 1h-1v3h5c2-1 1-4-2-4z" class="st24"/>
      <path d="M422 686l-6-25c-4-14-9-34-21-44l-1 1c8 15 15 28 19 44 4 17 7 35 12 52 0 2 4 1 4-1-1-9-5-18-7-27z" class="st29"/>
      <path d="M425 712c-14-2-28-8-42-12l-41-16-39-15c-11-6-23-10-35-15-1-1-2 1-1 2 8 8 21 10 31 14l42 18 42 16c13 4 28 10 42 11 2 0 3-3 1-3zm-73-58h-4c-2 0-3 2-1 3h4l1-3zm60 44l-1-2c-3-2-6-3-10-2h-1c-2 0-2 2-2 3 2 4 5 6 8 5l5-1c2-1 2-2 1-3zm-23-76h-1l-1-1-1-1c-2 0-4 2-3 4l1 1 3 1c1 0 3 0 3-2l-1-2zm-22 5h-2c1 0 0 0 0 0-3 0-3 4 0 4l2-1v-3zm23 23l-2-1-2 1v2c1 1 3 0 4-1v-1zm-63-6h-6l-1 2v1c0 2 2 2 3 1l1-1c1 0 3 1 3-1v-2z" class="st29"/>
      <path d="M388 621h-3c-1 1 0 2 1 3l3-1c1-1 0-2-1-2zm-62 24h-2c-1 0-2 0-2 2-1 1 1 2 2 1l2-1v-2zm26-3l-2-1-2 1c-2 1-1 3 0 3l3-1 2-1-1-1zm-1 11l-2 1-1 2h3c2-1 1-3 0-3zm18-25h-4c-2 1-1 2 0 2 1 1 3 0 4-1v-1zm-23 42v3h4l2-1c0-3-4-2-6-2zm45-21l-4-1v3l4-1v-1zm-5 28c-2-2-4-1-6 0-1 0-1 2 1 2l5-1v-1zm14 5l-3 1c-2 1-1 3 0 2l4-1-1-2zm9 12h-3c-2 0-2 3 0 3h4c2-1 0-3-1-3zm-106-48c-1-2-3-1-4 0v2c2 0 3 1 4-1v-1zm1 7h-3c-2 0-2 3 0 3 1 0 3 0 3-2v-1z" class="st27"/>
    </g>
    <g>
      <path d="M338 745c-4-1 80-114 87-114 6 0 91 74 93 79s-173 37-180 35z" class="st24"/>
      <path d="M497 706c-9-14-25-18-35-31-9-11-19-22-33-27-15-5-17 12-28 20-7 5-8 5-12 14-3 8-2 12-9 18-6 5-9 3-14 11-4 8-4 14-13 17 8 9 16-3 23-6 11-6 18 0 30-1s19-11 31-10c10 1 18 5 28 4 6-1 25-2 27-4l5-5z" class="st25"/>
      <path d="M436 705l-3-1-2 1c-3-2-8-1-11 1s-8 6-5 10c6 8 26-1 21-11z" class="st25"/>
      <path d="M441 708l-3-1c-6 0-13 2-16 7-2 1-1 3 1 4l2 1h1c7 2 16-1 17-9 0-1 0-2-2-2zm-40-21c0-1-1-2-3-2-4-1-9 2-13 6-2 2-4 5-4 9l1 2v1l3 2 7-5c5-2 9-7 9-13zm10-6l-2 3-2 1c-1 2 1 4 3 3l4-5c1-1-1-3-3-2zm48 0c0-2-1-4-3-3-3 0-7 2-10 4s-7 5-5 9 8 2 11 1c4-2 9-7 7-11zm-37 17v-1l-1-1c-2 0-4 2-3 4 0 2 2 2 3 1l1-1v-2zm15-49l-3-2-5 2-4 3-1 2-2 5c0 2 1 3 3 3l5-2c4-1 7-6 7-11zm48 55v-1l-2-1-4 1c-3 1-4 3-3 6 0 1 2 2 3 1l6-3v-3zm-103 11c-3 0-6 1-8 3v3c1 3 4 2 5 1 2-2 5-4 4-6 0-1 0-2-1-1z" class="st24"/>
      <path d="M434 635c-2-2-5-5-8-5l-1 1 7 6 8 5-6-7zm82 70l-11-11-20-17c-15-11-30-21-43-33 0 0-1 0 0 0 10 12 23 22 35 32l19 15c6 5 13 10 18 16 1 1 3 0 2-2zm-53 16l-60 13c-12 2-23 5-35 6-10 1-20 1-29 5v1c22-1 44-5 65-10 20-4 41-5 60-12 2-1 1-3-1-3z" class="st29"/>
      <path d="M517 709c-10 6-19 8-30 10-9 1-21 0-29 4v1c11 1 23-2 34-3 8-1 22-3 26-11 1-1 0-2-1-1zm-87 18c-9-7-22-1-30 5-1 1 0 2 1 2l11-4c6-1 10 0 15 1 3 1 4-3 3-4z" class="st29"/>
      <path d="M421 728c-5-4-13 1-17 4-1 1 0 2 1 2l8-2c3 0 6 0 8-2v-2z" class="st29"/>
      <path d="M430 725l-24 1c-7 2-11 7-18 9v2c6 1 9-2 14-5 8-4 19-2 28-2 3 0 3-5 0-5zm20-42c-2 0-4 2-5 4l2 2 4-3c1-1 0-3-1-3zm-73 43l-7 4c-1 1 0 3 1 3h1c3 0 5-2 7-4 1-1-1-3-2-3zm16-36c-3 0-5 2-5 5v1h1l1 1c2-1 5-2 5-5 0-2-1-3-2-2zm-13-2c-3 2-3 5-4 8l2 1 4-7c1-1-1-2-2-2zm55-38l-1-2-2-1c-2 1-5 4-5 7 1 1 2 2 2 0l1-1 5-2v-1zm-4-17h-2l-2 1-2 4c-1 2 2 4 3 3 2-1 3-2 3-4v-4zm50 49c-1-2-4-5-7-5l-1-1c-1-1-3 0-2 1l1 1c0 2 1 2 2 3l4 4c2 1 4-1 3-3z" class="st29"/>
      <path d="M434 710l-3-1-4 3c-1 1 0 3 1 3l5-2 1-2v-1zm16-27l-3 2 1 2 3-2-1-2zm-19-35c-1 1-3 2-3 4 0 1 0 2 2 1 1 0 3-2 3-4l-2-1zm-2-13l-1 1v1c-1 1 0 2 1 1l1-2-1-1zm-39 58l-3 3c0 2 2 3 3 2l2-4-2-1zm20-11l-3 2c-1 1 1 3 2 2l3-3c0-1-1-2-2-1zm-37 46l-3 2c-1 1 0 3 1 2l3-2-1-2zm-22 5c-2 0-3 2-4 3l2 2 3-3c1-1 0-2-1-2zm130-28l-2 1v2c2 1 3 0 4-2l-2-1zm-79-46l-1 2 1 1 1-2-1-1zm28 12l-3 3c-1 1 1 2 2 1l2-2-1-2zm-12 29h-1l1 1v-1zm86 3l-4 2c-1 1 0 3 2 3l3-3c1-1 0-2-1-2zm-101 4c-3-2-6 2-7 4 0 1 1 2 2 1 1 0 6-3 5-5zm-31 3c-2-1-3 1-4 3-1 1 1 3 2 1l3-3-1-1z" class="st27"/>
    </g>
    <g>
      <path d="M416 720s101-117 110-122c9-6 57 137 59 145 3 8-160-21-169-23z" class="st24"/>
      <path d="M549 728c-8-8-19-10-30-9-13 1-14 0-25-5s-18-1-29 0c-12 1-18-7-29-6-2-10 11-13 16-18 8-7 7-14 15-20 8-7 12-7 18-16s12-11 19-18c6-6 5-20 15-22 8 6 3 13 6 21 4 9 13 10 14 21 0 4-3 9-2 13 2 5 8 7 10 11 7 10-1 14 1 23 0 4 15 20 3 21l-2 4z" class="st25"/>
      <path fill="#ffea8f" d="M483 667l-3 4v5c1 1 2 2 4 1 1 0 1 0 0 0l2-1 1-1c2-2 2-4 2-6 0-4-4-4-6-2zm26-32c-2 2-4 6-4 10-1 1 2 3 3 1l5-9c0-2-2-4-4-2zm-24 45c-4 1-7 4-9 8l-2 6v3l-1 3c0 2 2 3 3 2 5-1 5-5 5-9 1-4 3-7 6-9 1-1 0-4-2-4zm-17 2c-4 2-7 5-7 9-1 1 2 3 3 1l6-7c2-1 0-4-2-3z"/>
      <path d="M501 633c-2 0-2 3 0 3s2-3 0-3zm-83 87z" class="st25"/>
      <path d="M540 667c-1-2-4-3-7-3l-1-1c-2-1-4 1-4 2v2c-2 1-2 3-2 4 0 3 1 6 3 8l2 3 3 1h1c1 2 4 1 5-1v-4c1-3 2-7 0-11zm-32 17h-4l-4 7c-2 3-2 7-2 10l4 8v1c1 2 3 2 4 1h1l5-4c5-7 3-18-4-23zm18 11l-2-3h-1c-2-1-4 0-4 2v4c0 3 4 3 5 1v-1l2-3zm-37-28c0-2-3-2-4-1-7 4-13 11-14 19-1 3-2 7-1 11 1 2 3 2 5 2 13-3 18-19 14-31zm-21 16c0-1-2-2-3-1h-1l-2-1c-4 2-9 5-10 10l1 5c0 1 1 2 2 1l1 1c4 1 7 1 10-2s3-9 2-13zm45-43c-1-1-3-1-3 1v4l1 2c0 2 4 1 4-1l-2-6z" class="st24"/>
      <path d="M585 741l-28-79-13-33c-4-11-9-22-16-31-1-1-4 0-3 2 15 20 20 45 28 68l15 36c6 12 8 26 13 38 1 3 5 1 4-1z" class="st29"/>
      <path d="M580 740c-15 0-29 0-44-3l-41-8-39-4c-13-1-25-5-37-6-1 0-2 1-1 2 9 6 23 6 34 8 14 1 28 4 41 6 16 2 31 3 46 6 13 3 28 6 41 4 3 0 3-4 0-5zm-45-68l-1-2c-1-1-4 0-3 2v1l1 2h2l1-3zm27 27l-5-6c-2-1-4 0-5 2v8c-1 5 2 10 7 11h3l2-2 1-1c1-4 0-9-3-12zm0 22c-1-1-4-1-4 1-1 2-1 5 1 7 0 1 2 1 2-1l3-2c1-2-1-4-2-5zm-79-43c-1-1-2-2-4-1l-3 4c-3 2-2 6-1 8s2 2 4 1c4-2 5-8 4-12zm24 13c1-3-2-4-4-4-1 1-2 2-1 3l1 5 2 1h1l2-2-1-3zm26-61v-3l-3-2c-2-1-4 1-3 3l2 5c1 2 4 2 4 0v-3z" class="st29"/>
      <path d="M540 733c-4-8-16-9-24-5h-1l-2 1v5l3 1c6 5 16 4 23 2 2-1 2-3 1-4zm-55-11c0-1-1-2-2-1l-5 1c-2 0-3 4-1 5h8c1 0 2-1 1-2l-1-3zm-25-32l-2-2c-3 1-4 6 0 5l1-2 1-1zm-2 33c-1-4-5-7-10-8-3-2-9-2-12 1-1 1-2 3-1 4l3 3 2 2 6 2h10c2 0 3-2 2-4z" class="st29"/>
      <path d="M534 670h-2c-1 1-2 5 0 6h1c2-1 1-4 1-6zm-1-42c0-2-3-2-3 0l1 3h1l1-3zm-32 26c-1-1-2-2-3-1l-1 7c0 2 3 2 3 0l1-6zm12-13l-2 1 1 3 1 1c2-1 2-4 0-5zm35 20c-1-1-3 0-3 2l1 3c1 2 4 1 4-1l-2-4zm-71 21c-1 1-2 3 0 5h1l2-4c0-2-2-3-3-1zm-23 10l-1 2 1 1 1 1 1-3c1-1-1-2-2-1zm54-1c0-2-2-1-3 0v5c0 3 4 2 4-1l-1-4zm-60 28c-2-2-3-3-5-2s-2 3-1 3l3 1c2 2 4 0 3-2zm23-4c-1 2-2 4-1 5h1l2-3c1-1-1-3-2-2zm63 16c-1-2-4-2-6-2s-3 3 0 4l5-1 1-1zm8-21c-1-1-2 0-2 1 1 2-1 4 1 5h2c2-1 1-5-1-6zm-109-5c-2 0-3 3-2 5h2l1-4-1-1zm48-54c-2 0-3 3-4 4l2 1c2-1 3-2 3-4l-1-1z" class="st27"/>
    </g>
    <g>
      <path d="M567 785s145-78 156-87c11-8-137-55-151-55l-5 142z" class="st24"/>
      <path d="M572 774c-4-13 14-12 13-22-1-8-6-15-7-23 0-6 1-9 4-14 3-7-1-14-2-22-1-6-4-15-2-21 1-4 5-6 6-10 5-1 9 5 13 8 8 9 18 1 28 3 13 3 21 11 34 10 9-1 25 10 25 20 2-3 10-6 13-2 5 5-10 8-13 9l-22 1c-8 0-9 4-12 10-4 9-8 15-16 19-7 3-16 2-21 8-6 8 0 14-12 14-5-1-9-1-14 1-6 4-9 11-16 14l1-3z" class="st25"/>
      <path d="M688 700c-4-3-8-5-12-5h-1v-1h-5c-2 0-3 3-2 5 4 3 7 5 11 4l7 2c3 0 4-4 2-5zm-53-17h-3c-2 1-2 4 0 5a63 63 0 0 0 7 4c5 3 11 5 14 0 4-9-12-11-18-9zm-16 35l-3-1-2-1h-1v1c-1 0-2 1-1 2 1 2 4 1 6 1 1 0 2-1 1-2zm-1-25c-4-3-8-5-13-5-3 0-8 0-8 4-1 1 0 1 1 2h1l1 2c5 2 12 4 17 1 2 0 3-3 1-4zm6 47l-9 1h-1c-3 1-7 2-9 4-2 1-2 3 0 4 7 3 18 2 22-5 0-2-1-4-3-4zm-34-12c-2-1-7-3-8 1-1 1 1 3 2 3l1-1v1l4 2 3-2v-2l-2-2zm-19 33c-5-1-3 13-2 15 0 1 3 2 3 0l1-8c0-2 1-7-2-7zm21-13l-1-2-1-1-3 1c0-1 0 0 0 0l-1 2c0 2 1 2 3 3l2-2 1-1zm-1-76v-1l-2-1c-2-2-8-5-9-1v3h4l4 3 3-2v-1zm57 56c0-1-1-2-2-1h-1c-4-8-20-7-17 4 1 5 8 5 12 4l7-2c2-1 2-3 1-5z" class="st24"/>
      <path d="M573 658h-2l-1 26-3 34c-3 22 1 43-1 65-1 2 3 2 3 0 4-21-1-43 1-64 2-10 4-19 4-29s1-22-1-32z" class="st29"/>
      <path d="M606 763l-19 11-10 5c-3 1-7 1-9 4v1c6 2 14-3 18-5 7-4 17-8 21-15l-1-1zm22-12c-3 0-5 3-8 5l-11 6 12-5 8-5c1-1 0-1-1-1z" class="st29"/>
      <path d="M715 702c-9 4-16 10-26 14-9 3-17 8-26 13l-58 35 1 1c19-9 39-19 57-30l28-17c8-5 17-8 25-14 2-1 0-3-1-2zm-104-40c-4-4-11-7-17-6-1 1-2 4 0 5 4 3 9 5 14 6 2 0 3 0 3-2 1 0 2-2 0-3zm-3 29v-1h-2c-1-1-2 1-2 2l1 1c1 3 5 0 3-2zm-28 15c0-2-1-3-3-3-1-1-4-1-4 1l-1 7v7c0 4 5 3 5 0v-3c3-2 4-5 3-9zm57 21h-3l-4 1v2l3 1h6c2-2 0-5-2-4zm10-40a23 23 0 0 0-4-2l-7-2c-2 0-3 2-2 4l1 2h1c3 4 7 4 11 2v-4zm-34 57h-3l-3 1v2c2 2 6 2 8 1 1-1 0-4-2-4zm68-45c-1-2-3-1-5-1-2-1-2 1-1 2l5 2c1 0 3-2 1-3zm21-10l-4-4c-4-2-10-3-14-1l-2 2v2l1 1 5 4c3 2 8 4 11 2 2-1 3-3 3-6zm-7 2l-5-1h-1l1-1h3l3 2h-1zm-35 28c-2 1-2 3 0 4h3l2 1 2-2c1-4-5-4-7-3z" class="st29"/>
      <path d="M690 688v3c2 1 6 3 7-1 1-3-5-3-7-2z" class="st29"/>
      <path d="M638 667c-1 0-2 2-1 3s5 4 7 1c1-2-4-3-6-4zm-33-8c-2-2-4-2-6-1v3l3 1c2 2 5-1 3-3zm3 32c-2-1-4 1-2 2l3 1 1-1-2-2zm-25-22v3c2 1 4 1 5-1 0-2-3-2-5-2zm44 21l-4-2c-2-1-3 2-2 3l5 2c2 1 3-2 1-3zm9 40l-5-1v3c2 0 4 1 5-1v-1zm45-31l-6-1c-1 0-2 3 0 3l5 2c2 0 3-3 1-4zm-34-13l-3 1v3h3c3 0 2-4 0-4zm-70 58h-4c-2 0-2 2-1 3 2 0 5 0 6-2l-1-1zm12-15l-2-1v3l2-1v-1zm25 15c-1 0-2 2 0 2h5l1-1c0-3-4-2-6-1zm81-55l-4-1c-2 0-2 3-1 3l5-1v-1zm-30 30h-4v2l4-1v-1zm-72 43l-5 2v3c3 0 6-1 7-3l-2-2z" class="st27"/>
    </g>
  </g>
</svg>
