<svg version="1" id="Layer_1" xmlns="http://www.w3.org/2000/svg" xmlns:xlink="http://www.w3.org/1999/xlink" viewBox="0 0 1000 1000">
  <style>
    .st5{fill:#fffdca}.st7{fill:#fff}.st8{fill:#c5c264}.st10{fill:#e4f7f8}.st16{fill:#00ab1e}.st17{fill:#cae3e5}.st18{fill:#00f86d}.st19{fill:#005300}.st20{fill:#007110}.st21{fill:#00d849}.st22{fill:#3bff99}.st23{fill:#e0eeef}.st24{fill:#ffdc61}.st25{fill:#ffe69c}.st26{fill:#ffc63e}.st27{fill:#dda21e}.st28{fill:#008e00}.st29{fill:#f9bc3c}.st30{fill:#ffea8f}
  </style>
  <path d="M973 647v-1c0-78-213-141-475-141S23 568 23 646v19c0 1 0 0 0 0v11c0 78 213 141 475 141s475-61 475-140v-1-1-1-1-1-1-1-1-1-1-1-1-1-1-1-1-1-1-1-1-1-1-1-1-1-1-1-1-2z" fill="#a4a4a4"/>
  <ellipse cx="498" cy="646" rx="475" ry="152" fill="#eaeaea"/>
  <ellipse cx="388" cy="643" rx="356" ry="114" fill="#f6f6f6"/>
  <path d="M183 560s-92 50-117 84l52-3s27 32 115 47c0 0 94 101 147 96l6-39 29-3s101 51 129 48l14-12 9 12s106-40 129-64c0 0 6 19 13 19s126-42 136-56c9-14-32-55-32-55s94-21 107-30c12-9-75-53-149-71-75-17-463-51-588 27z" fill="#d1d1d1"/>
  <g>
    <path d="M448 212c-20-40-85-30-85-30l3 7c5-2 13-3 22-3 17 1 46 9 55 31 10 20-1 47-37 65l2 6c15-6 61-37 40-76z" fill="#42893a"/>
    <path class="st5" d="M382 226l8 17c14-17-1-17-8-17z"/>
    <path d="M443 217c-9-22-38-30-55-31l-22 2 16 38c7-1 22 0 8 17l15 38c37-17 48-44 38-64z" fill="#e2e28a"/>
    <path class="st5" d="M381 223s6 1 10-5c3-5 2-22-2-25s-19 0-19 0l11 30zM398 226c-4-3-3-30 2-32 4-2 20 5 23 10s-21 25-25 22zM402 235c-2-3 25-27 31-21s9 24 0 34c-10 11-31-13-31-13z"/>
    <path class="st5" d="M393 247s4-7 7-6c2 1 23 8 19 17-1 5-17 16-17 16l-9-27z"/>
    <path class="st7" d="M375 200h-1l2 7h1l-2-7zM380 196h-2c0 6 1 12 4 17 1 1 2 0 2-1l-4-16zM389 200h-3l1 6h2v-6zM401 201c-3 5-4 13-3 19h2l1-8 2-10c1-1-1-2-2-1zM405 207l-2 4c0 2 2 3 2 2l2-5-2-1zM412 207l-4 5c-1 1 0 3 1 2l4-6c1-1 0-1-1-1zM424 218c-8 1-15 9-19 14-1 2 1 4 2 3l8-8c3-3 7-4 10-6 1-1 1-3-1-3z"/>
    <path class="st7" d="M424 225c-6 1-11 4-14 8-1 1 1 3 2 2 4-4 8-5 12-8v-2zM419 236l-6 1c-1 0-1 2 1 2l5-2v-1zM413 256l-6-6-7-7c-1 0-2 1-1 2l6 6 7 7c1 1 2 0 1-2zM397 247l-1 1 4 10 2-1-5-10zM392 231l-4-1v2l3 2h2c1-1-1-3-1-3z"/>
    <path class="st8" d="M402 194zM400 194v1c4 2 9 2 14 3 3 1 5 3 6 6 2 3 0 5 0 8h1c10-10-14-20-21-18zM393 196c-6-7-15-7-23-4v1c8-2 18-4 22 5 2 8-1 14-2 21 0 1 0 2 1 1 4-5 6-18 2-24zM434 216c-4-4-10-4-14 0l1 1c5-2 9-4 13 2 3 4 4 9 4 14s-2 11-6 15c-9 7-19-3-27-7v1c6 7 18 14 27 9 6-4 8-10 8-17 1-7-1-13-6-18z"/>
    <path class="st8" d="M411 247l-1 1c3 2 7 3 9 6s0 6-2 9c-4 4-10 7-15 10-1 1 0 2 1 2 7-3 15-8 18-14 2-7-3-13-10-14zM397 229h-1c-2 1-2 4-2 6-1 1-1 6-3 7-2 0-1 2 0 2 3 0 4-4 5-6 0-2 2-7 1-9zM416 192v1c8 5 16 11 22 19 9 12 6 22 2 35 0 2 2 3 2 1 12-24-3-46-26-56z"/>
    <path class="st8" d="M429 214h-4v1l4-1c1 0 1 0 0 0z"/>
    <path class="st8" d="M430 214c0-1-1 0 0 0l3 3 1 2 1-1c0-2-3-3-5-4z"/>
    <path class="st8" d="M431 214h-6 5l4 3h1c-1-1-2-3-4-3z"/>
    <path d="M483 308c-67 2-250 9-269 73-18 64 138 109 275 101s273-33 268-97c-6-65-220-79-274-77z" fill="#87a9a7"/>
    <g>
      <path class="st10" d="M483 308c139 0 252 34 257 77l38 1c-12-51-139-91-295-91-153 0-279 39-294 88l38 1c9-43 120-76 256-76z"/>
      <path class="st7" d="M218 383c8-43 124-78 265-78 143 0 260 35 266 80h17c-12-49-134-86-283-86-147 0-269 37-283 85v1h17l1-2z"/>
    </g>
    <g>
      <defs>
        <path id="SVGID_1_" d="M188 393s13 272 271 280 322-217 320-280c0 0-122 110-296 89-173-21-253-31-295-89z"/>
      </defs>
      <use xlink:href="#SVGID_1_" overflow="visible" fill="#b6dbda"/>
      <clipPath id="SVGID_2_">
        <use xlink:href="#SVGID_1_" overflow="visible"/>
      </clipPath>
      <path d="M214 427s199 99 435 47c0 0-6 185-153 178-191-10-264-101-282-225z" clip-path="url(#SVGID_2_)" fill="#d1eded"/>
      <path d="M214 421s79 56 299 62c0 0-25 160-113 151-130-14-167-89-186-213z" clip-path="url(#SVGID_2_)" fill="#e2f1f1"/>
      <path d="M229 442s89 31 139 36c0 0 12 110-60 108s-79-144-79-144z" clip-path="url(#SVGID_2_)" fill="#fff"/>
      <g>
        <path d="M195 439l10 10c7 6 18 14 33 22 16 8 35 16 58 23l18 4 10 3 9 2 21 3 21 3c7 2 15 2 23 3l23 2 24 1h78l54-4c37-4 74-11 111-24 18-6 36-15 52-26 8-5 16-11 22-19a76 76 0 0 0 12-18l2-7v4c-1 3-2 7-5 11-5 9-15 21-30 33-16 11-36 22-61 31s-53 16-84 20c-31 5-64 8-99 8h-39l-14-1-27-1-27-3c-36-4-72-12-106-24a271 271 0 0 1-71-38l-5-4-4-4-9-10z" fill="#5cbade"/>
      </g>
    </g>
    <g>
      <defs>
        <path id="SVGID_3_" d="M214 414s-2-12 6-19 16-5 16-5 3-14 21-13c0 0 5-2 7-16s19-5 23-14 6-18 18-23 25-6 32-20 4-25 13-35 26 0 26 0 1-11 13-13 22 3 26 6c0 0 3-17 18-25s23 0 23 0 4-10 13-7c9 2 13 8 16 7 4-2 8-19 17-24 8-5 17 1 20 0 4-2 14-10 28-8 13 3 25 24 23 42 0 0 15-5 27 2s15 24 18 25c4 2 26 12 28 35 0 0 12-3 15 7 0 1 21 5 28 21 7 17 15 23 20 24s22 6 21 19 11 15 9 24c-3 9-31 75-221 78-188 3-258-30-304-68z"/>
      </defs>
      <use xlink:href="#SVGID_3_" overflow="visible" fill="#00d849"/>
      <clipPath id="SVGID_4_">
        <use xlink:href="#SVGID_3_" overflow="visible"/>
      </clipPath>
      <path d="M549 204c24 7 29 43 14 60 22 12 33 32 4 42 4 6 6 16-3 19 4 8 7 20 5 29-3 11-6 8-16 16 12 30-6 31-30 33-4 26-16 27-39 20 16 6 25 25 3 30-15 3-34-7-47-11-10 17-47 7-61-1-18 15-46 12-66 5-15-6-33-2-46-12 100 72 230 56 345 37 41-7 116-13 144-51 29-40-35-89-61-111-44-38-92-70-138-106l-8 1z" clip-path="url(#SVGID_4_)" fill="#00ab1e"/>
      <path class="st16" d="M537 369c-1-6-10-5-9 1 1 8-3 14-11 15-3 1-6 0-9-1s-4-2-6-1l-2 2c1 8 16 9 21 8 11-3 18-13 16-24zM484 340a89 89 0 0 1-83 27c-2 0-3 3-1 4 11 9 29 3 41 0 18-3 39-11 50-26 3-4-3-10-7-5zM392 409c-28 14-63 9-91-2-2-1-4 2-2 3 26 19 68 19 94 0 0 0 0-2-1-1zM385 432c-6 5-12 7-20 5-2 0-2 2-1 3 8 5 19 4 26-2 2-3-2-8-5-6zM501 267c-2-1-3 1-3 2 1 3 4 8 3 11s-5 4-8 5c-7 1-12-5-18-7-2 0-3 1-2 2 3 12 18 16 28 12 11-5 11-20 0-25zM583 267c-7-5-19-6-29-7-9-1-21-2-29 4-1 1 0 4 2 4 9-2 17-3 26-1s18 5 28 6c3 0 5-4 2-6zM568 239c-1-2-4-3-6-1l-2 6c-2 2-5 3-8 3-6 1-11-4-17-5l-2 1c-1 10 14 14 22 13 7-1 19-9 13-17zM356 324c-3-3-7 1-5 4 4 5 4 9-1 13-3 2-10 2-11 6l1 2c3 1 6-1 9-2l8-5c5-5 5-14-1-18z"/>
      <g>
        <path class="st17" d="M490 339l-10-8c0 1-33 48-86 36 1 0 50 23 96-28zM299 407l4-11s38 34 89 11c0 0-41 29-93 0zM523 267s42-10 56 0c0 0-20-16-56-8v8z"/>
      </g>
      <g>
        <path class="st18" d="M423 309c-6-6-16-9-24-6-4 0-8 2-11 6-5 9-1 21 5 27 8 8 22 11 31 5 12-8 7-23-1-32z"/>
        <path class="st18" d="M388 308c0-4-3-7-7-7h-6v-1c-5-1-9 2-12 6v1l-1 5 2 6 5 3v1l3 1h4c2 0 4-1 5-3l3-1a8 8 0 0 0 4-8v-3zM357 269l-5 4-3 4c-3 5-2 11 1 15 2 5 7 6 12 6 8 0 16-8 15-17s-11-14-20-12zM421 274c-2-9-10-14-19-14-8-4-17-3-19 7-1 4 1 8 3 12 0 5 3 8 7 9l5 4c11 7 25-5 23-18zM328 338c-1-7-7-12-14-13-4 0-7 3-9 5-4 2-6 6-6 10l1 4v5c2 6 9 8 14 6 4-1 6-3 8-6 4-2 6-6 6-11z"/>
        <path class="st18" d="M334 322c-1-1-1-2-3-2-3-1-8 2-8 6v6c1 4 5 8 10 6l3-2c3-1 5-3 4-7 0-4-2-7-6-7zM524 218c-3-3-9-3-13-2-5-1-9 2-13 6l-3 4-1 4-2 8c-1 13 10 19 22 15 8-3 13-10 12-18l4-6c1-5-2-9-6-11zM491 248l-1-1c-1-3-4-4-7-4h-8c-3 2-4 3-5 6-1 4 1 7 4 9l5 2h4c7 2 12-6 8-12zM452 338c-1-3-4-6-7-8l-10-5c-2-1-6 2-4 5l3 5 3 4c3 3 7 5 11 5 3 0 4-3 4-6zM292 360v-1c-4-8-15-8-20-1v1l-4 4c-2 5 0 10 4 15l3 4 1 1c3 3 8 4 12 3l1-1c3-1 7-2 10-5 6-7 0-16-7-20z"/>
        <path class="st18" d="M310 358h-1l-1-2c-4-4-9-2-12 1-2 2-3 6-2 9 1 5 8 8 12 9s8-2 9-6c0-4-1-9-5-11zM559 288c0-6-5-11-11-14-7-3-17-5-23 1-4 3-7 8-7 14l-1 2c-1 6 2 11 6 15l7 5c4 2 8 2 13 1l5-1c7-1 12-7 12-14 1-3 0-6-1-9zM459 295c1-4 0-8-2-10-3-4-7-6-12-6-6 0-11 4-14 7l-1 2c-2 2-3 6-1 9 0 5 4 10 8 13 6 3 15 0 20-4 3-3 3-8 2-11zM359 391c0-3-2-5-4-6s-5-2-8-1c-2 0-5 1-6 4-2 5 0 9 3 12s8 4 12 2c2-2 3-5 3-8v-3zM397 344c-2-6-9-11-16-7l-6 5c-2 2-4 4-4 7l-1 3c-2 6 2 14 6 18 5 5 13 5 19 4 6-2 12-6 13-13 2-8-5-13-11-17zM378 333c1-5-3-9-8-9-5 1-7 5-7 10 1 5 7 8 12 5l2-4 1-2zM504 303c-1-3-3-6-7-7a6 6 0 0 0-4 11c1 2 3 3 5 3 3 0 6-3 6-7z"/>
        <path class="st18" d="M464 252c-5-20-31-21-41-4-4 8-1 19 5 25 4 4 9 6 14 7 6 2 14 0 18-5 5-6 6-15 4-23zM469 281l-1-1c-3-3-7-1-8 2-2 4 1 7 4 7h3c3-1 4-6 2-8zM472 313c-4-1-7 0-10 2-2 1-1 5 2 5l5 1 6 2c1 0 3-1 3-3 1-4-3-6-6-7zM460 316c-2-3-7-5-11-3-3 2-2 7 2 7l4 1h4l1-1v-4zM354 302c-3-2-7-2-10 1-3 2-1 5 2 5l2 1s1 0 0 0l4 3 4-1c1-4 1-7-2-9zM425 283c-1-1-3 1-4 2l-1 5c0 4 5 3 5 0 0-2 4-7 0-7z"/>
      </g>
      <g>
        <path class="st19" d="M496 370c0-5 33-8 37-5 3 3-6 19-7 22s-21 3-25 0c-3-2-5-12-5-17zM347 317c2-2 14 15 13 18-1 2-17 12-20 12-3-1 3-27 7-30zM471 278c0-4 16-20 19-20 4 1 21 14 17 20-3 6-14 11-18 10-3 0-18-10-18-10zM533 221c0-2 32 12 34 14s-7 16-10 17c-4 2-20-4-24-9-3-5 1-16 0-22zM611 424c-2-5 16-21 20-22s18 15 20 18c1 3-22 15-26 14s-14-10-14-10zM711 402c-5 2-8 2-11 0-3-3-3-11 0-13s8-1 11 0l2 1s3 10-2 12z"/>
        <g>
          <path class="st20" d="M495 263l-2 1-2-2c0-1-1-3-3-1-5 3-10 8-12 14-1 1 1 2 2 2l3-1 6-6c-1 2 2 3 4 2l6-5c2-2 1-4-2-4zM547 230l-6-4c-2-1-3 0-4 1l-2 2v3 9c1 4 5 2 5-1v-7l3 1c3 3 6-2 4-4zM511 368c0-2-3-3-4-1v-1l-2 1-4 2c-4 4-1 9 1 13 2 2 7 0 5-3l-2-5 1-1c3-1 7-2 5-5zM507 366c1 0 0 0 0 0zM353 329l-2-4-3-5c-1-1-2 0-2 1-1 3 1 9 3 11s5 0 4-3z"/>
          <path class="st20" d="M346 321c-2 2-3 5-3 7v7h3c2-1 1-4 1-6l1-7-2-1zM630 407l-10 5c-3 3-6 6-6 10 1 2 3 3 4 1l6-6 8-5c1-2 0-5-2-5z"/>
          <path class="st20" d="M624 425l-3-2-2-2c-1-1-2-1-3 1-1 3 3 7 6 7 2 0 3-3 2-4zM708 391v-1c-3-3-6 0-7 2-2 3-2 8 1 10l4-2-1-5 3-4z"/>
        </g>
      </g>
      <g>
        <path class="st21" d="M602 336v-1l-2-4c-4-5-11-8-17-7l-3 1c-5 2-7 7-8 12 0 5 2 8 6 11 3 2 8 3 13 2h1c4 2 9 0 10-4v-3-7zM582 395c-2-2-4-3-7-3-2 0-4 2-4 4-1 1 0 3 1 3v1c1 1 2 3 4 3l6-2c2-1 3-5 0-6zM595 251c-2-2-5-2-8-3-4-1-9 0-12 3-3-2-6-1-8 2-3 4 1 9 4 12l6 3 1 2c6 4 14 5 20 0 6-6 4-15-3-19zM536 410c-3-2-6-1-9 1l-1 1v7l4 2c2 1 6 0 8-3 1-2 0-6-2-8z"/>
        <path class="st21" d="M579 398h-2-1v-1h1v-2l-2-2-2 1c-2 2-3 5-1 8 2 2 7 3 8-1 1-1 0-2-1-3zM517 454c-1-3-5-10-9-10v1c-2-1-4 1-4 3 1 5 4 9 9 10 3 0 5-2 4-4z"/>
      </g>
      <g>
        <path class="st22" d="M436 241h-1c-3 1-4 4-4 6 1 3 4 4 7 4 2 0 5-1 6-3 3-6-4-10-8-7zM482 249l-1-1v-2c-1-2-3-2-4-2l-5 4 1 3c2 2 4 2 7 2 2 0 3-2 2-4zM512 221c-10-5-22 18-14 20l2-1 1-4 2-5 4-4 5-3v-3zM394 262c-6 0-10 11-3 13l1-1 1 1c4 1 7-2 7-5 1-4-2-7-6-8zM359 274l-5 4-3 6c1 2 2 3 4 2l3-5c1-1 3-3 3-5l-2-2zM451 282c-3-4-11-2-15 0-3 2-9 7-6 11h2l7-6 11-1c2 0 3-3 1-4zM469 279h-6c-2 1-2 4-1 5 0 2 2 2 3 1 0-2 1-2 2-3 1 0 3 0 3-2l-1-1zM547 279c-3-6-14-3-19-1-6 2-14 9-11 16h2c3-5 6-9 12-11l7-2 8 1c1-1 2-2 1-3zM386 340c-6-2-12 3-15 7-3 6-2 12 3 16 1 1 3 0 2-2-2-3-2-7-1-10 3-5 7-5 11-6l2-2v-1l-2-2zM409 305c-3-6-13-2-17 0-5 3-9 10-6 16 1 1 3 1 3-1l2-5c0-2 2-4 4-5l7-2c2 0 4 1 6-1l1-2zM379 301l-5-1-5 4c-3 2-5 8-2 11l3-1 2-7 3-2 3-1c1 0 2-2 1-3zM291 358c-4-5-12-3-17-1-4 3-9 12-4 16l3-1v-5l4-5c4-3 8-2 12-2 2 1 3-1 2-2zM319 325c-11-5-21 10-17 19 0 2 2 1 2 0 0-6 3-13 9-15h7c2-1 1-3-1-4zM332 320l-7 2c-2 2-3 4-2 6 0 2 2 2 2 1 1-4 5-4 7-6 2 0 2-3 0-3zM352 300c-3-1-11 2-10 7l1 1 5-2 5-1c2-1 2-4-1-5z"/>
      </g>
      <path class="st23" d="M324 411l-10-5c-4-1-6-4-9-7-1-1-3 0-3 2 1 4 5 6 8 8 4 2 10 5 14 4v-2zM476 350c-10 3-19 10-29 14-14 6-27 8-41 5l-1 1c13 3 27 2 40-1 10-3 25-9 32-17 1-1 0-3-1-2zM543 260c-3-2-6-3-10-2-3 0-7 0-9 3l1 2c3 1 6-1 9-1l9-1v-1z"/>
      <g>
        <path class="st24" d="M595 319s56-101 61-106c5-6 103 86 108 94 6 8-113 50-117 53 0 0-10-10-23-15-12-5-8-24-29-26z"/>
        <path class="st25" d="M743 307c-10-11-21-20-32-30-12-11-20-26-32-36-31-25-39 18-51 39l-22 34c22 0 23 32 48 31 11-1 16-12 24-17 11-7 21-2 32-6 7-2 26-6 29-13l4-2z"/>
        <path class="st24" d="M696 321l-1-1 1-2c0-3-3-4-5-4l-7 5c-3 2-4 4-5 7v6h2l1-2c3 0 7 0 11-2 2-2 4-5 3-7zm-11 4l7-2-3 2h-4zM641 279c0-2-1-2-2-3h-4c-6 1-14 9-11 15l2 5c2 2 4 0 5-1 6-2 11-11 10-16zM642 257v-1c-1-1-3-1-4 1v1l-2 3c-1 2 2 4 4 3 1-2 3-5 2-7zM695 250c0-2-2-3-3-3l-5 2-5 2c-4 3-7 7-8 11-2 2-4 6-1 9l1 1c1 2 3 3 6 2 5 0 11-7 12-13l3-11zM687 279l-2-1c-3 0-5 2-6 4l-1 1c-1 3 1 5 3 5 5 0 8-5 6-9zM667 319l-2-1-3-1c-7 2-17 8-15 16v1l1 1c2 4 7 2 10 0l7-8c2-2 4-5 2-8z"/>
        <path class="st24" d="M692 320c-1-2-4 0-6 2l-2 6c1 2 2 2 3 2l4-2v-4c2 0 3-2 1-4z"/>
        <path class="st24" d="M693 316c-3-2-8 0-10 3-3 2-6 7-4 11 1 1 3 0 2-1 0-2 4-5 5-6l4-2v2l-4 5v4c1 1 3 2 4 1 6-3 10-14 3-17z"/>
        <path class="st26" d="M761 308c-20 9-39 19-59 27l-33 12c-8 3-17 5-23 11-1 1 0 2 1 2 9-5 19-8 29-11l34-12 33-15c6-3 15-5 20-10 1-2 0-4-2-4z"/>
        <path class="st26" d="M765 309a826 826 0 0 0-109-96c3 4 7 6 11 9 6 4 10 9 15 14l29 26c19 14 38 29 51 49 1 1 3 0 3-2zM688 256l-1-2-3 1h-1l-4 5-2 3c0 2 2 4 4 4 5-1 10-6 7-11zM750 304v1l-2 1v3l3 1c2-1 3-2 3-4s-2-3-4-2zM634 281c-3 1-5 3-5 6 0 2 2 4 4 2v-1l1-1 2-1c3-2 1-6-2-5zM709 296h-1-1l-4 2-5 5c-1 2 0 4 2 4 3 0 6-1 8-4l3-3c1-2 0-5-2-4zM687 319l-1 1-2 1h-1c0 1 0 2 2 3 2 2 5 0 6-2s-2-4-4-3z"/>
        <path class="st27" d="M704 298l-1 3c0 2 1 2 3 2l2-2c1-2-2-5-4-3zM656 326l-2 3c1 2 2 2 3 1l1-1c2-2 0-5-2-3zM668 297l-3 5c0 1 1 2 3 1l4-4c1-2-2-4-4-2zM683 259c-2 2-2 3-2 5l2 1 3-4c1-2-2-4-3-2zM631 282c-2 1-3 4-1 6h2l2-4c2-2-2-4-3-2zM640 256l-1 4 3 1 1-4c0-1-2-2-3-1zM653 225l-2 4c0 2 2 2 3 1l2-3c2-2-1-3-3-2zM656 273l-2 4c0 1 1 3 2 1l3-3c1-2-1-4-3-2zM607 304l-2 5c0 1 2 2 3 0l2-3c1-2-2-4-3-2zM627 309h-1l-2 1v3c-1 1 1 1 1 1l2-3v-2zM686 281c-1-1-2 1-3 2s1 2 2 1l1-2v-1zM724 279l-3 2c-1 1 0 3 2 2l3-1c2-2 0-5-2-3zM689 320c-2 0-3 1-3 2-1 1 0 2 1 1h2c2 0 1-3 0-3z"/>
      </g>
      <g>
        <path class="st28" d="M246 409l2-1 4-3c3-2 9-4 16-4 6-1 15 1 23 6a26 26 0 0 1 10 25l-1-2-1-5c-2-4-5-9-10-12-5-4-12-6-20-7l-23 3zM393 442l1-2 2-4 3-4 13-5h18l19 3 10-1 9-5 6-3 7-2c4 0 9 2 13 4 7 5 12 12 17 19l-9-9c-3-2-7-6-12-7-5-2-11-2-15 1l-9 6-2 1-3 1-6 1h-12l-11-3c-7-1-15-3-22-2l-9 3-8 8zM310 370l1-1h4l7 2 7 4 1 1 2 1 1-1 3-2c1-1 3-3 5-3l7-1 6 2c4 3 5 7 5 11 0 0 0-2-3-4-2-3-7-5-12-3l-6 4-2 3-1 2-1 1-1-1-4-2-1-1-1-1-8-7-9-4zM389 304v-1c1 0 2-1 2-3 2-2 6-5 12-7 6-1 13 1 20 4a49 49 0 0 1 15 12l1 1 1-1 6-4h4l4 1 5 1h13l11 7-3-1-5-2-5-2-7 2-4 1h-3l-2-1-4-1h-1l-2 1-3 3-1 1-2 2-3 4-3-6-1-1-1-1-1-1-2-3-3-2-12-8c-4-1-9-3-14-2-4 1-9 4-12 7zM521 278l1-1 4-4c4-2 11-5 19-5a38 38 0 0 1 19 6l3 2 1 1 1-1 4-2 9 2c5 3 8 8 8 14l-1-2c0-2-1-3-3-5-1-2-4-3-7-4h-4l-2 1-1 1-1 1-2 2-1 1h-1l-2-2-1-1-1-1a43 43 0 0 0-17-7c-8-1-17 0-25 4zM569 325l2-1 7-4 11-3c5 0 11 1 16 3 3 2 6 3 8 6l6 7 6 8 6 6 4 3 5 3 8 8c2 3 5 7 4 11l-2 6-2 2-2 1 2-2c1-1 3-4 2-7 0-3-3-7-6-10l-6-4-7-4a39 39 0 0 1-14-13l-6-8-6-6c-5-4-11-5-18-5-6-1-12 1-18 3z"/>
        <path class="st28" d="M587 383s1-3 5-6c5-4 12-7 22-6l8 1 3 2 2 1 2 1 3 3 2 1 7 1h9l9 3 7 5c2 3 3 7 2 10v-1-2l-3-5c-2-2-5-3-9-4l-6-1h-6l-3 1h-4a12 12 0 0 1-9-3l-6-4-6-3h-15c-5 0-10 2-14 6z"/>
        <path class="st28" d="M567 390h1l1-3c2-2 4-4 9-5 4-2 10-1 15 3 4 3 7 9 7 14l-1-1-2-2a22 22 0 0 0-17-9l-13 3z"/>
      </g>
    </g>
    <g>
      <path class="st10" d="M740 386v3c0 44-115 80-257 80s-256-36-256-80v-5l-38-1-1 10c0 54 132 98 295 98s296-44 296-98l-1-7h-38z"/>
      <path class="st7" d="M767 385h-18l1 4c0 46-120 87-267 87s-266-41-266-87v-4h-17l-1 8c0 52 127 95 284 95 158 0 285-43 285-95l-1-7v-1z"/>
    </g>
  </g>
  <g>
    <path class="st24" d="M412 743l176-58c12-4-45 93-49 103s-122-41-127-45z"/>
    <path class="st25" d="M530 781c-18-11-39-14-58-21-5-2-26-6-26-13-1-7 20-13 25-14 21-6 39-8 58-17 16-7 49-24 30 6-7 11-19 17-24 29-4 9-2 19-6 27l1 3z"/>
    <path class="st24" d="M546 737v-2c-1-2-2-3-4-2-6 2-12 9-12 15 0 2 3 3 4 2h3l8-8 1-3v-2zM503 749c0-2-2-4-3-4l-6 3c-3 1-5 3-5 5-1 2-1 3 1 4v1l3 2c5-1 8-4 9-9l1-2zM463 734c-5 0-10 2-11 8 0 1 2 3 4 2l1-1 4 1c4-1 5-4 5-7 0-2-1-3-3-3zM486 733c-2 0-4 0-5 2h-1c-1 0-1 0 0 0l-2 1v3c0 1 2 2 3 1 2-1 5-2 6-4 1-1 1-3-1-3zM529 718l-1-1-2-1c-3-1-6 0-9 2 0 1-5 4-5 6l-2 6c0 1 0 3 2 3 5 0 9-2 13-4 3-2 7-7 4-11zM527 774c-2 3-4 6-4 10 0 2 4 3 5 1l2-3v-1l2-4c1-3-3-5-5-3zM548 720l-1 1-2 1-1 1 1 2c3 1 4-1 5-3 1-1-1-3-2-2zM551 708c-2-2-4 1-3 3 0 2 2 2 3 1l1-3-1-1z"/>
    <path class="st29" d="M588 686c-9 24-23 45-34 68-3 7-5 13-9 19l-9 14v1c3 3 16-23 17-25l22-40 10-21c2-5 5-10 5-15l-2-1z"/>
    <path class="st29" d="M537 786c-21 0-40-13-60-19-12-3-23-6-34-11l-30-14v1c18 13 39 22 59 28 12 4 24 6 35 11 10 4 20 7 31 7 2 0 1-3-1-3zM544 738c0-1-1-2-3-1-3 1-6 3-6 7l2 2h2c3 0 5-4 5-8zM547 766c-1-1-2-2-3-1-3 1-4 4-5 7 0 2 3 3 4 0l1-1c2-1 3-2 3-5zM521 721l-2 2c-3 1-1 5 1 4 3-1 4-2 4-5 0-1-2-2-3-1zM499 751v-1-1h-3l-2 2c-1 2 0 4 2 4l3-3v-1zM442 739l-4 2-2-1-3 2-1 3c5 5 10 2 12-3 1-2-1-3-2-3zM460 738c-2-1-4-1-5 1-1 1 1 4 3 3l2-2v-2zM576 699l-2 1c-4 3-7 7-8 12 0 2 3 4 4 2 4-4 7-8 8-14 1-1-1-2-2-1zM535 774c-1-1-2-2-3-1-2 1-4 3-4 6-1 2 3 3 3 0h1c2 0 3-2 3-5z"/>
    <path class="st27" d="M572 703c-3 1-4 4-4 7h4l2-5-2-2zM523 721c-2 0-3 1-4 3-1 1 1 3 2 2l3-3-1-2zM539 740l-2 3c-1 1 0 2 1 2 1-1 3-2 3-4 0-1-1-2-2-1zM547 721l-1-1-2 2c-1 2 3 3 3 1v-2zM502 751l-2-1-1 1-1 2c-1 1 1 3 2 2l2-3v-1zM484 733l-3 2 2 2 3-2c1-1-1-3-2-2zM496 720c-2 0-2 1-3 2 0 1 1 2 2 1l2-1c1-1 0-3-1-2zM461 737l-4 1c-1 1 0 3 2 2l3-1-1-2zM521 766l-2 3c-1 2 2 3 3 1l1-3-2-1zM543 755l-2 3c-1 2 2 4 3 2 1-1 2-3 1-4 0-1-1-2-2-1zM529 778c-2 2 0 4 1 2v-1l-1-1zM441 742l-3 1c-1 1 0 3 2 2l2-1c1-1 0-2-1-2zM559 731l-1 1c-2 2 1 4 2 2l2-2c0-2-3-3-3-1z"/>
    <g>
      <path class="st24" d="M589 714l141-122c9-8-6 104-6 114 0 11-128 10-135 8z"/>
      <path class="st25" d="M713 704c-20-3-42 2-62 3-5 0-26 4-29-2-3-7 14-20 18-23 17-13 33-22 47-38 12-12 36-41 30-6-2 12-11 23-11 36 0 9 6 18 5 27l2 3z"/>
      <path class="st24" d="M711 658l-1-2c-1-2-3-3-5-1-5 4-8 13-5 19 1 2 4 1 5 0l3-1 3-11v-3-1zM675 684c0-1-2-3-4-2l-4 5c-2 2-3 5-3 7s1 3 3 3v1c1 1 3 2 4 1 4-3 6-7 5-12l-1-3zM633 686c-4 2-8 6-7 12 0 1 3 2 4 1l1-2 4-1c3-2 4-6 2-9l-4-1zM654 677c-2 0-3 1-4 3l-1 1s-1 0 0 0l-1 1 1 3h3c2-2 4-4 4-6 1-1 0-3-2-2zM688 646h-1l-3-1c-3 1-5 3-7 6 0 0-3 5-2 8v5c0 1 2 3 3 2 4-1 8-5 10-9 2-2 4-8 0-11zM708 699c-1 3-2 6 0 10 1 2 4 2 5 0v-4-6c0-3-4-3-5 0zM706 641l-1 1-1 1v2l2 1c2 0 2-2 3-4 0-1-2-3-3-1zM704 628c-2 0-3 3-1 5l2-1v-3l-1-1z"/>
      <path class="st29" d="M730 594c1 25-4 50-5 75l-1 22-3 16v1c4 2 6-27 7-30l4-45 1-24c0-5 1-10-1-15h-2z"/>
      <path class="st29" d="M722 705c-20 9-43 4-63 7l-36 3-32-2-1 1c21 5 45 5 66 3l36-3c11-1 21-1 31-6 2 0 1-4-1-3zM710 659c-1-2-3-2-4-1-3 3-4 6-2 10l2 1 1-1c4-1 4-6 3-9zM723 684c-1-1-3-2-4 0-2 2-2 5-1 8 1 2 4 1 4-1v-2c2-1 2-3 1-5zM682 652c-1 1-2 2-1 3-2 2 1 5 2 3 2-2 3-3 2-6h-3zM673 688v-1l-1-1-3 1-1 3c0 2 2 4 3 3 2-1 2-2 2-4v-1zM616 699l-3 3-2 1-2 2v3c6 3 9-2 10-7 0-2-2-3-3-2zM632 691c-2 0-4 1-4 3-1 2 2 3 3 1l1-2v-2zM724 611l-2 1c-2 4-4 10-2 14 1 2 4 3 4 0 2-4 3-10 2-15 0-2-2-2-2 0zM715 696c-1-1-3-2-4 0l-1 7c0 2 4 1 4-1 2-2 2-4 1-6z"/>
      <path class="st27" d="M722 616c-3 2-3 5-1 7 1 2 3 1 3-1v-5c0-1-1-2-2-1zM683 652l-2 3c-1 2 2 3 2 1l2-3c0-1-1-2-2-1zM706 662l-1 4c-1 1 1 2 2 1 0-1 2-3 1-5h-2zM706 642h-2l-1 2c0 2 4 2 4-1l-1-1zM675 687h-1l-1 1v2c-1 2 2 3 3 1v-3l-1-1zM652 677l-1 3c-1 1 1 2 2 2l2-3c0-2-2-3-3-2zM658 660l-2 4h2l2-2c1-1-1-3-2-2zM632 690l-3 3c0 1 1 2 3 1 1-1 2-1 2-3l-2-1zM699 693l-1 4c0 2 4 2 4 0v-4h-3zM715 674l-1 5c0 2 4 2 4 0l-1-5h-2zM711 702c-2 2 2 3 2 1v-1h-2zM616 702l-2 2c-1 2 1 3 2 2l1-2c1-1 0-2-1-2zM720 646v2c-1 2 2 3 3 1v-3c0-2-3-2-3 0z"/>
    </g>
    <g>
      <path class="st24" d="M127 587s79-115 85-118c5-4 50 94 54 100s-127 19-139 18z"/>
      <path class="st25" d="M211 477c-15 22-31 42-45 64-5 6-13 18-5 25 10 7 30 1 40-1 14-2 29-4 44-4 0-9-4-13-9-20s-8-14-10-22-4-14-8-20l-5-8-2-9v-5z"/>
      <path class="st24" d="M190 559c-7-1-16 2-17 9l2 3 1-1v2l3 2c5-1 8-3 10-6l2-6c1-1 0-3-1-3zM168 547l-1 1-1 1c-1 2 1 4 3 3l1-2c0-1 0-3-2-3zM206 527l1-4-3-2c-4 0-10 1-11 6l-1 2-1 6c0 1 1 2 3 2l3-1h1l6-2 2-7zM238 533l-2-1c-1-2-4-2-6-1-4 2-5 6-4 10 0 3 4 5 7 4 4-1 11-10 5-12zM203 500h-1v-2c0-1-2-3-3-2l-8 5-6 6 1 3 3 2h3l5-2 5-2c3-1 4-5 1-8zM212 502h-2v1c-1 1 0 2 1 2l2-1-1-2zM181 522h-3l-2 3c-2 1 0 4 2 3l2-2 1-1v-1-2zM187 528c-1-1-2 0-3 1 0 2 3 3 3 1v-2zM236 558h-1c-3-4-11-4-12 2h-1c-2 1-1 5 1 5h2l2 1c3 1 8-2 11-4 2-1 0-4-2-4zM216 550l-3 2v-1-2c-1-1-2 0-3 1-2 1-2 2-2 4l2 2c3-1 5-2 7-5 1-1 0-2-1-1z"/>
      <path class="st29" d="M269 568a1612 1612 0 0 0-55-99c3 17 15 31 22 47 9 19 16 38 27 55 2 3 7 1 6-3zM236 575l-51 3c-20 1-38 8-58 7l-1 1c14 5 30 1 45-1l66-8c1 0 1-2-1-2zM249 574h-6v1l6-1c1 0 0 0 0 0zM255 573l-1-1-2 1v1c1 0 4 0 3-1z"/>
      <path class="st29" d="M264 569c-17 3-35 4-52 8l1 2c17 0 35 0 52-5 2-1 1-6-1-5zM199 527l-2-2c-1 0-3 0-3 2l-1 2c0 1 1 3 3 3l3-2v-3zM148 567l-2-1c-2 1-5 3-6 6l1 3c1 2 3 2 4 2 3-2 6-3 6-7 1-2-1-3-3-3zM192 567l-7 1c-2 1-2 6 1 5h7c3-2 2-6-1-6zM176 577c-6-6-14-3-19 0-3 2-2 4-1 5l2 2c5 2 12 1 16-1 3-1 4-4 2-6z"/>
      <path class="st29" d="M221 576c-4-4-10-3-15-3-6 0-13 2-18 5-1 1-1 3 1 2l16-1c5-1 11 1 15-1l1-2zM233 561c-1-2-5 0-6 2l2 2c1-1 6-1 4-4z"/>
      <path class="st27" d="M200 497c-2 1-4 3-2 5h2l1-1c3 0 2-4-1-4zM177 542c-2 0-2 1-3 2-2 2 1 4 2 3l2-3c1-1 0-2-1-2zM186 526l-1 1c-2 1 1 3 2 1 1-1 0-2-1-2zM209 544l-3 1c-2 1 0 4 2 2l2-2c1-1 0-2-1-1zM160 553c-3 0-5 2-6 4-2 3 3 5 5 2l2-4c1-1 0-2-1-2zM221 523h-1c-2 0-2 3 0 3l2-2-1-1zM190 561h-5c-1 2 1 4 2 3h2l1-1v-2zM229 553c-2-1-4 0-5 1s-1 3 1 3l3-1 2-1v-1l-1-1zM163 574h-2l1 3 2-2-1-1zM240 537l-2 1c-1 0-2 1 0 2l2-2v-1zM208 575l-5 1v2c2 1 5 2 6-2l-1-1z"/>
    </g>
    <g>
      <path class="st24" d="M490 586c0-3 126-2 131 0s-70 149-76 157-57-152-55-157z"/>
      <path class="st25" d="M580 602c-15-11-27-13-44-6-9 3-31 8-30 19 0 6 8 12 10 17 2 8-1 15-1 22 1 14 10 30 14 43 9 28 22-4 22-19 26 3 18-16 25-32 4-7 32-36 11-40l-7-4z"/>
      <path class="st24" d="M578 635c0-3-3-4-4-3l-1 1h-1c-6 4-9 11-5 17v2c1 2 4 3 5 1 2-1 3-3 4-6 2-3 3-8 2-12zM556 673c-1-2-3-2-4 0-3 2-3 6-2 9 1 2 4 2 5 0l1-4v-1-4zM532 662v-2c-1-3-2-6-5-6-4-1-7 4-7 7 0 4 1 9 4 12 2 3 7 2 9-1s1-7-1-10zM519 629c-2 1-3 3-2 4v5l2 1h2l2-2c1-3 0-8-4-8zM540 614c2-4 2-9 1-14-1-2-3-3-5-2l-2 3c-4 5-3 12-2 18 0 2 4 3 5 1v-1l1-1 2-4zM573 598c-1-1-3-2-4 1l1 3c-1 1 0 2 1 2v1l3-2-1-5z"/>
      <path class="st24" d="M556 663c-1-1-3-2-5-1-3 5-4 11-2 16l1 1v1l2 1h2l1-2v-1c3-5 3-10 1-15zM546 684c-1-2-5-1-5 1v2l-1 2 2 3h1l2-2 1-6z"/>
      <path class="st29" d="M619 587c-24 53-51 104-77 156-1 2 3 4 4 1 13-25 25-52 39-77 13-26 28-51 36-79 1-2-2-3-2-1z"/>
      <path class="st29" d="M618 584c-13-3-28-1-42-1-17 1-34 0-51 2v1c30 4 62-3 92 2 4 1 5-4 1-4zM544 742c-3-11-9-21-13-31-6-13-10-26-14-40l-25-77c0-2-2-1-2 0 0 12 5 25 9 36l13 39c8 26 17 51 29 74 1 2 4 1 3-1zM574 643c0-1-1-2-2-1-1 0-3 1-2 2l1 1h2v-2h1zM589 645c0-2-2-2-4-1l-3 5v1c-2 3-3 7-3 10 0 2 1 2 2 2v1c1 1 3 0 3-1 5-4 8-11 5-17zM607 599c-1-2-3-2-4-1-3 3-5 7-4 12 0 1 2 2 4 1l3-4c2-2 2-6 1-8zM539 613l-1-4c0-2-2-2-3 0v5c0 1 1 2 2 1l2-2zM555 705c0-2-2-3-3-1h-1c-5 4-6 10-6 16 0 2 3 3 4 2 4-5 7-11 6-17zM545 688c-1-2-3-1-3 0v3h3v-3zM555 669h-3c-2 2-2 6-2 9 0 2 5 2 5 0v-1c0-2 2-6 0-8zM528 662c-1-2-2-1-3-1h-1l-1 2 1 4 2 2h1c1 0 2-1 2-3l-1-4zM504 593c-1-2-3-2-5-1v1l-1 1-1 2 1 5v1c0 1 0 2 2 2h2l2-1v-10zM512 593c0-2-3-1-3 0v2l1 2h1l2-1-1-3z"/>
      <path class="st27" d="M587 650h-3v1l-1 1c-2 1-1 4 1 4l2-1 1-5zM550 711h-2c-1 1-2 3-1 4l2 1c2-1 2-3 2-4 1-1-1-2-1-1zM566 685c0-1-1-2-2-1l-2 4c0 2 2 3 3 2l2-3-1-2zM553 672c0-2-2-2-2 0l-1 2c1 2 3 2 3 0v-2zM544 688h-3v2c0 2 3 2 3 0v-2zM527 664c0-2-2-2-2 0v1l1 1 1-1v-1zM512 636v-2l-1-2h-2l-1 1v3l2 1 2-1zM536 607c-2 1-2 3-1 4s3 0 3-1v-1c1-1-1-2-2-2zM571 598l-1 4c0 2 2 2 3 0v-4c0-2-2-2-2 0zM501 595c-2 0-2 4 1 4 2 0 2-4-1-4zM522 592h-2l-1 2h2l1-1v-1zM604 605v-1c0-1-1-2-2-1h1-1l-1 2v2h3v-1-1zM594 590v-1l-1-1-2 1-1 1v2c0 3 4 2 4 0v-2z"/>
    </g>
    <g>
      <path class="st24" d="M590 695s13-146 18-152c6-6 111 75 122 85s-130 62-140 67z"/>
      <path class="st25" d="M595 686c5-22 12-41 11-63 0-13-7-56 16-53 11 2 20 13 27 20 11 9 23 14 35 22 8 5 27 17 16 28-9 11-30 13-42 19-13 6-23 13-37 15-10 1-20 1-24 12l-1-2-1 2z"/>
      <path class="st24" d="M656 600l-3-6-7-5c-2-1-4 1-3 3v1c0 2 1 5 3 7 1 2 4 4 6 4s4-2 4-4zM616 577c-1-2-4-3-5-1-2 2-4 5-2 8l1 1-1 4c-2 3 3 5 4 2 3-4 4-9 3-14z"/>
      <path class="st24" d="M605 575l-1 3-1 1v10c0 3 4 3 5 1l3-14c0-3-4-3-6-1zM625 632c0-3 0-6-2-9-1-2-3-2-4-1l-1 1c-3 2-4 6-4 9-1 5-1 10 3 11v1c1 1 3 1 4-1 3-1 4-3 4-6v-5zM608 633h-4l-2 8 3 2 2-2c3-1 3-5 1-8zM653 648c0-2-1-2-2-2-1-1-3-2-4-1l-4 6c-4 5-5 12-1 17l2 1c1-1 2-1 2-3v-1l1 1c11 3 9-13 6-18zM684 632c0-2-1-4-3-4h-1-1l-1 2 2 2 1 2c2 1 4 0 3-2zM688 617c-1-6-8-11-14-14l-3 1v4l1 1 13 11c1 1 4-1 3-3zM593 676v11c0 2 3 2 3 0l2-11c0-3-4-3-5 0z"/>
      <path class="st29" d="M730 629c-7-9-17-15-26-21l-31-25a738 738 0 0 0-63-42l-1 2c21 14 42 27 60 45 17 17 41 26 58 44 2 1 4-1 3-3z"/>
      <path class="st29" d="M724 631c-21 12-42 23-65 32s-44 21-68 29c-2 1-1 4 1 3 13-3 25-9 36-14 12-6 24-10 36-14 12-5 24-9 35-15 9-4 21-10 28-18 1-2-1-5-3-3zM685 613l-2-4v-1l-1-1-1-1-2-1c-1-1-2 0-3 1v3l5 7c2 2 5 0 4-3zM709 624l-2-3h-3v2c0 2 1 3 3 4s4-2 2-3zM650 593zM652 596l-1-2-1-1v1l-1-2c-1-1-4 0-4 2l3 5c2 2 5-1 4-3zM650 574l-3 3c1 5 3 9 8 12l2 1c1 1 3 1 4-1 2-7-5-13-11-15zM617 581c-1-1-3-2-4 0h1c-1 0-2 2-1 3v1c1 3 4 1 4-1v-3zM622 630l-1-1c0-3-4-2-4 1l1 3c1 1 4 1 4-1v-2zM648 655l-1 2v1l-1 4c1 2 4 3 5 1l1-7c0-2-3-2-4-1zM606 635c0-3-4-3-4 0l-1 2-1 4c0 2 4 3 4 1l1-3 1-4zM624 558c-1-2-3-4-5-4h-1c-1-1-2 0-2 1v1l1 1 4 5c3 1 4-2 3-4z"/>
      <path class="st27" d="M656 582l-1-2-2-1c-2-1-4 2-2 3l1 1c2 3 4 1 4-1zM624 556l-1-1h-1c-1-2-3-1-2 1v2c1 2 4 2 5 0l-1-2zM636 571l-1-1c-1-1-2 1-2 1v1c1 3 5 2 3-1zM609 584v-1-3h-2l-1 3c0 2 1 2 2 2l1-1zM638 606h-1c1-2-1-3-2-3l-2 2v2l1 2v1c1 2 4 1 4-1v-3zM628 581h-3l1 2 1 1h1l1-1v-1l-1-1zM605 639l-1-2c0-1-2-2-2 0l-1 2 2 1 2-1zM620 626l-1-1h-2v1l-1 3c0 1 1 2 2 1 1 1 2 0 2-1v-3zM651 657v-3c0-1-2-2-3 0v3l2 2 1-2zM685 628l-1-1c-1-1-3 1-2 2l1 1c1 2 4-1 2-2zM612 664l-1 5 2 1 2-1 1-3c0-2-3-4-4-2zM712 625c-1-2-2-2-3-2-2-2-4 1-2 3l1 1c2 2 5 0 4-2zM680 598h-1-1c-1 0-2 0-1 1 0 2 1 4 3 3l2-2-2-2z"/>
      <path class="st29" d="M597 642c0-1 0-1 0 0-5 7-3 17-6 25-1 7-2 18-1 26 0 2 3 1 3-1-1-16 2-34 4-50zM601 596c-6 12-4 27-3 40 0 1 0 1 0 0 1-13 4-26 4-40h-1z"/>
    </g>
    <g>
      <path class="st24" d="M717 619c8 0 91-56 89-58-24-24-88-78-88-78 0 14-9 136-1 136z"/>
      <path class="st25" d="M776 576c-12 10-28 25-44 27-17 3-10-22-9-32l2-30-1-24c2-19 21 2 26 8 13 14 24 32 28 51h-2z"/>
      <path class="st24" d="M723 535c-1-1-2 0-3 1 0 3-2 7 0 10l4 2v1l4 3c1 1 3 1 3-1v-7c0-3-1-5-3-6-1-2-3-3-5-3zM771 543l-4-2-3 1v1c-1-1-3 0-3 2 0 3 3 8 6 10l5 1h1c2 1 3 0 3-2v-1c2-4-1-8-5-10zM750 569c-2 0-3 1-3 2l2 4c0 1 2 2 3 1v-3l-2-4zM731 580c-2 0-4 1-4 3v1l1 3 2 2c1 2 4 3 6 0 2-2 1-3 0-5s-3-4-5-4zM743 532h-1l-2 1 1 1 1 1h2v-2-1h-1zM732 507c-2-1-4 0-4 2 0 4 2 8 6 10 1 1 3 0 3-1 1-3 1-5-1-7l-1-1-3-3zM776 565l-2-1c-3-2-5-4-8-3-3 2-3 4-3 7-1 2-1 5 2 7l2 1c1 1 4 2 6 1l2 1c1 1 3 1 3-1v-3-2c1-3 1-6-2-7z"/>
      <path class="st29" d="M718 484c3 6 9 10 14 14l20 18 28 23c8 8 14 17 23 23 2 1 4-2 2-3l-22-23-22-18c-7-6-14-13-22-18-7-5-14-9-19-16h-2z"/>
      <path class="st29" d="M803 560c-14 8-27 19-40 29-15 11-30 19-46 28-1 1 0 2 1 2 16-6 30-16 44-26l21-14 22-16c1-2 0-4-2-3zM769 545c-1 0-3 1-3 3h1v1l1 2 2 1h3v-2l-1-3-3-2zM786 553l-1 1-1 1c1 4 3 7 7 8 1 1 2 0 3-1 2-5-3-10-8-9zM771 566h-2v3l1 1v1l2 1 2-1v-3l-3-2zM724 538c-1-2-3-1-3 1 0 4 3 7 6 9 2 0 3-1 3-2 0-4-3-7-6-8zM730 513l1 2h2l1-2-1-2c-2-2-4 1-3 2zM733 583l-1 1 1 3h1l1-1v-2l-2-1z"/>
      <path class="st27" d="M769 547l-1 1v3h2c1 1 3-1 1-2l-2-2zM740 543l1 1 1-1v-1l1-1c-1-3-4 0-3 2zM726 542l-2-3c-2 0-3 2-2 3l1 1v2h1c2 2 4 0 3-1l-1-2zM734 513v-1l-1-1h-1c-1 0-2 1-1 2l2 2c1 1 2-1 1-2zM724 500l1 1v1l1 1 1-1-1-3-2 1zM733 584c-1-1-2 0-2 1h1l1 2c1 1 3 0 2-1l-1-2h-1zM720 567v1c1 1 3 0 2-1v-1c-1-1-3-1-2 1zM750 572l-1-1-2 1c0 1 1 2 2 1h1v-1zM740 532l2 2 1-1-1-2-2 1zM774 571l-1-2-2-1c-1-1-3 0-2 1l3 4c1 1 3-1 2-2zM789 558c-1 0-2 1-1 2v1l1 1h2c2-2 0-4-2-4zM721 604h-1v3c1 1 3 1 2-1 0-1 1-2-1-2z"/>
    </g>
    <g>
      <path class="st24" d="M58 630s99-101 104-102c5-2 59 79 64 84S63 633 58 630z"/>
      <path class="st25" d="M196 598h-1c-9-14-18-40-34-47-15-7-29 14-38 23-7 8-15 14-23 21-5 5-17 14-18 21-1 8 8 5 13 4l36-8h35c11-2 20-9 29-15l1 1z"/>
      <path class="st24" d="M158 546c-5 2-12 7-11 13 0 2 2 3 4 3h1c7-1 12-5 12-12 0-3-3-5-6-4zM153 578c-2-2-5-1-7 1-1 2 1 5 3 4 2 0 6-2 4-5zM113 592c0-2-2-3-3-2l-4 2h-2c-3 1-5 4-3 8l4 2c4-1 9-5 8-10zM130 595h-4v2l4-1v-1zM175 601l-3-2-3-2h-5c-5 0-9 2-13 5-1 1-2 4-1 6h1l2 2c0 4 3 7 7 8 3 0 7-1 10-3l2-2c4-2 8-9 3-12zM184 575l-3 2h-1c-1 2-1 5 1 6h3c2-1 4-2 5-5s-3-5-5-3zM96 612l-5 2v3h5c3-1 2-5 0-5z"/>
      <path class="st29" d="M226 610c-11-14-19-29-30-43-11-12-19-28-32-39-1-1-3 1-2 2l31 40 13 23c4 7 11 13 16 19 2 3 6 0 4-2zM188 617L60 628c-2 0-2 3 0 3 43 3 86-7 129-11 1-1 1-4-1-3z"/>
      <path class="st29" d="M222 611c-3-1-8 2-12 3l-18 3v1l19-1c4 0 11-1 12-5l-1-1z"/>
      <path class="st27" d="M156 552c-1 0-2 0-3 2-2 1 1 4 3 3l2-4-2-1zM172 566h-2c-2 0-1 3 1 2 1 0 2-1 1-2zM109 591l-3 2c-1 2 1 3 2 2s2-1 2-3c1-1 0-1-1-1zM127 572l-2 1c-2 0-1 3 1 3l4-1c1-2-1-5-3-3zM79 614l-1 1 1 2 1-2-1-1zM133 603l-3 2v2l4-1c1-1 1-3-1-3zM150 578c-3-1-3 4 0 3l1-1c1-1 0-2-1-2zM167 603l-4 2c-1 1 0 3 2 3l3-1c3-1 1-6-1-4zM197 586l-3 1c-3 2-1 6 2 5l3-2c1-2 0-4-2-4z"/>
    </g>
    <g>
      <path class="st24" d="M142 603c-4-4 120-58 129-57s24 87 23 101-145-37-152-44z"/>
      <path class="st25" d="M278 629c0-14-2-27-6-41-3-8-7-30-17-32-5-1-10 3-13 5l-17 6c-11 4-21 12-33 16-5 2-12 1-18 3-5 2-8 7-11 12 8 3 16 1 23 1h12l11 8 15 6c4 0 8-2 12 0 4 1 6 5 8 7l11 5c7 3 13 6 21 6v-2h2z"/>
      <path class="st24" d="M273 566l-5-4c-5-4-12 1-11 7l2 4 1 1 3 3h8c4-1 5-8 2-11zM250 589c-3-1-6 1-5 4 0 1 0 1 0 0l1 2 1 2 2 2c2 1 4 0 5-2 2-4-1-7-4-8zM218 582v-1h-1l-2-1c-2-1-3-2-5-1-2 0-2 2-1 4s4 3 7 3l2-3v-1zM234 595v1c0 3 5 3 5 0v-1c0-3-5-3-5 0zM196 613c-1-3-4-5-6-7-1-2-4-2-6 0s-1 5 1 7l3 4c1 1 3 2 5 1s3-3 3-5zM185 593c1 2 4 2 4 1l1-1c1-4-6-4-5 0z"/>
      <path class="st29" d="M292 623c-1-11-5-21-6-31-3-16-3-33-13-47l-2 1c8 15 8 31 12 47 4 17 8 36 8 55 0 2 3 1 3 0 2-8-1-17-2-25zM155 608l-6-4-6-3-1 1 6 4 6 2h1z"/>
      <path class="st29" d="M293 646c-13 0-24-2-36-5l-35-8c-11-3-22-8-33-13l-34-11c9 6 20 9 30 13l33 12c25 8 49 14 75 15 2 0 2-3 0-3zM238 626c-2-3-4-4-7-3-2 0-4 3-2 4l2 1c1 1 2 2 4 1 0 1 0 0 0 0 2 1 3-1 3-3zM272 563h-3l-1 1 2 1 1 1 2-2-1-1z"/>
      <path class="st27" d="M271 563c-1-2-3-1-5-1s-2 3 1 3l4-1v-1zM216 580h-3l1 2 2-2c1 0 0 0 0 0zM239 587h-4c-1 1 0 3 1 2l3-1v-1zM253 593h-3v2h3v-2zM232 625c-1 0-1 3 1 2 1 0 7 2 7-1-1-3-6-2-8-1zM268 615l-3-1v2l3-1zM200 608c-2-2-5-2-7-1-1 1-1 3 1 3h4c2 0 2-1 2-2zM189 590l-4 1 1 2c1 0 3 0 4-2l-1-1zM201 577h-3v2l3-2zM164 598c-1-1-3 0-4 1v2l5-2-1-1zM284 605h-2c-2 0-2 2 0 2h2v-2zM277 585c-1-1-2 0-3 1s0 2 1 1l2-1v-1z"/>
    </g>
    <g>
      <path class="st24" d="M650 567c-3-5 132-18 140-14 8 3-4 90-10 103-5 13-126-80-130-89z"/>
      <path class="st25" d="M771 634c4-14 6-26 7-41 0-8 3-31-6-36-4-2-10 0-15 1l-17 1c-12 0-24 5-36 4l-19-2c-6 0-10 4-14 8 7 4 15 5 22 8l11 4 8 10c3 4 8 8 13 11 3 1 8 1 11 3s4 7 6 10l8 8c6 5 10 10 18 12l1-1h2z"/>
      <path class="st24" d="M785 572l-3-5c-4-6-12-3-12 4v4l1 1 2 4c2 2 4 2 7 2 5 0 8-5 5-10zM757 587c-3-2-6 0-6 3v4l1 2c2 1 5 1 6-1 3-2 1-6-1-8zM729 571l-1-1v-1l-2-2-4-2c-2 0-3 2-3 3 1 3 3 5 6 6 1 0 3-1 3-3h1zM740 587l-1 2c-1 3 4 5 5 2l1-2c0-3-4-4-5-2zM698 593l-3-9c-1-2-4-2-6-1-3 1-3 4-2 6l2 5c1 2 2 3 4 3 3 0 4-2 5-4zM694 571v1c0 1 2 2 3 1l1-1c3-3-4-5-4-1z"/>
      <path class="st29" d="M786 632c3-10 2-21 4-31 2-16 7-32 2-48h-2c3 17-2 31-3 48-2 18-4 37-10 55 0 1 2 2 3 1 5-7 5-16 6-25zM660 575l-4-5-6-4c0-1-1 0 0 0l5 5 4 5 1-1z"/>
      <path class="st29" d="M780 655c-12-4-22-10-32-16-10-7-21-12-31-18l-28-23-28-21h-1c7 8 16 14 24 21l29 22c20 15 42 29 66 38 2 0 2-3 1-3zM733 619c0-3-2-5-5-5-2-1-5 1-3 3l1 2 4 2c1 1 4-1 3-2zM786 569l-3-1c-1 0-2 1-1 2h1v1l1 1 2-1v-2z"/>
      <path class="st27" d="M785 569l-4-3c-3 0-3 3-1 4h4l1-1zM727 568h-2v1l2-1c1 0 1 0 0 0zM747 582c0-2-3-2-4-1-1 0-1 2 1 2h3v-1zM758 592l-3-1v1c1 1 2 2 3 1v-1zM728 616v2c1 1 7 4 8 1 0-3-5-4-8-3zM766 617l-3-1-1 1 3 1 1-1zM703 590c-1-3-4-3-6-3s-2 2 0 3l4 1c1 1 2 0 2-1zM699 570l-4-1v2h4v-1zM714 560h-4c-1 0 0 2 1 1h3v-1zM672 569l-4-1v2h5l-1-1zM784 613l-2-1-1 2 2 1 1-2zM784 592h-3v1h2l1-1z"/>
      <path class="st29" d="M758 552l-48 3c-15 2-30 6-45 7v2l17-2 24-3 27-2c8-2 17-2 25-3v-2zM781 551h-7l-9 2v1l9-1 7-1v-1z"/>
      <path class="st29" d="M790 550c-14 0-28 2-41 3-2 0-2 2 0 2 13 2 28-1 41-2 3 0 2-3 0-3z"/>
    </g>
    <g>
      <path class="st24" d="M102 647c-2 0 113-50 120-49 8 1 46 77 52 88s-172-39-172-39z"/>
      <path class="st25" d="M120 646h-2c20-10 42-14 63-23 9-5 19-13 29-14 11-1 17 8 21 16 6 11 10 23 14 34-9 2-17-2-26-3-9-2-15 0-24 2-11 1-17-3-26-8-8-3-17-5-24-2-5 3-17 5-24 0l-1-2z"/>
      <path class="st24" d="M166 629h-7l-2 1-2 1c-4 1-3 6 0 6 1 1 2 2 3 1l9-2c3-1 3-6-1-7zM178 639c0-1 0-1 0 0zM185 636l-5 1-2 1-1 1c1 0 0 0 0 0-1 2 1 5 3 5 2 1 5 0 6-2 3-1 2-6-1-6zM183 623v-1c-4-4-7 5-2 4h1c2 0 2-2 1-3zM217 650l-3-2c-3-1-8 1-11 2-3 2-4 5-2 7 2 4 6 7 10 7 4-1 7-4 8-7s0-5-2-7zM137 643v-1c-3 0-4 3-1 5h1c3 0 3-4 0-4zM218 614c-6-3-17 0-18 8 0 5 6 6 9 5l2-1c4-1 7-3 8-6 2-2 2-5-1-6z"/>
      <path class="st29" d="M262 662l-15-27c-6-12-12-29-23-38-1 0-3 1-2 2 12 11 17 28 24 41 7 16 16 32 26 47 1 1 3 0 2-1-3-9-9-16-12-24z"/>
      <path class="st29" d="M270 684c-10-4-21-4-32-5l-44-8-44-10c-14-4-29-10-44-13v1c25 12 54 17 80 23l40 9c14 2 29 2 41 7 3 1 5-3 3-4z"/>
      <path class="st29" d="M214 673c-9-4-21-8-31-6-2 0-2 2-1 3l15 4 15 5c4 0 6-5 2-6zM212 614c-1 1-3 0-4 2s-1 4 1 4a38 38 0 0 0 5-1c2-1 1-6-2-5zM219 602h-2l-2 1c-1 1 0 3 1 2 2 0 4-1 3-3zM221 596c-14 1-25 12-39 16l1 1c13-3 24-13 38-14 2 0 2-3 0-3z"/>
      <path class="st27" d="M165 632c-1-1-2-2-3-1-2 0-2 2 0 3l3-1v-1zM181 661c1 0 1 0 0 0zM183 659h-5v3l5 1c2-1 2-5 0-4zM186 638h-4v2h2c1 1 2-1 2-2zM223 643l-1-1-5 1c-1 1-1 3 1 3h4l1-2v-1zM215 655l-4 1c-1 1-1 3 1 3l3-1c2 0 2-3 0-3zM212 614c-2 0-3 1-3 2-1 1 0 2 1 2 2-1 3-1 3-3l-1-1zM217 603c-1-1-2 1-4 2-1 1 1 3 2 2s3-1 3-3l-1-1zM176 618l-4 2v1c2 1 6 1 6-2l-2-1zM251 671h-6c-1 1 0 3 1 3h4l1-1 1-1-1-1zM155 653h-1c-2-1-4 1-2 2l3 1c2 0 2-3 0-3zM136 642c-2 1-2 3 0 4 1 0 4 0 4-2 1-2-3-2-4-2z"/>
    </g>
    <g>
      <path class="st24" d="M922 595s-126-65-131-65-31 94-35 100c-3 7 162-31 166-35z"/>
      <path class="st25" d="M776 606l1-1c4-16 1-53 14-65 16-3 35 15 47 21l28 12c6 3 21 8 24 15 3 6-7 6-12 7l-36 4c-11 3-22 8-33 10s-22-1-33-5v2z"/>
      <path class="st24" d="M800 546c6 1 14 3 15 9 1 2-1 4-3 4l-1 1c-6 1-13-2-15-9-1-2 2-5 4-5zM815 575c1-2 5-3 7-1 2 1 1 5-2 5-1 0-6-1-5-4zM857 576c0-2 1-3 3-3l4 1 2-1c3 0 6 3 6 6l-4 4c-4 0-10-2-11-7zM842 584c1-2 2-1 4-1 1-1 2 2 0 2h-4v-1zM801 604l3-3 2-3 5-2c4-1 9 0 13 2 2 0 4 2 3 5h-1l-1 3c2 4 0 8-4 9-3 2-7 2-11 0h-2c-4-2-10-7-7-11zM785 582l3 1h1c2 1 3 4 1 5 0 1-1 2-2 1h-1c-2 1-4 0-6-3-2-2 1-5 4-4zM881 590h4l1 2c-1 2-3 2-5 2-3 0-3-3 0-4z"/>
      <path class="st29" d="M794 623c42-9 83-20 125-30 2 0 3 3 1 4-40 16-84 19-126 28-1 1-2-2 0-2zM760 628c2-2 8-1 12-1l18-3 1 2-19 5c-3 1-10 2-13-1l1-2z"/>
      <path class="st27" d="M804 551c1-1 2 0 4 1s0 4-2 4c-1-1-3-1-3-3l1-2zM793 570c0-1 1-2 2-1 2 0 2 3 0 2l-2-1zM861 574c1-1 3 0 4 1s-1 3-2 3l-3-2c-1-1 0-2 1-2zM838 561h2c2 0 2 3 1 4h-5c-1-2 0-5 2-4zM896 587h2v2l-2-1v-1zM842 593h4v2h-4c-2 0-2-2 0-2zM818 574c3-2 4 3 1 3h-2c-1-1 0-3 1-3zM810 603l3 1c2 0 2 3 0 3h-3c-3 0-3-5 0-4zM776 597h3c4 0 3 5-1 5l-3-1c-1-1-1-4 1-4z"/>
      <path class="st29" d="M920 592l-25-13-33-18-32-15c-9-4-18-10-28-12v1c19 8 36 20 55 29l30 13 31 17c2 1 3-1 2-2z"/>
      <path class="st29" d="M804 535l-4-2-5-2-1 1 4 3c2 1 4 2 5 1l1-1z"/>
    </g>
    <g>
      <path class="st24" d="M200 669c6 8 128 49 129 45 6-44 10-150 10-150-14 10-145 97-139 105z"/>
      <path class="st25" d="M290 695c-20-4-47-8-62-22-16-16 14-29 25-35l33-22c8-6 15-14 24-20 20-13 14 23 12 33-5 25-14 50-30 69l-2-3z"/>
      <path class="st24" d="M290 609l-3-1c-4 1-9 3-10 7v7l-1 6c1 2 2 3 4 2 3 0 6-3 7-6 3-1 4-4 4-7 1-2 1-5-1-8zM320 665l-1-6c-1-1-3-3-4-2-1-1-3-3-5-1-4 2-6 9-5 14 0 2 0 4 2 5l1 2c1 2 3 3 4 2l2-2c4-1 6-7 6-12zM276 663c0-2-3-2-4 0l-3 4c0 1 1 4 2 3 2 0 3-1 3-2 2-1 3-3 2-5zM250 653c-1-2-3-3-5-2l-1 1-3 3v3c-1 4 0 7 5 7 2 0 3-2 4-4 2-2 2-5 0-8zM309 628v-1l-1-1h-3l-1 1v1l2 2 2-1v-1h1zM326 596c-1-2-3-3-5-2-5 3-7 8-6 13v2c0 1 2 2 4 1 3-1 5-3 6-6v-2l1-6zM302 686l-2-3c1-4 0-8-3-9-3-2-6-1-8 2-4 0-7 2-6 7v2c0 4 1 6 3 8l1 3c0 1 2 3 4 2l3-2 3-2c3-1 5-4 5-8z"/>
      <path class="st29" d="M337 565c-4 7-2 17-3 25l-2 34c-1 15 0 31-2 46-1 14-6 28-4 42 0 3 4 2 4-1l6-39 1-38 2-36c-1-11-3-21 1-32 0-2-2-3-3-1z"/>
      <path class="st29" d="M327 710c-19-8-40-13-60-18-23-7-43-15-65-25-1 0-2 2-1 3a820 820 0 0 0 91 34c11 3 23 8 34 10 2 0 3-3 1-4zM316 665c-1-3-4-4-5-1l-1 1-1 3v3l2 2h1l2-1 2-4v-3zM321 687h-3c-4 4-6 9-3 14l3 2c7-3 8-11 3-16zM296 683l-2-2h-1l-1 1v3h-1v3l2 2c2 0 3-1 3-3v-4zM288 613v-1c1-2-1-3-3-2-4 3-6 9-4 14 0 1 2 2 4 1 4-3 4-8 3-12zM318 600l-1 2 1 1 1 1 1-1h1l1-3c0-2-4-3-4 0zM249 657h-3v4l1 1 3-1-1-4z"/>
      <path class="st27" d="M313 666l-1-1-3 2 1 3c0 2 4 2 4-1l-1-3zM295 633v2h3l2-1c2-4-4-4-5-1zM285 617l1-4c-1-2-4-1-4 1l-1 1v4c-1 2 2 3 3 1l1-3zM322 603v-2h-1c0-2-2-2-3 0v3c0 2 3 1 4 0v-1zM326 584v1h-1v2l1 1c2-1 2-2 2-4h-2zM248 657h-2v1l-1 2c0 2 2 3 3 1l1-2-1-2zM255 631l-1 1c-1 2 3 4 3 2l1-2c1-1-2-2-3-1zM273 665l1-1-2-1c-2 0-2 2-1 3l1 1 1-1v-1zM306 624l-1 4h2l2-2c1-2-2-3-3-2zM294 689v-2l1-3c0-2-3-3-4-1l-1 6c0 2 3 2 3 0h1zM318 695c0-1-2-2-3-1v3 1l1 2c3 0 4-3 2-5zM219 661h-1c-2 0-3 1-3 2-1 2 1 3 2 2s3-2 2-4z"/>
    </g>
    <g>
      <path class="st24" d="M717 732c10 2 127-49 125-52-25-37-92-119-92-119-4 18-43 170-33 171z"/>
      <path class="st25" d="M801 692c-18 10-40 26-61 25-22-2-9-31-5-43s8-25 10-38l4-31c6-23 26 8 31 16 13 22 23 46 24 72l-3-1z"/>
      <path class="st24" d="M743 628c-1-1-2 0-3 1-2 4-4 8-2 12 0 2 2 3 3 4h1v1l4 5c1 1 3 1 4-1 2-2 3-6 2-9 0-3 0-6-2-8l-7-5zM802 649l-4-3c-1-1-3-1-4 1-2-1-4 0-5 2-1 4 2 11 6 14 1 2 3 3 6 2l1 1c2 1 4 0 4-2v-2c3-3 1-9-4-13zM769 677c-1-1-3 1-3 2l1 6c0 1 2 2 4 1v-4c1-1 0-3-2-5zM743 687c-2-1-4 0-5 2v2 3l2 3c2 3 5 5 8 2 2-1 1-4 0-6 0-3-2-5-5-6zM770 629h-1l-1-1c-1 0-3 1-2 2v2h3c0 1 0 0 0 0h1v-2-1zM761 595c-2-2-4-1-5 1-1 6 0 11 4 14l1 1c2 1 4 0 4-1 2-3 2-6 1-9l-2-1c0-2-1-4-3-5zM804 677l-3-1c-3-3-6-6-9-5-4 1-5 4-5 7-3 3-3 6 0 9l2 2c2 3 5 4 8 4l2 1c1 1 4 2 5 0v-5l1-2c1-3 2-7-1-10z"/>
      <path class="st29" d="M749 563c2 9 9 15 14 21l21 27c10 12 21 23 30 36 8 11 14 24 25 33 2 2 4-1 3-3-9-11-15-23-23-33-15-20-15-20-24-29l-23-28c-7-8-16-14-21-25 0-1-3 0-2 1z"/>
      <path class="st29" d="M839 678c-20 7-39 18-58 27-21 10-42 18-64 25-2 0-1 3 1 3 21-4 42-14 62-23l29-13c10-5 22-9 31-15 2-2 1-5-1-4zM799 652c-2-2-4 0-4 2v1l1 1 1 2c0 2 1 3 2 3h4v-3l-1-4-3-2zM819 665l-2 1-1 1c0 6 2 10 7 12 2 1 3 0 4-1 3-6-2-13-8-13zM797 678h-2l-1 1v2l1 2v1l2 2 3-1v-3l-3-4zM744 632v-1c-1-1-4-1-4 1-1 5 2 10 6 13 2 1 4 0 4-2 1-5-2-9-6-11zM757 602l2 2 2 1 1-2-1-3c-1-2-5 0-4 2zM745 691l-2 2 2 3h2c1-1 2-2 1-3l-3-2z"/>
      <path class="st27" d="M799 654l-2 1v3l2 1c1 2 4-1 2-2l-2-3zM763 642l1 1 2-1c1 0 2-1 1-2-1-4-5-1-4 2zM745 637l-2-3c-2-2-4 1-3 3l1 1 1 2v1l1 1c1 2 4 0 4-2l-2-3zM763 602l-2-1c-2-1-3 0-2 2l1 2c2 1 4-1 3-2v-1zM753 585v2l1 1 2-1c1-1-1-2-1-3-1-1-2 0-2 1zM745 692c-1-1-3 0-2 1v1l1 2c2 2 4 0 3-1l-1-3h-1zM732 667v2c1 2 4 1 3-1v-1c0-2-3-1-3 0zM769 681h-1v-1h-2c-1 2 0 3 1 2v1l2-1v-1zM766 628l1 3c1 1 2 0 2-1l-1-2c0-2-2-1-2 0zM800 685l-2-2-1-3c-1-1-4 0-3 2 0 2 2 4 3 5 1 2 3 0 3-2zM822 673c-1-1-3 0-3 1l1 1v2l1 1h2c2-2 1-5-1-5zM726 714l-2 1v4c0 1 3 1 2-1 0-1 2-3 0-4z"/>
    </g>
    <g>
      <path class="st24" d="M387 644s-138 25-153 36 109 103 119 104c1 0 36-136 34-140z"/>
      <path class="st25" d="M241 686c21 17 40 35 59 54 12 12 29 32 43 12 7-11 11-24 15-36s9-26 9-39c-1-26-35-12-50-8-25 7-49 15-74 18l-2-1z"/>
      <path class="st24" d="M331 676l-7-1c-4 1-7 2-9 5-2 0-3 1-3 3-2 4 0 7 4 8s8-1 12-2l5-4c3-3 2-7-2-9zM294 673l-7 3-3 1c-2 1-2 3-3 5 0 2 2 4 4 4 6 1 14-2 14-9 1-3-3-4-5-4zM361 678c-2-1-4 0-5 1l-2 4c0 4 5 5 7 2v-1l1-2c1-2 0-3-1-4zM330 722c0-3-3-3-6-3l-8 4c-3 1-6 4-7 7l-1 1v2c0 2 1 5 4 5h4c8-1 17-7 14-16zM291 712h-1l-3 3c-1 3 1 7 5 6l4-4c2-4-2-6-5-5zM354 716c-2 1-4 3-4 5-1 2 2 3 3 1l2-4c1-1 0-2-1-2zM354 718v0zM259 690c-2-1-5 0-5 2v1l1 3c2 1 4 1 6-1 1-2 0-4-2-5z"/>
      <path class="st29" d="M386 643c-4 10-5 21-7 31-2 12-7 22-9 34l-10 35-8 40c0 2 3 3 4 0 2-12 3-24 7-35l9-36c4-23 12-45 16-68 0-1-1-2-2-1z"/>
      <path class="st29" d="M353 781c-13-6-25-12-37-21-11-8-21-18-31-27-19-16-40-27-51-50-1-1-2 0-2 1 5 22 32 36 48 49 22 19 45 39 72 51 2 1 3-3 1-3zM350 755c-1-1-3-2-4-1l-2 5-1 2 1 2 1 3h3c4-2 4-7 2-11zM321 727c0-2-2-2-3-1l-2 1c-3 0-4 4-3 6l3 2c4-2 6-4 5-8zM357 681h-1l-1 3c0 2 2 3 3 1l2-2c1-2-1-3-3-2zM318 684c-1 0-2 1-2 3l1 1h2c1-1 2-1 2-3 0-1-2-2-3-1zM375 653l-3 2c-2 1-3 2-3 5 0 1 1 3 3 2 3-2 5-4 5-8 0-1-1-2-2-1z"/>
      <path class="st24" d="M361 708v-5c0-2-2-2-3-2l-3-1c-2 1-4 1-5 3-7 4-16 13-10 19 0 2 1 4 4 5 0 2 3 4 4 3l6-4c5-3 9-11 7-18z"/>
      <path class="st29" d="M356 711c-1-2-3-2-4-1s-4 4-3 6v1c0 1 1 2 3 2 3 0 5-5 4-8zM292 676l-1-2-2 1-2 1v1l3 2c2 0 3-2 2-3z"/>
      <path class="st27" d="M350 758c-1-2-3-1-4 1l1 4h2l1-5zM294 738v-1c0-1-1-2-2-1h-1c-2 0-2 2-1 4h3c1 0 2-1 1-2zM319 731v-1l-1-2c-2-1-4 2-3 4h4v-1zM354 713v-1l-2-1-2 3 2 2 2-2v-1zM305 708l-1 2v2h1l3-2c1-2-2-4-3-2zM320 684l-3 2c-1 1 1 2 2 1l2-2c0-1 0-2-1-1zM361 678c-2 0-3 3-3 4-1 2 1 2 2 1s3-2 2-4l-1-1zM343 672l-4 3 1 2 4-4-1-1zM340 699l-2 3 1 1 3-3c1-1-1-2-2-1zM291 675c-3-1-5 2-6 4 0 2 2 3 3 2 2-1 4-3 4-5l-1-1zM275 700l-3 2c-1 1 1 2 2 2l2-1c2 0 1-3-1-3zM259 692l-2-1-2 1h-1c-1 2 1 4 2 3l2-2 1-1zM375 657c0-1-1-2-2-1l-1 1v2h2l1-2zM332 659l-6 3c-1 2 1 3 2 2l5-2c1-1 1-3-1-3zM251 679l-5 2c-1 1 0 3 2 2l3-2v-2z"/>
    </g>
    <g>
      <path class="st24" d="M266 655s117-40 129-38 32 91 31 97c0 5-153-52-160-59z"/>
      <path class="st25" d="M274 655c17-2 33-7 48-14 17-7 36-17 54-12 18 4 33 23 32 41-2 24-32 19-47 15-24-6-47-16-71-22l-16-8z"/>
      <path class="st24" d="M376 627l-3-3h-4c-5-1-10 2-13 5-2 1-1 4 1 5 6 1 12-1 17-3l2-3v-1zM349 652l-4 2h-1c-2 0-3 2-2 4 1 3 4 4 7 4s7-2 7-5c0-4-4-6-7-5zM333 641c-6-3-13-2-18 2l-2 3c-1 1 0 2 1 3 5 3 12 2 16-2l3-2c2-1 2-4 0-4zM321 667c-2-2-5-2-8-2h-3c-2 0-3 4-1 5l3 1h9c2 0 1-3 0-4zM384 675h-1l-2-1v1h-2c-2 0-3 3 0 4l2 1 2-1c2 0 3-3 1-4zM410 683c-1-2-3-3-5-3-5-3-11-3-16 0l-1 3c3 8 15 6 21 3 1 0 2-2 1-3zM389 648l-2 1h-1v3h5c2-1 1-4-2-4z"/>
      <path class="st29" d="M422 686l-6-25c-4-14-9-34-21-44l-1 1c8 15 15 28 19 44 4 17 7 35 12 52 0 2 4 1 4-1-1-9-5-18-7-27z"/>
      <path class="st29" d="M425 712c-14-2-28-8-42-12l-41-16-39-15c-11-6-23-10-35-15-1-1-2 1-1 2 8 8 21 10 31 14l42 18 42 16c13 4 28 10 42 11 2 0 3-3 1-3zM352 654h-4c-2 0-3 2-1 3h4l1-3zM412 698l-1-2c-3-2-6-3-10-2h-1c-2 0-2 2-2 3 2 4 5 6 8 5l5-1c2-1 2-2 1-3zM389 622h-1l-1-1-1-1c-2 0-4 2-3 4l1 1 3 1c1 0 3 0 3-2l-1-2zM367 627h-2c1 0 0 0 0 0-3 0-3 4 0 4l2-1v-3zM390 650l-2-1-2 1v2c1 1 3 0 4-1v-1zM327 644h-6l-1 2v1c0 2 2 2 3 1l1-1c1 0 3 1 3-1v-2z"/>
      <path class="st27" d="M388 621h-3c-1 1 0 2 1 3l3-1c1-1 0-2-1-2zM326 645h-2c-1 0-2 0-2 2-1 1 1 2 2 1l2-1v-2zM352 642l-2-1-2 1c-2 1-1 3 0 3l3-1 2-1-1-1zM351 653l-2 1-1 2h3c2-1 1-3 0-3zM369 628h-4c-2 1-1 2 0 2 1 1 3 0 4-1v-1zM346 670v3h4l2-1c0-3-4-2-6-2zM391 649l-4-1v3l4-1v-1zM386 677c-2-2-4-1-6 0-1 0-1 2 1 2l5-1v-1zM400 682l-3 1c-2 1-1 3 0 2l4-1-1-2zM409 694h-3c-2 0-2 3 0 3h4c2-1 0-3-1-3zM303 646c-1-2-3-1-4 0v2c2 0 3 1 4-1v-1zM304 653h-3c-2 0-2 3 0 3 1 0 3 0 3-2v-1z"/>
    </g>
    <g>
      <path class="st24" d="M338 745c-4-1 80-114 87-114 6 0 91 74 93 79s-173 37-180 35z"/>
      <path class="st25" d="M497 706c-9-14-25-18-35-31-9-11-19-22-33-27-15-5-17 12-28 20-7 5-8 5-12 14-3 8-2 12-9 18-6 5-9 3-14 11-4 8-4 14-13 17 8 9 16-3 23-6 11-6 18 0 30-1s19-11 31-10c10 1 18 5 28 4 6-1 25-2 27-4l5-5z"/>
      <path class="st25" d="M436 705l-3-1-2 1c-3-2-8-1-11 1s-8 6-5 10c6 8 26-1 21-11z"/>
      <path class="st24" d="M441 708l-3-1c-6 0-13 2-16 7-2 1-1 3 1 4l2 1h1c7 2 16-1 17-9 0-1 0-2-2-2zM401 687c0-1-1-2-3-2-4-1-9 2-13 6-2 2-4 5-4 9l1 2v1l3 2 7-5c5-2 9-7 9-13zM411 681l-2 3-2 1c-1 2 1 4 3 3l4-5c1-1-1-3-3-2zM459 681c0-2-1-4-3-3-3 0-7 2-10 4s-7 5-5 9 8 2 11 1c4-2 9-7 7-11zM422 698v-1l-1-1c-2 0-4 2-3 4 0 2 2 2 3 1l1-1v-2zM437 649l-3-2-5 2-4 3-1 2-2 5c0 2 1 3 3 3l5-2c4-1 7-6 7-11zM485 704v-1l-2-1-4 1c-3 1-4 3-3 6 0 1 2 2 3 1l6-3v-3zM382 715c-3 0-6 1-8 3v1 2c1 3 4 2 5 1 2-2 5-4 4-6 0-1 0-2-1-1z"/>
      <path class="st29" d="M434 635c-2-2-5-5-8-5l-1 1 7 6 8 5-6-7zM516 705l-11-11-20-17c-15-11-30-21-43-33 0 0-1 0 0 0 10 12 23 22 35 32l19 15c6 5 13 10 18 16 1 1 3 0 2-2zM463 721l-60 13c-12 2-23 5-35 6-10 1-20 1-29 5v1c22-1 44-5 65-10 20-4 41-5 60-12 2-1 1-3-1-3z"/>
      <path class="st29" d="M517 709c-10 6-19 8-30 10-9 1-21 0-29 4v1c11 1 23-2 34-3 8-1 22-3 26-11 1-1 0-2-1-1zM430 727c-9-7-22-1-30 5-1 1 0 2 1 2l11-4c6-1 10 0 15 1 3 1 4-3 3-4z"/>
      <path class="st29" d="M421 728c-5-4-13 1-17 4-1 1 0 2 1 2l8-2c3 0 6 0 8-2v-2z"/>
      <path class="st29" d="M430 725l-24 1c-7 2-11 7-18 9v2c6 1 9-2 14-5 8-4 19-2 28-2 3 0 3-5 0-5zM450 683c-2 0-4 2-5 4l2 2 4-3c1-1 0-3-1-3zM377 726l-7 4c-1 1 0 3 1 3h1c3 0 5-2 7-4 1-1-1-3-2-3zM393 690c-3 0-5 2-5 5v1h1l1 1c2-1 5-2 5-5 0-2-1-3-2-2zM380 688c-3 2-3 5-4 8l2 1 4-7c1-1-1-2-2-2zM435 650l-1-2-2-1c-2 1-5 4-5 7 1 1 2 2 2 0l1-1 5-2v-1zM431 633h-2l-2 1-2 4c-1 2 2 4 3 3 2-1 3-2 3-4v-1-3zM481 682c-1-2-4-5-7-5l-1-1c-1-1-3 0-2 1l1 1c0 2 1 2 2 3l4 4c2 1 4-1 3-3z"/>
      <path class="st27" d="M434 710l-3-1-4 3c-1 1 0 3 1 3l5-2 1-2v-1zM450 683l-3 2 1 2 3-2-1-2zM431 648c-1 1-3 2-3 4 0 1 0 2 2 1 1 0 3-2 3-4l-2-1zM429 635l-1 1v1c-1 1 0 2 1 1l1-2-1-1zM390 693l-3 3c0 2 2 3 3 2l2-4-2-1zM410 682l-3 2c-1 1 1 3 2 2l3-3c0-1-1-2-2-1zM373 728l-3 2c-1 1 0 3 1 2l3-2-1-2zM351 733c-2 0-3 2-4 3l2 2 3-3c1-1 0-2-1-2zM481 705l-2 1v2c2 1 3 0 4-2l-2-1zM402 659l-1 2 1 1 1-2-1-1zM430 671l-3 3c-1 1 1 2 2 1l2-2-1-2zM418 700h-1l1 1v-1zM504 703l-4 2c-1 1 0 3 2 3l3-3c1-1 0-2-1-2zM403 707c-3-2-6 2-7 4 0 1 1 2 2 1 1 0 6-3 5-5zM372 710c-2-1-3 1-4 3-1 1 1 3 2 1l3-3-1-1z"/>
    </g>
    <g>
      <path class="st24" d="M416 720s101-117 110-122c9-6 57 137 59 145 3 8-160-21-169-23z"/>
      <path class="st25" d="M549 728c-8-8-19-10-30-9-13 1-14 0-25-5s-18-1-29 0c-12 1-18-7-29-6-2-10 11-13 16-18 8-7 7-14 15-20 8-7 12-7 18-16s12-11 19-18c6-6 5-20 15-22 8 6 3 13 6 21 4 9 13 10 14 21 0 4-3 9-2 13 2 5 8 7 10 11 7 10-1 14 1 23 0 4 15 20 3 21l-2 4z"/>
      <path class="st30" d="M483 667l-3 4v5c1 1 2 2 4 1 1 0 1 0 0 0l2-1 1-1c2-2 2-4 2-6 0-4-4-4-6-2zM509 635c-2 2-4 6-4 10-1 1 2 3 3 1l5-9c0-2-2-4-4-2zM485 680c-4 1-7 4-9 8l-2 6v3l-1 3c0 2 2 3 3 2 5-1 5-5 5-9 1-4 3-7 6-9 1-1 0-4-2-4zM468 682c-4 2-7 5-7 9-1 1 2 3 3 1l6-7c2-1 0-4-2-3z"/>
      <path class="st25" d="M501 633c-2 0-2 3 0 3s2-3 0-3zM418 720v0z"/>
      <path class="st24" d="M540 667c-1-2-4-3-7-3l-1-1c-2-1-4 1-4 2v2c-2 1-2 3-2 4 0 3 1 6 3 8l2 3 3 1h1c1 2 4 1 5-1v-4c1-3 2-7 0-11zM508 684h-4l-4 7c-2 3-2 7-2 10l4 8v1c1 2 3 2 4 1h1l5-4c5-7 3-18-4-23zM526 695l-2-3h-1c-2-1-4 0-4 2v4c0 3 4 3 5 1v-1l2-3zM489 667c0-2-3-2-4-1-7 4-13 11-14 19-1 3-2 7-1 11 1 2 3 2 5 2 13-3 18-19 14-31zM468 683c0-1-2-2-3-1h-1l-2-1c-4 2-9 5-10 10l1 5c0 1 1 2 2 1l1 1c4 1 7 1 10-2s3-9 2-13zM513 640c-1-1-3-1-3 1v4l1 2c0 2 4 1 4-1l-2-6z"/>
      <path class="st29" d="M585 741l-28-79-13-33c-4-11-9-22-16-31-1-1-4 0-3 2 15 20 20 45 28 68l15 36c6 12 8 26 13 38 1 3 5 1 4-1z"/>
      <path class="st29" d="M580 740c-15 0-29 0-44-3l-41-8-39-4c-13-1-25-5-37-6-1 0-2 1-1 2 9 6 23 6 34 8 14 1 28 4 41 6 16 2 31 3 46 6 13 3 28 6 41 4 3 0 3-4 0-5zM535 672l-1-2c-1-1-4 0-3 2v1l1 2h2l1-3zM562 699l-5-6c-2-1-4 0-5 2v8c-1 5 2 10 7 11h3l2-2 1-1c1-4 0-9-3-12zM562 721c-1-1-4-1-4 1-1 2-1 5 1 7 0 1 2 1 2-1l3-2c1-2-1-4-2-5zM483 678c-1-1-2-2-4-1l-3 4c-3 2-2 6-1 8s2 2 4 1c4-2 5-8 4-12zM507 691c1-3-2-4-4-4-1 1-2 2-1 3l1 5 2 1h1l2-2-1-3zM533 630v-1-2l-3-2c-2-1-4 1-3 3l2 5c1 2 4 2 4 0v-3z"/>
      <path class="st29" d="M540 733c-4-8-16-9-24-5h-1l-2 1v5l3 1c6 5 16 4 23 2 2-1 2-3 1-4zM485 722c0-1-1-2-2-1l-5 1c-2 0-3 4-1 5h8c1 0 2-1 1-2l-1-3zM460 690l-2-2c-3 1-4 6 0 5l1-2 1-1zM458 723c-1-4-5-7-10-8-3-2-9-2-12 1-1 1-2 3-1 4l3 3 2 2 6 2h10c2 0 3-2 2-4z"/>
      <path class="st27" d="M534 670h-2c-1 1-2 5 0 6h1c2-1 1-4 1-6zM533 628c0-2-3-2-3 0l1 3h1l1-3zM501 654c-1-1-2-2-3-1l-1 7c0 2 3 2 3 0l1-6zM513 641l-2 1 1 3 1 1c2-1 2-4 0-5zM548 661c-1-1-3 0-3 2l1 3c1 2 4 1 4-1l-2-4zM477 682c-1 1-2 3 0 5h1l2-4c0-2-2-3-3-1zM454 692l-1 2 1 1 1 1 1-3c1-1-1-2-2-1zM508 691c0-2-2-1-3 0v5c0 3 4 2 4-1l-1-4zM448 719c-2-2-3-3-5-2s-2 3-1 3l3 1c2 2 4 0 3-2zM471 715c-1 2-2 4-1 5h1l2-3c1-1-1-3-2-2zM534 731c-1-2-4-2-6-2s-3 3 0 4l5-1 1-1zM542 710c-1-1-2 0-2 1 1 2-1 4 1 5h2c2-1 1-5-1-6zM433 705c-2 0-3 3-2 5h2l1-4-1-1zM481 651c-2 0-3 3-4 4l2 1c2-1 3-2 3-4l-1-1z"/>
    </g>
    <g>
      <path class="st24" d="M567 785s145-78 156-87c11-8-137-55-151-55l-5 142z"/>
      <path class="st25" d="M572 774c-4-13 14-12 13-22-1-8-6-15-7-23 0-6 1-9 4-14 3-7-1-14-2-22-1-6-4-15-2-21 1-4 5-6 6-10 5-1 9 5 13 8 8 9 18 1 28 3 13 3 21 11 34 10 9-1 25 10 25 20 2-3 10-6 13-2 5 5-10 8-13 9l-22 1c-8 0-9 4-12 10-4 9-8 15-16 19-7 3-16 2-21 8-6 8 0 14-12 14-5-1-9-1-14 1-6 4-9 11-16 14l1-3z"/>
      <path class="st24" d="M688 700c-4-3-8-5-12-5h-1v-1h-5c-2 0-3 3-2 5 4 3 7 5 11 4l7 2c3 0 4-4 2-5zM635 683h-1-2c-2 1-2 4 0 5a63 63 0 0 0 7 4c5 3 11 5 14 0 4-9-12-11-18-9zM619 718l-3-1-2-1h-1v1c-1 0-2 1-1 2 1 2 4 1 6 1 1 0 2-1 1-2zM618 693c-4-3-8-5-13-5-3 0-8 0-8 4-1 1 0 1 1 2h1l1 2c5 2 12 4 17 1 2 0 3-3 1-4zM624 740l-9 1h-1c-3 1-7 2-9 4-2 1-2 3 0 4 7 3 18 2 22-5 0-2-1-4-3-4zM590 728c-2-1-7-3-8 1-1 1 1 3 2 3l1-1v1l4 2 3-2v-2l-2-2zM571 761c-5-1-3 13-2 15 0 1 3 2 3 0l1-8c0-2 1-7-2-7zM592 748l-1-2-1-1-3 1c0-1 0 0 0 0l-1 2c0 2 1 2 3 3l2-2 1-1zM591 672v-1l-2-1c-2-2-8-5-9-1v3h4l4 3 3-2v-1zM648 728c0-1-1-2-2-1h-1c-4-8-20-7-17 4 1 5 8 5 12 4l7-2c2-1 2-3 1-5z"/>
      <path class="st29" d="M573 658h-2l-1 26-3 34c-3 22 1 43-1 65-1 2 3 2 3 0 4-21-1-43 1-64 2-10 4-19 4-29s1-22-1-32z"/>
      <path class="st29" d="M606 763l-19 11-10 5c-3 1-7 1-9 4v1c6 2 14-3 18-5 7-4 17-8 21-15l-1-1zM628 751c-3 0-5 3-8 5l-11 6 12-5 8-5c1-1 0-1-1-1z"/>
      <path class="st29" d="M715 702c-9 4-16 10-26 14-9 3-17 8-26 13l-58 35 1 1c19-9 39-19 57-30l28-17c8-5 17-8 25-14 2-1 0-3-1-2zM611 662c-4-4-11-7-17-6-1 1-2 4 0 5 4 3 9 5 14 6 2 0 3 0 3-2 1 0 2-2 0-3zM608 691v-1h-1-1c-1-1-2 1-2 2l1 1c1 3 5 0 3-2zM580 706c0-2-1-3-3-3-1-1-4-1-4 1l-1 7v7c0 4 5 3 5 0v-3c3-2 4-5 3-9zM637 727h-2-1l-4 1v2l3 1h6c2-2 0-5-2-4zM647 687a23 23 0 0 0-4-2l-7-2c-2 0-3 2-2 4l1 2h1c3 4 7 4 11 2v-4zM613 744h-3l-3 1v2c2 2 6 2 8 1 1-1 0-4-2-4zM681 699c-1-2-3-1-5-1-2-1-2 1-1 2l5 2c1 0 3-2 1-3zM702 689l-4-4c-4-2-10-3-14-1l-2 2v2l1 1 5 4c3 2 8 4 11 2 2-1 3-3 3-6zm-7 2l-5-1h-1l1-1h3l3 2h-1zM660 719c-2 1-2 3 0 4h3l2 1 2-2c1-4-5-4-7-3z"/>
      <path class="st29" d="M690 688v3c2 1 6 3 7-1 1-3-5-3-7-2z"/>
      <path class="st27" d="M638 667c-1 0-2 2-1 3s5 4 7 1c1-2-4-3-6-4zM605 659c-2-2-4-2-6-1v3l3 1c2 2 5-1 3-3zM608 691c-2-1-4 1-2 2l3 1 1-1-2-2zM583 669v3c2 1 4 1 5-1 0-2-3-2-5-2zM627 690l-4-2c-2-1-3 2-2 3l5 2c2 1 3-2 1-3zM636 730l-5-1v3c2 0 4 1 5-1v-1zM681 699l-6-1c-1 0-2 3 0 3l5 2c2 0 3-3 1-4zM647 686l-3 1v3h3c3 0 2-4 0-4zM577 744h-4c-2 0-2 2-1 3 2 0 5 0 6-2l-1-1zM589 729l-2-1v3l2-1v-1zM614 744c-1 0-2 2 0 2h5l1-1c0-3-4-2-6-1zM695 689l-4-1c-2 0-2 3-1 3l5-1v-1zM665 719h-4v2l4-1v-1zM593 762l-5 2v3c3 0 6-1 7-3l-2-2z"/>
    </g>
  </g>
</svg>
