<svg version="1" id="Layer_1" xmlns="http://www.w3.org/2000/svg" xmlns:xlink="http://www.w3.org/1999/xlink" viewBox="0 0 1000 1000">
  <style>
    .st1{fill:#f5b438}.st2{fill:#ffd05e}.st3{fill:#d38700}.st4{fill:#ffdf8c}.st5{fill:#cc1303}.st6{fill:#fbac00}.st7{fill:#ec9800}.st8{fill:#c52409}.st9{fill:#dd3407}.st10{fill:#ff6444}.st11{fill:#abaaaa}.st12{fill:#f0b64b}.st12,.st13{clip-path:url(#SVGID_2_)}.st14{fill:#e6a62b}.st15{fill:#ffeab9}.st16{fill:#cf742b}
  </style>
  <path d="M454 200c-102-3-150 7-192 30-43 22-196 145-203 227-6 81 42 203 143 253s253 83 314 75c60-9 255-48 319-95s103-114 99-172c-5-57-33-182-148-242a678 678 0 0 0-332-76z" fill="#ed1b01"/>
  <path class="st1" d="M478 235c-24-5-46-11-71-11-24 0-45 10-68 15-20 6-46 11-61 27-9 9-9 16-22 20-10 3-20 4-30 8-24 10-31 34-51 48-17 14-35 17-46 39-10 18-19 40-20 62-1 13-2 21-5 34-3 10-5 20-1 30 5 11 17 17 23 27 6 11 1 23 6 35 8 21 35 25 47 44 17 24 14 42 50 42 34 0 29 21 49 41 20 21 42 13 67 15 27 3 43 26 72 26 30 0 62 3 91-2 22-4 46-15 69-15 25 0 42 9 62-10 21-20 42-12 68-18 22-5 43-19 64-26s30-25 44-42c14-18 33-28 49-44 13-13 32-34 28-52-2-12-7-17-5-30 3-12 6-20 0-33-10-17-27-31-33-49-4-14-6-20-17-31-9-10-20-18-28-28-17-22-24-37-51-47-24-9-41-30-66-37-28-7-51-14-78-25-13-5-24-9-37-10-18-2-33 5-51 7-16 1-32-7-48-10z"/>
  <path class="st2" d="M437 246c-20-4-38-9-59-9-20 0-39 8-58 13-17 4-38 8-51 22-8 8-8 13-19 17l-25 7c-20 9-27 28-43 41-15 11-30 14-39 32-9 16-17 34-17 52l-4 29c-3 9-5 17-1 26s14 14 19 23 1 19 5 29c7 18 30 22 40 37 14 21 12 36 42 36 29 0 25 17 42 35s35 10 56 13c23 2 37 21 61 21 25 0 53 3 77-1 18-4 39-13 58-13 21-1 36 7 52-9 18-17 36-10 58-15 18-4 36-16 54-22s25-21 37-36 28-23 42-37c11-11 27-28 24-44-3-10-7-14-5-25 2-10 5-17 0-27-8-15-23-27-27-42-4-12-6-17-15-26-8-8-17-15-24-24-14-19-20-31-43-40-20-7-34-25-56-31-23-6-43-11-66-21-10-4-19-7-31-9-15-1-28 5-42 6-14 2-28-6-42-8zM788 581l-1-2-3-3c-4-5-10-7-16-4-2 1-4 3-4 6l1 4c0 4 2 8 5 11 3 2 6 3 10 3 3 0 6-2 8-5s1-6 0-10zM805 512c-3-1-7-1-10 1s-4 7 0 10l4 1 7-2c4-2 3-8-1-10zM717 670c-3-2-7 1-7 4l1 4v1c0 4 4 6 7 6s5-3 5-6c0-4-2-7-6-9zM608 642c-3 1-4 2-5 4v2c-1 2-1 4 1 6 1 2 4 2 5 0 2-1 3-4 3-6 0-3-1-6-4-6zM403 697l-1-1c-1-3-5-4-7-2-2 0-2 1-3 2l-4 4-2 7-1 4c-1 3 1 5 3 6l3 1c2 2 5 4 8 2 6-4 11-17 4-23zM331 697l-1-3s0-2 0 0c-1-2-4-3-5-1 1 0 1 0 0 0l-3 3v4c0 5 8 5 9 0v-3zM869 463c0-3-2-7-4-9-4-3-11-4-13 1-1 4 1 9 3 12 2 4 6 7 10 9 3 1 7-1 7-5l-3-8zM117 501v-8c-1-2-3-3-5-3-3 0-5 2-5 5 1 4 0 8 2 11 3 4 9 1 8-4v-1z"/>
  <g>
    <path class="st3" d="M225 290l6 5 16 15 12 11 7 5 8 6c11 6 25 14 37 25l20 16 5 4 6 4 11 9c15 11 32 21 50 32l55 32c18 11 37 23 57 32l30 14 15 7 14 8 7 4 7 3 3 2 2 1h1l1 1 7 3a111 111 0 0 1 37 31l3 3 2 2 6 5 25 15 24 12 22 14 39 24a937 937 0 0 0 56 32l-2 4-27-15a923 923 0 0 0-30-17l-39-21-23-14-22-16-24-16-6-5-3-2-3-3a136 136 0 0 0-38-25l-7-2-8-3-15-6a270 270 0 0 1-56-35c-19-12-37-24-56-34l-56-32-51-31-6-3-6-4-10-9-10-10-9-8c-13-11-25-18-37-25s-21-15-28-22c-7-6-12-12-15-16l-5-7h1z"/>
    <path class="st3" d="M526 203l2 6 2 19v13l-1 8-1 8-9 36-10 43-11 47-5 25-6 26-6 27-2 13-1 14c-3 18-8 35-12 52l-6 26-7 25-4 25-4 24-7 21a983 983 0 0 0-18 84 136 136 0 0 0 0 25h-4l-1-6v-19c2-16 6-38 13-65l5-20 7-22 4-23 4-25 6-25 6-26 5-26 5-27 4-13 4-13 4-26c3-18 4-36 8-52l11-48 11-43 9-36a98 98 0 0 0 2-45l-1-6 4-1z"/>
    <path class="st3" d="M126 611l9-3 22-8 16-6 18-8 22-8 13-3 6-1 5-2 24-14c8-5 17-10 27-14 10-3 20-4 31-6l15-3 7-3 2-1 1-1 4-3c9-7 19-12 29-18l32-13 16-6 17-7 32-14 31-17 8-3 9-3 17-3 9-2 3-2 4-2 15-9c10-5 20-11 31-15l15-6 7-3 7-4 28-13 28-11 24-12 6-3 6-3 11-5 21-10 35-14 23-7 9-1 1 4-8 4-22 8-35 12-22 8-23 10-25 12-26 15-28 14-7 3-8 3-16 5c-10 2-21 7-30 13l-15 9-4 2-4 2-8 3-17 5-8 2-8 3-33 14-32 15-17 6-16 7-31 14c-10 5-21 9-29 16l-3 2-2 2-2 1-8 4-16 3-30 7c-9 3-17 9-25 14l-24 14a71 71 0 0 1-13 5l-12 2a678 678 0 0 1-40 15l-16 6-23 7-8 3-2-4z"/>
  </g>
  <g>
    <path class="st4" d="M495 439c9-18 19-36 22-54 4-20 6-39 8-59 4-34 9-72 50-75 19-2 30 14 47 20 16 5 33 3 50 9 15 7 30 13 32 31 1 19-22 23-37 28-17 6-36 16-51 26-15 11-25 25-38 38-12 12-30 9-44 17-10 5-28 31-40 22l1-3zM349 368c23 20 46 39 72 56 9 7 42 23 30 1-11-19-24-37-33-57-8-18-4-38-13-56-6-10-13-19-18-29l-10-25c-14-22-43-1-60 5-11 5-20 5-30 13-5 5-9 11-16 14-10 5-19 3-9 14 7 9 19 15 28 21 20 14 40 27 59 43zM196 345c-5 7-11 14-18 19-15 11-29 18-38 34a96 96 0 0 0-14 50c-1 16-15 39 11 43 8 2 17-4 25-8 11-5 22-10 35-14 26-7 56-12 83-12 24 0 46-7 70-7l40 3c5 1 24 7 27 5 11-8-40-28-45-30a427 427 0 0 1-86-45c-12-5-15-11-23-22-10-13-22-33-37-40-19-9-22 12-30 24zM443 492c-22 13-42 31-65 43-19 10-38 14-58 19s-40 15-60 19c-11 2-19 7-28 11-8 3-19 0-26 5-13 10-14 32-1 41 17 13 37 6 56 10 23 6 28 37 52 11 15-17 21-35 42-45 17-7 39-22 49-37 7-10 10-19 18-27 9-9 31-34 25-47l-4-3zM479 538c-1 19 1 37-3 54l-11 53c-4 18-15 34-17 51-7 46 72 15 91 11 17-4 34 4 51 0 16-4 29-21 19-37-9-14-24-24-34-37-15-19-30-42-41-63-7-13-11-27-17-41-4-10-20-47-33-31-7 9-4 29-5 40zM628 418c11-5 22-15 34-19l25-6c20-6 39-18 60-24 17-5 40-12 52 5l31 44c9 15 18 28 1 40-18 12-43 14-64 16-29 3-56-2-85 0-25 1-44 22-69 24-21 2-37-6-56-12-14-5-32 1-44-9-14-11 6-11 16-15 35-10 67-27 99-44zM584 544c-4-3-10-8-16-5l-2 1v1c-2 1-3 4-2 6 4 6 12 8 19 5 3-1 4-5 1-8zM534 516l-1-1-2-2-1-1c-1-1-3 0-4 1-1 2-2 4 0 6l2 2c3 3 8-2 6-5zM411 476c-1-4-5-7-9-7l-7 2c-4 0-8 3-8 7 1 5 5 7 9 8 7 2 17-2 15-10z"/>
    <path class="st4" d="M371 415l-1-1h-1l-3-2h-1l-2-1-3-2c-2 0-4 1-5 3s0 4 1 5c3 3 7 5 11 6 4 0 8-5 4-8zM266 510c1-4-2-8-7-7l-9 3c-5 3-6 12 0 14s12 0 15-5c1-2 2-3 1-5zM253 475l-3-1c-4 1-4 7 0 7 3-1 5-3 3-6zM463 320c-1-1-3-2-5-1l-4 3-2 3c-1 2 0 5 1 7l3 2c3 2 6 2 8-1 4-3 3-9-1-13zM499 286c0-4-2-6-6-7h-1l-8 4c-2 4-5 11-2 15l1 1c1 2 4 1 5 0l2 1c5 2 8-3 9-7v-7zM487 263c-1-2-4-3-6-2v1l-1 1-2 5c-1 2 1 4 3 5 5 1 8-6 6-10zM465 420c-1-3-4-3-6-2l-1 2c-2 1-2 4 0 5l1 1h5c2-1 2-4 1-6zM490 449h-1c-3 1-4 3-4 6s4 5 7 4l4-6c2-4-3-7-6-4zM474 451l-1-2-4-3c-3-2-7 1-6 4l5 7c3 3 9-2 6-6zM556 418c-5-1-14 3-18 9h-1c-3 2-3 7 1 9s10 0 14-2c5-2 10-5 10-11 0-3-3-5-6-5zM608 391l-3 2c-2 1-3 5-1 7s5 2 7 1c2-2 3-4 3-7s-3-4-6-3zM692 341c-4-5-10-3-14 0-3 1-5 3-6 6-1 1-2 3-1 5-1 3 1 6 4 6 4 1 9-1 12-4 4-3 8-8 5-13zM663 547c-3 1-5 4-5 7 0 5 5 9 10 10 4 1 10-1 11-6 1-8-10-16-16-11zM630 589l-1-3-1-2c-2-2-5-1-7 0-3 1-2 4-1 6l1 2 3 1c3 2 6-1 6-4zM399 623c-4-5-8-5-12-2l-3 1-5 8-3 12 2 2 2 2c1 2 3 3 6 3 6 1 10-4 12-10 2-4 4-12 1-16zM463 484c-3 1-5 2-6 4-3 2-3 5-1 7s5 2 8 0c2-1 4-4 4-6 0-3-3-5-5-5zM224 553l-1 1h-7l-1 1c-7 1-13 3-15 10-3 10 9 11 15 10 5-1 11-5 13-10l3-4c3-4-2-9-7-8zM342 520c-2-3-5-4-8-3l-3 1c-3 0-5 1-6 4s1 5 3 7h9c5-1 7-5 5-9zM233 309c-3-4-7-5-11-4-3 1-5 4-3 7l2 4c3 3 7 2 10 0 3-1 3-4 2-7z"/>
  </g>
  <g>
    <path class="st5" d="M905 443l-16-22c-6-10-9-21-14-31-8-15-27-25-38-38-9-11-15-22-24-31v-1c-7-18-32-21-48-28-20-9-36-36-59-35-3 0-3 3-2 5 11 13 28 27 42 36 19 11 40 16 59 29l20 33c8 12 21 21 31 31 13 13 17 36 27 50s12 32 23 45c2 3 6 2 7-1 5-15-2-29-8-42z"/>
    <path class="st5" d="M917 514c-5-14-4-29-8-43-1-2-3-1-4 1-4 13-8 24-6 39 2 8 4 19 8 27-12 14-18 32-31 46-12 13-27 24-40 36-11 11-18 26-29 36l-2 1c-27 18-57 28-88 38l-95 38c-15 5-31 2-46 4-17 1-34 8-51 10-17 1-33-2-50-3s-36 5-53 2c-5-1-8 7-3 9 11 6 23 4 35 4l57 3c20 1 39-5 59-9 17-2 33 0 50-3 16-3 31-13 46-20l56-19 54-20c13-5 26-10 35-20 14-8 27-31 36-41 24-24 64-47 68-84 3 1 6 0 7-3 5-10-2-19-5-29z"/>
    <path class="st5" d="M422 750c-10-16-34-17-51-21l-44-10c-15-2-31-3-46-8-7-12-20-24-29-31-15-12-30-14-47-18-8-12-20-24-28-33-11-13-26-27-43-32-19-16-19-34-24-58-3-15-22-31-35-38-3-1-6 1-6 4 1 10 6 15 12 22 13 14 11 28 15 45 4 16 15 40 35 40l2-1 6 4c11 8 19 17 27 28 12 14 23 37 41 45 4 2 8-2 7-6v-1c7 2 16 5 22 10 10 6 17 15 25 24 5 7 8 14 16 18 5 2 9-1 9-6v-3c17 11 40 13 60 18l42 10c10 2 19 7 29 7 5 1 7-5 5-9zM333 204c-24 3-42 11-59 27-16 15-29 32-48 40 3-4 4-9 5-14 2-6-5-10-10-7-8 5-11 10-17 19-6 10-14 19-23 27-18 18-37 30-57 44-4 2-3 8 1 8 20 4 42-14 56-26 10-9 22-19 31-30 15 5 38-11 48-20 12-11 22-24 35-35s32-10 42-23c3-4 1-10-4-10zM627 222c-37-23-79 2-117-7-18-4-33-12-52-13-18-2-36-2-53 4-3 1-2 5 1 6 16 6 34 5 51 7 19 3 37 12 56 16 18 4 38-2 56-4 19-2 39 3 57-1 5-1 4-6 1-8z"/>
    <path class="st5" d="M141 328c-30 15-46 57-53 88-4 21-6 43-8 64-2 16-3 33 5 47 2 3 8 2 9-2 2-16 0-32 2-48 1-17 4-34 6-50 3-19 9-37 19-53 8-15 21-26 26-42 1-4-3-6-6-4zM744 272c-20-22-54-25-81-32-30-8-61-24-94-21-4 0-6 5-3 9 6 6 13 6 22 7 17 2 34 11 50 16l51 16c16 4 30 12 46 18 8 3 16-6 9-13zM637 730c-13-3-26-1-39 0l-46 4c-33 5-65 10-99 8-66-6-128-31-194-39-6-1-9 6-4 9 29 15 59 20 90 27 35 7 66 17 101 20 32 2 63 1 94-4 20-3 39-6 58-7 15 0 28 0 41-6 5-3 3-11-2-12zM514 212a330 330 0 0 0-241 30c-25 13-47 32-72 45-5 2-3 10 1 10 20 2 35-11 50-21a323 323 0 0 1 172-56c30 0 59 6 89 9 10 1 10-14 1-17zM893 419c-27-49-70-108-123-131-4-2-7 3-4 6 34 39 72 72 100 117 15 23 27 49 34 76 7 31-4 55-13 84-3 10 11 13 16 6 33-51 17-109-10-158z"/>
  </g>
  <g>
    <path class="st6" d="M589 382l-1-3c-1-4-4-6-8-4-4 1-6 4-6 8v2l1 2c0 2 1 3 3 3h1c3 2 8 1 10-3v-5zM505 245c-2-1-6-1-8 1-3 2-4 5-3 8 2 3 4 6 7 7 5 3 14 1 14-6 0-5-5-10-10-10zM423 356c-3-2-8 0-7 3v1c-1 3 1 6 4 6l5-3c3-2 1-7-2-7zM332 272l-2-3c-5-4-11-3-17-3-2 0-4 2-4 4-1 12 12 13 21 11 4-1 4-6 2-9zM342 358c-3-1-6 1-5 4s6 4 7 1c2-2 1-5-2-5zM681 406l-1 1v-1h-2l-3 1-3 4c-3 2-1 6 2 7l4 1c5-1 8-4 8-8 0-3-3-5-5-5zM679 406c1 0 1 0 0 0z"/>
    <path class="st7" d="M841 403l-1-3-3-6c-1-2-4-4-6-4-3 0-6 1-7 4-1 7 4 15 11 17 2 0 5-1 6-4v-4z"/>
    <path class="st6" d="M725 522c-2-5-8-5-13-3-3-1-6 1-8 4-1 3-2 6-1 10l1 2 4 4c5 2 10-2 13-5l3-5c1-2 2-4 1-7z"/>
    <path class="st7" d="M812 589c-2 0-4 2-6 4-5 2-10 7-8 12s7 6 11 5c3 0 7-3 9-5 2-3 5-6 4-10 0-5-5-7-10-6z"/>
    <path class="st6" d="M771 530c-1-4-4-4-7-3-3 0-3 4-1 6l1 1 2 1c3 1 6-2 5-5zM551 473c-4-1-8-2-11-1-3 0-6 3-5 6-1 9 13 9 17 3 2-2 2-6-1-8zM438 462c-1-3-3-5-6-6-3-2-5-2-8-2s-6 3-5 6c3 7 11 11 17 7 2-1 3-4 2-5zM572 603c-3-4-9-5-14-4v1c-3 0-5 2-5 4-1 3 1 5 3 6 4 3 10 4 14 1 3-2 3-5 2-8zM582 592c-1 0-2 0-3 2v4l4 2c2 0 5-2 5-5s-3-4-6-3z"/>
    <path class="st7" d="M555 711l-2-4c-2-2-6-3-10-3-3 0-7 2-9 5-2 4 0 7 3 9h2c3 3 9 3 12 1l1-1 2-1c2-1 2-4 1-6zM641 693l-5-1-5 3c-2 2 0 6 2 6l6 1c3 1 5-1 6-4 1-2-1-5-4-5zM169 558h-10l-7 2c-3 2-3 6-1 9l2 1 6 4h6c4 1 9-1 11-5 3-5-2-10-7-11z"/>
    <path class="st6" d="M207 422l-3-3h-5c-5 0-6 6-3 9 2 3 6 4 9 3 4-2 5-6 2-9zM297 525c-1-2-5-4-7-4h-1l-1-1h-6c-3 0-6 0-8 2l-1 3h-1c-1 14 16 16 24 9 2-2 2-6 1-9zM353 578l-1-1v-1l-1-3h-6c-2 1-3 3-2 6l5 4c4 2 7-2 5-5zM210 613c-3-6-11-10-18-7-3 2-5 6-2 9l1 1c1 3 3 5 6 6h9l3-3c2-1 2-4 1-6zM222 330c0-3-2-5-4-7-2-1-5-2-7 0-3 2-3 6-2 10 1 1 2 3 4 2l3-1c3 0 5-1 6-4zM497 495c0-3-2-5-5-5h-2l-2 1c-3 1-5 3-4 6l2 4 3 2h1c3 2 7 0 7-4v-3-1zM286 419c-1-4-4-7-7-9h-3l-3-1c-3 0-5 4-4 7l5 6 4 4c3 1 5-1 6-3l2-4z"/>
  </g>
  <g>
    <path class="st1" d="M813 491c-11-2-24 2-35 2l-27-4c-10-3-19-7-27-13-8-7-10-14-13-24h-2c-4 20 17 34 33 40 10 4 20 6 31 7 13 1 29 2 41-4 1-1 1-3-1-4zM663 485c-4 11-10 14-21 17-10 2-22 2-33 0-14-2-34-12-38-27h-2c-3 19 25 30 39 33 21 4 54 3 60-21 1-3-3-4-5-2zM701 479c-3 15-11 28-22 38-7 7-49 34-51 10h-2c-5 5 0 10 5 13 9 5 21 0 29-4 22-10 43-30 46-55 1-4-4-5-5-2zM693 640c-7-1-14 0-21-3-6-2-11-7-14-13-9-13-5-27 4-38l-1-2c-15 4-16 26-12 37 6 17 27 31 44 23 2 0 3-3 0-4zM690 682c-14-14-36-26-56-22-12 3-21 9-30 17-6 5-15 13-15 22h2c11-13 23-28 41-33 20-5 39 9 55 20 2 2 6-2 3-4zM617 607l-10 16-12 13c0 1 0 4 2 3 12-5 18-19 24-29 2-3-3-6-4-3zM609 558c-11 9-23 16-36 20l-25 4c-9 0-18 2-26 1-3 0-4 3-1 4 8 3 18 0 27 0s18-1 26-4c12-3 31-11 38-22 2-2-1-4-3-3zM549 634c-1-1-3 0-2 1l6 15c3 9 0 18-5 25-7 10-19 16-30 20-11 5-23 6-35 6-17 1-33-2-49-2-2 0-3 3-1 3 17 7 40 6 58 5 14-1 27-5 40-11 22-11 42-42 18-62z"/>
    <path class="st1" d="M665 479c-8 25-27 26-50 24-19-1-38-8-40-29-1-6-9-5-9 0 3 24 21 36 44 38 30 2 53 0 64-31 1-5-7-7-9-2zM793 491c-15 1-30 1-45-1-17-3-25-15-32-29-2-5-9-1-7 4 6 13 14 27 28 31 18 5 38 5 56 3 6-1 6-9 0-8zM797 372c-17 25-63 20-83 4-5-3-10 3-6 6 26 21 76 24 97-6 3-5-5-9-8-4zM656 270c-3-5-10-1-7 4 10 19 15 41-11 51-10 5-23 4-34 2-24-3-38-22-42-45-1-5-9-2-8 3 7 34 32 52 66 52 14 0 33-4 41-17 10-17 3-34-5-50zM767 318c-14-7-27-13-43-14-18-2-34 7-51 14-5 2-2 10 3 8 14-6 27-13 42-14 17-1 31 6 45 14 5 2 9-5 4-8zM472 241c-1-5-9-5-9 0 4 30 1 55-31 64-13 3-27 2-41 0-20-4-28-19-26-38 0-6-8-5-9 0-1 16 1 27 14 38 14 10 35 11 52 10 43-4 55-35 50-74zM444 332c-26-17-65-9-80 20-2 5 5 8 8 4 12-26 46-31 68-17 5 3 9-4 4-7zM500 320c-8 0-16-1-23-4-2-1-8-5-10-3v1c3 3 8 4 12 6 6 4 14 6 21 7 5 0 4-7 0-7zM555 312c-6-3-13 0-19 2l-23 8c-2 1-2 3-1 4 4 4 15 0 19-2l14-5c4-2 7-2 10-5v-2zM298 360c-15 11-32 17-51 14-14-3-21-18-20-31 1-11 10-19 16-27 1-2-1-4-3-3-24 11-28 44-9 62 20 20 53 7 72-8 4-3 0-10-5-7zM322 335c-1-8-11-25-21-22l-1 2c1 3 3 4 5 6 3 3 6 7 8 12 3 6 1 14-2 19 0 2 1 4 3 4 9-1 8-15 8-21zM230 505c-10 11-18 23-33 29-13 5-29 2-41-3-19-9-21-27-13-44 9-19 28-25 46-30 2-1 1-3 0-4-36-11-80 46-51 76 30 31 84 19 97-22 1-3-3-4-5-2zM353 449c-2-1-5 1-5 3 4 11 12 22 3 34-7 9-23 13-34 14-13 2-26-2-36-10-16-11-15-25-8-40 1-1 0-3-2-2-15 5-16 20-10 34 7 17 27 29 45 30 34 2 85-28 47-63zM317 587c-2-3-7 1-6 4 5 19 18 34 8 54-7 13-22 16-35 17-13 0-26-4-36-12-24-18-18-42-9-65 1-2-2-4-3-2-35 36-2 89 44 90 50 2 69-49 37-86zM425 580c-17-4-40 8-53 19-14 13-18 29-18 46l-8 1c-2 0-2 3-1 4 4 4 8 5 13 6 3 1 6-1 6-5 0-19 3-34 19-47 12-10 29-12 43-20 1-1 1-3-1-4z"/>
    <path class="st1" d="M370 694c-23-30-68-28-95-6-2 2-2 5 1 5 15-1 29-9 44-11 20-4 30 8 46 16 2 2 5-1 4-4zM548 645c-2-3-6 0-6 3 4 15 11 27-7 38-10 7-27 9-39 11-21 3-41-1-61 1-3 0-4 2-2 4 20 18 67 6 90 0 29-8 42-30 25-57zM515 528c-2-1-5 0-5 2-2 6 1 12-2 18-2 6-8 10-13 13-5 4-12 5-18 6-5 0-10-2-15-1-2 1-3 4-2 6 9 12 33 3 43-3 12-8 25-28 12-41zM515 442l-11-7c-4-1-9-2-13-1-3 0-2 4 0 5l10 5c3 2 6 5 10 5 5 0 7-4 4-7zM666 375c-17 0-34 0-50-6s-23-20-35-31c-1-1-3 1-3 2 10 37 55 48 88 44 6-1 6-10 0-9zM543 360c-1-1-3 0-3 1 1 6 4 12 4 18 0 9-4 17-11 23-10 8-22 12-35 10-2 0-4 2-3 4 10 15 35 1 45-7 13-11 21-39 3-49zM481 406c-8-3-13-7-18-15-6-9-9-20-6-31 0-1-1-2-2-1-9 10-6 24-1 35 5 9 14 24 27 20 3-1 4-6 0-8zM392 425c-4 6-10 17-9 26l-1-1c-4 0-6 5-2 6 3 2 5 2 8 1s3-3 2-5c-1-3 1-9 3-12l6-12c2-4-5-7-7-3zM420 406c-8 2-17 5-21 13-1 1 0 2 1 2 6-1 11-5 16-6l10-1c3 0 6 1 8-1l1-2c0-7-11-6-15-5zM189 375c0-2-2-1-3 0-5 16-12 27-24 37s-26 11-40 15c-3 0-3 5 0 5 17 3 36-6 48-16 11-10 24-25 19-41zM309 393c-9-10-26-7-37-3-17 5-32 21-37 37h-3c-2 0-2 2-1 3l5 4c2 1 4 0 4-2 13-22 38-50 67-36 1 0 3-2 2-3zM702 644c-15-3-27-4-39-15-6-6-10-15-8-24 1-8 7-13 8-21l-3-2c-18 10-18 34-8 48 9 14 34 29 50 21 3-1 4-6 0-7zM651 654c-11-5-22 4-30 11-10 8-25 18-30 30-1 3 1 4 3 3 10-5 18-15 27-22l13-10c5-3 11-3 16-6 3-1 4-4 1-6z"/>
  </g>
  <g>
    <path class="st8" d="M662 309c2-4 3-10 1-17v-1h-1v-1h-1v-1-1c-3-11-13-22-37-31-31-11-61-11-69 13a28 28 0 0 0-1 17l1 1v1l1 1v1c4 15 22 27 45 37 31 13 56-6 61-19zM673 472h-1v-1-1h-1v-1-1c-4-14-19-28-48-32-28-4-59 19-54 39v1l1 1v1l1 1c3 11 15 21 43 26 44 8 64-12 59-33zM833 453v-1h-1v-1-1h-1v-1c-3-10-15-26-53-29-43-4-70 14-70 29a32 32 0 0 0 1 9v1h1v2h1v1c3 13 17 27 63 32 56 7 60-28 60-35l-1-6zM445 606h-1v-1-1-1h-1v-1-1-1h-1c-15 3-35 24-36 49a52 52 0 0 0 2 18v1h1v2c4 14 13 22 13 22s2-27 12-43c10-13 11-43 11-43zM518 542l-1-11v-1h-1v-1-1h-1v-1c-7-22-42-24-42-24s-3 32-7 40l-7 23h1v2h1v2h1v1s52 9 56-29zM242 488v-3l-1-1c1 0 1 0 0 0v-1l-1-1v-1c-5-16-26-28-55-26-39 2-53 31-53 48a37 37 0 0 0 1 7v1h1v2h1v1c3 14 17 28 57 26 45-3 53-34 50-52zM741 638v-1-1-1-1-1c-2-3-33-20-43-25-10-4-34-24-34-24s-17 13-11 32v2h1v2h1c1 6 5 11 11 18 18 20 78 3 75 0zM557 646h-1v-1-1h-1v-1c-12-44-104-42-104-42 2 9-4 52-9 64-5 11-10 31-10 31v1h1v2h1v1c26 8 125 10 124-44l-1-9v-1zM336 599v-1h-1v-1-1h-1v-1c-4-14-15-23-28-25-35-5-73-7-82 34a43 43 0 0 0 0 21h1v2h1v1c7 27 40 38 57 40 22 2 50-11 54-46 2-8 1-16-1-23zM367 457v-1h-1v-1-1h-1v-1c-5-16-28-24-53-24-28-1-54 19-53 39a25 25 0 0 0 2 9v1h1v2c5 16 26 26 56 25 34 0 50-21 50-41a21 21 0 0 0-1-7zM761 600v-1h-1v-1-1h-1v-1c-3-9-11-18-26-24-34-15-67 5-67 5h1v3h1v3c1 0 0 0 0 0h1s27 23 38 25c11 1 46 26 46 26 8-7 12-20 8-32v-2zM357 279v1h1v2h1v1c4 18 29 29 65 25 38-4 53-30 50-45v-3h-1v-1-1h-1v-1-1h-1c-4-14-23-23-60-22-32 2-57 20-55 41l1 4zM222 357h1v2h1v1c2 5 5 10 11 14 30 23 72-10 71-12v-1h-1v-1-1h-1v-1c-3-3-23-20-36-23-13-4-27-23-27-23s-25 23-19 44v1z"/>
    <path class="st8" d="M251 308v4s12 17 23 22 34 17 36 23c0 0 11-11 7-26h-1v-1-1h-1v-1-1c-2-6-6-13-13-20-24-22-53 1-53 1h2zM698 362v1h1v1l1 1v1l2 4s23-16 34-19l37-11h-1 1l-1-1h1l-1-1h1l-1-1h1l-1-1h1s-33-15-57-5c-20 8-18 23-16 31h-2zM417 535a35 35 0 0 0 2 15v1l1 1v1c7 21 34 18 34 18s1-19 5-28 8-36 8-36v-1h-1v-1-1h-1v-1h-1v-1c-9 0-45 4-47 33zM453 360a37 37 0 0 0 0 20l1 1v1l1 1c6 20 30 28 30 28 2-20 17-71 17-71v-1-1-1-1c-7 1-42-6-49 24zM495 409v5s45 3 53-28v-13-1h-1v-1-1h-1v-1c-6-22-38-31-38-31s-1 21-5 33l-10 38h2z"/>
    <path class="st8" d="M706 374v1h1v2h1v1c9 7 60 23 83 8 8-5 9-12 8-18v-1h-1v-1-1-1h-1v-1c-2-11-16-22-16-22s-28 6-38 12l-37 21z"/>
    <path class="st9" d="M411 234c-32 2-56 20-55 41 2 20 27 33 65 29 39-4 54-30 51-45-2-16-21-26-61-25zM625 257c-31-11-61-11-69 12-8 24 12 41 44 54 31 13 56-6 61-18 5-13 2-35-36-48zM624 435c-43-6-93 51-11 65 74 14 80-54 11-65zM779 419c-43-4-70 14-70 29-1 15 7 35 63 41 57 7 61-27 61-35 0-7-7-31-54-35zM452 601s104-3 105 50c1 54-98 52-124 44 0 0 4-19 10-31 5-12 11-54 9-63zM443 601s-1 30-10 46c-10 16-12 43-12 43s-16-15-14-40c1-25 20-45 36-49zM474 502s-3 32-7 40c-4 9-7 24-7 24s53 9 56-29c4-32-42-35-42-35zM465 502s-4 28-8 37-5 28-5 28-38 4-35-33c2-28 38-32 48-32zM307 570c-35-6-73-8-82 33-10 41 36 58 57 60s49-10 54-46c4-27-10-44-29-47zM313 428c-28-1-54 19-53 40 1 20 22 33 56 32 35 0 51-20 51-41 0-20-26-30-54-31zM186 454c-39 3-54 31-53 48 0 17 13 35 58 32s53-33 50-51c-3-17-25-30-55-29zM242 312s13 19 26 23c13 3 33 20 36 22 2 3-41 36-71 13-31-23 9-58 9-58zM251 308s12 17 23 22 34 17 36 23c0 0 21-21-6-45-24-23-53 0-53 0zM500 336s-15 51-17 71c0 0-39-12-30-47 7-30 42-23 47-24zM495 409l10-38c4-12 5-33 5-33s45 13 38 44c-8 31-53 27-53 27zM771 336s-33-15-57-5-16 31-14 35c0 0 23-16 34-19l37-11zM706 374l36-21c11-6 39-11 39-11s31 24 8 40c-23 15-74-1-83-8zM667 577s33-20 67-6c34 15 31 43 18 56 0 0-35-24-46-26s-39-24-39-24zM663 583s24 20 34 25 40 22 43 25-57 20-77 0c-28-29 0-50 0-50z"/>
    <path class="st10" d="M323 481c-2-5-8-6-13-6h-9c-3 2-4 3-4 6v3c0 3 1 6 4 7h3c4 2 9 2 12 1 5-1 8-6 7-11zM328 462v-1l-2-2h-8c-3 1-2 5-1 7 3 2 7 3 10 1 2-1 2-3 1-5zM303 454c-2-6-10-7-15-7-6 0-12 3-12 9 0 9 15 14 21 9l3-3c3-2 4-4 3-8zM343 440l-1-1h-2c-1-1-2-2-4-1-1 1-2 1-2 3-1 2 0 4 2 4l6 1c3 0 5-5 1-6zM221 474c-2-4-6-5-10-6-5-2-12-2-17 2-8 6-5 17 3 21 6 3 14 3 19-1 6-3 9-11 5-16zM184 495c-1-2-3-3-6-2h-2c-4 2-4 9 1 10 2 0 5-1 7-3v-5zM182 508c-4-2-8-2-12-2l-9 1-2 1c-3 1-6 5-5 9 3 9 14 13 23 12 4 0 9-3 10-7 3-6 0-11-5-14zM168 476c-3-6-13-6-15 0-2 5 0 9 5 9l3 1c6 2 10-5 7-10zM279 351a21 21 0 0 0-2 0h-3l-6 2h-1c-2-1-5-1-7 1-2 1-4 4-4 8 0 5 5 9 11 10 7 1 19-2 21-10 1-5-3-10-9-11zM255 335c-2-2-6-2-8-1-4 2-3 8 0 10l2 1c3 3 8 1 8-2 1-3 0-6-2-8zM242 355c-1-1-3-3-5-3-6-1-9 6-4 9l3 1c4 2 9-3 6-7zM300 315c-1-3-4-5-6-7-4-2-9-3-14-2-3 2-5 4-6 7-1 5 2 9 6 10l3 2c4 3 11 3 15-1 2-3 3-6 2-9zM300 327v1c-4 1-3 7 0 8h1c3 2 7-1 7-5s-4-5-8-4zM295 640c-2-4-7-5-12-6-3-2-6-2-9-1-4 1-7 4-8 8-2 7 4 13 10 15 10 2 26-4 19-16zM260 601c-3-3-6-3-10-3l-7 4c-2 2-1 5 1 7l1 1 5 5c4 1 8 0 11-3s2-8-1-11zM307 577c-6-1-13 0-17 4-5 1-7 6-5 11 0 2 2 4 4 5l7 5 12 1v-1c5 0 9-3 11-8 3-7-6-15-12-17zM287 606l-3 1c-1 0-3 0-3 2-1 2 1 4 2 4l3 1c2 0 5-1 4-4 0-2-1-4-3-4zM528 633c0-2-1-5-3-6l-4-3c-6-4-17-8-22-2l-5 2-2 1c-3 1-5 5-5 8v2c1 7 8 12 13 14l10 1h1c4 0 7 1 11-1 4-1 6-4 7-8 1-3 0-6-1-8zM476 652c-3-2-5-2-8-1-2 0-4 3-3 5 1 3 3 4 5 4 2 2 4 1 6-1s2-5 0-7zM435 625l-4-4-1-1c-3-2-8 0-11 3-2 2-2 6 1 9l9 3c3 0 5-2 6-4v-6zM517 672c-2-6-10-5-15-4l-13 5c-2 1-4 3-4 5l-1 4c3 6 7 7 13 7 5 1 12 0 17-2 6-3 6-10 3-15zM466 606l-5 1-1 1c-2 1-3 3-2 5 1 5 7 6 10 4 5-3 4-10-2-11zM450 550c-3-8-14-11-20-4-3 3-3 8 0 11l7 3c3 1 7 1 10-1 2-2 4-5 3-9zM439 530c-1-3-4-4-7-4-2 0-5 2-5 4-1 3 1 5 3 6v1c3 2 6 1 8-1 1-1 2-4 1-6zM456 512c-1-3-5-5-8-2l-1 3v2l3 3c4 0 7-3 6-6zM496 547l-12-3c-4 0-8 1-10 5-3 5 2 10 6 11h6l9-3c3-2 4-7 1-10zM480 523c-5 0-4 7 0 7 5 0 5-7 0-7zM529 389c-6-4-18-3-22 3-3 3-2 8 2 10 2 2 6 3 9 2h3c3 0 7-1 10-4s1-9-2-11zM520 366h-3l-2 1c-2 0-5 3-2 5 2 2 5 3 8 1 3-1 3-6-1-7zM490 347c-3-3-7-3-11-3-3 0-5 1-6 4v7c2 3 7 6 11 5l3-1c5-2 7-8 3-12zM466 360h-1c-2 0-4 2-4 5v1c0 4 6 6 9 3 4-4 1-9-4-9zM442 276c-6-4-18-2-23 4-3 3-2 8 2 11l6 2c5 2 13 0 17-5 3-4 2-9-2-12zM409 273c-1-3-5-5-8-4h-2l-3 3c-3 6 3 12 9 9 3-1 5-4 4-8zM445 248c-5-3-11-3-17-2-5 0-16 5-11 12 1 2 2 3 4 3 3 4 8 6 12 7 5 2 13 1 17-4 4-6 2-13-5-16z"/>
    <g>
      <path class="st10" d="M384 253h-6l-5 2-2 3v2c-2 2-2 4 0 6s6 3 9 4c5 1 10 0 13-5s-3-11-9-12zM373 256v-1 1z"/>
    </g>
    <path class="st10" d="M599 296c-1-4-5-7-9-8l-6-2c-5 0-11 1-12 6s2 8 6 10l2 2 10 3c6 1 11-5 9-11zM585 272c-2-2-6-4-9-1l-2 4 1 2 6 3c4 0 7-4 4-8zM652 280c-4-8-20-13-29-10-3 1-6 6-3 9 3 5 8 9 13 12 5 2 13 5 17 0l1-2c2-2 2-6 1-9zM616 293l-1 1v3c2 2 3 1 5 0 2-2-1-5-4-4zM607 477c-1-4-4-6-8-8l-3-2c-6-3-12-1-14 6-1 5 2 10 7 12 4 2 9 2 14 1 3 0 5-5 4-9zM604 456a5 5 0 0 0-9-3c-3 0-5 3-2 5l2 2 3 1c3 1 6-2 6-5zM653 479c-3-11-21-19-30-12-3 2-4 5-3 8 4 12 20 21 31 12 2-2 3-5 2-8zM659 462l-2-1c-2-1-4 1-5 3v4l3 3c2 1 5 0 7-3 1-2 0-5-3-6zM618 444c-2 0-3 2-3 4l-1 3c0 3 3 4 5 5h1 1l6 2c3 1 7-2 7-6-1-8-9-10-16-8zM751 460c-1-9-12-12-19-10-8 3-10 13-4 19 3 2 8 3 12 2l4-1c4-1 8-5 7-10zM752 434l-4 1c-3 0-5 3-4 6 3 4 9 5 12 0 2-3-1-8-4-7zM807 462c-8-8-29-10-35 1-5 7 2 15 9 17 4 2 8 1 13 0s8-4 13-6c2-1 2-3 2-5 1-2 1-5-2-7zM818 439c-4-3-10-3-13 1l-1 2c-1 3 0 5 2 6 3 2 7 2 10 1 4-2 5-7 2-10zM771 424c-3 1-3 4-2 6 2 2 4 3 7 3 3 2 8 2 9-2 2-7-10-8-14-7zM713 628c-4-7-13-5-20-5-4 0-6 4-5 8s6 6 11 6h8c6 0 8-5 6-9zM685 611h1c-2-2-4-2-6 0s-2 5 0 6l3 2c6 1 8-7 2-8zM730 586c-5-6-14-4-21-4-6 0-9 8-4 12 3 2 6 4 11 5 2 1 5 2 8 1 5-1 10-8 6-14zM747 592l-3 1c-2 1-3 5-1 6l1 1h5c4-2 3-8-2-8zM665 609s0-1 0 0c1-2 2-4 0-6l-5-2c-7 2-6 15 2 14 3-1 4-3 3-5v-1zM751 371c-4-3-10-5-15-2l-4 4v1c-1 2 0 4 1 5 6 4 12 7 19 4 5-3 4-10-1-12zM764 360c0-3-4-5-7-4s-4 4-2 7c2 5 9 2 9-3zM716 343a6 6 0 0 0-6 0h-2l-3 2c-2 2-1 7 3 8h7c5-2 5-7 1-10zM785 365c-4-2-9-2-12 1l-2 2-1 1c-1 1-2 3-1 5s4 3 6 4c5 1 11 0 12-5 2-3 1-6-2-8zM744 332c-5-3-12-2-15 2-1 1 0 3 1 3l5 1c3 0 6 1 8-1 2-1 2-4 1-5z"/>
  </g>
  <g>
    <path class="st11" d="M445 340v-14c-1-3-67-21-85 31 0 0 3 6 5 6 0 0 8-30 35-34 27-3 45 11 45 11zM670 327s44-42 94-7c0 0 3-9 0-14 0 0-50-27-97 11 0 0 0 5 3 10zM586 330s18 49 86 33c0 0-2 13-5 15s-40 2-59-10a88 88 0 0 1-30-30c-2-3 8-8 8-8zM472 301s18 12 34 11c0 0-1 8-3 11s-35-8-39-11l8-11zM514 312s-3 11-2 13c0 0 40-9 42-13 2-3 0-11 0-11s-26 16-40 11zM625 525s4 13 8 15c3 1 67-13 73-68 0 1-7-4-16 1 0 0 2 26-12 37-18 14-46 11-53 15zM433 410s-43-10-46 44h-8s-9-45 54-60v16zM231 428l7 3s9-25 30-37c22-12 55 5 55 5v-11s-66-19-92 40zM356 535c4-2 27-2 28 0s-5 9-5 9-26 3-28 0c-3-3 5-9 5-9zM443 574l-2 9s-39-5-62 14-23 53-23 53l-13-5c1 0 5-35 30-55 24-20 70-16 70-16zM277 690l-5-8s67-37 101 7l-3 11s-26-50-93-10zM520 573s48 15 84-23l8 9c0 1-20 29-90 27l-2-13zM608 601l13 4s-12 32-43 40c0 0 25-16 30-44zM590 700s31-83 105-37l-6 21c1 0-46-59-99 16zM472 428s56-17 69 36c0 0-9 7-13 7-5-1-1-18-21-32-21-14-29 2-35 2 0 0-4-7 0-13zM187 336s32 76-60 92c0 0-6-1-5-10 0 0 79-4 59-80 1 0 2-3 6-2zM771 555s64 3 93-50c0 0 12 6 14 11 0 0-34 56-107 39z"/>
  </g>
  <g>
    <defs>
      <path id="SVGID_1_" d="M505 177c12-4 24 9 24 9 24-10 102 11 162 23 59 13 152 83 152 83 18 3 37 22 78 69 40 47 58 135 36 219S845 715 845 715c-3 8-37 29-86 55-50 25-193 53-245 55s-108-18-108-18a637 637 0 0 1-290-127c-23-22-28-47-28-47-35-42-56-109-54-173 2-63 55-134 78-151l70-54c9-25 80-49 102-58 22-10 87-18 116-19 30-2 88 4 105-1zM179 650c12 12 41 31 66 40 24 10 62 38 89 40 26 2 84 17 84 17 12-8 70 10 102 6 31-5 132-18 157-29 24-11 57-31 74-36 17-6 55-23 55-23 8-14 63-50 92-102 28-52-5-137-22-165s-69-75-69-75c-9-2-60-41-89-53-30-13-93-28-111-33-18-6-49-15-64-15s-17-5-17-5c-14 5-59-3-83 0-23 2-78-2-101 6l-45 13c-12 13-44 29-56 39-13 10-18 5-18 5s-5 7-26 17c-21 11-63 51-81 79-18 27-36 95-29 132 6 38 45 100 45 100 16-5 35 29 47 42z"/>
    </defs>
    <use xlink:href="#SVGID_1_" overflow="visible" fill="#ffd678"/>
    <clipPath id="SVGID_2_">
      <use xlink:href="#SVGID_1_" overflow="visible"/>
    </clipPath>
    <path class="st12" d="M972 431c-5-32-20-76-45-97-4-4-10 0-9 6 4 16 14 31 20 46 8 17 13 35 16 53 5 34 5 67-1 100-7 36-23 68-44 96-19 25-45 44-65 67l-3 2c-31 22-61 44-96 59-34 16-71 24-107 30s-72 12-108 15c-21 1-42-2-63-6-17-4-34-11-51-10l-4-1c-30-5-59-7-89-16a568 568 0 0 1-170-82c-25-19-43-41-60-67-3-4-9-1-8 3 14 59 79 95 127 121a411 411 0 0 0 202 57c34 15 71 23 108 24 39 0 81-9 119-16 78-14 153-43 212-97 2-2 3-5 3-7 28-16 52-44 71-69 22-29 37-63 44-99 8-37 6-75 1-112z"/>
    <path class="st12" d="M859 388a348 348 0 0 0-184-141c-86-29-183-47-273-42-84 4-163 45-227 99-53 45-105 110-89 184 0 3 6 3 6-1 5-34 10-65 28-95 20-34 50-62 81-87 63-49 138-80 217-83 81-2 168 18 245 42 39 12 74 31 107 56 29 23 51 52 78 77 6 6 15-2 11-9z"/>
    <g class="st13">
      <path class="st14" d="M297 238l-1-2-1-5-1-7-1-8s4 1 7 6l1 4v4c0 3-1 6-4 8zM221 222l2-1 3-1 4-1c2-1 6 0 9 2 4 2 6 6 6 9l-2-1-3-1-1-1-2-1c-4-1-9-1-16-4zM338 184h2l3 1c3 2 6 6 4 10l-2-1-3-1-2-2-1-1-1-6zM440 217l2-2 1-4 1-7 2-8h1l1 2 3 6-2 9c-1 1-2 3-4 3-1 1-3 2-5 1zM564 186v1l-1 4-2 4-3 4-1-1c-1-1-2-3-1-5-1-3 3-8 8-7zM615 240v-2l2-5c1-4 3-9 8-14v9c0 5-4 11-10 12zM624 197l1 3c0 2 0 4-5 5l-1-4c-1-2 0-4 5-4zM677 258l-2-3a21 21 0 0 1-2-7v-11c2-3 4-7 8-9l-1 3v7l-3 20zM762 297l-1-1-1-3c-2-2-3-6-4-10 0-4 0-10 2-15 1-3 3-6 6-8s6-2 9-1l-1 1-3 1c-2 1-4 4-5 8l-1 13-1 15zM887 417l-1-3v-3l2-4c1-3 3-6 7-8 3-2 7-4 11-4l-2 2-5 6-6 7-6 7zM829 351l-1-3-1-3-1-5c0-3 1-7 4-11 2-3 6-6 11-7l-2 3-2 3-2 4-1 4-2 4-3 11zM863 610v-1l2-3 10-8c4-3 9-6 16-7h10c4 1 7 3 9 5h-1l-4-1c-3 0-7 0-12 2l-14 6-16 7zM959 572l-1-2v-2l-1-1-1-3-6-7-8-8h4l3 1 5 2 4 3 2 3 1 3c2 3 1 8-2 11zM887 581v-2l1-3 3-2 7-2c3 0 6 1 8 4h-2l-5 2-5 1-7 2zM752 691l2-2 4-1h5l11 3c4 3 7 7 8 11l-3-1-3-2-4-2-20-6zM813 743v-2l1-5c0-4 1-8 5-13 0 0 2 3 2 8l-1 7-7 5zM530 827h2l2-1c2-1 5-3 8-7l9-13 8-17v1l1 4-3 13c-2 5-5 11-10 16l-8 5c-3 1-7 1-9-1zM682 799l1-3 1-7 2-10v-11l3 2 3 9c1 7-3 16-10 20zM599 742s2-2 7-1c2 0 4 2 6 4s2 5 1 8l-1-1-4-2-4-3-5-5zM341 734l1 2 1 4v6l-2 7-2-2-2-4c-2-4-1-10 4-13zM367 804l4-14 5-14 5-16a38 38 0 0 0 1 10v6c-1 10-7 21-15 28zM221 748l-1-3a18 18 0 0 1 0-6l3-9c2-3 5-6 8-7v3a311 311 0 0 1-10 22zM232 752l1-1 1-4c1-3 4-6 9-9l-1 7c-1 4-4 8-10 7zM192 665h-1l-3-1-9-2c-7 0-16 0-24 8l1-4c1-3 4-6 8-8 5-2 10-3 15-2 6 1 11 5 13 9zM147 705s-3-1-5-6l-1-8c1-2 2-5 5-7l1 7 1 6-1 8zM109 674l-1-1-2-3-2-11c-1-5 1-11 4-16l7-7 9-3-4 3-6 9c-2 3-3 8-4 13l-1 16zM53 505l3-2c2-1 6-2 11-1 4 0 9 3 13 7 3 4 6 8 8 14l-3-3-9-6-10-6c-4-2-8-3-13-3zM32 499v-1l-1-3c-1-2 0-5 2-9 1-3 5-7 9-9s10-3 14-1l-3 2-7 4-8 7-6 10zM115 378l-1-2-2-6-3-8c-2-2-3-5-7-7h3c2 0 5 0 8 3 6 5 6 15 2 20zM154 278l1-3 2-2 3-2c3-1 7-2 11-1 3 1 7 4 8 8l-3-1-3-1h-3l-16 2zM192 299v-2l-1-4v-5l1-7 2 1 3 5c1 4 0 9-5 12z"/>
    </g>
    <g class="st13">
      <path class="st15" d="M100 348c-1-3-5-5-8-3-15 9-22 34-29 50-7 19-8 42-7 62 0 4 6 5 8 1 8-20 10-41 18-61 7-16 22-31 18-49zM168 286c-11-3-22 11-30 17-11 8-25 14-31 27-1 2 1 5 4 4 12-4 24-12 34-19 9-6 27-13 27-25 0-2-2-4-4-4zM198 264c-4-1-8 2-9 6 0 2 2 5 4 3l7-4c1-2 0-5-2-5zM96 589c-3-11-10-22-16-32-8-12-10-25-15-38-1-3-6-4-7-1-5 13-1 26 4 37l20 41c5 7 17 1 14-7zM435 185c-18-3-35 0-53 3-24 5-47 4-71 5-40 1-59 35-91 54-3 2 0 6 2 5 15-2 24-8 35-17 20-18 34-28 62-29 18 0 35 2 53-2 21-4 43-4 63-11 4-1 4-7 0-8zM504 183c-6-6-14-1-21 1-5 1-11-1-16-1l-13 1c-3 1-2 5 0 6 10 2 19 6 29 7 6 0 17-1 21-7 2-2 2-5 0-7zM162 642c-3-8-8-14-13-20-4-4-12-10-19-8-3 1-4 4-2 6 1 3 3 4 6 6l6 6c5 5 8 11 13 15 4 3 11 0 9-5zM318 736c-13-17-44-26-64-35-21-11-41-29-66-31-2 0-3 4-1 5 24 11 45 28 69 41l38 20c9 5 13 8 23 4 1 0 2-2 1-4zM400 754c-6-7-13-10-22-12-8-2-18-3-26-1-5 2-3 8 1 8 16 1 30 11 45 8 2 0 2-2 2-3zM763 708c-29-8-45 13-70 22-11 4-24 3-36 6-11 3-21 11-30 18-17 11-32 6-50 4-16-2-33 3-49 5-19 2-37-1-56-6-13-3-24-6-37-2-5 1-5 10 1 11 28 5 56 14 85 12 16 0 32-3 48-5 13-1 27 5 40 2 11-3 20-8 30-15 15-11 26-13 44-14 13-1 23-5 34-11 15-9 31-8 47-14 7-2 6-11-1-13zM815 683c-1-2-4-5-7-4-6 0-8 5-12 8l-13 9c-4 3-2 11 3 10 12 0 31-9 29-23zM890 607c-6 1-11 4-16 7l-20 10c-12 9-25 22-32 34-3 5 3 10 7 7 13-9 23-22 36-31 10-7 26-8 30-21 1-3-2-7-5-6zM912 582c-1-3-4-5-7-4l-11 6c-2 1-2 5 1 7 4 2 9 1 13-1 3-1 5-4 4-8zM906 415c-4-4-12 1-10 6 8 25 20 46 24 73 3 26-7 46-15 69-1 3 3 5 5 4 40-33 28-118-4-152zM849 339c-4-2-9 1-8 5 1 12 15 18 22 26l11 13 8 12h5c15-13-27-51-38-56zM830 314c-2-2-5-2-7-1-2 2-3 4-3 7l2 3c2 4 7 3 9 0v-1l1-3-2-5zM810 297c-2-7-9-13-15-18s-13-11-21-13c-9-3-11 9-5 13l19 12c5 4 10 10 17 12 4 1 6-3 5-6zM755 261c-16-18-44-21-58-41-10-15-41-8-57-6-4 1-6 7-2 9 8 5 15 5 24 5s18-5 25 5l8 10c6 6 18 8 25 12 10 6 20 10 31 14 5 1 7-5 4-8zM618 214c-13-5-29-2-43-4s-28-14-43-8l-1 2c10 10 28 14 41 18 13 3 33 4 45 0 3-2 4-6 1-8z"/>
    </g>
    <g class="st13">
      <path class="st16" d="M182 255l1-1 3-2c3-2 8-2 14-1a34 34 0 0 1 22 19c1 3 2 7 1 10l-1-1v-2l-1-1c-2-3-4-7-8-10l-14-9-8-3-9 1zM530 186l-1 3-1 6c0 6 0 13-2 22l-1-3-3-8v-11c1-2 1-4 3-5l5-4zM810 328v-1l-1-1-1-3c0-3 0-8 2-13s6-11 12-15l10-5c4 0 8 0 11 2h-1-2-2c-3 1-7 3-11 7-4 3-8 8-11 13s-6 10-6 16zM806 665h7c4 0 10 1 16 5s12 10 15 18a31 31 0 0 1 2 27v-2l-1-5c0-4-2-10-5-15-3-6-8-12-14-17-5-5-12-9-20-11zM406 807l3-4 5-14a214 214 0 0 0 6-30c0-4 0-8-3-11l2 1 3 3c2 4 3 10 3 17a62 62 0 0 1-10 31l-4 4c-1 1-3 3-5 3zM87 633v-2-3c0-4 2-9 6-13 5-5 11-8 18-10h11l11 3h-6l-13 3c-5 2-11 4-15 8-5 3-9 8-12 14z"/>
    </g>
  </g>
</svg>
