<svg xmlns="http://www.w3.org/2000/svg" xmlns:xlink="http://www.w3.org/1999/xlink" id="Layer_1" version="1" viewBox="0 0 1000 1000">
  <style>
    .st0{fill:#e9b03a}.st1{fill:#ffde90}.st7{fill:#c52009}.st8{fill:#d1a909}.st9{fill:#fb6456}.st10{fill:#d4eef4}.st11{fill:#e5f5f8}.st12{fill:#ffdd3f}.st13{fill:#ffeb95}.st17{fill:#f43111}.st19{fill:#800a02}.st20{fill:#dda21e}.st21{fill:#fac549}.st22{fill:#ffd570}.st23{fill:#cf972a}
  </style>
  <path d="M51 755c-5-28 23-123 41-179 19-55 52-143 123-213 71-69 439-208 588-29a381 381 0 0 1 53 405s-85 4-111 11c-27 6-544 62-575 57-32-5-65-22-91-30-25-7-28-22-28-22z" class="st0"/>
  <path d="M147 444c-28 40-40 91-57 136-18 48-37 101-39 153 0 2 4 2 4 0 15-100 53-195 96-286 0-2-3-5-4-3zM208 369c-11 8-20 19-28 29-8 11-16 23-20 36h1l23-32c9-11 19-20 26-31 1-1-1-2-2-2z" class="st1"/>
  <g>
    <path fill="#a51a04" d="M905 605s33-6 35 4c1 9-6 12-6 12s12 14 6 23c-6 8-11 22-11 22s-1 32-11 27c0 0-1 13-13 8s-8-71 0-96z"/>
    <path fill="#eaeaea" d="M925 526s21 6 24 16c2 9 0 15 0 15s4 18 1 25c-3 8-8 22-14 22s-26 1-11-78z"/>
    <path fill="#00c800" d="M143 556c-17-17-20-38-8-49 12-12 14-26 8-45s5-31 22-33c0 0 4-13 21-17 0 0 8-13 17-16 8-2 2-12-3-20-4-8-4-25 7-32s21-6 24-11c3-6 3-20 12-30s24-16 30-9c6 6 14-1 19-5s17-22 36-30c19-9 34-7 43-11 9-5 50-29 81-24 0 0 66-24 100-16 34 9 55 18 75 8 19-9 72 18 93 36 21 17 87 54 104 82s45 50 45 50-106-55-174-74-223-3-271 70c-48 72-126 184-161 207s-74 13-120-31z"/>
    <path fill="#00b200" d="M143 566a33 33 0 0 1-1-49c12-12 20-27 15-47s-2-29 16-31c0 0 3-13 21-17 0 0 8-13 16-16 8-2 3-12-2-20s-5-25 6-32c12-7 22-6 25-11 3-6 3-20 12-30 8-10 23-16 30-9 6 6 14-1 19-5s17-22 35-30c19-9 34-7 43-11 9-5 50-29 82-24 0 0 65-24 99-16 35 9 55 18 75 8 20-9 73 18 93 36 21 17 88 54 104 82 17 28 46 50 46 50s-107-55-175-74c-67-19-222-2-270 70-48 73-126 185-161 207-36 23-82 13-128-31z"/>
    <path fill="#edc121" d="M159 567c10-41 3-118 37-132 27-36 37-59 71-82 62-41 55-67 95-88 46-23 115-46 131-22 37-57 136-9 212 18 36 13 66 33 99 53 38 23 115 79 49 121-51 33-94 28-152 47-84 27-169 53-253 81-63 20-126 44-191 56-25 4-58 10-76-12-5-7-8-16-11-24l-11-16z"/>
    <path d="M436 266s0-22 4-25c3-4 46 1 49 5 4 4-4 16-7 19-4 4-46 1-46 1z" class="st7"/>
    <path d="M392 296c-2-4-8-5-9-1-7 17-6 34-17 50-9 13-24 25-30 41-1 4 3 8 7 6 14-10 29-28 38-43s19-36 11-53z" class="st8"/>
    <path d="M429 304c-1-3-4-4-7-3-7 3-9 12-13 18-5 7-12 7-20 9-3 0-3 5-1 7 8 7 20 5 28-2 6-6 17-19 13-29z" class="st8"/>
    <path d="M517 266c-36 1-90 27-87 71 1 4 6 4 8 1 10-15 16-30 31-41s32-15 49-15c11 0 10-16-1-16z" class="st8"/>
    <path d="M565 230c-5 3-7 8-11 12-4 6-9 11-15 15-9 7-18 14-21 25-1 7 8 9 11 4 6-11 17-15 26-22 8-7 18-17 19-28 1-5-4-9-9-6zM328 357c-11-4-24 13-30 20-7 9-16 23-10 35 2 4 6 4 8 0l9-17c3-6 9-11 14-16 3-3 20-19 9-22z" class="st8"/>
    <path d="M342 328c-35-27-86 45-89 74 0 6 7 10 11 5 10-12 16-28 26-41 6-8 13-14 21-20 9-6 17-5 28-6 5-1 9-8 3-12zM245 452c-2-9-6-18-10-27s-4-18-8-26c-3-5-9-3-11 0-7 12 0 25 5 36l8 21c3 9-1 13-4 22 0 1 1 3 3 3 14-5 19-14 17-29z" class="st8"/>
    <path d="M263 395c-3-2-7 0-7 4-2 8 0 16-2 24-3 9-9 7-17 8-4 1-7 6-4 10 11 13 28 5 36-7 6-11 7-32-6-39zM316 439c-19-3-36 15-49 28-8 8-16 18-25 25-10 9-22 12-32 20-3 1-3 6 0 7 19 7 37-8 51-20l23-24c11-10 25-13 35-22 5-4 4-13-3-14z" class="st8"/>
    <path d="M216 506c-11 7-25-1-35-7-4-2-8 3-5 7 10 12 37 29 50 11 5-7-3-16-10-11zM246 548c-17-4-25-22-45-20-15 2-35 17-28 33 1 4 6 4 8 1 6-15 22-24 35-14 9 7 16 14 27 18 10 3 14-15 3-18z" class="st8"/>
    <path d="M238 577c-15-15-33-27-54-24-4 0-7 5-3 8 8 5 18 5 25 11 8 6 15 14 23 19 9 5 16-8 9-14zM200 456c1-7-7-10-12-6-12 12-17 34-20 50-3 15-4 33 6 46 3 3 9 2 8-3-2-16 0-30 4-45 3-14 13-28 14-42zM338 417c-6 1-9 4-13 8l-12 9c-4 1-5 7-1 9 7 3 12 2 18-1 7-3 14-9 15-17 1-4-3-8-7-8zM460 267c-17 2-31 14-48 17-20 3-40-5-59-8-5-1-9 6-4 9 31 21 95 33 117-8 3-4-1-10-6-10zM625 234c-13-1-21 3-35-1-10-4-20-9-32-11-22-3-50 1-63 22-3 3 2 8 6 6 30-14 56-9 86 2 14 5 43 9 42-13 0-2-2-5-4-5zM572 254c0 1 0 0 0 0zM572 254z" class="st8"/>
    <path d="M578 257l-4-2h-2v-1 1l-1-1-2-2c-3-2-8-2-10 2v1l-1 2 1 5c0 3 2 5 4 7l9 2h4l2-2 2-1 1-1c3-4 1-8-3-10zM737 277c-9-9-24-12-35-17-11-4-22-8-34-8-6 0-7 8-2 10l37 17c11 5 21 10 32 7 4-1 4-6 2-9zM498 242c-9-11-25-13-38-12-5 0-7 6-3 9 4 4 9 6 14 8l17 7c7 3 16-5 10-12z" class="st8"/>
    <path d="M494 251c-2-3-5-4-7-3-7 2-10 9-17 10-6 1-14 0-19 4-1 1-2 3-1 4 6 8 18 10 26 8 11-2 22-12 18-23zM370 320c-6-1-13 1-19 1h-10l-9 1c-6-1-9 8-3 10l9 4 15 3c9 1 20-1 23-11 1-4-3-8-6-8z" class="st8"/>
    <g>
      <path d="M315 284s-30 6-32 13c-2 8 6 28 10 29s35-8 36-15-9-22-14-27zM333 324s-4-27 0-34c3-6 28-3 34 1 6 3 2 33 0 33h-34zM227 434s-9-38 0-42c8-5 36 2 39 6 3 3-4 32-7 36-4 3-32 0-32 0zM562 217s3-28 9-30c6-3 34 5 36 10 1 5 0 22-5 23-4 2-40-3-40-3zM656 247s5-16 11-19c7-3 20-6 22 0s4 24 0 25c-4 2-33-6-33-6zM729 285s1-31 6-33 23 6 25 7-1 28-6 31-25-5-25-5zM826 335s12-19 16-18c3 1 19 23 19 23s-12 16-17 16-18-21-18-21z" class="st7"/>
      <path d="M248 396c-5-4-15 0-18 5-5 7-3 15 1 22 0 2 2 1 2 0 0-6-2-12 0-17 3-6 11-1 16-5 2-1 1-4-1-5zM300 293c-7-1-13 4-14 10-1 5 2 15 7 17 2 1 4-1 4-3 0-4-3-7-4-12 0-4 6-6 8-8 1-2 0-4-1-4zM352 293l-8-1h-5c-2 1-3 4-4 6 0 3 0 6 3 9h1c2-3 2-4 2-7l1-4c2-3 7-1 10-1v-2zM584 193c-2-1-4-3-7-3-2 1-5 2-6 4-3 4-5 10-5 15 0 2 3 3 4 1 3-3 3-6 5-10 1-4 4-5 8-5 1 0 2-1 1-2zM671 233c-4-2-7 4-7 6-1 1 1 2 2 1l3-3 2-3v-1zM745 257h-7c-3 2-4 4-3 7 0 2 3 3 4 1s3-3 5-3c2-1 3-4 1-5z" class="st9"/>
    </g>
    <g>
      <path d="M227 387s32-23 34-27c3-3-17-14-17-14s-26 20-29 25c-3 4 12 16 12 16zM407 334s-19-3-21-10c-3-7 30-32 30-32s13 5 15 10-24 32-24 32zM399 266l-35-7c-3 0 0-16 0-16s42-5 44 0c3 6-9 23-9 23zM190 478s31 10 33 14-9 21-16 20-22-12-25-17c-4-4 8-17 8-17zM300 425s43-25 47-24c4 2 0 17 0 17s-25 22-34 20c-10-2-13-13-13-13zM572 275s-3-17 0-23c4-7 32-15 35-11 4 4 8 25 8 25l-43 9zM766 300s23-23 27-22c5 2 14 11 14 11l-21 22s-18-3-20-11zM869 384s20-7 24 0 7 17 7 17-9-2-15 1c-6 2-16-18-16-18zM274 506s-15-14-16-20 9-15 9-15 25 12 22 18c-2 5-15 17-15 17z" class="st10"/>
      <path d="M236 357c-4 1-8 4-11 7-2 2-7 6-5 10l3 1 4-4 4-4 8-7c1-2-1-3-3-3zM216 491c-6-7-18-5-26-8-3 0-6 3-3 5l12 5c5 1 10 3 15 2 2 0 3-2 2-4zM267 476c-3 2-7 7-5 11 1 2 3 2 4 1l4-8c1-3-1-6-3-4zM333 413c-9 0-22 4-25 14 0 2 2 4 4 2 6-7 16-7 23-12 2-1 0-4-2-4zM410 299c-5 2-8 6-11 9l-11 14c-2 2 2 4 4 3l11-11 10-11c1-2-1-4-3-4zM398 248c-9-4-21-4-31-3-3 1-4 6 0 7 9 2 21 2 31-1 1 0 2-3 0-3zM602 243c-3-2-9 0-13 1-5 2-10 5-14 9-1 2 1 6 3 5l12-6c4-1 10-2 12-5v-4z" class="st11"/>
    </g>
    <g>
      <path d="M174 443c6 2 13 3 19 6-20 19-25 58-22 84 0 9 2 17 5 25-34 7-16-74-11-90 3-8 6-16 11-23l-2-2zM194 394l14 1c6 24 8 51 26 70l-7 8c-17-12-26-42-31-61-2-5-2-11-3-16l1-2zM274 432a95 95 0 0 1 35-91c7-3 11 1 15 7a95 95 0 0 0-33 67l2 18c-5 0-15-4-19 1v-2zM456 273a95 95 0 0 1-98 1c-6-5-4-10 1-16 23 11 49 14 74 5l17-8c1 5 2 15 7 17l-1 1z" class="st12"/>
      <path d="M263 405c-7-28 20-56 41-69 6-4 11-7 17-8-2-5-9-10-13-14-24 20-46 37-57 68-2 8-3 14-3 22 6 0 9-1 14 1h1zM310 379a93 93 0 0 0 63-89l17 1c2 23-6 42-19 61-9 14-25 35-41 41-10 3-14-4-18-12v2l-2-4zM206 499c19 1 38-7 48-24 11-19 20-45 44-49 14-3 18 4 18 18-18-4-35 15-43 29-10 16-18 31-37 38-9 3-19 6-28 3v-12l-2-3zM170 563c7-12 20-30 36-28 16 3 20 25 39 19 10-3 11-10 5-17-14 17-24-2-35-11-14-11-30-1-40 11-6 8-6 14 2 21l-7 5z" class="st12"/>
      <path d="M253 578c-8-17-17-35-9-54 6-15 21-29 37-34 8-2 16-1 25 1-4 5-9 13-10 19-12-11-28-1-35 11-3 5-6 12-5 18 2 7 9 12 8 19s-10 13-12 20h1zM343 445c-4-29 1-77 42-76 7 0 14 3 20 6-3 9-15 17-22 25l-26 29c-6 5-11 10-15 16h1z" class="st12"/>
      <path d="M282 431c-1-13 18-29 28-35 10-5 20-8 31-9l4 12c-18 4-49 22-52 43l-7-3c-1-1-7-4-5-2l1-6zM682 275c-2-13 17-29 28-35 9-5 20-8 31-9l3 12c-18 4-49 22-52 43l-7-3-4-2 1-6zM246 330c12-10 26-16 42-19 11-1 31-4 41 1 8 4 7 11 5 19-22-1-44-7-65 4l-14 8-9-11v-2zM420 354c1-22 6-43 21-59 14-15 35-28 55-34 8-3 17-4 26-4l2 13c-37 1-73 19-85 56-3 7-3 15-3 23-5 1-16 4-18 6l2-1zM395 231l-5-11c26-12 76-12 100 6 7 5 7 10 3 17-21-15-53-14-78-15-5 0-13-1-18 1l-2 2z" class="st12"/>
      <path d="M546 209c18 3 30 21 48 22 12 0 25-5 30-16 23 21-15 30-33 27-23-4-36-21-61-15-12 3-22 9-30 19-15-11-2-20 10-28 10-7 23-11 36-9z" class="st12"/>
      <path d="M468 178l-2 19c21-3 46 3 58 22 5-3 13-7 18-7-11-17-37-26-55-30-5-1-11-3-16-2l-3-2zM590 262c13-7 27-14 42-15 12-1 34-2 42 8 5 7 1 15-2 21a75 75 0 0 0-67-6c-5 2-9 6-13 10-3-4-3-9-6-13v2l4-7zM506 292c8-28 27-48 52-63 8-4 14-4 10 6-5 12-18 18-28 24-12 8-16 17-17 32-5-1-12-1-16 2v2l-1-3z" class="st12"/>
      <path d="M206 422l-5-25h-3c-3 15 4 40 15 50 2 1 3 0 3-1-2-9-7-16-10-24zM178 451c-10 10-19 35-14 49h2l6-27 8-21c1-2-1-2-2-1zM283 437c-7 4-10 14-14 21-6 8-13 17-16 26-1 2 2 5 4 3 7-6 12-15 17-23 5-7 12-16 13-25 0-2-3-3-4-2zM312 344c-14 9-31 29-31 46h3l14-23c5-8 12-13 16-21 1-2-1-3-2-2zM277 346c-8 3-12 12-16 18-4 8-8 17-6 26 0 2 2 2 3 0 2-8 4-16 8-23s10-12 13-19c0-1-1-3-2-2zM303 313c-7-3-17 1-24 4-8 3-17 7-23 14-1 1 0 4 2 3l20-11c8-3 17-3 25-6 1-1 2-3 0-4zM180 540c0 1 1 2 3 1l4-6 10-5c3-1 7-2 10-1s5 3 8 3c1 0 3-1 2-2-3-16-39-5-37 10zM272 501c-9 1-16 11-20 17-5 7-10 17-7 26 1 1 3 1 3-1 2-8 4-15 9-23 5-6 12-10 16-16 1-1 0-4-1-3zM372 374c-8-1-15 7-19 13-4 7-11 19-6 26h3c3-5 3-12 6-18 3-8 8-14 16-17 2-1 2-3 0-4zM321 401c-3-3-8 0-12 2l-15 11c-1 2 1 4 3 3 4-1 8-5 11-7l8-4c2-1 4-1 5-3v-2zM381 295c-1-1-3 0-3 1-2 13-2 24-9 36-6 13-16 20-26 29-2 2 0 5 2 4 12-2 23-17 29-28 6-10 15-30 7-42zM426 269c-9-1-18 2-27 2-13 1-24-3-36-6-2-1-3 2-2 3 15 14 49 14 65 4v-3zM465 222c-18-12-50-10-68 0-2 1-2 3 0 3l30-3c13-2 24 2 37 3 2 1 3-2 1-3zM524 201c-2-7-13-9-18-10-10-2-19-2-28-6-2 0-4 2-3 4 4 5 13 5 19 7l15 2c4 2 8 5 13 5l2-2zM513 263c-19-3-41 10-56 21-18 14-26 34-33 55 0 2 2 3 3 2 5-7 7-14 10-21 5-11 11-20 20-28 17-15 36-20 57-25 2-1 1-3-1-4zM557 233l-13 11-15 12c-8 8-16 18-15 29 0 2 2 2 3 1 5-12 10-20 20-29 7-6 19-12 23-22 0-1-2-3-3-2z" class="st13"/>
      <path d="M576 232c-9-10-24-18-37-20-14-1-29 11-39 18-2 2 0 5 3 4 14-8 27-21 44-14 10 3 17 13 28 14 1 1 2-1 1-2zM647 253c-19-4-38 3-53 14-2 1-1 3 1 3 10-3 19-9 29-11 8-1 16 1 24-3 1 0 1-2-1-3zM720 244c-9 0-18 8-24 13s-12 12-13 20c0 2 3 3 3 1 4-7 8-13 15-19 6-5 14-7 20-12 1-1 0-3-1-3z" class="st13"/>
    </g>
    <g>
      <path fill="#edebeb" d="M115 623c-14-9-24-20-23-25 2-5 17-7 18-18s-3-19 5-24c7-5 12-1 20-6 7-5 13-8 22 0 8 9 14 17 24 12s26-3 33 7 16 1 22 22c7 21-10 53-23 59s-82-15-98-27z"/>
      <path fill="#fff" d="M221 593l-3-1h-4c-2-4-5-8-9-11l-12-4c-6-8-16-11-26-11h-1c-4-5-9-9-14-11-4-1-8-2-11 1h-1a30 30 0 0 0-9 4c-1-2-3-2-5-3s-5 1-6 3l-1 3 1 3s0 1 0 0c0 2 1 3 3 4h2l-1 2c-3 4-17 11-14 16 2 4 12 3 15 3l9 1 4 5c2 3 3 6 7 8l5 3h1c3 2 7 1 9-1h21v2l4 5h8l6 5 5 2c-2 1-2 3-1 5l4 5c3 1 7-1 7-4v-2c1-3-1-5-3-6 3-2 6-7 6-12h2c3-1 4-3 4-6v-1c1-2 0-5-2-7z"/>
    </g>
    <g>
      <defs>
        <path id="SVGID_1_" d="M68 768c-10-8-3-21-3-31s-8-19-4-30l8-14c2-6 1-7 2-14 0-12 9-19 9-30 0-7-4-11 1-18 4-6 10-5 11-13 0-20 15-23 35-19 11 2 11 9 18 14s14 1 22 1c10 0 14 3 18 12 7-5 11 1 13 7 46 17 26 63 15 99-7 23-14 61-37 73-17 10-36-3-52-8-19-6-34-11-49-23l-7-6z"/>
      </defs>
      <use fill="#bd2a08" overflow="visible" xlink:href="#SVGID_1_"/>
      <clipPath id="SVGID_2_">
        <use overflow="visible" xlink:href="#SVGID_1_"/>
      </clipPath>
      <g clip-path="url(#SVGID_2_)">
        <path d="M120 628c-3-1-6 0-8 2v1c-3 1-4 4-4 7-1 1 0 3 1 5l1 1c1 2 3 3 5 3h7c3 0 6-4 6-7-1-5-3-11-8-12zM121 603h-3l-8-2-2 1-8 2c-4 4-8 14-1 17l3-1c3 3 7 3 10 1l5 1 4 1c4-1 7-4 8-8l1-4c1-5-3-8-9-8zM94 635l-1-2-2-2c-2-2-5-3-9-1s-3 8-2 11 5 6 8 4c3 0 5-1 6-4v-6zM112 657c-4-3-10 0-13 3-3 2-3 6-3 9v4l2 4c1 2 3 2 5 1l2 1c6-1 10-4 12-10 1-5-1-10-5-12z" class="st17"/>
        <path d="M117 650c-1-3-3-4-5-4-4 0-8 4-7 7 0 3 3 6 6 4l4-2 1-1 1-4zM158 630l-1-3-2-4c-4-3-8-4-13-3-3 1-6 3-8 7l-1 3c0 3 0 7 2 10 4 5 11 6 16 3s8-8 7-13z" class="st17"/>
        <path d="M161 619h-1-1-1l-4 1c-3 2-3 6-1 8l1 1 1 1c1 2 3 1 4 0 2 0 4 0 5-2 5-3 2-10-3-9zM122 682c-5-3-10-2-14 2l-3 6-1 6c0 3 1 5 3 7s5 3 7 3c6 2 12-3 14-8 2-6 0-13-6-16zM107 711h-1-1-1-2c-2 1-3 4-3 6 1 2 2 4 5 4 6 2 9-8 3-10zM85 656l-4 1-3 3v1h-1c-2 2-2 4-3 7-1 6 6 10 10 5l2-3 1-1 3-3c3-4-1-10-5-10z" class="st17"/>
        <path d="M84 647l-2 1c-1 1-2 3-1 5l1 1c2 2 4 3 6 1v-1c4-2 2-9-4-7z" class="st17"/>
        <path d="M88 644c-1-2-4-1-5 1l-1 3 2 5 4-1 2-3-2-5zM87 707c-1-3-2-6-4-7-1-3-4-4-6-4-4 1-7 2-9 5l-4 2c-1 3-2 6-1 9 0 4 1 7 3 10s6 4 9 2l3-4 5-1c4-3 4-8 4-12z" class="st17"/>
        <path d="M96 688l-2-3c-1-2-3-3-6-3s-7 2-9 6c-1 4 0 8 3 12 2 3 6 3 9 0 4-3 6-7 5-12zM94 729c-4-3-11-5-15 0-2 2-2 6 0 8v2l6 3 5-1 5-3c2-3 2-7-1-9zM167 678c0-7-5-14-12-12h-1l-6 3c-3 3-3 8-2 11l3 4c2 4 7 6 12 4 4-1 6-5 6-9v-1zM138 732v-1c1-6-7-9-10-4l-4 1c-2 3-4 7-2 11l2 5c2 2 6 4 8 1l5-7v-1c2-1 2-3 1-5zM131 658c-4-5-10-4-14 1-2 3-4 5-4 9 0 2 2 4 4 5l4 4c4 3 9 2 12-2l1-2 2-5c1-4-1-8-5-10z" class="st17"/>
      </g>
      <path fill="#a51a04" d="M186 626c16 11-23 15-24 19-2 8 22 11 15 27-4 7-7 10-6 20-6 7-6 10-3 16 3 8 6 9 2 17-4 11-2 29-13 35-7 3-17 1-25 0 3 20-18 14-30 7-1 4-6 6-10 7 31 17 65 53 95 16 28-34 51-101 38-146-6-21-23-24-42-22l3 4z" clip-path="url(#SVGID_2_)"/>
      <g>
        <path d="M195 718h-2l-6 1a21 21 0 0 0-17 22v7l-2 8c-2 5-5 9-6 14l-1 7 4 7s-3-2-5-7c-2-2-2-6-1-9l4-12c2-4 3-7 2-12 0-5 0-10 3-15 2-5 7-9 12-10 5-2 10-2 15-1zM190 673l-5-1c-2 0-7 2-9 5l-2 7v4l1 1 1 3v1h-1l-2 1-2 1-1 1-1 1-1 1-1 2c-1 3 0 6 2 9l-1-1-2-1-1-2-1-6c1-3 2-6 5-8l1-1-1-1v-2c-1-4 0-8 2-11s6-5 9-6c4 0 8 1 10 3zM157 664s-3-1-7 1c-2 1-4 2-6 5-1 2-2 6-1 9 0 4 1 8 4 12l3 7v2l-1 3-2 3-3 2-2 1h-4l-1 1v3l2 2-1 1v1 3l5 5-2-1-5-3-1-2v-2-1l1-1h-1l-1-2-1-4 3-3 6-2 2-1 1-3v-1l-1-3-3-6-2-8c-1-5 0-11 4-15l7-4 7 1zM115 759s-3 0-5-4c-1-2-2-5-1-8 0-1 0-3 2-5l2-2v-1-5c0-3 2-7 4-9 2-3 4-5 8-7 3-1 7 0 10 2l-3-1c-2 0-5 1-7 3a19 19 0 0 0-7 14v3l1 2 1 3h-3l-1 1h-1l-2 1-1 4c0 3 0 7 3 9zM151 642l2 2c2 2 4 2 7 0l4-3 2-3h1l1 1h4c3 0 6-5 3-9l3 3c1 2 1 7-4 10l-4 1h-2l-1 2-4 2h-8c-3-1-4-4-4-6zM128 629l-3-1-8-3c-3 0-8 0-11 2l-3 6v5l1 2v4h-6l-1 3 1 4 1 2 4 4-4 3-2 2-1 2-1 2-1 2v11l-5-2h-5l-2 1c-3 3-4 6-4 10v-3c0-2 1-6 4-9l7-2h2l-1-1v-1a23 23 0 0 1 4-14l2-2h-1l-1-3-2-6 3-6 3-2h1v-9c2-4 5-7 9-7 8-2 15 2 20 6zM121 681h-3l-8 1c-3 2-7 4-8 8l-1 6a16 16 0 0 0 3 5l1 2 3 4h-7-1l-1 1-2 3-1 5 1 3 2 5h-7l-5-1c-2 0-5 0-8 2l4-3 6-1h5c-1-1-3-6-2-10 0-2 1-5 3-7l4-2h-1v-1l-2-6c0-4 1-8 4-11 6-5 15-6 21-3zM73 735c1 0-4 8 5 9 3 0 5 1 8 3l1 2 1 3 1 4 1 6 3 1 4-2-4 3-2 1-4-1-3-6-1-7-5-3c-2-1-5-1-7-5v-4l2-4zM210 648l-3-1-5 1-4 2-5 3-3 1h-6l-2 1v-1l2-2 3-1 1-1 2-1 4-3 5-2h7l2 2 2 2zM115 773l6 1h6a6 6 0 0 0 3-1l1-1 2-5 5 5 3 2c3 2 5 3 8 1l-1 1-4 2c-1 1-4 0-6-1l-3-2h-1l-2 3-7 1c-4-1-8-3-10-6z" class="st19"/>
      </g>
    </g>
    <path d="M376 592c0-3-5-4-6 0v4c0 3 6 4 7 0l-1-4z" class="st20"/>
  </g>
  <g>
    <path d="M161 826c-21-3-47-20-79-33-32-12-33-34-31-46 3-13 8 7 18 13l51 23c11 5 27 19 41 16s22-23 25-46c4-24 21-83 31-117 10-35 63-127 85-152s93-120 153-167 157-57 202-58c45-2 162 54 195 91 34 37 58 87 67 104s15 62 17 102c1 39-13 63-12 80 1 16-14 83-21 94-6 12-73 24-105 26-32 1-62-1-89 10-26 12-128 21-164 21s-139 16-179 19c-39 4-160 25-205 20z" class="st0"/>
    <path d="M206 814c-12-9-20-35-12-64 8-30 28-35 26-75-3-39 18-54 31-73 12-19 24-76 47-98s48-43 55-55c8-12 7-31 42-63 34-32 78-59 88-69 11-11 41-14 48-11 0 0 10-15 35-18 24-2 46-28 87-22 41 7 76 17 104 31s46 39 54 45c0 0 37-6 63 52 26 57 50 86 51 133 2 48-17 112-12 134 4 22-15 63-24 67s-84 22-119 20c-35-1-84 19-105 22-22 3-106 3-139 7-34 4-151 14-192 23-41 8-115 25-128 14z" class="st21"/>
    <path d="M524 318c-24 11-80 31-116 69s-29 71-45 83c-17 11-47 21-63 51-16 31-30 84-39 94s-3 41-7 65c-5 24-7 63 20 79 27 17 87 0 108-8 22-8 122 9 142 8s21-34 21-34 45 14 81 14c36 1 154-8 168-67 0 0 43 1 45-21s17-58 19-75 5-94-14-137c-20-44-102-103-94-84 0 0-48-121-226-37z" class="st22"/>
    <path d="M864 432l-1-6c-2-7-4-14-8-21-5-8-17-2-17 6v2c-2 4-2 9 0 13a26 26 0 0 0 12 15c3 3 8 3 11 1 4-2 4-6 3-10zM739 293c-4-2-8-1-10 1l-10-3c-4-1-7 4-5 8l7 7 1 4c7 10 17 20 25 28 9 9 19 16 31 18 7 1 12-4 12-11 2-28-29-42-51-52zM701 283c-8-3-18-3-27-5-5-1-6 6-2 8 8 4 16 6 25 9 7 2 11-9 4-12z" class="st22"/>
    <path d="M699 293v-1l-1-3-5-5c-4-5-12-6-17-7-5 0-8 5-4 9l5 5-1 7 6 8 3 1 3 4c2 4 5 5 8 4 2 3 4 6 9 7 2 1 5-1 6-3 4-10-8-18-12-26z" class="st22"/>
    <path d="M683 284l-7-6c-4-2-8-2-12-1-7 2-17 6-20 12-2 4 0 10 4 12 7 2 12-1 17-4l7-4c2-2 4-3 6-2 4 2 9-4 5-7zM244 687c1-16 3-31 6-47 0-4-4-7-8-6-18 7-15 35-19 51-3 15-4 31-4 46 0 13 15 22 23 8 7-11 13-40 2-52z" class="st22"/>
    <path d="M592 387l2 5 2 5 2 7c2 11 4 28 2 48l-3 15-6 16c-2 5-5 10-5 15v8l1 9 1 9 1 9c1 7 0 13-1 20-2 13-7 25-11 37l4-19c2-12 5-30 0-49-1-5-3-10-3-16a38 38 0 0 1 2-18l6-16c2-3 3-5 3-8l2-8a174 174 0 0 0 1-69zM705 503a155 155 0 0 0 10 23c3 8 5 17 5 27s-2 20-6 30v-8-9l-1-11c-2-15-8-34-8-52zM692 553a133 133 0 0 0 4 39c-1 7-4 15-8 22v-6-15c0-11-1-27 4-40zM747 349l6 13c3 8 8 21 11 36l2 13v13l-3 28c-2 20-4 41-9 61l1-16v-40l2-27 1-6v-7-7-7c-2-18-8-36-11-54zM783 453l3 11c1 7 0 16-4 25l-3-13c-1-7-1-15 4-23zM844 439a173 173 0 0 0 9 23c2 7 4 16 4 26 0 9-1 20-6 29v-8-8l-1-11c-2-14-7-33-6-51zM421 541a180 180 0 0 0 6 17c3 11 4 28-1 47l-12 29a112 112 0 0 0-10 31l-6 36c-1 7-3 13-6 19-2 6-6 11-10 16l3-4 5-14 4-21 2-27c1-10 2-21 7-32l8-15 6-15c4-11 6-22 7-33 1-12 0-23-3-34zM534 770l2-2 4-7c2-6 4-15 4-27l1-18 1-22 5-22c2-7 2-15 2-22l1 3 2 8c1 8 0 19-2 31l-1 19-1 21c-1 7-2 14-5 21-2 7-7 14-13 17zM444 427l1-2 1-7 10-23 4-7 6-7 3-4 3-3 10-5c6-3 14-3 21-1 4 1 7 3 9 6 3 3 4 7 4 11l-1-3c-1-2-2-4-5-6-5-4-14-5-23-1l-7 3-6 5-5 6-5 7-20 31zM788 701l-1-8v-19c1-17 3-38 8-59l1 8a203 203 0 0 1-2 49c-1 10-3 20-6 29zM856 610l-1-3-2-8c0-7 1-14 5-23l1 4 2 8c1 7 0 14-5 22z" class="st23"/>
    <g>
      <path d="M489 508h-1 1zM498 507c-3-3-7-2-9 1h-2l-3 4-1 5 1 6c1 4 3 7 7 7 3 1 8-1 9-4 2-6 3-14-2-19zM492 597c-1-3-5-4-7-1-3 5-3 11-4 16-2 6-6 12-5 19 1 3 6 5 8 2 4-5 5-11 7-17 1-6 4-13 1-19zM600 653v-2c0-3-3-6-6-5-11 2-13 19-9 28 2 4 8 6 11 2 6-7 8-14 4-23zM694 413c-2-3-7-6-10-3-9 8-12 21-5 31 2 4 8 2 8-3v-1c3 1 6 0 7-3 2-7 3-14 0-21zM606 546c-1-3-3-5-6-5-3 1-5 3-5 6l-1 14c0 6 8 7 10 2s2-11 2-17zM558 315c-3 1-4 4-6 7l-3 12c-1 7 2 13 6 17 12 12 31-1 35-14 5-17-18-32-32-22zM304 628c0-6-8-8-12-4-9 9-13 23-10 34 2 6 9 6 13 3 6-7 8-16 8-24l1-9zM344 489c-3-7-11-7-14-1-6 8-10 18-9 29 1 7 9 9 14 4 6-6 8-14 9-22v-2c2-3 1-6 0-8zM858 542c1-4-1-8-5-10-4-1-7 0-10 3-9 8-7 21-2 31 5 7 16 2 16-6l-1-13 2-5zM731 688c-1-7-9-7-14-5-15 8-22 34-15 49 2 6 9 7 14 3l3-4h1c13-11 15-28 11-43zM655 701c-6-1-7 6-8 11 0 4-1 9 1 12s6 3 7 1l4-11c1-5 3-12-4-13zM483 733l-1-2c-1-7-9-9-13-2-4 6-2 14 2 20 3 5 11 4 13-1s1-10-1-15z" class="st21"/>
      <path d="M499 603c-3-4-10-5-13-1-7 11-9 26-1 37 2 2 7 2 7-2v-2l4-2c9-8 8-20 3-30zM353 751c-1-6-11-7-11-1-1 7-3 14 2 20 3 2 8 1 9-2 3-6 0-12 0-17z" class="st21"/>
    </g>
    <g>
      <path d="M644 643c0-4-1-10-6-10-2 0-3 2-4 3-4 8-3 20-3 28 1 7 12 7 12 1l1-11v-11zM822 509c-2-3-2-7-2-10-1-5-8-6-9-2l-2 2c-3 5 0 12 4 16s10-1 9-6zM681 342c0-3-1-5-4-6-4 0-7 5-6 9l4 3c2 0 4 0 5-2 1 0 2-2 1-4zM384 582c-1-5-7-9-12-5-7 5-11 18-7 27v1l1 1v1l4 2c3 1 7 1 9-2 5-7 7-16 5-25zM885 500c-3-7-14-8-16-1-5 12-5 25-1 36 2 6 12 8 15 1l2-6v-1c6-9 3-20 0-29zM906 487c0-3-2-5-5-6-2-2-6-1-6 2l-2 3v7c1 3 3 6 6 6 4 1 7-3 7-7v-5zM872 687c-1-6-9-7-13-3l-3 5c-8 7-8 21-5 29 2 5 8 7 12 4 11-8 13-23 9-35zM903 676c0-4-7-4-7 0v5c-1 3 3 5 5 2 3-2 3-4 2-7zM576 749c-1-7-11-7-13-1-3 6-5 11-5 18 1 6 9 8 13 4l3-6 1-3 1-1 1-4c1-2 0-5-1-7z" class="st0"/>
      <path d="M647 645h-1c1-5-2-9-6-9-2-1-4-1-6 1l-1 4c-2 2-4 5-4 8-2 6 0 12 3 16 3 5 12 5 14-1 2-5 3-13 1-19z" class="st0"/>
    </g>
    <g>
      <path d="M363 408c-30 35-60 70-85 108-12 18-22 37-32 56s-24 39-27 59c0 2 3 3 4 1 6-21 20-41 30-61s21-39 33-58c24-36 55-66 80-102 2-2-1-5-3-3z" class="st1"/>
      <path d="M508 287c-16 4-32 12-45 21-14 10-25 23-38 34-24 20-52 43-66 72-1 2 1 4 3 2 19-26 41-49 66-70l35-31c13-12 31-16 47-24 2-1 1-4-2-4z" class="st1"/>
      <path d="M681 262c-10-7-24-7-36-6-8 0-16 3-24 5l-25 2c-32 3-65 11-93 25-1 1 0 4 1 4 13-3 25-9 38-13 16-6 33-9 50-11l46-8c15-3 28 2 42 5 2 1 3-2 1-3z" class="st1"/>
      <path d="M800 313c-10-4-18-12-27-17a376 376 0 0 0-95-34c-2 0-3 2-1 3 9 4 19 6 29 8 13 3 24 8 35 13l31 13c10 5 17 12 27 16 1 0 2-1 1-2zM820 324l-8-4-8-5-1 1 8 6 9 3v-1zM224 614c-10 34-25 66-31 101-4 27-5 82-42 85-2 0-2 3 0 4 12 2 22-7 28-16 10-14 12-31 15-47 4-23 7-45 15-67 6-19 15-39 19-59 0-3-4-3-4-1z" class="st1"/>
    </g>
    <path d="M426 482c-1-2-4-2-4 0s-1 6 1 8h2c2-2 1-5 1-8zM732 371c-1-2-4-2-5 0 0 3 0 5 2 6 1 2 4 1 3-1v-5zM423 688c-1-3-4-3-5-1l-1 7c-1 3 4 4 5 1l1-7zM853 550c-1-3-5-2-6 1l1 7c1 2 4 3 5 0v-8zM699 531c0-3-5-3-5 0-1 2-1 6 2 7 4 1 4-5 3-7zM235 762v5c1 1 3 2 4 0v-5c0-3-4-3-4 0zM238 677v4h2l1-4c0-2-3-1-3 0zM311 709c-1-2-5-2-5 1v6c1 2 4 3 5 0v-7z" class="st20"/>
  </g>
</svg>
