<?xml version="1.0" encoding="utf-8"?>
<!-- Generator: Adobe Illustrator 22.0.0, SVG Export Plug-In . SVG Version: 6.00 Build 0)  -->
<svg version="1.1" id="Layer_1" xmlns="http://www.w3.org/2000/svg" xmlns:xlink="http://www.w3.org/1999/xlink" x="0px" y="0px"
	 viewBox="0 0 1818 493" style="enable-background:new 0 0 1818 493;" xml:space="preserve">
<style type="text/css">
	.st0{fill:#F5B700;}
</style>
<path class="st0" d="M352,474l-6-3l-2-1h-3l-1-1h-1l-6,1l4,1h-6c-2,0-6,0-4,2l5,1h1l1-1v1l-1,1h-12l-4,1v1l-2-1c-2,0-4,0-3,2l6,1
	l6-1h1l6,1l5-2h1c3,1,6,2,9,1l2-2C345,474,354,476,352,474z M77,372c2-3,7-1,10-2c-4-2,13-3,0-5c-1,2-2,1-4,1c-5,1-8,2-9,4
	S76,373,77,372z M275,452c-6-1-8,3-13,2c-2,2,0,3,2,4l13-1l4-2c4-3-2-2-4-3l-1,1L275,452z M74,386h9l4-3h1c2-1,5-1,5-3h-2
	c-6-2-7,2-11,1c-5,0-4,3-6,3V386z M507,229h2l2,1l3-1l6-2c1-1,4-1,3-2l-4-1l-14,1c-1,1-2,2,0,3L507,229z M85,329c3,2,5,0,7-1l3-1
	c2-2,12,1,13-3l6-1l7-2c7,0,12-3,17-4l6-2c7,1,11-1,17-2l6-2l7-1v-3h8c2-3,10-1,12-3l1-1c3,1,6,0,8-1c6,0,11-2,15-3l8-2l6-2
	c1-1,0-1-1-1l5-1c9,0,18-1,25-5l5-1c4,0,4-1,6-2l10-2h1l7-1l7-2h2c2-2,4-3,9-3l6-1l2-1l15-2v-1h1c7,0,11-2,15-3l1-1l8-1l2-1l4-2
	c7,1,11-2,17-3h7c2-5-3-3-8-2h-1l-3-1l4-2h1v1h4c6,2,11,0,16-1l1-1h2c4,0,6-1,8-3c2,0,3,2,5,0c7,0,13-2,18-4l8-1l2-1v-2h7
	c2,0,2-1,2-2h1l8-1h7c6-2,13-3,11-7l1-1c4,0,6,1,7,2l4-1l4-2l2-1h1l7-2l-8-1h-4h1h-2l-3,1l-3,1c-4,1-8,0-10,2c-5,2-10,3-17,3
	c-3,1-9,0-12,2h-2l-1-1c-2,2-10,1-10,4c-7,0-14,1-19,3l1,1l-1,2l-2,1h-4l-3-1c-2,1-2,2-1,3l-2,1l-2-1l-1-2h-4c0,1,1,2,4,2l-1,1h-11
	l-29,7c-14,1-22,6-34,8c-6,1-12,1-15,4h-2l-8,1l-7,1c-3,1-6,1-6,3c-4,2-11,2-16,3v1l-7,1l-10,3c-9,1-16,4-24,6l-6,1c-5,0-7,2-10,3
	l-6,1c-7,1-16,2-21,6c-6,0-12,1-17,3l-8,2c-4,0-9,1-12,3l-11,3l-18,3c-4,0-7,2-8,3l-9,1l-5,2c-3,1-8,1-9,3c-3,0-5,0-6,2h-5
	c-1,1-5,2-3,3C78,329,82,329,85,329z M253,283L253,283z M14,430c-3-1-6-2-10-1l-6,3c-4,1-2,3,0,4c2,2,4,3,8,2l6-3v-1c3,0,7,0,3-3
	L14,430z M646,383h15c1-1,2-2,1-3h-12l2-2l-3-1l-14,6h1l6-1v3l4-3V383z M77,463c2,0,4,0,3-1l-5-1l-4,1l-1,1l-1,1l-1,3h1c0,2,3,2,6,2
	c5,1,4-1,5-2l3-1l3-2C83,463,79,465,77,463z M138,363l-2,1l-4,2v2c5,1,4-3,8-2l6-2L138,363z M54,418v1l-8-1h-5c-1,3,4,2,7,2v1
	c6,2,9-1,14-2C61,417,56,418,54,418z M110,454l-6,1v2l5,1l5-1c1-2-1-2-3-3H110z M140,451h2c0-2-3-2-6-2h-8h-2l-5,1l-2-1l-2-1l-4,1
	l-2,1v2h12l6-1H140z M81,359c2-2,7-1,9-2h-1c-3-3-6-3-12,0l-2,1C76,360,81,360,81,359z M316,482h-6l-2,1l4,3l6-1
	C318,484,318,483,316,482z M534,247l7-1c-2-4-6-2-10-1C530,246,530,247,534,247z M352,456l4-2c-2-2-4-2-8-1c-5,1,1,2,0,2L352,456z
	 M369,436c3-1,10,0,8-3h-8C370,434,367,435,369,436z"/>
<path class="st0" d="M301,474h1c2,2,4,2,7,2h3l1-1l6-1l-3-1l-4,1l-8-1L301,474z M749,284h2l4-2v-2l-6-1h-9c-1,1-9,0-7,2h12l3-1
	C749,282,747,283,749,284z M88,424h-2l-5-2c-8,0,1,3-3,3c-9,1-12,5-18,7l-1,1h1l-1,3h6l3-1l6-1l1-4l9,1h2l2-1V424z M68,435h1H68z
	 M69,433l1-2h3L69,433z M226,495c1,3,5,2,8,2C233,495,230,495,226,495z M379,428h-2c-2,2,0,3,2,5h2l1-3L379,428z M333,482l6-2h-6
	C332,481,327,482,333,482z M708,255c1-1,5-2,1-3l-4,1L708,255z M132,447c0-2-1-2-4-2l-2,1l4,2C133,448,132,447,132,447z M700,243h1
	v-2l4-2c1-2-2-1-4-1l-2,1v1C696,241,694,243,700,243z M768,276v1l2,2l4-1l-2-2H768z M601,261h3l6-2h-4C603,259,602,259,601,261z
	 M681,357h-4c-2,1-2,1,2,1l1,1C684,358,683,357,681,357z M82,458c-2,0-5,0-5,2C84,460,84,460,82,458z M94,352h10l2-1l6-1
	c2,0,3-1,3-2h2l4-2h-10l-4-1l-4,2c-1,1-5,1-5,3l-2,1C96,351,92,351,94,352z M376,438l1-1c-11,3-11,3-4,7l2-4h4l3-1h3l5,1l1,1h2l1,1
	l-6,1c3,2,5,1,8,0l5-1v-1l-2-1l-8-1l-1-1l-6-1l-3,1H376z M373,450l2-1l-4-2C370,448,369,449,373,450z M16,428c-1-2-4-1-6-1H8
	C10,428,13,429,16,428z M297,460C296,460,297,460,297,460c2,1,5,1,5-1h-2L297,460z M295,488v1h6L295,488z M96,461c-2,0,0,1,0,1h4v-1
	H96z M715,341l4,1v-2C717,340,714,340,715,341z M818,267c-2,0-5,0-4,2h4V267z M600,381v2c3,0,6-1,2-2H600z M690,349c2,0,3-1,3-2h-3
	C689,348,687,349,690,349z M789,276c2,1,4-1,4-2h-4C788,275,786,276,789,276z M763,378l-6,2l2,1c3,0,4-1,5-2L763,378z M246,492
	c-2,0-4,1-3,2c2,2,5,0,7,1c1,1,1,3,5,3c2-1,1-2,1-3v-1l-3-1C252,492,249,491,246,492z M256,494h1H256z M348,445c3,2,6,1,8,0H348z
	 M703,254h-3c-3-1-6,0-7-2h-6c0,1-6,3,1,3l2,1l6,1C702,258,701,255,703,254z M690,258l-4,1h-2l-2,1v1h6l4-1l2-1v-1H690z M482,435h-4
	c-3-1-5,2-9,1l-1,2c-3,1-5-2-9-1v1l-4,1c-3-2-5-1-8,0l-9,1v1h2l-18,6v3h-5l3-3h-1l2-1c-1-4-3-4-10-2l-3,4l-7-5l-2,1l-1,4
	c2-1,4,0,5,1l-3,1l1,2c-3,2-7,2-11,2h-2c-3,1-6,1-5,3c1,1-1,1-3,2c-5-2-3,0-4,1h-7h-10l-6,1h1v1l-1-1c-2,2-5,0-7,0c-7,2-1,4,0,6h4
	l3,1l1-1l3-1l4,1h13c-2-1-1-1-1-2l2-2h9c3-1,1-1,0-2l1-1h16c2-1,2-2,2-3l2-1v1l4-2v-1h9c4-3,9-2,14-2h-1l9,4l2-1l-2-3l8-2l11-2
	c2,1,5,0,6-1l-3-1l-3,1l-4-2h2v-2c2-1,4-2,4-4l3,2l-3,4c4,0,9,0,11-2l-4-2v-1l9-1c1,2,3,2,4,1c0-2,3-4,7-4C487,434,484,435,482,435z
	 M359,463h3l-1,1L359,463z M407,453h1H407z M389,458h1H389z M416,447h2l-6,2l-1-1L416,447z M424,450h1H424z M300,449l-3-1
	c-4-1-6-1-9,1c-4-1-7,0-11,1v2l12-2l9,2l4-2L300,449z M156,457l-10,3h-8l-2,1l-4,2v1c-3,1-3,3-1,4h7c3-1,1-2,0-3l6-1l3-2h-1h5
	C162,462,157,459,156,457z M157,464l6,1l-2-3L157,464z"/>
<path class="st0" d="M728,385c-5,0-8-2-13-1l-4-1l-7,1l-1,1l-1-2c-4,0-7,0-8,2h-5c-1,1-1,2,1,3l4-1l3,1l-1,1l-1,1l1,1l-3,2h-3v-1
	l-4-1l-1-1l-1,1v-3c-1-2-4-1-7-1c-1,1-1,2,2,3l1,1h1h-21l-8,4h-4c-5-2-7,0-11,1h-2c-5,0-10,0-14,2l-4,1l-2,1l-13,4v1l4,1
	c0,1,2,2,0,2l-6,1c-2,0-5-1-5,1l-6,1h-8c-4,1-5,3-6,5l-4-1h1h-1c-1-1-1-3-6-2c-2,1-7,2-9-1h-2l-2,1l-4-3l12-5h-2l1-3l4,1
	c5-1,0-2,0-4c6,1,8,1,11-1h4l-3,4l7-3l5-3v-3h1l2,1l-3,2l4,5l2-1h9l6-1c2-1,2-2,1-3l-5-2l16-4h1l3-1l-1,6c9-1,1-7,12-7l4,4h2v-7
	l-12-1c4-3,3-6-2-7l2-3v-1h-2l-2-3c-2,0-3,2-4,0c-2-3-5-1-8,0c-5-1-5-2-2-4h18l-6,1l9,3l5-3l6,1l1-1l-9-3l-3,1c0-2,2-3,5-4l2,2l3,1
	l4-1l2,1l4-2l-6-2c-3-2-6-4-12-3l-5-2h-1h1v-1h17c-2,3,5,4,7,6l5,3h-3c-2,0-3,1-2,2v1l-2,2h-3v2h4l3,1l2,1c7-1,14,0,19-2v-3l-8,1h-1
	l-12-2h2c2-1,6,0,7-2h10c3,0,6,0,4-2l-2-1l-4-1l-3,1l2-1l-2-1h-4l-1-3l-1-2c-3-2-8-2-13-2h-12l-5-1l4-1h3l11-3l1,1h1l6,1l2-1l2-2
	l-3-1l12-2v-1v1l-3,2l-2,1v1c3,0,5,1,5-1l2-2l5,1c1,0,2,2,3,0c0-1,1-3-2-4h-3c1-1,2-1,1-2c-4,1-7,2-6-2l9-2l5-1l5-2l1,1l14-4l2-1
	l5-1l2-1l27-8h-6c0-1,4-1,2-2l-7,1l-1,1l-8,2h-5c1-2,5-1,7-2s5-1,2-2l-22,5h-2h1l2-1l19-4l-2-1h-3l-14,3l6-2l-10,1l-10,3l-2-1
	c4-1,4-4,10-4c5-1,5-4,10-5l-2-1l-11,2h-2c-2,1-4,1-3,2h-1c-5,1-12,1-16,3l-4-1c-3,0-1-1,0-2s7,0,6-2l-1-1l-4-1c0,0-1-1,0,0l17-5
	l-2-1c-9,0-18,1-27,4h-8l6-1c3-1,2-2,1-2l2-1l1-1h8l12-4l-2-1h-2l-4,1l3-1l7-2c2,3,7,2,11,2c4-2-1-2-2-2c-1-1,0-2-2-2h6l2-1v-1l4,1
	l1,1l6,1l2-1l12-2c4,0,6-2,9-3h2v-2c0-2-3-2-6-3c0-2-1-3-4-3l-2,2c-2,0-5,0-4,1h7l2,1l-1,2h-11c0-3-2-4-9-2l3,2v3l-1-1
	c-4-1-7,1-10,1c-1-2-3-2-5-2l2-1l5-1l4-1l-1-2l-8,2l-15,3l-2,1l-15,3c0-2-2-3-4-4l-6,1l-5,2c0,0-1,0,0,0l-10,1c3-2,1-4,3-5v-1h3l2,1
	h7c1-2-2-2-4-2h1l5-2l5-1h4l3-2l2-1c3,1,6,0,8-1l2,1h13c1,0,4,1,4-1l-4-1h-2l-5-1h1l4-2l1,1l6-2l17-4l11-3l20-5l17-4l-2-1l-25,5
	c-4,1-9,1-11,3h-1l-22,5l-19,4l-5,2l-17,4v1h-3l-5,2h-3l-4-2l9-2l-3-2l4-1l4-1l4-1l19-4l9-2h1l-1,1h11l2-1c2-1,2-2,0-3h-1l-5,1h-2
	l3-1l1-1l-6,1l-5-1l-5,1l4,2l-8,2c-6-1-10,0-14,1c0-2,7-2,8-4l2,1l4-1l-7-1l6-2l2-3c0-1,0-2-3-1h-1l-2-1l-1-1l7-2l9-3l-2-1
	c4-1,7-3,11-3c2-1,5-1,4-2l-1-1l-16,5h-1c-3,1-8,1-11,3l-4,1l-13,3h-2l-8,2l-5,1l-9,3l-8,2l-4-2h-2c-5,0-6,2-8,3l2,1h3l-6,1v1l-5,1
	h-17l-6,2c-4,1-8-1-10,2c-2,1-6,0-7,2l-4,1h-4h1l12-3c2,0,4,0,2-2h-1l-3-2l-3,1l-1,1h-2l6-2l3-2l4,1c5-1,3-3,4-5l1-1h2l12-1h5l7-2
	c3-1,1-1,0-2l-3-1l-8-1l-2-3h-3c-2,0-5,0-6,2c0,2-2,1-4,1v-1c-1-2-3-4,1-5l5,1l8-2h-1l1,1c1,1-1,2,1,3h4l3-1h1c2,1,3,3,7,2l-1,1v1
	l3,1l-2,3c1,1,1,2,3,2l3-1l4-2c0-2-2-2-4-2l2-1l3,2h3c3-1,1-2,1-3c-3,0,0-1,0-1h1c1-1,2-2,1-3l9,2c2-3,9-2,13-3c4,1,4-3,8-1v-1v1
	c4,2,9-2,13-1l15-2h8c2-3-6-2-6-4h-4l-1-1c1-1,0-2-1-3h-1l-4,2v1l3,1h-4l-3-1l-4,1l-1,1l-3-1l-2,1h-7l-3,1l-3-1c0-1,0-2-2-2v-2
	c-1-1,5-3-2-4l-29,6l1,1h-1v-1c-7,0-13,2-19,4h-4c-5,2-12,3-19,2v1l-7,1l-2,1l-6,1c-4,1-2,2,0,3l4,2h4v-1h2l1,1l1,2h-8v-2l-4,1h-2
	c1-1-3-2,0-3c0-1,0-2-2-2l-9,2l-2,1l-5,1h-8l-6,1l-1-1c-3,2-5,4-11,4l-9,2l-8,2l-1,1c0,1-1,3,1,3l-1,1l1,1l-2,1h-6l-1,1h-4l-3,1
	c-4,0-6-1-4-3h3l1-1l5,1c3,0,6,0,6-2v-3l-4-1l-8,4l-7,1l-4,1c-4,0-8,0-11,2l1,1h-2c-2,1-3,1-2,3c-2-1-7,1-7-2l-4,1c-3,1-8,0-12,2
	l1-1c-3,1-6,2-10,1l3-1h1c4,1,6-1,7-2l1-3h1l6,1h6l1-1h1l8-1h1c3,0,7,0,9-2h1l4-2h-1l9-3l2-2l3,1h8c3-1,6-2,7-4h1c3-1,7-1,7-3l2-1
	h10l3-2h1c-6-1-9,1-14,1h-9c-1,2-6,3-6,5h-5l-5,1l-3-3c-4,1-4,3-8,3l-10,2l-5,1h-2c-2,0-3,1-3,2l-6,1l-4-1l-2,1h-4l-2,1l-10,2h-1
	l1,3h1h-1c-4-1-9-2-13,0l-5,1l-4,1c-4,2-13,2-14,5h-2l-1,1c-3,0-7,0-8,2l-6-1c-2,1-5,1-2,3c4,1-2,0-2,1h-7c-5,0-9,2-14,0l-2,1l-2-1
	l1-1h7c2,0,4-1,3-3l-3-1h6c6,2,8-1,12-1v-2l3-1c1-2,2-3,6-2l-1,1c8,4,9-1,13-2h3l6-1v-1h9l7-2l1-1h2c2-1,7,0,8-2l3-1l4-1h2
	c3,0,4-2,6-3h6v-1h11v-1l2-1h-5l4-2l7-1l5-1v-1c5,1,8,0,8-2h2c5,0,9-2,13-1l2-1h6c3-2,4-5,11-4c3-1,3-2-1-2h-16l-4,2l-6,1h-1l-8,1
	l-4,1v2c-3,1-8,1-9,3h-8l-2,1l-7,1c-5,0-6,2-10,3c-8,0-14,2-20,3h1v1l-1-1l-14,4c-6,0-11,1-14,3c-8,0-13,2-19,4l-15,3l-15,4
	c-5,0-9,0-11,3c-9,1-18,3-25,6l-3,1c-5,0-10,1-13,3c-6,0-11,1-16,3c-3,0-6,0-7,2h-2l-6,1l-2,1c-5,1-9,3-11,5l-14,2l-15,4l-8,2l-5,1
	l-12,3c-4,0-6,2-9,3l-4,2h-7c-4,1-4,3-6,4l-8,2l-6,1h-3c-6,0-8,3-13,3h-2c-7,0-6,3-10,4c-5,1-13,0-16,3c-5,0-9,1-11,3c-5,0-5,2-4,3
	c2,2,5,1,8,0l7-3l6-1h12v-1c3,1,7,0,8-2h2c4,0,7,0,9-2l5-2h6l2-2h5c1,0,4,0,2-1l3-1c-1-1,2-1,2-1l6-1h3l3-1v-1l3-1h5l5-3h7l4-1l3-1
	c-1,1-1,2-3,2c-3,0-2,1-2,2h-2c0,2-4,2-7,2c0,2-5,2-6,3v1h-2l-5,2h-1v-1h-3c-7,0-14,1-18,3l-2,2l-4,2l-5,1h-6v1l-8,2l-5,1l-1,1
	c-3,1-12,0-11,4l10,1h3c6,1,5-2,6-3h9c0-3,6-3,9-4v-2h4l5,1c4,0,7-1,8-3h1c0-1,2-2,0-3c0-2,3-2,6-2c2,1,2,3,6,4v2h-2l-10,3l-4,1
	c-2,1,0,4-6,2h-5l-1,1v1h-8c-2,0-4,1-3,2h-2v1h-1l-4,1c-2,2,3,1,6,2l2-1v1l-2,2l-2-1l-4,1h-4c-2,1-2,3-4,3l-4,2c-4-3-4-2-7-1l4,2h-2
	l-6,1h-2h-2l-7-1l-2,1l-1,1c-2,0-3,1-3,2h-1c-2,0-2,1-2,2c0,3,5,4,12,3l3-1c5-1,10-2,13-4v-1c1-1,8,1,6-2c10,1,6-3,10-5h1
	c5,0,10,1,12-2h7l-2-3l4-1h6l-3,1c-2,0-5,0-4,1c1,2,4,1,6,0c0,2-5,3-3,4l-4,1h-4l-7,2l-8,3l-1,1h-3l-6,1v1h-1l-6,1v1h-2l-16,5l2,1
	l6-2l14-3h1l2-1c4.6-1.4,9.3-2.4,14-3l1-1l9-2l12-1l-1,1l-8,2l-6,1c-4,0-5,2-2,3c2,1,4,0,4-1h6l1,2h-4v1c-2,1-2,3,0,4c1,1,1,2-3,2
	l-5,2c-2,1-1,1,2,1l19-2l9-1v-1l3-1h3c4,1,5,2,1,3l-4,2l-1,1h-11l-1,1h-3l-2,2v1l-8,3l-4-1l-2-2h-11l1-2l4-1l1-2l-4-1l-2,1l-1,2h-9
	v1c-2,0-6,0-5,2h1l-2,1v2c4-1,8,0,10-2h2l1,1l-3,2l-6,1l-2-1l-7,1c0,1-1,1,1,2h6l2,1l-2,1l-10-1l-1-1h-2l-4,2v1l-2,4l-2,1l-2,1l-2,1
	l-7,1c-6,0-9,1-8,4v1c-4,1,1,3,0,4h-2l-4,1c3,2-8,2-3,4l2,1l4-1l5,1c0,1,0,2,2,3l6-1l3-1l10-3c1-1,0-2-4-2h-3l3-1h6c3-1,10,0,12-2
	l5-1h4c0-1,2-2,5-2h6l2-1l8-1l8-2c-1,2,0,3-2,5l-2,1l-11,1h-1c-4,1-11,0-10,4h-3c-4-1-6,2-9,1l-1,1l-5,1c-6,0-6,3-10,4
	c-7-1-11,2-17,3l8,1h6l-6,2l-6,2l2,1v1c4,1,4-2,7-2l2,1c2,2,0,5,8,4h2c2-1,0-3,0-4c4-1,7,0,10,1l5,3l-5,1c-3,0-5-2-8,0v4h4v1h-3
	l-3,2h6c-3,1-8,1-11,3h11c5-1,11-1,15-3l10-2h3l8-2c1,2,2,3-2,4l-2,1h-1l-2,2l-4,1c2,0-6,4,4,3l3,2v-4c2-1,4-1,4,1h2c3-1,0-2,0-3h2
	c3-2,7,0,10-1h5l10-1l3-1l1-1h3l2-3l-3-1c0-2-7,0-6-2l4-1l1,1l6,1h4v-2c6-2,12-2,20-2l-7-3l7-2h2l7-1l10-1c2,0,5,1,8-1l3,1h-2l-3,1
	h-1l-8,3l-1-1l-4,1l-2,1c1,1-1,2-2,2l3,1c-4,0-5,3-11,1c0,2,3,3,6,3c-3,1-5,2-4,4l-6,1h-7l-2,1h-1c-4-1-6,0-7,2l-10,3c4,1,7,5,12,1
	l6,2l-1,1c-6,1-9,2-5,5v1l-10-1l-2-1c1-2-2-3-3-4l-2-1l-4,1l-2,1h-2c1,2-1,3-4,4h-2l-7,1l4,2h6c8,0,5,2,3,4c0,2-6,2-5,4c3,1,6,2,7-1
	l8,2c-2,2-1,3,3,2h10l8-1c8,0,9-3,13-5h8c2-1,0-4,6-3h1l3-1v-1h3l1,1h3c0-2,4-1,6-1l6-1v-1l-2-1l1-2h8l2-1h2c5,1,5-1,7-2l2,1
	c2,0-1-2,0-2h4l5-4h1c5-1,12,0,15-3c1-1,0-2-1-2h9l-1-2c-2-2-1-3,5-2h5l6,1l2-2l2-2h2c5,1,10,1,15-1h4c0,3-3,5,0,7c-4-1-7,0-10,1
	l-1,1l-4-1h-4l-2,1l-3,1l-2,1v2l-3,1c1,0-4,0-2,1c0,3,2,3,6,2v-1l2-1l3-1l5-1l7-1l1-2h-1c1-2,4-1,6-1h2v-2l6-2l2-1h1v1h4
	c3-1,7-1,10-3h-1c1-2-3-1-5-2l-2-1h-6h-2l-1,1l-1-1h-5l-5-3h2l-4-2v-1h7c1,3,3,3,7,1h8l6-1v-1v-1l6,1h4c2,1,3,0,4-1l1-2l-3-2l1-1h12
	l2,1h1c3-1,9-1,7-3c-2-1-2-2,0-3h1l2,1l12-1l7-1c2-1,1-2,0-3h2l1-1l2,1l6,1c7,0,2-3,4-4h2l10-1v-1h9l2-1c2-1,5-1,4-3h2c-1-1-1-2,2-2
	l5-1c0,1,1,2,4,2l4-2l6,1l4,1l6-2l-4-4l3-1v-2l1-1h1c1,2,2,4,8,4h11l2,1h-2l-1,1v1c-3,0-4,2-6,3c-2,0-4,1-2,2c7,1,4-3,8-3l1,2l4-1
	l3-1l1,1l13-1h2l-2,3l-6-2l-3,4l-8-1l-2,4h-1c-6-5-6-5-17,0l4,2l-5,1l-16,4h-3l-2,1c-1,3,4,3,9,2h4c1,2,4,1,6,1c4-1,6-2,6-4v-1
	c4,1,8,0,11-1h5c1,2,5,3,9,2c6,0,13,1,18,3l-1,1l-1,1v-1c-7,1-12,0-17-2h-9c2,4-2,5-8,5v-2l7-2l-11-2l1,2l-7,8l2-6l-13,2l-5-2h-4
	c0-2-4-3-4-3c-3,2-10,2-10,4c-2,0,1-2-3-2l-6,1l-6,1l-2,1h-1c-4,1-8,1-9,3c-2-1-4,0-5,1c0,3,8,1,10,2h4l2,1h3l4-1l1-1c1-1,0-1-2-1
	l-1-2l-2,1v-1h4l3,1h1l5-1h4c4,1,5-1,8-1l2-1l6,1c-4,1-4,1-3,2l3,7l3-2l4,2l-4,1h-7v3c-3,0,0,1,0,1c4,0,5,2,7,3l3,2h4c0-2-3-2-4-2
	l-1-1c-4-1,0-2,2-3h1c2,0,2-1,2-2l6,1c2,0,2-1,1-2l8-2l-1,1h-2l-2,3v1h3c3,0,4,3,9,1h6l3-1c2-1,8-2-1-2l-3-1l5-1c5,1,10-2,16-1l-1-2
	c8,0,14-3,21-4l2-2h2c10,0,16-3,25-5h3c1-1-1-2-3-2l2-1h3l4,1l8-1l3,1c4,0,7-2,9-3s5-1,5-3l-6-1h1h-4l2,1h-1v2h-5c2-1,1-2-2-3l4-2h6
	l2-1l4-1v-1l5,1l-2,1l1,2l7,1h2l2-3l-1-1l6-2h1l2,2h2l4,1l5-1c1-2-1-2-3-2l-3-1l3-1v-1h10c-1,2,3,2,5,2h2l9-1c3-1,6-1,7-3h-2h1l7-1
	v-1l3-2l-1-1l-2-2h1v-1h3l10-1c5,1,10,2,15,1C731,385,730,385,728,385z M695,329h-1H695z M603,244l4,1h1l-4,2l-4-1L603,244z
	 M631,242h-1H631z M650,246v1V246z M359,430v1l-3,1v-2v-1L359,430z M560,398l1-1l2,1H560z M582,394l-1-1h2L582,394z M599,395l-4-2
	v-2C596,392,600,393,599,395z M598,391l-1-4c-4,1-4,2-3,3l-6,1v-2l-3,2c-2,0-4,0-4,2h-8l-11-4l-1,3l-6-2c-2-1-5,0-7,1l1-1h-1l-4-1
	l-3,1l-3,1c0-2-1-2-4-2l-6-1h-6c1-1,3-1,2-2l-2-2h2c7,2,13,2,19,0l1-2h9c-2,1-2,2-1,3l7,1c2,2,4,2,7,1l4-2l2,1l2-1c3,1,4,3,9,2
	c-1-2-4-2-7-3h-6l-2-1l2-1l1-1l6-1h-19l2-1c2,1,5,0,8-1l1-1h1c1,1,4,2,7,1h4v2h6c1-2,4-2,7-2l4,1c2-2,3-1,4,0h6l-2,1
	C609,384,608,388,598,391z M426,401l3-1l0,0l-1,1H426z M263,448l-5-1h6L263,448z M123,391C122,391,123,391,123,391z M170,379l2,1v1
	h-2V379z M190,364C189,364,190,364,190,364z M461,271l-1,1v-1H461z M594,376v1h-5l-5-1l-1,1v-3l-6-2v1v-1h2c5,1,7-1,10-2h-1h1
	c2,0,2,3,5,1l2-1h6l6,2v1l-1-1l-6,1c-2,1-1,1-1,2C598,374,596,375,594,376z M417,403v-1h-7h3l3-1h1l3,1v1H417z M253,445h-6l-1,1h-2
	l-1-1l6-2v-1l-3-3h5l-2,1c0,1,0,2,2,2h3c1,1,2,1,1,2l-1,1H253z M228,438v-2l4,2l-4,1l-2,1h-1l1-1L228,438z M611,278l2-1v1H611z
	 M577,373l1,1l-2-1H577z M325,423l-1-1h-1h4l1,1h-2H325z M251,435l-6,1h-4c1-1,0-1-1-2l3-2h2c0-1,1-2,4-2v1l-3,1h5l3,1l3,1l1,1
	c-3,0-2,1-2,2l-2,2h-3C253,438,253,437,251,435z M226,443l5,1h-10L226,443z M304,302l7,1l-5,2h-8v-2h1L304,302z M331,285v-1l7,2h-5
	L331,285z M393,286h4l6-1v1h-2l-1,1l-6,1h-4v1l-4,1h-3l-2-1h-8l-2-1l4-2v1l13,1L393,286z M519,378l2-1l2,1H519z M182,415l-2-1v-3h10
	v1l-2,2l-4,1H182z M586,290h1H586z M243,359l1-1L243,359z M287,341h1H287l-3,1v-1H287z M187,396h-1H187z M350,300h1H350l-2-1h-2
	l-2-1L350,300z M295,312h-1l1-1V312z M289,311l2,1h-5l-2-1H289z M222,410l-2,1L222,410z M361,292h-2l2-1l1,1H361z M339,296l-1-4l2,1
	C338,294,340,295,339,296z M295,311l-2-2v-1h4C297,309,297,310,295,311z M266,315v2l2,2v1h-8v-1h-3v-1c3-1,9-1,7-4L266,315z
	 M246,318l5,1l4,1c-1,2-5,2-8,2l-3-1c2-1,2-2-1-3H246z M230,330l-3,1l-2-1H230z M146,421l1,1h-1V421z M374,292l1,1h-2v1v-1h-3l2-2h2
	V292z M222,325l1-1l-4-1l8-1c-2,1-1,2-3,2L222,325c-2,1-2,2,0,3v1l-1-1l-2,1c-2-1-4-2-6-1l-3-3C214,326,218,327,222,325z M558,371
	l-4,2l-4,1h-1l-3-2h-1l4-1h5l1-1h3l5,1h-3H558z M632,292h1H632z M327,296l2,3l-2,1c0,2,3,2,6,2h2v1h-2c-3,0-4,2-8,1l-2,1h-6l3-1l2-1
	c2,0,4-1,3-3l-4-1v-2h1L327,296z M174,405L174,405z M271,438l-7-1l-1-1l1-1h4l10,1L271,438z M609,360l-3,1l-2-1h1h-1l5-1V360z
	 M419,282l-4,1l-4-1l8-1V282z M410,277l-1,1l-1-1H410z M396,280l4,2h-2l-2,1l-4-2l1-2h3V280z M191,336h2c-1,1-1,2,1,2h3
	c3-1,3-4,10-3h3l-17,5l-2-1h-2l1-1v-2H191z M163,395l2-1h10v1l-1,1c0,2-1,2-2,1h-3l-6,1l-2-2L163,395z M215,442h-1H215z M348,416
	l1,1l-3,1l-2-1h-1L348,416z M361,415l1-2l4-1h1l1,1L361,415z M433,399h-2H433z M471,389h-1l1-1l3-1L471,389z M611,373l3-2l3,2H611z
	 M421,276l1,2h-3l-3-1c1,0,2-1,1-2l3,1H421z M275,303h-3l-4,1h-4h-2l-4,1c-1,0-9,0-1,2h-10l-6,1c3-1,5-1,4-3h3l11-1v-4h3v-1l1,1h13
	l-2,1C273,302,274,303,275,303z M183,339l1,1l2,1l-5,1h-1v-1c1-1,2-1,1-2H183z M145,387l-1-1l2-1l3,1L145,387z M160,425l-6,1
	L160,425z M318,426l1-1h2l-5,2L318,426z M625,360h-2c-1-2-4-2-8-2l-2-2l6-2l1,1c2,2,5,1,7,0C625,357,624,358,625,360z M660,335h-1
	H660z M680,289h4h-1c-2,0-3,1-2,2h-2l-1-2H680z M674,264c-2,0-5,1-6-1v1l5-1L674,264z M670,257h4l-9,2v-1l4-1H670z M581,259l-1-1h3
	L581,259z M526,265l6-2l2-1c3,0,6,0,7-2h8v-1l7,1l10,1h-2c-3,2-7,2-11,1l-5-1h-1v3l-10,2v-2c-2,0-6,0-5,2h5v1h-7l-3,1h-1l-4,2h-5
	l-1-1c-5,0-9,0-11-3l4,1c3,0,7-2,11,0c1,1,6,0,4-2H526z M456,274h-1v-1L456,274z M433,276h2c3,0,7,0,10-2v1h3l-1,1l-2,1h-7l-2,2h-3
	c0-1,1-2-2-2L433,276z M447,267L447,267z M415,273h-4h1l-2-2C413,271,415,271,415,273z M299,293l10-3h1l8-1c2,0,5,0,5-2h2v1l-5,2
	l-4,1l-4,1l-4,1h-2v1l-4,2h-7l-3,1l-5,1l-3,1h-7h1l-1-2l4-2h1c5,0,8,0,9-2H299z M157,343l1,1h-3L157,343z M137,386h-2H137z M125,397
	l3-1v1H125z M116,415h3v1l3,1h1c-3,0-4,1-5,2l1,2l-2-1l-2-1l-2-2l1-1L116,415z M141,430l2-1h1L141,430z M226,433h-3H226z M208,443h2
	v1h-9l1-1H208z M212,456h-5l-1-1l5-1l6-1h2v1C216,454,213,454,212,456z M292,440l-3-1c0-1-2-2-5-2l-1-1v-3l6,1l4,4h-1
	C291,438,295,440,292,440z M304,429l-7-2h1l5-1l3,1v2H304z M313,430l-5,1l-2-2c3,0,4-1,5-2h3l2,1c2,0,2,1,2,2l-1,1L313,430z
	 M520,408v-1h-1l-1-2l1-1l1,1l1,2L520,408z M504,422l10-1l1-1c3,0,7-2,12-1l-14,5l-4,1h-6L504,422z M547,420l1-2h1v2H547z"/>
<path class="st0" d="M587,410v-2l-4,1L587,410z M379,445h-2c0,2,1,3,5,2L379,445z M321,459h12c-1-2-5-2-8-2S321,458,321,459z
	 M327,454l-2,2c3-1,8,0,10-2h2c2-1,3-2,1-3c4-1,7-1,10,2l1-1l-2-5l-11,3h-1c-1,1-5,1-4,3L327,454z M249,460h-4l2,1c3,2,5,1,8,0h2
	C255,459,252,458,249,460z M257,457h-5l4,1L257,457z M314,461v-1c-2-1-4-2-6,0c0,0-2,1,0,1H314z M24,426c-2,0-4-1-5,1c2,1,4,2,6,1
	s2-1,1-2H24z M293,487c-4,0-6,3-11,1h-10v1l-8,1l-6,2v1h-1l4,1l3,1l2-1c3,2,5,1,8,0c2-2-8,0-4-2l4-1l2,1h2l3-2l4,1c7,1,3-3,8-3
	C293,488,295,487,293,487z M300,481h-1l-4-1l-6-1h-6l-4,1v4c5,3,8,1,12-1c5-1,9,2,14,0L300,481z M129,351l-4-2l-4,1
	C123,352,126,350,129,351z M35,424l7,1l1-1l-1-1C40,422,38,423,35,424z M657,283l4,1v-2l-2-1C658,282,656,282,657,283z M507,433
	c-3,3,3,1,5,2C511,433,509,433,507,433z M663,239l10-1h2c1-1,0-2-2-3h-10C662,236,658,238,663,239z M241,463c0,2,3,2,6,3
	C249,463,245,463,241,463z M149,368c-1-1,1-2-1-3l-3,1l1,3L149,368z M108,354c1,1,3,2,7,1C113,353,110,354,108,354z M665,383h4
	c1,0,3-1,0-2L665,383z M302,481l6-2h1l-1-1h-4C302,479,302,480,302,481z M390,436l8-1l-4-1l-7,1L390,436z M592,385l1-1l-4-1
	C589,384,589,385,592,385z M205,435v-1c5,0,6-2,6-4c-3,1-7,0-7,2h-2l-1,2v2C205,437,203,435,205,435z M432,414
	C432,414,431,414,432,414v2c5,2,5,0,6-1L432,414z M421,429h1l2,2v1l16,4v-5h1l-1-2l3-2l4-3l-13,1l-6-1h1l-4,2l-3-1
	C417,427,419,428,421,429z M407,426c2-1,1-1,0-2l-4,1c-1,0-2,0-1,1H407z M371,429h-4l2,1L371,429z M384,425v1l1,1h5c2,0,3-1,2-2H384
	z M499,398l-7,1h-1h-2l-8,5l-1-2h-3c-4,1-1,3-2,5c1,1,1,2,3,2c4,1,6,0,8-1h1c3-1,2-2,1-3l3-1c3-1,5-3,10-2l8-2v-1l-2-1h-1v-1l3-1
	l-3-2l-5,1v1L499,398z M514,392h-5v2C512,394,514,394,514,392z M416,421h1c4-3-1-4-4-5l-2,1v1l4,3H416z M427,413l-4,1c2,0,1,1,2,2h1
	C426,415,429,414,427,413z M439,413l1-1h10c4-1,11,1,15-2l2-1c2-2-1-2-4-2h-2h2c1,0,5,0,1-1l-9-1l-1,1v1l-10,2h-7v1h-1L439,413z
	 M763,357c-10,5-10,0-13-1l7-2l-18-2c-7-3-11-1-16,0l-8,2l8,4c-15,0-2,5-6,6h-8l6,2v1h-18l17,5l1,3l9-2c4-2,13-1,11-6c6,0,13-3,18,1
	l7-2L763,357z"/>
<path class="st0" d="M474,431c-10-1-17,1-19,5C464,436,473,434,474,431z M684,378c-8-5-11-5-20-1h8l2,1l3-1l-3,5L684,378z M399,435
	l-1,1l1,2l1,1l2,1l7-1c4,0,4-1,5-2h5c2,1,5-1,7-1l1-3h-4l-2-2c-6-3-7-3-9,1l-4-1c-2,0-5-1-6,1l1,1h-2v1h-2V435z M356,451l12-5h1v-1
	c0-1,1-1-1-2l-3-1c-2,1,0,2,0,2l2,1l-18,5L356,451z M385,448h-3l-3,4l9,1L385,448z"/>
<g>
	<path class="st0" d="M842,376l-6-3l-2-1h-4v-1h-1l-6,1h4l-6,1c-3,0-6,0-5,2l5,1l2-1h1l-1,1v1h-12l-4,1v1l-2-1c-2,0-4,0-4,2l6,1l6-1
		h7l6-1h10l1-1C835,376,844,378,842,376z M567,274c2-3,7-1,9-3c-3-1,14-2,0-4l-3,1c-6,0-9,2-10,4C563,273,566,275,567,274z M764,354
		c-5-1-8,3-13,2c-1,2,0,3,3,4c4-1,8-2,13-1l4-3c3-2-2-1-4-2l-1,1L764,354z M564,288l8-1l5-2h1l4-3h-2c-5-2-6,1-11,1c-4,0-3,2-5,3
		V288z M996,131l1-1l2,1h5l5-2l4-2c-1-1-3-2-5-1c-4,1-9-1-13,1c-2,1-2,2-1,3L996,131z M574,231c4,2,6,0,8-1l2-1c3-2,13,1,14-3l5-1
		l8-2c7,0,11-3,17-4l6-2c6,1,11-1,17-2l5-2l8-1c1-1,1-2-1-3h9c2-3,9-1,12-3l1-1c3,1,5,0,8-1l15-3l8-2l6-2l-2-2h5c10,0,19-1,26-5l5-1
		c4,0,4-1,6-2l10-2h1l6-1l7-2h2c3-2,5-3,10-3l5-1c2,0,2-1,3-2l14-1l1-1h1c6,0,11-2,15-3v-1h1l7-1l3-1l3-2c8,1,12-2,18-3h7
		c2-5-3-3-8-2h-2l-2-2l4-1v1h5c6,1,11-1,16-1l1-1h1c5,0,7-1,9-3c1,0,3,2,5,0c7-1,13-2,17-5h9l2-1v-2h7c2,0,2-1,2-2h1l7-1h8
		c6-2,13-3,11-7l1-1l7,2l3-1l1-1l4-2h2l8-2l-8-1h-4h-1l-3,1l-4,1c-3,0-7,0-10,2c-5,1-9,3-16,3c-4,1-9,0-12,2h-2l-2-1c-1,2-9,1-9,4
		c-7,0-14,1-19,3l1,1l-1,2h-1l-1,1h-4l-4-1c-2,1-1,2,0,3l-2,2l-2-2l-2-2h-4l4,2v1h-11l-29,7c-14,1-22,6-34,8c-6,1-12,1-16,4h-1l-8,1
		h-1l-7,1c-2,1-5,1-6,3c-3,2-10,2-15,3v1l-7,1l-10,3c-10,1-17,4-24,6l-6,1c-5,0-8,2-10,3l-6,1c-7,1-16,2-21,6c-6,0-12,1-17,3l-8,2
		c-5,1-10,1-12,3l-11,3l-19,3c-3,0-6,2-8,3l-8,1l-5,2c-3,1-8,1-9,3c-3,0-6,0-6,2h-5c-1,1-5,2-3,3C568,231,571,231,574,231z M743,185
		l1-1L743,185z M504,332c-3-1-6-2-10-1l-6,3c-4,1-2,3,0,4c2,2,4,3,8,2l6-3v-1c3,0,7-1,3-3L504,332z M489,335h-1H489z M1136,285h14
		c2-1,3-2,1-3c-4,0-8-2-12-1l3-1l-3-1l-14,5l1,1l6-1v3l3-3L1136,285z M566,365c2,0,5,0,4-1c0-2-3-1-5-1l-4,1h-1v1l-2,1h1l-2,2l2,1
		c0,1,2,2,6,2c4,1,4-1,5-2l2-1c1-1,4-1,3-2C573,365,569,367,566,365z M628,265h-2c0,2-3,2-4,3v2c4,1,4-3,8-2l6-2L628,265z M543,320
		l1,1l-8-1h-6c0,3,5,2,8,2v1c6,2,9-2,13-2C551,319,546,320,543,320z M599,355l-6,1v3h6l5-1l-3-3H599z M630,353h1c1-2-3-2-5-2h-10
		l-6,1l-2-1l-2-1l-3,1h-2c-1,1-2,2,0,3h11l6-1H630z M571,261c1-2,7-1,9-2h-1c-3-3-7-3-12,0l-2,1C566,262,570,262,571,261z M805,384
		l-5-1c-2,1-3,1-2,2l4,2h5C808,386,807,385,805,384z M1024,149l7-1c-3-4-6-2-10-1C1020,148,1020,149,1024,149z M842,357l4-1
		c-2-2-5-2-8-1c-6,1,1,1,0,2H842z M859,338c2-1,9,0,7-3h-7C859,336,857,337,859,338z"/>
	<path class="st0" d="M791,376h1l7,2h2l1-1l7-1l-4-1l-3,1l-8-1L791,376z M1239,186h2l4-2v-2l-6-1l-10-1c-1,2-8,0-7,3h13l3-1
		C1238,184,1237,185,1239,186z M578,326h-3l-5-2c-7,0,1,3-2,3c-9,1-12,5-19,7v4h6c2,0,3-1,3-2h6l1-4h-1l10,1h2l2-1
		C579,330,576,328,578,326z M558,335l2-2h2L558,335z M716,397c0,3,4,2,7,2C723,396,720,397,716,397z M869,330h-3c-1,2,1,3,2,5h2
		c2-1,2-2,2-3L869,330z M823,384c2-1,5-1,5-3l-6,1C821,383,817,384,823,384z M1197,156c2,0,6-1,2-2l-4,1L1197,156z M622,349
		c0-2-2-2-4-2l-2,1l4,2L622,349z M1189,145h2v-3l4-1c0-2-2-1-4-1l-2,1v1C1186,143,1183,144,1189,145z M1258,178l-1,1l3,1h4l-2-2
		H1258z M1091,162c0,1,1,2,3,1l6-2h-4L1091,162z M1170,258l-4,1c-1,1-1,1,2,1l2,1C1174,260,1172,259,1170,258z M572,360
		c-3,0-5,0-5,2C574,362,574,362,572,360z M584,254h9l2-1l6-1c3,0,4-1,4-2h1l4-2h-9l-4-1l-4,2c-2,1-5,1-5,3l-2,1
		C586,253,582,253,584,254z M866,340v-1c-10,3-10,3-3,7l2-4h4l3-1h2l6,1v1h3v1l-5,1c3,2,5,1,8,0v-1h5v-1l-2-1h-1l-7-1l-1-1l-6-1
		l-4,1H866z M863,351h1l-3-2C859,350,858,351,863,351z M505,330h1c-2-2-4-1-7-1h-1C500,330,502,331,505,330z M786,362c3,1,6,1,6-1
		h-2L786,362z M784,390v1h6L784,390z M586,362c-2,1-1,2,0,2h3v-2H586z M1204,243l4,1v-2L1204,243z M1308,169c-2,0-5,0-5,2h5V169z
		 M1090,283v2c3,0,5-1,2-2H1090z M1179,251c2,0,4-1,4-3l-4,1C1178,250,1176,251,1179,251z M1279,178c2,0,3-1,3-2h-3
		C1277,177,1276,178,1279,178z M1252,280c-3,0-4,1-5,2l1,1c3,0,5-1,5-2L1252,280z M736,393c-2,1-4,2-3,3c2,2,5,0,7,0c1,2,1,3,5,4
		c2-1,1-2,1-3v-2h-3L736,393z M838,347c2,2,5,1,8,0H838z M1193,155l-4,1l-7-2h-5c0,1-6,2,1,3l2,1l5,1C1192,160,1191,157,1193,155z
		 M1179,160l-3,1h-4v2h6l4-2h2v-1H1179z M971,336h-3c-4,0-5,3-10,2v2c-4,1-6-2-10-1v1l-3,1c-3-2-6-1-9,0l-8,1l-1,1h3l-19,5l1,4l-6-1
		l4-2h-1l2-1c-2-4-3-4-10-2l-3,4l-7-5l-2,1l-2,3l6,2l-4,1l2,2l-12,2h-2c-3,0-6,1-4,3c1,1-1,1-3,2c-6-2-4,0-4,1h-6h-3l-8-1l-6,2h-8
		c-6,2-1,4,0,6h4l4,1v-1l4-1l3,1h13l-1-2l2-2h10c3-1,0-2,0-2l1-1h16c2-1,2-2,1-3l2-1v1l4-2l1-1h9c3-3,9-2,13-2l9,3h2l-3-3l9-2l10-2
		l6-1c1-1-1-1-2-1l-3,1h-1l-3-2h2v-2c1-1,3-2,3-4l4,2l-3,4c4,0,8,0,11-2l-4-2v-1l9-1l3,1c1-3,3-4,8-4C977,336,974,337,971,336z
		 M848,365h4l-2,1L848,365z M879,360h1H879z M905,349h2l-5,2l-1-1L905,349z M913,352h1H913z M790,351l-4-1c-3-1-6-1-8,1
		c-4-1-8,0-11,1v2l12-2l9,2l3-2L790,351z M645,359l-10,3h-7l-2,1l-4,2v1c-3,1-4,3-1,4h6c4-1,1-2,1-3l5-1c1-1,4-1,3-2h5
		C651,364,647,361,645,359z M647,366l5,1l-1-3L647,366z"/>
	<path class="st0" d="M1218,287c-5,0-9-3-14-1l-3-1h-8l-1,1l-1-1c-3,0-7,0-7,2h-6c0,1-1,2,2,3l3-1l3,1l-1,1v1v1c-2,0-3,1-2,2h-3v-1
		l-5-1l-1-1v-2c-2-2-5-1-8-1c0,1,0,2,2,2l1,2h1h-21l-8,4h-3c-6-2-8,0-11,1h-2c-5,0-10,0-14,2l-5,1l-1,1l-13,4v1l3,1c1,1,3,1,0,2
		l-5,1h-6c-1,2-4,2-6,2h-7c-5,1-5,3-6,5l-4-1h-1l1-1c-1,0-2-2-6-1c-2,1-7,1-9-1h-2l-3,1l-4-3l12-6h-2l1-2h1l4,1c5-1-1-3,0-4v-1
		c5,2,8,2,11,0h3l-2,4l6-3l6-3h-1l1-3h1l1,1l-3,2h1l3,5l2-1h9l7-1v-3l-4-2l15-4h1l4-1l-1,6c9-1,0-7,11-7l4,4h3v-7l-13-1c5-3,4-6-2-7
		c2-1,2-2,2-3v-2h-2l-2-2c-1,0-2,2-3,0c-2-3-5-1-8,0c-6-1-5-2-2-4l4-1c2,2,6,1,9,1l5-1l-6,2l8,3l6-3h6l-8-3l-3,1c-1-2,2-3,4-5l1,1
		l2,2l3,1c2,1,2,0,3-1h3c2,0,4,0,3-1l-6-2c-2-2-6-4-11-3l-6-2v-2h3c5,2,10,1,15,1c-2,3,5,3,6,6l6,3h-3c-2,0-3,1-3,2h1l-3,3h-3v2h4
		l3,1l2,1h1c6-1,14,0,19-2v-3l-8,1h-2l-11-2l2-1l6-1h11c3,0,6,0,4-2l-2-1l-5-1h-2l1-1h-5v-1c-2,0-2-1-1-3l-1-1c-4-2-9-2-13-2h-3
		l-10-1h-4l4-1h2v-1l12-2h2c0,2,3,2,5,2l2-1l1-1l1-1l-3-1l13-3v1l-4,2l-2,1v1c3,0,6,1,6-1l2-2l4,1c1,0,3,2,3,0c1-1,1-3-1-4h-4l2-2
		c-4,1-8,2-7-2h1l8-2l6-2l5-1l1,1l13-4l3-1l4-1l3-1l27-8l-1-1l-5,1c-1-1,4-1,2-2l-8,1l-9,3h-5c1-2,6-1,8-2c1-1,5-1,1-2l-22,5h-1h1
		l1-1h1c7-1,13-2,18-5h-4l-14,3l5-2c-3-1-6,1-9,1l-11,3l-1-1c4-1,4-4,9-5c5,0,6-3,10-4l-1-1l-11,2h-3l-3,2h-1c-5,1-11,1-15,3l-5-1
		c-2-1-1-1,0-2c2-1,7,0,7-3h-2c-1,0-1-2-4-1h1l16-5c1,0,1-1-1-1c-10,0-19,1-27,3c-2,1-5,2-8,1l6-1c2-1,2-2,1-2l2-1v-1h1l7-1
		c4-1,9-1,12-3l-1-1h-3l-3,1h-1l3-1v-1l7-1c3,2,8,2,12,2c4-2-2-2-3-3l-1-1h5l2-1v-1l4,1l1,1l7,1l2-1l11-2c5,0,7-2,10-3h1l1-2
		c-1-2-4-3-6-3c0-2-1-3-4-3l-2,1c-2,1-6,1-4,2h8v3h-12c1-4-2-5-9-3l3,3l1,2h-2c-3-2-7,0-10,0l-4-2h1l5-1l4-2v-1l-8,1l-15,3l-2,2
		l-15,3l-4-4l-6,1l-6,1v1l-9,1c3-2,0-4,2-5l1-1h3l2,1h7c1-2-2-2-4-2h1l5-2l4-1h4l3-2l3-1l8-1l1,1h13l4-1c1-1-2-1-4-1l-2-1h-5l1-1
		l5-1c3,1,5,0,7-1l17-4l10-3l21-5l16-4c1-1,0-1-2-1l-24,5c-4,1-9,1-11,3h-1c-9,1-15,3-22,5l-19,4l-5,2l-18,4l1,1h-3l-5,1l-3,1l-4-2
		l8-2l-2-2l3-1l5-1l4-1l18-4l9-2h2v1h11l2-1c2-1,2-2,0-4h-2l-4,2h-2l3-1l1-1l-7,1l-4-1c-3,0-6-1-6,1l5,2l-8,2c-6-2-10,0-14,1
		c-1-2,7-2,8-4l2,1l4-1l-7-1l5-2l3-3c0-1,0-2-3-2l-1,1l-3-1v-1l7-2l8-3c1-1,1-1-1-1c3-2,7-3,11-3c2-1,4-1,4-3h-1l-16,5h-1
		c-3,1-8,1-11,3h-5c-4,2-8,3-13,3l-1,1l-9,2l-4,1l-9,3l-9,2l-4-2h-1c-5,0-6,2-8,3l2,1h3l-6,1v1l-5,1h-17l-6,2c-4,1-8-1-10,2
		c-2,1-6,0-8,2l-3,1h-4l13-3c2,0,4-1,2-2h-1l-3-2l-3,1l-1,1h-2l6-2l3-2h4c5,0,3-2,4-4l1-1h2l12-2l5,1l7-2c3-1,1-2-1-2l-2-1l-8-1
		l-2-3l-3-1l-6,2c0,2-2,2-5,2l1-1c-1-2-4-4,1-5l4,1l8-2l1,1c1,1-1,2,1,3h4l3-1h1l6,2v2l3,1l-2,3c0,1,1,2,3,2l3-1l4-2c0-2-2-2-4-2
		l2-1l3,2h3c3-1,1-2,0-3c-2,0,1-1,0-1h2l1-3l9,2c2-3,9-2,13-4c3,2,4-2,8,0v-1c4,3,8-1,13,0l15-2h8c2-3-6-2-6-4l-4-1h-1c1-1-1-2-1-3
		h-2l-3,2v1h3l-4,1l-3-1l-5,1h-3l-2,1h-8l-2,1l-3-1c0-1,0-2-2-2v-2c-1-1,5-3-2-4l-29,6l1,1h-1v-1c-7,0-13,2-19,4h-4c-5,2-12,3-19,2
		v1l-8,1l-2,1l-5,1c-4,1-2,2,0,3l4,2l3-1h3l1,1l1,2h-8v-2l-4,1h-2c1-1-4-2,0-3c0-1,0-2-2-2l-9,2h-2l-5,2h-8l-6,1l-1-1c-3,2-5,4-11,4
		l-9,2l-8,2l-1,1c0,1-1,2,1,3l-1,1l1,1l-2,1h-11l-4,2c-3-1-5-2-3-3h3l1-1l5,1c3,0,6,0,6-2v-3l-4-1l-8,4l-7,1l-4,1c-4,0-8,0-11,2l1,1
		h-2c-2,1-3,1-2,2c-2,0-7,1-7-1l-4,1c-3,1-8,0-12,2l1-1c-3,1-6,2-10,1v-1h4c4,1,6-1,7-2l1-3h1l6,1h6l1-1h1l8-1h1c3,0,7,0,9-2h1l4-2
		h-1l9-3l2-2l3,1h8c3-1,6-2,7-4l1-1c3,0,7,0,7-2l2-1h10l3-2h1c-6-2-9,1-14,1l-9-1c-1,3-6,3-6,6h-6l-4,1l-4-3c-3,0-3,3-7,2v1l-10,2
		l-5,1h-2c-2,0-3,1-3,2l-7,1l-4-1h-2l-3,1h-2c-4,0-7,2-10,3h-1l1,2l1,1l-1-1c-4,0-9-1-13,1l-5,1l-4,1c-4,2-13,1-14,5h-2l-1,1
		c-4,0-7,0-8,2l-6-1c-2,1-5,1-2,2c3,2-2,1-2,1l-7,1c-5-1-9,2-14,0h-4l1-1h6c3-1,5-2,4-3l-3-1h6c6,2,8-1,12-2v-1l3-1c0-2,2-3,5-2v1
		c8,4,9-1,13-2h3l6-1v-2l1,1h8l7-2l1-1h2c2-1,7,0,8-2l3-1l4-1h2c3,0,4-2,6-3h2l4-1h11v-1l2-1h-5c2-1,4-1,4-3c3,1,5,0,7-1h5v-1
		c5,0,8,0,8-2h2c5,0,9-2,13-1l2-1h6c3-2,4-5,11-4c3-1,3-2-1-2h-16l-4,2l-6,1h-1l-8,1l-4,1v2c-3,1-8,1-9,3h-8l-2,1l-7,1
		c-5,0-6,2-10,3c-8,0-14,2-20,3h1v1l-1-1l-14,4c-6,0-11,1-14,3c-8,0-13,2-19,4l-15,3c-6,0-10,2-15,4c-5,0-9,0-11,3c-9,1-18,3-25,6
		l-3,1l-13,2l-16,4c-3,0-6,0-7,2h-2l-6,1l-2,1c-5,1-9,3-11,5l-14,2l-15,4l-8,2l-5,1l-12,3c-4,0-6,2-9,3l-4,2h-8l-5,3v1l-8,2l-6,1h-4
		c-5,0-7,3-12,3h-2c-7-1-6,3-11,4c-4,1-12,0-15,3c-5,0-9,1-11,3c-5,0-6,2-4,3c2,2,5,1,8,0l7-3l6-2l5,1h7v-1c3,0,7,0,8-2h2l9-2v-1
		l5-2c2,2,4,0,6,0l2-2l4,1c2,0,4,0,3-1l3-1c-1-1,2-1,2-2h9l3-2v-1h3l5-1c3,0,5-1,5-3h7l4-1h3l-3,1c-3,1-2,2-2,2l-2,1c0,2-4,1-7,1
		c0,2-5,2-6,4h-2l-5,2h-4c-7-1-14,0-18,3l-2,2l-4,1l-5,1h-6v1l-8,3l-5,1h-1c-3,2-12,1-11,5l10,1h2l1-1c6,1,5-1,6-3l7,1l2-1
		c0-2,6-2,9-3v-3h2l2,1h5c4,1,7,0,8-2h1c0-1,2-3,0-4l6-2c2,2,2,3,6,4v2l-1,1v-1h-1l-10,4l-4,1c-2,0,0,4-6,1h-5l-1,2h-8c-2,1-4,1-3,2
		l-2,1l-2,1h-3c-2,3,3,2,6,2h2l-2,2h-2l-4,1h-4l-4,3l-4,1c-4-2-4-2-7-1l3,2l-1,1l-6,1h-2l-2-1l-7-1l-2,1l-1,1l-4,2h1v1l-2-1l-1,2
		c0,4,5,5,12,4l3-2c5-1,10-1,13-3v-1c1-1,8,0,6-3c10,2,6-3,10-4h1c5,0,10,0,12-3h7l-2-2l4-1h6h-3c-2,1-5,1-4,2h6c0,1-5,2-4,4h-3
		l-4,1l-7,2c-2,1-6,1-8,3h-5l-5,2l-1,1l-6,1h-2c-5,2-12,3-16,6h2l6-1l14-4l1,1l2-1v-1c4.6-1.4,9.3-2.4,14-3l1-1l9-1l12-2l-2,1l-7,2
		l-6,1c-4,1-5,2-2,4l4-1l6-1v1l1,1h-1l-3,1h-1c-1,2-1,3,1,4c1,2,1,2-3,3l-5,1c-2,1-1,2,2,1l19-1l9-2v-1l3-1h3c4,1,5,2,1,4
		c-2,0-3,0-4,2l-1,1l-1-1l-11,1v1h-4l-1,2l-8,4l-4-1l-2-2h-11l1-2l4-1l1-2l-4-1l-2,1l-1,1l-8,1l-1,1c-2,0-5,0-4,2l-2,1l1,2
		c3-1,8,0,9-2h2l2,1l-4,2l-6,1l-2-1l-7,1l1,2h6l2,1l-2,1l-10-1v-1h-3l-4,2v1c0,2,0,3-2,5h-2l-2,1l-1,1l-8,1c-5,0-9,1-8,4v1
		c-4,1,1,3,0,4h-2l-4,1c3,2-8,2-3,4l2,1l4-1l5,1l2,3l6-1l4-1l9-3c1-1,0-2-4-2h-3l3-1h6c3-1,10,0,12-2l5-1h4c1-1,2-2,6-2h5l2-1l8-1
		l8-2c0,2,1,3-2,5l-2,1l-11,1h-2c-4,1-11,0-10,4h-3c-4-1-6,2-10,1v1l-6,1c-5,0-6,2-9,4c-7-1-11,2-17,3l7,1h7l-6,2l-7,2l2,1l1,1
		c4,1,4-2,7-2l2,1c2,2,0,5,8,5l2-1v-4h-1h1c3-1,7,0,9,1l6,3l-6,1c-2,0-4-2-7,0v4l4,1h-4l-3,2h7c-3,1-8,1-11,3h11c5-1,10-1,14-3
		c4-1,8,0,10-2h3l9-2c0,2,1,3-2,4l-2,1h-1l-2,2l-5,1c3,1-6,4,4,3l4,2v-4c2,0,4-1,4,1h2c2-1-1-2,0-3h2l9-1h6l10-1l3-1v-1h4l2-3l-3-1
		c-1-1-7,0-7-2h6l6,2h4v-2c5-2,12-3,19-3l-6-2c2-1,6-1,6-3h3l7-1l9-1c3,1,6,1,9-1l2,1h-2l-2,1h-1l-9,3l-1-1l-3,1l-2,1c1,1-2,2-3,2
		l4,1c-4,0-6,3-11,1c0,2,2,3,6,3c-3,1-5,2-4,4l-6,1h-8l-1,1h-1c-4-1-6,0-7,2l-10,3c4,1,7,5,12,1l6,2l-1,1c-6,1-10,2-5,5v1l-10-1
		l-2-1c1-2-2-3-4-4l-2-1l-4,1l-1,1h-2c1,2-1,3-4,4h-2l-7,1l3,2h6c9,0,5,2,4,4c0,2-7,2-6,4c4,1,7,2,8-1l8,2c-3,1-2,2,2,2h11l8-1
		c7,0,9-3,13-5h8c2-1,0-4,5-3h2l3-1v-1h3v1h3c1-2,5-1,6-2h6l1-1l-2-1l1-2h8l2-1h2c5,1,5-1,7-3c1,1,0,2,2,2c2-1-1-2,0-2h4l5-4l1-1
		c5,0,12,1,15-2l-1-2h9l-2-2c-1-2,0-3,6-2h5l6,1l2-2l2-2h2c5,1,10,1,15-1h3c1,2-2,4,0,6l-9,2l-1,1l-5-1h-3l-2,1l-4,1l-1,1v2l-3,1
		c0,0-4,0-2,1c-1,3,2,3,5,2l1-1l2-1c1,0,3-1,2-2h5l8-1l1-2h-1c1-2,3-1,6-1h1l1-2l5-2l2-1h2v1h4c3-1,7-1,9-3c1-2-3-1-5-2l-2-1h-8
		l-1,1l-1-1h-5l-5-3l1-1l-4-1l1-1h6c1,3,4,3,8,1h8l6-1l-1-1l1-1l5,1h4c2,1,4,0,5-1l1-2l-3-2h-1l2-1h12l1,1h2c3-1,8-1,6-3
		c-1-1-1-2,1-3h1l2,1l12-1l6-1c3-1,1-2,0-3h2l2-1l2,1l6,1c7,0,1-3,4-4h2l9-1l1-1h9l1-1c3-1,6-1,5-3h1c-1-1,0-2,3-2l4-1c1,1,2,2,5,2
		l4-2l6,1h-1l4,1l6-2l-3-4l3-1v-2v-1h1c2,2,3,4,9,4h11l2,1h-2l-1,1v1c-3,0-4,2-6,3c-2,0-4,1-2,2c6,1,4-3,8-3l1,2l3-1l4-1v1l14-1h2
		l-2,3l-6-2l-4,4l-8-1l-2,4h-1c-5-5-6-5-17,0l4,2l-5,1l-15,4h-4l-1,1c-1,3,4,3,9,2h4c1,2,4,1,6,1c3-1,6-2,5-4v-1c5,1,8,0,12-1h4
		c2,2,5,3,10,2c6,0,13,1,17,3l-1,1l-1,1v-1c-6,1-11,0-16-2h-9c1,4-3,5-8,5v-2l6-2l-11-2l2,2l-7,8l1-6l-12,2l-6-2h-3c0-2-4-3-5-3
		c-2,2-9,2-9,4c-2,0,1-2-4-2l-5,1l-6,1l-2,1h-2c-3,1-7,1-8,3c-3-1-4,0-5,1c0,3,8,1,9,2h5l2,1h3l4-1l1-1h-1c2-1,1-1-1-1l-2-2l-1,1v-1
		l3-1l4,2v-1h1l5-1h4c4,2,5,0,8,0l2-1c3-1,4,0,6,1l-4,1l3,8l4-2l4,1l-4,2h-8l1,2c-3,1-1,2,0,2c4,0,5,2,7,3l3,2c1,0,4,1,4-1l-5-1v-1
		c-4-2,0-2,2-3h1l2-2l5,1c2-1,3-1,2-2l7-2v1h-2c-1,1-3,1-2,2v2h2c4,0,5,3,10,1l6-1h3c2-1,7-2-1-2l-3-1l5-1c5,0,10-2,16-1l-1-2l21-4
		l2-2l2-1c10,1,16-2,24-4h4l-4-3l2-1l4,1h11l4,1l8-3c3-1,6-1,6-3l-6-1h-5l2,1v1l-5,1c2-1,1-2-2-3l3-3c2,2,4,1,7,0l1-1h5v-1l5,1l-2,1
		c-1,1,0,1,1,2l7,1h2l2-3l-1-1l5-2h2l2,2h1l4,1c3,0,6,0,6-2l-3-1l-3-2h2l1-1h10c-1,2,3,2,5,2l1-1c3,0,7,1,10-1c2,0,6,0,6-2h-1h1l7-1
		v-1l3-2l-1-1l-2-2h1v-1h3l10-1c5,0,9,2,15,1C1221,287,1219,287,1218,287z M1184,231h-1H1184z M1160,244h1H1160z M1184,166h1H1184z
		 M1093,146l3,1h2l-5,2l-3-1L1093,146z M1140,148l-1,1L1140,148z M849,332l-1,1l-2,1l-1-2l1-1L849,332z M1050,300v-1l2,1H1050z
		 M1072,296h-1v-1h2L1072,296z M1089,297l-5-2v-2C1086,294,1089,295,1089,297z M1088,293l-1-4c-4,1-4,2-3,3l-6,1v-2l-3,2
		c-2,0-4,0-4,2h-8l-11-4l-1,3l-6-3l-8,2l1-1l-4-1c-2.4,0.2-4.8,0.9-7,2c1-2,0-2-4-2l-6-1h-5c1-1,3-1,2-2l-2-2h1c7,2,14,2,20-1l1-1h3
		l1-1l4,1h1c-2,0-3,1-2,2c2,2,5,2,8,2c2,2,4,2,6,1l4-3l2,2l2-1c3,1,5,3,9,2c-1-2-4-2-7-3h-6l-2-1l2-1l1-1l7-1h-20l2-1l8-1l2-1
		c2,1,4,2,8,1h3v2h7c1-2,3-2,7-2h4c2-1,3,0,4,1h4C1098,286,1098,289,1088,293z M916,303l2-1l2-1l-1,1l-1,1H916z M752,350l-4-1h6
		L752,350z M660,281l2,1l-1,1h-1V281z M680,266h-1H680z M950,173l-1,1L950,173z M1084,278v1h-6l-5-1v1h-1h1v-3h-1c0-1-2-2-5-2l-1,1
		l1-1l2-1c5,2,7,0,9-1l-1-1l1,1c2,0,2,3,6,1l2-1h6l6,2h-1l-7,1v2C1087,276,1086,277,1084,278z M907,305l-1-1h-6h2l4-1h1l2,1l1,1H907
		z M743,346l-7,1l-1,1h-2l-1-1l6-2v-1h1c0-2-1-3-4-3h5l-1,1c-1,1,0,2,1,2h4c0,0,2,1,1,2l-1,1L743,346z M718,340v-2l3,1v1l-3,1l-2,1
		h-2l2-1L718,340z M1101,180l2-1v1H1101z M1067,275l1,1l-2-1H1067z M815,325l-2-1h4v1h1H815z M740,337l-5,1h-5v-2h-1l4-2h2
		c-1-1,1-2,4-2v1l-4,1h5l1-1l3,1v1l3,1v1c-2,0-2,1-1,2l-3,1h-2C742,340,742,338,740,337z M716,345l5,1h-11L716,345z M794,204l7,1
		l-5,2h-8v-2h1L794,204z M820,187v-1l7,2h-1l-4-1H820z M883,188h4l5-1h1l-2,1l-1,1l-6,1h-4v1l-4,1h-4l-2-1h-8l-1-1l3-2l1,1l12,1
		L883,188z M1009,280l2-1l1,1H1009z M671,316l-2-1l1-2h9v1l-2,2h-4H671z M1076,192h-1H1076z M733,261v-1V261z M777,243h1h-4H777z
		 M677,297l1,1h-2L677,297z M840,202l-2-1h-2l-2-1L840,202z M784,213C784,213,784,214,784,213z M778,213l1-1l2,2h-5l-2-1H778z
		 M711,312l-2,1L711,312z M851,194h-1h-1l2-1V194z M829,198v-1l-1-3l1,1V198z M784,213l-2-2v-1h4C786,211,787,212,784,213z M755,216
		l1,3l2,2l-1,1h-7v-1h-4l1-1c2-1,9-1,7-4H755z M735,220l5,1h1l3,1c-1,2-4,2-8,2l-3-1c3-1,3-2,0-3H735z M719,232l-2,1l-2-1h-1H719z
		 M636,323l1,1h-2L636,323z M1087,176h1H1087z M864,194l1,1h-2v1v-1h-3l2-2h-1h3V194z M712,227v-1l-3-1c2-1,5-2,7-1c-1,0-1,2-3,2
		L712,227c-2,1-2,2,0,3h-1l-3,1v-1h-5l-4-3H712z M1048,273l-4,2h-4v1h-2l-2-2h-1l4-2h9l5,1h1H1048z M1069,267h-1H1069z M1122,194h1
		H1122z M817,198c0,1,0,2,2,3l-3,1c1,2,4,2,7,2h1v1h-1c-4,0-5,2-8,1l-2,1h-6l2-1l2-1c2-1,5-1,4-3l-4-2l-1-2l2,1L817,198z M720,211
		h-1H720z M664,307h1h-2H664z M733,332h-1H733z M761,340l-7-1l-2-1l1-1h4l10,1L761,340z M1099,262l-4,1l-1-1l5-1V262z M908,184l-3,1
		l-4-1l7-1V184z M900,179l-1,1l-1-1H900z M886,182l3,2h-1l-2,1l-4-2v-2h3L886,182z M681,238h2c-2,1-1,1,1,2h2c4-1,4-4,10-3h4l-18,4
		h-3v-1h1c1-1,0-1-1-2H681z M653,297l2-1h9l1,1l-1,1c0,2-1,2-3,1h-1h-1c-3-1-5,0-6,1h-1h1l-2-2L653,297z M837,318l2,1l-3,1l-2-1h-2
		L837,318z M851,316l1-2h5l1,1L851,316z M923,301h-2H923z M960,291v-1l4-1L960,291z M1062,278h-1H1062z M1101,275l3-2l3,2H1101z
		 M976,175h-1H976z M911,178l1,2h-3v-1h-3l1-2l3,1H911z M764,205h-6l-1,1h-2l-1-1l-2,1h-4c-2,1-9,1-1,2l-2,1h-14c2,0,5,0,4-2h3l10-1
		c2-1,0-3,1-4h2l1-1c5,2,9,0,13,1h1l-2,1V205z M672,241h1l1,1l1,1l-4,1h-1v-1l1-2H672z M663,255v-1V255z M635,289l-1-1l2-1l3,1
		L635,289z M649,327l-5,1L649,327z M799,327h-1H799z M808,328v-1h3l-5,1H808z M1115,262h-2c-1-3-5-2-8-2l-2-3l6-1l1,1c2,2,4,1,7,0
		C1114,259,1114,260,1115,262z M1150,237h-2H1150z M1170,190v1l3-1l-1,1c-1,0-3,1-2,2h-1v-1l-1-1L1170,190z M1164,166c-2,0-5,1-7-1
		h6L1164,166z M1160,159h4l-9,2v-1l4-1H1160z M1071,161l-1-1l2-1l1,1L1071,161z M1015,167l7-2l2-1c3,0,5,0,7-2h7l1-1l7,1h9l1,1h-1h1
		h-2c-4,2-8,2-12,1l-4-1h-1v3l-10,2v-2c-3,0-6-1-6,2h6v1h-8l-2,1h-1l-4,2h-5l-1-1c-5,0-9,0-11-3h4c3,1,7-1,10,1c2,1,7,0,5-2H1015z
		 M923,178h1l11-2l3,1l-2,1l-1,1h-8l-1,2h-3c0-1,1-2-2-2L923,178z M937,169L937,169z M905,175h-4c1-1,0-2-2-2
		C902,173,904,173,905,175z M789,195l9-3l1-1h8c3,0,6,0,6-2h2v1l-5,2l-5,1l-3,1l-5,1h-1l-1,1l-3,2h-8l-2,1l-5,1l-3,1h-7v-2l4-2h1
		c4,1,8,0,8-2H789z M647,245l1,1h-3L647,245z M626,288h-1v-1L626,288z M614,299l4-1v1H614z M606,317l3-1v2l3,1l-4,2l1,2l-3-2h-1
		l-2-2l1-1L606,317z M630,332l3-1h1L630,332z M716,335l-3-1L716,335z M697,345h2l1,1h-9l1-1H697z M701,358h-3h-1l-1-2h4l6-1h3v1
		C705,356,703,356,701,358z M782,341h-3c0-2-3-2-5-3h-1v-3l5,1l4,4C780,340,785,341,782,341z M793,331l-6-2h1l5-1l3,1v2H793z
		 M803,332l-5,1l-2-2l5-2h4c2,1,2,2,2,3l-1,1L803,332z M1010,310l-1-1h-1c1-1,0-1-1-2l2-1l1,1l1,2L1010,310z M993,324l10-1l1-1
		c4,0,7-2,12-1l-13,4l-5,1l-6,1L993,324z M1037,322v-2h2v2H1037z"/>
	<path class="st0" d="M1076,312v-2l-3,1L1076,312z M868,347h-2c1,1,1,3,6,2L868,347z M811,361h11c0-3-5-2-7-2
		C812,359,811,359,811,361z M817,356l-2,2c3-1,8,0,10-2h1c3-1,3-2,2-3c4-1,7-1,9,2l2-1l-2-5l-11,3h-1c-2,1-5,1-4,3L817,356z
		 M738,362h-3l2,1c2,2,5,1,7,0h2C744,361,742,360,738,362z M747,358l-5,1l4,1L747,358z M803,363l1-1c-2-1-4-2-6,0l-1,1H803z
		 M513,328c-2,0-4-1-4,1l6,1l1-2H513z M782,388c-3,1-5,4-11,2l-4-1l-6,1v1l-7,1l-6,2l-2,1l4,1h6c3,2,5,1,7,0c2-2-8,0-3-2l4-1l1,1h2
		l4-2l4,1c7,1,3-3,8-3C783,390,785,389,782,388z M790,383l-2-1h-3l-6-1h-6l-4,1v4c5,3,8,0,12-1s9,2,13,0L790,383z M618,252l-4-1
		l-4,1C613,254,616,252,618,252z M525,325l7,2l1-1l-1-2L525,325z M1146,185l5,1v-2l-2-1C1147,183,1146,184,1146,185z M996,335
		c-2,3,4,1,6,1L996,335z M1153,141l9-1h3l-3-3h-9C1151,138,1147,139,1153,141z M731,365c-1,2,3,2,5,3C739,365,735,365,731,365z
		 M639,270c-1-1,1-2-2-3l-2,1v3L639,270z M597,256c2,1,4,2,7,1C603,255,600,256,597,256z M1155,285h4c0,0,2-1,0-2L1155,285z
		 M792,382l6-1v-1h-4L792,382z M880,338l7-1l-4-1l-7,1L880,338z M1082,287l1-2h-4C1078,286,1078,287,1082,287z M1119,257h-1H1119z
		 M695,337v-1c5,0,5-2,6-4c-3,1-7,0-8,2h-1l-1,2v2C695,339,693,337,695,337z M922,316h-1l1,2c4,2,5,0,5-1C926,315,924,316,922,316z
		 M911,331h1l2,2v1l15,4l1-5h1l-2-2l3-2c2,0,3-2,5-3l-13,1l-6-1l-3,2h-1l-3-1C907,328,909,330,911,331z M897,328c2-1,0-1,0-2l-4,1
		l-2,1H897z M861,330l-4,1l1,1C860,332,861,331,861,330z M874,327v2h6c1-1,3-1,2-2H874z M989,300h-8l-2,1l-8,4l-2-1h-2c-4,1-2,3-2,5
		c0,1,1,2,3,2l7-1l1-1h1c2-1,2-1,1-2l3-1c2-2,5-3,10-2l7-2v-1c1-1,0-1-1-1h-1v-1l2-1l-2-2l-6,1l1,1L989,300z M1004,294l-4-1l-2,1v2
		C1001,296,1004,296,1004,294z M906,323c4-3,0-4-3-5l-3,1l1,1l4,3H906z M917,315c-2-1-3,0-5,1c2,0,2,1,2,2h2
		C916,317,919,316,917,315z M929,315v-1h11c4-1,11,1,14-2l2-1c2-2-1-2-4-2h-1h1c2-1,5,0,2-2h-9l-2,1l1,1l-11,2l-2-1l-4,1v1h-1
		C926,313,926,314,929,315z M1253,259c-10,5-10,0-13-1l7-2c-7-1-14-1-18-3c-7-2-11,0-16,1l-8,2l7,4c-14,0-1,4-6,6h-8l7,2l-1,1h-17
		l16,5l1,3c4-1,7-1,10-3c3-1,13-1,11-5c6,0,12-3,18,1l7-2L1253,259z M912,349h-1H912z M912,349h-1H912z M964,333c-10-1-17,1-20,5
		C953,338,963,336,964,333z M1174,280c-8-5-11-5-21-1h9l2,1l3-1l-3,4L1174,280z M888,337v3l1,1h10c4,0,4-1,4-3l5,1c3,1,5-1,8-1v-3
		h-3l-3-2c-6-3-6-3-8,0h-10v2h-1v1h-2L888,337z M846,352l12-4h1v-1l-1-2l-4-1c-1,1,1,1,1,2l1,1l-17,5H846z M874,350h-2l-3,4l9,1
		L874,350z"/>
</g>
<g>
	<path class="st0" d="M1341,266l-6-3h-3l-2-1v-1h-2l-6,1l4,1h-5c-3,0-6,0-5,2l5,1h1l1-1h1l-1,1v1h-12l-5,2h1l-3-1c-2,0-4,1-3,2l6,2
		l6-2h1l6,1l5-2h1c3,1,6,2,9,1l2-2C1334,266,1343,268,1341,266z M1066,164c2-2,8-1,10-2c-3-2,13-3,0-5c0,2-2,1-4,1c-5,1-8,2-9,5
		C1062,164,1065,165,1066,164z M1264,244c-6-1-8,3-13,3c-2,1,0,2,2,3l14-1l4-2c3-3-2-2-4-3l-1,1L1264,244z M1064,178h8l4-3h1
		c3-1,5-1,5-3h-2c-5-2-7,2-11,1c-5,0-3,3-6,3C1062,177,1062,178,1064,178z M1496,21h3l1,1l3-1l6-2c1-1,4-1,3-2l-4-1l-14,1
		c-1,1-2,2,0,3L1496,21z M1074,121c3,2,6,0,8-1l2-1c3-2,12,1,13-3l6-1l7-2c8,0,12-3,18-4l5-2c7,1,12-1,17-2l6-1l7-2c2-1,1-2,0-3h8
		c2-2,10-1,12-3l1-1c3,1,6,0,8-1c6,0,11-2,15-3l8-2l6-2c1-1,0-1-1-1l5-1c9,0,18-1,25-5l5-1c4,1,4-1,6-2l10-2h1l7-1l7-2h2
		c2-2,5-3,9-3l6-1c2,0,2-1,2-2l15-1v-1h1c7,0,11-2,16-3v-1l8-1l2-1l4-2c7,1,11-2,17-3h8c1-5-4-3-8-2h-2l-3-2l4-1h1v1h4
		c6,2,11,0,16-1l1-1h2c4,0,7-1,8-3c2,0,4,2,5,0c8,0,14-2,18-4l9-1l1-1v-2h7l2-1l1-1h1c2,0,5,1,7-1h8c5-2,12-3,11-7c4-1,6,0,8,1l3-1
		l5-2l2-1c3,0,6,0,7-2l-8-1h-3c-1,0-1,0,0,0h-2l-2,1l-4,2c-4,0-8-1-10,1c-5,2-10,3-17,3c-3,1-9,0-12,2h1h-4c-2,2-9,0-10,3
		c-7,0-14,1-19,3l2,2l-2,1l-2,1h-7c-2,1-2,1,0,2l-2,1l-3-1l-1-2h-4l4,2l-1,1h-11l-29,7c-13,1-22,6-34,8c-5,1-12,1-15,4h-2l-7,1h-1
		l-7,1c-3,1-6,1-6,3c-4,2-10,2-15,3l-1,1l-7,1l-10,3c-9,1-16,4-24,6l-6,1c-5,0-7,2-10,3l-5,1c-8,1-17,2-22,6c-6,0-12,1-17,3l-7,2
		c-5,1-10,1-12,3l-11,3l-19,3c-3,0-6,2-8,3l-9,1l-4,2c-4,1-9,1-9,3c-3,0-6,0-7,2h-5c0,1-5,2-3,3C1067,121,1071,121,1074,121z
		 M1003,222c-3-1-6-2-10-1l-5,3c-5,2-2,3,0,4c1,2,3,3,8,2c3,0,4-2,5-3v-1c4,0,7,0,4-3L1003,222z M1635,175l2,1l10-1h3c1-1,2-2,1-3
		h-12l2-2l-3-1l-14,6h1l6-1v3l4-3V175z M1066,255l4-1c-1-2-4-1-6-1l-4,1v1l-2,1l-1,2l1,1l6,2c5,1,4-1,6-2l2-1l3-2
		C1072,255,1068,257,1066,255z M1127,155l-2,1l-4,2v2c5,1,4-2,8-2c3,0,5,0,6-2L1127,155z M1043,210v1l-8-1h-5c0,3,4,2,7,2v1
		c7,2,9-1,14-2C1050,209,1046,210,1043,210z M1099,246l-6,1v2l5,1l5-1c1-2-1-3-2-3H1099z M1129,243h2c1-2-3-1-6-2h-10l-5,1h-2l-2-2
		l-4,1l-1,1c-2,0-2,1,0,2h11c2,1,4,0,6-1H1129z M1070,151c2-2,7-1,10-2h-2c-3-3-6-3-11,0l-3,1C1066,152,1070,152,1070,151z
		 M1305,274h-6l-2,1l4,3l6-1C1307,276,1307,275,1305,274z M1523,39l7-1c-2-4-6-2-9-1C1519,38,1520,39,1523,39z M1341,248l4-2
		c-2-2-4-2-8-1c-5,1,1,2,0,2h4V248z M1358,228c3-1,10,0,8-3h-8C1359,226,1356,227,1358,228z"/>
	<path class="st0" d="M1290,266l1,1l7,1h3l1-1h6l-3-2l-4,1l-8-1L1290,266z M1739,76h1l4-2v-2l-6-1h-9c-1,1-8,0-7,2h15
		C1738,74,1737,75,1739,76z M1078,216l-3,1l-5-2c-8,0,1,2-3,3c-8,0-12,4-18,6l-1,1h1v3h5l4-1l5-1l1-4l9,1h2l2-1
		C1078,220,1076,218,1078,216z M1057,227h1H1057z M1058,225l1-2h3L1058,225z M1216,288c0,2,4,1,7,1C1222,287,1219,287,1216,288z
		 M1368,220h-2c-2,2,0,3,2,5h2l1-3L1368,220z M1322,274l6-2h-6C1321,273,1317,274,1322,274z M1697,47c2-1,5-2,1-3l-4,1L1697,47z
		 M1122,239c0-2-2-2-4-2l-3,1l4,2L1122,239z M1689,35h1v-2l4-2c1-2-2-1-4-1l-1,1l-1,1C1685,34,1683,35,1689,35z M1757,68v1l3,2l3-1
		l-2-2H1757z M1591,53h2l6-1l-4-1C1593,51,1591,51,1591,53z M1670,149h-4c-1,1-1,1,2,1l1,1C1673,150,1672,149,1670,149z M1072,250
		c-3,0-5,0-6,2C1073,252,1073,252,1072,250z M1084,144h9l2-1l6-1c3,0,3-1,3-2h2l4-2h-13l-5,1c-1,1-4,1-4,3l-3,1
		C1086,143,1081,143,1084,144z M1365,230l1-1c-10,3-10,3-4,7l2-4h4l4-1h2l5,1l1,1l2,1h1l-5,2c2,1,5,0,7-1h6v-2l-3-1l-8-1l-1-1l-5-1
		l-4,1H1365z M1362,242l2-1l-4-2C1359,240,1358,241,1362,242z M1005,221v-1l-6-1h-2L1005,221z M1286,252v1c3,0,6,0,5-2h-1L1286,252z
		 M1284,280v1h6L1284,280z M1085,253c-2,0,0,1,0,1h4v-1H1085z M1704,134h4v-2C1706,132,1703,132,1704,134z M1807,60l-4,1h4V60z
		 M1590,173l-1,3c3-1,6-2,2-3H1590z M1679,141c2,0,3-1,3-3l-3,1C1678,140,1676,141,1679,141z M1778,68l4-2l-4,1
		C1777,67,1775,68,1778,68z M1752,170l-6,2l2,1c3,0,4-1,5-2L1752,170z M1235,284l-3,2c2,2,5,0,7,1c1,1,1,3,5,3c2-1,1-2,1-3v-1l-3-1
		C1241,284,1238,283,1235,284z M1338,237c2,2,5,1,7,0H1338z M1692,46h-3c-3,0-6,0-7-2h-6c-1,1-5,3,1,3l2,1l6,1
		C1691,50,1690,47,1692,46z M1679,50l-4,1h-1l-2,1v1h6l3-1l2-1v-1H1679z M1471,227h-4c-3-1-5,2-9,1l-1,2c-3,1-5-2-9-1v1l-4,1
		c-2-2-5-1-8,0l-9,1v2h2l-18,5l1,3h-6l3-3h-1h3c-2-5-4-5-11-3l-3,4l-7-4h-2l-1,4c3-1,4,0,5,1l-3,1l1,2c-3,2-7,2-11,2h-2
		c-3,1-6,1-4,3l-4,2c-5-2-3,1-4,1h-5v1l-1-1h-11l-6,1l1,1l-1-1c-2,2-5,0-7,1c-7,2-1,4,0,6l4-1l4,1v-1l4-1l3,1h13l-1-2l2-2h9
		c3-1,1-1,0-2l2-1h15c3-1,2-2,2-3l2-1v1l4-2v-1h9c4-3,9-2,14-2l9,4l1-1l-2-3l8-2l11-2c3,1,5,0,6-1s-1-1-2-1l-4,1l-3-2h2l-1-2
		c2-1,4-2,4-4l4,2l-4,4c5,0,9,0,11-2l-3-2l-1-1l10-1c0,2,2,2,3,1c1-2,3-4,8-4C1476,226,1473,227,1471,227z M1348,255h3l-1,2
		L1348,255z M1379,250h-1H1379z M1405,239h2l-6,2h-1L1405,239z M1413,242h1H1413z M1289,242l-3-2c-3-1-6,0-8,1h-1c-4-1-7,0-10,1v2
		l11-2l9,2l4-2H1289z M1145,249l-10,3c-3-1-4,0-6,1l-1-1l-3,1l-3,2l-1,1c-2,1-3,3,0,4h6c3-1,1-2,0-3l6-1c1-1,4-1,3-2h4
		C1151,254,1146,251,1145,249z M1147,256l5,1l-2-2L1147,256z"/>
	<path class="st0" d="M1717,177c-4,0-8-3-13-1l-4-1l-7,1l-1,1l-1-2c-4,0-7,0-8,2h-5c0,1-1,2,1,3l4-1l3,1l-1,1l-1,1l1,1l-3,2h-3v-1
		l-4-1l-1-1v1l-1-3c-1-2-4-1-7-1c0,1,0,2,2,2l1,2h1h-21l-8,4h-4c-5-2-7,0-10,1h-3c-4,0-10,0-14,2l-4,1l-2,1l-13,4v1l4,1c0,1,2,2,0,2
		l-6,1c-2,0-4-1-5,1l-6,1h-8c-4,1-5,3-6,5l-4-1h1h-1c-1-1-1-3-5-2c-3,1-8,2-10-1h-2l-2,1l-4-3l12-5h-2l1-3h1l3,1c6-1,0-2,0-4
		c1,0,0,0,0,0c6,1,8,1,11-1h4l-2,4l6-3l5-3v-3h1l2,1l-3,2l4,5l2-1h9l7-1v-3l-5-2l16-4h1l3-1v6c8-1,0-7,11-7l4,4h2l1-7l-13-1
		c5-3,3-6-2-7l2-3v-1h-2l-2-3c-1,0-2,2-4,0c-2-3-5-1-7,0c-6-1-6-2-2-4h17l-6,1l9,3l5-3l6,1l1-1l-9-3l-3,1c0-2,2-3,5-4l2,2l3,1l4-1
		l2,1l4-2l-6-2c-3-2-6-4-12-3l-5-2h-1h1v-1h17c-2,3,6,4,7,6l5,3h-2c-3,0-4,1-3,2v1l-2,2h-3v2h4l3,1l2,1h1c6-1,13,0,19-2c1-1,0-2-1-3
		l-7,1h-2l-11-2h1c2-1,6,0,7-2h10c3,0,6,0,4-2l-2-1l-4-1l-2,1l1-2h-6l-1-3l-1-2c-3-2-8-2-13-2h-12l-5-1l4-1h3l11-3l1,1h1l6,1l2-1v-1
		l2-1l-3-1l12-2v-1v1l-3,2l-2,1v1c3,1,6,1,5-1l3-2l4,1c1,0,3,2,3,0c0-1,1-3-2-4h-3l2-2c-5,1-8,2-7-1v-1l9-2l5-1l5-1h1l14-4l2-1l5-1
		l3-1l26-8h-5c-1-1,3-1,1-2l-7,1v1l-9,2h-5c1-2,5-1,8-2c1-1,4-1,1-2l-22,5h-1l2-1h1l18-4l-2-1h-2l-15,3l6-2l-10,1l-10,3l-2-1
		c5-1,5-4,10-4c5-1,5-4,10-5l-2-1l-11,2h-2l-3,2h-1c-5,1-12,1-15,4h-1c-2-1-1-2-4-2s-1-1,0-1c1-2,7-1,6-3l-1-1l-4-1c0,0-1,0,0,0
		l17-5l-2-1c-9,0-18,1-27,4h-8l6-1c3-1,2-2,2-2l1-1h2l7-1l12-4l-1-1h-3l-4,1l3-1l7-1c2,2,7,1,11,1c4-1-1-1-2-2s0-2-2-2h6l2-1v-1l4,1
		l1,1l6,1l2-1l12-2c4,0,6-2,10-3h1v-2c0-2-3-3-6-3c1-2-1-3-3-3l-3,1c-2,1-5,1-3,2h8l-1,3h-11c0-3-2-5-9-3l3,3v2h-11l-5-1l2-1l5-1
		l4-1l-1-2l-8,2l-15,2l-2,2l-15,3c0-2-2-3-4-4l-6,1l-5,1v1l-10,1c3-2,1-4,3-5l1-1h2l2,1h8c0-2-3-2-4-2h1l5-2l4-1h4l3-2l2-1l9-1l1,1
		h13l4-1l-4-1l-2-1h-5l1-1l5-1c3,1,5,0,7-1l16-4l11-3l21-5l16-4c1-1-1-1-2-1l-25,5c-3,1-8,1-11,3h-1l-22,5l-19,4l-5,2h1l-18,4v1h-2
		l-5,1l-3,1l-5-2l9-2l-3-2l4-1l4-1l4-1l19-4l9-2h1v1h12l2-1c2-1,2-2,0-4h-2l-5,2h-2l4-1v-1l-6,1l-5-1c-2,0-5-1-5,1l4,2l-8,2
		c-5-2-9,0-13,1c-1-2,6-2,8-4l1,1l5-1l-8-1l6-2l2-3c1-1,1-2-2-2l-2,1l-2-1l-1-1l7-2l9-3c1-1,0-1-2-1c4-2,7-3,11-3c2-1,5-1,4-3h-1
		l-16,5h-1c-3,1-8,1-11,3h-4c-4,2-8,3-13,3l-1,1l-9,2l-5,1l-9,3l-8,2l-4-2h-2c-4,0-6,2-7,3l2,1h2l-5,1l-1,1l-5,1h-16l-7,2
		c-3,1-8-1-9,2c-3,1-6,0-8,2l-3,1h-5h1l13-3c1,0,3-1,2-2h-1l-3-2l-3,1l-2,1h-2h1l5-2l4-2h3c5,0,3-2,4-4l2-1h2l11-2l5,1l7-2
		c4-1,1-2,0-2l-2-1l-8-1h-1l-1-3l-3-1l-6,2c0,2-3,2-5,2v-1c-1-2-3-4,1-5l5,1l8-2v1c2,1,0,2,2,3h4l3-1h1l6,2v2l3,1c-2,1-2,2-2,3l2,2
		l4-1c2,0,2-1,3-2c1-2-1-2-4-2l3-1l2,2h4c3-1,1-2,0-3c-3,0,0-1,0-1h2l1-3l8,2c3-3,10-2,13-4c4,2,5-2,8,0v-1c5,3,9-1,13,0l16-2h7
		c2-3-6-2-5-4l-4-1h-1c1-1-1-2-1-3h-2l-4,2v1h4l-4,1l-4-1l-4,1h-4l-1,1h-8l-2,1l-4-1c0-1,1-2-1-2l-1-2c-1-1,5-3-2-4l-28,6l0,0
		c-8,0-14,2-20,4h-3c-5,2-12,3-19,2l-1,1l-7,1l-2,1l-5,1c-4,1-2,2,0,3l3,2l4-1h3v1l2,2h-9l1-2l-4,1h-2c0-1-4-2-1-3c1-1,0-2-1-2
		l-10,2h-1l-5,2h-9l-6,1v-1c-4,2-6,4-11,4l-11,2l-7,2l-2,1l1,3l-1,1l1,1l-2,1h-11l-3,2c-4-1-5-2-4-3h4v-1l5,1c3,0,7,0,6-2v-3l-4-1
		l-8,4l-7,1h-4c-4,0-8,1-10,3l-1,1c-2,1-4,1-3,2c-2,0-7,1-7-1l-4,1h1c-4,1-9,0-12,2v-1l-9,1v-1h3c4,1,6-1,8-2v-3h1l7,1h5l1-1h1l8-1
		h2c3,0,6,0,8-2h2l3-2l-1-1l9-2c2,0,2-1,2-2l4,1h7l8-4v-1c3,0,7,0,8-2l1-1h10l4-2c-6-2-9,1-14,1h1l-10-1c0,2-6,3-6,6h-5l-4,1l-4-3
		c-3,0-3,3-8,2v1l-9,2l-6,1h-2l-3,2l-6,1l-4-1l-2,1h-3l-2,1c-5-1-7,1-10,2h-2l2,2v1l-1-1c-4,0-8-1-12,1l-5,1l-5,1c-3,2-13,1-14,5h-2
		h1l-1,1c-4,0-8,0-9,2l-6-1c-1,1-5,1-2,2c4,2-2,1-2,1l-7,1c-5-1-9,2-13,0h-4v-1h7c2-1,4-2,3-3l-3-1h6c6,2,8-1,12-2v-1l4-1
		c0-2,1-3,5-2v1c7,4,9-1,13-2l3-1h5l1-2l9,1l7-2l1-1h1c3-1,7,0,8-2l4-1l3-1h2c4,0,4-2,7-3h1l4-1h11l1-1l1-1h-5l4-3c3,1,5,0,7-1h5
		l1-1c4,0,7,0,8-2h1c5,0,9-2,14-1l2-1h5c3-2,4-5,12-4c3-1,3-2-1-2h-16l-5,1l-5,1l-2,1l-8,1h-3l-1,3l-9,2l-8,1l-2,1l-7,1
		c-4,0-6,2-10,3c-7,0-13,2-19,3h1v1l-1-1l-15,4c-5,0-11,1-14,3c-7,0-13,2-18,4l-16,3l-15,4c-4,0-9,0-10,3c-10,1-19,3-26,6l-2,1
		c-6,0-10,1-14,3c-6,0-11,1-15,3c-3,0-6,0-8,2h-1l-7,1l-2,1l-11,5l-13,2l-16,4l-7,2l-6,1l-11,3c-5,0-6,2-10,3l-4,2h-7c-3,1-4,3-5,4
		h-1l-7,2l-7,1h-3c-5,0-8,3-13,3h-1c-7,0-7,3-11,4c-5,1-13,0-15,3c-5,0-10,1-12,3c-5,0-5,2-3,3c1,2,5,1,7,0l8-3l6-1h11v-1
		c4,1,7,0,8-2h3c3,0,7,0,9-2l5-2h6l1-2h5c1,0,4,0,3-1l2-1l3-1l5-1h4l2-1v-1l3-1h5l6-3h6l5-1l3-1c-1,1-2,2-4,1c-2,1-1,2-2,3h-1
		c-1,2-5,2-7,2c-1,2-6,1-7,3l1,1h-3l-4,2h-1l-1-1h-3c-6,0-13,1-18,3l-1,2l-4,2l-6,1h-6v1l-8,2l-5,1v1c-4,1-13,0-11,4l9,1h3v-1
		c6,2,6-1,7-2h8c1-3,7-3,10-4v-2h-1h4l5,1c5,0,7-1,8-3h2c0-1,1-2-1-3c1-2,4-2,7-2c1,1,1,3,5,4v2h-2l-9,3h-1l-4,1c-1,1,0,4-5,2h-6
		l-1,1l-8,1c-2,0-4,1-3,2h-1v1h-6c-2,3,4,2,6,3v-1h3l-1,1l-2,2l-2-1l-4,1h-4c-2,1-2,3-4,3l-4,2c-3-3-3-3-7-1l4,2h-2l-6,1h-4l-7-1
		l-2,1l-1,1c-2,0-3,0-3,2h-1l-2,1c0,4,5,5,13,4l2-1c5-1,10-2,13-4v-1c2-1,8,1,6-2c10,1,6-4,10-5h1c5,0,10,0,12-2h7l-1-3l3-1h6l-3,1
		c-1,0-5,0-4,1h6c1,2-4,2-3,4h-4l-3,1l-8,2c-2,1-6,1-8,3h-1l-3,1l-6,1v1l-7,1v1h-1c-5,2-12,2-16,5l1,1l7-2l14-3h1l1-1
		c4.6-1.7,9.2-3,14-4h1l9-2l12-2l-1,2c-4-1-6,1-8,2l-5,1c-5,0-6,1-3,3l4-1l6-1v1l1,2h-4v1c-2,1-1,2,0,4c2,1,1,2-2,2l-6,2
		c-1,1-1,1,2,1l20-2l8-1v-1l4-1l3-1c4,2,4,3,0,4l-3,2l-2,1h-11l-1,1h-3l-2,2v1l-8,3l-3-1l-2-1h-10l-2-1l2-2l3-1c1-1,2-1,1-2h-6v2h-9
		l-1,1c-1,1-5,1-4,2v1l-1,1v1c3,0,8,0,10-2h2l1,1l-4,2l-5,1h-10l2,2l6,1l2,1l-3,1l-9-2h-3l-4,1l-1,2h1l-2,4h-2l-2,1l-2,1l-8,2
		c-5,0-9,1-8,3v1c-4,1,1,3,0,4h-1l-4,1c2,2-8,2-4,5h2l5-1l4,1l3,3l5-1l4-1l9-2c1-2,1-3-3-3h-4l4-1h5c4-1,10,1,12-2h9c1-2,2-3,6-3
		l4,1l2-1l1-1h8v-1c4,1,5-2,8-2c0,2,1,4-1,5l-3,1l-10,2l-1-1c-5,1-11,0-10,4l-4,1c-3-1-5,1-9,1l-6,1c-5,0-6,3-9,4c-8,0-11,3-17,4h14
		l-7,2l-6,2l2,2h1c4,1,4-1,7-1h2c2,2-1,5,8,5l2-1v-3l-1-1l1,1h9l6,3l-6,2c-2-1-4-2-8-1l1,4l4,1h-1l-3,1l-3,1h7l-12,4l12-1
		c5-1,10-1,14-3c4,0,8,0,10-2h3l9-2c0,2,1,4-2,5l-2,1h-1l-2,1l-5,1c3,1-6,5,4,3l4,2v-4l4,1h1c3-1,0-1,1-2l1-1h16c2-2,7-1,10-2h3v-2
		h4l1-3h-2c-1-2-7-1-7-3h6l6,2h4v-2c5-2,12-3,19-3l-6-2c2-1,5-1,6-3h9l10-2c3,1,6,2,9,0l2,1h-2l-2,1h-1l-9,2h-1l-3,1h-2c0,2-2,2-3,3
		h4c-4,1-6,4-11,2c0,2,2,2,5,3c-3,1-4,2-4,4l-5,1h-10c-5-1-6,1-8,2l-9,4c4,1,6,5,12,1l5,1v2c-6,0-10,1-5,4l-1,1h-9l-2-1c1-2-2-3-4-5
		l-2-1l-4,2l-2,1h-1c0,1-1,3-4,4h-2l-8,1l4,2h6c9,0,5,2,4,3c0,2-7,2-6,5c4,1,7,2,8-1l7,2l1-1v1c-3,1-2,2,2,2l9-1h10c7,0,9-3,13-5
		l5-1h2c3,0,1-3,6-2h2l3-2h3l2,1h1c0-2,5-1,6-2h6l1-2l-2-1l1-1h8l2-1h1c6,1,6-2,8-3c0,1,0,2,2,2c2-1-1-2,0-3h3l6-3v-1c6-1,12,0,15-3
		v-1h9l-2-2c-1-2-1-3,5-2h11l3-1l2-2h2c5,1,10,0,15-1h3c1,2-2,4,0,6l-9,1l-1,2l-5-1h-5l-4,1l-2,1v2h1l-3,1c0,1-5,1-2,2c-1,2,2,2,5,2
		l1-1l2-1l2-2h5l8-2l1-1l-1-1h7l1-3l5-1l2-1h1l5,1c2-2,7-1,9-3c1-2-3-2-5-3h-1l-1-1h-6v1h-10c0-2-2-3-4-3l1-1l-4-2h7c1,2,4,3,8,1h8
		l5-1v-2h1l5,1h4l5-1l1-2c-1-1-1-2-3-2h-1l2-1h12l1,1h2c3-1,8-1,6-4v-2h2l2,1l12-1l6-1c2-1,1-2,0-3h2v-1h4l6,2c7,0,1-3,4-4h2l9-1
		l1-1l9-1h1c3-1,6-2,5-4h1c-1-1,0-1,2-2h5c1,1,2,2,5,1l4-1l6,1l-1-1l4,1l6-1l-3-5l3-1v-1v-1h1c2,2,3,4,9,4l7-1h3l3,1l-2,1l-1,1h-1
		l-6,4c-1,0-3,1-1,2c6,1,4-3,8-3l1,1h3l4-1h14l2-1l-2,4l-6-2l-4,4l-8-2l-2,4h-1c-5-4-6-4-17,1l4,2l-5,1l-15,3l-4,1h-1c-1,4,4,3,9,3
		h4l5,1c4-1,7-3,6-5c5,1,8-1,12-1l1-1l3,1c2,2,5,2,9,2c7,0,14,1,18,3l-1,1l-1,1v-1c-6,1-12,0-16-2h-9c1,3-3,4-8,5v-3l6-1l-11-2l2,1
		l-7,8l1-6l-12,3l-6-2l-3-1l-5-2c-2,2-9,1-9,4c-2-1,1-3-4-2l-5,1h-6v1l-2,1h-2c-3,0-7,1-8,3c-3-1-4,0-5,1c0,3,7,0,9,2h5l2,1h3l4-2
		c2-1,1-1-1-1l-2-2l-2,1l1-1l3-1l4,2v-1h1l5-1h4c3,2,5-1,8-1l2-1l6,1l-4,2l3,8l4-2l4,1l-4,1l-2,1h-6l1,2c-3,1-1,1,0,2c4,0,4,1,7,2
		l3,3l4-1l-5-2c-4-2,0-2,2-3v-1l3-1l5,1c2-1,3-1,2-2l7-3v2h-2c-1,0-3,1-2,2v1h2c4,0,5,4,10,2l6-1h3c2-1,7-2-1-3h-4l6-1l16-2l-1-1
		l21-4l2-2l1-1c10,1,17-3,25-4h4c0-2-1-2-4-3l2-1h4l4,1l7-1l4,1l8-2c3-1,5-1,6-3l-6-1l-1-1l-4,1l2,1v1l-5,1c2-2,1-3-2-4l3-2h7l1-1h5
		v-1l5,1l-2,1l1,1l7,1h2l2-2l-1-1l5-2h2l2,2h5c3,0,6,1,6-1l-3-1l-3-2l2-1v-1h7l1,1h3c-1,1,3,1,5,2l1-1l10-1l6-2h-1v-1l1,1l7-1v-1
		l3-3h-1l-2-2h1v-2l3,1l9-1l16,1C1721,177,1719,177,1717,177z M1684,121h-1H1684z M1592,36l4,1h2l-5,2h-3L1592,36z M1639,38v1V38z
		 M1349,222l-1,1l-3,1v-2H1349z M1549,190l1-1l2,1H1549z M1571,186v-1h1L1571,186z M1588,187l-4-2v-2C1586,184,1589,185,1588,187z
		 M1587,183l-1-4c-4,1-4,2-3,3l-6,1v-2l-3,2l-4,2h-7l-12-4l-1,3l-6-2c-2,0-5,0-7,2l1-2h-4c-2.4-0.1-4.7,0.2-7,1c0-2-1-2-4-1l-6-2h-6
		c1-1,3-1,2-2l-2-2l2,1c7,1,13,1,19-1l1-2h9c-2,1-2,2-1,3l7,1v1h7l4-2l2,1h2c3,0,4,2,9,1l-7-2c-2-2-4-1-6,0l-2-2l2-1l1-1l6-1
		c-2-1-5,0-8,1l-1-1h-9h-1l2-1l8-1l1-1h1c2,1,4,2,7,1h4v2h6c1-2,4-2,7-2h4c2-1,4,0,4,1h6h-1C1598,176,1597,180,1587,183z M1415,193
		l3-1h2h-2l-1,1H1415z M1252,240l-4-1h5L1252,240z M1159,171l3,1l-1,1h-2V171z M1450,63l-1,1L1450,63z M1583,168v1h-5l-5-1l-1,1v-3
		l-5-2l-1,1l1-1h1c5,1,7-1,10-2h-1h1c2,0,2,3,5,1l2-1h6l6,2v1l-1-1l-6,1l-1,2C1587,166,1585,167,1583,168z M1407,195l-1-1h-7h3l3-1
		h1l3,1v1H1407z M1243,237h-7l-1,1h-2l-1-1l6-2v-1h1l-4-3h5l-1,1c-1,1-1,2,1,2h3c1,1,2,1,1,2v1H1243z M1217,230v-1l4,1l-4,1l-2,1h-1
		l1-1L1217,230z M1601,70l2-1l-1,1H1601z M1566,165l1,1l-2-1H1566z M1318,217h1H1318z M1314,215l-1-1h3l1,1h1h-3H1314z M1240,228
		h-10c1-1,1-1-1-2l3-2h2c0-1,1-2,4-2l1,1l-4,1h5l3,1l4,1v2c-2,0-2,0-1,1c-2,0-3,1-3,2h-3C1242,230,1242,229,1240,228z M1215,235l5,1
		l-1,1l-4-1h-5C1212,237,1214,236,1215,235z M1294,94l6,1l-5,2h-7v-2h1L1294,94z M1320,77v-1l7,2h-1l-4-1H1320z M1382,78h4l6-1l-1,1
		l-2,1l-6,1h-3l-1,1l-3,1h-4l-2-1h-8l-2-1l4-2l1,1l12,1L1382,78z M1509,170h-1l2-1l2,1H1509z M1171,207l-2-1v-3h10v1l-2,2l-4,1H1171
		z M1575,83v-1h1L1575,83z M1232,151l1-1L1232,151z M1277,133h-1l-3,1v-1H1277z M1176,188L1176,188z M1339,92h1H1339l-2-1l-2,1l-2-2
		L1339,92z M1278,103l1-1l1,2h-5l-1-1H1278z M1211,202l-2,1L1211,202z M1350,84h-2l2-1l1,1H1350z M1329,88l-2-4l2,1V88z M1284,103
		l-2-2v-1h4C1286,101,1286,102,1284,103z M1255,107v2l2,3h-7l-1-1h-3v-1c3-1,9-1,8-4L1255,107z M1235,110l5,1h1l3,1c-1,2-4,2-8,2
		l-3-1c3-1,3-2,0-3H1235z M1219,123h-3l-2-1h1L1219,123z M1135,214h1H1135z M1364,84v1h-2v1v-1h-2l1-2h2L1364,84z M1212,117v-1l-3-1
		l7-1l-3,3h-2c-1,1-2,2,0,3v1h-3c-2-1-4-2-6-1l-3-2C1203,118,1208,119,1212,117z M1547,163l-4,2l-4,1h1h-2l-3-2l3-2l5,1l1-1h3l5,1
		l0,0H1547z M1621,84l1,1L1621,84z M1316,88l2,3l-2,1c0,2,3,2,6,2h2v1h-2l-8,2h-7l2-1l2-1c2,0,4-1,3-3l-3-1l-1-2h1L1316,88z
		 M1163,197C1163,197,1164,197,1163,197z M1260,230l-7-1l-1-1l1-1h4l10,1L1260,230z M1599,152l-4,1l-1-1l4-1L1599,152z M1408,74
		l-4,1l-4-1l8-1V74z M1399,69l-1,1l-1-1H1399z M1385,72l4,2h-2l-2,1l-4-2l1-2h3V72z M1180,128h2c-1,1,0,2,1,2h3c4-1,3-4,10-3h4h-1
		l-17,5l-1-1h-2v-1v-2H1180z M1152,187l2-1h10v1l-1,1c0,2-1,2-2,2l-1-1h-2l-6,1l-1-2L1152,187z M1204,235l-1-1L1204,235z M1337,208
		l1,1l-2,1l-3-1h-1L1337,208z M1350,207l1-2l4-1h2v1L1350,207z M1422,191h-1H1422z M1460,181v-1l3-1h1L1460,181z M1600,165l3-2l4,2
		H1600z M1410,68l1,2h-3l-2-1l1-2l2,1H1410z M1264,95h-3l-4,1h-6l-3,1c-2,0-9,0-2,2h-9l-7,1l5-2l1-1h1l11-1c2-1,0-2,0-4h3l1-1v1h13
		l-2,1C1262,94,1263,95,1264,95z M1248,91h-1H1248z M1172,131l1,1c-1,0,0,0,0,0l2,1l-5,2v-1l-1-1l2-2H1172z M1134,179l-1-1h5
		L1134,179z M1149,217l-5,2C1144,217,1146,217,1149,217z M1307,218l1-1h2l-4,2L1307,218z M1614,152h-2c0-2-4-2-8-2l-1-2l6-2v1
		c2,2,5,1,7,0C1614,149,1613,150,1614,152z M1649,127h-1H1649z M1669,81h4h-1c-2,0-3,1-2,2h-2l-1-2H1669z M1663,56c-2,0-5,1-6-1v1
		l5-1L1663,56z M1660,49h3l-9,2v-1l5-1H1660z M1570,51v-1h2c-1,0,0,0,0,0L1570,51z M1515,57l6-2l2-1c3,0,6,0,7-2h8v-1l8,1l9,1h-2
		c-3,2-7,2-11,1l-4-1h-2v3l-10,2v-2c-2,0-6,0-5,2h5v1h-7l-2,1h-2l-4,2h-5l-1-1c-4,0-9,0-11-2h4c3,0,7-2,11,0c1,1,6,0,4-2H1515z
		 M1445,66h-1v-1L1445,66z M1422,68h2c3-1,7,0,10-2v1h3l-1,1l-1,1h-8l-2,2l-1,1h-2l1-1c0-1,0-2-2-2L1422,68z M1436,59L1436,59z
		 M1404,65h-3c1-1,0-2-2-2C1402,63,1404,63,1404,65z M1289,85l9-3h1l8-1c2,0,6,0,5-2h2v1l-5,2l-4,1l-4,1l-4,1h-1l-1,1l-4,2h-7l-3,1
		l-5,1l-2,1h-8h1h-1h1v-2l3-2h2c4,0,7,0,8-2H1289z M1146,135l1,2l-2-1h-1L1146,135z M1126,178h-1v-1L1126,178z M1114,189l3-1v1H1114
		z M1130,191C1131,191,1131,191,1130,191C1131,191,1130,191,1130,191z M1105,207h3l1,1l3,1c-3,0-4,1-5,2l1,2l-2-2h-2l-1-2l1-1
		L1105,207z M1130,222l3-1L1130,222z M1216,225h-4H1216z M1197,235h2l1,1h-10l2-1H1197z M1201,248h-5l-1-1l5-1l6-1h2v1L1201,248z
		 M1281,232l-3-1c1-1-2-2-4-2l-2-1l1-3l5,1l4,4C1280,230,1284,232,1281,232z M1293,221l-6-1v-1l5-1l3,1v2H1293z M1303,222l-5,1l-3-2
		l6-2h2l2,1c2,0,2,1,2,2l-1,1L1303,222z M1509,200v-1h-1l-1-2l1-1l1,1l1,2L1509,200z M1493,214l10-1l1-1c3,0,7-2,12-1l-14,5h-4l-6,1
		L1493,214z M1537,212v-2h1v2H1537z"/>
	<path class="st0" d="M1576,202v-2l-4,1C1572,202,1573,203,1576,202z M1368,237h-2c0,2,1,3,5,2L1368,237z M1311,251h11c-1-2-5-1-7-2
		C1311,249,1310,250,1311,251z M1316,246l-2,2c4-1,8,0,10-2h2c2-1,3-2,1-3c4-1,7-1,10,2l1-1l-2-5l-11,3h-1c-1,1-5,1-4,3L1316,246z
		 M1238,252h-4l3,1c2,2,4,1,7,0h2C1244,251,1241,251,1238,252z M1246,249h-4l3,1L1246,249z M1303,253l1-1c-3-1-5-2-7,0c0,0-2,1,0,1
		H1303z M1013,218c-2,0-4-1-4,1c1,1,3,2,5,1s2-1,1-2H1013z M1282,279c-4,0-6,3-11,1h-10v1l-8,1l-6,2v1l-1,1h4l3,1h2c3,1,5,0,8-1
		c2-2-8,0-4-2l4-1l2,1h2l4-2l4,1c6,2,2-3,7-3C1282,280,1284,279,1282,279z M1290,273h-2l-4-1l-6-1h-5l-4,1l-1,4c5,3,8,1,12-1
		c5-1,9,2,14,0C1293,274,1289,274,1290,273z M1118,143l-4-2l-4,2H1118z M1025,216l6,1l1-1v-1C1029,214,1027,215,1025,216z M1646,75
		l5,1l-1-2l-1-1C1647,74,1645,74,1646,75z M1496,225c-3,3,3,1,5,2C1501,225,1498,225,1496,225z M1652,31l10-1h2c1-1,0-2-2-3h-10
		C1651,28,1647,30,1652,31z M1230,255c0,2,3,2,6,3C1239,255,1234,255,1230,255z M1139,160c-2-1,0-2-2-3l-2,1v3L1139,160z M1097,146
		c1,1,3,2,7,1C1102,145,1099,146,1097,146z M1654,175h4c1,0,3-1,0-1C1656,173,1656,175,1654,175z M1292,273l5-2h1l-1-1h-4L1292,273z
		 M1379,228h8l-4-2l-7,1L1379,228z M1582,177v-2h-4C1578,176,1578,177,1582,177z M1194,227v-1c5,0,6-2,6-4c-2,1-7,0-7,2h-2l-1,2l1,2
		C1194,229,1192,227,1194,227z M1422,206l-1,1v1c5,2,5,0,6-1L1422,206z M1410,221h2l1,2l1,1l15,4v-5h1l-1-2l3-1l4-4l-13,2
		c-1-1-2-2-5-2l-4,2l-3-1C1407,219,1409,220,1410,221z M1397,218c1-1,0-1-1-2l-3,1c-2,0-3,0-2,1H1397z M1360,221h-3l1,1L1360,221z
		 M1374,217l-1,1l1,1h5c2,0,3-1,2-2H1374z M1488,190l-7,1h-3c-3,1-6,3-7,5l-2-2h-3c-4,1-1,3-2,5c1,1,1,2,3,2c4,1,6,0,8-1h1
		c3-1,2-2,1-3l3-1l10-2l8-2v-1l-2-1l-1-1h3l-2-3l-6,1v2L1488,190z M1504,184h-6v2C1501,186,1504,186,1504,184z M1405,213h1
		c4-2,0-3-4-4h-2v1l4,3H1405z M1416,205l-4,1c2,1,2,2,2,3h1C1415,207,1418,206,1416,205z M1429,205v-1h10c5-1,11,1,15-2l2-1
		c2-2-1-2-4-2h-2h2c2,0,5,0,2-1l-9-1l-2,1v1l-10,2h-6l-1,1h-1C1426,203,1426,205,1429,205z M1752,149c-10,5-10,0-13-1l7-2l-18-2
		c-7-3-11-1-16,0l-7,3l7,3c-15,0-1,5-6,6l-8,1l6,1v1h-18l17,5l1,3l9-2c4-2,13-1,11-5c7-1,13-4,18,0l7-2L1752,149z M1463,223
		c-10-1-17,1-19,5C1453,228,1462,226,1463,223z M1674,170c-8-5-11-5-21-1h10l-2,1h3l2-1l-3,5L1674,170z M1666,169h1H1666z M1388,227
		l-1,1l1,2l1,1l2,1l8-1c3,0,3-1,4-2h5c3,1,5-1,8-1v-3h-4l-2-2c-6-2-7-2-9,1l-3-1c-3,0-5-1-7,1l1,1h-1l-1,1L1388,227z M1345,243l12-5
		h1v-1h1h-1c1-1,1-1-1-2l-3-1c-1,1,1,2,1,2l1,1l-18,5L1345,243z M1374,240h-3l-3,4l10,1L1374,240z"/>
</g>
</svg>
