<svg id="Layer_1" xmlns="http://www.w3.org/2000/svg" xmlns:xlink="http://www.w3.org/1999/xlink" viewBox="0 0 1000 1000">
  <style>
    @keyframes rotdumb{0%,to{transform:rotate(-5deg)}50%{transform:rotate(15deg)}}@keyframes rotarm{0%,to{transform:rotate(0deg)}50%{transform:rotate(40deg)}}@keyframes blinkanim{0%,48%,52%,56%,to{transform:scale(1,1)}50%,54%{transform:scale(1,.2)}}.st0{fill:#ffd2b4}.st4{fill:#00899a}.st14{opacity:.5;fill:#e9a478}.st18{fill:#6c3404}.st28{fill:#cc8c66}.st29{fill:#1e120d}.st37{opacity:.5;fill:#581900}.st43{fill:#f76a5b}.st44{fill:#ededed}.st47{fill:#dd98f9}.st50{fill:#8d52a8}.st51{fill:#fff}.st52{fill:#6d9321}.st53{fill:#3f5500}
  </style>
  <g style="animation:rotarm 8000ms ease-in 0ms infinite;transform-origin:47.8% 34%">
    <g style="animation:rotdumb 8000ms ease-in 0ms infinite;transform-origin:40.6% 45%">
      <path class="st0" d="M354.6 397.6c-4.6 3.2-9.4 5.7-15.3 7.9-.8.3-1.7.5-2.5.7-9.2 6.9-18 13.6-23.8 16.4-9.1 4.3-39.9 14.3-48.5 12.8v.1c-21.6-11-43.5-11.9-45.5-11.2-5.6 1.4-2.6 3.6-2.4 7.2.2 3.5-3.5 5.4-2.7 9.4.4 1.4 2.1 2.7 2.1 4 0 2-1.3 3.2-1.2 5.2.1 1.5 1.9 2.5 2.4 3.8 1.2 2.5 1 2.2.6 4.9-.6 4.9-1 5.5 4.1 7.2 8.7 3.5 16.7 3.4 26.3 3.2 8.4-.3 15.8-1.9 23.1-6.1 4.5 1.9 70.8-16.7 106-37.3.1-1.8.5-3.6 1.1-5.3.8-2.4 1.7-4.7 2.6-7 .5-1.3.8-2.6 1.3-3.9l.4-1.6-.3 2.7c.5-3.4 1.2-6.5 2.3-9.5-4.5-3.1-8.8-6.4-13.1-9.9-5.3 3-11 5.2-17 6.3z"/>
      <path class="st4" d="M236.7 381.5c10.8.4 19.3 9.5 18.9 20.3-.4 10.8-9.5 19.3-20.3 18.9-10.8-.4-19.3-9.5-18.9-20.3.5-10.8 9.5-19.3 20.3-18.9zM233.7 467.9c10.8.4 19.3 9.5 18.9 20.3-.4 10.8-9.5 19.3-20.3 18.9-10.8-.4-19.3-9.5-18.9-20.3.4-10.8 9.5-19.3 20.3-18.9z"/>
      <path class="st4" d="M243 416.6c7.5.3 5.5 56.6-2 56.3l-13.3-.5c-6.1-.2-4.1-56.5 2-56.3l13.3.5z"/>
      <linearGradient id="SVGID_4_" gradientUnits="userSpaceOnUse" x1="370.15" y1="-338.03" x2="371.12" y2="-310.62" gradientTransform="matrix(.03539 -.9993 .9993 .03539 559.06 826.47)">
        <stop offset="0" stop-color="#00899a" stop-opacity="0"/>
        <stop offset="1" stop-color="#00899a"/>
      </linearGradient>
      <path d="M243.1 418.9c5.9.2 4 51.9-1.8 51.7l-10.4-.4c-4.8-.2-3-51.9 1.8-51.7l10.4.4z" fill="url(#SVGID_4_)"/>
      <radialGradient id="SVGID_5_" cx="370.31" cy="-2234.08" r="18.29" gradientTransform="matrix(.03539 -.9993 .2574 .00913 792.58 834.85)" gradientUnits="userSpaceOnUse">
        <stop offset="0" stop-color="#fff" stop-opacity=".5"/>
        <stop offset="1" stop-color="#f6f6f7" stop-opacity="0"/>
      </radialGradient>
      <path d="M231.2 426.1c2.6.1 4.4 8.4 4.1 18.4-.4 10.1-2.8 18.2-5.4 18.1-2.6-.1-4.4-8.4-4.1-18.4.4-10.1 2.8-18.2 5.4-18.1z" opacity=".7" fill="url(#SVGID_5_)"/>
      <radialGradient id="SVGID_6_" cx="413.55" cy="-815.59" r="12.48" gradientTransform="matrix(.03539 -.9993 .6123 .02166 710.4 831.62)" gradientUnits="userSpaceOnUse">
        <stop offset="0" stop-color="#fff" stop-opacity=".5"/>
        <stop offset="1" stop-color="#f6f6f7" stop-opacity="0"/>
      </radialGradient>
      <path d="M226.1 388.2c4.2.1 7.4 5.9 7.2 12.7-.2 6.9-3.9 12.4-8.1 12.2-4.2-.1-7.4-5.9-7.2-12.7.2-6.9 3.9-12.3 8.1-12.2z" opacity=".7" fill="url(#SVGID_6_)"/>
      <radialGradient id="SVGID_7_" cx="326.23" cy="-812.68" r="12.48" gradientTransform="matrix(.03539 -.9993 .6123 .02166 710.4 831.62)" gradientUnits="userSpaceOnUse">
        <stop offset="0" stop-color="#fff" stop-opacity=".5"/>
        <stop offset="1" stop-color="#f6f6f7" stop-opacity="0"/>
      </radialGradient>
      <path d="M224.8 475.5c4.2.1 7.4 5.9 7.2 12.7-.2 6.9-3.9 12.4-8.1 12.2-4.2-.1-7.4-5.9-7.2-12.7.2-6.8 3.9-12.3 8.1-12.2z" opacity=".7" fill="url(#SVGID_7_)"/>
      <path class="st0" d="M235.5 431.2c-4-.9-14.8 2.4-14.8 2.4-6.5 5-2.1 10.4-1.4 11.3-3.5 4.4-.3 8.5.5 9.4-4.5 5 .2 10 .2 10s8.9-3 16.6-4.5c7.9 1.2 11.3-.5 11.4-3.9.1-3.5-7.9-4.4-11.9-5.3-.4-.1-.9-.1-1.4-.1.6-.1 1.2-.3 1.8-.4 7.9 1.2 11.3-.5 11.4-3.9.1-3.5-7.9-4.4-11.9-5.3-.1 0-.3 0-.4-.1.1 0 .3-.1.4-.1 7.9 1.2 11.3-.5 11.4-3.9.1-3.7-7.9-4.7-11.9-5.6z"/>
      <path class="st0" d="M234.3 421.5c-4-.9-14.8 2.4-14.8 2.4-6.5 5-2.1 10.4-1.4 11.3-3.5 4.4-.3 8.5.5 9.4-4.5 5 .2 10 .2 10s8.9-3 16.6-4.5c7.9 1.2 11.3-.5 11.4-3.9.1-3.5-7.9-4.4-11.9-5.3-.4-.1-.9-.1-1.4-.1.6-.1 1.2-.3 1.8-.4 7.9 1.2 11.3-.5 11.4-3.9.1-3.5-7.9-4.4-11.9-5.3-.1 0-.3 0-.4-.1.1 0 .3-.1.4-.1 7.9 1.2 11.3-.5 11.4-3.9.1-3.7-8-4.7-11.9-5.6z"/>
      <radialGradient id="SVGID_8_" cx="185.36" cy="297.85" r="29.67" gradientTransform="rotate(-58.66 338.47 342.8)" gradientUnits="userSpaceOnUse">
        <stop offset=".58" stop-color="#ffd8ad" stop-opacity="0"/>
        <stop offset=".83" stop-color="#ffbb89"/>
        <stop offset="1" stop-color="#e9a478"/>
      </radialGradient>
      <path d="M235.5 431.2c-4-.9-14.8 2.4-14.8 2.4-6.5 5-2.1 10.4-1.4 11.3-3.5 4.4-.3 8.5.5 9.4-4.5 5 .2 10 .2 10s8.9-3 16.6-4.5c7.9 1.2 11.3-.5 11.4-3.9.1-3.5-7.9-4.4-11.9-5.3-.4-.1-.9-.1-1.4-.1.6-.1 1.2-.3 1.8-.4 7.9 1.2 11.3-.5 11.4-3.9.1-3.5-7.9-4.4-11.9-5.3-.1 0-.3 0-.4-.1.1 0 .3-.1.4-.1 7.9 1.2 11.3-.5 11.4-3.9.1-3.7-7.9-4.7-11.9-5.6z" fill="url(#SVGID_8_)"/>
      <radialGradient id="SVGID_9_" cx="191.15" cy="315.78" r="39.04" gradientTransform="rotate(-58.66 338.47 342.8)" gradientUnits="userSpaceOnUse">
        <stop offset=".58" stop-color="#ffd8ad" stop-opacity="0"/>
        <stop offset=".83" stop-color="#ffbb89"/>
        <stop offset="1" stop-color="#e9a478"/>
      </radialGradient>
      <path d="M247.6 420.7c-3.5-1.8-6.7-1.9-10.5-1.2-2.2.8-9.4 1.7-10.8 3.7a5.01 5.01 0 0 0-.7 4.5s3.3 24.6 5.9 25.3c2.6.7 6.4-6 6.2-10.1-.1-2.8-2.4-6.9-.6-8.4 23.7 22.5 32.1 3.5 32.1 3.5-1.6-7.6-15.6-14.2-21.6-17.3z" fill="url(#SVGID_9_)"/>
      <path class="st0" d="M247.6 420.7c-3.5-1.8-6.7-1.9-10.5-1.2-2.2.8-9.4 1.7-10.8 3.7a5.01 5.01 0 0 0-.7 4.5s3.3 24.6 5.9 25.3c2.6.7 6.4-6 6.2-10.1-.1-2.8-2.4-6.9-.6-8.4 23.7 22.5 32.1 3.5 32.1 3.5-1.6-7.6-15.6-14.2-21.6-17.3z"/>
    </g>
    <path class="st0" d="M472.5 288.8c-2.9-6.7-9-10.4-15.5-11.5-10.7-1.8-23.8 5.1-29.3 14.3-14.4 23.8-46.6 77.2-54.8 90.9l-.9-.6c-1.2 4.8-3 9.7-5.4 13.9 2.4 8.7 4.1 17.8 4.8 26.8l2.4.3c7.5 8.6 37.5-38.9 64.1-70.5 9.8-11.7 15.2-25.8 25.3-37.4 5.9-6.9 13.3-16.7 9.3-26.2z"/>
  </g>
  <path class="st0" d="M644.4 820.4c-11.2-53-28.1-101-57-115.9.3-32.6-12.8-155.1-15.6-183-.2-2-4.2-5.1-6.2-4.7-21.8 4.5-43.6 9.1-65.5 13.6-1.3.3-2.2 1.9-1.8 3.1 10 30 15 61.5 24.5 91.8 14.5 46.4 10.7 69.6 15.8 81.5 5 11.4 43.8 74 43.8 74 28.1 42.9 49.6 77.3 42.9 109-4.1 19.6-3 29.5-18.8 41.4-5.8 4.4-20.3 13.6-17.5 17.6 5.2 7.4 11.4 8.9 23.6 5.2 33.7-.7 36.2-33.4 57-47.7 5.4-3.7 13-8 15.5-14.5 8.2-21.8-29.4-17.6-40.7-71.4z"/>
  <radialGradient id="SVGID_10_" cx="573.11" cy="753.03" r="62.11" gradientTransform="matrix(.9635 -.2677 1.1506 4.1417 -845.5 -2212.4)" gradientUnits="userSpaceOnUse">
    <stop offset=".3" stop-color="#ffd8ad" stop-opacity="0"/>
    <stop offset="1" stop-color="#f1a181"/>
  </radialGradient>
  <path d="M644.4 820.4c-11.2-53-28.1-101-57-115.9.3-32.6-12.8-155.1-15.6-183-.2-2-4.2-5.1-6.2-4.7-21.8 4.5-43.6 9.1-65.5 13.6-1.3.3-2.2 1.9-1.8 3.1 10 30 15 61.5 24.5 91.8 14.5 46.4 10.7 69.6 15.8 81.5 5 11.4 43.8 74 43.8 74 28.1 42.9 49.6 77.3 42.9 109-4.1 19.6-3 29.5-18.8 41.4-5.8 4.4-20.3 13.6-17.5 17.6 5.2 7.4 11.4 8.9 23.6 5.2 33.7-.7 36.2-33.4 57-47.7 5.4-3.7 13-8 15.5-14.5 8.2-21.8-29.4-17.6-40.7-71.4z" fill="url(#SVGID_10_)"/>
  <defs>
    <path id="SVGID_11_" d="M644.4 820.4c-11.2-53-28.1-101-57-115.9.3-32.6-12.8-155.1-15.6-183-.2-2-4.2-5.1-6.2-4.7-21.8 4.5-43.6 9.1-65.5 13.6-1.3.3-2.2 1.9-1.8 3.1 10 30 15 61.5 24.5 91.8 14.5 46.4 10.7 69.6 15.8 81.5 5 11.4 43.8 74 43.8 74 28.1 42.9 49.6 77.3 42.9 109-4.1 19.6-3 29.5-18.8 41.4-5.8 4.4-20.3 13.6-17.5 17.6 5.2 7.4 11.4 8.9 23.6 5.2 33.7-.7 36.2-33.4 57-47.7 5.4-3.7 13-8 15.5-14.5 8.2-21.8-29.4-17.6-40.7-71.4z"/>
  </defs>
  <clipPath id="SVGID_12_">
    <use xlink:href="#SVGID_11_" overflow="visible"/>
  </clipPath>
  <path class="st0" d="M424.4 557s-24.9 79.3-41.1 122.8c-2.4 6.4-5.7 12.6-7.2 19.3-2.5 10.9 4.2 19.3 8.5 28.5.2.3.4.6.7.7 4.9 14.1 7.9 28.6 11.6 43.1 19.9 76.2 25.8 107.4 4.7 122.9-15.5 11.4-34.8 15.8-52 23.8-12.7 5.9-2.9 16.5 7.6 15.2 8.7-1.1 16.8 1.6 25.4.4 4.6-.6 9-2.9 13.5-4.2 6.1-1.9 13-.4 19.1.5 24.2 3.8 40.9-2.2 36.6-26.4-5.9-33.4-5.1-17.2-4.8-36.4.1-8.1-.9-16.1-.5-24.3.7-17.2 5.9-33.9 6.4-51.1.9-27.3-12.3-52.3-24.6-76.2 3.8-27.4 29.3-65.6 43.7-105.7 3.6-10.2 20.8-40.6 20.7-51.6 0-2.9-5.4 3.9-68.3-1.3z"/>
  <radialGradient id="SVGID_13_" cx="416.78" cy="774.42" r="111.41" gradientTransform="matrix(.9998 .01906 -.03826 2.0072 29.7 -787.93)" gradientUnits="userSpaceOnUse">
    <stop offset=".58" stop-color="#ffd8ad" stop-opacity="0"/>
    <stop offset="1" stop-color="#f1a181"/>
  </radialGradient>
  <path d="M424.4 557s-24.9 79.3-41.1 122.8c-2.4 6.4-5.7 12.6-7.2 19.3-2.5 10.9 4.2 19.3 8.5 28.5.2.3.4.6.7.7 4.9 14.1 7.9 28.6 11.6 43.1 19.9 76.2 25.8 107.4 4.7 122.9-15.5 11.4-34.8 15.8-52 23.8-12.7 5.9-2.9 16.5 7.6 15.2 8.7-1.1 16.8 1.6 25.4.4 4.6-.6 9-2.9 13.5-4.2 6.1-1.9 13-.4 19.1.5 24.2 3.8 40.9-2.2 36.6-26.4-5.9-33.4-5.1-17.2-4.8-36.4.1-8.1-.9-16.1-.5-24.3.7-17.2 5.9-33.9 6.4-51.1.9-27.3-12.3-52.3-24.6-76.2 3.8-27.4 29.3-65.6 43.7-105.7 3.6-10.2 20.8-40.6 20.7-51.6 0-2.9-5.4 3.9-68.3-1.3z" fill="url(#SVGID_13_)"/>
  <radialGradient id="SVGID_14_" cx="380" cy="762.65" r="111.41" gradientTransform="matrix(.9998 .01906 -.03826 2.0072 29.24 -775.38)" gradientUnits="userSpaceOnUse">
    <stop offset=".58" stop-color="#ffd8ad" stop-opacity="0"/>
    <stop offset="1" stop-color="#f1a181"/>
  </radialGradient>
  <path d="M424.4 557s-24.9 79.3-41.1 122.8c-2.4 6.4-5.7 12.6-7.2 19.3-2.5 10.9 4.2 19.3 8.5 28.5.2.3.4.6.7.7 4.9 14.1 7.9 28.6 11.6 43.1 19.9 76.2 25.8 107.4 4.7 122.9-15.5 11.4-34.8 15.8-52 23.8-12.7 5.9-2.9 16.5 7.6 15.2 8.7-1.1 16.8 1.6 25.4.4 4.6-.6 9-2.9 13.5-4.2 6.1-1.9 13-.4 19.1.5 24.2 3.8 40.9-2.2 36.6-26.4-5.9-33.4-5.1-17.2-4.8-36.4.1-8.1-.9-16.1-.5-24.3.7-17.2 5.9-33.9 6.4-51.1.9-27.3-12.3-52.3-24.6-76.2 3.8-27.4 29.3-65.6 43.7-105.7 3.6-10.2 20.8-40.6 20.7-51.6 0-2.9-5.4 3.9-68.3-1.3z" fill="url(#SVGID_14_)"/>
  <path class="st14" d="M492.7 558.4c0-3-5.5 3.8-68.4-1.4 0 0-2.8 8.9-7.1 22.4 10.5 4.4 42.9 17 66.2 5.9 4.9-10.5 9.4-21.3 9.3-26.9z"/>
  <defs>
    <path id="SVGID_15_" d="M420.6 571.4c-1-.1-2.1.8-2.3 1.8-9.1 35.5-30.7 94.9-35.1 106.6-2.4 6.4-5.7 12.6-7.2 19.3-2.5 10.9 4.2 19.3 8.5 28.5.2.3.4.6.7.7 4.9 14.1 7.9 28.6 11.6 43.1 19.9 76.2 25.8 107.4 4.7 122.9-15.5 11.4-34.8 15.8-52 23.8-12.7 5.9-2.9 16.5 7.6 15.2 8.7-1.1 16.8 1.6 25.4.4 4.6-.6 9-2.9 13.5-4.2 6.1-1.9 13-.4 19.1.5 24.2 3.8 40.9-2.2 36.6-26.4-5.9-33.4-5.1-17.2-4.8-36.4.1-8.1-.9-16.1-.5-24.3.7-17.2 5.9-33.9 6.4-51.1.9-27.3-12.3-52.3-24.6-76.2 3.8-27.4 29.3-65.6 43.7-105.7 3.6-10.2 20.8-38.7 20.7-49.8.1-2.8-9.1 16.5-72 11.3z"/>
  </defs>
  <clipPath id="SVGID_16_">
    <use xlink:href="#SVGID_15_" overflow="visible"/>
  </clipPath>
  <radialGradient id="SVGID_17_" cx="1198.64" cy="-565.86" r="49.93" gradientTransform="matrix(.4824 -1.1548 .4252 .182 87.71 2127.7)" gradientUnits="userSpaceOnUse">
    <stop offset="0" stop-color="#e9a478"/>
    <stop offset="1" stop-color="#ffd8ad" stop-opacity="0"/>
  </radialGradient>
  <path d="M450.3 570.6c12.1 4.3 11.3 37.5-1.8 74.2-13.1 36.7-33.5 62.9-45.5 58.6-12.1-4.3-11.3-37.5 1.8-74.2 13-36.6 33.4-62.9 45.5-58.6z" opacity=".5" fill="url(#SVGID_17_)"/>
  <path class="st14" d="M577 573.1c-2.3-23.1-4.3-42.4-5.3-51.6-.2-2-4.2-5.1-6.2-4.7-21.8 4.5-43.6 9.1-65.5 13.6-1.3.3-2.2 1.9-1.8 3.1 5.3 15.7 9.1 31.9 13 48 18-11.7 50.4-11.4 65.8-8.4z"/>
  <path d="M554.7 483.2c-3.5-3.6-34.9-23.9-43.7-22.8-23.1 3.1-46.4 6.2-69 9.2-4.3.6-2.5 3.7-6 7.1-17 16.8-3.3 62.2-14.3 84.2-2.2 6.3-8.3 12.6 27.9 20.3 18.1 3.9 29.6 1 40.7-2.7 0 0 3-9.7 5.6-9.6 2.5.1 5.3-.7 7.8-2 2.7.8 2.8 9.8 2.9 10.1 2.1 2.6 4.5-1.4 10.3-5 11.9-7.3 38.8-7.8 46.6-7.7 4.1.1 16 4.3 13.8-3.2-3.4-12 11.8-42.9-22.6-77.9z" fill="#12509b"/>
  <radialGradient id="SVGID_18_" cx="454.23" cy="532.09" r="128.29" gradientTransform="matrix(1 0 0 1.6272 0 -333.73)" gradientUnits="userSpaceOnUse">
    <stop offset="0" stop-color="#12509b" stop-opacity="0"/>
    <stop offset="1" stop-color="#12509b"/>
  </radialGradient>
  <path d="M554.7 483.2c-3.5-3.6-34.9-23.9-43.7-22.8-23.1 3.1-46.4 6.2-69 9.2-4.3.6-2.5 3.7-6 7.1-17 16.8-3.3 62.2-14.3 84.2-2.2 6.3-8.3 12.6 27.9 20.3 18.1 3.9 29.6 1 40.7-2.7 0 0 3-9.7 5.6-9.6 2.5.1 5.3-.7 7.8-2 2.7.8 2.8 9.8 2.9 10.1 2.1 2.6 4.5-1.4 10.3-5 11.9-7.3 38.8-7.8 46.6-7.7 4.1.1 16 4.3 13.8-3.2-3.4-12 11.8-42.9-22.6-77.9z" opacity=".5" fill="url(#SVGID_18_)"/>
  <defs>
    <path id="SVGID_19_" d="M554.7 483.2c-3.5-3.6-34.9-23.9-43.7-22.8-23.1 3.1-46.4 6.2-69 9.2-4.3.6-2.5 3.7-6 7.1-17 16.8-3.3 62.2-14.3 84.2-2.2 6.3-8.3 12.6 27.9 20.3 18.1 3.9 29.6 1 40.7-2.7 0 0 3-9.7 5.6-9.6 2.5.1 5.3-.7 7.8-2 2.7.8 2.8 9.8 2.9 10.1 2.1 2.6 4.5-1.4 10.3-5 11.9-7.3 38.8-7.8 46.6-7.7 4.1.1 16 4.3 13.8-3.2-3.4-12 11.8-42.9-22.6-77.9z"/>
  </defs>
  <clipPath id="SVGID_20_">
    <use xlink:href="#SVGID_19_" overflow="visible"/>
  </clipPath>
  <path class="st18" d="M570.2 128.5c-2.9 12.5-2.9 26.9-2.4 39.9.5 14.9 6.7 27.4 12 40.8 10.6 27.4 8.6 58.6-13.4 80.2-14.9 14.9-35.5 16.3-54.8 20.2 3.4-2.4 7.2-3.4 10.6-5.3 4.8-2.9 8.2-7.2 12.5-10.6-9.1 3.8-29.8 13-38.9 5.3-8.6-6.7-2.4-28.8-2.9-38.4-1-25.5-11-56.2 11.5-74.4 7.2-5.8 15.9-10.1 24-13.4l41.8-44.3z"/>
  <g opacity=".5">
    <radialGradient id="SVGID_21_" cx="560.55" cy="245.07" r="72.5" gradientUnits="userSpaceOnUse">
      <stop offset="0" stop-color="#6c3404" stop-opacity="0"/>
      <stop offset="1" stop-color="#6c3404"/>
    </radialGradient>
    <path d="M570.2 128.5c-2.9 12.5-2.9 26.9-2.4 39.9.5 14.9 6.7 27.4 12 40.8 10.6 27.4 8.6 58.6-13.4 80.2-14.9 14.9-35.5 16.3-54.8 20.2 3.4-2.4 7.2-3.4 10.6-5.3 4.8-2.9 8.2-7.2 12.5-10.6-9.1 3.8-29.8 13-38.9 5.3-8.6-6.7-2.4-28.8-2.9-38.4-1-25.5-11-56.2 11.5-74.4 7.2-5.8 15.9-10.1 24-13.4l41.8-44.3z" fill="url(#SVGID_21_)"/>
  </g>
  <path class="st18" d="M499.3 221.9c-4-14.3-10.1-27.9-15.7-41.7-5.8-14.3-12.2-29.6-13.8-45-.9-8.4 1.7-16.4 3.4-24.5.8-4.1.8-8.3.8-12.4v-.9c0-1.2-.9-1.7-1.8-1.7-.8 0-1.5.4-1.7 1.2-.2.1-.6.1-1 .2-2 .4-3.9.9-5.9 1.3-6 1.4-11.9 2.7-17.8 4.1-8.7 2-17.3 3.9-26 5.9-1.1.3-1.5 1.4-1.4 2.4.9 5.6.5 11.3 1.4 16.8 1.3 7.4 2.8 14.8 4.1 22.3 2.6 15 2.5 29.2-.1 44.1-4 22.8-12 48.9 1.6 70.4 2.8 4.5 5 2.5 4.4 1-4.1-9.7-3.6-19.7-1.9-29.8 1.3 11.3 7.8 22.3 14.6 31.4 2.6 3.5 5.7 8.3 9.4 10.6 3.3 2.1 5.9 2 9.5.5 6.6-2.7 13-3.7 19.9-5.4 8.5-2 18.3-8 21.3-16.7 3.6-10.5-.3-23.6-3.3-34.1z"/>
  <radialGradient id="SVGID_22_" cx="437.94" cy="189.52" r="71.79" gradientTransform="matrix(1 0 0 1.1371 0 -25.98)" gradientUnits="userSpaceOnUse">
    <stop offset=".58" stop-color="#6c3404" stop-opacity="0"/>
    <stop offset="1" stop-color="#6c3404"/>
  </radialGradient>
  <path d="M499.3 221.9c-4-14.3-10.1-27.9-15.7-41.7-5.8-14.3-12.2-29.6-13.8-45-.9-8.4 1.7-16.4 3.4-24.5.8-4.1.8-8.3.8-12.4v-.9c0-1.2-.9-1.7-1.8-1.7-.8 0-1.5.4-1.7 1.2-.2.1-.6.1-1 .2-2 .4-3.9.9-5.9 1.3-6 1.4-11.9 2.7-17.8 4.1-8.7 2-17.3 3.9-26 5.9-1.1.3-1.5 1.4-1.4 2.4.9 5.6.5 11.3 1.4 16.8 1.3 7.4 2.8 14.8 4.1 22.3 2.6 15 2.5 29.2-.1 44.1-4 22.8-12 48.9 1.6 70.4 2.8 4.5 5 2.5 4.4 1-4.1-9.7-3.6-19.7-1.9-29.8 1.3 11.3 7.8 22.3 14.6 31.4 2.6 3.5 5.7 8.3 9.4 10.6 3.3 2.1 5.9 2 9.5.5 6.6-2.7 13-3.7 19.9-5.4 8.5-2 18.3-8 21.3-16.7 3.6-10.5-.3-23.6-3.3-34.1z" opacity=".5" fill="url(#SVGID_22_)"/>
  <path d="M580.1 272.7c-13.6-30.3-53.6 3.9-62.6-30.8-4.5-17.4 2.3-37.4-4.2-35.2-30.5 10.4-30.3 9.7-30.3 12-.1 11.6-2.1 23.2-1.1 34.9-.6.4-.9.8-1.1 1.5-5.6 3.4-13.1 5.2-19 7.4-5 1.9-11.3 2.7-13.8 7.4-4.2 7.9-14.4 37.6-29.2 59.5-7.6 11.2-10.6 27.2 13.2 47.5 2.4 7.5 1.8 16.1 1.9 23.7 1.2 52-2.8 70.6 1 81.5 8.9 9.5 30.1 4.4 42.1 2.9 17.7-2.2 35.2-9.4 51-17.6 1.1-.6 1.3-2 .8-3.1-9.7-20.2-6.8-40.8-1.4-61.6 11.1-42.7 41.5-61.2 52.7-89.2 4.5-11.5 5.2-29.2 0-40.8z" fill="#0064ec"/>
  <radialGradient id="SVGID_23_" cx="457.63" cy="339.48" r="90.87" gradientTransform="matrix(1 0 0 1.8877 0 -301.35)" gradientUnits="userSpaceOnUse">
    <stop offset=".59" stop-color="#0064ec" stop-opacity="0"/>
    <stop offset="1" stop-color="#0064ec"/>
  </radialGradient>
  <path d="M580.1 272.7c-13.6-30.3-53.6 3.9-62.6-30.8-4.5-17.4 2.3-37.4-4.2-35.2-30.5 10.4-30.3 9.7-30.3 12-.1 11.6-2.1 23.2-1.1 34.9-.6.4-.9.8-1.1 1.5-5.6 3.4-13.1 5.2-19 7.4-5 1.9-11.3 2.7-13.8 7.4-4.2 7.9-14.4 37.6-29.2 59.5-7.6 11.2-10.6 27.2 13.2 47.5 2.4 7.5 1.8 16.1 1.9 23.7 1.2 52-2.8 70.6 1 81.5 8.9 9.5 30.1 4.4 42.1 2.9 17.7-2.2 35.2-9.4 51-17.6 1.1-.6 1.3-2 .8-3.1-9.7-20.2-6.8-40.8-1.4-61.6 11.1-42.7 41.5-61.2 52.7-89.2 4.5-11.5 5.2-29.2 0-40.8z" opacity=".5" fill="url(#SVGID_23_)"/>
  <radialGradient id="SVGID_24_" cx="514.26" cy="320.4" r="54.61" gradientUnits="userSpaceOnUse">
    <stop offset=".59" stop-color="#0064ec" stop-opacity="0"/>
    <stop offset="1" stop-color="#0064ec"/>
  </radialGradient>
  <path d="M580 313.6c1.4-3.6 2.5-7.8 3.1-12.3l-28.4-11.2s6.7 28.6 1.3 59.5c9.5-12.2 18.8-23.1 24-36z" opacity=".6" fill="url(#SVGID_24_)"/>
  <path class="st0" d="M482.9 319.2c12.6 0 19.4-3.4 26.7-14.1C519.2 291 527 275 534.3 260c.2-.4.4-.9.6-1.3-7.9-1.2-14.4-5-17.4-16.7-4.5-17.4 2.3-37.4-4.2-35.2-30.5 10.4-30.3 9.7-30.3 12-.1 11.6-2.1 23.2-1.1 34.9-.6.4-.9.8-1.1 1.5-3.6 2.2-8 3.7-12.2 5.1-4.7 6.8-8.4 15.7-11.9 22.6-3.9 8.2-8.7 20.4-2.4 28.6 6.3 8.2 18.9 7.7 28.6 7.7z"/>
  <radialGradient id="SVGID_25_" cx="477.74" cy="273.1" r="49.6" gradientUnits="userSpaceOnUse">
    <stop offset=".58" stop-color="#ffd8ad" stop-opacity="0"/>
    <stop offset="1" stop-color="#f1a181"/>
  </radialGradient>
  <path d="M482.9 319.2c12.6 0 19.4-3.4 26.7-14.1C519.2 291 527 275 534.3 260c.2-.4.4-.9.6-1.3-7.9-1.2-14.4-5-17.4-16.7-4.5-17.4 2.3-37.4-4.2-35.2-30.5 10.4-30.3 9.7-30.3 12-.1 11.6-2.1 23.2-1.1 34.9-.6.4-.9.8-1.1 1.5-3.6 2.2-8 3.7-12.2 5.1-4.7 6.8-8.4 15.7-11.9 22.6-3.9 8.2-8.7 20.4-2.4 28.6 6.3 8.2 18.9 7.7 28.6 7.7z" fill="url(#SVGID_25_)"/>
  <path class="st14" d="M515.9 222.8c.3-10 1.5-17.5-2.6-16.1-7.5 2.5-13.1 4.4-17.3 5.8l-13 6v.2c-.1 8.9-1.2 17.7-1.4 26.6 17.2-3.9 27.8-13.2 34.3-22.5z"/>
  <path class="st0" d="M427.6 127.2c1 5.6 9.4 18.1 9 29.6-.3 7.2-3.7 11.5-4.3 18-.9 9.4 20.5 51.1 39.6 57.1 14.9 4.5 70.6-25.7 82.1-77.3 7.2-32.3 3.6-77.4-29.5-89.1-20.5-7.9-47.6-8.2-74 8-23.5 14.5-24.6 44-22.9 53.7z"/>
  <radialGradient id="SVGID_26_" cx="468.23" cy="152.57" r="78.93" gradientTransform="matrix(1 0 0 1.2785 0 -42.48)" gradientUnits="userSpaceOnUse">
    <stop offset=".58" stop-color="#ffd8ad" stop-opacity="0"/>
    <stop offset=".83" stop-color="#ffbb89"/>
    <stop offset="1" stop-color="#e9a478"/>
  </radialGradient>
  <path d="M427.6 127.2c1 5.6 9.4 18.1 9 29.6-.3 7.2-3.7 11.5-4.3 18-.9 9.4 20.5 51.1 39.6 57.1 14.9 4.5 70.6-25.7 82.1-77.3 7.2-32.3 3.6-77.4-29.5-89.1-20.5-7.9-47.6-8.2-74 8-23.5 14.5-24.6 44-22.9 53.7z" fill="url(#SVGID_26_)"/>
  <radialGradient id="SVGID_27_" cx="450.33" cy="174.57" r="17.59" gradientTransform="matrix(1 0 0 .6035 0 69.21)" gradientUnits="userSpaceOnUse">
    <stop offset="0" stop-color="#de0209"/>
    <stop offset="1" stop-color="#ffd8ad" stop-opacity="0"/>
  </radialGradient>
  <path d="M467.8 174.6c0 6.3-7.8 11.3-17.5 11.3s-17.5-5.1-17.5-11.3 7.8-11.3 17.5-11.3c9.7-.1 17.5 5 17.5 11.3z" opacity=".2" fill="url(#SVGID_27_)"/>
  <path class="st28" d="M470.4 184.8c-.1-.1-.2-.1-.4-.1-.9.1-1.3 1.4-2.1 1.8-.9.5-2.1.2-3.1.5-.3.1-.4.5-.1.7 1.2.6 2.7.7 4 .2 1.1-.5 2.6-1.9 1.7-3.1zM463.1 163.8c0-.1-.1 0-.1 0-1.9 4.8.1 4.5-4.9 11.6-1.5 1.3-3.7 2.9-4.8 5.1-1.2 2.3.7 6.8 3.2 7.3.3.1.7-.1.8-.4.4-2.8-5-5.2.4-8.6 1.7-1 3.6-1.1 5.4-1.4 1-.2-.5-1.4-2.6-1.3 2.5-3.1 4.4-8.6 2.6-12.3z"/>
  <path class="st29" d="M513.4 127.2c3.1.5 5 2.8 7.6 4.2.9.5 2 .4 1.7-.4-5.7-15.9-28.3-3.9-33 3.5-.2.4.9.5 1.3.3 6.3-3.1 12.5-9.1 22.4-7.6zM455.5 137.7c-2-3.5-8.3-5.8-12.1-6.1-4.3-.3-8.9 2-7.4 7.4.7-.8 2.4-5.2 9.8-4.5 3.4.3 6.7 1.7 9.6 3.4.1.1.2 0 .1-.2z"/>
  <path class="st18" d="M588.8 218.4c-9.9-5.4-22.1-6.8-24.9-18.5-1.4-6.2-1.3-12.5-.6-18.9 6.2-6.3 11.9-14.3 15.6-24.6 13-36.2 6.6-79.1-26.3-79.1-5.3-28.3-50-28.6-82.7-26.6-23.4 1.4-48.1 20.7-55.7 41.6-6.4 2.9-16.7 12.6-16 22.4 0 0 4.7-8.8 11.4-11.3-9.2 5.6-9.2 19.4-2.1 22.6-6.2-11.2 23.4-10.3 32.4-10.6 14.9-.5 33.4-3 65.1-19.6-25.9 23.9-54.1 25.3-64.8 27.4 55.7.4 77.9-31.6 80.9-36.4 29.3 18.6 30 86.7 8.4 114-6.9 11.5 3.2 42.4 32.1 43.2-7.5-5.4-9.8-12.2-11.5-20.7 2.7 8.3 24 5 30.5 5.6 13.6 1.7 21.3 4.1 25.3 13.5 3.3-11.4-8.9-19.7-17.1-24z"/>
  <radialGradient id="SVGID_28_" cx="477.49" cy="133.78" r="100.64" gradientUnits="userSpaceOnUse">
    <stop offset=".58" stop-color="#6c3404" stop-opacity="0"/>
    <stop offset="1" stop-color="#6c3404"/>
  </radialGradient>
  <path d="M588.8 218.4c-9.9-5.4-22.1-6.8-24.9-18.5-1.4-6.2-1.3-12.5-.6-18.9 6.2-6.3 11.9-14.3 15.6-24.6 13-36.2 6.6-79.1-26.3-79.1-5.3-28.3-50-28.6-82.7-26.6-23.4 1.4-48.1 20.7-55.7 41.6-6.4 2.9-16.7 12.6-16 22.4 0 0 4.7-8.8 11.4-11.3-9.2 5.6-9.2 19.4-2.1 22.6-6.2-11.2 23.4-10.3 32.4-10.6 14.9-.5 33.4-3 65.1-19.6-25.9 23.9-54.1 25.3-64.8 27.4 55.7.4 77.9-31.6 80.9-36.4 29.3 18.6 30 86.7 8.4 114-6.9 11.5 3.2 42.4 32.1 43.2-7.5-5.4-9.8-12.2-11.5-20.7 2.7 8.3 24 5 30.5 5.6 13.6 1.7 21.3 4.1 25.3 13.5 3.3-11.4-8.9-19.7-17.1-24z" opacity=".5" fill="url(#SVGID_28_)"/>
  <radialGradient id="SVGID_29_" cx="510.63" cy="174.57" r="26.14" gradientTransform="matrix(1 0 0 .6035 0 69.21)" gradientUnits="userSpaceOnUse">
    <stop offset="0" stop-color="#de0209"/>
    <stop offset="1" stop-color="#ffd8ad" stop-opacity="0"/>
  </radialGradient>
  <path d="M536.6 174.6c0 9.3-11.6 16.9-26 16.9s-26-7.6-26-16.9c0-9.3 11.6-16.9 26-16.9s26 7.6 26 16.9z" opacity=".2" fill="url(#SVGID_29_)"/>
  <radialGradient id="SVGID_30_" cx="1580.75" cy="-535.7" r="41.39" gradientTransform="matrix(-.0254 -1.2512 .4625 -.00537 838.76 2609.77)" gradientUnits="userSpaceOnUse">
    <stop offset="0" stop-color="#e9a478"/>
    <stop offset="1" stop-color="#ffd8ad" stop-opacity="0"/>
  </radialGradient>
  <path d="M546.4 573.4c10.6-.8 21.1 24.7 23.5 56.8 2.4 32.2-4.3 58.9-14.9 59.7-10.6.8-21.1-24.7-23.5-56.8-2.4-32.2 4.3-59 14.9-59.7z" opacity=".5" fill="url(#SVGID_30_)"/>
  <radialGradient id="SVGID_31_" cx="617.97" cy="-88.34" r="24.03" gradientTransform="matrix(.7639 -.4408 .5872 .7568 5.87 676.44)" gradientUnits="userSpaceOnUse">
    <stop offset="0" stop-color="#0064ec"/>
    <stop offset="1" stop-color="#0064ec" stop-opacity="0"/>
  </radialGradient>
  <path d="M456.9 325c8.1 10 6.4 24.7-3.8 32.9-10.1 8.2-24.9 6.8-33-3.1-8.1-10-6.4-24.7 3.8-32.9s25-6.8 33 3.1z" opacity=".4" fill="url(#SVGID_31_)"/>
  <defs>
    <path id="SVGID_32_" d="M580.1 272.7c-13.6-30.3-53.6 3.9-62.6-30.8-4.5-17.4 2.3-37.4-4.2-35.2-30.5 10.4-30.3 9.7-30.3 12-.1 11.6-2.1 23.2-1.1 34.9-.6.4-.9.8-1.1 1.5-5.6 3.4-13.1 5.2-19 7.4-5 1.9-11.3 2.7-13.8 7.4-4.2 7.9-14.4 37.6-29.2 59.5-7.6 11.2-10.6 27.2 13.2 47.5 2.4 7.5 1.8 16.1 1.9 23.7 1.2 52-2.8 70.6 1 81.5 8.9 9.5 30.1 4.4 42.1 2.9 17.7-2.2 35.2-9.4 51-17.6 1.1-.6 1.3-2 .8-3.1-9.7-20.2-6.8-40.8-1.4-61.6 11.1-42.7 41.5-61.2 52.7-89.2 4.5-11.5 5.2-29.2 0-40.8z"/>
  </defs>
  <clipPath id="SVGID_33_">
    <use xlink:href="#SVGID_32_" overflow="visible"/>
  </clipPath>
  <radialGradient id="SVGID_34_" cx="669.88" cy="-148.77" r="24.03" gradientTransform="matrix(.7463 -.4625 .4652 .6061 58.38 743.19)" gradientUnits="userSpaceOnUse">
    <stop offset="0" stop-color="#0064ec"/>
    <stop offset="1" stop-color="#0064ec" stop-opacity="0"/>
  </radialGradient>
  <path d="M508.5 327.6c6.4 7.9 3.4 21-6.7 29.3-10.1 8.2-23.6 8.4-30 .5-6.4-7.9-3.4-21 6.7-29.3s23.5-8.5 30-.5z" opacity=".4" fill="url(#SVGID_34_)"/>
  <path class="st28" d="M572.1 724.1c2.8-3.5 2.3-10.2 1.9-14.4a.65.65 0 0 0-1.3 0c-.2 2.4-.2 4.7-.4 7.1-.2 2.3-1.1 4.7-.8 7.1.1.2.5.4.6.2zM398.6 702.8c-.1 2.2-.9 4.7-1.5 6.9-.6 2-2 3.7-2.7 5.7-.1.3.2.7.5.5 2.1-.8 2.9-3 3.6-5 1.1-2.9.8-5.4.1-8.1.1-.1 0-.1 0 0z"/>
  <linearGradient id="SVGID_35_" gradientUnits="userSpaceOnUse" x1="415.53" y1="78.71" x2="468.66" y2="105.42">
    <stop offset="0" stop-color="#fff"/>
    <stop offset="1" stop-color="#6c3404" stop-opacity="0"/>
  </linearGradient>
  <path d="M440.5 69.4s-24.7 11.9-20.3 34.4c.6-6.5 6.1-14.2 10.8-17.2-1.9 2.5-2.3 14.3-2.3 14.3s9.2-15.1 17.9-17c-3.2 5.4-4.1 13.3-4.1 13.3s12-14.2 21-17.1c-8.5.2-15.3 6.4-15.3 6.4l4.5-9.5s-15.3 4.4-19.5 11.8c4.4-7.9 7.1-11.6 7.1-11.6s-9.6 3.7-13.6 7.9c4.2-6.1 13.8-15.7 13.8-15.7z" fill="url(#SVGID_35_)"/>
  <linearGradient id="SVGID_36_" gradientUnits="userSpaceOnUse" x1="2735.98" y1="598.54" x2="2789.12" y2="625.25" gradientTransform="scale(-1 1) rotate(-25.6 -1.3 7670.92)">
    <stop offset="0" stop-color="#fff"/>
    <stop offset="1" stop-color="#6c3404" stop-opacity="0"/>
  </linearGradient>
  <path d="M570.3 90.9s17.2 21.4 3.4 39.7c2.2-6.1.7-15.5-2.3-20.1.6 3.1-4.1 13.9-4.1 13.9s-1.8-17.6-8.8-23c.6 6.2-2.1 13.7-2.1 13.7s-4.7-18-11.6-24.5c7.6 3.9 11 12.4 11 12.4V92.5s11.9 10.6 12.5 19.1c-.6-9-1.4-13.5-1.4-13.5s7.1 7.5 8.8 13c-.9-7.4-5.4-20.2-5.4-20.2z" fill="url(#SVGID_36_)"/>
  <path class="st37" d="M540.6 199.4c8.8-17.9 12.1-37.6 9.6-57.3 0-.1-.1-.1-.1 0-.4 10.3-.5 20.6-3.1 30.6-2.2 8.7-7.2 17.3-7.3 26.4-.1.5.6.8.9.3zM548.6 190c5.4-5.6 5.1-16.1 6.3-23.3 0-.3-.3-.4-.4-.1-1.1 3.5-2 7.1-2.8 10.7-1 4.2-3.1 8-4 12.2-.2.5.5.9.9.5zM435.3 199.6c0-.1-.1-.1-.1-.1-6.4 12.5 0 29.3 5.4 40.9.2.4.9.2.8-.2-.8-6-4.3-11.2-6-16.9-2-6.8-2.5-17.1-.1-23.7zM464.4 246.2c-4-2.7-7-5.5-9.7-9.5-4.1-6.1-7.6-12.4-10.2-19.2 0-.1-.2-.1-.2 0 .3 6.8 4.3 12.6 7.7 18.3 3.7 6.3 8.1 10.4 14.4 14.2.4.2.7-.2.6-.6-.9-1.7-.9-2-2.6-3.2z"/>
  <path class="st4" d="M572 525.3c-8.3 6.9-20.7 5.7-27.6-2.6-6.9-8.3-5.7-20.7 2.6-27.6 8.3-6.9 20.7-5.7 27.6 2.6 6.9 8.3 5.8 20.7-2.6 27.6zM516.9 458.6c-8.3 6.9-20.7 5.7-27.6-2.6-6.9-8.3-5.7-20.7 2.6-27.6 8.3-6.9 20.7-5.7 27.6 2.6 6.9 8.4 5.7 20.7-2.6 27.6z"/>
  <path class="st4" d="M544 503.1c-5.8 4.8-41.7-38.6-35.9-43.4l10.2-8.5c4.7-3.9 40.7 39.5 35.9 43.4l-10.2 8.5z"/>
  <linearGradient id="SVGID_37_" gradientUnits="userSpaceOnUse" x1="881.57" y1="1548.11" x2="882.55" y2="1575.52" gradientTransform="rotate(50.37 1846.08 640.48)">
    <stop offset="0" stop-color="#00899a" stop-opacity="0"/>
    <stop offset="1" stop-color="#00899a"/>
  </linearGradient>
  <path d="M542.4 501.5c-4.5 3.7-37.5-36.1-33-39.9l8-6.6c3.7-3.1 36.7 36.8 33 39.9l-8 6.6z" fill="url(#SVGID_37_)"/>
  <radialGradient id="SVGID_38_" cx="881.74" cy="5088.61" r="18.29" gradientTransform="matrix(.6378 .7702 -.1984 .1643 982.03 -1041)" gradientUnits="userSpaceOnUse">
    <stop offset="0" stop-color="#fff" stop-opacity=".5"/>
    <stop offset="1" stop-color="#f6f6f7" stop-opacity="0"/>
  </radialGradient>
  <path d="M546.5 488.3c-2 1.7-8.9-3.3-15.3-11.1s-10-15.4-8-17.1c2-1.7 8.9 3.3 15.3 11.1s10 15.4 8 17.1z" opacity=".7" fill="url(#SVGID_38_)"/>
  <radialGradient id="SVGID_39_" cx="925.06" cy="2262.83" r="12.48" gradientTransform="matrix(.6378 .7702 -.4719 .3908 1045.38 -1093.27)" gradientUnits="userSpaceOnUse">
    <stop offset="0" stop-color="#fff" stop-opacity=".5"/>
    <stop offset="1" stop-color="#f6f6f7" stop-opacity="0"/>
  </radialGradient>
  <path d="M575.5 513.1c-3.3 2.7-9.5.6-13.8-4.7-4.4-5.3-5.3-11.8-2.1-14.5 3.3-2.7 9.5-.6 13.9 4.7s5.3 11.8 2 14.5z" opacity=".7" fill="url(#SVGID_39_)"/>
  <radialGradient id="SVGID_40_" cx="837.75" cy="2265.73" r="12.48" gradientTransform="matrix(.6378 .7702 -.4719 .3908 1045.38 -1093.27)" gradientUnits="userSpaceOnUse">
    <stop offset="0" stop-color="#fff" stop-opacity=".5"/>
    <stop offset="1" stop-color="#f6f6f7" stop-opacity="0"/>
  </radialGradient>
  <path d="M518.5 447c-3.3 2.7-9.5.6-13.8-4.7-4.4-5.3-5.3-11.8-2.1-14.5 3.3-2.7 9.5-.6 13.8 4.7 4.4 5.3 5.3 11.8 2.1 14.5z" opacity=".7" fill="url(#SVGID_40_)"/>
  <path class="st0" d="M618.1 311.2c-8.5-12.6-20.7-21.7-29.1-34.5-5-7.7-12.4-17.4-22.7-16.1-7.3.9-12.4 5.8-15.3 11.8-4.7 9.8-1.5 24.3 5.8 32.1 18.9 20.3 61.7 65.8 72.6 77.4-12.3 10.6-28.3 36.2-37.7 44.3-6.4 5.6-26.8 19.3-38.2 23.9-6.9-2.1-17.5-.8-22.8-.3-3.9.4-6.6 2-9.5 4.7-1.4 1.9-7 6.5-7.1 8.9 0 .5.1 1 .1 1.4-3.2 1.7-5.2 3-5.6 3.5-3.9 4.2-.2 4.5 1.8 7.4 2.1 2.9 0 6.5 2.8 9.4 1.1.9 3.3 1.2 3.9 2.2 1.1 1.7.7 3.4 1.8 5.1.9 1.2 2.9 1 4 1.9 2.3 1.5 2 1.3 3.2 3.8 2.1 4.4 2.1 5.2 7.3 3.9 9.2-1.7 15.9-6.2 23.8-11.5 7.4-5.2 13-10.8 17-19.1 23.4-15.2 85.1-52.5 94.3-79.2 10.3-5-27.3-46.8-50.4-81z"/>
  <g>
    <radialGradient id="SVGID_41_" cx="549.22" cy="392.43" r="103.25" gradientTransform="matrix(.855 -.5186 .7952 1.3109 -232.42 162.84)" gradientUnits="userSpaceOnUse">
      <stop offset=".58" stop-color="#ffd8ad" stop-opacity="0"/>
      <stop offset="1" stop-color="#f1a181"/>
    </radialGradient>
    <path d="M618.1 311.2c-8.5-12.6-20.7-21.7-29.1-34.5-5-7.7-12.4-17.4-22.7-16.1-7.3.9-12.4 5.8-15.3 11.8-4.7 9.8-1.5 24.3 5.8 32.1 18.9 20.3 61.7 65.8 72.6 77.4-12.3 10.6-28.3 36.2-37.7 44.3-6.4 5.6-26.8 19.3-38.2 23.9-6.9-2.1-17.5-.8-22.8-.3-3.9.4-6.6 2-9.5 4.7-1.4 1.9-7 6.5-7.1 8.9 0 .5.1 1 .1 1.4-3.2 1.7-5.2 3-5.6 3.5-3.9 4.2-.2 4.5 1.8 7.4 2.1 2.9 0 6.5 2.8 9.4 1.1.9 3.3 1.2 3.9 2.2 1.1 1.7.7 3.4 1.8 5.1.9 1.2 2.9 1 4 1.9 2.3 1.5 2 1.3 3.2 3.8 2.1 4.4 2.1 5.2 7.3 3.9 9.2-1.7 15.9-6.2 23.8-11.5 7.4-5.2 13-10.8 17-19.1 23.4-15.2 85.1-52.5 94.3-79.2 10.3-5-27.3-46.8-50.4-81z" fill="url(#SVGID_41_)"/>
  </g>
  <g>
    <defs>
      <path id="SVGID_42_" d="M618.1 311.2c-8.5-12.6-20.7-21.7-29.1-34.5-5-7.7-12.4-17.4-22.7-16.1-7.3.9-12.4 5.8-15.3 11.8-4.7 9.8-1.5 24.3 5.8 32.1 18.9 20.3 61.7 65.8 72.6 77.4-12.3 10.6-28.3 36.2-37.7 44.3-6.4 5.6-26.8 19.3-38.2 23.9-6.9-2.1-17.5-.8-22.8-.3-3.9.4-6.6 2-9.5 4.7-1.4 1.9-7 6.5-7.1 8.9 0 .5.1 1 .1 1.4-3.2 1.7-5.2 3-5.6 3.5-3.9 4.2-.2 4.5 1.8 7.4 2.1 2.9 0 6.5 2.8 9.4 1.1.9 3.3 1.2 3.9 2.2 1.1 1.7.7 3.4 1.8 5.1.9 1.2 2.9 1 4 1.9 2.3 1.5 2 1.3 3.2 3.8 2.1 4.4 2.1 5.2 7.3 3.9 9.2-1.7 15.9-6.2 23.8-11.5 7.4-5.2 13-10.8 17-19.1 23.4-15.2 85.1-52.5 94.3-79.2 10.3-5-27.3-46.8-50.4-81z"/>
    </defs>
    <clipPath id="SVGID_43_">
      <use xlink:href="#SVGID_42_" overflow="visible"/>
    </clipPath>
  </g>
  <g>
    <path class="st43" d="M490.2 195.9c-6.4 4.9-8.6 2.5-16.2 2.9-1.5.1-3.5 1.1-4.9 2.4-2.5-1.9-7.1-1.1-9.9.4-1.1.6-2.4 1.2-1.3 2.2 4.1 4 7.2 4.8 13.2 4.5 7.9-.5 14.7-3 19.6-11.1.5-1.1.3-2-.5-1.3z"/>
    <path class="st43" d="M468.3 205.9c0 .8-1.1 1.4-2.4 1.4s-2.4-.6-2.4-1.4c0-.8 1.1-1.4 2.4-1.4s2.4.7 2.4 1.4z"/>
  </g>
  <path class="st44" d="M410.3 841.6s24.6 6.3 39.7-2.9c-1.1 15.4-3.7 39.7 1.5 52.4-12.9 6.5-42.8-2.3-41.2-9.7 2.3-16.3 3.4-28.8 0-39.8z"/>
  <linearGradient id="SVGID_44_" gradientUnits="userSpaceOnUse" x1="410.29" y1="865.94" x2="451.54" y2="865.94">
    <stop offset=".3" stop-color="#fff" stop-opacity="0"/>
    <stop offset=".99" stop-color="#6a7572" stop-opacity=".3"/>
  </linearGradient>
  <path d="M410.3 841.6s24.6 6.3 39.7-2.9c-1.1 15.4-3.7 39.7 1.5 52.4-12.9 6.5-42.8-2.3-41.2-9.7 2.3-16.3 3.4-28.8 0-39.8z" fill="url(#SVGID_44_)"/>
  <path class="st44" d="M612.7 838.6s25-2.7 34.9-17.4c5.1 24.3 13.2 37.6 23.1 47-9 11.2-42.1 20.1-43.7 12.7.1-18.4-6.7-33.6-14.3-42.3z"/>
  <linearGradient id="SVGID_45_" gradientUnits="userSpaceOnUse" x1="612.74" y1="852.51" x2="659.34" y2="852.51">
    <stop offset=".3" stop-color="#fff" stop-opacity="0"/>
    <stop offset=".99" stop-color="#6a7572" stop-opacity=".3"/>
  </linearGradient>
  <path d="M612.7 838.6s25-2.7 34.9-17.4c5.1 24.3 13.2 37.6 23.1 47-9 11.2-42.1 20.1-43.7 12.7.1-18.4-6.7-33.6-14.3-42.3z" fill="url(#SVGID_45_)"/>
  <path class="st47" d="M391.6 935.9c7.4-2.1 15.8-.5 23.1.6 29.3 4.6 49.4-4.2 44.3-33.5-1.7-9.4-2.9-15.5-3.8-19.7-1.6.1-3.5 1.1-5.3 3.8-4.7 6.9-17.3 3.1-19.1 0-1.8-3.1-7.1-3.6-12.5-4-1.3-6.3-7.1-9.9-9.4-11.9-14.3 21.8-40.8 34.3-73.4 49.3-21.8 10.1-4.5 32.5 56.1 15.4z"/>
  <radialGradient id="SVGID_46_" cx="382.07" cy="900.1" r="68.29" gradientTransform="matrix(.9635 -.2677 .1375 .4951 -109.85 556.75)" gradientUnits="userSpaceOnUse">
    <stop offset=".3" stop-color="#ffd8ad" stop-opacity="0"/>
    <stop offset="1" stop-color="#f175db"/>
  </radialGradient>
  <path d="M391.6 935.9c7.4-2.1 15.8-.5 23.1.6 29.3 4.6 49.4-4.2 44.3-33.5-1.7-9.4-2.9-15.5-3.8-19.7-1.6.1-3.5 1.1-5.3 3.8-4.7 6.9-17.3 3.1-19.1 0-1.8-3.1-7.1-3.6-12.5-4-1.3-6.3-7.1-9.9-9.4-11.9-14.3 21.8-40.8 34.3-73.4 49.3-21.8 10.1-4.5 32.5 56.1 15.4z" opacity=".5" fill="url(#SVGID_46_)"/>
  <path class="st47" d="M689.1 889.7c5.3-14-6.5-18.3-19.9-31.2-8.2 2.5-2.4 11-9 15.1-10.1 6.4-6-2.5-22.1 3.5-6.2-4.9-14.6-7.4-17.2-5.8.2 5.5-.2 10.9-1.3 16.2-4.6 21.7-.2 32.7-17.8 46-6.5 4.9-21.7 14.6-19.4 19.6 10.5 23.2 76.4-.2 89.6-42.8 2.2-7 14.4-13.3 17.1-20.6z"/>
  <radialGradient id="SVGID_47_" cx="618.65" cy="908.41" r="52.97" gradientTransform="matrix(.6604 -.7509 .574 .5048 -311.3 914.45)" gradientUnits="userSpaceOnUse">
    <stop offset=".3" stop-color="#ffd8ad" stop-opacity="0"/>
    <stop offset="1" stop-color="#f175db"/>
  </radialGradient>
  <path d="M689.1 889.7c5.3-14-6.5-18.3-19.9-31.2-8.2 2.5-2.4 11-9 15.1-10.1 6.4-6-2.5-22.1 3.5-6.2-4.9-14.6-7.4-17.2-5.8.2 5.5-.2 10.9-1.3 16.2-4.6 21.7-.2 32.7-17.8 46-6.5 4.9-21.7 14.6-19.4 19.6 10.5 23.2 76.4-.2 89.6-42.8 2.2-7 14.4-13.3 17.1-20.6z" opacity=".5" fill="url(#SVGID_47_)"/>
  <path class="st50" d="M414.7 939.5c26.9 4.3 46.1-5.9 45-29.7-12.5 28.9-50.7 17.1-61.4 17.4-11.7.4-49.2 8.6-57.7 5.2-5.7-2.3-3.7-9.2-1.8-13.5-1.2.5-2.3 1.1-3.5 1.6-21.6 10-4.4 35.4 56.2 18.3 7.5-2 15.9-.5 23.2.7zM675.9 898.6c-6.6 4.3-10.5 10.9-21.8 30.4s-47.2 26.5-55.8 25c-9.3-5.2-8.3-9.4-7.8-12.1-5.1 4.1-9.2 8.3-8.1 11.2 10.7 26.8 79.4 1 92.5-41.5 2.2-7 14.3-13.3 17.1-20.6 2.7-7.2-2-13.1-6.3-17.7.7 11.1-4.8 22.1-9.8 25.3zM455.2 883.4c-1.6.1-3.5 1.1-5.3 3.8-4.7 6.9-17.3 3.1-19.1 0-1.8-3.1-7.1-3.6-12.5-4-.1-.3-.1-.5-.2-.8-2.1 3.9-4.5 9.7-.8 9.7 5.6 0 10.9-.4 12.9 3.6s10.1 4.4 16.1 3.2c3.5-.7 7.4-5.6 10.1-9.7-.5-2.2-.9-4.2-1.2-5.8zM673.5 862.5c-1.4-1.2-2.8-2.5-4.3-3.9-8.2 2.5-2.4 11-9 15.1-10.1 6.4-6-2.5-22.1 3.5l-.1-.1c-.3 2.5-.3 8.3.9 9.4 2.3 2.3 3.9-2.3 9-1.2 5.1 1.2 14.3-1.2 18.6-5.8 3.4-3.6 2.1-12.2 7-17z"/>
  <g>
    <path class="st50" d="M407.2 896.6c-17.1-6.7-12.1-14.2-9.7-12.6.7.4.9 1.3.5 2-1.1 2.7 6.9 6.6 10.3 7.9.8.3 1.1 1.2.8 1.9-.3.8-1.1 1.1-1.9.8z"/>
  </g>
  <g>
    <path class="st50" d="M400.4 901.9c-2.1 0-15.9-6.8-12.3-12.3 1-1.6 3.5-.1 2.5 1.5-1.1 2.7 6.9 6.6 10.3 7.9 1.6.6 1.1 2.9-.5 2.9z"/>
  </g>
  <g>
    <path class="st50" d="M393.2 907.5c-6.5-2.5-10.4-5.6-11.7-9-1-2.5-.2-4.3-.1-4.5.8-1.7 3.5-.5 2.7 1.3 0 .1-.4 1 .2 2.3.8 1.8 3.1 4.5 10 7.2 1.8.7.8 3.4-1.1 2.7z"/>
  </g>
  <g>
    <path class="st50" d="M387 912.5c-16.5-6.5-12.5-15.5-9.8-14.2 1.7.8-.1 2 .9 4.2.8 1.8 3.1 4.5 10 7.2 1.8.8.7 3.5-1.1 2.8z"/>
  </g>
  <g>
    <path class="st50" d="M619.2 888.5c1.9-.5 1.3 1.5 3.5 2.6 1.7.9 5.3 1.4 12.3-1.1 1.8-.6 2.8 2.1 1 2.8-16.7 5.8-19.7-3.5-16.8-4.3z"/>
  </g>
  <g>
    <path class="st50" d="M624.1 903.4c-4.9 0-7.5-2.4-8.1-4.4-.5-1.9 2.3-2.6 2.8-.8 0 .1.4 1 1.7 1.6 1.7.9 5.3 1.4 12.3-1.1 1.8-.7 2.8 2.1 1 2.8-3.8 1.2-7 1.9-9.7 1.9z"/>
  </g>
  <g>
    <path class="st50" d="M615.8 905.9c1.8-.5 1.3 1.5 3.5 2.6 1.7.9 5.3 1.4 12.3-1.1 1.8-.7 2.8 2.1 1 2.8-16.7 5.8-19.7-3.6-16.8-4.3z"/>
  </g>
  <g>
    <path class="st50" d="M614.4 913.7c.8-.2 1.6.2 1.8 1 1.4 3.9 10 1.9 14 .5 1.8-.6 2.8 2.1 1 2.8-16.7 5.9-19.7-3.5-16.8-4.3z"/>
  </g>
  <g style="animation:blinkanim 4000ms ease-out 0ms infinite;transform-origin:52% 16%">
    <path class="st51" d="M487 154.3s8.5 7.1 23.3 4.7c14.8-2.4 14.5-7.4 13.9-8.9-.6-1.5-2.9-13.5-14.7-12.4-11.8 1.1-22.4 12.7-22.5 16.6z"/>
    <path class="st52" d="M521.1 146.9c.6 5.7-3.5 10.8-9.3 11.5-5.8.6-11-3.4-11.6-9.1a10.5 10.5 0 0 1 9.3-11.5c5.8-.7 11 3.4 11.6 9.1z"/>
    <path class="st53" d="M516.9 147.3c.4 3.4-2.1 6.5-5.6 6.9a6.3 6.3 0 0 1-7-5.5c-.4-3.4 2.1-6.5 5.6-6.9 3.5-.3 6.6 2.1 7 5.5z"/>
    <path class="st51" d="M508 146.2c.1.9-1.1 1.7-2.8 1.9-1.6.2-3-.4-3.1-1.2-.1-.9 1.1-1.7 2.8-1.9 1.6-.2 3 .3 3.1 1.2z"/>
    <path class="st29" d="M533.5 140.4c-3.3 1.4-5.7 4.3-9.4 4.7-.1-.3-.3-.6-.4-.9 1.3-.6 2.5-1.4 3.6-2.4 2.6-2.5 2.2-3 2.4-4.5 0-.1-.1-.1-.1 0-.3.4-.8.8-1.1 1.2-2.1 3-5.4 2.5-6.8 3l-.1-.1c1-.6 2.3-1.7 3-2.8.4-.7.3-1.1.5-1.9 0 0 0-.1-.1 0-.3.3-1 .6-1.4.9-1.4 1.1-1.8 1.5-4 2.1a16.4 16.4 0 0 0-10.1-3.4c-9 .1-21.4 9.2-22.6 18 0 .1.1.1.1.1 15.2-22.8 34.8-16.3 37-1.6.1.6 1.2-2 .9-4.6 3.9-.8 7-4 8.8-7.5 0-.2-.1-.4-.2-.3z"/>
    <g>
      <path class="st51" d="M461 156.4s-4.8 6-13.1 4-8.2-6.2-7.9-7.5c.3-1.3 1.6-11.4 8.3-10.5 6.7.8 12.7 10.7 12.7 14z"/>
      <path class="st52" d="M450.4 142.6c-2.1 1.2-3.7 4-4 7.4-.4 5 2.1 9.5 5.6 10 3.6.6 6.9-3.2 7.1-8.5-2.1-3.2-.9-4.7-8.7-8.9z"/>
      <path class="st53" d="M449 150.4c-.2 3 1.3 5.7 3.4 6 2.1.3 4-1.8 4.3-4.8.2-3-1.3-5.7-3.4-6-2.2-.4-4.1 1.8-4.3 4.8z"/>
      <path class="st51" d="M451.9 149.7c.1.9-.9 1.7-2.2 1.9-1.3.1-2.4-.5-2.5-1.4-.1-.9.9-1.7 2.2-1.9 1.3-.1 2.4.5 2.5 1.4z"/>
      <path class="st29" d="M448.3 141.1c-1.9 0-4 1.1-5.7 2.9-.5-.2-.9-.5-1.3-.9-.2-.2-1.8-1.9-1.8-1.6.1.8.2 1.2.3 1.7.2.8.8 1.8 1.6 2.4v.1c-.1 0-.2-.1-.3-.1-.8-.1-1.5-.5-2.2-.9-.5-.3-2.1-3-2.1-2.6-.1.7-.2 1.7.9 3.4.9 1.4 1.8 2.1 2.5 2.5-.1.2-.2.5-.2.7-.9-.2-1.5-.7-2.4-1.3-1.6-1.1-3.2-3.4-3.1-2.5.4 2.6 2.3 5.7 5 6.4-.1 1.3 0 2.6.4 3.9 0 .1.1.1.1 0 1.2-12.4 12.3-18 20.8 1.4 0 0 .1 0 .1-.1-.5-7.6-7.5-15.3-12.6-15.4z"/>
    </g>
  </g>
</svg>
