<?xml version="1.0" encoding="utf-8"?>
<!-- Generator: Adobe Illustrator 22.0.0, SVG Export Plug-In . SVG Version: 6.00 Build 0)  -->
<svg version="1.1" id="Layer_1" xmlns="http://www.w3.org/2000/svg" xmlns:xlink="http://www.w3.org/1999/xlink" x="0px" y="0px"
	 viewBox="0 0 1000 600" style="enable-background:new 0 0 1000 600;" xml:space="preserve">
<style type="text/css">
	.st0{fill:#FFCEE3;}
	.st1{fill:url(#SVGID_1_);}
	.st2{fill:url(#SVGID_2_);}
	.st3{fill:url(#SVGID_3_);}
	.st4{fill:url(#SVGID_4_);}
	.st5{fill:url(#SVGID_5_);}
	.st6{fill:url(#SVGID_6_);}
	.st7{fill:url(#SVGID_7_);}
	.st8{fill:url(#SVGID_8_);}
	.st9{fill:url(#SVGID_9_);}
	.st10{fill:url(#SVGID_10_);}
	.st11{fill:url(#SVGID_11_);}
	.st12{fill:url(#SVGID_12_);}
	.st13{fill:url(#SVGID_13_);}
	.st14{fill:url(#SVGID_14_);}
	.st15{fill:url(#SVGID_15_);}
	.st16{fill:url(#SVGID_16_);}
	.st17{opacity:0.24;}
	.st18{enable-background:new    ;}
	.st19{fill:#FFFFFF;}
	.st20{opacity:0.11;enable-background:new    ;}
	.st21{fill:#F5AB6A;}
	.st22{fill:#EDA15F;}
	.st23{fill:#FFB06B;}
	.st24{fill:#D68D4D;}
	.st25{fill:#FCB16F;}
	.st26{fill:#6E7F80;}
	.st27{fill:#768687;}
	.st28{fill:#869596;}
	.st29{fill:#9AABAD;}
	.st30{fill:#778D8F;}
	.st31{fill:#FFBA7D;}
	.st32{fill:#4D4D4D;}
	.st33{fill:#140F3B;}
	.st34{fill:#E0924E;}
	.st35{fill:#F0A563;}
	.st36{fill:#EB9452;}
	.st37{fill:#4F2A1B;}
	.st38{fill:#F5A365;}
	.st39{fill:#292166;}
	.st40{fill:#EBA05E;}
	.st41{fill:#FAB478;}
	.st42{fill:#F7A566;}
	.st43{fill:#FFAA69;}
	.st44{fill:#F5815A;}
	.st45{fill:#F29B59;}
	.st46{fill:#ED8E4E;}
	.st47{fill:#E6E6E6;}
	.st48{fill:#E89758;}
	.st49{fill:#5C2F1E;}
	.st50{fill:#6B3725;}
	.st51{fill:#542817;}
	.st52{fill:#783F2A;}
	.st53{fill:#82432C;}
	.st54{fill:#85452D;}
	.st55{fill:#E08548;}
	.st56{fill:#5475A2;}
	.st57{fill:#FFC796;}
	.st58{fill:#FFD8B5;}
	.st59{fill:#C95F3C;}
	.st60{fill:#996843;}
	.st61{fill:#1A1A1A;}
	.st62{fill:#4D2323;}
	.st63{fill:#FFEBD9;}
	.st64{fill:#FFB9A1;}
	.st65{fill:#352C7D;}
	.st66{fill:#E89C5A;}
	.st67{fill:#F79C6B;}
	.st68{fill:#1F194D;}
	.st69{fill:#CF8544;}
	.st70{fill:#D48142;}
	.st71{fill:#A6431C;}
	.st72{fill:#FFD6B2;}
	.st73{fill:#E89A56;}
	.st74{fill:#F2A664;}
	.st75{fill:#FFC18A;}
	.st76{fill:#DB9558;}
	.st77{fill:#839799;}
	.st78{fill:#5F7B7D;}
	.st79{fill:#5E5D5D;}
	.st80{fill:#BED2D4;}
	.st81{fill:#B81212;}
	.st82{fill:#9E1111;}
	.st83{fill:#BFBFBF;}
	.st84{fill:#DB6841;}
	.st85{fill:#E38C49;}
	.st86{fill:#999999;}
	.st87{fill:#7472E0;}
	.st88{fill:#CCCCCC;}
	.st89{fill:#6A4E85;}
	.st90{fill:#CFCFCF;}
	.st91{fill:#F0F0F0;}
	.st92{fill:#A2B8BA;}
	.st93{fill:#666666;}
	.st94{fill:#C9C9C9;}
	.st95{fill:#E6774C;}
	.st96{fill:#ED9B53;}
	.st97{fill:#C77A37;}
	.st98{fill:#89C7C7;}
	.st99{fill:#9CD6D6;}
	.st100{fill:#5DA3A3;}
</style>
<g id="Layer_2_1_">
	<g id="Layer_1-2">
		<polygon class="st0" points="999,0 999,302 999,604 499.5,604 0,604 0,302 0,0 499.5,0 		"/>
		
			<linearGradient id="SVGID_1_" gradientUnits="userSpaceOnUse" x1="-133.341" y1="576.9756" x2="565.7846" y2="576.9756" gradientTransform="matrix(-6.250167e-02 0.9375 -0.9375 -6.250167e-02 1056.5417 136.8507)">
			<stop  offset="4.160000e-02" style="stop-color:#FFCAD9"/>
			<stop  offset="0.57" style="stop-color:#FFC7E1"/>
			<stop  offset="1" style="stop-color:#FFCEE3"/>
		</linearGradient>
		<path class="st1" d="M986.9,6.7c2.7,1.9-2.1,130.3,0.6,134.4c3,4.5,11.5,163,10.8,164.5c-1.2,2.6-15.2,285.4-20.8,285.1
			c-1.8-0.1-473.3-0.2-476.4,0.8c-7.9,2.4-475.9,9.2-478.5,9.2c-1.9,0-4.1-141-5-144.9S16.9,302,19.8,301.1
			c1.2-0.3,3.3-59.6,7.7-59.1c7.2,0.8,10.7-83.8,11-84.2C39.2,157,23.8,15.1,24.3,11.2c0.3-2.1,474-4.1,479.8-5.2S984.6,5,986.9,6.7
			z"/>
		
			<linearGradient id="SVGID_2_" gradientUnits="userSpaceOnUse" x1="-460.4597" y1="934.6376" x2="342.5427" y2="934.6376" gradientTransform="matrix(-0.125 0.875 -0.875 -0.125 1314.8792 473.0284)">
			<stop  offset="4.160000e-02" style="stop-color:#FFC5CF"/>
			<stop  offset="0.57" style="stop-color:#FFC1DF"/>
			<stop  offset="1" style="stop-color:#FFCFE2"/>
		</linearGradient>
		<path class="st2" d="M974.8,13.4c5.3,3.9-4.2,126.7,1.2,135c6,9.1,23.1,158,21.6,161c-2.4,5.1-30.4,268.7-41.6,268.3
			c-3.7-0.3-447.1-0.4-453.3,1.5C487,584,50.5,597.5,45.3,597.5c-3.8,0-8.1-135.6-10.1-143.4s-1.5-152.2,4.2-153.8
			c2.4-0.7,6.7-55.8,15.4-54.7c14.5,1.7,21.3-76.3,22.1-77.1c1.5-1.6-29.4-138.2-28.3-145.8c0.6-4.3,448.4-8.3,460.1-10.4
			C520.5,10.3,970.2,10.1,974.8,13.4z"/>
		
			<linearGradient id="SVGID_3_" gradientUnits="userSpaceOnUse" x1="-757.5734" y1="1382.2267" x2="154.7835" y2="1382.2267" gradientTransform="matrix(-0.1875 0.8125 -0.8125 -0.1875 1573.1783 809.1999)">
			<stop  offset="4.160000e-02" style="stop-color:#FFC1C4"/>
			<stop  offset="0.57" style="stop-color:#FFBADE"/>
			<stop  offset="1" style="stop-color:#FFCFE2"/>
		</linearGradient>
		<path class="st3" d="M962.7,20.1c8,5.8-6.3,123.1,1.9,135.6c9,13.6,34.6,152.9,32.5,157.4c-3.6,7.7-45.6,252.1-62.4,251.4
			c-5.5-0.4-420.9-0.6-430.2,2.3C480.7,574,75.7,594.3,68,594.3c-5.7,0-12.2-130.1-15.1-141.9s-2.2-150.5,6.3-152.9
			c3.5-1,10-51.9,23.1-50.4c21.7,2.5,32-68.8,33.1-70c2.2-2.4-44.2-133.6-42.5-145c1-6.4,422.9-12.4,440.4-15.5
			C531,15.4,955.9,15.1,962.7,20.1z"/>
		
			<linearGradient id="SVGID_4_" gradientUnits="userSpaceOnUse" x1="-990.0171" y1="1923.5968" x2="31.1185" y2="1923.5968" gradientTransform="matrix(-0.25 0.75 -0.75 -0.25 1831.5139 1145.3782)">
			<stop  offset="4.160000e-02" style="stop-color:#FFBDBA"/>
			<stop  offset="0.57" style="stop-color:#FFB4DC"/>
			<stop  offset="1" style="stop-color:#FFD0E2"/>
		</linearGradient>
		<path class="st4" d="M950.6,26.8c10.6,7.7-8.4,119.6,2.5,136.1c12,18.1,46.1,147.8,43.3,153.8c-4.9,10.3-60.8,235.4-83.2,234.6
			c-7.4-0.5-394.7-0.8-407.1,3C474.4,564,101,591.1,90.7,591c-7.6,0-16.3-124.7-20.1-140.4s-3-148.8,8.5-152.1
			c4.7-1.3,13.4-48.1,30.8-46.1c29,3.4,42.7-61.4,44.1-62.9c3-3.2-58.9-129-56.6-144.2c1.3-8.6,397.3-16.5,420.7-20.7
			C541.5,20.4,941.5,20.1,950.6,26.8z"/>
		
			<linearGradient id="SVGID_5_" gradientUnits="userSpaceOnUse" x1="-1114.7778" y1="2548.9387" x2="5.833" y2="2548.9387" gradientTransform="matrix(-0.3125 0.6875 -0.6875 -0.3125 2089.8523 1481.5587)">
			<stop  offset="4.160000e-02" style="stop-color:#FEB8B0"/>
			<stop  offset="0.57" style="stop-color:#FFADDA"/>
			<stop  offset="1" style="stop-color:#FFD0E1"/>
		</linearGradient>
		<path class="st5" d="M938.5,33.5c13.3,9.7-10.6,116,3.1,136.7c14.9,22.7,57.7,142.7,54.1,150.2c-6.1,12.8-76,218.8-104.1,217.7
			c-9.2-0.7-368.5-1-384,3.8c-39.6,12.2-381.5,46-394.4,45.9c-9.5,0-20.3-119.3-25.1-138.8c-4.8-19.6-3.7-147.1,10.6-151.2
			c5.9-1.7,16.7-44.3,38.5-41.7c36.2,4.2,53.4-53.9,55.1-55.8c3.7-4-73.6-124.4-70.8-143.4c1.6-10.7,371.8-20.7,401.1-25.9
			C552,25.6,927.1,25.2,938.5,33.5z"/>
		
			<linearGradient id="SVGID_6_" gradientUnits="userSpaceOnUse" x1="-1087.6929" y1="3228.6597" x2="111.1156" y2="3228.6597" gradientTransform="matrix(-0.375 0.625 -0.625 -0.375 2348.1677 1817.7291)">
			<stop  offset="4.160000e-02" style="stop-color:#FEB4A6"/>
			<stop  offset="0.57" style="stop-color:#FFA7D9"/>
			<stop  offset="1" style="stop-color:#FFD1E1"/>
		</linearGradient>
		<path class="st6" d="M926.5,40.2c15.9,11.6-12.7,112.4,3.7,137.3c17.9,27.2,69.2,137.6,64.9,146.6
			c-7.3,15.4-91.2,202.1-124.9,200.8c-11.1-0.8-342.3-1.2-360.9,4.5c-47.5,14.6-357.9,55.2-373.4,55.1
			c-11.4,0-24.4-113.8-30.2-137.3c-5.8-23.5-4.4-145.4,12.7-150.3c7.1-2,20.1-40.4,46.2-37.4c43.4,5.1,64-46.4,66.2-48.7
			c4.5-4.9-88.3-119.8-84.9-142.7c1.9-12.8,346.3-24.8,381.4-31.1S912.7,30.2,926.5,40.2z"/>
		
			<linearGradient id="SVGID_7_" gradientUnits="userSpaceOnUse" x1="-876.1151" y1="3912.7659" x2="367.7735" y2="3912.7659" gradientTransform="matrix(-0.4375 0.5625 -0.5625 -0.4375 2606.5098 2153.917)">
			<stop  offset="4.160000e-02" style="stop-color:#FEAF9C"/>
			<stop  offset="0.57" style="stop-color:#FFA0D7"/>
			<stop  offset="1" style="stop-color:#FFD1E1"/>
		</linearGradient>
		<path class="st7" d="M914.4,46.9c18.6,13.5-14.8,108.8,4.4,137.8c20.9,31.7,80.7,132.5,75.8,143c-8.5,17.9-106.4,185.5-145.7,184
			c-12.9-0.9-316.1-1.4-337.8,5.3c-55.4,17.1-334.3,64.3-352.4,64.3c-13.4,0-28.4-108.4-35.2-135.8s-5.2-143.7,14.8-149.5
			c8.3-2.4,23.4-36.6,53.9-33c50.7,5.9,74.7-38.9,77.2-41.6c5.2-5.7-103.1-115.2-99.1-141.9c2.2-15,320.7-29,361.7-36.3
			S898.3,35.2,914.4,46.9z"/>
		
			<linearGradient id="SVGID_8_" gradientUnits="userSpaceOnUse" x1="-474.1496" y1="4537.9419" x2="773.1565" y2="4537.9419" gradientTransform="matrix(-0.5 0.5 -0.5 -0.5 2864.8389 2490.0972)">
			<stop  offset="4.160000e-02" style="stop-color:#FEAB92"/>
			<stop  offset="0.57" style="stop-color:#FF9AD5"/>
			<stop  offset="1" style="stop-color:#FFD2E1"/>
		</linearGradient>
		<path class="st8" d="M902.3,53.6c21.2,15.4-16.9,105.2,5,138.4c23.9,36.3,92.3,127.4,86.6,139.4
			c-9.7,20.5-121.6,168.8-166.5,167.1c-14.7-1.1-289.9-1.6-314.7,6C449.4,524,202,578,181.4,578c-15.3,0-32.5-103-40.2-134.3
			s-5.9-142.1,16.9-148.6c9.4-2.7,26.8-32.8,61.6-28.7c57.9,6.8,85.4-31.5,88.2-34.5c6-6.5-117.8-110.6-113.2-141.1
			c2.6-17.1,295.2-33.1,342-41.5C583.4,41,883.9,40.2,902.3,53.6z"/>
		
			<linearGradient id="SVGID_9_" gradientUnits="userSpaceOnUse" x1="89.6695" y1="5043.7461" x2="1297.369" y2="5043.7461" gradientTransform="matrix(-0.5625 0.4375 -0.4375 -0.5625 3123.1619 2826.2722)">
			<stop  offset="4.160000e-02" style="stop-color:#FEA787"/>
			<stop  offset="0.57" style="stop-color:#FF93D3"/>
			<stop  offset="1" style="stop-color:#FFD2E0"/>
		</linearGradient>
		<path class="st9" d="M890.2,60.3c23.9,17.4-19,101.6,5.6,139c26.9,40.8,103.8,122.3,97.4,135.8
			c-10.9,23.1-136.8,152.2-187.3,150.2c-16.6-1.2-263.7-1.8-291.6,6.8c-71.3,22-287.1,82.7-310.3,82.7c-17.2,0-36.6-97.5-45.2-132.8
			c-8.7-35.2-6.7-140.4,19-147.7c10.6-3,30.1-28.9,69.3-24.4c65.1,7.6,96.1-24,99.3-27.5c6.7-7.3-132.5-106-127.4-140.3
			c2.9-19.3,269.6-37.2,322.3-46.6S869.6,45.3,890.2,60.3z"/>
		
			<linearGradient id="SVGID_10_" gradientUnits="userSpaceOnUse" x1="758.2646" y1="5390.8794" x2="1889.5623" y2="5390.8794" gradientTransform="matrix(-0.625 0.375 -0.375 -0.625 3381.478 3162.4341)">
			<stop  offset="4.160000e-02" style="stop-color:#FEA27D"/>
			<stop  offset="0.57" style="stop-color:#FF8CD2"/>
			<stop  offset="1" style="stop-color:#FFD2E0"/>
		</linearGradient>
		<path class="st10" d="M878.1,67c26.5,19.3-21.1,98.1,6.2,139.5c29.9,45.3,115.3,117.3,108.2,132.3
			c-12.2,25.6-152,135.5-208.1,133.4c-18.4-1.3-237.5-2-268.5,7.6c-79.2,24.4-263.5,91.9-289.3,91.9c-19.1-0.1-40.6-92.1-50.3-131.3
			s-7.4-138.7,21.1-146.8c11.8-3.4,33.5-25.1,77-20c72.4,8.5,106.7-16.5,110.3-20.4c7.5-8.1-147.2-101.5-141.5-139.6
			c3.2-21.4,244.1-41.4,302.6-51.8S855.2,50.3,878.1,67z"/>
		
			<linearGradient id="SVGID_11_" gradientUnits="userSpaceOnUse" x1="1459.8135" y1="5570.9009" x2="2494.0935" y2="5570.9009" gradientTransform="matrix(-0.6875 0.3125 -0.3125 -0.6875 3639.8115 3498.6223)">
			<stop  offset="4.160000e-02" style="stop-color:#FE9E73"/>
			<stop  offset="0.57" style="stop-color:#FF86D0"/>
			<stop  offset="1" style="stop-color:#FFD3E0"/>
		</linearGradient>
		<path class="st11" d="M866,73.7c29.2,21.2-23.2,94.5,6.9,140.1c32.9,49.8,126.9,112.2,119,128.7C978.5,370.6,824.7,461.3,763,459
			c-20.3-1.4-211.3-2.2-245.4,8.3c-87.1,26.8-240,101.1-268.3,101c-21-0.1-44.7-86.7-55.3-129.7c-10.6-43.1-8.1-137,23.3-146
			c13-3.7,36.8-21.3,84.7-15.7c79.6,9.3,117.4-9.1,121.3-13.3c8.2-8.9-161.9-96.9-155.7-138.8c3.5-23.5,218.6-45.5,282.9-57
			S840.8,55.3,866,73.7z"/>
		
			<linearGradient id="SVGID_12_" gradientUnits="userSpaceOnUse" x1="2090.7781" y1="5602.0386" x2="3067.4646" y2="5602.0386" gradientTransform="matrix(-0.75 0.25 -0.25 -0.75 3898.1348 3834.7876)">
			<stop  offset="4.160000e-02" style="stop-color:#FE9A69"/>
			<stop  offset="0.57" style="stop-color:#FF7FCE"/>
			<stop  offset="1" style="stop-color:#FFD3DF"/>
		</linearGradient>
		<path class="st12" d="M853.9,80.4c31.9,23.2-25.3,90.9,7.5,140.7c35.9,54.4,138.4,107.1,129.9,125.1
			c-14.6,30.8-182.4,102.2-249.7,99.7c-22.1-1.6-185.1-2.4-222.3,9.1c-95,29.3-216.4,110.3-247.3,110.2
			c-22.9-0.1-48.8-81.2-60.3-128.2s-8.9-135.3,25.4-145.1c14.2-4.1,40.2-17.4,92.4-11.3c86.9,10.1,128.1-1.6,132.4-6.2
			c9-9.7-176.7-92.3-169.8-138c3.8-25.7,193-49.6,263.2-62.2S826.4,60.4,853.9,80.4z"/>
		
			<linearGradient id="SVGID_13_" gradientUnits="userSpaceOnUse" x1="2667.5247" y1="5507.5537" x2="3581.6411" y2="5507.5537" gradientTransform="matrix(-0.8125 0.1875 -0.1875 -0.8125 4156.46 4170.9561)">
			<stop  offset="4.160000e-02" style="stop-color:#FD955F"/>
			<stop  offset="0.57" style="stop-color:#FF79CC"/>
			<stop  offset="1" style="stop-color:#FFD4DF"/>
		</linearGradient>
		<path class="st13" d="M841.8,87.1c34.5,25.1-27.4,87.3,8.1,141.2c38.8,58.9,149.9,102,140.7,121.5
			C974.8,383.1,793,435.4,720,432.6c-24-1.7-158.9-2.6-199.2,9.8C418,474.1,328.1,561.9,294.7,561.8c-24.8-0.1-52.8-75.8-65.4-126.7
			c-12.5-50.9-9.6-133.6,27.5-144.2c15.4-4.4,43.5-13.6,100.1-7c94.1,11,138.8,5.9,143.4,0.9c9.7-10.5-191.4-87.7-184-137.2
			c4.2-27.8,167.5-53.8,243.5-67.4S812,65.4,841.8,87.1z"/>
		
			<linearGradient id="SVGID_14_" gradientUnits="userSpaceOnUse" x1="3170.0549" y1="5322.6318" x2="4017.5732" y2="5322.6318" gradientTransform="matrix(-0.875 0.125 -0.125 -0.875 4414.7925 4507.1611)">
			<stop  offset="4.160000e-02" style="stop-color:#FD9154"/>
			<stop  offset="0.57" style="stop-color:#FF72CB"/>
			<stop  offset="1" style="stop-color:#FFD4DF"/>
		</linearGradient>
		<path class="st14" d="M829.7,93.8c37.2,27-29.6,83.7,8.7,141.8C880.3,299,999.9,332.5,990,353.5c-17,35.9-212.8,68.9-291.4,65.9
			c-25.8-1.8-132.7-2.8-176.1,10.6c-110.8,34.2-169.2,128.7-205.2,128.6c-26.7-0.1-56.9-70.4-70.4-125.2s-10.3-131.9,29.6-143.3
			c16.5-4.7,46.9-9.8,107.8-2.6c101.3,11.8,149.4,13.4,154.4,8c10.5-11.3-206.1-83.1-198.1-136.4c4.5-30,141.9-57.9,223.8-72.6
			S797.7,70.4,829.7,93.8z"/>
		
			<linearGradient id="SVGID_15_" gradientUnits="userSpaceOnUse" x1="3593.5325" y1="5100.2617" x2="4373.6865" y2="5100.2617" gradientTransform="matrix(-0.9375 6.250171e-02 -6.250171e-02 -0.9375 4673.1182 4843.3267)">
			<stop  offset="4.160000e-02" style="stop-color:#FD8C4A"/>
			<stop  offset="0.57" style="stop-color:#FF6CC9"/>
			<stop  offset="1" style="stop-color:#FFD5DE"/>
		</linearGradient>
		<path class="st15" d="M817.6,100.5c39.8,29-31.7,80.2,9.4,142.4c44.8,68,173,91.8,162.3,114.3c-18.2,38.5-228,52.3-312.2,49.1
			c-27.7-2-106.5-3-153,11.3C405.4,454.2,378.6,555.4,340,555.3c-28.6-0.1-60.9-64.9-75.4-123.7s-11.1-130.2,31.7-142.5
			c17.7-5.1,50.2-5.9,115.5,1.7c108.6,12.7,160.1,20.8,165.5,15.1c11.2-12.1-220.8-78.5-212.3-135.7c4.8-32.1,116.4-62,204.2-77.7
			S783.3,75.5,817.6,100.5z"/>
		
			<linearGradient id="SVGID_16_" gradientUnits="userSpaceOnUse" x1="3941.9834" y1="4860.2363" x2="4657.3862" y2="4860.2363" gradientTransform="matrix(-1 0 0 -1 4931.4443 5179.5156)">
			<stop  offset="4.160000e-02" style="stop-color:#FD8840"/>
			<stop  offset="0.57" style="stop-color:#FF65C7"/>
			<stop  offset="1" style="stop-color:#FFD5DE"/>
		</linearGradient>
		<path class="st16" d="M615.7,316.5c12-12.9-235.5-73.9-226.4-134.9c5.1-34.2,90.9-66.2,184.5-82.9s195.1-18.2,231.8,8.4
			c42.5,30.9-33.8,76.6,10,142.9c47.8,72.5,184.5,86.7,173.2,110.7c-19.5,41-243.2,35.6-333,32.2c-29.5-2.1-80.3-3.2-129.9,12.1
			c-126.7,39-122,147.1-163.2,147c-30.5-0.1-65-59.5-80.4-122.1S270.4,301.4,316,288.4c18.9-5.4,53.6-2.1,123.2,6
			C555.1,307.9,610,322.7,615.7,316.5z"/>
	</g>
</g>
<g id="OBJECTS_1_" class="st17">
	<g>
		<path d="M999,423v-19.3h-99.4v-47.9c0-3.4-3.1-6.2-6.9-6.2h-15.6c-3.8,0-6.9,2.7-6.9,6.2v47.9H869V369c0-3.4-3.1-6.2-6.9-6.2
			h-15.6c-3.8,0-6.9,2.7-6.9,6.2v34.7h-1.2v-24.5c0-3.4-3.1-6.2-6.9-6.2h-15.6c-3.8,0-6.9,2.8-6.9,6.2v24.5h-3.3
			c-2.9,0-5.3,2.1-5.3,4.8v9.7c0,2.7,2.4,4.8,5.3,4.8h3.3v24.5c0,3.4,3.1,6.2,6.9,6.2h15.6c3.8,0,6.9-2.8,6.9-6.2V423h1.2v34.7
			c0,3.4,3.1,6.2,6.9,6.2h15.6c3.8,0,6.9-2.8,6.9-6.2V423h1.2v47.9H761.6c6.7-10.1,10.3-22.1,9.8-34.9c-0.8-17.2-9.4-32.7-22.6-43.7
			c1.5-1.4,2.7-3.2,3.4-5.2c1.7-5.2,2.4-10.7,2-16.4c-1.7-24.2-23.6-32.7-50.5-33.8c-30.4-1.2-55.5,9.7-55.5,36.8
			c0,4.7,0.8,9.2,2.2,13.5c0.6,1.9,1.8,3.6,3.2,5c-13.9,11.5-22.6,28.1-22.6,46.4c0,11.8,3.6,22.8,9.8,32.2H409v-30
			c0-4.1-2.4-7.8-6-9.8v-5c3.5-1.3,6-4.4,6-8.1v-12.4c0-4.8-4.3-8.7-9.7-8.7H394v-5.6c0-1.6-1.5-2.9-3.3-2.9h-6.3
			c-1.8,0-3.3,1.3-3.3,2.9v5.6h-5.3c-5.3,0-9.7,3.9-9.7,8.7V418c0,3.7,2.5,6.8,6,8.1v5c-3.6,2.1-6,5.7-6,9.8v30h-41.6
			c-1.6-7.7-4.2-17.7-6.5-25.9c-2.6-9.2-11.7-15.6-22.3-15.6c0,0-3.4-18.3-7.8-39.2c-4.4-20.9-9.9-44.3-14-54.7
			c-8.2-20.6-15.8-44.1-15.8-44.1s29.2-49.7,31.3-57.2c2.1-7.5-9.4-16-9.4-16h-82.9c-25,5.2-47.4,61-47.4,61
			c-21.4-0.5-21.9,9.4-21.9,9.4l-129-0.4v7.9h123.8l-0.5,8.4h38.1c18.8,23.5,31.3,135.1,31.3,135.1c-14.6-0.9-25,16-25,16H-1V600
			H999V470.8h-99.4V423H999z M213.5,429.8c0,0-14.1-82.6-19.3-94.8c-5.2-12.2-13.6-33.8-13.6-33.8h62c0,0,14.6,36.1,18.2,48.3
			c3.6,12.2,16.2,80.2,16.2,80.2L213.5,429.8L213.5,429.8z M736,381c-0.3,0.8-0.7,1.5-1.2,2.2c-9.1-4.5-19.4-7.3-30.3-7.7
			c-13.5-0.6-26.1,2.3-37,7.7c-0.5-0.6-0.9-1.3-1.1-2c-1-2.7-1.5-5.6-1.5-8.6c0-17.2,17.2-20.1,38-19.3c18.4,0.7,33.5,2.1,34.6,17.4
			C737.7,374.3,737.1,377.8,736,381z"/>
		<g>
			<path d="M125.2,83.6V0h-6v83.6c-20.4,1.1-37.2,14-42.1,31.3h31.3c0,6.9,6.2,12.5,13.9,12.5c7.6,0,13.8-5.6,13.9-12.5h31.3
				C162.4,97.6,145.6,84.7,125.2,83.6z"/>
			<path d="M905.2,83.6V0h-6v83.6c-20.4,1.2-37.2,14.1-42.1,31.3h31.3c0,6.9,6.2,12.5,13.9,12.5c7.6,0,13.8-5.6,13.9-12.5h31.3
				C942.3,97.6,925.5,84.7,905.2,83.6z"/>
		</g>
	</g>
	<g>
		<path d="M782.6,260.3c-3.6-30.6,0.2-61.5,1.8-92.2c0.5-8.6,0.8-17.2,0.6-25.9c-0.1-7.6,0.5-16.5-3.1-23.7c-0.9-1.8-2.2-3.5-3.9-5
			c-0.1-0.3-0.3-0.5-0.4-0.8c-5.7-9.6-19.1-10-27.6-3.3c-12,9.4-9.8,24.2-7.5,36.9c7,38.6,5.5,76.2-0.5,114.6l-6.8,0.5v48.8l11.3,4
			l4.5-54l-5.8,0.4c4.9-20.1,6.7-41,6.8-61.6c0-12.1-0.6-24.3-2.1-36.3c-1.4-11.3-5.2-23.1-4.4-34.5c0.5-6.4,3-12.6,9-16.5
			c3.2-2,6.9-2.9,10.3-2.5c-2.4,0.5-4.6,1.7-6.6,3.9c-5.4,6.2-4.6,20.2,6.2,20.9c7.5,0.5,12.7-4.6,14.4-10.6
			c0.2,0.8,0.4,1.5,0.5,2.3c2.1,11.7,1.1,24.2,0.6,36c-0.5,12.1-1.5,24.2-2.4,36.3c-1.5,20.8-2.4,41.6,0.1,62.2h-4.1l4.5,44.7h13
			v-44.7h-8.4V260.3z M773.3,124.7c-1.4,2.2-2.9,4.3-5.7,4.5c-2.9,0.3-6.1-1.2-7.6-3.5c-4.8-7.2,5.4-14.5,12.8-10.9
			c0.3,0.2,0.6,0.4,0.9,0.5c0.2,0.5,0.4,1,0.6,1.5C775.3,119.9,775,122,773.3,124.7z"/>
		<path d="M772.7,115.7c0,1.9-1.7,3.4-3.8,3.4s-3.8-1.5-3.8-3.4s1.7-3.4,3.8-3.4C771,112.3,772.7,113.8,772.7,115.7z"/>
	</g>
</g>
<g class="st18">
	<path class="st19" d="M220.4,60.9v17.3h-36.9v19.7H212v16.5h-28.5v36.4h-21.8v-90H220.4z"/>
	<path class="st19" d="M252.7,60.9v51.9c0,5.9,1.3,10.5,4,13.6c2.7,3.1,6.6,4.7,11.6,4.7c5.1,0,9-1.6,11.6-4.7c2.7-3.1,4-7.7,4-13.6
		V60.9h21.8v51.9c0,8.5-1.7,15.6-5,21.4c-3.3,5.8-7.8,10.2-13.6,13.1c-5.7,2.9-12.2,4.4-19.4,4.4c-7.2,0-13.6-1.4-19.1-4.3
		c-5.5-2.9-9.8-7.3-13-13.1c-3.1-5.9-4.7-13-4.7-21.5V60.9H252.7z"/>
	<path class="st19" d="M342,134.2h29v16.7h-50.8v-90H342V134.2z"/>
	<path class="st19" d="M402.8,134.2h29v16.7h-50.8v-90h21.8V134.2z"/>
	<path class="st19" d="M585.1,112.4c3.2,4,4.8,8.6,4.8,13.9c0,7.7-2.6,13.7-7.7,18.1c-5.1,4.3-12.5,6.5-22.1,6.5h-41.9v-90h40.8
		c9.2,0,16.2,2,21.2,6c5,4,7.5,9.7,7.5,17c0,5.4-1.4,9.9-4.3,13.6c-2.9,3.6-6.7,6-11.3,7.1C577.6,105.8,581.9,108.4,585.1,112.4z
		 M540,97.7h14.3c7.5,0,11.3-3.2,11.3-9.7c0-6.4-3.9-9.7-11.6-9.7h-14V97.7z M567.6,123.2c0-3.2-1.1-5.7-3.2-7.6
		c-2.1-1.8-5.1-2.7-9-2.7H540v20.2h15.5C563.6,133.2,567.6,129.9,567.6,123.2z"/>
	<path class="st19" d="M667.1,65.4c6.9,3.9,12.4,9.4,16.3,16.4c4,7,6,14.9,6,23.7c0,8.8-2,16.8-6,23.8c-4,7-9.5,12.5-16.4,16.5
		c-6.9,3.9-14.6,5.9-23,5.9s-16.1-2-23-5.9c-6.9-3.9-12.4-9.4-16.4-16.5c-4-7-6-15-6-23.8c0-8.8,2-16.7,6-23.7
		c4-7,9.5-12.5,16.4-16.4c6.9-3.9,14.6-5.9,23-5.9C652.5,59.5,660.2,61.5,667.1,65.4z M627.1,86.7c-4.2,4.6-6.3,10.9-6.3,18.9
		c0,7.9,2.1,14.2,6.3,18.8c4.2,4.7,9.9,7,17,7c7,0,12.7-2.3,16.9-7c4.2-4.7,6.4-10.9,6.4-18.8s-2.1-14.2-6.3-18.8
		c-4.2-4.7-9.9-7-17-7S631.3,82,627.1,86.7z"/>
	<path class="st19" d="M776.9,129.2c-3.8,6.8-9.2,12.2-16.3,16c-7.1,3.8-15.4,5.7-25,5.7h-34v-90h34c9.7,0,18,1.9,25.1,5.6
		c7,3.7,12.4,9,16.2,15.8c3.8,6.8,5.7,14.6,5.7,23.4C782.6,114.5,780.7,122.3,776.9,129.2z M753.5,124.6c4.7-4.5,7.1-10.8,7.1-19
		c0-8.1-2.4-14.5-7.1-19c-4.7-4.5-11.3-6.7-19.8-6.7h-10.3v51.4h10.3C742.2,131.4,748.8,129.1,753.5,124.6z"/>
	<path class="st19" d="M872.7,60.9l-31.2,60.1v29.9h-21.9v-29.9l-31.2-60.1h24.9l17.3,36.6L848,60.9H872.7z"/>
</g>
<g class="st18">
	<path class="st19" d="M203.1,362.7l-20.3,84.8h-25.4l-13.6-56.8l-13.7,56.8h-25.4l-20.3-84.8h22.3l10.9,61.4l14.9-61.4H155
		l14.9,61.4l11-61.4H203.1z"/>
	<path class="st19" d="M276,367c6.5,3.7,11.7,8.9,15.4,15.5c3.8,6.6,5.6,14.1,5.6,22.4c0,8.3-1.9,15.8-5.7,22.4
		c-3.8,6.6-9,11.8-15.5,15.5c-6.5,3.7-13.7,5.6-21.7,5.6s-15.1-1.9-21.7-5.6c-6.5-3.7-11.7-8.9-15.5-15.5
		c-3.8-6.6-5.7-14.1-5.7-22.4c0-8.3,1.9-15.8,5.7-22.4c3.8-6.6,9-11.8,15.5-15.5c6.5-3.7,13.7-5.6,21.7-5.6
		C262.2,361.4,269.5,363.2,276,367z M238.2,387c-4,4.4-5.9,10.3-5.9,17.8c0,7.4,2,13.4,5.9,17.8c4,4.4,9.3,6.6,16,6.6
		c6.6,0,12-2.2,16-6.6c4-4.4,6-10.3,6-17.8c0-7.4-2-13.4-5.9-17.8c-4-4.4-9.3-6.6-16-6.6C247.5,380.5,242.2,382.6,238.2,387z"/>
	<path class="st19" d="M352.1,447.5l-18.4-32h-4.7v32h-20.5v-84.8h35c6.7,0,12.4,1.2,17,3.5c4.6,2.3,8.1,5.5,10.4,9.5
		c2.3,4,3.5,8.7,3.5,13.9c0,6.2-1.7,11.4-5.1,15.7c-3.4,4.3-8.3,7.3-14.8,8.9l20.2,33.4H352.1z M329.1,401.5h12.7
		c4.1,0,7.1-0.9,9-2.7c1.9-1.8,2.9-4.5,2.9-8c0-3.4-1-6-2.9-7.9c-2-1.9-4.9-2.9-8.9-2.9h-12.7V401.5z"/>
	<path class="st19" d="M424.9,404.2l34.2,43.3h-24.8l-28.8-38v38h-20.5v-84.8h20.5V400l29-37.3h24.6L424.9,404.2z"/>
	<path class="st19" d="M625.8,367c6.5,3.7,11.7,8.9,15.4,15.5c3.8,6.6,5.6,14.1,5.6,22.4c0,8.3-1.9,15.8-5.7,22.4
		c-3.8,6.6-9,11.8-15.5,15.5c-6.5,3.7-13.7,5.6-21.7,5.6s-15.1-1.9-21.7-5.6c-6.5-3.7-11.7-8.9-15.5-15.5
		c-3.8-6.6-5.7-14.1-5.7-22.4c0-8.3,1.9-15.8,5.7-22.4c3.8-6.6,9-11.8,15.5-15.5c6.5-3.7,13.7-5.6,21.7-5.6
		C612,361.4,619.3,363.2,625.8,367z M588,387c-4,4.4-5.9,10.3-5.9,17.8c0,7.4,2,13.4,5.9,17.8c4,4.4,9.3,6.6,16,6.6
		c6.6,0,12-2.2,16-6.6c4-4.4,6-10.3,6-17.8c0-7.4-2-13.4-5.9-17.8c-4-4.4-9.3-6.6-16-6.6C597.3,380.5,592,382.6,588,387z"/>
	<path class="st19" d="M678.3,362.7v49c0,5.6,1.3,9.9,3.8,12.8c2.5,3,6.2,4.4,11,4.4s8.5-1.5,11-4.4c2.5-3,3.8-7.2,3.8-12.8v-49
		h20.5v49c0,8-1.6,14.7-4.7,20.2c-3.1,5.5-7.4,9.6-12.8,12.4s-11.5,4.1-18.3,4.1c-6.8,0-12.8-1.4-18-4.1c-5.2-2.7-9.3-6.8-12.2-12.4
		c-3-5.5-4.4-12.3-4.4-20.3v-49H678.3z"/>
	<path class="st19" d="M803,362.7V379h-23v68.5h-20.6V379h-22.8v-16.3H803z"/>
</g>
<path id="Shadow" class="st20" d="M267.4,516.7c-6.8-1.6-10.2,21.2,10.3,38.5c12.4,10.4,39.3,22.2,60.8,20.8
	c41-10.7,77.2-10.9,77.2-10.9c25,2,52.3,0.7,51.2-19.3c51.8-9.3,29-7.2,81.4-2.1c41.5,4,56.2-18.3,45.6-30.4
	c-4.5-5.1,51-10.6,68.6-14.5c17.5-4,39.9-9.6,5-29.3c-29.1-16.5-41.2-15.2-67.6-11.4c-5.2,0.8-11.3,1.8-18.7,3.1
	c-34,6-63.1-1.3-67.8,14.7c-66.9-19.2-105.9-15-100.3,16.4C317.1,511.1,267.4,516.7,267.4,516.7z"/>
<g id="Athlete">
	<path class="st21" d="M439.8,262.6c-15.2-11.5-23-37.2-19.5-38.9c24-11.8,72.4-15.9,95.3-8.7c15.6,4.9,22,8.4,20.7,22.9l-1.2,21.7
		L525,273.8l-3,18.2l-14.8,33.8l-7.9,3.5l-43.1-11.4l7.5-22.2l-5-19.4L439.8,262.6z"/>
	<path class="st22" d="M571.5,218.1c17.4,15.3,21.2,26.4,11.4,33.1c-23.7,6.1-42.7-2.6-57.1-26.3C537.6,209.3,552.9,207,571.5,218.1
		z"/>
	<path class="st23" d="M552.7,226.9c5-12,1.1-22.9-6.1-33.1c-13.9-4.9-24.9-3.2-34.6,13.4C514.2,220.7,539.6,226.2,552.7,226.9z"/>
	<path class="st24" d="M552.1,222.2c1.5,3,2.3,4.5,2.3,4.5c-8.6,4.4-19.4-1.4-32.2-17.2C533.5,220,543.4,224.2,552.1,222.2z"/>
	<path class="st25" d="M425.7,214c45.5,8.3,76.4,6.6,92.9-5.2c-7.7-3.3,7.5-5.2,3.5-7.9c-2.7-1.8-25.2-10.3-26.7-11.6
		c-2.9-2.7-1.5-12.6-1.5-12.6c-13.9,4-33-11-39.4-16.1c-1.1,7.4,1.8,26.7-1.7,30.1c-3.7,3.5-18,9.6-21.6,12.2
		C422.4,209.5,425.7,214,425.7,214z"/>
	<path class="st26" d="M644.7,125.4c28.9,1.7,51,28.7,51,62.5c0,27.7-15.5,52.4-37.1,60.9c-2.2,0.9-19.5,3.1-21.5,3.1
		c-30.3,0-51.3-29.1-51.3-64c0-29,14.7-54,37.8-61.4C630.5,126,638.3,125.9,644.7,125.4z"/>
	<path class="st27" d="M632.4,120.2c31.9,1.9,56.4,31.8,56.4,69.1c0,30.6-17.1,57.9-41,67.3c-2.4,1-21.5,3.5-23.8,3.5
		c-33.6,0-56.7-32.2-56.7-70.8c0-32,16.2-59.6,41.8-67.9C616.7,120.9,625.3,120.7,632.4,120.2z"/>
	<path class="st28" d="M621.3,118.1c33.4,2,58.9,33.2,58.9,72.2c0,32-17.9,60.5-42.9,70.4c-2.5,1-22.5,3.6-24.9,3.6
		c-35.1,0-59.3-33.7-59.3-74c0-33.5,17-62.4,43.7-71C604.9,118.8,613.8,118.6,621.3,118.1z"/>
	<ellipse class="st29" cx="605.4" cy="191.7" rx="63.5" ry="73"/>
	<ellipse class="st30" cx="605.4" cy="191.7" rx="55.6" ry="63.9"/>
	<path class="st31" d="M514.5,205.8c-10.5-1.9-19.6-3.9-27.1-3.7c-2.1,0.1,0.7,2.6-2.1,3.8c-2.7,1.2-7.1-3.5-8.6-3.4
		c-16.4,0.9-29.7,7.3-51,11.5c2.5,6.2,6.5,3.1,7.5,9c2.8,15.4,17.3,30.3,28.2,31.1c52.1-11.4,62.4-13.1,72.8-7.7
		c4.9-1.4,5.2-9.3,5.7-12.6C528.5,207.9,514.5,205.8,514.5,205.8L514.5,205.8z M483,218.4c9.2-4.5,17.7-6,25.8-4.3
		C502.1,215.7,493.5,217.1,483,218.4L483,218.4z M485.8,225.9c9.2-4.5,17.7-6,25.8-4.3C504.9,223.2,496.3,224.6,485.8,225.9z"/>
	<path class="st31" d="M518.9,306.5c7.4-13,9.8-39.9,8.5-54.3c-2-0.7-4.1-1.1-6.3-1.3c-7.4-0.6-5.4,0-5.6,6.2
		c-0.3,8.7-1.9,17.9,7.3,11c-2.4,2.8-5.1,4.6-8.1,5.4c-1.6,10.4-5.2,22.8,5.9,15.9c-7.2,7.6-8.3,4-12.7,15c0.7-2.7-0.1-6.4,0.5-9.3
		c-3.1-0.5-6.1-2.6-9-6.3c10.5,7.1,11-2.7,11.5-14.8c-3.1,0-6.6-1-10.2-3c12.2,1.1,12.3-2.7,10.1-13.2c-1.7-8-2.4-6.2-10.9-2.7
		c-3.4,1.4-6.9,3.1-10.6,5.1c1.1,12.5-0.3,35.7-6.1,45.5c-4.5,10.4-7.1,18.4-7.6,23.8c15.8,6.6,27.6,7.1,35.5,1.5
		C516.6,312.5,519.2,304.3,518.9,306.5z"/>
	<path class="st32" d="M521.1,509.8c3.3,0.8,4.9-1,4.8-5.5C521,502.3,519.4,504.1,521.1,509.8z"/>
	<path class="st33" d="M544.6,386.6c-22.1,16.2-33.2,24.3-33.2,24.3c-23.2,5.7,0.5,12.2,22.8-2.8c16.7-11.2,23.1-21.3,20.2-23.8
		C553.1,383.3,549.7,384.7,544.6,386.6z"/>
	<path class="st21" d="M538.6,503.4c-2.8-1.2-3.8,1.4-6.4,4.3c-1.4,1.5-5.3,5.4-3.8,5.3c-5.4,5.6-7.5,1.4-4.1-8.5
		c2.3-5.6-4.7-25.8-6.7-37.9c-3.5-21.8,2-30.7,19.3-44.4c3-2.4-25.6-13.1-29.8-38.8c4.7,5.2,50.4,38.3,47.6,43.3
		c-3.7,6.6-9.5,29.8-14.4,46.5C537.3,482.9,535.1,494.5,538.6,503.4z"/>
	<path class="st31" d="M506.1,333.5c-7.4,0.1-13.7,1.4-19,4c15.8,42.2,38.1,70.2,56.7,77.6c3.3,8.8,4.7,14,10.8,11.6
		c3.2-3-0.2-10.2,0.1-18.3c0.3-9.9-4.5-24.8-11.2-37C527.9,343,522.8,343.8,506.1,333.5z"/>
	<path class="st33" d="M416.2,391.8c-3.5,1.4-3.1,3.3,0.8,5.6c44.3,25.8,60.5,29.7,48.5,11.8c-4.1-2.2-6.9-8.9-10.5-10.7
		C432,386.7,418.4,387.5,416.2,391.8z"/>
	<path class="st32" d="M396.9,523.6c3.3,0.8,4.9-1,4.8-5.5C396.7,516.1,395.1,517.9,396.9,523.6z"/>
	<path class="st34" d="M401.7,518.2c3.6,1,5.5,1.5,5.5,1.5c-0.9,5.9-3.9,7.7-8.9,5.2C398.4,521.7,399.6,519.5,401.7,518.2z"/>
	<path class="st21" d="M413.3,514.5c-3.5-3.4-2,9.3-11.3,8.2c-3.3-3.9-0.2-5.5-0.3-9.5c-0.4-14.9-0.9-39.1-0.5-45
		c1.5-20.6,7.5-28.3,22.6-34.4c3.5-1.4-2.6-35.6-0.6-50.7c1-7.7,8.8-1.1,11.3-1.8c2.7,5.7,26.5,3,28.5,21.3
		c1.2,10.8-18.1,45.9-19.2,48.6c-4.3,10.4-13.9,20.1-21.8,33.3C416.8,493.2,411.9,504,413.3,514.5z"/>
	<path class="st31" d="M457,409.3c0.4,12.2-1.3,16.5-8.8,23.7c-0.6,11.7-8.4,13.9-12.2,9.3c-1.8-2.3-3.2-6.1-2.4-11.7
		c-4-9.2-3.3-18.3-4-31.3C429.1,389.6,451.3,401.6,457,409.3z"/>
	<path class="st35" d="M490.3,179.6c-1.1,3.5-1.7,5.3-1.7,5.3c-1.2,26.9-8.3,25.2-21.4-5.1C481.5,181.3,489.2,181.2,490.3,179.6z"/>
	<path class="st36" d="M455,166.5c19.6,3.6,35.1,0.3,43.6,6.7C481.1,199,471.2,189,455,166.5z"/>
	<path class="st37" d="M451.5,159.7c14.8-29.2,25.5-17.3,42.8-12.8c1.6-4.7,5-31.9,4.5-33.9c-7.6-29.9-44.8-22.6-58.7-5.6
		c-6.5,8-2.1,25.7,3.1,34.6C448.8,151.6,447.3,157.9,451.5,159.7z"/>
	<path class="st31" d="M451.3,145.6c-1,6.5-4.5,12.7,1.4,18.7c9.2,9.2,18.2,21,44.7,10.7c9.5-3.7,1.4-10.8-0.3-21.2
		c-0.1-0.8,1.1-8.2,1-10.5c-0.1-3.1-3.9-6.8-3.8-8s0.8-1.3,2-2.8c2.9-4.5,2.9-5.4-1.1-9.4c0.5-7.7,0.1-10.8-3.8-13
		c-9.8-3.6-19.8-3.2-27.2,0.2c-7.3,3.4-4.2,7.4-6.1,13.3c-0.6,1.7-1.6,3.7-3.4,6C451.7,133.4,453.1,139.4,451.3,145.6z"/>
	<path class="st38" d="M465.9,111.1c1.4-1.5,3-1.3,3.6-1.3c1,3.1,2.8,5.9,6.5,10.2C471.9,118.5,468.6,115.5,465.9,111.1z"/>
	<path class="st24" d="M422.8,388.7c0.3-3.7,0.4-5.5,0.4-5.5c1.4,10.1,2.9,31.2,3.7,45.2c0.2,3.7,1.8,7.6,1.6,9.9
		c-0.2,2.3-0.4,5.3-1.8,7.1c0.3-1.7,1-3.3,0.1-6.2C424.2,433.6,422.9,416.8,422.8,388.7z"/>
	<path class="st24" d="M515,401.4c0.2-2.7,1.2-3.8,3-3.3c6.5,11.6,24.3,21.2,19.9,29.9C538.7,423.2,526,415.3,515,401.4z"/>
	<path class="st39" d="M413.8,394.3c0.9-2.2,3.4-2.1,5.9-2c21.7,0.2,47.2,13.6,49.6,26.1c6.5-14.3,13.7-29.8,16.4-47.7
		c10.3,1.9,17.6,38.2,16.2,44.7c21.2-5.8,24.8-15.7,36.9-23.8c4-2.7,13.5-9.2,15.6-7.2c-7.7-21.6-41.6-52-32.7-56
		c-0.3-2.7-1.3-3.7-3.1-2.8c0.8-3.9,1.7-9.5,2.2-16.7c-16,4.4-37.8,2.2-60.7-7.5c-2.9,1.5-4.6,3.1-6.9,5.2
		c-10.8,9.8-11.7,13.2-13.3,22.6c-3.4,1.4-4.4,5.2-1.7,6.2C416.9,362.7,422.9,363.3,413.8,394.3z"/>
	<path class="st40" d="M516.7,205.5c0.4-0.3,8.3,9.8,21.1,16c8.6,4.2,16.7,2.7,17,2.4c1.1-1,0.5-11.2-7.7-11.4
		c-6.8-0.2-13.3-5.5-17.6-10.2c-3.2-3.4,4.7-7,4.4-7.4c-8.5-4.7-14.1,3.6-15.9,4.1c-5.4,1.6-14.8,1-27.6,1.5
		C509.4,204.1,516.7,205.5,516.7,205.5z"/>
	<path class="st41" d="M563.8,267.1c-11.5-1.9-11.7-21.1-11.5-32.4c0.1-10.9-0.5-14.1-4.3-23c-0.9-2.1-9.5-4.3-10.3-6.8
		c6-6.9,15.1-10.5,15.1-10.5c2.7,2.7,11,3.6,11.9,9.8c1.6,11.5,29.4,20.4,26.7,36.9c-0.4,9.4-5.1,17-5,20c-0.9,5.9-4.7,8.7-8.7,8.2
		C573,265,569.2,268,563.8,267.1z"/>
	<path class="st21" d="M436.2,211.7c10.2-5.2,9-4.1,9-4.1c-0.5,11.9,5.2,24.3,19,32.9c37.3-9.6,61.6-12,72.9-5.3
		c-0.4,2.7-0.1,5-2.7,7.8c-11.4-5.8-39.4-0.4-74,8.1C448.5,246.9,422.6,218.6,436.2,211.7z"/>
	<path class="st31" d="M471.5,278.9c1.6,7.3,4.9,16.7,11.3,18.3c1.4-3.8,5.5-16.7,1.5-25.8C481.3,269.1,474.6,273.3,471.5,278.9z"/>
	<path class="st42" d="M460.7,136.6c-0.4,3.1,3.5,7.8,9,6.6c3.2-0.7,5.7-3.5,8-5.4c-5.1-11.7-18.8-11.3-20.5-5.4
		C457.1,132.7,458.6,134.8,460.7,136.6z"/>
	<path class="st43" d="M495.4,137.2c-7.5-2-10.7-3.3-9.5,0.8c1.2,3.9,5.3,6.4,3.3,10.3c2.5,2,2.2,9.7,0.3,10.7
		c4.9,1.1,7.9,3,0.8,3.3c-4.5,0.2-9,3.9-12.6-0.2c-2.7,5.3-0.6,8.8,4.1,10.8c-3.1-3.5,2.9-6.5,7.8-7.3c4.5-0.7,9.2,2.7,3.9,7.1
		c1.1,0.1,1.2,0.5,2,0.3c2.6-0.5,4.8-2.7,5-5.4c-2.3-5.2-3.9-10.7-4.1-14.4C495.9,146.4,498,142.6,495.4,137.2z"/>
	<path class="st44" d="M493.5,159.1c-0.7,0,2,2.5,0.6,3.2c-3.6,1.8-9.6,1.5-12.3,0.9c-3.9-0.8-3.9-2.6-3.9-2.6
		C477.7,159.3,493.5,158.9,493.5,159.1z"/>
	<path class="st45" d="M495.3,136.4c-0.2,2.2-0.2,4.5-1.7,4.7c-1.9,0.2-6.1-0.8-7.7-3.7c1.7-6.5,9.3-8.7,12.2-7.7
		C497.2,132.2,496.6,134.5,495.3,136.4z"/>
	<path class="st46" d="M485.8,164.9c1.3,0.7,5.4,0.5,6.3-0.8C489.7,163.2,487.8,163.2,485.8,164.9z"/>
	<path class="st21" d="M454.6,161.5c3.8,6.7,11.7,14.3,21.4,14.6c-8.5-1.7-19.4-16.3-17.4-23.9c4.7,1,6.3,1.2,10.6,6.4
		c-0.4-3.8-3.2-8.9-7.6-10.4c-4-1.4-5.6-7.3-5.5-7.4C452.3,150.5,451.8,157.4,454.6,161.5z"/>
	<path class="st47" d="M475.3,137.8c-5.4,3.7-10.3,1.4-14.1-1.5c4.6-3.3,4.6-3.8,10-4.2C474.6,133.9,475.3,135.9,475.3,137.8z"/>
	<path class="st48" d="M481.3,131.1c-2.2,1.1-3.4,1-3.6-0.2c1.6-2.1,2.4-5.4,2.2-9.9C481.3,123.9,481.8,127.2,481.3,131.1
		L481.3,131.1z M485.1,134.4c1.2-1.3,1.8-2,1.8-2c-1.4-3.6-1.9-7.5-1.4-11.8C483.8,123.1,483.7,127.6,485.1,134.4z"/>
	<path class="st37" d="M481.4,130c-4-1.9-8-3-10.8-3.9l-0.4,0.1c-1.3,0.3-2.6,0.8-4.1,1.3c4.2,1.9,8.5,5.5,11.6,7.6
		C480.7,135.8,481.3,132.3,481.4,130L481.4,130z M469.4,125.6c-1.3,0.4-2.7,0.8-4.1,1.4c-2.3-0.9-4.5-1.3-6.4-0.7
		c2.1-1.6,5.4-2.5,7.7-2.4C466.5,124.5,467.6,125,469.4,125.6z"/>
	<path class="st24" d="M410.8,503.1c0.6-12.7,9.1-30.3,22.6-45.2C424.9,467,415.4,496.6,410.8,503.1z"/>
	<path class="st22" d="M485.1,175.7c4.8-1.1,8.5-2,10.9-2.9C492.2,168.2,488.6,169.2,485.1,175.7z"/>
	<path class="st49" d="M483,110.9c-4.8-0.8-8.4-2.4-11.8-2.2c-10.6,0.7-16.2,7.4-21.7,16.7c-3.6,6-8.3,14.3-10.2,7.8
		c-0.6-2-0.3-2.6-1.2-4.2c-1.6-3.1-2.6-1.6-3.4-4.7c-1.2-5.2-0.8-15.1,4.3-20.6c5.9-6.2,10.1-10.6,18.8-13.1
		c23-6.5,52.4,1.1,40.5,28.6c-1.3-4.4-2.7-7.6-5.2-9C490.7,108.7,487,109.1,483,110.9z"/>
	<path class="st50" d="M475.2,85c10.1,6.7,12.7,15.3,7.9,25.9C493.5,95.1,490.9,86.5,475.2,85z"/>
	<path class="st50" d="M486.2,108.6c8.1-10.7,10-17.6,5.6-20.8C503.7,96.2,499,104.2,486.2,108.6z"/>
	<path class="st51" d="M442.2,100.8c11.6-8.5,26-8.5,38.8,5.1C459.8,74.6,442.1,100.8,442.2,100.8z"/>
	<path class="st51" d="M475.3,108.2c-18.7-1.6-31.1,5.5-37.1,21.3C423.4,116.7,457.5,98.5,475.3,108.2z"/>
	<path class="st52" d="M431.3,119.2c1.5-14.8,11.7-21.2,30.4-19.3C446.3,100.7,436.1,107.1,431.3,119.2z"/>
	<path class="st52" d="M480,107c-5.8-3.1-10.9-5-10.8-4.2c0.1,0.5,3.2,1.8,7.3,5.4c-4.4-2.6-8.7-4.9-13.2-6.4
		c4.5-1.9,9.7,0.6,10-0.1s-4.2-3.3-5.3-4.1C474.7,100.6,478.7,103.8,480,107z"/>
	<path class="st24" d="M466.4,237.8c2.6,0,4.6-1,4.6-2.3s-2.1-2.3-4.6-2.3c-2.6,0-4.6,1-4.6,2.3S463.9,237.8,466.4,237.8z"/>
	<path class="st52" d="M483.1,102.8c-2.5-3.5-5-6-5.3-5.4c-0.2,0.3,1.3,2,2.5,5.5c-1.8-2.8-3.7-5.4-6-7.5c3.8-0.4,6.1,2.6,6.6,2.1
		s-1.4-3.3-1.8-4.1C482.2,97.1,483.5,100.2,483.1,102.8z"/>
	<path class="st53" d="M488,98.7c-1-3.2-2.3-5.7-2.6-5.3c-0.2,0.2,0.5,1.8,0.6,4.7c-0.6-2.5-1.5-4.9-2.7-7.1c2.9,0.6,4,3.4,4.5,3.2
		c0.5-0.2-0.2-2.8-0.3-3.5C488.7,94.2,488.9,96.9,488,98.7z"/>
	<path class="st54" d="M493.5,103.7c1.2-3.2,1.7-5.9,1.2-5.8c-0.3,0-0.7,1.7-2.5,4.1c1.1-2.4,1.9-4.8,2.3-7.2c1.9,2.3,1,5.1,1.5,5.3
		c0.5,0.1,1.5-2.3,1.9-2.9C496.9,100.6,495.4,102.8,493.5,103.7z"/>
	<path class="st55" d="M488.6,142.9c0.3-2.1,3,3,2.9,3.7c-0.1,1-1.5,1.4-1.6,1.7c-1.5,3.9-2.9,3.7-6.3,0.4c-3,0.5-4.4-1.2-4.7-2
		c-0.1-0.8-0.2-2.1,0.3-3c-1,0.7-2.2,1.9-3.5,3.5c1.7-5.3,4-5.4,7.4-4.2c-3-0.7-4,0.8-3,3.4c4.5-1,6,1.3,8.3,1.1
		c0.4,0,0.8-0.6,1-0.9C489.6,146.2,490.2,144.8,488.6,142.9z"/>
	<path class="st56" d="M474.3,135c-2.2-0.2-4.4-0.3-6.7-0.1c0,0.2,0,0.3,0,0.5c0,1.9,1.5,3.4,3.4,3.4s3.4-1.5,3.4-3.4
		C474.4,135.3,474.4,135.2,474.3,135z"/>
	<path class="st57" d="M475.1,134.7c-0.7-1.2-1.5-2-3.2-2.9c-6.2,0.2-8.8,3.3-10.9,4.4c2.1-0.4,6-1.7,8-1.8
		C470.8,134.3,473.3,134.5,475.1,134.7z"/>
	<path class="st58" d="M487.6,146c0.3,0,0.6-0.2,0.6-0.4s-0.3-0.4-0.6-0.4c-0.3,0-0.6,0.2-0.6,0.4C486.9,145.8,487.2,146,487.6,146z
		"/>
	<path class="st55" d="M478.2,153.4c-0.4,0.3-4.6,5.2-4.2,7.9C469.3,158.6,475.2,154.1,478.2,153.4z"/>
	<path class="st55" d="M491.6,152c0.3,0.4,3.4,5.3,2.4,7.7C499.3,158.6,494.5,153.6,491.6,152z"/>
	<path class="st59" d="M474,158.8c3-2.7,6.1-4.6,8.9-5.7c1.7-0.7,3.2,0.7,4.6,0.7c1.1,0,2.3-1.5,3.2-1.1c1.6,0.7,3.2,2.3,3.6,4.4
		C488.9,155.1,482.6,155.8,474,158.8z"/>
	<path class="st24" d="M533.1,226.4c-1.6,0-2.9,0.9-2.9,2.1c0,1.1,1.3,2.1,2.9,2.1c1.6,0,2.9-0.9,2.9-2.1
		C536,227.4,534.7,226.4,533.1,226.4z"/>
	<path class="st60" d="M461,136.5c-0.5,3.5,7.6,6.4,14.5,1.9C469.3,142.2,462.5,139.2,461,136.5z"/>
	<path class="st61" d="M473,135.3c-1-0.1-2.1-0.1-3.2,0c0,0.1,0,0.2,0,0.3c0,0.9,0.7,1.6,1.6,1.6s1.6-0.7,1.6-1.6
		C473,135.5,473,135.4,473,135.3z"/>
	<path class="st62" d="M476.7,135.8c-2.5-0.5-5.1-0.6-7.8-0.5c-2.7,0.1-5.6,0.4-8.5,1.1C463.6,134.2,474.9,132.6,476.7,135.8z"/>
	<path class="st51" d="M482.8,110.9c17.9-6.3,21.4-13.6,10.5-21.7C502.6,97,499.1,104.3,482.8,110.9z"/>
	<path class="st21" d="M489.2,210.2c17.7,13.8,22.9,23.2,15.6,28.3C502.8,229.5,497.6,220.1,489.2,210.2z"/>
	<path class="st63" d="M469.6,135.6c0.6-0.1,1.1,0.1,1.1,0.4c0,0.3-0.4,0.7-0.9,0.7c-0.6,0.1-1.1-0.1-1.1-0.4
		C468.6,136,469,135.7,469.6,135.6z"/>
	<path class="st64" d="M484.8,160.9c0.6,0.1,1,0.4,1,0.6c0,0.2-0.5,0.2-1,0.1c-0.6-0.1-1-0.4-1-0.6
		C483.8,160.8,484.3,160.8,484.8,160.9z"/>
	<path class="st55" d="M486.6,134.9c-0.5,0.8-0.7,1.7-0.6,2.6c0.1,1.9,1.5,3.5,2.6,5c1.5-2.5,4.4,4.6,4.5,5.3
		c-1.3-1.8-2.9-4.7-4.2-4.9c0.7,0.9,1.2,1.7,1.3,2.5c0,0.9-1.1,2.6-2.2,2.3c0.8-0.5,1.5-1.2,1.5-2.3c0-2.6-3.7-3.8-5.8-2.4
		c1.1-1.2,2.3-1.7,3.4-1.3c-0.8-1.1-1.3-2.4-1.4-4.2c-0.1-1,0.2-1.9,0.7-2.8L486.6,134.9z"/>
	<path class="st37" d="M484.7,130.3c4.9-2.5,11.1-4.7,11.5-5.7c1.7-0.2,2.5,1.3,2.3,3.5c-0.6-4.8-8.4,4.6-11.8,7.4
		C484.7,136,484.7,132.8,484.7,130.3z"/>
	<path class="st52" d="M436,107.7c1.3-5,3.3-9,5.8-11.9s5.4-4.8,8.7-5.8c3.3-0.9,6.9-0.9,10.6,0c4.7,1.2,12.2,4.8,14.7,9.2
		c-5.5-3.4-8-6.6-15-8.3c-3.6-0.9-7-0.9-10.2,0c-3.1,0.9-6,2.7-8.3,5.5c-2.4,2.8-4.4,6.7-5.6,11.6L436,107.7z"/>
	<path class="st52" d="M467.6,89c-0.1,0.1-0.3,0.1-0.4,0s-0.1-0.3,0-0.4c1.2-1,2.3-1.7,3.5-2.2c1.9-0.7,3.8-0.8,5.6-0.2
		c1.8,0.6,3.4,1.7,4.8,3.4c1.3,1.5,2.5,3.5,3.3,5.7c0.1,0.1,0,0.3-0.2,0.3c-0.1,0.1-0.3,0-0.3-0.2c-0.8-2.2-2-4.1-3.2-5.6
		c-1.4-1.6-2.9-2.7-4.6-3.2s-3.4-0.5-5.2,0.2C469.8,87.3,468.7,88,467.6,89z"/>
	<path class="st65" d="M444.5,350.9c-10.8,10.8,10.2,25.6-18.4,34.7c20.3,1.3,26.2,5.4,30.1,11.1c5.6-14,1.6-31.3,11.4-28.5
		C462.5,358.9,453.8,354.3,444.5,350.9L444.5,350.9z M468.3,365.7c-3.2-7-10.2-13.7-20.9-20C447.2,339.2,466.5,349.6,468.3,365.7z"
		/>
	<path class="st65" d="M469,346.7c-8.3-5.7-13.4-10-15.5-12.7c-1.3-1.7-1.6-3.1-1.1-4.4c0.6-1.6,2.2-2.5,4.7-2.5
		c1.3,0,3.8,1,6.8,2.2c11.2,4.6,8.4-2.4,3.2-6.8c-4.5-3.8-4.4-12.6,12.5-4.8c-17.9-1.9-5.6,7.2-2.9,12.2c0.6,1.2,0.9,2.2,0.7,3.1
		l0,0c-0.3,1.6-1.5,2.5-3.4,2.7c-1.2,0.1-2.7-0.2-4.7-0.8l0,0C453.8,330.1,462.1,339.2,469,346.7z"/>
	<path class="st24" d="M460.7,300.3c2.4-0.3,5.4-1.8,5.4-1.8c-2.4-4-4.1-10.7-4.9-24.3c-16.7-9.1-29.1-23.3-31.5-33.2
		c-0.9-0.9-4.3-3.4-8-4.7c4.4,19.1,19.2,30.1,36.8,40.2C458,286.2,458.7,294.2,460.7,300.3z"/>
	<path class="st24" d="M527.7,257.5c3.7,19.2-3.2,43-8.8,53.7c-0.9-1-1.3-1.5-1.3-1.5C524.2,296.7,526.8,276.1,527.7,257.5z"/>
	<path class="st65" d="M537.3,374c-9.3,4.6-15.4,10.1-18.2,16.4c-7.9-20.3-8.2-34.6-1.1-43C527.6,357.7,534,366.6,537.3,374
		L537.3,374z M514.8,331.7c4.1-2.9,4.4-4,1-3.2C505.9,337.3,505.5,338.4,514.8,331.7L514.8,331.7z M516.6,332.5
		c-6.1,9.7-9.4,16.7-9.6,21c4.3-6.2,7.9-10.6,10.7-13.1C517.2,337.8,516.8,335.2,516.6,332.5z"/>
	<path class="st66" d="M485.7,258.8c-9,1.1-19.1,8.4-27.4,7.7C468.2,278.1,478.3,267.3,485.7,258.8z"/>
	<path class="st67" d="M453.2,136.6c-0.8,6.8-2,9.8-2,9.8c-1,1.8-2.6,2.7-4.3,1.9c-1.4-0.7-2.2-2.4-1.3-5.4
		C432.1,124.5,453.7,127.4,453.2,136.6z"/>
	<path class="st22" d="M475.1,201.1c-14,1.4-23.6-1.4-34.7-3c0.9,12.1-14.1,16.2-29.8,17.6c9.1,3.4,18.6,9.5,21.9,4.8
		C440.4,209.5,451.9,205.2,475.1,201.1z"/>
	<path class="st68" d="M506.2,406.6c4.8-23.8-14.5-33.7-20.5-35.9c-0.5-10.1-9.1-18.1-7.6-24.4c1.3,9.3,18.4,6.4,23,5.7
		c-1.9,5.4-3.2,16.8-2.6,19C512.1,377.5,526.8,399.7,506.2,406.6z"/>
	<path class="st69" d="M440.2,197.8c11.7-1.9,17.5-4,16.8-7.6c-1.8-16.2-2.7-24.3-2.7-24.3c0.7,7.7,1.4,18.4-1.6,23.9
		c-1,1.8-6.9,4.6-8.5,5.7C441.8,197.2,443.3,196.8,440.2,197.8z"/>
	<path class="st70" d="M452,162.7c13.7,18.5,29.2,22.6,48.2,10.7C480.5,183,464.9,179,452,162.7z"/>
	<path class="st71" d="M483.4,148c0.3-0.2,1.1-0.1,2.3,0.2c-0.5-1-2.6-1.8-4.9-1.1C481.3,148,482.2,148.3,483.4,148z"/>
	<path class="st71" d="M489.9,147.8c-0.1-0.2-0.4,0-1,0.4c0.2-1,1.1-2.1,2-1.6C490.7,147.5,490.4,147.8,489.9,147.8z"/>
	<path class="st38" d="M494.6,113.1c-0.7-1.9-1.8-2.5-3-3.1c0.1,3.1-0.6,5.8-2.8,10.4C492.3,118.5,493.6,117.8,494.6,113.1z"/>
	<path class="st69" d="M517.8,199.2c-8.7-5.3-14.7-5.3-19.4-8.5c-3.2-2.2-4.5-5.2-4.8-10c-0.8,5.6-0.1,9.4,4.9,12.4
		C502.7,195.7,510.1,195.5,517.8,199.2z"/>
	<path class="st66" d="M477.8,250.6c-14.5,3.1-15.8,6.3-27.1-0.1c1.3,4.1,5.3,9.6,8.8,9.9C465,260.7,472.5,254.9,477.8,250.6z"/>
	<path class="st66" d="M526,243.7c4.2,0.9,7.3,1.8,9.9,2.5l-0.2,4.5C532.2,248.7,528.8,245.9,526,243.7z"/>
	<path class="st66" d="M527.4,270.5c9.4-9.6,11-24.3-8.1-22c6.8-0.7,7.8,0.8,8.3,4.5C528,257.2,527.5,264.2,527.4,270.5z"/>
	<path class="st24" d="M519.1,207.6c10.5,7.4,30.7,27.1,17.5,40.5c1,12.3-3,16.7-9.2,22.4c1.3-2-1.9-4.8,1.2-6.4
		c7.4-4,6.4-16.7,5.7-17.5C542.1,237.2,537.9,223.9,519.1,207.6z"/>
	<path class="st24" d="M518.9,311.1c-0.9-1-1.3-1.5-1.3-1.5c6.5-12.9,9.1-33.5,10.1-52.2C531.4,276.6,524.5,300.5,518.9,311.1z"/>
	<path class="st24" d="M509.9,295.9c0.8,3.2,0.1,5.6-1.9,6.9C508,299.5,508.6,297.1,509.9,295.9z"/>
	<path class="st39" d="M523.2,303.2c-2.7,8.2-2.1,14.5-2.1,14.5c-23.6,14.7-30.9-6.7-67.9-11.1c0,0,4.2-3.4,4.4-12.2
		C488.2,297.6,502.6,318.7,523.2,303.2z"/>
	<path class="st68" d="M524.1,303.5c-2.6,8-2,14.1-2,14.1c0,0.4-0.1,0.7-0.4,0.9c-14.3,8.9-22.7,5-34.9-0.6
		c-8.3-3.9-18.5-8.5-33.6-10.4c-0.5-0.1-0.9-0.5-0.8-1c0-0.3,0.2-0.5,0.4-0.7c0.5-0.4,3.8-3.7,4-11.4c0-0.5,0.4-0.9,1-0.9h0.1
		c12,1.2,21.4,5.2,29.8,8.7c12.9,5.4,22.9,9.6,35.2,0.4c0.4-0.3,1-0.2,1.3,0.2C524.2,302.9,524.2,303.2,524.1,303.5L524.1,303.5z
		 M520.2,317.2c0-2.1-4.6-3-3.6-7.7c0.1-0.6,4.8-3.3,4.9-3.9c-12.1,7.8-22.1,3.6-34.8-1.7c-8-3.3-17-7.1-28.3-8.4
		c-0.3,5.4-2.1,8.7-3.4,10.4c14.5,2,24.3,6.5,32.4,10.3C499,321.5,507,325.2,520.2,317.2z"/>
	<path class="st68" d="M468.7,298.2c-7.4-2.6-11.1-3.9-11.1-3.9c-0.1,5.1-1.5,9.1-4.2,12c3.9-1.2,10-0.5,18.5,2
		C472.4,303.9,471.3,300.5,468.7,298.2z"/>
	<path class="st66" d="M486.2,204.8c-0.1-2.4,0.8-3.3,2.8-2.7c-0.7,7-4.2,7.4-10.6,1.1C482.9,206.5,485.5,207,486.2,204.8z"/>
	<path class="st21" d="M586.6,239.1c-1.9,6.4-2.1,11-2.3,17.6c-8.3-24-18.4-34.9-23.2-42.1C575.1,231,583.6,239.1,586.6,239.1z"/>
	<path class="st22" d="M578.3,267.4c4.6-0.3,6.9-4.1,6-8.4c-8-3.7-17.1-21.4-26.5-44.9c-3.5,0.4-10.4-3.7-10.4-3.7
		c8.8,15.9,4.1,55.3,24.3,51.4C575.9,263.3,578.4,266.1,578.3,267.4z"/>
	<path class="st57" d="M579.2,222.3c2.1,1.7,3.2,3.8,2.4,4.7c-0.7,0.9-3,0.2-5.1-1.5s-3.2-3.8-2.4-4.7
		C574.8,220,577.1,220.7,579.2,222.3z"/>
	<path class="st69" d="M498.7,128.2c-0.4,1.7-0.9,3.3-1.5,4.7c-0.5,1.3-1.1,2.5-1.7,3.5c1.7,2.4,2.7,4.8,2.9,7.1
		c0.1,1.2,0,2.3-0.3,3.5c-0.5,2.9-0.7,5.5-0.4,7.8c0.3,2.6,1,5,2.2,7l0,0c0.8,1.7,1.4,3.2,1.8,4.6c0.4,1.4,0.7,3.2,0.2,4.3
		c0.2-1.8-0.3-2.8-0.7-4.2c-0.4-1.4-0.9-2.9-1.7-4.5c-1.2-2.1-2-4.5-2.2-7.2c-0.2-1.7-0.1-3.4,0.1-5.3c-0.2,0-0.5,0.1-1.2,1
		c0.4-2.2,1.3-2.7,1.8-4.8c0.1-0.7,0.1-1.5,0.1-2.2c-0.2-2.3-1.4-4.4-3.1-6.7l0.1-0.4l0.1-0.2c0.6-1,1.2-2.2,1.7-3.6
		c0.5-1.4,1-2.9,1.5-4.6L498.7,128.2z"/>
	<path class="st47" d="M495.4,137.6c-0.5,1.8-7,2.7-9.6-0.2c1.3-1.2,3.1-4,6.7-4.3C494.3,134.1,495.4,135.6,495.4,137.6z"/>
	<path class="st56" d="M489,135.8c0.3,1.5,1.4,2.6,2.8,2.6c1.2,0,2.2-0.8,2.6-2c0.2-0.6,0.1-0.8,0.1-1.2c-0.1,0-0.4,0-0.5,0
		C492.4,135.3,490.7,135.5,489,135.8z"/>
	<path class="st57" d="M492.2,132.4c-2.9,0.3-4.4,2.8-5.6,4.1c1.3-0.5,2.7-0.9,4.1-1.2c1.3-0.3,2.6-0.5,3.8-0.6
		C494.3,133.8,493,132.9,492.2,132.4z"/>
	<path class="st61" d="M490.8,135.6c0.2,1,0.7,1.7,1.4,1.7c0.6,0,1.1-0.6,1.4-1.3c0.1-0.4,0.1-0.5,0.1-0.8c-0.1,0-0.2,0-0.3,0
		C492.6,135.3,491.7,135.4,490.8,135.6z"/>
	<path class="st62" d="M496.4,135.8c-1.6-0.4-3.3-0.5-4.9-0.3c-1.7,0.2-3.6,0.5-5.3,1.3C488,134.5,495.1,132.6,496.4,135.8z"/>
	<path class="st63" d="M490.5,135.5c0.6-0.1,1.1,0.1,1.1,0.4c0,0.3-0.4,0.7-0.9,0.7c-0.6,0.1-1.1-0.1-1.1-0.4
		C489.5,135.9,489.9,135.6,490.5,135.5z"/>
	<path class="st55" d="M456.2,144.1c-0.9,4,1.4,6.1,6.7,6.2C459.2,148.9,457,146.8,456.2,144.1z"/>
	<path class="st68" d="M519.5,320.2c-8.7,5.1-18.6,4.7-30-1c4.2,17.9,8.3,10.9,20,8.8c-6.3,7.8-23.9,5.1-27.6,4.9
		c7,6.5,18.2,7.2,34.2-7.9C518.4,321.8,519.5,320.2,519.5,320.2z"/>
	<path class="st68" d="M439.9,335c-1.9-2.1-0.8-3.9,3.3-5.1c-3.7-5.8,4.8-18.4,12.5-19.3c-9.7,4.9-12.6,19.7-2.6,29.2
		c1.5,2.5-14.1-8.3-11,6.2c-11.1,2.3,8.9,34.5-20.7,35.1C427.1,370.2,430.6,348.9,439.9,335z"/>
	<path class="st24" d="M435.7,451.2c9.2-0.8,14.2-6.4,15.2-16.9C448.7,441.8,443.6,447.4,435.7,451.2z"/>
	<path class="st24" d="M554.9,413.1c4.1,10.9,2.3,16.5-8.3,22.1c4.6-2.8,7.6-7.3,8.6-10.4C556.5,421.1,555.4,418.7,554.9,413.1z"/>
	<path class="st24" d="M409,443.5c-7,8.7-9.7,24.4-8,47.1c0,0.4,0.8,20.5,0.4,24.6c1.6-6.2,1.8-19.2,3-25.8
		C399.4,468.9,405.1,451.4,409,443.5z"/>
	<path class="st72" d="M437.8,439.5c0.8,0.5,1.3,1.2,1.1,1.6c-0.2,0.4-1,0.3-1.9-0.2c-0.8-0.5-1.3-1.2-1.1-1.6
		C436.1,438.9,437,439,437.8,439.5z"/>
	<path class="st72" d="M442.6,440.9c-0.4,0.3-0.5,0.7-0.3,1c0.2,0.2,0.7,0.2,1.1-0.1c0.4-0.3,0.5-0.7,0.3-1
		C443.4,440.6,443,440.6,442.6,440.9z"/>
	<path class="st72" d="M549.8,421.8c0.7,0.5,1.1,1.2,0.8,1.6s-1.1,0.3-1.8-0.2s-1.1-1.2-0.8-1.6C548.2,421.3,549,421.3,549.8,421.8z
		"/>
	<path class="st24" d="M521.5,483.7c-8.4-24.2-6.5-41.9,5.7-53c-8.7,11-12.8,28.4-1.9,51.3c-1,1.1,0.5,18.9-0.5,20
		C524.7,498.1,522,485.7,521.5,483.7z"/>
	<path class="st31" d="M530.2,461.8c2.8-4.1,5.9-14.3,8.6-29.1C540.2,441.4,537.6,450.6,530.2,461.8z"/>
	<path class="st24" d="M534.6,487.3c1.5-8.6,12.5-38.3,13.7-42.5C543.7,457.7,535.3,462.6,534.6,487.3z"/>
	<path class="st31" d="M411.3,465.8c4-2.3,6.7-3.7,12.6-12.8C422.6,461.3,420,462.2,411.3,465.8z"/>
	<path class="st73" d="M406.2,279.3c-1.8,3-2.6,4.6-2.6,4.6c-39.8-11-7-49.5-0.8-68.8c0.4-1.3,15.9-17,19.8-15.8
		c11.2,3.2,14.2,10.3,10.4,22.1C437,243.5,425.5,267.5,406.2,279.3z"/>
	<path class="st24" d="M453.2,269.1c-1,1.8-6.8-1.4-6.8-1.4c-11.8-4.5-11.3-41,8.3-46.5c-4.4,8.2-5.2,19.9-5.9,27.1
		C448.1,255.1,446.9,262.9,453.2,269.1z"/>
	<path class="st41" d="M433,203.9c13.7,4.3,20.6,6.4,20.6,6.4c-8.8,19-13.7,34.6-14.5,46.7c-0.7,16.6-7.5,26.9-23.8,29.8
		c-6.9,1.3-7.6,1.2-9.1,3.4c-4.6,0.1-9.2-1.6-9.7-5.3c-2.5-5.9-2.2-5-3.3-7.8c-0.8-7.6,0.7-15.1,2.2-19.9c-2.5,3.3-5.8,7-6.5,11.1
		c-6.9-27.8,12.1-47.2,23-53.9c7,4.9,3.5,17.8-8.5,26.9c-0.2,0.2-1.6,1.9-2.4,2.8c5.2-2.5,12.2-5.9,17.8-12
		c2.9-3.1,7.9-5.6,9.8-10.1C431.1,216.1,430.4,207.8,433,203.9z"/>
	<path class="st74" d="M390.5,265.7c0,2.9,0.5,7.6,1.4,10.5c5.4,13.8,16.6,2.6,33.7-33.8C414,264.7,395.2,278.6,390.5,265.7z"/>
	<path class="st75" d="M415.2,280.8c13.6-2.1,19.3-12.2,17.2-30.6C428.8,261.4,423.1,271.5,415.2,280.8z"/>
	<path class="st22" d="M437.4,267.8c1.7-12,2.5-18,2.5-18c1-8,5.6-21.2,13.6-39.6c-6.4,18.8-10.3,35.5-11.5,50.2
		c-3.5,17.9-14.1,27-31.8,27.3C424.3,284.2,433.2,280.3,437.4,267.8z"/>
	<path class="st76" d="M397.2,234.1c-6-10.2-6.1-28.4,4.4-36.8c7.1-5.6,22.5-7.3,30.6,2.8C431.9,214,407,219.8,397.2,234.1z"/>
	<ellipse class="st29" cx="605.4" cy="191.7" rx="25.5" ry="29.3"/>
	<ellipse class="st77" cx="605.4" cy="191.7" rx="16.7" ry="19.2"/>
	<path class="st78" d="M605.4,200.5c4.2,0,7.7-4,7.7-8.8s-3.4-8.8-7.7-8.8c-4.2,0-7.7,4-7.7,8.8S601.2,200.5,605.4,200.5z"/>
	<path class="st79" d="M321.8,216.1l283.4-29.8c4.3,0.2,5.2,8.1,1,9.5L323,225.6L321.8,216.1z"/>
	<path class="st69" d="M428.2,203.1c2-0.8,3.3-1.8,3.9-2.9c-7.7-8.7-18.2-9.6-31.7-2.8c0,0,0.4,1.4,1.3,4.1
		C410.8,195,419.7,195.5,428.2,203.1z"/>
	<path class="st29" d="M341.2,143.2c36.5,0,65,33.3,65,75.3c0,36.4-22.3,66.9-52,74.3c-4.6,1.1-13.7,2.7-18.5,2.7
		c-36.5,0-61.8-35.1-61.8-77.1c0-34.9,17.7-65,45.5-73.9C329.2,144,335,143.2,341.2,143.2z"/>
	<ellipse class="st80" cx="328.2" cy="220" rx="66.2" ry="76.1"/>
	<path class="st29" d="M325.4,147.4c34.9,0,63.2,32.5,63.2,72.7c0,34.8-21.3,63.9-49.7,71c-4.4,1.1-13.1,2.6-17.7,2.6
		c-34.9,0-59-33.5-59-73.6c0-33.3,16.9-62,43.5-70.6C314.7,148.8,319.4,147.4,325.4,147.4z"/>
	<ellipse class="st80" cx="314.1" cy="221.5" rx="63.2" ry="72.7"/>
	<path class="st29" d="M312.7,156.4c31.3,0,56.7,29.2,56.7,65.2c0,31.2-19.1,57.3-44.6,63.7c-3.9,1-11.7,2.4-15.9,2.4
		c-31.3,0-52.9-30-52.9-66c0-29.9,15.1-55.6,39-63.3C299.8,156.7,307.3,156.4,312.7,156.4z"/>
	<ellipse class="st80" cx="302.6" cy="222.9" rx="56.7" ry="65.2"/>
	<ellipse class="st29" cx="302.6" cy="222.9" rx="49.7" ry="58.2"/>
	<path class="st47" d="M476.9,157.8c4.5-1.7,12.6-2.5,16.5-1c-0.5,0.8-0.4,1.4,0.2,2.3c-3.5,0-8.6,0.1-15.7,1.5
		C478.3,159.1,477.9,158.2,476.9,157.8z"/>
	<path class="st81" d="M476.9,157.8c1.2,0.6,1.5,1.5,1,2.8c-1.4-0.1-2.7-0.7-3.9-1.8C475.9,158.2,476.9,157.8,476.9,157.8z"/>
	<path class="st82" d="M494.1,156.5c0.2,1.1,0,1.9-0.6,2.6C492.7,157.7,492.9,156.9,494.1,156.5z"/>
	<path class="st83" d="M493.1,156.7c-4.7-1.2-9.9-0.8-15.5,1.1c0.3,0.4,0.6,0.7,0.8,1c7.4-1.5,12-1.8,13.8-0.9
		C492.6,157.4,492.9,157,493.1,156.7z"/>
	<path class="st22" d="M458.5,207.1c-12.1,1.4-18.2,6.1-31.9,7.5c2,5.9-22.5,31-27.3,36.1c9.5-4.6,44.8-17.6,47.1-23.2
		c1.2-2.8,8.1-5.9,11.7-8.7C461.8,215.8,462.1,213,458.5,207.1z"/>
	<path class="st31" d="M452.6,210.7c2,2.4,0.6,11.9-11.1,11.4C434,221.8,432,211.8,452.6,210.7z"/>
	<path class="st22" d="M437.7,214.7c0.5,0.1,2.3,2.7,4.5,0.2c0.9-1.1,1.3,0.6,2.8,0.6c2.4,0,6.1-1.7,8.2-3.7
		c0.7-0.7,0.3-2.5,0.6-3.1c2.9-8.1,0.5-13.6-5.9-14.7c-1.3-0.2-1.6,1.3-3.2,1.4c-1.5,0-3.4-0.9-4.6,0.2c-1.2,1.1-3,0.1-4.4,0.5
		c-1.3,0.3-1.9,1.7-3.2,1.3c-1.6-0.5-3.8,1.6-4.3,3.8c-0.3,1.2,0.3,2.9,0.6,3.6c5.4-1.7,4.4,5.7,4,8.9
		C432.7,214.2,437.1,214.5,437.7,214.7z"/>
	<path class="st31" d="M453.1,208.1c-1.1,1.1-2.3-0.2-4.2,2c-1.2,1.3-3.7,0-5.2,1c-1.4,1-2.6-1.2-5.1-0.6c-1.2,0.3-2-0.2-3.3-0.6
		c0.9-2.7-0.7-5.6-2.4-9.1c1.1-0.8,2.8-1.2,3.9-0.9c1.6,0.4,2-1,3.4-1c1.3,0,2.3,0.6,2.9,0.2c0.6-0.4,0.8-1.1,2-1.4
		c0.9-0.3,2.2,0.2,2.5,0.2c0.6-0.1,0.9-0.3,1.3-0.8c0.5-0.6,2.7-0.1,2.9-0.1C454.4,200.7,455.2,205.1,453.1,208.1z"/>
	<path class="st69" d="M426.6,214.6c-0.6,4.8,2,7.5,0.2,10.4c-6.3,10-27.3,17.8-29.9,28.4c2.2-4.8,36.3-19.3,39.1-27.5
		c0.2-0.6-8.6-3.5-1.3-9.6c-2.3,0.7-3.5,0.2-4.2-2.2C429.2,214.3,427.2,214.6,426.6,214.6z"/>
	<path class="st22" d="M458.1,208.8c0,0-0.2,1.7-1.6,2c-3,0.6-8.6,0.9-9.8,2.4c-1.2,1.7-3.1,7.7-0.9,9.4c0.6,0.5,5.9-2.5,6.7-2.2
		c6.5-1.1,9.9-4,11-6.8c0.8-2.2-0.1-4.4,0.1-5.3c0.5-2.3-0.1-5-0.7-6c-1.9-0.1-5.4-0.6-9.2-1.8C450.2,205.3,453.6,209.2,458.1,208.8
		z"/>
	<path class="st31" d="M459.4,206.9c0,0-0.9,1.9-0.7,3.1c0.1,0.9-1.9,0.8-4.3,1.6c-0.7,0.2-2.1,1.8-2.8,2.2c-1.3,0.7-2.1,0-2.6,1.8
		c-0.2,0.7-0.7,3.1,1.7,3.8c1.2,0.4,6.6-2.4,9.8-6.5c1.4-1.8,0.5-3,0.9-5.5c0.3-2.3-0.3-2.9-0.9-3.8c-1.8-0.1,3.1,0.6-6.4-1.2
		C453.2,205.9,455,207.3,459.4,206.9z"/>
	<path class="st22" d="M436.7,199.9c0.3-1.6,0.4-2.4,0.4-2.4c1.1,1.8,1.8,4.6,2,8.3C438.6,203.6,437.8,201.6,436.7,199.9z"/>
	<path class="st22" d="M442.2,199c0.3-1.6,0.4-2.4,0.4-2.4c1.1,1.8,1.8,4.6,2,8.3C444.1,202.6,443.3,200.7,442.2,199z"/>
	<path class="st22" d="M447.7,197.4c0.5-1.6,0.7-2.4,0.7-2.4c0.9,1.9,1.3,4.7,1.1,8.5C449.1,201.3,448.5,199.2,447.7,197.4z"/>
	<path class="st57" d="M454.5,201.1c1.4,0.4,3,1.1,3,1.1c-0.5,0.3-0.8,0.8-0.4,1.5c0,0-1.2,0.2-2.3,0.2
		C453.3,203.6,453.2,202.7,454.5,201.1z"/>
	<path class="st69" d="M430.9,197.6c-2.6,1.2-3.6,3.5-4.3,7.4c2.9-0.3,4.3-0.4,4.3-0.4C428.3,201.4,427.8,199.2,430.9,197.6z"/>
	<path class="st84" d="M479.1,161c-0.1-0.1-0.2-0.2-0.1-0.3s0.2-0.2,0.3-0.1c2.4,1.2,4.8,1.8,7.2,1.9c2.4,0.1,4.9-0.3,7.4-1.2
		c0.1,0,0.3,0,0.3,0.1s0,0.3-0.1,0.3c-2.6,1-5.1,1.4-7.6,1.3C484,162.9,481.6,162.2,479.1,161z"/>
	<path class="st36" d="M462.9,185.7c-0.1,0.6-0.5,2.6-0.2,3c0.5,0.7-1,1.8-1-0.2c0-0.9,0-2,0.1-3c-0.8-0.6-1.3-2.3-1.6-3.1
		c-0.1-0.3,0.4-1.4,0.8-0.2c0.2,0.5,1,2.4,1.5,2.7c0.2-0.1,1-1,1.1-1.1c0.5-1.2,0.8,0,0.7,0.3C464,184.5,463.6,185.4,462.9,185.7z"
		/>
	<path class="st85" d="M557,229.6c-0.2-0.2-0.1-0.5,0.1-0.7c0.2-0.2,0.5-0.1,0.7,0.1c3.2,3.8,5.5,5.8,7,5.9c1.2,0.1,1.9-1.5,1.8-4.8
		c0-0.3,0.2-0.5,0.5-0.5s0.5,0.2,0.5,0.5c0,3.2-0.5,5.1-1.8,5.7c1,4.4,1.9,7.4,2.5,8.8c0.1,0.3,0.3,0.6,0.4,0.7
		c0.1-0.1,0.3-0.1,0.5,0s0.3,0.4,0.1,0.7c-0.1,0.1-0.2,0.2-0.3,0.3c-0.4,0.2-0.7,0.1-1-0.3c-0.2-0.2-0.4-0.6-0.6-1
		c-0.6-1.5-1.5-4.5-2.5-9h-0.1C562.9,235.7,560.3,233.6,557,229.6z"/>
	<path class="st36" d="M410.7,254.1c-0.2,0.5-2,6-1.8,6.4c0.3,0.8-1.3,1.5-0.9-0.3c0.2-0.9,1.4-5.6,1.7-6.5
		c-0.6-0.7-0.8-2.4-0.9-3.2c0-0.3,0.6-1.2,0.7-0.1c0,0.5,0.5,2.4,0.9,2.8c0.2,0,1.1-0.7,1.2-0.9c0.7-1,0.8,0.2,0.6,0.4
		C412,253.2,411.4,254,410.7,254.1z"/>
	<path class="st65" d="M474.5,308c4-3.1,3.7-5.7-0.9-7.8c3.4,1,7.1,2.9,11.1,5.5c-3.1,0.6-3.1,3-0.1,7.2
		C484.7,312.9,481.3,311.3,474.5,308z"/>
	<path class="st65" d="M510.4,310.7c1.2,3.5,1.2,6.5-0.1,8.9c3.1-0.6,5.3-1.4,6.8-2.2c-2.7-3-3.6-5.2-2.7-6.7
		C512.4,311.4,511.1,311.4,510.4,310.7z"/>
	<path class="st47" d="M537.2,495.7c-4.6,0.3-8.4,3.6-5.5,8.2c-4.2,9.5-7.7,10.2-10.5,2.3c-2.6,4.7-3.5,8.9-2.7,12.7
		c0.7,1.5-0.7,4.2,0.2,5.3c2.9,3.6,8.9,3.7,12.2,3.9c16.4,11.3,28.5,11.4,38.8,1.9c6.7-5.3,10.1-5.4,10.3-0.3
		c3.5-11.9-0.5-19-14.2-15.9c-6.2,1.4-19.7-1.6-23.4-8.5C541.2,502.9,549.3,494.8,537.2,495.7z"/>
	<path class="st86" d="M520.4,512.1c3.9,1.7,6.5,1.1,7.8-2c-6.9,0.8-8.7-6.6-3.9-5.9c0.2-0.4,0.2-0.7,0.3-1.1
		C515.7,500.9,517.2,508.7,520.4,512.1z"/>
	<path class="st87" d="M531.6,534.3c-11.7-0.7-15-6.2-15.1-10.5c0-2.2-0.4-4.4,2.1-4.8c0.6,4.2,1.1,8.5,12.4,9.2
		c16.6,10.8,29.7,8.5,41.6-2.9c6.4-5.1,9.7-2.3,7.6,4.5C576.4,538.5,548.3,545.2,531.6,534.3z"/>
	<path class="st88" d="M526.9,514.7c2.1-5.6,8.2-8,8.3-9.8c3.6,5.2,12.4,9.2,18.1,11.2c-2.3,4.2-8.8,5.5-8.8,7.6
		C537.7,518.5,533.3,516.6,526.9,514.7z"/>
	<path class="st89" d="M540.3,514.7L540.3,514.7L540.3,514.7L540.3,514.7L540.3,514.7L540.3,514.7L540.3,514.7L540.3,514.7
		L540.3,514.7C540.2,514.7,540.2,514.7,540.3,514.7L540.3,514.7L540.3,514.7L540.3,514.7L540.3,514.7L540.3,514.7L540.3,514.7
		L540.3,514.7L540.3,514.7L540.3,514.7L540.3,514.7L540.3,514.7L540.3,514.7L540.3,514.7L540.3,514.7L540.3,514.7L540.3,514.7
		L540.3,514.7L540.3,514.7L540.3,514.7L540.3,514.7L540.3,514.7L540.3,514.7L540.3,514.7L540.3,514.7L540.3,514.7L540.3,514.7
		L540.3,514.7L540.3,514.7L540.3,514.7L540.3,514.7L540.3,514.7L540.3,514.7L540.3,514.7L540.3,514.7L540.3,514.7L540.3,514.7
		L540.3,514.7L540.3,514.7L540.3,514.7L540.3,514.7L540.3,514.7L540.3,514.7L540.3,514.7L540.3,514.7L540.3,514.7L540.3,514.7
		L540.3,514.7L540.3,514.7L540.3,514.7L540.3,514.7L540.3,514.7L540.3,514.7L540.3,514.7L540.3,514.7L540.3,514.7L540.3,514.7
		L540.3,514.7L540.3,514.7L540.3,514.7L540.3,514.7L540.3,514.7L540.3,514.7L540.3,514.7L540.3,514.7L540.3,514.7L540.3,514.7
		L540.3,514.7L540.3,514.7L540.3,514.7L540.3,514.7L540.3,514.7L540.3,514.7L540.3,514.7L540.3,514.7L540.3,514.7L540.3,514.7
		L540.3,514.7L540.3,514.7L540.3,514.7L540.3,514.7L540.3,514.7L540.3,514.7L540.3,514.7L540.3,514.7L540.3,514.7L540.3,514.7
		L540.3,514.7L540.3,514.7L540.3,514.7L540.3,514.7L540.3,514.7c0.4-1.4,1.2-2.6,2.3-3.7c0.3-0.3,0.6-0.5,0.9-0.8
		c-0.4,0-0.8,0-1.2,0c-1.9,0-3.8,0.5-5.2,1.7c-0.2,0.2-0.6,0.2-0.8,0c-0.2-0.2-0.1-0.6,0.1-0.8c1.7-1.4,3.8-2,6-2
		c0.9,0,1.8,0,2.6,0.2c0.5-0.3,1.1-0.6,1.7-0.9c0.3-0.1,0.6,0,0.7,0.3c0.1,0.3,0,0.6-0.3,0.8c-0.2,0.1-0.3,0.2-0.5,0.2
		c1.2,0.3,2.2,0.7,3.1,1.1c0.3,0.1,0.4,0.5,0.2,0.8s-0.5,0.4-0.8,0.3c-1-0.5-2.4-1-3.9-1.3c-0.6,0.4-1.2,0.9-1.7,1.4
		c-0.8,0.7-1.4,1.6-1.8,2.5c2.5,0.2,5.1,0.4,7.5,0.3h0.4c0.2-0.7,0.3-1.5,0.4-2.3c0-0.3,0.3-0.6,0.6-0.6s0.5,0.3,0.5,0.6
		c-0.1,0.8-0.2,1.5-0.4,2.2c1.7-0.1,3.3-0.3,4.7-0.7c0.3-0.1,0.6,0.1,0.7,0.4c0.1,0.3-0.1,0.6-0.5,0.7c-1.5,0.4-3.3,0.7-5.2,0.8
		l-0.1,0.2c-0.4,1.1-1,2-1.7,2.7c-0.2,0.2-0.6,0.3-0.8,0s-0.2-0.6,0-0.8c0.6-0.6,1-1.3,1.4-2.1l0,0C546,515.1,543.1,515,540.3,514.7
		L540.3,514.7L540.3,514.7z M534.6,509.8c1.7-1.5,3.4-2.5,5.2-2.9c1.7-0.4,3.5-0.4,5.2,0.2c0.3,0.1,0.6-0.1,0.7-0.4
		c0.1-0.3,0-0.6-0.3-0.7c-2-0.7-3.9-0.8-5.9-0.3c-1.9,0.5-3.8,1.6-5.7,3.2c-0.2,0.2-0.3,0.6-0.1,0.8C534,510,534.4,510,534.6,509.8z
		"/>
	<path class="st90" d="M569.1,526.4c-10.3,7.3-24.6,10.6-32.2,2.2c-2.4-2.6-2.8-2.8-7.5-2.4c-4.7,0.4-9.6-3.9-9.6-10.7
		c6.1,2.1,8.2-3.6,11.7-1.1c7.2,5,12.4,7.9,19.8,8.6C555.8,523.4,567,520.7,569.1,526.4z"/>
	<path class="st91" d="M578.9,519.3c-3.7-4.8-9.2-4.8-16.4-0.1c3.5,0.4,6.2,1.2,7.9,2.5C575,519.3,577.8,518.5,578.9,519.3z"/>
	<path class="st91" d="M541.6,503.6c-1.8,0.8-2.8,1.1-2.8,1.1s0.2-0.6,0.5-1.7c0.9-3.3-1.5-4.4-7.2-3.5c2.7-2.6,6.1-3.4,10.4-2.2
		C543.1,498.9,542.8,501,541.6,503.6z"/>
	<path class="st47" d="M413.6,511.2c-4.4-0.2-8.5,2.7-6.5,7.9c-5.5,9.3-8.9,9.7-10.2,1.1c-3.2,4.5-4.7,8.8-4.6,12.9
		c0.4,1.6-1.3,4.3-0.7,5.6c2.2,4.1,7.8,5,10.8,5.6c13.6,13.8,25,15.4,36.3,6.9c7.2-4.7,7.9-1.7,7.2,3.7c5.2-12,0.5-21.4-13-19.9
		c-6,0.7-13.5-5.3-15.8-12.9C416.2,519.2,425.1,511.8,413.6,511.2z"/>
	<path class="st86" d="M395,526.1c3.4,2.3,6,1.9,7.7-1.1c-6.6-0.1-7.2-8-2.7-6.6c0.4,0.1,0.8-0.6,0.8-0.9
		C392.8,514.1,392.6,522.2,395,526.1z"/>
	<path class="st87" d="M402,550.6c-10.9-2.2-13.1-8.4-12.5-12.8c0.4-2.3,0.3-4.6,2.8-4.7c-0.1,4.4-0.3,9,10.2,11.1
		c13.9,13.4,18.8,15.1,31.9,4.8c6.9-4.5,17.3-3.7,14.1,3.1C443.5,560.6,415.9,564,402,550.6z"/>
	<path class="st88" d="M400.8,529.6c2.9-5.6,9-7.3,9.4-9.1c2.5,5.9,10.1,11.2,15.2,13.9c-2.9,4.1-9.2,4.6-9.6,6.8
		C410.3,535,406.5,532.4,400.8,529.6z"/>
	<path class="st89" d="M413.4,531.3L413.4,531.3L413.4,531.3L413.4,531.3L413.4,531.3L413.4,531.3L413.4,531.3L413.4,531.3
		L413.4,531.3c-0.1,0-0.1,0-0.1-0.1l0,0l0,0l0,0l0,0l0,0l0,0l0,0l0,0l0,0l0,0l0,0l0,0l0,0l0,0l0,0l0,0l0,0l0,0l0,0l0,0l0,0l0,0l0,0
		l0,0l0,0l0,0l0,0l0,0l0,0l0,0l0,0l0,0l0,0l0,0l0,0l0,0l0,0l0,0l0,0l0,0l0,0l0,0l0,0l0,0l0,0l0,0l0,0l0,0l0,0l0,0l0,0l0,0l0,0l0,0
		l0,0l0,0l0,0l0,0l0,0l0,0l0,0l0,0l0,0l0,0l0,0l0,0l0,0l0,0l0,0l0,0l0,0l0,0l0,0l0,0l0,0l0,0l0,0l0,0l0,0l0,0l0,0l0,0l0,0l0,0l0,0
		l0,0l0,0l0,0l0,0l0,0v-0.1c0.7-1.3,1.7-2.4,2.9-3.4c0.3-0.3,0.6-0.5,1-0.7c-0.4-0.1-0.8-0.1-1.2-0.2c-1.8-0.2-3.7,0.1-5.2,1.1
		c-0.3,0.2-0.6,0.1-0.7-0.1c-0.1-0.3,0-0.6,0.2-0.8c1.8-1.2,3.9-1.6,6-1.3c0.8,0.1,1.6,0.3,2.4,0.5c0.5-0.3,1.1-0.5,1.7-0.8
		c0.3-0.1,0.6,0.1,0.7,0.4c0.1,0.3-0.1,0.7-0.4,0.8c-0.2,0.1-0.3,0.1-0.5,0.2c1,0.4,2,1,2.7,1.6c0.2,0.2,0.3,0.6,0.1,0.8
		c-0.2,0.3-0.5,0.3-0.8,0.2c-0.9-0.7-2.1-1.4-3.5-1.8c-0.7,0.4-1.3,0.8-1.8,1.2c-0.8,0.7-1.6,1.5-2.1,2.4c2.3,0.6,4.8,1,7,1.2h0.4
		c0.3-0.7,0.6-1.5,0.8-2.3c0.1-0.3,0.4-0.6,0.7-0.5c0.3,0,0.5,0.3,0.4,0.7c-0.2,0.8-0.4,1.6-0.7,2.3c1.6,0.1,3.2,0,4.5-0.2
		c0.3,0,0.6,0.2,0.6,0.5s-0.2,0.6-0.5,0.7c-1.5,0.2-3.2,0.3-5.1,0.1l-0.1,0.2c-0.6,1-1.3,1.9-2.1,2.6c-0.3,0.2-0.6,0.2-0.8-0.1
		c-0.2-0.2-0.1-0.6,0.2-0.8c0.6-0.5,1.2-1.2,1.6-2l0,0C418.7,532.5,416,532,413.4,531.3L413.4,531.3L413.4,531.3z M408.9,525.5
		c1.9-1.4,3.6-2.2,5.3-2.4c1.7-0.2,3.3,0.1,4.9,0.9c0.3,0.1,0.6,0,0.8-0.3c0.2-0.3,0.1-0.7-0.2-0.8c-1.7-0.9-3.6-1.3-5.5-1
		s-3.8,1.2-5.9,2.6c-0.3,0.2-0.4,0.6-0.2,0.8C408.3,525.7,408.6,525.7,408.9,525.5z"/>
	<path class="st90" d="M433.3,547.2c-10.9,6.4-19.6,7.8-25.3-1.9c-1.8-3-2.2-3.3-6.7-3.4c-4.5-0.1-8.4-5.3-7.2-12.3
		c5.4,3,8.3-2.7,11.2,0.3c5.9,6,10.3,9.7,17.2,11.4C426.5,542.4,432.2,541.1,433.3,547.2z"/>
	<path class="st91" d="M445.1,541.8c-2.7-5.5-7.8-6.2-15.4-2.1c3.3,0.9,5.6,2.1,7,3.6C441.4,541.3,444.2,540.8,445.1,541.8z"/>
	<path class="st91" d="M416.4,519.9c-1.9,0.6-2.8,0.9-2.8,0.9s0.3-0.6,0.8-1.8c1.4-3.3-0.6-4.8-6.2-4.6c3-2.4,6.3-2.7,10.1-1
		C418.7,515.2,418,517.4,416.4,519.9z"/>
	<path class="st29" d="M322.4,212.4c0.3,0.2,0.6,0.3,0.8,0.4c1.1,0.6,2.3,1.2,3.4,1.8c5.9,3.2,5.9,12.3,0,15.4
		c-0.7,0.4-2.6,1.4-3.4,2c0,0.4,0,0.9,0,1.2c0.1,1.3,0.2,2.6,0.2,4c0.2,7.1-6.6,11.6-12.8,7.7c-1.3-0.8-2.5-1.6-3.7-2.5
		c0,0-0.1,0-0.1-0.1l0,0c-1.2,0.8-2.3,1.6-3.5,2.3c-2.5,1.5-5.3,2.3-10.8,2.1c-2.4-1.6-1.1-6.2-1.1-8.9c0-1.6,0-3.3,0.1-4.9
		c0-0.2,0-0.4,0-0.6c-0.1-0.1-0.2-0.1-0.3-0.2c-1.2-0.7-2.4-1.5-3.6-2.3c-2-1.4-3.8-3.8-4.2-6.2c-0.6-3.2,1.5-6.6,4.1-8.4
		c1.1-0.7,3-2,3.6-3.1c0.4-0.7,0-4,0-4.9c0.1-4-2.9-7.7,0.1-8.3c4.9-1,8.4-1.7,12.6,1.4c1,0.7,2.1,1.3,3,2c1.1-0.8,2.2-1.6,3.3-2.3
		c6.5-4.1,13.3,0.3,12.7,7.9C322.6,208.8,322.4,211.1,322.4,212.4z"/>
	<path class="st92" d="M309.5,199.5c3.8-2.4,7.4-0.6,6.9,4.4c-1,11.1-0.9,9.5,8,14.3c3.3,1.8,3.3,7.3,0,9c-9.2,4.9-7.4,5.3-7.2,14.5
		c0.1,4.7-3.6,6.7-7,4.5c-10.4-6.5-5.3-6.7-15.7-0.2c-1.9,1.2-3.6,0.5-4.2,0c-0.7-0.4-1.7-1.1-1.8-3.6c-0.3-13.5,2.6-8.1-7.5-15.1
		c-1.7-1.2-2.7-3.1-2.9-4.1c-0.3-1.6,1.7-3.9,2.7-4.6c1.7-1.2,4.8-3.2,6.3-5.7c1.9-3.1,0.8-6.5,0.9-9.3c0.1-5,3.6-6,7-3.9
		C305.4,206.3,299.2,206,309.5,199.5z"/>
	<path class="st80" d="M280.9,223c0.2,0.8,1.1,1.8,1.7,2.3c1.7,1.2,3.4,2.2,5.1,3.3c1.2,0.7,2.4,1.4,3.1,2.7s0.6,2.8,0.6,4.3
		c-0.1,2.4-0.2,4.6-0.1,7c0,0.7,0,1.1,0.6,1.4c0.4,0.3,0.9,0.2,1.3-0.1c1.8-1.1,3.5-2.3,5.2-3.5c1.2-0.9,2.5-1.7,4.1-1.6
		c1.6,0,2.8,0.9,4,1.8c1.7,1.3,3.4,2.5,5.2,3.6c2,1.2,3-0.2,2.9-2.2c0-1.9-0.2-3.7-0.3-5.6c-0.1-1.6,0-3.1,0.6-4.6
		c1.3-3.3,5.4-5.3,8.3-6.8c1.4-0.7,1.4-3.5,0-4.3c-1.7-0.9-3.5-1.8-5.2-2.8c-1.4-0.8-2.7-1.7-3.5-3c-0.9-1.4-1.1-3-1.1-4.7
		c0-2.1,0.2-4.4,0.4-6.5c0.2-2.4-0.7-3.2-2.8-1.9c-1.7,1.1-3.4,2.2-4.9,3.5c-1.1,0.9-2.2,1.8-3.7,1.9c-1.5,0-2.6-0.8-3.8-1.7
		c-1.6-1.2-3.2-2.4-4.9-3.4c-0.5-0.3-1.6-0.8-2.1-0.6c-0.6,0.3-0.7,1.7-0.7,2.2c0,1.4,0.2,3,0.3,4.4c0,2.2-0.3,4.3-1.5,6.2
		c-1.7,2.8-4.5,4.7-7.1,6.5C282,221.3,281,222.4,280.9,223z"/>
	<path class="st93" d="M277.9,220.7l24.6-2.6c4.2,0.2,5.2,8.1,1,9.5l-24.4,2.6C275.6,227.9,276.2,223.1,277.9,220.7z"/>
	<path class="st94" d="M278.1,220.7c1.3-0.1,2.6,1.9,2.9,4.5c0.2,2.6-0.7,4.9-2,5s-2.6-1.9-2.9-4.5
		C275.9,223.1,276.8,220.8,278.1,220.7z"/>
	<path class="st95" d="M445.8,141.1c-1.4-4.4,0.3-9.3,4.6-7.6C444.3,129,439.5,132.1,445.8,141.1z"/>
	<path class="st95" d="M449.3,144c0-1.6,0.5-2.5,1.3-2.7c0.9-1.4,1-3.1,0.4-4.9C447.3,136.6,446.7,139.2,449.3,144z"/>
	<path class="st96" d="M545.6,203.9c0.5,0.1,2.3,2.7,4.5,0.2c0.9-1.1,1.3,0.6,2.8,0.6c2.4,0,6.1-1.7,8.2-3.7
		c6.2-6,3.4-16.3-5.3-17.7c-1.3-0.2-1.6,1.3-3.2,1.4c-1.5,0-3.4-0.9-4.6,0.2c-1.2,1.1-3,0.1-4.4,0.5c-1.3,0.3-1.9,1.7-3.2,1.3
		c-1.6-0.5-3.8,1.6-4.3,3.8c-0.3,1.2,0.1,2.4,0.4,3.1c5.4-1.7,4.6,6.2,4.2,9.4C540.5,203.4,544.9,203.7,545.6,203.9z"/>
	<path class="st31" d="M560.9,196.3c-1.1,1-2.3-0.2-4.2,1.8c-1.2,1.2-3.7,0-5.2,0.9c-1.4,0.9-2.6-1.1-5.1-0.5
		c-1.2,0.3-2-0.2-3.3-0.6c0.9-2.5-0.7-5.1-2.4-8.3c1.1-0.8,2.8-1,3.9-0.8c1.6,0.4,2-0.9,3.4-0.9c1.3,0,2.3,0.5,2.9,0.2
		c0.6-0.3,0.8-1,2-1.3c0.9-0.2,2.2,0.2,2.5,0.2c0.6-0.1,0.9-0.3,1.3-0.7c0.5-0.5,2.7-0.1,2.9-0.1C562.3,189.6,563,193.5,560.9,196.3
		z"/>
	<path class="st22" d="M540.8,201.3c0,0,0.8,1.5,2.3,1.2c3-0.6,10.2-1.6,11.9-0.6c1.8,1.1,5.7,7.4,4.4,9.8
		c-1.5,2.7-17.3,0.7-21.6-3.9c-1.6-1.7-1.5-4.1-2.1-4.9c-1.4-1.9-1.9-4.7-1.6-5.8c1.8-0.8,4.8-2.6,7.8-5.2
		C546.8,195,545.1,200,540.8,201.3z"/>
	<path class="st31" d="M538.9,200c0,0,1.6,1.4,1.9,2.6c0.2,0.8,2,0,4.6-0.1c0.7,0,2.6,0.9,3.4,1c1.4,0.1,2.9-1.1,4,0.3
		c0.4,0.5,3,2.7,1,4.2c-1,0.8-9.2,0.6-13.7-2.1c-2-1.2-1.6-2.5-2.9-4.7c-1.2-1.9-0.9-2.8-0.6-3.9c1.6-0.8-2.7,1.7,5.4-3.5
		C544.2,196.8,543.1,198.7,538.9,200z"/>
	<path class="st57" d="M541.2,192.8c-1.2,1-2.3,2.2-2.3,2.2c0.6,0.1,1.1,0.5,1,1.2c0,0,1.2-0.3,2.2-0.7
		C543.2,194.7,543,193.8,541.2,192.8z"/>
	<path class="st24" d="M577.3,268.3c2.4-0.1,4.2-0.8,5.5-2.1c2.7-2.6,2.4-3.3,2.9-5.9c0.1,2.5-0.8,5.2-2.3,6.6
		c-1.5,1.5-3.7,2.2-6.4,2.4h-0.2l-0.1-0.2c-1-1.2-3.1-1.9-6.2-2.1c-26.2,6.5-17.4-43.7-23-55.7c4.7,2.9,4.2,9.5,4.9,20.2
		C555,277.4,567.4,257.4,577.3,268.3z"/>
	<path class="st22" d="M563.2,197.2c4.4,4.7,4.3,8.5-0.3,11.3c1.9-2.7,1.2-5.6-2.1-8.8C562.4,198,563.2,197.2,563.2,197.2z"/>
	<path class="st24" d="M553.6,250.4c1.4,5.6,1.5,7.9,0.2,6.8c-5.7-3.3-10.6-7.8-14.9-13.4c1.3-2.3,1.9-3.2,1.6-2.6
		C544.7,244.7,549.1,247.7,553.6,250.4z"/>
	<path class="st22" d="M544.7,188.8c0.2-1.6,0.2-2.4,0.2-2.4c1.3,1.7,2.1,4.4,2.5,8.1C546.7,192.3,545.8,190.4,544.7,188.8z"/>
	<path class="st22" d="M549.9,187.7c0.2-1.6,0.2-2.4,0.2-2.4c1.3,1.7,2.1,4.4,2.5,8.1C552,191.3,551.1,189.4,549.9,187.7z"/>
	<path class="st22" d="M555.2,186.9c0.3-1.6,0.5-2.4,0.5-2.4c1.1,1.9,1.6,4.6,1.6,8.4C556.9,190.6,556.2,188.6,555.2,186.9z"/>
	<path class="st36" d="M463.8,118.5c-0.2,0.5-1.2,2.3-1,2.8c0.3,0.8-1.4,1.5-0.9-0.4c0.2-0.9,0.5-2,0.9-2.9
		c-0.6-0.8-0.7-2.6-0.7-3.5c0-0.3,0.7-1.3,0.8,0c0,0.5,0.3,2.6,0.8,3c0.2,0,1.2-0.7,1.4-0.8c0.8-1.1,0.8,0.2,0.6,0.4
		C465.2,117.7,464.6,118.4,463.8,118.5z"/>
	<path class="st97" d="M565.5,206.7c3,4.6,8.6,8.4,13.3,13.3c-5.1-4.2-11.4-7.2-15.2-11.4l0,0l-0.3-0.4l-0.3-0.4
		c1.7-1.3,2.6-2.8,2.6-4.4c0-1.7-0.8-3.6-2.6-5.6l-0.1-0.2v-0.2c0.6-3.5,0.5-6.3-0.3-8.5c-0.8-2.1-2.4-4.1-4.7-5
		c3.5,0.7,5.1,3.3,5.6,4.6c0.9,2.3,1,5.2,0.4,8.7c1.8,2.2,2.7,4.2,2.7,6.1C566.6,204.6,566.3,205.6,565.5,206.7z"/>
	<path class="st22" d="M406.1,290.2c2.6-2.2,5.7-3.3,9.1-3.4c-3.2-1.4-2.1-6.9,3.4-16.4C415.5,275.6,411.3,282.1,406.1,290.2z"/>
	<path class="st98" d="M411.2,95c4.1-6.4,10.1-6.1,17.9,0.9c-6.4-4-11-3.6-13.7,1.2C412.1,102.9,408.8,98.7,411.2,95z"/>
	<g>
		<path class="st99" d="M521.2,161.4c2.5-1.2,1.3-8.8-7.6-7C517.4,156.4,517.9,163.1,521.2,161.4z"/>
		<path class="st100" d="M521.9,157.5c-0.3-0.6-0.7-1.3-1.3-1.8c-1.3-1.1-3.5-1.8-6.7-1.2c5.3,1.5,4.5,6.9,7.3,6.1
			C522.1,160.3,522.6,159.2,521.9,157.5L521.9,157.5z M522.5,159.4c-0.1,1-0.5,1.8-1.2,2.1c-1.9,0.9-2.9-0.8-4.1-2.8
			c-1.1-1.8-1.9-3.4-3.9-4.3c2.5-0.5,5.4-0.6,7.5,1.1c0.6,0.6,1.1,1.2,1.4,1.9C522.4,158.1,522.5,158.8,522.5,159.4z"/>
		<path class="st19" d="M520.5,157.8c1.1-0.3,1.9,1.6,0.7,1.9c-0.3,0.1-0.3-0.5-0.4-0.9C520.6,158.5,520.2,157.9,520.5,157.8z"/>
	</g>
	<path class="st98" d="M539.8,102.5c-2.6-5.8-7.9-5.5-10.1-3.1c5.9,1.5,5.4,2.8,5.9,5.3C537,111.3,541.5,106.4,539.8,102.5z"/>
	<g>
		<path class="st99" d="M427.7,157.9c-2.5-1.2-1.3-8.8,7.6-7C431.5,152.9,431,159.5,427.7,157.9z"/>
		<path class="st100" d="M427,154c0.3-0.6,0.7-1.3,1.3-1.8c1.3-1.1,3.5-1.8,6.7-1.2c-5.3,1.5-4.5,6.9-7.3,6.1
			C426.8,156.8,426.3,155.7,427,154L427,154z M426.5,155.9c0.1,1,0.5,1.8,1.2,2.1c1.9,0.9,2.9-0.8,4.1-2.8c1.1-1.8,1.9-3.4,3.9-4.3
			c-2.5-0.5-5.4-0.6-7.5,1.1c-0.6,0.6-1.1,1.2-1.4,1.9C426.5,154.6,426.4,155.3,426.5,155.9z"/>
		<path class="st19" d="M428.5,154.3c-1.1-0.3-1.9,1.6-0.7,1.9c0.3,0.1,0.3-0.5,0.4-0.9C428.3,155,428.8,154.4,428.5,154.3z"/>
	</g>
	<g>
		<path class="st99" d="M401.3,131.7c-2.2-1.7,0.6-8.9,8.9-5.2C406,127.5,404.1,133.9,401.3,131.7z"/>
		<path class="st100" d="M401.4,127.7c0.4-0.6,0.9-1.1,1.7-1.5c1.5-0.8,3.8-1,6.8,0.2c-5.5,0.3-5.9,5.8-8.4,4.4
			C400.6,130.4,400.3,129.2,401.4,127.7L401.4,127.7z M400.5,129.4c-0.1,1,0.1,1.8,0.7,2.3c1.7,1.3,3-0.1,4.6-1.9
			c1.4-1.6,2.6-2.9,4.7-3.4c-2.3-1-5.1-1.8-7.5-0.5c-0.7,0.4-1.3,0.9-1.7,1.6C400.8,128.1,400.6,128.8,400.5,129.4z"/>
		<path class="st19" d="M402.7,128.3c-1-0.5-2.2,1.2-1.1,1.8c0.3,0.1,0.4-0.5,0.6-0.8C402.4,129,403,128.4,402.7,128.3z"/>
	</g>
	<g>
		<path class="st99" d="M518,126.3c2.5-1.2,1.3-8.8-7.6-7C514.3,121.3,514.8,128,518,126.3z"/>
		<path class="st100" d="M518.8,122.4c-0.3-0.6-0.7-1.3-1.3-1.8c-1.3-1.1-3.5-1.8-6.7-1.2c5.3,1.5,4.5,6.9,7.3,6.1
			C519,125.2,519.5,124.1,518.8,122.4L518.8,122.4z M519.3,124.3c-0.1,1-0.5,1.8-1.2,2.1c-1.9,0.9-2.9-0.8-4.1-2.8
			c-1.1-1.8-1.9-3.4-3.9-4.3c2.5-0.5,5.4-0.6,7.5,1.1c0.6,0.6,1.1,1.2,1.4,1.9C519.2,123,519.3,123.7,519.3,124.3z"/>
		<path class="st19" d="M517.3,122.7c1.1-0.3,1.9,1.6,0.7,1.9c-0.3,0.1-0.3-0.5-0.4-0.9C517.5,123.4,517,122.8,517.3,122.7z"/>
	</g>
</g>
</svg>
