<?xml version="1.0" encoding="utf-8"?>
<!-- Generator: Adobe Illustrator 22.0.0, SVG Export Plug-In . SVG Version: 6.00 Build 0)  -->
<svg version="1.1" id="Layer_1" xmlns="http://www.w3.org/2000/svg" xmlns:xlink="http://www.w3.org/1999/xlink" x="0px" y="0px"
	 viewBox="0 0 1000 600" style="enable-background:new 0 0 1000 600;" xml:space="preserve">
<style type="text/css">
	.st0{fill:url(#SVGID_1_);}
	.st1{fill:url(#SVGID_2_);}
	.st2{fill:url(#SVGID_3_);}
	.st3{fill:url(#SVGID_4_);}
	.st4{fill:url(#SVGID_5_);}
	.st5{fill:url(#SVGID_6_);}
	.st6{fill:url(#SVGID_7_);}
	.st7{fill:url(#SVGID_8_);}
	.st8{fill:url(#SVGID_9_);}
	.st9{fill:url(#SVGID_10_);}
	.st10{fill:url(#SVGID_11_);}
	.st11{fill:url(#SVGID_12_);}
	.st12{fill:url(#SVGID_13_);}
	.st13{fill:url(#SVGID_14_);}
	.st14{fill:url(#SVGID_15_);}
	.st15{fill:url(#SVGID_16_);}
	.st16{fill:url(#SVGID_17_);}
	.st17{opacity:0.24;}
	.st18{fill:#FFFFFF;}
	.st19{opacity:0.1;enable-background:new    ;}
	.st20{fill:#FF7D6F;}
	.st21{fill:#FFA07F;}
	.st22{fill:#FC5B68;}
	.st23{fill:#CF4A57;}
	.st24{fill:#FFD39C;}
	.st25{fill:#232738;}
	.st26{fill:#226E6A;}
	.st27{fill:#0B6261;}
	.st28{fill:#005558;}
	.st29{fill:#CECECE;}
	.st30{fill:#2D183E;}
	.st31{fill:#230508;}
	.st32{fill:#D83200;}
	.st33{fill:#F64600;}
	.st34{fill:#FF6723;}
	.st35{fill:#2B3045;}
	.st36{fill:#1C2136;}
	.st37{fill:#3E4256;}
	.st38{fill:#4E5569;}

.dumbbellright{
	animation:translateright 2000ms ease-out 0ms infinite;
	transform-origin: 50% 50%;
}
@keyframes translateright{
	0%{transform: translate(15px,20px);}
	40%{transform: translate(-25px,-45px);}
	60%{transform: translate(-25px,-45px);}
	100%{transform: translate(15px,20px);}
}

.armright{
	animation:rotateright 2000ms ease-out 0ms infinite;
	transform-origin: 51.5% 45.3%;
}
@keyframes rotateright{
	0%{transform: rotate(20deg);}
	40%{transform: rotate(-45deg);}
	60%{transform: rotate(-45deg);}
	100%{transform: rotate(20deg);}
}

.dumbbellleft{
	animation:translateleft 2000ms ease-out 0ms infinite;
	transform-origin: 50% 50%;
}
@keyframes translateleft{
	0%{transform: translate(-10px,20px);}
	40%{transform: translate(25px,-45px);}
	60%{transform: translate(25px,-45px);}
	100%{transform: translate(-10px,20px);}
}

.armleft{
	animation:rotateleft 2000ms ease-out 0ms infinite;
	transform-origin: 43% 44.5%;
}
@keyframes rotateleft{
	0%{transform: rotate(-20deg);}
	40%{transform: rotate(45deg);}
	60%{transform: rotate(45deg);}
	100%{transform: rotate(-20deg);}
}

.blink {
	animation:blinkanim 5000ms ease-out 0ms infinite;
	transform-origin: 47.5% 33.3%;
}

@keyframes blinkanim{
	0%{transform: scale(1, 1);}
	48%{transform: scale(1, 1);}
	50%{transform: scale(1, 0.2);}
	52%{transform: scale(1, 1);}
	54%{transform: scale(1, 0.2);}
	56%{transform: scale(1, 1);}
	100%{transform: scale(1, 1);}
}

</style>
<g id="OBJECTS_1_">
	<g id="Layer_2_1_">
		<g id="Layer_1-2">
			
				<linearGradient id="SVGID_1_" gradientUnits="userSpaceOnUse" x1="149.5" y1="531.5" x2="749.5" y2="531.5" gradientTransform="matrix(0 1 -1 0 1031.5 -149.5)">
				<stop  offset="0" style="stop-color:#ADFEE5"/>
				<stop  offset="1" style="stop-color:#F8AEEA"/>
			</linearGradient>
			<path class="st0" d="M0,0h1000v600H0V0z"/>
			
				<linearGradient id="SVGID_2_" gradientUnits="userSpaceOnUse" x1="116.0852" y1="438.6176" x2="712.2722" y2="438.6176" gradientTransform="matrix(6.510000e-02 0.9751 -0.9449 1.280000e-02 887.14 -109.68)">
				<stop  offset="0" style="stop-color:#B2FCE5"/>
				<stop  offset="0" style="stop-color:#B2FCE5"/>
				<stop  offset="0.6" style="stop-color:#D9D3E9"/>
				<stop  offset="1" style="stop-color:#F8B0EB"/>
			</linearGradient>
			<path class="st1" d="M974.6,584.3L24.5,578l0.2-562.7l950.1,6.2L974.6,584.3z"/>
			
				<linearGradient id="SVGID_3_" gradientUnits="userSpaceOnUse" x1="84.2992" y1="329.2988" x2="675.5786" y2="329.2988" gradientTransform="matrix(0.1301 0.9501 -0.8898 2.560000e-02 742.88 -69.86)">
				<stop  offset="0" style="stop-color:#B7F9E6"/>
				<stop  offset="0" style="stop-color:#B7F9E6"/>
				<stop  offset="0.6" style="stop-color:#DBD2E9"/>
				<stop  offset="1" style="stop-color:#F9B3EB"/>
			</linearGradient>
			<path class="st2" d="M949.2,568.6L49,556.1l0.4-525.6L949.6,43L949.2,568.6z"/>
			
				<linearGradient id="SVGID_4_" gradientUnits="userSpaceOnUse" x1="55.3579" y1="200.599" x2="640.0312" y2="200.599" gradientTransform="matrix(0.1952 0.9252 -0.8347 3.840000e-02 598.52 -30.04)">
				<stop  offset="0" style="stop-color:#BCF7E6"/>
				<stop  offset="0" style="stop-color:#BCF7E6"/>
				<stop  offset="0.6" style="stop-color:#DED2EA"/>
				<stop  offset="1" style="stop-color:#F9B5EC"/>
			</linearGradient>
			<path class="st3" d="M923.8,552.9L73.5,534.1l0.6-488.3l850.3,18.8L923.8,552.9z"/>
			
				<linearGradient id="SVGID_5_" gradientUnits="userSpaceOnUse" x1="30.2772" y1="49.2701" x2="606.6179" y2="49.2701" gradientTransform="matrix(0.2603 0.9003 -0.7795 5.120000e-02 454.1 9.88)">
				<stop  offset="0" style="stop-color:#C2F4E7"/>
				<stop  offset="0" style="stop-color:#C2F4E7"/>
				<stop  offset="0.6" style="stop-color:#E0D2EB"/>
				<stop  offset="1" style="stop-color:#FAB7ED"/>
			</linearGradient>
			<path class="st4" d="M898.5,537.2L98,512.2L98.7,61l800.5,25.1L898.5,537.2z"/>
			
				<linearGradient id="SVGID_6_" gradientUnits="userSpaceOnUse" x1="11.3235" y1="-128.0829" x2="577.1506" y2="-128.0829" gradientTransform="matrix(0.3254 0.8753 -0.7244 6.400000e-02 309.74 49.6)">
				<stop  offset="0" style="stop-color:#C7F2E7"/>
				<stop  offset="0" style="stop-color:#C7F2E7"/>
				<stop  offset="0.6" style="stop-color:#E3D1EB"/>
				<stop  offset="1" style="stop-color:#FAB9ED"/>
			</linearGradient>
			<path class="st5" d="M873.1,521.6l-750.6-31.4l0.9-413.9L874,107.6L873.1,521.6z"/>
			
				<linearGradient id="SVGID_7_" gradientUnits="userSpaceOnUse" x1="9.570312e-02" y1="-335.5867" x2="552.5739" y2="-335.5867" gradientTransform="matrix(0.3904 0.8504 -0.6693 7.680000e-02 165.48 89.52)">
				<stop  offset="0" style="stop-color:#CCEFE8"/>
				<stop  offset="0" style="stop-color:#CCEFE8"/>
				<stop  offset="0.6" style="stop-color:#E5D1EC"/>
				<stop  offset="1" style="stop-color:#FBBCEE"/>
			</linearGradient>
			<path class="st6" d="M847.7,505.9L147,468.3l1.1-376.7l700.8,37.5L847.7,505.9z"/>
			
				<linearGradient id="SVGID_8_" gradientUnits="userSpaceOnUse" x1="-0.4457" y1="-577.3453" x2="535.5533" y2="-577.3453" gradientTransform="matrix(0.4555 0.8255 -0.6142 8.950000e-02 21.12 129.3)">
				<stop  offset="0" style="stop-color:#D1EDE8"/>
				<stop  offset="0" style="stop-color:#D1EDE8"/>
				<stop  offset="0.6" style="stop-color:#E8D1ED"/>
				<stop  offset="1" style="stop-color:#FBBEEF"/>
			</linearGradient>
			<path class="st7" d="M822.3,490.2l-650.8-43.9l1.3-339.5l650.9,43.9L822.3,490.2z"/>
			
				<linearGradient id="SVGID_9_" gradientUnits="userSpaceOnUse" x1="13.0229" y1="-857.4496" x2="528.8135" y2="-857.4496" gradientTransform="matrix(0.5206 0.8006 -0.5591 0.1023 -123.24 169.12)">
				<stop  offset="0" style="stop-color:#D6EBE9"/>
				<stop  offset="0" style="stop-color:#D6EBE9"/>
				<stop  offset="0.6" style="stop-color:#EBD1EE"/>
				<stop  offset="1" style="stop-color:#FCC0F0"/>
			</linearGradient>
			<path class="st8" d="M796.9,474.5l-601-50.1l1.6-302.3l601,50.1L796.9,474.5z"/>
			
				<linearGradient id="SVGID_10_" gradientUnits="userSpaceOnUse" x1="44.9" y1="-1179.7867" x2="536.3954" y2="-1179.7867" gradientTransform="matrix(0.5857 0.7756 -0.504 0.1151 -267.6 208.94)">
				<stop  offset="0" style="stop-color:#DBE8E9"/>
				<stop  offset="0" style="stop-color:#DBE8E9"/>
				<stop  offset="0.6" style="stop-color:#EDD0EE"/>
				<stop  offset="1" style="stop-color:#FCC2F0"/>
			</linearGradient>
			<path class="st9" d="M771.5,458.8l-551.1-56.4l1.8-265.1l551.1,56.4L771.5,458.8z"/>
			
				<linearGradient id="SVGID_11_" gradientUnits="userSpaceOnUse" x1="98.5" y1="-1547.0771" x2="560.8026" y2="-1547.0771" gradientTransform="matrix(0.6507 0.7507 -0.4489 0.1279 -411.96 248.86)">
				<stop  offset="0" style="stop-color:#E0E6E9"/>
				<stop  offset="0" style="stop-color:#E0E6E9"/>
				<stop  offset="0.6" style="stop-color:#F0D0EF"/>
				<stop  offset="1" style="stop-color:#FCC4F1"/>
			</linearGradient>
			<path class="st10" d="M746.2,443.1l-501.3-62.6l2-227.9l501.2,62.6L746.2,443.1z"/>
			
				<linearGradient id="SVGID_12_" gradientUnits="userSpaceOnUse" x1="178.4684" y1="-1959.8307" x2="606.3713" y2="-1959.8307" gradientTransform="matrix(0.7158 0.7258 -0.3937 0.1407 -556.28 288.58)">
				<stop  offset="0" style="stop-color:#E5E3EA"/>
				<stop  offset="0" style="stop-color:#E5E3EA"/>
				<stop  offset="0.6" style="stop-color:#F2D0F0"/>
				<stop  offset="1" style="stop-color:#FDC7F2"/>
			</linearGradient>
			<path class="st11" d="M720.8,427.4l-451.4-68.9l2.2-190.6l451.3,68.8L720.8,427.4z"/>
			
				<linearGradient id="SVGID_13_" gradientUnits="userSpaceOnUse" x1="290.5779" y1="-2415.4844" x2="678.8675" y2="-2415.4844" gradientTransform="matrix(0.7809 0.7008 -0.3386 0.1535 -700.64 328.5)">
				<stop  offset="0" style="stop-color:#EBE1EA"/>
				<stop  offset="0" style="stop-color:#EBE1EA"/>
				<stop  offset="0.6" style="stop-color:#F5CFF0"/>
				<stop  offset="1" style="stop-color:#FDC9F2"/>
			</linearGradient>
			<path class="st12" d="M695.4,411.7l-401.5-75.1l2.3-153.5l401.5,75.2L695.4,411.7z"/>
			
				<linearGradient id="SVGID_14_" gradientUnits="userSpaceOnUse" x1="438.472" y1="-2907.4021" x2="781.7705" y2="-2907.4021" gradientTransform="matrix(0.8459 0.6759 -0.2835 0.1663 -844.9 368.32)">
				<stop  offset="0" style="stop-color:#F0DEEB"/>
				<stop  offset="0" style="stop-color:#F0DEEB"/>
				<stop  offset="0.6" style="stop-color:#F7CFF1"/>
				<stop  offset="1" style="stop-color:#FECBF3"/>
			</linearGradient>
			<path class="st13" d="M670,396l-351.6-81.4l2.5-116.2l351.6,81.4L670,396z"/>
			
				<linearGradient id="SVGID_15_" gradientUnits="userSpaceOnUse" x1="624.2241" y1="-3423.3508" x2="918.0372" y2="-3423.3508" gradientTransform="matrix(0.911 0.651 -0.2284 0.1791 -989.2601 408.14)">
				<stop  offset="0" style="stop-color:#F5DCEB"/>
				<stop  offset="0" style="stop-color:#F5DCEB"/>
				<stop  offset="0.6" style="stop-color:#FACFF2"/>
				<stop  offset="1" style="stop-color:#FECEF4"/>
			</linearGradient>
			<path class="st14" d="M644.6,380.4l-301.7-87.7l2.7-79l301.7,87.6L644.6,380.4z"/>
			
				<linearGradient id="SVGID_16_" gradientUnits="userSpaceOnUse" x1="847.3282" y1="-3945.0916" x2="1088.3633" y2="-3945.0916" gradientTransform="matrix(0.9761 0.626 -0.1733 0.1919 -1133.62 447.96)">
				<stop  offset="0" style="stop-color:#FAD9EC"/>
				<stop  offset="0" style="stop-color:#FAD9EC"/>
				<stop  offset="0.6" style="stop-color:#FCCEF2"/>
				<stop  offset="1" style="stop-color:#FFD0F4"/>
			</linearGradient>
			<path class="st15" d="M619.2,364.7l-251.8-94l2.9-41.8l251.8,93.9L619.2,364.7z"/>
			
				<linearGradient id="SVGID_17_" gradientUnits="userSpaceOnUse" x1="1104.1" y1="-4449.356" x2="1291.526" y2="-4449.356" gradientTransform="matrix(1.0412 0.6011 -0.1182 0.2047 -1277.98 487.78)">
				<stop  offset="0" style="stop-color:#FFD7EC"/>
				<stop  offset="0.6" style="stop-color:#FFCEF3"/>
				<stop  offset="1" style="stop-color:#FFD2F5"/>
			</linearGradient>
			<path class="st16" d="M593.8,349L391.9,248.8l3.1-4.6l201.9,100.2L593.8,349z"/>
		</g>
	</g>
	<g class="st17">
		<path d="M1000,423v-19.3h-99.4v-47.9c0-3.4-3.1-6.2-6.9-6.2h-15.6c-3.8,0-6.9,2.7-6.9,6.2v47.9H870V369c0-3.4-3.1-6.2-6.9-6.2
			h-15.6c-3.8,0-6.9,2.7-6.9,6.2v34.7h-1.2v-24.5c0-3.4-3.1-6.2-6.9-6.2h-15.6c-3.8,0-6.9,2.8-6.9,6.2v24.5h-3.3
			c-2.9,0-5.3,2.1-5.3,4.8v9.7c0,2.7,2.4,4.8,5.3,4.8h3.3v24.5c0,3.4,3.1,6.2,6.9,6.2h15.6c3.8,0,6.9-2.8,6.9-6.2V423h1.2v34.7
			c0,3.4,3.1,6.2,6.9,6.2h15.6c3.8,0,6.9-2.8,6.9-6.2V423h1.2v47.9H762.6c6.9-10.3,10.3-22.5,9.8-34.9c-1-17.1-9.2-33-22.6-43.7
			c1.5-1.4,2.7-3.2,3.4-5.2c1.7-5.3,2.4-10.9,2-16.4c-1.7-24.2-23.6-32.7-50.5-33.8c-30.4-1.2-55.5,9.7-55.5,36.8
			c0,4.7,0.8,9.2,2.2,13.5c0.6,1.9,1.8,3.6,3.2,5c-24.3,18.7-29.9,53.1-12.8,78.6H410v-30c0-4.1-2.4-7.8-6-9.8v-5
			c3.5-1.3,6-4.4,6-8.1v-12.4c0-4.8-4.3-8.7-9.7-8.7H395v-5.6c0-1.6-1.5-2.9-3.3-2.9h-6.3c-1.8,0-3.3,1.3-3.3,2.9v5.6h-5.3
			c-5.3,0-9.7,3.9-9.7,8.7V418c0,3.7,2.5,6.8,6,8.1v5c-3.6,2.1-6,5.7-6,9.8v30h-41.6c-1.6-7.7-4.2-17.7-6.5-25.9
			c-3.1-9.6-12.2-16-22.3-15.6c0,0-3.4-18.3-7.8-39.2c-3.5-18.5-8.2-36.8-14-54.7c-8.2-20.6-15.8-44.1-15.8-44.1
			s29.2-49.7,31.3-57.2c2.1-7.5-9.4-16-9.4-16h-82.9c-25,5.2-47.4,61-47.4,61c-21.4-0.5-21.9,9.4-21.9,9.4L0,288.2v7.9h123.8
			l-0.5,8.4h38.1c18.8,23.5,31.3,135.1,31.3,135.1c-14.6-0.9-25,16-25,16H0V600h1000V470.8h-99.4V423H1000z M214.5,429.8
			c0,0-14.1-82.6-19.3-94.8c-5.2-12.2-13.6-33.8-13.6-33.8h62c0,0,14.6,36.1,18.2,48.3c3.6,12.2,16.2,80.2,16.2,80.2L214.5,429.8
			L214.5,429.8z M737,381c-0.3,0.8-0.7,1.5-1.2,2.2c-21.2-10.6-46.1-10.6-67.3,0c-0.5-0.6-0.9-1.3-1.1-2c-1-2.7-1.5-5.6-1.5-8.6
			c0-17.2,17.2-20.1,38-19.3c18.4,0.7,33.5,2.1,34.6,17.4C738.7,374.3,738.1,377.8,737,381z M126.2,83.6V0h-6v83.6
			c-19.3,0.4-36.1,13-42.1,31.3h31.3c0,6.9,6.2,12.5,13.9,12.5c7.6,0,13.8-5.6,13.9-12.5h31.3C162.4,96.6,145.5,84.1,126.2,83.6z
			 M906.2,83.6V0h-6v83.6c-19.2,0.5-36.1,13-42.1,31.3h31.3c0,6.9,6.2,12.5,13.9,12.5c7.6,0,13.8-5.6,13.9-12.5h31.3
			C942.3,96.6,925.5,84.1,906.2,83.6L906.2,83.6z"/>
	</g>
	<g class="st17">
		<path d="M607,289.2c-0.3-2.6-0.6-5.1-1-7.7l-0.5-2c-0.3-1.2-0.7-2.2-1.1-3c-0.7-1.6-1.4-2.4-2.1-2.4c-0.7,0-1.4,0.9-2,2.5
			l-0.9,2.9l-0.4,1.8l-0.6,2.1c-0.4,1.6-0.8,3.2-1.2,4.8l-1.6,5.6c-0.5,2-1.3,4.1-2,6.3c-0.6,2.2-1.6,4.5-2.5,6.9l-0.7,1.8l-0.8,1.8
			l-1.7,3.7c-0.5,1.3-1.3,2.5-1.9,3.8l-2,3.9l-2.3,3.9l-1.2,2l-1.3,1.9l-2.7,4l-3,3.9c-1,1.4-2.1,2.6-3.2,3.8
			c-1.1,1.3-2.2,2.6-3.4,3.8l-3.7,3.7l-4,3.5l-3.4,2.7c20.9-25.6,39-57.5,36.9-75.8c-1.9-16.5-29.7-46.2-61.7-69.7
			c-42.7-31.3-98.6-25.7-135.7,13.8c-24.8,26.4-46.4,59.4-35.5,87.6c15.5,39.9,69.5,69.3,110.5,80.1l3.7,1l5,1.2l5.2,0.9l2.7,0.4
			l0.6,0.1c6.7,0.9,12.7,1.2,17.6,0.7l2-0.1c2-0.1,4.1-0.2,6.1-0.5l6.2-0.8l6.3-1.3c8.4-2,16.9-5,25.1-9.3
			c8.1-4.4,15.5-9.7,21.8-15.5l4.6-4.4l4.2-4.7c1.4-1.5,2.6-3.2,3.8-4.8c1.2-1.6,2.5-3.2,3.5-4.8l3.2-4.9l2.8-4.9l1.3-2.4l1.2-2.5
			l2.2-4.8l1.8-4.8c0.6-1.6,1.2-3.1,1.6-4.7l1.3-4.5l0.6-2.2l0.4-2.2c0.6-2.7,1-5.4,1.3-8.2c0.2-2.6,0.6-5.1,0.5-7.4
			C607,293.3,607.1,291.2,607,289.2L607,289.2z"/>
		<path d="M439.4,182.2c0.5,2.9-7.9,6.5-20.1,13.1c-7,3.8-13.8,8-20.3,12.7c-19.2,13.7-34.8,31.7-45.6,52.7c-1.9,3.6-3.5,6.9-5,10.1
			c-5.8,12.5-8.9,21.1-11.9,20.8c-1.4-0.2-2.5-2.6-3.1-6.9s-0.4-10.6,1-18.3c0.7-3.8,1.8-7.9,3.1-12.3c10.6-31,34-56,64.3-68.5
			c4.3-1.7,8.3-3,12.1-3.9c5.9-1.6,12.1-2.3,18.2-2.1C436.7,179.8,439.1,180.8,439.4,182.2z"/>
	</g>
	<g class="st17">
		<path d="M783.6,260.3c-3.6-30.6,0.2-61.5,1.8-92.2c0.5-8.6,0.8-17.2,0.6-25.9c-0.1-7.6,0.5-16.5-3.1-23.7c-0.9-1.8-2.2-3.5-3.9-5
			l-0.4-0.8c-5.7-9.6-19.1-10-27.6-3.3c-12,9.4-9.8,24.2-7.5,36.9c7,38.6,5.5,76.2-0.5,114.6l-6.8,0.5v48.8l11.3,4l4.5-54l-5.8,0.4
			c7-32.1,8.6-65.2,4.7-97.9c-1.4-11.3-5.2-23.1-4.4-34.5c0.5-6.4,3-12.6,9-16.5c3.2-2,6.9-2.9,10.3-2.5c-2.6,0.5-4.9,1.9-6.6,3.9
			c-5.4,6.2-4.6,20.2,6.2,20.9c7.5,0.5,12.7-4.6,14.4-10.6l0.5,2.3c2.1,11.7,1.1,24.2,0.6,36c-0.5,12.1-1.5,24.2-2.4,36.3
			c-1.5,20.8-2.4,41.6,0.1,62.2h-4.1l4.5,44.7h13v-44.7h-8.4L783.6,260.3z M774.3,124.7c-1.4,2.2-2.9,4.3-5.7,4.5
			c-3,0.2-5.9-1.1-7.6-3.5c-4.8-7.2,5.4-14.5,12.8-10.9l0.9,0.5l0.6,1.5C776.3,119.9,776,122,774.3,124.7z"/>
		<path d="M773.7,115.7c0,1.9-1.7,3.4-3.8,3.4s-3.8-1.5-3.8-3.4s1.7-3.4,3.8-3.4S773.7,113.8,773.7,115.7z"/>
	</g>
	<path class="st18" d="M422.1,330.6l-0.3-0.9l-0.3,0.9c-0.8,2.4-2.2,4.3-4,5.6c1.8,1.2,3.2,3.2,4,5.6l0.3,0.9l0.3-0.9
		c0.8-2.4,2.2-4.3,4-5.6C424.2,334.8,422.8,332.9,422.1,330.6z M526.7,246.7l-0.3-0.9l-0.3,0.9c-0.8,2.4-2.2,4.3-4,5.6
		c1.8,1.2,3.2,3.2,4,5.6l0.3,0.9l0.3-0.9c0.8-2.4,2.2-4.3,4-5.6C528.8,250.9,527.4,248.9,526.7,246.7L526.7,246.7z M574.1,319
		l-0.3-0.9l-0.3,0.9c-0.8,2.4-2.2,4.3-4,5.6c1.8,1.2,3.2,3.2,4,5.6l0.3,0.9l0.3-0.9c0.8-2.4,2.2-4.3,4-5.6
		C576.2,323.2,574.8,321.2,574.1,319z M440,237.4l-0.3-0.9l-0.3,0.9c-0.8,2.4-2.2,4.3-4,5.6c1.8,1.2,3.2,3.2,4,5.6l0.3,0.9l0.3-0.9
		c0.8-2.4,2.2-4.3,4-5.6C442.1,241.6,440.7,239.6,440,237.4z M428,324.2l-0.2-0.6l-0.2,0.6c-0.4,1.4-1.3,2.6-2.5,3.4
		c1.1,0.8,2,2,2.5,3.4l0.2,0.6l0.2-0.6c0.4-1.4,1.3-2.6,2.5-3.4C429.4,326.9,428.5,325.7,428,324.2z M388.7,304.7l-0.2-0.6l-0.2,0.6
		c-0.4,1.4-1.3,2.6-2.5,3.4c1.1,0.8,2,2,2.5,3.4l0.2,0.6l0.2-0.6c0.4-1.4,1.3-2.6,2.5-3.4C390.1,307.4,389.2,306.2,388.7,304.7z
		 M448.9,240.7l-0.2-0.6l-0.2,0.6c-0.4,1.4-1.3,2.6-2.5,3.4c1.1,0.8,2,2,2.5,3.4l0.2,0.6l0.2-0.6c0.4-1.4,1.3-2.6,2.5-3.4
		C450.3,243.4,449.4,242.2,448.9,240.7z M538.9,339.2l-0.2-0.6l-0.2,0.6c-0.4,1.4-1.3,2.6-2.5,3.4c1.1,0.8,2,2,2.5,3.4l0.2,0.6
		l0.2-0.6c0.4-1.4,1.3-2.6,2.5-3.4C540.3,341.9,539.4,340.7,538.9,339.2z M544.3,228.1l-0.2-0.6l-0.2,0.6c-0.4,1.4-1.3,2.6-2.5,3.4
		c1.1,0.8,2,2,2.5,3.4l0.2,0.6l0.2-0.6c0.4-1.4,1.3-2.6,2.5-3.4C545.7,230.8,544.8,229.5,544.3,228.1z M365.3,249.1l-0.2-0.6
		l-0.2,0.6c-0.4,1.4-1.3,2.6-2.5,3.4c1.1,0.8,2,2,2.5,3.4l0.2,0.6l0.2-0.6c0.4-1.4,1.3-2.6,2.5-3.4
		C366.5,251.7,365.6,250.5,365.3,249.1z"/>
	<g>
		<path d="M159.7,285.3c7.1,5.4,11.5,12.6,13.2,21.7h-22.4c-1.5-3.1-3.7-5.6-6.8-7.5c-3-1.9-6.7-2.8-11-2.8c-6.7,0-12,2.2-16.1,6.7
			c-4,4.5-6.1,10.6-6.1,18.2c0,8.3,2.1,14.7,6.4,19.2c4.2,4.4,10.3,6.7,18.1,6.7c5,0,9.4-1.4,13.2-4.1c3.8-2.8,6.5-6.7,8-11.8h-26.7
			v-15.2h44.4v20.9c-1.6,5.1-4.3,9.8-7.9,14.2c-3.6,4.4-8.3,7.9-13.9,10.6c-5.6,2.7-12.1,4.1-19.3,4.1c-8.8,0-16.5-1.9-23.1-5.6
			c-6.6-3.7-11.7-9-15.3-15.8c-3.6-6.8-5.4-14.5-5.4-23.1c0-8.6,1.8-16.3,5.4-23.1c3.6-6.8,8.6-12,15.2-15.8
			c6.5-3.7,14.2-5.6,22.9-5.6C143.6,277.3,152.7,280,159.7,285.3z"/>
		<path d="M246,349.6h-32.7l-5.4,15.9h-22.2l32-86.7H242l32,86.7h-22.5L246,349.6z M240.6,333.5l-10.9-32.1l-11,32.1H240.6z"/>
		<path d="M312.8,278.1v87.4h-21.1v-87.4H312.8z"/>
		<path d="M419.7,365.5h-21.1l-35.3-53.6v53.6h-21.1v-87.4h21.1l35.3,54.1v-54.1h21.1V365.5z"/>
		<path d="M596.9,278.1L576,365.5h-26.2l-14-58.4l-14.1,58.4h-26.2l-20.9-87.4h23l11.2,63.3l15.3-63.3h23.1l15.3,63.3l11.4-63.3
			H596.9z"/>
		<path d="M629.1,294.9v18.3h29.5v15.9h-29.5v19.4h33.2v16.9H608v-87.4h54.4v16.8H629.1z"/>
		<path d="M695.5,278.1v87.4h-21.1v-87.4H695.5z"/>
		<path d="M778,285.3c7.1,5.4,11.5,12.6,13.2,21.7h-22.4c-1.5-3.1-3.7-5.6-6.8-7.5c-3-1.9-6.7-2.8-11-2.8c-6.7,0-12,2.2-16.1,6.7
			c-4,4.5-6.1,10.6-6.1,18.2c0,8.3,2.1,14.7,6.4,19.2c4.2,4.4,10.3,6.7,18.1,6.7c5,0,9.4-1.4,13.2-4.1c3.8-2.8,6.5-6.7,8-11.8H748
			v-15.2h44.4v20.9c-1.6,5.1-4.3,9.8-7.9,14.2c-3.6,4.4-8.3,7.9-13.9,10.6c-5.6,2.7-12.1,4.1-19.3,4.1c-8.8,0-16.5-1.9-23.1-5.6
			c-6.6-3.7-11.7-9-15.3-15.8c-3.6-6.8-5.4-14.5-5.4-23.1c0-8.6,1.8-16.3,5.4-23.1c3.6-6.8,8.6-12,15.2-15.8
			c6.5-3.7,14.2-5.6,22.9-5.6C761.9,277.3,770.9,280,778,285.3z"/>
		<path d="M879.7,278.1v87.4h-21.3v-36.4h-33.1v36.4h-21.1v-87.4h21.1V312h33.1v-33.9H879.7z"/>
		<path d="M957,278.1v16.8h-23.7v70.6h-21.3v-70.6h-23.5v-16.8H957z"/>
	</g>
</g>
<g>
<g class="armright">
		<path class="st20" d="M588.2,254.9c-1.2-1-3.7-3.1-5.3-4.4c-0.3,0-0.6-0.1-1-0.1c-1.2-0.2-2.5-0.3-3.7-0.6
			c-2.9-0.5-5.5-1.9-8.3-2.6c-2.3-0.6-4.3-1.7-6-3.1c-2-0.7-6.5-1.9-10.6-1.6c-5.4,0.4-8.5,8.2-8.5,8.2s-12.8-4.7-18-4.5
			c-5.1,0.9-10.1,2.4-14.9,4.5l-1.4-1.1l-0.2-0.1c0,0.4,0.1,0.7,0.1,1.1c0.1,3-0.6,5.6-1.9,7.9c1.4,2.9,2.2,6.1,2.4,9.3
			c0.1,1.2,0.1,2.3,0.1,3.5c0,0.4,0,0.8,0,1.1c0.3,1,0.5,2,0.8,2.9c0.2,0.4,0.5,1.3,0.7,1.8c0.6,1.2,1.3,2.3,2,3.4
			c-0.9-1.3-0.5-0.5,0.3,0.3c0.3,0.4,0.7,0.7,1,1.1c0.1,0,0.2,0,0.4,0.1c3.4,0.5,6.1,2.1,8.8,4c1.1-2,3.3-3.3,5.7-3.2
			c20.2,0.6,61.4-10.7,64.5-17.6c0.2-0.4,0.3-1,0.5-1.6C592.4,261.5,589.7,258.5,588.2,254.9z"/>
		<path class="st21" d="M542.4,249.7L542.4,249.7c-5-1.9-10.2-3.1-15.5-3.6c-5.1,0.9-10.1,2.4-14.9,4.5l-1.4-1.1l0,0
			c-0.1,1.2-0.3,2.5-0.3,3.7c-0.1,1.3-0.1,2.6,0,3.8c0.1,0.1,0.2,0.2,0.2,0.3c0.4,0.4,0.8,0.9,1.1,1.3c1.3,1.5,2.6,2.9,3.9,4.3
			c3.3,4,5.4,7.5,7.3,12.1c6.9,3.4,15.7,1.4,17.1-6.5C541.7,262.5,542.6,256.1,542.4,249.7z"/>
		<path class="st21" d="M566.8,254.7c-1.9-2.9-2.5-7-2-10.5c-1.4-0.5-6.6-2.2-11.2-1.9c-5.4,0.4-8.5,8.2-8.5,8.2H545
			c1,7.8,1.6,15.9,10.5,14.3c5.8-1.4,9.6-4.9,11.7-9.5C567.1,255.1,566.9,254.9,566.8,254.7z"/>
		<path class="st24" d="M533.6,249.9c-2.6-0.3-5.3-0.7-7.9-0.4v0c-1.9,0.2-8.5,1.5-6.1,4.8c1,1.5,2.7,0.5,4.2,0.5
			c2.3-0.1,4.3,0.7,6.4,1.5c1.8,0.6,3.7,1.2,5.6,0.6s3.4-2.6,2.7-4.4C537.8,250.7,535.5,250.2,533.6,249.9z"/>
		<path class="st24" d="M563.1,245.7c-0.5-0.4-1.1-0.7-1.7-0.8c-3-0.8-6.6-1.5-9.1,0.5c-2.8,2-4.5,6.2-4.2,9.5c0,0.2,0,0.4,0.2,0.6
			c0.2,0.3,0.5,0.4,0.8,0.5c1.3,0.3,2.7-0.5,3.7-1.4c1-0.9,1.9-2.1,3.1-2.8c1.1-0.6,2.4-0.8,3.6-1.1c1.2-0.3,2.5-0.7,3.4-1.6
			S564,246.6,563.1,245.7z"/>
		<path class="st22" d="M552,268.1c-1.8-0.9-4-2.8-5.4-5.4c-1.4-2.7-2.1-5.6-2.6-7.7l-0.8-3.5l-0.2,1c-0.5,2.2-0.6,4.4-0.3,6.6
			c0.3,3.5,2.1,6.6,5,8.6c1.2,0.8,2.5,1.3,3.9,1.5c1.2,0.2,2.2,0.1,2.8-0.1l0.7-0.2l-0.7-0.1C553.8,268.8,552.9,268.5,552,268.1z"/>
	</g>
	<g class="dumbbellright">
		<path class="st20" d="M569.9,234.9c-2.6,3.1-4.8,9.5-4.8,9.5s-0.2-0.1-0.4-0.2c0,0.1,0,0.2,0,0.2c-0.1,1.6-0.2,3.4-0.5,5
			c0,0.4,0.1,0.8,0.1,1.1c0,0.2,0,0.5,0,0.7c0.2,0.8,0.4,1.7,0.5,2.6c0.4,2.2,1.1,4.1,1.7,6.2c0.7,0.5,1.3,1,1.9,1.6
			c0.6,0.6,0.9,0.9,1.1,1.2c0.7,0.5,1.5,0.9,2.3,1.3c0.1,0,1.4,0.5,2,0.7c1.2,0.4,2.5,0.7,3.8,1.1c0,0,0,0,0,0c0.1,0,0.2,0,0.3,0
			c0.8,0,1.7,0,2.5,0c4.9-1.8,9.9-1.9,14.1,0.1c0.4-0.4,0.7-0.8,0.9-1.2c3.5-7.5-5-57-5-57.2h0c0-0.9,0.5-3.9,0.5-3.9
			s2-11.2,2.7-13.2c0.7-1.9-2.9-7.2-2.9-7.2s-3.1-4-4.6-4c-1.4,0.1-3.5,1.4-3.5,1.4s-1.9-1.5-3.3-1.4c-1.4,0.1-3,1.8-3,1.8
			s-2-0.9-2.9-0.7c-0.9,0.2-2.6,2.3-2.6,2.3s-1.5,6.3-1.4,7.5c0,0-2.5,2-3.2,3.3s3.1,6.6,3.1,6.6l3.6,1.1l3.6,5.1l0.8,1.2l0.9,7.6
			c0.1,5-0.1,11.9-1.9,13.8C573.4,232.1,572.5,231.8,569.9,234.9z"/>
		<path class="st22" d="M569.9,237.5l-0.6-0.8l0.2,1l0.3,2.5c0.1,2.2,0,5-0.6,8.1c-0.6,3-1.4,5.9-2,8l-0.7,2.5l-0.2,0.9l0.7-0.7
			l1.5-2.1c1.2-1.9,2.7-4.6,3.4-8.1c0.6-3.5,0.1-6.8-0.8-8.9C570.7,238.8,570.2,238,569.9,237.5z"/>
		<path class="st22" d="M591.2,244.3c-0.6,4.7-1.9,9.3-4.1,13.5c-0.8,1.5-1.6,2.9-2.8,4.1s-2.7,2-4.2,2.7c-2.2,1.1-5.8,1.5-3,3.9
			c2,1.7,5.5,1.5,7.6,0.6h0c1.4-0.6,2.5-1.5,3.8-2.2c1.4-0.8,3-1.5,3.6-3c0.3-0.6,0.3-1.3,0.3-2C592.7,256,593,249.9,591.2,244.3z"
			/>
		<path class="st21" d="M575.1,240.4c12.6-5.5,7.9-21.2,7.9-33c2.7,1.1,5.4,0.2,7.6-1.5l0.3-2c0,0,2-11.2,2.7-13.2
			c0.7-1.9-2.9-7.2-2.9-7.2s-3.1-4-4.6-4c-1.4,0.1-3.5,1.4-3.5,1.4s-1.9-1.5-3.3-1.4c-1.4,0.1-3,1.8-3,1.8s-2-0.9-2.9-0.7
			s-2.6,2.3-2.6,2.3s-1.5,6.3-1.4,7.5c0,0-2.5,2-3.2,3.3s3.1,6.6,3.1,6.6l3.6,1.1l3.6,5.1l0.8,1.2l0.9,7.6c0.1,5-0.1,11.9-1.9,13.8
			c-2.9,3-3.8,2.7-6.4,5.8l-0.7,1C570.1,239.1,571.3,242.1,575.1,240.4L575.1,240.4z"/>
		<path class="st24" d="M576.7,184.7c0-1.6,0-2.4,0.8-3.1c2.4-0.8,4.7,0.8,5.5,3.1c-0.8-3.1,2.4-3.9,4.7-3.1
			c2.8,2.4,4.9,5.6,5.9,9.1c0.6-2-2.9-7.1-2.9-7.1s-3.1-4-4.6-4c-1.4,0.1-3.5,1.4-3.5,1.4s-1.9-1.5-3.3-1.4c-1.4,0.1-3,1.8-3,1.8
			s-2-0.9-2.9-0.7s-2.6,2.3-2.6,2.3l-0.6,2.6C571.7,183.5,574.2,182.2,576.7,184.7L576.7,184.7z"/>
		<path class="st23" d="M579.5,207.2c0.7,1,2.3,1.1,3.1,0.2l0.3-0.2c0.2,0,0.3,0.1,0.4,0.3c0.5,0.5,1.2,0.6,1.9,0.4
			c0.7-0.2,1.2-0.6,1.7-1.1c-0.5,1.3-1.6,2-2.9,1.8h-0.4l-0.2,0.2l-0.4,1c-0.2-0.5-0.4-1.1-0.9-1.3c-0.5-0.1-1,0.2-1.5,0.1
			C579.9,208.6,579.7,207.8,579.5,207.2L579.5,207.2z M573.1,196.9c1.5,0.4,3.3,0.6,4.9,0.5l0.5-2.3l0.5,0.2c1.8,1.1,3.1,2.9,3.4,5
			c0.2-1.4,0-2.8-0.7-3.9l-0.7-0.8c0.8-0.1,1.5-0.4,2-0.7l0.3-0.2l0.2-0.2l0.1-0.1c0.2,0.3,0.6,0.4,0.9,0.5h0.2l0.9,0.1l1.1-0.1
			l1.2-0.4l1.2-0.7l0.3-0.2l0.5-0.4v-0.4l-0.1-0.3l-0.1-0.3l-0.3-1.7l-0.1-0.6l-0.3-2.5l-0.1-1.5v-0.6l-0.1,0.5l-0.2,1.5
			c-0.1,1-0.1,2.2,0.1,3.6c0,0.6,0.1,1.2,0.3,1.8v0.1h-0.1l-0.3,0.2l-1,0.7l-1,0.5l-0.6,0.2c-0.5,0-1-0.3-1.4-0.7l-0.1-0.1
			c-0.4-0.5-0.6-1-0.7-1.6c-0.6-2.1-0.6-4.4-0.6-6.6c-0.7,2.3-0.2,4.8-0.1,7.2c0,0.6,0,1.2-0.3,1.7l-0.3,0.4l-1.7,0.2h-1.2l-0.9-0.2
			l0.3-2.3c0.1-0.4-0.5-0.6-0.8-0.8l-0.9-0.4v-0.3l-0.2-2.6c-0.1-0.9-0.2-1.7-0.3-2.6l-0.1-0.8v-0.3l-0.1,0.3l-0.2,0.8
			c-0.1,0.7-0.3,1.6-0.2,2.7c0.1,1,0.4,2,0.7,2.6c-1.3-0.5-2.7-0.7-4.1-0.6V190l-0.2-1.7l-0.4-1.7l-0.2-0.7l-0.2,0.7
			c-0.1,0.5-0.2,1.1,0,1.8c0.1,0.7,0.4,1.3,0.7,1.7l0.2,0.3c-1.1,0-2,0.4-2.8,0.9c2.8-0.5,5.5-0.2,7.7,1.5l-0.1,2h-0.1h0.1l-0.4,1.9
			C575.5,196.9,574.4,197,573.1,196.9L573.1,196.9z M583.5,194.3C583.5,194.2,583.5,194.2,583.5,194.3
			C583.6,194.2,583.6,194.2,583.5,194.3C583.6,194.2,583.5,194.3,583.5,194.3z"/>
		<g>
			<path class="st35" d="M571.4,188.2l-16.4-0.6v5.8l11.7-0.5c0,0,3.5-2.8,5.5-2.7L571.4,188.2z M585.7,194.6l17.5,0.1l0.1-6.5
				l-14.4,0.6l0.4,4.5L585.7,194.6z"/>
			<path class="st36" d="M555.1,193.4v-5.8l5,0.2c2.2,1.6,5.2,2.3,7.9,2.6l2.6,0.3c-1.8,0.8-3.8,2.3-3.8,2.3L555.1,193.4z
				 M603.2,194.7l-17.5-0.1l3.6-1.3l-0.2-1.6c4.7,0.3,9.4,0.8,14.1,1.8L603.2,194.7L603.2,194.7z"/>
			<path class="st37" d="M610,216.9c0,0,6.8-18,6-28.5s-4.9-23-6.8-25.4l-9.2-0.6c0,0-4,47.8-0.2,53L610,216.9z"/>
			<path class="st38" d="M603.5,205.4c1.1-14.5,0.4-28.8,5.7-42.2c2,2.6,5.9,14.9,6.8,25.3c0.8,10.5-6,28.5-6,28.5l-6.1-0.9
				C603.4,212.5,603.2,208.9,603.5,205.4L603.5,205.4z"/>
			<path class="st37" d="M618.1,210.3c0,0,5.2-13.7,4.5-21.6c-0.6-8-3.7-17.5-5.2-19.3l-7-0.5c0,0-3.1,36.3-0.2,40.3L618.1,210.3z"
				/>
			<path class="st38" d="M616.4,169.4h1c3,6,4.7,12.6,5.2,19.3c0.6,8-4.5,21.6-4.5,21.6l-1.1-0.2
				C611.6,197.1,611.4,182.6,616.4,169.4L616.4,169.4z"/>
			<path class="st37" d="M617.9,183.1l9.4,1.2c2.2,2,2.8,10,2.8,10l-9.9,2.7L617.9,183.1z"/>
			<path class="st38" d="M624.8,183.9l2.4,0.3c2.2,2,2.8,10,2.8,10l-4.7,1.3C623.6,191.8,623.5,187.7,624.8,183.9z"/>
			<g>
				<path class="st37" d="M550.8,219.1c0,0-8.6-17.2-8.8-27.7s2.5-23.4,4.2-25.9l9.1-1.5c0,0,8.8,47.2,5.5,52.7L550.8,219.1z"/>
				<path class="st38" d="M556.1,207c-2.5-14.3-3.3-28.6-9.9-41.4c-3,8.3-4.4,17-4.2,25.8c1.4,9.7,4.4,19,8.8,27.7l6-1.5
					C557,214,556.8,210.5,556.1,207L556.1,207z"/>
				<path class="st37" d="M542.2,213.3c0,0-6.5-13.1-6.7-21.1c-0.2-6.7,0.9-13.4,3.2-19.7l6.9-1.2c0,0,6.7,35.9,4.2,40.1
					L542.2,213.3L542.2,213.3z"/>
				<path class="st38" d="M539.7,172.5C539.7,172.5,539.7,172.4,539.7,172.5l-1,0.1c-2.3,6.3-3.4,13-3.2,19.7
					c0.2,8,6.7,21.1,6.7,21.1l1.1-0.3C547.1,199.6,545.9,185.1,539.7,172.5z"/>
				<path class="st37" d="M539.6,186.2l-9.2,2.1c-2,2.2-1.8,10.2-1.8,10.2l10.1,1.7L539.6,186.2z"/>
				<path class="st38" d="M532.8,187.8l-2.4,0.6c-2,2.2-1.8,10.2-1.8,10.2l4.9,0.8C534.6,195.5,534.6,191.1,532.8,187.8z"/>
			</g>
		</g>
	</g>
	<g class="armleft">
		<path class="st20" d="M423,284.6c1.7-1.3,3.5-2.3,5.5-3c1.3-0.5,4-2,1.4-0.5c0.2-0.1,0.9-0.5,1.5-0.9c0.5-0.4,1.3-1.1,1.5-1.2
			c1.3-1,2.6-2,3.9-3c0.4-1.4,0.7-2.9,1-4.4c0.3-1.6,0.5-3.2,0.8-4.8c0-0.2,0.1-0.4,0.1-0.6c0.4-3.3,1.4-6.2,2.9-8.7
			c-0.6-1.5-1.1-3.1-1.3-4.7c-0.2-1-0.2-1.9-0.3-2.8c-0.2,0.1-0.4,0.3-0.6,0.5c-4.8-2-9.8-3.5-14.9-4.5c-5.2-0.2-18,4.5-18,4.5
			s-3.2-7.8-8.5-8.2c-4.4-0.3-9.3,1.2-11,1.8c-0.7,0.6-1.5,1.1-2.4,1.4c-2.8,1.2-5.5,2.3-8.3,3.4c-0.6,0.2-3.3,1.3-4,1.5
			c-0.3,0.1-0.6,0.3-1.1,0.5c-0.9,0.5-1.9,1-2.8,1.5c-0.3,0.2-0.5,0.3-0.7,0.5c-0.6,0.5-1.2,1.1-1.8,1.6c-1.4,1.2-2.9,2.4-4.4,3.6
			c0.8,2.5,1,5.3,0.5,8.2c5,4.7,13.3,8.7,27.6,10.8c0,0,22.5,2.2,30.7,5.2C421.3,282.6,422.2,283.5,423,284.6z"/>
		<path class="st21" d="M515.6,249.1c0.6,0.4,1.2,0.8,1.8,1.2c0,0,0,0,0,0c0.1-0.1,0.1-0.2,0.2-0.3c0.6-0.8,1.3-1.5,1.9-2.3
			C518.2,248.2,516.9,248.6,515.6,249.1z"/>
		<path class="st21" d="M405.3,248.2c-1.4-2.3-3.9-5.6-7.3-5.8c-5.4-0.4-11.6,2-11.6,2l-0.8-2.1c-0.4,4.5-2.4,9.2,1,11.5
			C393.1,258.4,399.8,254.3,405.3,248.2z"/>
		<path class="st21" d="M427.5,269.8c0.1,0,0.2,0,0.2,0c0.4-0.2,0.8-0.3,1.2-0.5c1.1-1.9,2.5-3.6,4.1-5.3c0.1-0.2,0.3-0.3,0.4-0.4
			c0,0,0,0,0-0.1c0.6-1.5,1.7-3,2.4-4.5c1.1-2,2.2-4,3.4-6c-0.1-0.9-0.2-1.8-0.2-2.7c-4.7-2-9.5-3.4-14.5-4.3
			c-5.2-0.2-18,4.5-18,4.5l-0.7-1.4c-2,3.4-3.1,7.1-1.9,10.9c3,6.9,12,9.2,20.3,10.1C425.3,269.9,426.4,269.8,427.5,269.8z"/>
		<path class="st24" d="M397.6,245.3l-2.6-0.8c-1.1,0.1-2.1,0.3-3.2,0.7c-0.7,0.2-1.4,0.4-1.8,1c-0.4,0.5-0.4,1.5,0.2,1.8l0.8,0.1
			l9.4,0.2c0.3,0,0.8-0.1,0.8-0.4l-0.1-0.4C400.5,246.2,399,245.6,397.6,245.3z"/>
		<path class="st24" d="M424.2,249.3c-2.2-0.3-13.8-0.1-12.7,3.4c0.6,2,10.2,2.3,12.8,3.3c1.1,0.5,2.3,1,3.5,1.3
			c1.2,0.3,2.6,0.3,3.7-0.3l0.5-0.4c0.4-0.5,0.2-1.2,0-1.8C430.8,251.9,427.7,249.7,424.2,249.3z"/>
		<path class="st22" d="M406.4,267c1.3,0.6,2.5,1,3.5,1.2c2.1,0.5,3.7,0.5,4.4,0.5h0.2v-0.1l-0.1-0.7l-0.1,0.4l-3.8-1.7
			c-1.8-0.9-3.9-2.1-5.4-4c-1.9-2.4-2.6-5.3-2.6-7.4c-0.1-1.1,0.1-2,0.2-2.6l0.2-1l-0.6,0.8c-0.6,0.8-1,1.7-1.2,2.6
			C399.6,259.8,401.8,264.9,406.4,267z"/>
		<path class="st22" d="M383.1,262l0.6,0.5h0l-0.2-0.6c-0.1-0.5-0.3-1.2-0.3-2.1c-0.1-1.7,0.3-4.1,0.8-6.7l1.3-6.9l0.4-3l-1.7,2.5
			c-0.9,1.6-2.1,3.9-2.7,6.8c-0.6,2.5-0.4,5.1,0.5,7.5C382.2,261,382.7,261.6,383.1,262z"/>
	</g>
	<g class="dumbbellleft">
		<path class="st20" d="M356.7,258.6c1.8,4.1,4.9,8.2,10.8,11.6c1.3-0.2,2.7-0.5,4-0.7c1-0.2,2.2-0.6,3.3-0.8c0.8-0.7,2.2-2,0.5-0.1
			c0.6-0.7,1.3-1.3,1.9-1.9c0.2-0.2,0.3-0.3,0.4-0.4c0,0,0,0,0-0.1c1.3-1.8,2.6-3.6,3.9-5.4c0.2-0.3,0.5-0.6,0.7-0.9
			c1.1-5.2,2.5-10.7,4.5-15.7c-0.2,0.1-0.3,0.1-0.3,0.1s-2.1-6.4-4.8-9.5c-2.7-3.1-3.5-2.8-6.4-5.8c-1.6-1.7-1.9-7.4-1.9-12.2
			l1.2-9.1l0.8-1.2l3.6-5.1l3.6-1.1c0,0,3.8-5.3,3.1-6.6s-3.2-3.3-3.2-3.3c0.1-1.2-1.4-7.5-1.4-7.5s-1.7-2.2-2.6-2.3
			c-0.9-0.2-2.9,0.7-2.9,0.7s-1.5-1.7-3-1.8c-1.4-0.1-3.3,1.4-3.3,1.4s-2-1.3-3.5-1.4c-1.4-0.1-4.6,4-4.6,4s-3.6,5.3-2.9,7.2
			c1.3,5.6,2.4,11.4,3.2,17.1C361.5,208,353.3,251,356.7,258.6z"/>
		<path class="st24" d="M375.1,184.7c0-1.6,0-2.4-0.8-3.1c-2.4-0.8-4.7,0.8-5.5,3.1c0.8-3.1-2.4-3.9-4.7-3.1
			c-2.8,2.4-4.9,5.6-5.9,9.1c-0.6-2,2.9-7.1,2.9-7.1s3.1-4,4.6-4c1.4,0.1,3.5,1.4,3.5,1.4s1.9-1.5,3.3-1.4s3,1.8,3,1.8
			s2-0.9,2.9-0.7s2.6,2.3,2.6,2.3l0.6,2.6C380.1,183.5,377.6,182.2,375.1,184.7L375.1,184.7z"/>
		<path class="st23" d="M372.3,207.2c-0.7,1-2.3,1.1-3.1,0.2c-0.1-0.1-0.1-0.2-0.3-0.2c-0.2,0-0.3,0.1-0.4,0.3
			c-0.5,0.5-1.2,0.6-1.9,0.4c-0.7-0.2-1.2-0.6-1.7-1.1c0.5,1.3,1.6,2,2.9,1.8h0.4l0.2,0.2l0.4,1c0.2-0.5,0.4-1.1,0.9-1.3
			c0.5-0.1,1,0.2,1.5,0.1C371.9,208.6,372.1,207.8,372.3,207.2z M375.1,196.5c-0.2-0.6-0.4-1.2-0.4-1.9l0,0l-0.1-2
			c2.2-1.7,5-2,7.7-1.5c-0.8-0.5-1.7-0.9-2.8-0.9l0.2-0.3c0.3-0.4,0.5-1,0.7-1.7v-1.8l-0.2-0.7l-0.2,0.7l-0.4,1.7l-0.2,1.7v0.4
			c-1.4,0-2.8,0.1-4.1,0.6c0.3-0.6,0.6-1.5,0.7-2.6c0.1-1,0-2-0.2-2.7c-0.1-0.3-0.2-0.5-0.2-0.8l-0.1-0.3v0.3l-0.1,0.8
			c-0.1,0.9-0.2,1.7-0.3,2.6l-0.2,2.6v0.3l-0.9,0.4c-0.3,0.2-0.9,0.4-0.8,0.8l0.3,2.3l-0.9,0.2h-1.2l-1.7-0.2
			c-0.1-0.1-0.3-0.2-0.3-0.4c-0.3-0.5-0.3-1.1-0.3-1.7c0.1-2.4,0.6-4.9-0.1-7.2c0,2.2,0,4.5-0.6,6.6l-0.7,1.6l-0.1,0.1
			c-0.4,0.4-0.9,0.7-1.4,0.7l-0.6-0.2l-1-0.5l-1-0.7l-0.3-0.2h-0.1v-0.1l0.1-0.4l0.2-1.4l0.1-3.6c0-0.5-0.1-1-0.2-1.5l-0.1-0.5v0.6
			l-0.1,1.5l-0.3,2.5l-0.1,0.6l-0.3,1.7l-0.1,0.3l-0.1,0.3v0.4l0.5,0.4l0.3,0.2l1.2,0.7l1.2,0.4l1.1,0.1l0.9-0.1h0.2
			c0.4-0.1,0.7-0.2,0.9-0.5l0.1,0.1l0.2,0.2l0.3,0.2c0.5,0.3,1.2,0.6,2,0.7l-0.7,0.8c-0.7,1.2-0.8,2.6-0.7,3.9
			c0.3-2.1,1.6-3.9,3.4-5l0.5-0.2l0.5,2.3c1.5,0.1,3.4-0.1,4.9-0.5C377.4,197,376.3,196.9,375.1,196.5L375.1,196.5z M368.2,194.2
			C368.3,194.2,368.3,194.2,368.2,194.2C368.3,194.3,368.2,194.2,368.2,194.2z"/>
		<path class="st21" d="M375.2,229.1c-1.6-1.7-1.9-7.4-1.9-12.2l1.2-9.1l0.8-1.2l3.6-5.1l3.6-1.1c0,0,3.8-5.3,3.1-6.6
			c-0.7-1.3-3.2-3.3-3.2-3.3c0.1-1.2-1.4-7.5-1.4-7.5s-1.7-2.2-2.6-2.3c-0.9-0.2-2.9,0.7-2.9,0.7s-1.5-1.7-3-1.8
			c-1.4-0.1-3.3,1.4-3.3,1.4s-2-1.3-3.5-1.4c-1.4-0.1-4.6,4-4.6,4s-3.6,5.3-2.9,7.2c1.2,4.9,2.1,9.8,2.9,14.8c3.7,2.5,9.7,2.1,9,4.2
			l0,0c-0.8,9.4-2.4,18.8-0.8,28.3c0,2.4,2.4,6.3,4.7,6.3c4,1.2,8.3,0.8,11.9-1.3c-0.8-2-2.4-6-4.3-8.2
			C378.9,231.8,378.1,232.1,375.2,229.1z"/>
		<path class="st22" d="M361,247.3c-1.1,3.6-1.6,7.3-1.4,11.1c0,0.9,0.1,1.9,0.5,2.8c0.9,1.8,3.1,2.4,4.9,3.2
			c2.5,1.2,4.8,3.2,7.6,3.1c-3.2-3.4-5.9-7.1-8.3-11.1C362.8,253.6,362.6,249.9,361,247.3z"/>
		<g>
			<path class="st35" d="M380.4,188.2l16.4-0.6v5.8l-11.7-0.5c0,0-3.5-2.8-5.5-2.7L380.4,188.2L380.4,188.2z M366.1,194.6l-17.5,0.1
				l-0.1-6.5l14.4,0.6l-0.4,4.5L366.1,194.6z"/>
			<path class="st36" d="M396.7,193.4v-5.8l-5,0.2c-2.4,1.5-5.1,2.4-7.9,2.6l-2.6,0.3c1.8,0.8,3.8,2.3,3.8,2.3L396.7,193.4z
				 M348.6,194.7l17.5-0.1l-3.6-1.3l0.2-1.6c-4.7,0.3-9.4,0.8-14.1,1.8V194.7L348.6,194.7z"/>
			<path class="st37" d="M341.8,216.9c0,0-6.8-18-6-28.5s4.9-23,6.8-25.4l9.2-0.6c0,0,4,47.8,0.2,53L341.8,216.9z"/>
			<path class="st38" d="M348.3,205.4c-1.1-14.5-0.4-28.8-5.7-42.2c-2,2.6-5.9,14.9-6.8,25.3c-0.8,10.5,6,28.5,6,28.5l6.1-0.9
				C348.4,212.5,348.6,208.9,348.3,205.4L348.3,205.4z"/>
			<path class="st37" d="M333.7,210.3c0,0-5.2-13.7-4.5-21.6c0.6-8,3.7-17.5,5.2-19.3l7-0.5c0,0,3.1,36.3,0.2,40.3L333.7,210.3
				L333.7,210.3z"/>
			<path class="st38" d="M335.4,169.4h-1c-3,6-4.7,12.6-5.2,19.3c-0.6,8,4.5,21.6,4.5,21.6l1.1-0.2
				C340.1,197.1,340.3,182.6,335.4,169.4L335.4,169.4z"/>
			<path class="st37" d="M333.9,183.1l-9.4,1.2c-2.2,2-2.8,10-2.8,10l9.9,2.7L333.9,183.1z"/>
			<path class="st38" d="M327,183.9l-2.4,0.3c-2.2,2-2.8,10-2.8,10l4.7,1.3C328.1,191.8,328.2,187.7,327,183.9L327,183.9z"/>
			<g>
				<path class="st37" d="M401,219.1c0,0,8.6-17.2,8.8-27.7c0.2-8.8-1.2-17.6-4.2-25.9l-9.1-1.5c0,0-8.8,47.2-5.5,52.7L401,219.1
					L401,219.1z"/>
				<path class="st38" d="M395.7,207c2.5-14.3,3.3-28.6,9.9-41.4c3,8.3,4.4,17,4.2,25.8c-1.4,9.7-4.4,19-8.8,27.7l-6-1.5
					C394.8,214,395,210.5,395.7,207L395.7,207z"/>
				<path class="st37" d="M409.6,213.3c0,0,6.5-13.1,6.7-21.1c0.2-6.7-0.9-13.4-3.2-19.7l-6.9-1.2c0,0-6.7,35.9-4.2,40.1
					L409.6,213.3L409.6,213.3z"/>
				<path class="st38" d="M412.1,172.5C412.1,172.5,412.1,172.4,412.1,172.5l1,0.1c2.3,6.3,3.4,13,3.2,19.7
					c-0.2,8-6.7,21.1-6.7,21.1l-1.1-0.3C404.6,199.6,405.9,185.1,412.1,172.5z"/>
				<path class="st37" d="M412.2,186.2l9.2,2.1c2,2.2,1.8,10.2,1.8,10.2l-10.1,1.7L412.2,186.2z"/>
				<path class="st38" d="M419,187.8l2.4,0.6c2,2.2,1.8,10.2,1.8,10.2l-4.9,0.8C417.2,195.5,417.2,191.1,419,187.8z"/>
			</g>
		</g>
	</g>
	<path class="st19" d="M589.9,541.8c0,0-49,14.2-109.5,14.2s-109.5-14.2-109.5-14.2s49-14.2,109.5-14.2S589.9,541.8,589.9,541.8z"/>
	<g>
		<path class="st20" d="M525.2,273.8c-0.5-2-1.1-4-1.7-6c-0.3-1-0.6-1.9-1-2.8c-2.1-3.2-4.3-6.4-6.3-9.7c-1.9-1.4-3.4-3-4.5-4.9
			l-1.1-0.8l-19.8-11.3l-2.4-14H463l-2.4,14l-19.7,11.2c0,0-0.2,0.1-0.5,0.3c-0.7,1.8-1.8,3.6-3.4,5.2c-0.7,0.8-1,1.2-1,1.1
			c-0.4,0.6-0.8,1.1-1.2,1.7c-1.2,1.8-2.2,3.6-3.3,5.4c-2.2,3.6-4.7,7.1-7.4,10.3c-0.5,0.6-1,1.2-1.6,1.8c0.8,2.8,0.9,5.8,0.2,8.7
			c3.2,4.1,5.8,13.7,5.8,14.3c0,0,0.7,12.2,15.3,25.4c0,0,3,27.1,0.3,39.9l62.3-2.7c-2.7-12.9,1.6-37.2,1.6-37.2
			c7.2-6.7,12.2-15.4,14.5-25c1.1-4,1.7-7.7,2-10.6c0.2-1.6,0.9-3,2.1-4C525.6,280.8,525.2,277.3,525.2,273.8z"/>
		<path class="st21" d="M522.9,288.3L522.9,288.3c-5,6-8,14-14,19c-10,8-25,6-33-5c-8,8-18,10-29,7c-12.5-2.9-16.7-15-24.1-24.8
			c2.5,4.3,4.4,9,5.6,13.9c0,0,0.7,12.2,15.3,25.4c0,0,0.7,6.4,1.1,14.4c6.1,7.1,9.9,15.8,11.1,25l34.8-1.5
			c3.3-9.6,8.6-18.4,15.6-25.8c0.7-6.9,1.7-12.1,1.7-12.1c7.2-6.7,12.2-15.4,14.5-25c1.1-4,1.7-7.7,2-10.6l0.4-1.7
			C524,287,523.2,287.6,522.9,288.3z"/>
		<path class="st21" d="M518.6,268.9c-2.4-5.3-5.3-11.9-6.5-18.3c-0.1,0-0.1,0-0.2,0.1l-1.4-1.1l-19.7-11.3l-2.4-14H463l-2.4,14
			l-19.7,11.2c0,0-0.5,0.3-1.3,1c-2.5,4.4-5.6,8.4-9.2,12.1c-2.3,2.4-4.5,5.1-7,7.5c0.6,0.1,1.1,0.1,1.7,0.2
			c-2.4,14.9,10.2,24.3,19.6,32.2c9.6,8.1,22.5,3.1,30.6-4.7c6,6.5,13.9,11.3,22.8,9.4c14.1-3.1,20.4-18.8,22.8-33
			c0.3,0.2,0.7,0.4,1,0.6C520.7,272.9,519.6,271,518.6,268.9z"/>
		<path class="st22" d="M466.7,256.5l0.4,1.1l0.3,1l-0.6-0.9c-0.4-0.6-0.9-1.7-1.9-2.7c-0.5-0.5-1.1-0.8-1.8-0.9l-2.6-0.5
			c-5.2-1-9.3-2.4-9.3-2.4s4.3,0.1,9.6,1.1l2.7,0.6c0.9,0.3,1.7,0.8,2.2,1.5c0.5,0.6,0.8,1.3,1,1.8l0.4,1.4l-0.3,0.1L466.7,256.5
			L466.7,256.5z M496.7,247.3l-0.5,0.6c-0.3,0.4-0.9,0.9-1.7,1.4s-1.7,1-2.9,1.4l-3.6,1.2c-1.2,0.4-2.4,0.9-3.3,1.5
			c-0.8,0.5-1.5,1.2-2.1,2c-0.5,0.7-1.1,1.3-1.6,1.5c-0.5,0.2-0.8,0.1-0.8,0.1s0.3,0,0.7-0.3c0.4-0.3,0.7-0.9,1.1-1.7
			c0.4-0.8,1-1.8,2-2.6c1.1-0.8,2.2-1.5,3.5-1.9c1.3-0.5,2.5-0.8,3.7-1.1l2.9-0.9l1.8-0.9L496.7,247.3L496.7,247.3z M482.1,240.8
			l-0.2,1.2c-0.2,0.8-0.4,1.9-0.9,3.2c-0.5,1.6-1.1,3.1-1.9,4.5c-0.4,0.8-1,1.7-1.8,2.5c-0.9,0.7-2.1,1.2-3.4,1
			c-0.7-0.1-1.3-0.4-1.7-0.9c-0.4-0.4-0.8-0.9-1-1.4l-1.2-2.7c-0.6-1.5-1.1-3.1-1.5-4.7c-0.4-1.3-0.6-2.5-0.7-3.2l-0.2-1.2l0.4,1.1
			l1.2,3.1l1.9,4.4l1.3,2.5c0.5,0.8,1.1,1.5,1.8,1.6c0.8,0.1,1.7-0.2,2.3-0.7c0.7-0.5,1.2-1.3,1.7-2c0.8-1.4,1.6-2.8,2.3-4.2l1.3-3
			L482.1,240.8L482.1,240.8z M446.3,312.6l-1-1.1c-0.8-0.9-1.7-2.2-2.7-3.6c-1.1-1.6-2-3.4-2.8-5.2l-0.2-0.5l-0.1,0.5
			c-0.1,0.5-0.2,1-0.2,1.5l0.3,2.3c0.1,0.6,0.4,1.2,0.7,1.8l-0.4-0.2l-2.3-1.3c-0.8-0.5-1.5-1-2.2-1.5l-0.7-0.6l-0.3-0.3l-0.1,0.4
			v1.1l0.6,1.5c0.7,1.1,1.9,1.9,3.3,2.1c0.5,0.1,1.1,0,1.6-0.1l0.6-0.2c-0.3,0.5-0.5,1.2-0.6,1.9c-0.1,0.8-0.1,1.7,0.2,2.6
			c0.5,1.5,1.4,2.8,2.7,3.7l0.7,0.4l0.6,0.2l0.5,0.1l-0.3-0.4l-0.6-1.1l-0.7-1.6l-0.6-1.9l-0.5-2l-0.1-0.6l1,1l2,1.2l1.5,0.5
			l0.6,0.1L446.3,312.6L446.3,312.6z M518.6,302.1l-0.3,0.3l-0.7,0.7l-2.2,2l-0.8,0.7l0.7-1.7c0.3-1,0.5-1.8,0.5-2.6v-1.8l-0.1-0.6
			l-0.3,0.6l-0.7,1.5c-0.6,1.3-1.6,2.8-2.7,4.5c-1.1,1.7-2.3,3.1-3.2,4.2l-1.1,1.2l-0.4,0.5l0.6-0.2l1.6-0.6
			c0.7-0.3,1.4-0.8,2.2-1.4l0.3-0.3l-0.2,2.2l-0.2,2.5l-0.1,0.9l-0.1,0.4l0.3-0.1l0.8-0.5c0.9-0.7,1.4-1.8,1.5-2.9
			c0.1-1.3-0.4-2.5-1-3.1l-0.2-0.2l0.1-0.2h0.4c2.6,0,4.8-1.9,5.1-4.5v-1.1L518.6,302.1L518.6,302.1z M487.8,308
			C487.8,308,487.9,308,487.8,308c0.2,0.1,0.1,0.2,0,0.3c-0.1,0.1-0.2,0.2-0.5,0.2l-0.6-0.2c-0.8-0.2-2-0.6-3.5-1.3
			c-2.7-1.1-5.2-2.8-7.3-4.9l-0.6-0.6l-0.3-0.3l-0.2,0.1l-0.7,0.6l-1.4,1.1c-2.5,1.6-5.2,2.7-8.1,3.3L461,307l-1.3,0.2l4.5-2.1
			c1.4-0.7,3-1.4,4.6-2.4l2.5-1.7l1.2-1l0.6-0.5l0.2-0.2l0.3-0.3l0.6-0.7l0.6-0.6c0.2-0.2,0.4-0.6,0.6-0.2l1.1,1.3l0.6,0.6l0.3,0.3
			l0.5,0.6c1.9,2,3.9,3.9,6.1,5.5c0.9,0.7,1.9,1.4,3,2l0.5,0.3L487.8,308C487.9,308.2,487.9,308.1,487.8,308
			C487.9,308,487.8,308,487.8,308L487.8,308z"/>
		<path class="st23" d="M452.6,298.9c0,1.3-1.9,2.4-4.1,2.4c-2.3,0-4.1-1.1-4.1-2.4s1.9-2.4,4.1-2.4S452.6,297.6,452.6,298.9z"/>
		<ellipse class="st23" cx="503.2" cy="298.9" rx="4.1" ry="2.4"/>
		<path class="st20" d="M463,224.2l-1.3,7.6c7.3,8.4,19.9,6.7,28.1,0.4l-1.3-8H463L463,224.2z"/>
		<path class="st20" d="M482.9,268.1c-1.9,0.3-3.8,0.5-5.6,1.3c-1.8,0.7-3.2,2.1-4,3.9c-0.4,1.2-0.4,2.5-0.4,3.8
			c0,2.8,0.1,5.6,0.9,8.2c0.1,0.4,0.3,0.9,0.7,1c-0.1-3.5,0.4-6.8,1.5-10.1S479.6,269.1,482.9,268.1L482.9,268.1z M439.1,255.3
			l0.3,0.6l0.3,0.8l0.2,1.1v2.9c-0.4,2.3-1.7,4.5-3.5,6c-0.9,0.7-1.7,1.1-2.5,1.4l-1,0.3l-0.8,0.1l-0.7,0.1l0.5-0.4l0.6-0.5l0.7-0.7
			c1.1-1.4,2.2-2.8,3.2-4.3l1.3-2.6c0.4-0.8,0.6-1.6,0.8-2.3l0.2-1l0.2-0.8L439.1,255.3L439.1,255.3z M519.1,269.2l0.2,0.8v0.2h-1.7
			c-0.6-0.1-1.2-0.4-1.8-0.8c-1.2-0.8-2.4-2.1-3.2-3.6c-1.2-2-1.7-4.2-1.7-5.9c0-0.8,0.2-1.4,0.3-1.9l0.2-0.6l0.2,0.6l0.6,1.6
			c0.6,1.3,1.6,2.9,2.7,4.8c0.8,1.4,1.4,2.6,2.1,3.6c0.6,0.7,1.2,1.3,2,1.7l-0.3,0.2L519.1,269.2L519.1,269.2z"/>
		<path class="st24" d="M496.3,267.7c-1,0-1.9,0.2-2.8,0.4c-3.2,0.6-6.4,1.3-9,3.2c-2.2,1.8-3.9,4.2-4.6,7c-0.7,2.8-0.9,5.7-0.5,8.5
			c3.7-7.2,12.1-10.6,18.1-16c0.5-0.5,1-1,1.2-1.6C498.9,268.5,497,267.7,496.3,267.7z M458.5,271.4c1.9,0.6,3.8,1.5,5.2,2.8
			c2.5,2.4,3.4,6,4.2,9.4c1.3-4.8,1.6-10.4-1.2-14.6c-0.5-0.8-1.2-1.6-2-2.1c-1.2-0.7-2.5-0.7-3.9-0.8c-1.8-0.1-11.1-1.4-11.7,1
			C448.3,270.1,456.9,270.9,458.5,271.4L458.5,271.4z"/>
		<path class="st22" d="M478.4,332.6c1.4,0.3,2.7,0.3,3.9,0.2c2.2-0.1,4.3-0.7,6.2-1.8c1.2-0.8,2.2-2.1,2.6-3.5l0.1-1.1V326
			l-0.1,0.4l-0.4,1c-0.4,0.8-1.3,1.9-2.8,2.5s-3.4,0.8-5.6,0.7c-1.1,0-2.2-0.1-3.2-0.4c-0.5-0.1-1-0.3-1.4-0.6l-0.5-0.4l-0.1-0.1
			l-0.2-0.2l-0.2-0.3l-0.5-5.7h0.1c0.6,0.4,1.4,0.7,2.1,0.8c1.4,0.3,2.7,0.3,3.9,0.2c2.2-0.1,4.3-0.7,6.2-1.8
			c1.2-0.8,2.2-2.1,2.6-3.5l0.1-1.1v-0.4l-0.1,0.4l-0.4,1c-0.4,0.8-1.3,1.9-2.8,2.5s-3.4,0.8-5.6,0.7c-1.1,0-2.2-0.1-3.2-0.4
			c-0.5-0.1-1-0.3-1.4-0.6l-0.5-0.4l-0.1-0.1l-0.2-0.2l-0.3-0.4l-0.6-0.9v-0.1l-0.2,0.1c-0.2-2.8-0.5-5.6-0.9-8.4c0,0-0.4,2-0.7,5.4
			l-0.3,4.1l-0.7,0.4l-1.6,0.8c-1,0.5-2.1,0.8-3.1,1c-1.7,0.4-3.6,0-5-1.1c-1-0.9-1.8-1.9-2.3-3.1l-0.4-1l-0.1-0.4v0.4l0.2,1.1
			c0.2,1,0.6,2.4,1.8,3.9c0.6,0.7,1.5,1.4,2.6,1.9c1.1,0.4,2.3,0.6,3.6,0.5c1.3-0.1,2.6-0.4,3.8-0.9l1.2-0.5c0,1.8,0,3.8,0.2,5.8
			l-0.8,0.4l-1.6,0.8c-1,0.5-2.1,0.8-3.1,1c-1.7,0.4-3.6,0-5-1.1c-1-0.9-1.8-1.9-2.3-3.1l-0.4-1l-0.1-0.4v0.4l0.2,1.1
			c0.2,1,0.6,2.4,1.8,3.9c0.6,0.7,1.5,1.4,2.6,1.9c1.1,0.4,2.3,0.6,3.6,0.5c1.3-0.1,2.6-0.4,3.8-0.9l1.7-0.8l0.8,5.4l-1.9,1.1
			l-1.6,0.8c-1,0.5-2.1,0.8-3.1,1c-1.7,0.4-3.6,0-5-1.1c-1-0.9-1.8-1.9-2.3-3.1l-0.4-1l-0.1-0.4v0.4l0.2,1.1c0.2,1,0.6,2.4,1.8,3.9
			c0.6,0.7,1.5,1.4,2.6,1.9c1.1,0.4,2.3,0.6,3.6,0.5c1.3-0.1,2.6-0.4,3.8-0.9l1.8-0.8l0.7-0.4l0.1,0.1l0.7,0.6l0.3,1.2l1.6,5.2
			l-0.3-5.4v-0.2l0.8,0.2c1.4,0.3,2.7,0.3,3.9,0.2c2.2-0.1,4.3-0.7,6.2-1.8c1.2-0.8,2.2-2.1,2.6-3.5l0.1-1.1v-0.4l-0.1,0.4l-0.4,1
			c-0.4,0.8-1.3,1.9-2.8,2.5s-3.4,0.8-5.6,0.7c-1.1,0-2.2-0.1-3.2-0.4c-0.5-0.1-1-0.3-1.4-0.6l-0.2-0.2l-0.4-6.1L478.4,332.6
			L478.4,332.6z"/>
	</g>
	<g>
		<path class="st25" d="M462.8,546.3c-5,3-10.6,5.2-16.3,6.5c-0.5,0.1-1.1,0.2-1.7,0.1c-0.7-0.1-1.3-0.6-1.9-1l-8.3-6.5
			c2.5-3.4,7.3-14.9,8.6-18.9c0.2-0.7,0.4-1.4,0.9-1.9c0.3-0.4,0.8-0.7,1.2-0.9c4.3-2.3,9.7-2.4,14.1-0.3
			C466.9,527.1,461.6,541,462.8,546.3L462.8,546.3z"/>
		<path class="st18" d="M453.8,539.5c2,0.7,3.3,3.3,4.6,3.9c1.3,0.9,2.7,0.3,4-0.4c0,1.2,0.1,2.3,0.3,3.3c-5,3-10.6,5.2-16.3,6.5
			c-0.5,0.1-1.1,0.2-1.7,0.1c-0.7-0.1-1.3-0.6-1.9-1l-8.3-6.5c0.6-0.8,1.3-2,2-3.5c0.8,0.6,1.7,1.1,2.7,1.5
			C441.3,537.6,449.2,538.2,453.8,539.5L453.8,539.5z M442.8,534.9c0.3,0.4,1.2,0.3,2.5,0.2l2.2-0.1l2.6,0.2
			c0.9,0.1,1.8,0.4,2.6,0.6l2.1,0.7c1.2,0.5,2.1,0.8,2.5,0.5s0.1-1.4-1-2.6c-0.6-0.7-1.4-1.3-2.3-1.7c-3-1.6-6.5-1.6-9.5,0
			C443.1,533.6,442.6,534.5,442.8,534.9L442.8,534.9z"/>
		<path class="st25" d="M506.7,546.3c5,3,10.6,5.2,16.3,6.5c0.5,0.1,1.1,0.2,1.7,0.1c0.7-0.1,1.3-0.6,1.9-1l8.3-6.5
			c-2.5-3.4-7.3-14.9-8.6-18.9c-0.2-0.7-0.4-1.4-0.9-1.9c-0.3-0.4-0.8-0.7-1.2-0.9c-4.4-2.2-9.6-2.3-14.1-0.3
			C502.9,526.5,508.4,540.1,506.7,546.3L506.7,546.3z"/>
		<path class="st18" d="M515.7,539.5c-2,0.7-3.3,3.3-4.6,3.9c-1.3,0.9-2.7,0.3-4-0.4c0,1.2-0.1,2.3-0.3,3.3c5,3,10.6,5.2,16.3,6.5
			c0.5,0.1,1.1,0.2,1.7,0.1c0.7-0.1,1.3-0.6,1.9-1l8.3-6.5c-0.6-0.8-1.3-2-2-3.5c-0.8,0.6-1.7,1.1-2.7,1.5
			C528.2,537.6,520.3,538.2,515.7,539.5L515.7,539.5z M526.7,534.9c-0.3,0.4-1.2,0.3-2.5,0.2L522,535l-2.6,0.2
			c-0.9,0.1-1.8,0.4-2.6,0.6l-2.1,0.7c-1.2,0.5-2.1,0.8-2.5,0.5s-0.1-1.4,1-2.6c0.5-0.6,1.3-1.2,2.3-1.7c3-1.6,6.5-1.6,9.5,0
			C526.4,533.6,526.9,534.5,526.7,534.9L526.7,534.9z"/>
		<g>
			<path class="st21" d="M444.5,513.1h15.4c-0.1-9.3,2.9-37.9,5.5-46.6c3-9.7,0-32-1.5-40.8h-22.7c-2.1,8.7-6.1,27.8-4.3,41.6
				C438.9,482.3,443.7,505.1,444.5,513.1z"/>
			<path class="st20" d="M464,425.6h-22.7c-1.5,6.1-3.9,17.4-4.6,28.3c4.5-0.2,9.1-0.2,12,3.3c12.6,15.4,11,36.2,5.9,55.8h5.4
				c-0.1-9.3,2.9-37.9,5.5-46.6C468.4,456.7,465.4,434.5,464,425.6L464,425.6z"/>
			<path class="st21" d="M509.2,513.1h13.5c0.1-10.5,1.3-34.3,0.9-48.2c-0.3-14-7.1-32-10.5-40.2l-22.4,4.5
				c-0.1,9,0.3,31.5,4.7,40.5C498.7,476.4,507,500.3,509.2,513.1L509.2,513.1z"/>
			<path class="st20" d="M498.9,453.4c7.5,0.6,16.4-0.2,22.1-5.3c-2.4-9.3-5.8-18.2-7.9-23.3l-22.4,4.5c-0.1,9,0.3,31.5,4.7,40.5
				c5.9,14,10.6,28.5,13.8,43.3h13.5l0.1-4.1C508.5,494.3,498.2,474.1,498.9,453.4L498.9,453.4z"/>
			<path class="st22" d="M445.5,464.7c2.2,1.9,5.5,2.2,8.3,1.3c2.7-1,5.3-2.6,7.4-4.6c-0.9,2.4-2,4.7-3.4,6.8
				c-1.1,1.6-2.4,3.3-4.3,3.8c-2.1,0.6-4.3-0.5-6-1.8c-2-1.6-5.3-5-4.5-7.4C444.2,463,444.5,463.9,445.5,464.7L445.5,464.7z
				 M511.5,460.4h1.1c-1.8,2.3-3.7,4.4-5.7,6.5c-0.6,0.6-1.2,1.2-2,1.5c-1.2,0.4-2.5,0.1-3.7-0.4c-2.3-1-4.4-2.4-6.1-4.2
				c2.7,0.8,5.4,1.2,8.2,1.2l0.7-0.1l0.9-0.4C507,463.5,510.1,462.3,511.5,460.4z"/>
		</g>
		<g>
			<path class="st26" d="M527.1,430.9c-0.9-2.1-3.9-6-3.9-6s-5.7-48.1-17.6-68.1c1.5-1.4,2.2-3.9,1.3-5.8c-0.5-0.8-1.4-1.3-2.3-1.4
				H447c-2.1,1.3-6.3,4.2-5.5,6.3c1,2.6,3.3,6.8,3.3,6.8s-10.7,40-8.8,63.2c0,0-7.8,5.3-5.9,9.5s4.9,5.8,4.9,5.8l-1.5,4.7
				c3.9,3.7,41.8,2.1,41.8,2.1l-3.8-9c0,0,4.7-7.4,3.8-13.2c-0.8-5.4-1.1-34.2,1.5-40.2c2,1.7,7,27.3,5.4,44.7
				c-0.3,2.9,1.8,6.2,3.8,8.2c-1.2,1.7-2,3.6-2.6,5.6c2.9,1.7,4.5,2.2,7.2,2.5c7.8,1.1,15.7,0.7,23.4-1.1c2.5-1,6.2-2.2,9.1-4.1
				c1.7-1,3-2.5,3.8-4.3C527.8,435.6,527.8,432.8,527.1,430.9z"/>
			<path class="st27" d="M461.2,378c10.2,8.6,25.9,7.1,35.3-1.6c-6.3,0-18.1-1.6-14.9-7.9c5.5-9.2,15-13,25.2-13.8
				c0.5-1.2,0.5-2.5,0-3.7c-0.5-0.8-1.4-1.3-2.3-1.4h-57.6c-2.1,1.3-6.3,4.2-5.5,6.3c1,2.6,3.3,6.8,3.3,6.8s-10.7,40-8.8,63.2
				c0,0-7.8,5.3-5.9,9.5s4.9,5.8,4.9,5.8l-1.5,4.7c2.3,2.1,16.1,2.5,27.2,2.4C455.1,425.7,455.7,400.6,461.2,378L461.2,378z"/>
			<path class="st28" d="M438.5,440c1.6-1.6,3.9-3.1,4.7-5.5c-2.4,0.8-3.9-0.8-6.3-0.8c0-4.7,4.7-5.5,7.9-4.7
				c-3.1-20.4,2.4-42.4,7.9-62.8c0-0.8-3.1-3.9-4.7-6.3c-1.2-3.6,1.3-7.3,4.4-10.2h-7.2c-2.1,1.3-4.4,4.2-3.7,6.3
				c1,2.6,3.3,6.8,3.3,6.8s-10.7,40-8.8,63.2c0,0-7.8,5.3-5.9,9.5s4.9,5.8,4.9,5.8l-1.5,4.7c3.9,3.7,41.8,2.1,41.8,2.1l-2-4.7
				C461.7,447,449.1,445.8,438.5,440L438.5,440z M527.1,430.9c-0.9-2.1-3.9-6-3.9-6s-5.7-48.1-17.6-68.1c1.5-1.4,2.2-3.9,1.3-5.8
				c-0.3-0.6-0.5-1.4-1.4-1.4h-10.1c7.1,5.4,2.7,12.1-0.3,18.1c2.4,0,5.5,2.4,5.5,3.9c5.5,16.5,11,31.4,13.4,47.9
				c-3.9-2.4-7.1,0-10.2,2.4c5.5,0.8,7.9,4.7,3.9,9.4c1.6,0,2.4,2.4,3.9,2.4c-5.7,5-16.3,7-26,6c-0.8,1.4-1.5,2.9-2,4.6
				c2.9,1.7,4.5,2.2,7.2,2.5c7.8,1.1,15.7,0.7,23.4-1.1c2.5-1,6.2-2.2,9.1-4.1c1.7-1,3-2.5,3.8-4.3
				C527.8,435.2,527.8,433,527.1,430.9L527.1,430.9z"/>
			<g>
				<path class="st18" d="M488.7,352.5c-4.7,0.7-9.4,0.3-14.1,0.4h-0.1c-1.9-0.1-3.9,0.1-5.9,0.1c-2.3,0-4.8-0.6-7,0.2
					c-0.6,0.2-0.7,1-0.1,1.4c1.9,1.2,4.5,0.9,6.7,0.8c1.4,0,2.9-0.1,4.3-0.3c-3.9,4.9-6,10.9-6.1,17.1c0,0.7,1.1,1.1,1.4,0.3
					c1.2-2.8,1.7-5.7,2.7-8.5c1.1-3.2,2.6-6.2,4.1-9.3l0.7-0.2c1.5,3.1,3.1,6.2,4.2,9.5c1,2.8,1.5,5.8,2.7,8.5
					c0.3,0.7,1.4,0.4,1.4-0.3c0.4-5.9-2.7-12.5-6.3-17.3c3.8,0.7,7.7,0.4,11.5-0.2C490.1,354.5,490,352.3,488.7,352.5L488.7,352.5z
					 M499,352.6c-0.5-0.3-0.9-0.4-1.6-0.4l-1.7,0.1c-0.9,0.1-1.1,1.5-0.2,1.6l1.8,0.1c0.6,0,1.1-0.1,1.6-0.4
					C499.4,353.3,499.4,352.8,499,352.6L499,352.6z M456.6,353.7c-0.6-0.6-1.5-0.6-2.4-0.6c-1,0-1.7,0.1-2.6,0.4
					c-0.5,0.2-0.7,1-0.1,1.2c1.4,0.6,3.8,1.1,5.2,0.1C457,354.5,456.9,354,456.6,353.7z"/>
			</g>
		</g>
		<g>
			<path class="st18" d="M440.7,514.1c0,0,0.3,5,1.7,7.1c-1.2-0.1-1.9,1.9-1.8,3.2s0.9,2.4,1.7,3.5c0.9,1.2,4.9,4.4,5.3,4.4
				c2.5,0,12-3.1,13-3.7c1-0.6,1.7-1.7,1.7-2.9c0-1.3-0.9-2.5-1.7-3.5l1.2-1.4c1-1.2,1.8-2.7,1.4-4.2
				C462.3,513.1,451.2,509.1,440.7,514.1L440.7,514.1z"/>
			<path class="st29" d="M458.2,524.8c-3.1,0-10.2,1.6-10.2-4.7c2.4,2.4,6.3,3.9,9.4,3.1c0.8-0.8,0.8-2.4,0.8-2.4
				c1.6,0.5,2.9-0.4,4.3-1.3l-0.8,1.2l-1.2,1.4c0.8,1,1.7,2.1,1.7,3.5c0,1.2-0.8,2.3-1.7,2.9c-1,0.6-10.5,3.7-13,3.7
				c-0.2,0-1.2-0.7-2.3-1.6C450.7,531.3,456.2,529.7,458.2,524.8L458.2,524.8z"/>
		</g>
		<g>
			<path class="st18" d="M526.4,511.7c0,0-0.3,5-1.7,7.1c1.2-0.1,1.9,1.9,1.8,3.2c-0.1,1.3-0.9,2.4-1.7,3.5
				c-0.9,1.2-4.9,4.4-5.3,4.4c-2.5,0-12-3.1-13-3.7c-1-0.6-1.7-1.7-1.7-2.9c0-1.3,0.9-2.5,1.7-3.5l-1.2-1.4c-1-1.2-1.8-2.7-1.4-4.2
				C504.8,510.6,515.9,506.7,526.4,511.7L526.4,511.7z"/>
			<path class="st29" d="M508.9,522.4c3.1,0,10.2,1.6,10.2-4.7c-2.4,2.4-6.3,3.9-9.4,3.1c-0.8-0.8-0.8-2.4-0.8-2.4
				c-1.6,0.5-2.9-0.4-4.3-1.3l0.8,1.2l1.2,1.4c-0.8,1-1.7,2.1-1.7,3.5c0,1.2,0.8,2.3,1.7,2.9c1,0.6,10.5,3.7,13,3.7
				c0.2,0,1.2-0.7,2.3-1.6C516.4,528.8,510.8,527.3,508.9,522.4L508.9,522.4z"/>
		</g>
	</g>
	<g>
		<path class="st21" d="M495.6,192.9c0,0-0.2-9.9-5-14.2c-2.1-1.8-5.1-2.1-8-1.8c-4.8,0.5-9.6,0.5-14.4,0c-2.8-0.3-5.9,0-8,1.8
			c-4.8,4.2-5,14.2-5,14.2s-0.8,9.9,1,15c0,0,2.8,17.2,6.6,21.4c3.8,4.2,12.6,5,12.6,5s8.8-0.8,12.6-5s7.2-21.4,7.2-21.4
			C496.9,202.8,495.6,192.9,495.6,192.9L495.6,192.9z"/>
		<path class="st20" d="M490.6,178.7c-2.1-1.8-5.1-2.1-8-1.8c-4.8,0.5-9.6,0.5-14.4,0c-2.8-0.3-5.9,0-8,1.8c-4.8,4.2-5,14.2-5,14.2
			s-0.4,4.6,0,9.2c4.8-5.7,3.6-15.8,10.4-15.8c3.9-0.8,9.4,4.7,14.9,1.6c1.6-0.8-1.6-1.6-0.8-2.4c6.3,0.1,12.3,3.2,16,8.3l-0.1-0.8
			C495.6,193,495.4,182.9,490.6,178.7L490.6,178.7z"/>
		<path class="st21" d="M493.6,205.6c0,0,1.9-3,2.7-2.5s4,4.4,3.1,8.7s-4.8,8.3-6,8.4c-1.2,0.1-4.3-2.2-4.3-2.2L493.6,205.6z
			 M457.5,205.6c0,0-1.9-3-2.7-2.5c-0.8,0.5-4,4.4-3.1,8.7s4.8,8.3,6,8.4c1.2,0.1,4.3-2.2,4.3-2.2L457.5,205.6L457.5,205.6z"/>
		<path class="st24" d="M487.8,227.6c-4.8,8.1-18.8,6.3-24.2,0.9c-8.5-13-8.1-30.8-5.2-47.5c-3,4.8-3.2,12-3.2,12s-0.8,9.9,1,15
			c0,0,2.8,17.2,6.6,21.4c3.8,4.2,12.6,5,12.6,5s8.8-0.8,12.6-5s7.2-21.4,7.2-21.4c1-4.1,1.2-8.4,0.7-12.6
			C494.9,206.1,494.3,216.5,487.8,227.6L487.8,227.6z"/>
		<path class="st30" d="M456.6,208l-0.3-0.1v0.1H456.6z"/>
		<path class="st23" d="M456.6,216.7l0.2,0.1c-0.2-0.5-1-2.6-1.7-5.2l-0.3-1.1l-0.3-0.9c-0.1-0.2-0.3-0.4-0.5-0.4l-0.6,0.3
			c-0.3,0.4-0.3,0.8-0.3,1.1v0.4l-0.1-0.4c0-0.3-0.1-0.7,0.1-1.3c0.1-0.2,0.4-0.5,0.8-0.6s0.8,0.2,1.1,0.5l0.4,1.1l0.3,1.1
			c0.7,2.6,1.1,4.8,1.1,5.3v0.1L456.6,216.7L456.6,216.7z"/>
		<path class="st23" d="M455.4,215.5l-0.6-0.4c-0.4-0.4-0.7-0.9-0.9-1.4c-0.1-0.3-0.1-0.8,0.2-1.1c0.2-0.3,0.6-0.4,0.9-0.3
			c0.3,0.1,0.4,0.3,0.4,0.4v0.2l-0.1-0.2l-0.3-0.2c-0.1,0-0.3,0.1-0.3,0.3v0.6C454.9,214.6,455.4,215.5,455.4,215.5L455.4,215.5z
			 M494.8,215.6c0,0,0.3-2.1,1-4.7l0.6-1.8c0.2-0.6,0.7-1.1,1.2-1.2c0.3,0,0.6-0.1,0.6,0.2l0.1,0.5v0.4l-0.1-0.4l-0.1-0.4h-0.3
			c-0.3,0.1-0.6,0.5-0.7,1l-0.4,1.8L494.8,215.6L494.8,215.6z"/>
		<path class="st23" d="M494.9,216.9c0,0,0.9-1.2,1.6-2.8c0.3-0.8,0.6-1.6,0.2-1.9c-0.2-0.2-0.4-0.2-0.6-0.2l-0.2,0.1l0.2-0.2
			c0.2-0.1,0.5-0.2,0.8,0s0.5,0.7,0.5,1.1c0,0.4-0.1,0.9-0.3,1.3c-0.3,0.9-0.9,1.6-1.4,2L494.9,216.9L494.9,216.9z"/>
		<path class="st20" d="M473.1,211.6h0.5l1.7,0.2c0.8,0,1.5-0.2,2.3-0.5c1-0.3,0.6,0.4,0.3,1l-1.2,2.1c-1.5-0.1-3-0.5-4.3-1.3
			c0-0.2,0.4-1.3,0.6-1.5C473,211.7,473.1,211.6,473.1,211.6z"/>
		<path class="st22" d="M474.4,199c0,0,0.3,1,0.5,2.6s0.3,4-0.2,6.5c-0.2,1.3-0.6,2.4-0.9,3.5l-0.3,0.7l-0.2,0.4l-0.1,0.1v0.1
			l0.1,0.1l0.5,0.4l1.7,0.9l0.7,0.2l-0.7-0.1l-1.9-0.5l-0.6-0.3l-0.5-0.3l-0.3-0.2c-0.1,0,0-0.1,0-0.1v-0.1l0.2-0.6l0.1-0.4l0.2-0.8
			l0.7-3.4c0.4-2.4,0.7-4.6,0.8-6.2L474.4,199L474.4,199z"/>
		<path class="st31 blink" d="M490,201.1l-0.6-1c-0.8-1.1-2.1-1.7-3.4-1.8c-1.6-0.1-2.9,0.7-3.6,1.4l-0.7,0.9l-0.2,0.4l0.3-0.2
			c0.2-0.2,0.5-0.4,0.9-0.5c0.5-0.3,1.3-0.5,2.1-0.6c-0.5,0.6-0.8,1.7-0.8,2.9c0,1.9,0.8,3.5,1.8,3.5s1.8-1.6,1.8-3.5
			c0-1.2-0.3-2.3-0.8-2.9c0.9,0.2,1.6,0.5,2.2,0.9L490,201.1l0.2,0.4L490,201.1L490,201.1z"/>
		<path class="st18" d="M482.3,201.2l4,0.5l-4.5,1.2L482.3,201.2z"/>
		<g class="blink">
			<path class="st31" d="M469,200.6c-0.1-0.2-0.3-0.6-0.7-0.9c-0.7-0.7-2-1.5-3.6-1.4s-2.9,1-3.4,1.8l-0.6,1l-0.1,0.4l0.3-0.3
				l0.9-0.6c0.7-0.4,1.6-0.8,2.6-0.9c-0.7,0.5-1.2,1.8-1.2,3.3c0,1.9,0.8,3.5,1.8,3.5s1.8-1.6,1.8-3.5c0-1.6-0.5-2.9-1.3-3.3
				c1,0.1,1.9,0.3,2.5,0.6l0.9,0.5l0.3,0.2L469,200.6L469,200.6z"/>
			<path class="st18" d="M461.4,201.6l4,0.5l-4.5,1.2L461.4,201.6z"/>
		</g>
		<g>
			<path class="st31" d="M490.3,192.2l-0.4-0.2l-1.2-0.5c-1-0.3-2.4-0.4-3.6,0c-1.2,0.4-2.2,1.1-3,2.1l-0.7,1.1l-0.2,0.5l-0.1-0.5
				c0-0.3-0.1-0.8,0.1-1.4c0.1-0.6,0.4-1.3,1-2c0.5-0.7,1.3-1.3,2.3-1.6s2-0.3,2.8,0c0.8,0.2,1.5,0.6,1.9,1.1
				c0.5,0.4,0.7,0.8,0.9,1.1L490.3,192.2L490.3,192.2z M470.1,194.7c0,0-0.5,0.3-1.5,0.5c-2.4,0.6-5,0.1-7.1-1.3
				c-0.8-0.5-1.2-1-1.2-1h1.5c0.9,0,2.1,0.1,3.4,0.4c1.3,0.2,2.5,0.6,3.4,0.8L470.1,194.7L470.1,194.7z"/>
		</g>
		<path class="st23" d="M486,215.2c-1.7,3.5-5.5,5.5-9.4,4.9c1.9,1,3.7,1.4,5.7,0.4C484.2,219.5,485.7,217.4,486,215.2L486,215.2z"
			/>
		<path class="st32" d="M500.4,178.1c-0.3-0.7,0-1.6-0.8-1.8c1.9-1.6,3.2-4.1,3.2-6.6s-0.7-5.3-2.6-7c-0.7,2.9-4.1,4.3-7,4.2
			c-3-0.2-5.7-1.4-8.6-2.1c-6.5-1.4-15.9-1.1-18.6,5c-0.6,1.3-0.8,2.8-0.7,4.2c-1.6-0.8-3.4-0.8-5,0c-5.2,3-9.3,7.6-11.6,13.2
			c0.4,2.7,0.5,5,1.8,7.4c0.6,1.1,1.3,2.2,1.6,3.4c0.3,1.2,0.2,2.6-0.6,3.6c-0.8,0.9-2.5,1.1-3.3,0.1c0.8,1.4,1.7,1.7,3.3,2
			c1.1,0.2,2.2,0.2,3.2-0.1c0.6,1.8,1.3,3.5,2.2,5.2c-0.3-2.2-0.3-4.5,0-6.7c0.9-1.3,0.8-3,0.8-4.6c-0.1-4.7,0.6-9.9,4-13.2
			c1.5-1.5,3.5-2.5,5.6-3.2c0.5,1,1.1,1.9,1.9,2.6c2,1.9,5.1,2.3,7.9,1.9c-0.8-1.4-1.7-2.5-1.8-4.1c3.1,2.8,7.5,1.7,11.5,2.9
			c3.4,1,6.1,3.9,7.5,7.2c1.3,3.4,1.6,7,1,10.6l-0.7,5.9c0.1-0.9,0.5-1.7,0.8-2.5c0.2-0.4,0.3-0.8,0.6-1.1s1-0.4,1.4-0.3
			c2.4-3.7,3.2-8.6,2-12.9c1.5,0.7,2.9,1.8,3.5,3.4C503.9,189.1,503,183.1,500.4,178.1L500.4,178.1z"/>
		<path class="st33" d="M499.6,176.3c1.9-1.6,3.2-4.1,3.2-6.6s-0.7-5.3-2.6-7c-0.7,2.9-4.1,4.3-7,4.2c-3-0.2-5.7-1.4-8.6-2.1
			c-6.5-1.4-15.9-1.1-18.6,5c-0.6,1.3-0.8,2.8-0.7,4.2c-1.6-0.8-3.4-0.8-5,0c-5.2,3-9.3,7.6-11.6,13.2c0.4,2.7,0.5,5,1.8,7.4
			c0.6,1.1,1.3,2.2,1.6,3.4c0.3,1.2,0.2,2.6-0.6,3.6c-0.8,0.9-2.5,1.1-3.3,0.1c0.7,1.2,1.5,1.6,2.8,1.9l0.4-0.1
			c5.5-3.9,1.6-10.2,2.4-14.9c0-5.5,4.7-8.6,9.4-11c0.8,0,2.4-0.8,3.1,0.8c2.4-6.3,10.2-10.2,14.9-6.3c6.8,4.6,12.9,12.8,21.1,11.2
			c-0.5-1.8-1.2-3.6-2.1-5.2C500,177.4,500.3,176.4,499.6,176.3L499.6,176.3z"/>
		<g>
			<path class="st34" d="M492.3,171.3c5.2,0,8.3-3.4,8.6-8l-0.6-0.7c-0.7,2.9-4.1,4.3-7,4.2c-3-0.2-5.7-1.4-8.6-2.1
				c-6.5-1.4-15.9-1.1-18.6,5C475.4,166.5,483.5,171.3,492.3,171.3z M460.3,173.9c-5.2,3-9.3,7.6-11.6,13.2c0.3,1.9,0.5,3.7,1,5.4
				c0.5-7.8,7.6-13.3,12.5-19.1C461.5,173.4,460.9,173.6,460.3,173.9L460.3,173.9z"/>
		</g>
	</g>
	
</g>
</svg>
