<svg id="Layer_1" xmlns="http://www.w3.org/2000/svg" viewBox="0 0 1000 600">
  <style>
    .st4{fill:#fff}.st5{fill:#ffb287}.st6{fill:#d94647}.st7{fill:#f7bfc2}.st8{fill:#e5785c}.st9{fill:#406d11}.st12{fill:#445413}.st13{fill:#c62433}.st14{fill:#f23d3d}.st17{fill:#d2324b}.st18{fill:#af1e3a}.st19{fill:#8e3925}.st20{fill:#a34c31}.st23{fill:#f58d6c}.st24{fill:#422b27}.st25{fill:none;stroke:#8e3925;stroke-width:5.462;stroke-linecap:round;stroke-miterlimit:10}.st31{fill:#3bbcf4}.st32{fill:#c1bfe2}.st34{fill:#d14d2a}.st37{fill:#a8bdcc}.st38{fill:#8a9099}.st39{fill:#5c5866}.st40{fill:#47454c}.st41{fill:#8c9899}.st46{opacity:.3;fill:#47454c}.st47{fill:#646870}.st53{fill:#ffc6a2}.st55{fill:#ffdd8c}.st57{fill:#ff7100}.st58{fill:#e64e00}.st59{fill:#ec6841}.st60{fill:#c13000}

.fatman{
	animation:translateman 1000ms ease-out 0ms infinite;
	transform-origin: 46% 30%;
}
@keyframes translateman{
	0%{transform: translateY(0);}
	50%{transform: translateY(20px);}
	100%{transform: translateY(0);}
}

.arm1{
	animation:rotarm1 1000ms ease-out 0ms infinite;
	transform-origin: 41% 29.5%;
}
@keyframes rotarm1{
	0%{transform: rotate(10deg);}
	50%{transform: rotate(-60deg);}
	100%{transform: rotate(10deg);}
}

.arm2{
	animation:rotarm2 1000ms ease-out 0ms infinite;
	transform-origin: 48% 30%;
}
@keyframes rotarm2{
	0%{transform: rotate(-50deg);}
	50%{transform: rotate(10deg);}
	100%{transform: rotate(-50deg);}
}

.leg1{
	animation:rotarm2 1000ms ease-out 0ms infinite;
	transform-origin: 43% 55%;
}
@keyframes rotarm2{
	0%{transform: rotate(-50deg);}
	50%{transform: rotate(10deg);}
	100%{transform: rotate(-50deg);}
}

.leghinge1{
	animation:rotarm2 1000ms ease-out 0ms infinite;
	transform-origin: 41.5% 71.6%;
}

.leg2{
	animation:rotleg2 1000ms ease-out 0ms infinite;
	transform-origin: 43% 55%;
}

@keyframes rotleg2{
	0%{transform: rotate(70deg);}
	50%{transform: rotate(-10deg);}
	100%{transform: rotate(70deg);}
}

.leghinge2{
	animation:rotleg2 1000ms ease-out 0ms infinite;
	transform-origin: 50% 66.6%;
}

@keyframes pizza{
	0%{transform: rotate(15deg);}
	50%{transform: rotate(-30deg);}
	100%{transform: rotate(15deg);}
}

.pizza{
	animation:pizza 5000ms ease-out 0ms infinite;
	transform-origin: 59% 0%;
}
  
  </style>
<linearGradient id="a" gradientUnits="userSpaceOnUse" x1="178.8" y1="172.2" x2="778.8" y2="172.2" gradientTransform="matrix(0 1 1 0 327.8 -178.8)">
    <stop offset="0" stop-color="#44fffd"/>
    <stop offset="1" stop-color="#ffa0ff"/>
  </linearGradient>
  <path fill="url(#a)" d="M0 0h1000v600H0z"/>
  <linearGradient id="b" gradientUnits="userSpaceOnUse" x1="34.7" y1="105.4" x2="690" y2="137.6" gradientTransform="matrix(-.0625 .9375 .9375 .0625 383.6 -47.3)">
    <stop offset="0" stop-color="#50f8f1"/>
    <stop offset="0" stop-color="#57f4f1"/>
    <stop offset=".6" stop-color="#b4c3fb"/>
    <stop offset="1" stop-color="#ffa3fd"/>
  </linearGradient>
  <path fill="url(#b)" d="M0 0h949.8v600H0z"/>
  <linearGradient id="c" gradientUnits="userSpaceOnUse" x1="-119.4" y1="10.7" x2="599.7" y2="81.5" gradientTransform="matrix(-.125 .875 .875 .125 439.5 84.1)">
    <stop offset="0" stop-color="#5bf0e5"/>
    <stop offset="0" stop-color="#62ede5"/>
    <stop offset=".6" stop-color="#b9bdf7"/>
    <stop offset="1" stop-color="#ffa7fb"/>
  </linearGradient>
  <path fill="url(#c)" d="M0 .1h899.6V600H0z"/>
  <linearGradient id="d" gradientUnits="userSpaceOnUse" x1="-277" y1="-118.2" x2="512.5" y2="-1.1" gradientTransform="scale(-.8339 .8339) rotate(77 -459.5 -244)">
    <stop offset="0" stop-color="#67e9da"/>
    <stop offset="0" stop-color="#6de5da"/>
    <stop offset=".6" stop-color="#beb6f4"/>
    <stop offset="1" stop-color="#ffaaf9"/>
  </linearGradient>
  <path fill="url(#d)" d="M0 .1h849.4V600H0z"/>
  <linearGradient id="e" gradientUnits="userSpaceOnUse" x1="-426.9" y1="-286.4" x2="435.5" y2="-114.8" gradientTransform="matrix(-.25 .75 .75 .25 551.2 347)">
    <stop offset="0" stop-color="#72e1ce"/>
    <stop offset="0" stop-color="#78dece"/>
    <stop offset=".6" stop-color="#c3b0f0"/>
    <stop offset="1" stop-color="#ffadf7"/>
  </linearGradient>
  <path fill="url(#e)" d="M0 .1h799.3V600H0z"/>
  <linearGradient id="f" gradientUnits="userSpaceOnUse" x1="-553.3" y1="-494.6" x2="378" y2="-261.4" gradientTransform="matrix(-.3125 .6875 .6875 .3125 607 478.5)">
    <stop offset="0" stop-color="#7edac2"/>
    <stop offset="0" stop-color="#83d7c2"/>
    <stop offset=".6" stop-color="#c8aaed"/>
    <stop offset="1" stop-color="#ffb1f5"/>
  </linearGradient>
  <path fill="url(#f)" d="M0 .1h749.1V600H0z"/>
  <linearGradient id="g" gradientUnits="userSpaceOnUse" x1="-636.8" y1="-737.1" x2="350.3" y2="-437.7" gradientTransform="matrix(-.375 .625 .625 .375 662.9 609.9)">
    <stop offset="0" stop-color="#89d2b6"/>
    <stop offset="0" stop-color="#8ed0b6"/>
    <stop offset=".6" stop-color="#cda3e9"/>
    <stop offset="1" stop-color="#ffb4f3"/>
  </linearGradient>
  <path fill="url(#g)" d="M0 .2h698.9V600H0z"/>
  <linearGradient id="h" gradientUnits="userSpaceOnUse" x1="-659.2" y1="-999.6" x2="361.2" y2="-634.5" gradientTransform="matrix(-.4375 .5625 .5625 .4375 718.7 741.3)">
    <stop offset="0" stop-color="#95cbaa"/>
    <stop offset="0" stop-color="#99c9aa"/>
    <stop offset=".6" stop-color="#d29de6"/>
    <stop offset="1" stop-color="#ffb7f1"/>
  </linearGradient>
  <path fill="url(#h)" d="M0 .2h648.7V600H0z"/>
  <linearGradient id="i" gradientUnits="userSpaceOnUse" x1="-609" y1="-1260" x2="414.3" y2="-836.1" gradientTransform="matrix(-.5 .5 .5 .5 774.6 872.8)">
    <stop offset="0" stop-color="#a1c39f"/>
    <stop offset="0" stop-color="#a5c29f"/>
    <stop offset=".6" stop-color="#d797e3"/>
    <stop offset="1" stop-color="#ffbbef"/>
  </linearGradient>
  <path fill="url(#i)" d="M0 .2h598.5V600H0z"/>
  <linearGradient id="j" gradientUnits="userSpaceOnUse" x1="-486.8" y1="-1494" x2="506" y2="-1024.4" gradientTransform="matrix(-.5625 .4375 .4375 .5625 830.4 1004.2)">
    <stop offset="0" stop-color="#acbc93"/>
    <stop offset="0" stop-color="#b0ba93"/>
    <stop offset=".6" stop-color="#dc91df"/>
    <stop offset="1" stop-color="#ffbeec"/>
  </linearGradient>
  <path fill="url(#j)" d="M0 .2h548.3V600H0z"/>
  <linearGradient id="k" gradientUnits="userSpaceOnUse" x1="-306.2" y1="-1681.9" x2="626" y2="-1183.6" gradientTransform="matrix(-.625 .375 .375 .625 886.3 1135.7)">
    <stop offset="0" stop-color="#b8b587"/>
    <stop offset="0" stop-color="#bbb387"/>
    <stop offset=".6" stop-color="#e18bdc"/>
    <stop offset="1" stop-color="#ffc1ea"/>
  </linearGradient>
  <path fill="url(#k)" d="M0 .3h498.1V600H0z"/>
  <linearGradient id="l" gradientUnits="userSpaceOnUse" x1="-88.9" y1="-1813.8" x2="760.7" y2="-1304.6" gradientTransform="matrix(-.6875 .3125 .3125 .6875 942.2 1267.1)">
    <stop offset="0" stop-color="#c3ad7b"/>
    <stop offset="0" stop-color="#c6ac7b"/>
    <stop offset=".6" stop-color="#e684d8"/>
    <stop offset="1" stop-color="#ffc4e8"/>
  </linearGradient>
  <path fill="url(#l)" d="M0 .3h448V600H0z"/>
  <linearGradient id="m" gradientUnits="userSpaceOnUse" x1="142.2" y1="-1889.8" x2="896.9" y2="-1385.5" gradientTransform="matrix(-.75 .25 .25 .75 998 1398.6)">
    <stop offset="0" stop-color="#cfa66f"/>
    <stop offset="0" stop-color="#d1a56f"/>
    <stop offset=".6" stop-color="#eb7ed5"/>
    <stop offset="1" stop-color="#ffc8e6"/>
  </linearGradient>
  <path fill="url(#m)" d="M0 .3h397.8V600H0z"/>
  <linearGradient id="n" gradientUnits="userSpaceOnUse" x1="368.3" y1="-1917.9" x2="1025.1" y2="-1430.8" gradientTransform="matrix(-.8125 .1875 .1875 .8125 1053.9 1530)">
    <stop offset="0" stop-color="#da9e63"/>
    <stop offset="0" stop-color="#dc9e63"/>
    <stop offset=".6" stop-color="#f078d1"/>
    <stop offset="1" stop-color="#ffcbe4"/>
  </linearGradient>
  <path fill="url(#n)" d="M0 .3h347.6V600H0z"/>
  <linearGradient id="o" gradientUnits="userSpaceOnUse" x1="577.3" y1="-1909.2" x2="1139.7" y2="-1447.6" gradientTransform="matrix(-.875 .125 .125 .875 1109.7 1661.5)">
    <stop offset="0" stop-color="#e69758"/>
    <stop offset="0" stop-color="#e79658"/>
    <stop offset=".6" stop-color="#f572ce"/>
    <stop offset="1" stop-color="#ffcee2"/>
  </linearGradient>
  <path fill="url(#o)" d="M0 .4h297.4V600H0z"/>
  <linearGradient id="p" gradientUnits="userSpaceOnUse" x1="763" y1="-1874.4" x2="1238.6" y2="-1443.4" gradientTransform="matrix(-.9375 .0625 .0625 .9375 1165.6 1792.9)">
    <stop offset="0" stop-color="#f18f4c"/>
    <stop offset="0" stop-color="#f28f4c"/>
    <stop offset=".6" stop-color="#fa6bca"/>
    <stop offset="1" stop-color="#ffd2e0"/>
  </linearGradient>
  <path fill="url(#p)" d="M0 .4h247.2V600H0z"/>
  <linearGradient id="q" gradientUnits="userSpaceOnUse" x1="923.8" y1="-1823.3" x2="1322.1" y2="-1425" gradientTransform="matrix(-1 0 0 1 1221.4 1924.3)">
    <stop offset="0" stop-color="#fd8840"/>
    <stop offset=".6" stop-color="#ff65c7"/>
    <stop offset="1" stop-color="#ffd5de"/>
  </linearGradient>
  <path fill="url(#q)" d="M0 .4h197V600H0z"/>
  <g opacity=".2">
    <path d="M1 513.4h1000.4V607H1zM569.7-5l228.2 3.6-10.8 284.3-207.1-5.3z"/>
    <ellipse cx="377" cy="211" rx="120" ry="119.3"/>
    <path d="M496.2 516.7h39.9l-2.1-71.3h4.3l-.6-12.7-39.9-1.3v13l2.8-.1z"/>
    <path d="M514.8 434.5v-5.9l-2.2-.3.2-5.9 9.4.5v5.6l-2.5.1v6.4zM51.8 516.1l.6-32.5 218.4-2.3-.5 35.4-21.1-.6-.6-18.7-179-.6.6 19.9z"/>
    <g>
      <ellipse cx="642.6" cy="386.2" rx="11.1" ry="51"/>
      <path d="M771.5 455.4c-39.9 0-39-1-39-11.1 0-13.3 5.5-11.1 39-11.1 34.2 0 39-3.3 39 11.1 0 12.9-3 11.1-39 11.1z"/>
      <ellipse cx="616" cy="386.2" rx="11.1" ry="51"/>
      <ellipse cx="934.1" cy="386.2" rx="11.1" ry="51"/>
      <path d="M918.6 386.2c0 52.1-1 51-11.1 51-13.4 0-11.1-7.2-11.1-51 0-44.6-3.3-51 11.1-51 12.9.1 11.1 3.9 11.1 51z"/>
      <path d="M961.9 383a6 6 0 0 1-6.1 6.1H589.6a6 6 0 0 1-6.1-6.1 6 6 0 0 1 6.1-6.1h366.3c3.3.1 6 2.8 6 6.1z"/>
      <path d="M684.1 500.4a8.9 8.9 0 1 1-17.8 0V354a8.9 8.9 0 1 1 17.8 0v146.4zM883.6 500.4a8.9 8.9 0 1 1-17.8 0V354a8.9 8.9 0 1 1 17.8 0v146.4z"/>
      <path d="M625.7 491l304.6-1.1-1.7 25.4H626.3z"/>
      <path d="M765.8 451.8v46.4l14.4.5-2.2-49.1z"/>
    </g>
  </g>
  <path d="M181.4 593.2c0-3.2 4.1-5.8 9-5.8h557.9c5 0 9 2.6 9 5.8 0 3.2-4 5.8-9 5.8H190.4c-5 0-9-2.6-9-5.8z" fill="#8271a8" opacity=".7"/>
  <path class="st4" d="M139.6 111.6h24.5v14.1h-42.9v-76h18.4v61.9zM233.6 53.5c5.8 3.3 10.4 8 13.8 13.9a39.5 39.5 0 0 1 5.1 20.1c0 7.5-1.7 14.2-5.1 20.1-3.4 6-8 10.6-13.9 13.9-5.8 3.3-12.3 5-19.4 5s-13.6-1.7-19.4-5a37 37 0 0 1-13.9-13.9 39.8 39.8 0 0 1-5.1-20.1c0-7.5 1.7-14.1 5.1-20.1a37 37 0 0 1 33.3-18.9c7.2 0 13.7 1.6 19.5 5zm-33.8 17.9a23 23 0 0 0-5.3 16 23 23 0 0 0 5.3 15.9c3.5 3.9 8.3 5.9 14.4 5.9 5.9 0 10.7-2 14.3-5.9 3.6-3.9 5.4-9.2 5.4-15.9s-1.8-12-5.3-15.9c-3.5-3.9-8.3-5.9-14.4-5.9s-10.9 1.9-14.4 5.8zM319.8 115.3c-2 3.4-5.1 6.1-9 8.1-4 2-8.8 3-14.5 3-8.5 0-15.6-2.1-21.1-6.2-5.5-4.2-8.5-10-9-17.4h19.6c.3 2.9 1.3 5.1 3.1 6.8 1.8 1.6 4 2.5 6.7 2.5 2.4 0 4.2-.6 5.6-1.9 1.4-1.3 2-3 2-5.2 0-1.9-.6-3.5-1.9-4.8a16.2 16.2 0 0 0-4.7-3.2 165 165 0 0 0-7.7-3 83.8 83.8 0 0 1-11.8-4.8A19.7 19.7 0 0 1 266 70.4a20 20 0 0 1 12.9-19.3c4-1.8 8.7-2.6 13.9-2.6 8.5 0 15.2 2 20.2 6s7.8 9.5 8.4 16.6h-19.9c-.4-2.5-1.3-4.5-2.7-6a8 8 0 0 0-6-2.2c-2.2 0-3.9.6-5.2 1.7-1.3 1.1-2 2.8-2 5.1 0 1.8.6 3.3 1.8 4.6 1.2 1.3 2.7 2.3 4.5 3.1l7.7 3c4.9 1.6 8.9 3.3 11.9 4.9 3.1 1.6 5.7 4 8 7 2.2 3.1 3.3 7.1 3.3 12 0 4-1 7.7-3 11zM356.8 64.3v15.9h25.7v13.9h-25.7V111h28.9v14.7h-47.3v-76h47.3v14.6h-28.9zM585.5 49.6l-18.2 76h-22.8l-12.2-50.9-12.3 50.9h-22.8l-18.2-76h20l9.8 55.1 13.3-55.1h20.1l13.3 55.1 9.9-55.1h20.1zM613.6 64.3v15.9h25.7v13.9h-25.7V111h28.9v14.7h-47.3v-76h47.3v14.6h-28.9zM671.3 49.6v76h-18.4v-76h18.4zM743.1 55.9c6.2 4.7 10 11 11.5 18.9h-19.5a15.4 15.4 0 0 0-5.9-6.5 18.2 18.2 0 0 0-9.6-2.4 18 18 0 0 0-14 5.9 23 23 0 0 0-5.3 15.9c0 7.2 1.8 12.8 5.5 16.7 3.7 3.9 8.9 5.8 15.8 5.8a19 19 0 0 0 11.5-3.6c3.3-2.4 5.6-5.8 7-10.3H717V83h38.6v18.2a36.3 36.3 0 0 1-35.8 25.1c-7.7 0-14.4-1.6-20.1-4.9a33.7 33.7 0 0 1-13.3-13.7 42.6 42.6 0 0 1-4.7-20.1c0-7.5 1.6-14.2 4.7-20.1a33.5 33.5 0 0 1 13.2-13.7 38.9 38.9 0 0 1 19.9-4.9c9.6 0 17.5 2.3 23.6 7zM831.6 49.6v76h-18.5V93.9h-28.8v31.7h-18.4v-76h18.4v29.5h28.8V49.6h18.5zM898.9 49.6v14.6h-20.6v61.4h-18.5V64.3h-20.4V49.6h59.5z"/>
  <g class="fatman">
    <g class="leg1">
      <g class="leghinge1">
        <path class="st5" d="M424.9 432.6v.4a481.4 481.4 0 0 1 0-.4z"/>
        <path class="st5" d="M431 434c-.1-.2-.3-.2-3-1l-3-1c-.4.7-.7 1.1-1 1-.6-.1-.5-2-1-2-.3 0-.5 1-1 1-.4 0-.5-.5-1-1-.4-.4-1-.8-2-1a6 6 0 0 1-2.8-.3c-.7-.2-1.2-.6-1.6-.8l-3.8-1.3-2.6-.6c-.6 0-1.4 0-2.5-.2s-2.6-.5-3.7-1.8c-.6-.7-.9-1.5-1-2a79.3 79.3 0 0 1-13.3 4.6l-4.2.9-1.1.2a149.7 149.7 0 0 1-27.9 3l-9.2.4c-6.6.4-11.6 6-11.2 12.6.4 6.6 6 11.6 12.6 11.2l8.5-.4a168 168 0 0 0 28.4-2.8l3-.5 1.1-.2a105 105 0 0 0 16.9-4.2c15.1-4.9 27-12.2 26.4-13.8z"/>
        <path class="st6" d="M347.1 427.5h-.6a113.5 113.5 0 0 0-17.7 1.9c-4.1.9-6.9 2.1-6.7 3.4-1.8 1.2 14.5 67.1 15.2 70 .7 2.9 3.9 4.9 8.9 3.9l1.1-.3c1.3-.4 2.2-.9 3-1.6 3.6-3 2.9-8.6 2.2-12.9l-.4-2.8a19.4 19.4 0 0 1 .8-9.2c.4-1.3.9-2.5 1.5-3.7l2.6-5.2 1-2.1.3-.7a32.7 32.7 0 0 1 3.9-6l.6-.7 1.8-1.8c2.7-2.5 5.3-1.5 6.2-5.2 1-4.3-.6-11.5-5-13l-.9-.2c-1.7-.2 3.1 0 0 0-2.3 0-.5-5.4.5-3.9 9.3 14.1-5.1.6-5.1.6 3.1-.9-4.6-6.4-4.6-6.4-.5-2.3-1.9-3.7-8.6-4.1z"/>
        <path class="st4" d="M373.2 430.4s-3.3 3.2-1.9 11.5 5.9 12.1 5.9 12.1c-3 .5-5 .6-6.5.8l-5.2.5c-1.7.2-5.9.7-10.9-.4-7.3-1.6-7.6-22.7-2.4-23.2 3.1-.3 3.3-.3 7.4-.2 1.8 0 13.6-1.1 13.6-1.1z"/>
        <path class="st7" d="M328.8 429.4c-4.1.9-6.9 2.1-6.7 3.4-1.8 1.2 14.5 67.1 15.2 70 .7 2.9 3.9 4.9 8.9 3.9l1.1-.3c-3.5-15.9-18.5-77-18.5-77z"/>
        <path class="st6" d="M351.9 429.5c3.1.5 3 .4 3.7 1.9.8 1.7-2.1 3.1-12.3 3.8-10.3.7-11.5-2-11.5-2l20.1-3.7z"/>
        <path class="st4" d="M366.5 446c2.1 2.9 10.4 5.6 0 7.7-10.4 2.2-17.8 2-19.2-5.2-1.4-7.2-1.5-13.8 4.5-14.4 6-.6 14.7 11.9 14.7 11.9z"/>
      </g>
      <g>
	<path class="st5" d="M402.9,435.2c2.7,0.3,5.4,0.6,8.1,0.8c1.2,0.1,2.4,0.2,3.7,0.3c0.8-0.4,2.1-0.9,3.9-0.9c1.2,0,2.1,0.2,2.8,0.4
		c0.8,0,1.7,0.1,2.5,0.1c0.5,0.3,1.3,0.8,2.4,0.8c2.7,0.1,4.3-2.3,4.5-2.5l1.1-1c3.2-3,5.6-6.6,7.7-10.9c2.4-5.6,4.5-11.4,6.3-17.2
		c1.4-4.4-8.6-4.5-16.8-4.8c-3.4-0.1-6.6-0.3-8.4-0.9c-6.3-1.9-9.9-3.4-11.8,2.9c-1.8,6-4.5,14.6-6.6,18.5c-0.3,0.6-0.7,1.2-1.2,1.7
		c-1.3,1.8-2.6,3.6-3.9,5.3c-0.1,0.6-0.3,2.4,0.8,4.3C399.6,434.7,402.5,435.1,402.9,435.2z"/>
        <path class="st8" d="M443.4 412.5a81.5 81.5 0 0 1-3.9 9.7c-7.2 3.8-18.8 6.5-37.3-1.5 2.1-3.9 4.8-12.5 6.6-18.5 1.9-6.3 5.5-4.8 11.8-2.9 1.9.6 5 .7 8.4.9l14.4 12.3z"/>
        <path class="st9" d="M403.4 332.5c-3.7 2-2.3 11.9-.3 15.5l15.2 28.5c2 3.7 6.2 4.5 9.3 1.8l50.7-21.6c6.6-3.5 27.1-34.6 17.8-52l-12.6-6.3a7.6 7.6 0 0 0-10.3-3.1l-69.8 37.2z"/>
        <path d="M399.4 403.9c-.1-.8 0-1.6.2-2.4l5.4-13.8c5.4-19.4-11.4-33-14.6-53.2-2-12.8 29.7-32.1 41.5-37.4 11.8-5.3 16.1-24.4 21.4-12.5 13 29.2 26 49.7 19.1 79.3-3.7 15.6-28 53.4-28 53.4-2 5.6-13.6 6.6-25.9 2.2l-4.1-1.6c-7-3.2-12.2-7.5-14.2-11.4-.5-1-.7-1.8-.8-2.6z" fill="#3e5910"/>
      </g>
    </g>
    <g class="leg2">
      <path class="st9" d="M388.7 315v9.4c0 3.4 0-7.2.2-4.3.7 14.3 1.5 19.2 19.3 33.2 2.3 1.8 5.4 4.9 8.7 7.8 2.8 2.4 6.1 5.8 10.8 10.2l12.8-20.5s26.1-5.3 13.3-18.9a91.4 91.4 0 0 0-13.6-11.9 27.6 27.6 0 0 0-21-4.9c-3.6.8-8.2 1-12.8 1-9-.1-17.7-1.1-17.7-1.1z"/>
      <path class="st9" d="M487.4 384.2c-5.6 8.3-14.5 16.1-17.7 16.2-6.2.4-6.6 4.4-11.5-.2l-8.4-8.4a4339.8 4339.8 0 0 1-26.7-24.9l-4.9-4.6-1.3-1.3a23.4 23.4 0 1 1 33.7-32.8 51 51 0 0 1 2.3 2.4l8.9 8.4 19.9 18.5c.9.8 7.7 7.9 8.4 8.8 3.8 4.4 1.9 11.1-2.7 17.9z"/>
      <path d="M487.4 384.2l-11 1.3-6.1-9.2a741.6 741.6 0 0 1-34.5-31.8c-1.6-1.8-.8-5.6 1.6-8.8 3.6-4.6 10.5-7.8 18.4-1.1 1.7 1.4 9.1-.7 11.3.8.9.9 2.4 2.6 4.1 4.8 6.9 8.8 18.2 25.4 18.9 26.1 3.9 4.1 1.9 11.1-2.7 17.9z" fill="#4c9b0e"/>
      <path class="st9" d="M474.2 343.8c-2.8-3.6-7.8-3.1-18-5.4-13.9-3.1-16.4-5-18.6-2.8 3.7-6.2 10.5-7.8 18.4-1.1 1.7 1.4 9.1-.7 11.3.8.9.9 6.2 4.4 6.9 8.5z"/>
      <path class="st12" d="M492.8 371.3c.2 4.4-2.4 10.6-7 16.6-.9 1.1-1.8 2.3-2.8 3.3a44 44 0 0 1-6.9 6.2l-2 1.4c-6.1 4-11.9 5.2-14.8 2.5-2.7-2.5-2.3-7.7.5-13.5a45.7 45.7 0 0 1 7.3-10.8l.2-.2 3.2-3.2c.7-.6 1.6-.7 2.3-1.3 0 0 .6.5.3-.2a38 38 0 0 1 13-6.8h.3c.9 0 1.7.1 2.5.3.3.1.7.8 1.3 1.3.6.5 1.8 1.2 2.1 2 .2.9.5 1.5.5 2.4z"/>
      <path class="st4" d="M463.9 381c-1 1.3-1.8 2.6-2.6 3.9-10.8-10-30-27-38.4-34.4l-1.4-1.3-3.6-3.1c-6-5-12.7-10.4-15.1-20.4-.6-2.4-.9-5-.9-7.9v-3l4.5 1.1h.1v1.9c0 2.5.2 4.7.7 6.7 1.9 8.5 7.6 13.2 13.5 18.1l3.7 3.2 1.4 1.2c9.1 7.9 27.3 24 38.1 34z"/>
      <path class="st12" d="M440.2 319.8c-7.1 0-21.3 1.8-32.9 4.7l-4.4 1.2c-7.2 2.2-12.2 6.7-13.3 9.8-2.5-16-.9-24.1-.9-24.1l13.3 3.4 4.5 1.1h.1a163 163 0 0 0 33.6 3.9z"/>
      <path class="st5" d="M474.1 398.9a81.3 81.3 0 0 1 16.6 14.9 169.2 169.2 0 0 0 18.1.7c2.9-5.5 5.6-11.2 9-16.4l.1-.2c-2.6-6.9-5.5-11-25.5-29.2l-3.5-3.1a10 10 0 0 0-2.5-.3h-.2-.1c-2.7.3-14.9 7.7-15.6 8.3l-3.2 3.2-.2.2a40.5 40.5 0 0 0-7.3 10.8 180.1 180.1 0 0 0 14.3 11.1z"/>
     <path d="M406.5 317.9V316h-.1l-4.5-1.1v3c0 2.9.3 5.6.9 7.9l4.4-1.2c-.4-2-.7-4.2-.7-6.7z" fill="#f2e7e1"/>
     <g class="leghinge2">
        <path class="st5" d="M529.1 460.4c-1.4-5.8-3-21-6.4-38.4-3.9-20-3.5-20.5-4.7-23.8l-.1-.2-1.8-.7a25 25 0 0 1-6.5-4.2l-5.3.3-9.8.7-.8.2a27 27 0 0 1-4.6 7.4l.1.6 2.3 12.7c2.4 3.2 4.2 6.6 5 10.1 3.9 18.5 8.2 43.8 12.5 54.9 2 5 .7-3.8 5.9-3.8.9 0 4.9-1.4 5.8-1.7 6.1-1.7 9.9-7.9 8.4-14.1z"/>
        <path class="st4" d="M503 457.6s3.9 16.2 5.9 27.2c.9 5.4 6.6 10.8 11.7 11.4h2.7c6.2-.8 12.6-5.4 11.5-11.7-2.1-11.8-4.9-23.3-7.6-34.9l-24.2 8z"/>
        <path class="st6" d="M506.7 491.8l.1.6c.7 4.6 1.7 9.5 3 13.8l1.4 4.3c1.5 4.1 3.1 6.8 4.4 6.5 1.5 1.7 70.2-24.5 73.2-25.6 3-1.1 4.5-4.6 2.9-9.8l-.4-1.1a7.9 7.9 0 0 0-2-2.9c-3.6-3.3-9.3-1.8-13.7-.6l-2.9.8a19.7 19.7 0 0 1-9.6.4c-1.4-.3-2.7-.6-4.1-1.1l-5.7-2-2.3-.8-.8-.3a46.8 46.8 0 0 1-6.8-3.3l-.8-.5-2.1-1.6c-3-2.5-4.9-4.7-8.7-5.1-4.6-.5-11.9 2.2-12.8 6.9l-.1.9c0 1.8 1.1 5.3 1.5 8.4.3 2.3.1 4.5-1.3 5.7-4.7 4-7.4 1.1-9-2.4-1.4-3.1-1.8-6.6-1.8-6.6-2.5 1.1-2.7 7.7-1.6 15.4z"/>
        <path class="st7" d="M511.1 510.5c1.5 4.1 3.1 6.8 4.4 6.5 1.5 1.7 70.2-24.5 73.2-25.6 3-1.1 4.5-4.6 2.9-9.8l-.4-1.1c-16.2 5.7-80.1 30-80.1 30z"/>
        <path class="st4" d="M533.1 476c3-.7 6.1-1.7 9.2-2.6-3.1 2-5.4 4.4-4.4 6.5 1.2 2.3 4.4.3 5.8-.5 1.7-.9 4-1.7 6.2-2.6-.9 2.1-1.3 4.5-1.4 6.9-.1.9 1 1.5 1.7.9 4.1-3.4 7.8-5.2 12.9-6.3-1.4-.3-2.7-.6-4.1-1.1a29 29 0 0 0-8.2 4.2c.4-2.3 1.1-4.5 2.5-6.2l-2.3-.8-.8-.3c-1.8.8-3.8 1.4-5.1 2.1-1.1.6-4.5 1.9-4.8 2.2 1.8-2.1 4.2-4.1 6.9-5.5-1.5-.7-2.7-1.4-3.8-2.1l-7.9 2.3a15 15 0 0 1 7.1-2.8l-2.1-1.6c-3.7.9-7.1 2.4-8.6 5.8-.3.7.5 1.6 1.2 1.5z"/>
      </g>
    </g>  

    <path class="st5 arm2" d="M594 279.4a10.7 10.7 0 0 1-13.2 7.4l-12.5-3.7-19.3-5.9c-34.4-11-38.9-14.7-41-16.5-4.5-3.8-8.3-11.4-18.3-32.2-3.2-6.7-6.9-14.5-10.6-21.8a114.3 114.3 0 0 0-15.9-25.6 10.7 10.7 0 1 1 14.9-15.5c10.1 9.7 21.3 33.1 31.1 53.6 4.4 9.3 10.5 21.9 12.9 25.1 6.1 3.8 37.9 14.2 64.6 21.8 5.6 1.7 8.9 7.6 7.3 13.3z"/>
    <path class="st13" d="M510.3 315.6c3.8 1.8 8.2 3.8 8.2 6.7 0 2.8-5.1 5.2-18.9 2.3-13.8-3-16.9-9.8-14.5-11 2.4-1.2 12.6-1 12.6-1l12.6 3z"/>
    <path class="st14" d="M488.3 188l-6.5 125.2s-25.4 4.6-49.7 6.8l-10 .8c-17.9 1.1-33 .3-33.3-5.6v-.2c0-14.1 3.1-17.1 6.1-26.6l.1-.4a124 124 0 0 0 4.3-28.1v-73.5c0-16.7 2.9-25.3 13.6-28.5l1.6-.4a54 54 0 0 1 11.5-1.1l34.1 3.4c13.4.2 28.2 9.7 28.2 28.2z"/>
    <path d="M429.7 156.4h24c1.6.1 21.5 5.1 23.2 23.1 1 10.1 2 16.4-13.8 16.4h-2c-13.2 0-15.1-10-17.6-19.6-3.6-14-5.8-16.6-9.5-18.6-3.1-1.7-4.3-1.3-4.3-1.3z" fill="#ffb287" stroke="#fff" stroke-width="6.6" stroke-miterlimit="10"/>
    <path class="st5" d="M427.7 156.4h-.3.3zM465.6 164.8s-4.5 3.3-14.8 3.3c-2.6 0-6.7-1.2-6.7-1.2s-2.8-7.5-6.3-9.1c-2.5-1.2-2.2-1.4-2.2-1.4l9.4-22.5 27-1.5-6.4 32.4z"/>
    <path class="st8" d="M467 155c-.4 1.6-7.7-1.5-13.3-1.1-5.5.5-11.7 1.2-14.8 3.7-.4.4-2.1-3.9-2.4-2.5-1 4.6 4.8-28.8 4.8-28.8l31.7 1-6 27.7z"/>
    <path class="st8" d="M446.9 150.2c.5 2.6.4 4 8.3 3.6 13.1-.7 28.8-1.9 33.5-17.7 4.2-14.1-28.5-7.3-28.5-7.3s-8.4 4.6-10.4 8.5c-2 3.8-2.9 12.9-2.9 12.9z"/>
  
    <g>
      <path class="st17" d="M494 77.3V90.9c0 2.3-.3 3.6-3 3.6-2.3 0-1.6-9.5-4.6-9.5h-23.7c-10.7.1-37.1-.3-40.3 13.1l-.3-4.4-.4-5.4-.2-2.6-.1-2c2.6-13.4 31-12.6 41.2-12.7h23.7c1.6 0 3 .1 4.2.5 2.2.7 3.5 2.3 3.5 5.8z"/>
      <path class="st18" d="M492.2 90.8l-.2 3.7c-.3 4.3-.5 6.4-.5 10.7-3.6-13.4-29.5-13-40.4-13.1h-23.7c-3 0-2.3 9.5-4.6 9.5-2.7 0-3-1.3-3-3.6v-5.1-8.6c0-1.4.2-2.5.6-3.4.8-1.7 2.3-2.5 4.3-2.8a23 23 0 0 1 2.8-.2h23.7l5.5.1c5.5.3 12.4.9 18.7 2.1 4.9 1 9.5 2.3 12.6 4.2 2.6 1.9 4.3 4 4.2 6.5z"/>
      <path class="st19" d="M421.4 103.9c.4 8.5 2 24.5 13.7 24.4 6.1 0 11.3-8.5 11.1-10.5-.2-2-2.4-13.7-4.2-14.4-1.9-.6-20.6.5-20.6.5z"/>
      <path class="st19" d="M439 124.2c-1.2-2.5-2 5.3-2 4.4.5-12.1-15.4-9.5-15.5-22.3-.1-14.7-1-15.7-1.5-23.1-1.6-24.1 22.3-28.4 41.2-28.5 10.9-.1 20.8 3.3 24.9 14.1a69 69 0 0 1 1.6 38.5L439 124.2z"/>
      <path class="st8" d="M491.9 117.2c0 8.7-.5 21.5-8.6 26.4-2.3 1.4-3.6 4.4-8.4 5.5-5.1 1.2-7.2 2.4-7.8 5.3-.5 2.3-4.3-4.2-5.8-4.7-9.5-3.3-16.6-2.7-23.4-11.5-5.1-6.5-7.5-16-7.6-24.2l6.3-19.7c-.1-15.3 11.1-28.3 26.8-28.1 15.3.1 28.8 11.4 28.7 27.4-.7 7.8-.5 15.7-.2 23.6z"/>
      <path class="st5" d="M492.5 93l-.2 6.5c-.2 7.1-.4 10.4.7 17.7 6.9 29-11.9 43.1-33.3 40.1-20.7-2.9-19.5-27.4-19.4-49l1-14.3v-1.8c-.1-15.7 7.6-29.2 24.5-29.2 17.7 0 27.6 13 26.7 30z"/>
      <path class="st8" d="M440.7 106.8c.4 6.1-2.7 11.4-7 11.8-4.3.4-8.1-4.3-8.5-10.4-.4-6.1 1.9-10.9 6.2-11.7 4.2-.7 8.9 4.2 9.3 10.3z"/>
      <path class="st20" d="M488.6 72.7l.1.2-.1-.2c-1.8 4.3-5.9 7-9.3 7-9.7.2-16.1-8.7-25.6-7.9a11 11 0 0 0-8.3 4.6 15.6 15.6 0 0 0-2.5 9.3c0 8 0 22.1-2 23.9-1 .9-3.5-2-3.5-2 0-6.2-.9-9.7-4.9-11.5l1.8-4.3a30.3 30.3 0 0 1 10.7-23c-3.1-3.9-4.2-9.9-3.6-10.2 8.9-5 23.4-4 35-2.3 6.5.9 12.7 5.8 12.9 12.3.1 1.3-.2 2.7-.7 4.1z"/>
      <path class="st8" d="M492.5 78.8v14.1c0-5.5-3.3-6.3-7.6-6.3h-23.7c-4.5 0-11.5.5-18.3 1.5-6.8 1-20.6 2.7-21.9 11.6l-.9-14.4c1.6-9.2 16.3-10.6 23.4-11.5a165 165 0 0 1 17.8-1.2H485c4.3-.1 7.5.7 7.5 6.2z"/>
      <path class="st20" d="M489.9 73.3c7.9-7.8 4.6-15.9 0-24.3 0 0-13.6 14-16.2 14.1-2.5.1 4.3 10.2 4.3 10.2h11.9z"/>
      <path class="st20" d="M484.8 73.6a20.3 20.3 0 0 0-4.7-26.6c-7.5 8.5-26.9 7.8-30.6 8.4-3.7.5 15.9 14.1 23.7 20.8l11.6-2.6z"/>
      <path class="st19" d="M488.6 72.7l.1.2-.1-.2c-1.8 4.3-5.9 7-9.3 7-9.7.2-16.1-8.7-25.6-7.9a11 11 0 0 0-8.3 4.6c-2.5.1-4.7 0-5.5-.3l-.9-.5c-1.2-.9-2.4-2.4-2.4-2.4s.9-4.6 1.7-5.1l4.3-3.5c.9 2.3 2 3.3 5.4 3.4h36.4c4.3.2 4.7 3.3 4.2 4.7z"/>
      <path class="st17" d="M492.5 76.6v14.1c0-5.5-3.3-6.3-7.6-6.3h-23.7c-4.5 0-11.5.5-18.3 1.5-6.8 1-20.6 2.7-21.9 11.6l-.9-14.4c1.6-9.2 16.3-10.6 23.4-11.5a165 165 0 0 1 17.8-1.2H485c4.3-.1 7.5.7 7.5 6.2z"/>
      <path d="M421.4 101.6c.2 4.8-4.3 14.6-7.9 13.4 0 0 7.2 6.2 11.7 3.7l-2.6-12.7-1.2-4.4z" fill="none"/>
      <path class="st18" d="M442.9 85.8c-6.9.9-20.6 2.7-21.9 11.6l-.9-14.4c1.6-9.2 16.2-10.7 23.4-11.5-.4.9-.4 2.2-.7 4.2-.6 3.3.1 3.9.1 10.1z"/>
      <path class="st4" d="M494 79.6v3.5c-.3-.8-.8-1.4-1.4-1.8a9 9 0 0 0-4.7-.9h-28.7c-1.9 0-8.4.1-16.3 1.2l-.2-2.2c5.8-.8 10.9-1.1 13.9-1.1h31.2c1.7 0 3.3.1 4.7.6.6.1 1.1.4 1.5.7z"/>
      <path d="M442.8 81.6l-1.9.3c-9.5 1.4-16.1 3.7-19.1 6.5-.5.5-1 1-1.3 1.6-.4.8-.8 2.2-.8 3.1v-5c0-.5.4-1.1.6-1.3l1.3-1.1c4.5-3.2 12.1-5 19-6l2-.3.2 2.2z" fill="#cdc8d6"/>
    </g>
    <path class="st14" d="M508.9 312.1a94.6 94.6 0 0 1-4.3 6.9c-8.7 12.6-14.2 8.6-21.2 9.7-10.3 1.7-18.6 2.3-26.4 1.7-14.8-1-28.2-5.8-51.2-13.6l-1.2-.4-.7-.2-11.8-3.6c-3.4-1 32.3-54.6 37.7-59.4 5.4-4.8 20.2-16.9 24.5-19.8 4.3-2.9 15.1-9.6 17.2-13.2 2.1-3.6 16-39.7 16-39.7l.9 5.4c1.5 11.1 4.3 21.1 7.6 30.3 6.1 17.2 13.8 31.7 17.9 46.1a65 65 0 0 1-5 49.8z"/>
    <path class="st5" d="M504.6 319c0 .1 0 .1 0 0-1.4 2-2.7 3.7-4 5.2a29.3 29.3 0 0 1-19.1 11.2 67.6 67.6 0 0 1-24.6.1c-11.3-2.1-21.5-7.3-36.3-13.2-4.3-1.7-9-3.5-14.3-5.3l-.5-.2.5.2c21.8 6.7 52.6 5.7 77.3 3.8l19.9-1.7 1.1-.1z"/>
    <path class="st14" d="M518.5 322.3c-1.9-3-8.4-4.2-30.9-2.3s-5.4-10.8-3.3-14.9c2.1-4.1 19.5-72 27.4-49.1 6.2 17.9 6.5 21.3 7.4 40.5.7 13.1-.6 25.8-.6 25.8z"/>
    <path class="st23" d="M467.5 100.7c-1.2 2-2.1 5.7-6.6 5.6-4.5-.1-5.5-4.2-4.3-6.3 1.1-2.2 10.9.7 10.9.7zM491.2 100.7c-1.2 2-2.1 5.7-6.6 5.6-4.5-.1-5.5-4.2-4.3-6.3 1.1-2.2 10.9.7 10.9.7z"/>
    <path class="st8" d="M435.8 134.9c2.8 8.2-3.9 19.4-12.8 20.1l16.1 1.3 1.6-10.2s-1-9.4-2.5-11.2c-1.5-1.8-2.4 0-2.4 0z"/>
    <g>
      <path class="st8" d="M475.4 121.3c2.7 0 5-1.6 4.9-3.1 0-.6-.6-1.3-1.7-.8-.5.2-1.8.5-3.2.5-1.4 0-2.2-.3-3-.5-1.7-.5-2.3.2-2.3.7-.1 1.6 2.6 3.1 5.3 3.2z"/>
    </g>
    <path class="st24" d="M460 106.2c0 1.3 1.1 2.4 2.4 2.4 1.3 0 2.4-1.1 2.4-2.4 0-1.3-1.1-2.4-2.4-2.4-1.3 0-2.4 1-2.4 2.4zM481.5 106.5c0 1.3 1.1 2.4 2.5 2.4s2.5-1.1 2.5-2.4c0-1.3-1.2-2.4-2.5-2.4a2.4 2.4 0 0 0-2.5 2.4z"/>
    <path class="st25" d="M456.6 99l10.9-.2M481.1 99.2l9.4.7"/>
    <path d="M468.4 133c.8-.5 3.4-1.6 6.1-1.6 2.6 0 3.9 1 4.5 1.6l-4.5 1.1" fill="none" stroke="#e5785c" stroke-width="4.4" stroke-linecap="round" stroke-linejoin="round" stroke-miterlimit="10"/>
    <path class="st5" d="M446.9 166.6c2.1 3.4 18.7 1.5 18.7 1.5 0-3.7 1.9-6.3 4.5-8.3l.9-.6c2.5-1.7 5.5-3 8-4.3l.2-.1 1.9-1c1.5-.9 2.1-1.3 2.3-1.7.3-.9-3.1-.7-2.8-4.5l-21.7 6.4-3.4 1c-1.9.6-3.3 1-3.8 1.3-.6.2-1.2.7-1.8 1.2l-1 1c-1.9 2.4-3.4 5.7-2 8.1z"/>
    <path class="st8" d="M439.4 157.3c1.8-1.3 4.2-2.5 10 0l.5.2a39.7 39.7 0 0 0 20.2 2.2l.9-.6c2.5-1.7 5.5-3 8-4.3l.2-.1 1.9-1c1.5-.9 2.1-1.3 2.3-1.7a34.3 34.3 0 0 1-24.4 1.9l-1.2-.4c-14.3-5.2-17-20.4-17.5-29.3 0 0 1.5 26.9 1.3 28.5-.1.8-2.8 2.6-3.6 3.9-.4.6.7 1.4.7 1.4s-.6.3.7-.7z"/>
    <path class="st23" d="M472.8 137.8c1.9-.1 2.9-.3 4.3-.6s2.1.8.9 1.7a8.3 8.3 0 0 1-5.3 1.5 7.5 7.5 0 0 1-3.1-.9c-1.3-.7-1.2-2.3 0-2.1.8.2 2.2.5 3.2.4z"/>
    <path class="st5" d="M512.2 319.5l-.1.4c-.7 3.2-2 6-4 8.5-7.8 9.6-25.6 13-51.3 7.3-10.2-2.3-3.9-5-4.9-8.8l23.2-2.8 3.2-.4 5.2-2.7.2-.1c8-.6 14.6-1.4 19.7-1.7l1.1-.1c3.3-.2 5.9-.1 7.7.4z"/>
    <path d="M512.2 319.5l-.1.4c-.7 3.2-2 6-4 8.5 1.2-2.2-.2-3.9-3.6-4.7a97.3 97.3 0 0 0-24.8 0l-4.7.4c-18.3 1.3-44.4.8-54.6-1.6-4.3-1.7-9-3.5-14.3-5.3 21.8 6.7 52.6 5.7 77.3 3.8l.2-.1c8-.6 14.6-1.4 19.7-1.7l1.2-.1c3.3-.2 5.9-.1 7.7.4z" fill="#d36853"/>
    <path class="st13" d="M430.5 321.2l-7.8-.6c-13-1-24.1-2.2-33.3-5.6a42 42 0 0 1-7.7-3.7s10-13.3 13.8-23.1v-.1l.1-.3a124 124 0 0 0 4.3-28.1v-50.6c7.5-8.5 16.2-13.1 18.1-12.5 6.2 1.8-.4 80.5-1.1 86.8-3.4 31.4 19 38.2 13.6 37.8z"/>
    <g>
      <path class="st5" d="M401.5 188.7v14.6c0 10.9 4.4 17 15.2 17 21.9 0 18.1-30.9 14.5-45.2-3.5-14.1-12.8-18.7-16.5-17.6-7.8 1.8-11.8 6-13.8 13.4-1.2 4.1.6 11.5.6 17.8z"/>
      <path class="st4" d="M416.7 222.7c-14.5 0-17.6-10.6-17.6-19.4v-14.6c0-2.4-.3-5-.5-7.5-.4-4.1-.8-8-.1-11 2.2-8.3 7.5-11 15.6-13.5.5-.2 3.6-.9 4.2-.9 3 0 4.1 1 7.2 3.9 2.6 2.5 6 7.1 8 14.8 1.7 6.8 6.6 30-2.5 41.7a17.3 17.3 0 0 1-14.3 6.5zm-.9-63l-.5.1h-.1c-6.8 1.6-10.3 4.9-12 11.6-.6 2.1-.2 5.6.2 9.3.3 2.6.6 5.3.6 8v14.6c0 10.1 3.9 14.7 12.8 14.7 4.7 0 8.1-1.5 10.6-4.7 4-5.2 6.6-17.8 1.6-37.6a25.6 25.6 0 0 0-6.7-12.6c-2.7-2.5-5.2-3.4-6.5-3.4z"/>
    </g>
    <path d="M399.3 186.5v39.9c22.3 0 19.5-63.2 19.5-63.2h-4.7c-10.7 3.1-14.8 6.5-14.8 23.3z" opacity=".6" fill="#e5785c"/>
    <path class="st8" d="M437.6 154.3c-18.4 0-26 3-29.2 4.4-7.9 3.5-13.3 7.3-13.3 7.3s19.9-12.1 43.4-7.8c0 0-.7-4.5 7.9-5.5s.9-2.6-.1-2.4c-1 .2 1.5.2 1.5.2l-10.2 3.8z"/>
    <g>
      <path d="M474.5 135.9l-.9.1c-4.5.1-7 .4-7.1-2.2l.1-.7c.9-3 8.1-3.6 10.3-1.6 1.5 1.5.8 4-2.4 4.4z" fill="#8e2b30"/>
      <path d="M474.5 135.9l-.9.1c-4.5.1-7 .4-7.1-2.2l.1-.7c2.9 0 6.4.5 7.9 2.8z" fill="#ff6464"/>
      <path class="st5" d="M456.3 108.1c3.6-.7 8.2-1.8 10.8 0 2.6 1.8-3.8 4.3-3.8 4.3-5.6 1.1-7-4.3-7-4.3z"/>
      <path class="st8" d="M447.2 107.2c-.7 3.4-7.5 8.4-2.3 10.2 5 1.6 2.3-10.2 2.3-10.2z"/>
      <path class="st5" d="M477.6 108.9c3.6-.7 8.2-1.8 10.8 0 2.6 1.8-3.8 4.3-3.8 4.3-5.6 1.1-7-4.3-7-4.3z"/>
      <path class="st31" d="M496.9 93.3c2.4 1 7.8 4.3 4.4 6.6-3.4 2.2-4.4-6.6-4.4-6.6zM447.1 107.1c-.4 3-5.9 7.8-1.3 8.9 4.4 1.1 1.3-8.9 1.3-8.9z"/>
    </g>
    <g class="arm1">
      <path class="st5" d="M461.7 301.8a11.6 11.6 0 0 0-.6-14.6c-19.1-21.8-35.6-45-38.1-52.8.9-14.1 8.2-26 6.4-57.2-.4-6.4-7.8-15-14.2-15.1a14 14 0 0 0-13.7 11.7c-1.6 9.6-5 44.4-5.3 59.3-.3 11.9 11.2 21.6 24.2 38.3 11.6 14.9 23.2 28 23.6 28.6 4.2 4.9 11 8 15.9 3.8l1.8-2z"/>
      <path class="st5" d="M450.5 296.4c-4 4.5-4.1 12.1-.4 16.8l.2.3a13.8 13.8 0 0 0 16.5 3.5l5.3-2.8c5.3-2.8 6.5-8.8 2.6-13.3l-6.8-7.9a9.2 9.2 0 0 0-14.3-.1l-3.1 3.5z"/>
      <path class="st5" d="M477.6 289c-1.6-.5-4.5-2.2-7.3-3.4l-2.4-.9a14.3 14.3 0 0 0-12.9.4c-.9.5-2 5.1-1.3 4.4.7-.7 1.1.7 1.7 1.8-1.3.1.1-1.9-1.2-2.3-2.3-.8-3.7 1.8-2.8 3.5h-.1c-.4 0-.6.2-.7.5l-.2-.1c-1-.4-1.5 1.2-.5 1.5 3.4 1.3 7.1.8 10.5-.3l.3-.1c1.4-.3 3.5-3.1 5.5-3.6 3.7 2.6 10.1 5.2 12.1 4.3 3.2-1.5 3.6-4.3-.7-5.7z"/>
      <path class="st8" d="M456.4 282.9c.7.9.9 3.9-1.1 6.9-2 3-7.9 10.6-10 11.5-.3.1-7.4-8.7-7.4-8.7s13.3-8.9 13.1-8.9c-.2-.1 5.4-.8 5.4-.8z"/>
      <path class="st5" d="M470.4 309.6c1.9 2.5 2.8 2.4 3.5 3.6.6 1.2 3.1 2.8 5.9.8 2.9-1.9 3.1-3.7-2.7-10.4-5.8-6.7-8.5-1.7-8.5-1.7l1.8 7.7z"/>
      <path class="st32" d="M446.8 294.2c-.8.7-2 .5-2.6-.3l-4.5-5.7c-.6-.8-.5-2 .3-2.6l7.1-5.7c.8-.7 2-.5 2.6.3l4.5 5.7c.6.8.5 2-.3 2.6l-7.1 5.7z"/>
      <path d="M452.6 287.7l-.5.5-5.1 4.1c-.5.4-.9.6-1.2.5-.3 0-.6-.3-1-.7l-3.1-4c-.6-.8-.7-1.2-.3-1.6l.6-.6 5.1-4.1c.5-.4.9-.6 1.2-.5.3 0 .6.3 1 .8l3.1 4c.6.7.5 1.2.2 1.6z" fill="#4f4351"/>
      <path class="st32" d="M441.5 286.6l.6-.6 5.1-4.1c.5-.4.8-.5 1-.5.2 0 .5.2.9.7l3.1 4c.6.8.4 1.2.2 1.5l-.5.5-5.1 4.1-1 .5c-.3 0-.5-.2-.9-.7l-3.1-4c-.6-.9-.5-1.1-.3-1.4m-.4-.3c-.4.6-.3 1.1.3 1.9l3.1 4c.8 1 1.5 1.1 2.5.3l5.1-4.1.6-.6c.4-.6.4-1.2-.2-2l-3.1-4c-.8-1-1.4-1.2-2.5-.3l-5.1 4.1-.7.7z"/>
      <path class="st34" d="M454.5 286.1s0-.7.7-1.2l2.3-1.8s1.1-.8-1.1-3.6v.1c-2.2-2.8-3.2-1.9-3.2-1.9l-2.3 1.8c-.6.5-1.3.4-1.3.4l4.9 6.2zM444.4 294.2s-.6-.1-1.3.4l-2.3 1.8s-1 .9-3.2-1.9v.1c-2.2-2.8-1.1-3.6-1.1-3.6l2.3-1.8c.6-.5.7-1.2.7-1.2l4.9 6.2z"/>
      <path d="M440.5 286.4l7.5-6a2 2 0 0 1 1.7-.4 2 2 0 0 0-2.5-.1l-7.1 5.7c-.8.6-1 1.8-.4 2.6-.1-.7.2-1.4.8-1.8z" opacity=".7" fill="#fff"/>
      <path d="M453.6 287.7l-7.5 6a2 2 0 0 1-1.7.4 2 2 0 0 0 2.5.1l7.1-5.7c.8-.6 1-1.8.4-2.6 0 .7-.3 1.4-.8 1.8z" opacity=".8" fill="#ffb287"/>
    </g>
  </g>
      <g>
      <path class="st7" d="M587.4 467.6c-5-3-12.6.3-16.4 1.4-6.3 1.8-7.4 3.3-8.5 6.6-.3.7 25.5-7.6 24.9-8z"/>
      <path class="st37" d="M673.6 222.4l-97 46.6a8.8 8.8 0 0 0-4.8 10.7l110.4-43.8.5-10.6a7.2 7.2 0 0 0-9.1-2.9z"/>
      <path class="st38" d="M732.1 589c-2.2 3.2-5.9 5-9.7 5H620.5c-6.6 0-11.9-5.3-11.9-11.9 0-6.6 5.3-11.9 11.9-11.9h85.3c-22-69-33.8-147.5-33.3-217.7a518 518 0 0 1 3.4-55.6 11.9 11.9 0 1 1 23.4 4.2 487.7 487.7 0 0 0-2.9 51.3c-.2 26.7 1.5 55.1 5 84.1 6 49.4 17.1 98.4 32.3 141.6 1.2 3.7.6 7.7-1.6 10.9z"/>
      <path class="st39" d="M699.4 301.1a487.7 487.7 0 0 0-2.9 51.3h-23.9a518 518 0 0 1 3.4-55.6h23.1c.3 1.4.4 2.9.3 4.3zM733.5 587.1a11.8 11.8 0 0 1-10.8 6.8h-36.8v-6.8h47.6z"/>
      <path class="st40" d="M722.9 589c-2.2 3.2-5.9 5-9.7 5H611.3c-6.6 0-11.9-5.3-11.9-11.9 0-6.6 5.3-11.9 11.9-11.9h85.3c-4.7-14.8-9-30-12.7-45.5h24.6c4.6 18.5 10 36.5 16 53.5 1.2 3.6.6 7.6-1.6 10.8zM502.5 588c-2.2 3.2-5.9 5-9.7 5H231.1c-6.6 0-11.9-5.3-11.9-11.9 0-6.6 5.3-11.9 11.9-11.9h85.3c-4.7-14.8-6.3-19.3-10-34.8l25.6 3.5c4.6 18.5 166.1 22.2 172.1 39.3a12 12 0 0 1-1.6 10.8z"/>
      <path class="st39" d="M708.4 524.6h-24.6a710.6 710.6 0 0 1-20.1-190.4l.4-9.1c.5-8.9 1.2-17.7 2.2-26.2v-.4l.1-.4a12 12 0 0 1 23.6 0c.2 1 .2 2 .1 3.1-.6 5.5-1.2 11.2-1.6 17a622 622 0 0 0 3.6 118.4c3.7 29.8 9.2 59.6 16.3 88z"/>
      <path class="st39" d="M771.5 250.9a14 14 0 0 1-3.5 8.6l-26.2 27.6s-4.8 4.3-6.9 5.3l-3.3 1.6-55.4 25.9a9.8 9.8 0 0 1-5.4 1.1l-.1.1H552.9l25.9-27 41.3-43.1 21.5-19.2 117.4-3.1c3 0 5.7 1.9 6.8 5l5.3 12.7c.4 1.3.6 2.9.4 4.5z"/>
      <path class="st40" d="M731.5 294l-55.4 25.9a9.8 9.8 0 0 1-5.4 1.1l-.1.1H552.9l25.9-27h152.7z"/>
      <path class="st41" d="M771.6 251H620.1l21.9-22.3h117c3 0 5.7 1.9 6.8 5l5.3 12.7c.4 1.3.6 2.9.5 4.6z"/>
      <path class="st40" d="M753.8 540.6v4.7l-.2 3.4a32.2 32.2 0 0 1-31.9 28.7H593.3l-2.7-.1c-16.5-1.2-29.4-13.4-29.4-30l14.9-15.1 22.2-22.4H722.9a30.5 30.5 0 0 1 29.7 22.5c.8 2.5 1.2 5.4 1.2 8.3z"/>
      <path d="M753.6 548.7a32.2 32.2 0 0 1-31.9 28.7H593.3l-2.7-.1c7.7-8.4 15.3-16.3 15.3-16.3h111.9c18.6 0 33.6.3 34.8-10.1.1-1 .5-1.7 1-2.2z" opacity=".2" fill="#7fb4dd"/>
      <path class="st41" d="M752.6 532.1H576.2l22.2-22.4H723a30.5 30.5 0 0 1 29.6 22.4z"/>
      <path d="M232.2 588.6c-15 0-27.3-12.1-27.3-26.9a29.7 29.7 0 0 1 28-29.1l367.4-19.2h1.2c13.5 0 24.1 11.9 24.1 27.2v4.8c0 15.7-7.8 28.4-17.9 28.8l-374.4 14.5-1.1-.1z" fill="#b9bac0"/>
      <path d="M601.5 517.8c10.9 0 19.7 10 19.7 22.8v4.8c0 13.1-6.1 24.1-13.7 24.4l-26 1-36.2 1.4-312.2 12.1h-.9c-12.7 0-22.9-10-22.9-22.6 0-12.9 10.7-24 23.8-24.7l298.7-15.6 35.9-1.9 32.7-1.7h1.1m0-8.8h-1.4l-32.7 1.7-35.9 1.9-298.7 15.6a34 34 0 0 0-32.1 33.4 31 31 0 0 0 9.3 22.2 32 32 0 0 0 22.3 9.1h1.3l312.2-12.1 36.2-1.4 26-1c6.7-.3 12.9-4.6 16.9-11.8a44.4 44.4 0 0 0 5.1-21.3v-4.8c0-8.3-2.8-16-7.9-21.9a27.3 27.3 0 0 0-20.6-9.6z" fill="#6b7680"/>
      <path class="st40" d="M601.5 526.5c6 0 11 6.3 11 14.1v4.8c0 9.5-3.8 15-5.4 15.6l-25.9 1-36.2 1.4-312.2 12.1h-.6a14 14 0 0 1-14.2-13.8c0-8.2 7.1-15.5 15.5-16l298.7-15.6 35.9-1.9 32.8-1.7h.6m0-8.7h-.9l-32.7 1.7-35.9 1.9L233.1 537a25.3 25.3 0 0 0-23.8 24.7 22.6 22.6 0 0 0 22.9 22.6h.9l312.2-12.1 36.2-1.4 26-1c7.5-.3 13.7-11.3 13.7-24.4v-4.8c0-12.8-8.8-22.8-19.7-22.8z"/>
      <circle cx="231.8" cy="561" r="14.9" fill="#6d7d84"/>
      <path class="st46" d="M593.8 570.3l-24.7 1a682.6 682.6 0 0 1-13.5-51.1l24.2-1.3c4.1 17.6 8.8 34.8 14 51.4z"/>
      <path class="st46" d="M566 560.9H451.2a16.5 16.5 0 0 0 0 33h125l-10.2-33z"/>
      <g>
        <path class="st38" d="M617.4 587.1a11.8 11.8 0 0 1-10.8 6.8H504.7c-6.6 0-11.9-5.3-11.9-11.9 0-6.6 5.3-11.9 11.9-11.9H590c-22-69-33.8-147.5-33.3-217.7a518 518 0 0 1 3.4-55.6 12 12 0 0 1 12.9-9c5.1.6.8 5.3 2 10 .3 1.3.2 4.7 0 6.2-1.8 16.1 5.7 30.4 5.6 48.3-.2 26.8 1.5 55.1 5 84.1 6 49.4 17.1 98.4 32.3 141.6 1 3.1.8 6.3-.5 9.1z"/>
        <path class="st39" d="M583.6 301.1a487.7 487.7 0 0 0-2.9 51.3h-23.9a518 518 0 0 1 3.4-55.6h23.1c.4 1.4.5 2.9.3 4.3z"/>
        <path class="st40" d="M573.2 312.9h14.3l-2-12.4z"/>
        <path class="st39" d="M617.4 587.1a11.8 11.8 0 0 1-10.8 6.8h-36.8v-6.8h47.6z"/>
      </g>
      <g>
        <path class="st47" d="M580.8 570.1c-27.9-87.3-39.4-189.9-30.2-271.7.7-6.5 6.6-11.3 13.2-10.5 6.5.7 11.3 6.6 10.5 13.2-4.5 40.2-3.8 87 2 135.4 6 49.4 17.1 98.4 32.3 141.6a11.9 11.9 0 0 1-11.2 15.8"/>
        <path class="st40" d="M563 291.4l-5.8.5-27.3 2.2-62.3 5.2h-.5a6.1 6.1 0 0 1-1.5-12h.1l.9-.1 71-5.9 19.2-1.6 1.4-.1h.6l3.1-.3a6 6 0 0 1 6.6 5.6 5.8 5.8 0 0 1-5.5 6.5z"/>
        <path class="st39" d="M560.1 281.6c.2 1.7-1 3.1-2.6 3.4h-.3l-26.8 2.4-66 5.8h-.3c-1.2 0-2.2-.6-2.8-1.6a6.2 6.2 0 0 1 4.4-4.3h.1l.9-.1 71-5.9 19.2-1.6 1.4-.1h.6c.6.4 1.1 1.1 1.2 2z"/>
        <path class="st40" d="M557.6 290.5c0 .5-.2 1-.4 1.4l-27.3 2.2c-.6-2.1.2-4.4 1.5-6.6 1.8-2.9 4.5-5.4 6.3-6.4.4-.2.8-.4 1.1-.4l17.9-1.6h.1l.1.4.3 1.2.3 4.4c.1 2 .2 3.9.1 5.4z"/>
        <path class="st40" d="M634.5 242.9l-26.2 27.6s-4.8 4.3-6.9 5.3c-11.8 5.5-44.4 31.4-51.9 35.3-4.6 2.4-13.4-17.4-25.8-16.4-4.4.4 6.1-4.9 6.9-5.4l89.6-41.1c3.1-1.3.8-.8 2.8 1.6.6.7 7.8-11.5 8.1-10.6l4.5-.3c1.3 4.1 1.9.8-1.1 4z"/>
      </g>
      <path class="st47" d="M650 259.6l-26.2 27.6s-4.8 4.3-6.9 5.3L558.2 320c-9 4.2-11.5-4.5-11.5-4.5l-10.1-27.8-.3-1a9 9 0 0 1 5.1-9.7l97-46.6a7.3 7.3 0 0 1 9.9 4.5l4.9 11.6a15 15 0 0 1-3.2 13.1z"/>
      <path class="st41" d="M649.2 237.3s-1.9-5.3-8.5-2l-104.5 51.4a9 9 0 0 1 5.1-9.7l98.8-47.8c3.1-1.4 7.3 1 9.1 8.1z"/>
      <path class="st47" d="M586.3 557.9H461a18 18 0 1 0 0 36h136.4l-11.1-36z"/>
      <path d="M734.8 239.8c-.3 3.1-5.7 7.5-8.8 7.5h-34.5a15 15 0 0 1-9.6-4.1l-11.5-11.8s-1.6-2.7-6.2-2.7h58.6l8.9.6 3.1 10.5z" opacity=".8" fill="#47454c"/>
      <path class="st37" d="M734 228.7l2.7 8.8c-.3 2.6-4.7 6.3-7.4 6.3h-37.1c-2.6 0-6.3-1.5-8.1-3.4l-9.7-9.9s-1.4-1.7-5.3-1.7 10.5-3.3 10.5-3.3l54.4 3.2z"/>
      <g>
        <path d="M736.9 235.2a7.4 7.4 0 0 1-7.2 6.5h-32c-3.6 0-8.6-2.1-11.1-4.7l-10.2-10.5c-2.5-2.6-1.6-4.7 2-4.7h53.3c3.6 0 6.3 2.9 5.9 6.5l-.7 6.9z" fill="#cad8e5"/>
      </g>
      <path class="st39" d="M698.5 309.5h-10.6l-1.9 13.1h7.5z"/>
      <path class="st40" d="M690.1 301.1c-.6 5.5-1.2 11.2-1.6 17a333 333 0 0 0-24.8 16l.4-9.1c.5-8.9 1.2-17.7 2.2-26.2v-.4l.1-.4H690c.2 1 .2 2.1.1 3.1zM237 561a8 8 0 0 1-8.1 7.9 8 8 0 0 1-8.1-7.9 8 8 0 0 1 8.1-7.9 8 8 0 0 1 8.1 7.9z"/>
    </g>
  <g class="pizza">
  <path fill="none" stroke="#000" stroke-width="3" stroke-miterlimit="10" d="M595 3v123"/>
  <g>
    <path d="M631.1 137.3c-3.4-3.7-8.1-6-12.5-8.5-5.7-3.3-14.1-8.1-19.1-12.4a5.6 5.6 0 0 0-6.9-.3 5.5 5.5 0 0 0-1.3 6.8c-6.5 5.4-13.1 10.8-18.5 17.3-2.5 2.9-4.6 6.1-6.8 9.2l-9.5 13.7c-.2.3-.4.6-.4.9 0 .4.4.8.8 1 1.4.7 3.1.5 4.6.2 3.1-.5 6.2-1.2 9.2-1.8 20.3-4.4 40.9-8.8 59.4-18.4 1.1-.5 2.2-1.2 2.7-2.2.9-1.9-.3-4-1.7-5.5z" fill="#ffa66b"/>
    <path class="st53" d="M598.5 154.8l-2.2.8c-1.7.5-3.4.1-5.1.3-1.6.2-3.2 1-4.8 1.5-2 .6-4.1.7-6.1.9-7.3.9-14.2 4.2-21.5 5.3-.9.1-1.9.2-2.7.6.1.3.4.6.8.7 1.4.7 3.1.5 4.6.2 3.1-.5 6.2-1.2 9.2-1.8 11.1-2.4 22.3-4.8 33.2-8a6.8 6.8 0 0 0-5.4-.5zM595.9 117.7c.8.6 1.2 1.6 2 2.2 1.4 1.1 3.5.6 5.2 1.2 2.7.8 3.8 4 6.1 5.6 1.1.8 2.5 1.2 3.8 1.7 1.2.5 2.3 1.2 3.4 2l4.8 3.1c.7.5 1.5.9 2.1 1.6.6.6 1 1.4 1.3 2.3.1.4.2.9.6 1.1.5.3 1.1-.1 1.7-.4 1.3-.8 3.1-1 4.6-.6l-.2-.3c-3.4-3.7-8.1-6-12.5-8.5-5.7-3.3-14.1-8.1-19.1-12.4a5.6 5.6 0 0 0-6.9-.3 5 5 0 0 0-1.8 3l.5-.4c1.1-1 3-1.8 4.4-.9zM631 140.3c-1.9-.5-3.9.8-4.6 2.6l-.5 1.3c-.6.9-1.8.9-2.8 1.3-2 .6-3.4 2.4-5.3 3.2-2.1.9-4.5.6-6.5 1.5-.4.2-.8.4-1 .7l-.4 1.1-.5 1.5a139 139 0 0 0 20.7-8.6c1.1-.5 2.2-1.2 2.7-2.2l.3-.9a3.6 3.6 0 0 0-2.1-1.5z"/>
    <path d="M624.9 138.8c-1.5-.7-3.2-1.3-3.7-2.8-.2-.5-.2-1.1-.5-1.5-.6-.8-2-.5-2.9-1.1-.7-.5-.9-1.5-1.6-2-.7-.5-1.5-.3-2.3-.6-1.3-.5-1.8-2.2-2.8-3.1-1-.9-2.4-1.2-3.4-2.2-1.2-1.2-1.5-3.3-2.9-4.1-1.8-1-3.9.4-5.9.1-1.5-.2-2.6-1.3-4-1.9-1.4-.6-3.5 0-3.9 1.4a204.6 204.6 0 0 0-25.3 28.1l-4.8 6.2-3.8 4.9c-.6.8-1.2 1.8-.7 2.7.5.8 1.7.8 2.6.5.9-.3 1.9-.7 2.8-.4l1.2.8c1.1.6 2.6.5 3.5-.4.8-.7 1.4-2 2.5-1.7l1 .5c1.2.4 2-1.2 2.8-2.2 1.3-1.5 3.4-1.9 5.4-2.1l7.8-1c1-.1 2.1-.3 3.1 0 1.7.4 3.1 1.7 4.9 2 4.1.5 6.6-5.2 10.7-5.6.7-.1 1.4 0 2-.2.9-.2 1.6-.8 2.4-1.2.8-.4 1.8-.5 2.7-.7 5.1-1.1 9.6-3.9 13.9-6.7.8-.5 1.6-1.1 1.9-2 .3-1.7-1.2-3-2.7-3.7z" fill="#ffc942"/>
    <path class="st55" d="M571.3 156.8c-1.1.4-2.4.6-3.6.6-.5 0-1-.1-1.4.1-.4.1-.6.5-.7.8-1 .4-2.1.6-3.2.4-.8-.1-1.6-.4-2.4-.2l-.6.3c-.3.4 0 1 .5 1.2.5.2 1 .1 1.5.1s1.1.1 1.4.5l.3.9c.2.4.7.7 1.1.7 1.1 0 1.6-1.3 2.4-2a4 4 0 0 1 2.4-.7c.8-.1 1.7-.1 2.5-.4.8-.3 1.5-1.1 1.4-1.9l-.2-.5c-.2-.3-.9-.1-1.4.1zM615.4 137.6l-1.5-.5c-.7-.4-1-1.2-1.6-1.9-.5-.6-1.4-1.1-2.1-.7-.7-1.3-2.6-1.9-3.9-1.1-.2.1-.4.4-.4.6 0 .2.2.3.4.4 1 .7 2.3 1.4 2.3 2.7 0 2-3.3 2.5-3.6 4.4-.2 1.3 1.1 2.8.3 3.8l-.8.8c-.3.5-.3 1.1 0 1.6.2.5.7.9 1.1 1.3.4.4.9.7 1.4.5.3-.2.4-.5.4-.8.2-1.5-.2-3.1.2-4.6a5 5 0 0 1 2.4-3.1c1.2-.7 2.5-1 3.9-1l1.6-.1c.5-.2 1-.7.9-1.2-.1-.5-.6-.9-1-1.1zM595 141.4c-.2.1-.5.2-.7 0l-.1-.1.3-.1h-.4c-.2-.3-.6-.5-.9-.3l-.4.5c-.3 0-.6.1-.8.3-.3.3-.2.9.1 1.3.3.3.9.4 1.3.3.4-.1.7-.3 1.1-.3.4.1.7.3 1.1.3.5 0 .9-.7.7-1.2-.1-.6-.8-.8-1.3-.7zM587.2 136.8l.6.1c.4 0 .9-.1 1-.5.1-.3-.1-.7-.4-.9l-.9-.5c-.2-.1-.4-.3-.3-.6.1-.2.3-.3.4-.3l1.1-.1c.4-.1.8-.3.8-.7.1-.4-.2-.7-.5-.9-.3-.2-.7-.2-1-.2-.3 0-.7.1-.9.3a5.2 5.2 0 0 0-3.7-.3c-.2.1-.4.2-.4.4l.1.2c.5.5 1.1.9 1.7 1.1l.4.3c.1.3-.2.4-.5.5l-1.1.4c-.3.2-.5.7-.3 1 .2.3.7.2 1 .1l1-.3c.9.1 1.3.7 1.9.9zM587.8 137.5c-.9-.3-1.6-.3-2.4.1-.2.1-.1.5.1.4 1.6-.1 3.4 1.9 4.9.9.2-.1.2-.3.1-.5-.7-.6-1.9-.7-2.7-.9zM591.7 134.9c-.6-.3-1.8-.6-2.3 0v.3c.2.3.5.4.9.5l1.1.3c.6.1.8-.8.3-1.1zM575 145.4c.2 0 .5-.1.6-.3.4-.6-.4-1-.8-1.3-.3-.2-1-.5-1-.9 0-.3-.3-.5-.6-.4-.8.3-.7 1.3-.2 1.8.4.6 1.2 1 2 1.1zM575.2 155.7c.5-.6 0-1.4-.7-1.2-.8.2-1.5-.4-2.3-.1-.6.2-1.2.9-.8 1.5.1.2.5.3.7.1.2-.2.3-.3.5-.2l.9.4c.6 0 1.3 0 1.7-.5zM575.8 156.7h-.4l-.3.1-.7.1c-.5 0-.5.7 0 .7l.9-.1c.3-.1.5-.2.7-.5.1-.1 0-.3-.2-.3zM602.9 144l-1.1-.3c-.4-.1-.9-.2-1.3-.1-.3.1-1.5.7-.8 1.2l.6.2.8.3c.6.2 1.3.4 1.8 0 .4-.4.5-1.1 0-1.3z"/>
    <g>
      <path class="st55" d="M571.5 148c.6.5 1.1 1.1 1.8 1.1.3 0 .5-.1.8 0 1.3.1 1.5 2.4 2.8 2.6.4.1.8-.1 1.2-.2.6-.3 1.3-1 1-1.6-.2-.5-.9-.5-1.4-.7-1.3-.5-2.1-2.4-3.5-2.2-.6.1-1.1.4-1.6.3-.5-.2-.8-.8-.9-1.3a6 6 0 0 1-.1-2.3c.1-.7.2-1.3 0-2l-4.1 5.1c1.5-.1 2.9.3 4 1.2zM590 126.3c.6.2 1.3.6 1.1 1.1a1 1 0 0 1-.5.6c-.6.4-1.3.7-2.1.7l-.5.1c-.4.3 0 1 .5 1.1.5.1 1-.1 1.5-.1.6 0 1.2.4 1.4 1 .1.4.1.8.3 1.1.3.7 1.3.9 2 .7s1.3-.8 1.9-1.3c.6-.5 1.3-1 2-1.1.6-.1 1.2.2 1.8.4l3.7 1.3c.3.1.7.2 1.1.1.7-.2.7-1.2.3-1.8-.4-.5-1.2-.8-1.8-1a15 15 0 0 1-3.8-1.9 9 9 0 0 0-2.7-1.5c-1-.3-2.1-.1-3-.6l-1.1-1c-.7-.6-2.4-.9-3.7-.9l-2.7 2.5c1.5 0 2.9.1 4.3.5zM593.4 156.1c-.3-1.4-1.7-2.5-1.4-3.9.1-.5.4-1 .7-1.5.4-.9.2-2.2-.8-2.6-.7-.3-1.5.2-2.2.5a7 7 0 0 1-4 .6c-.5-.1-1.2-.1-1.3.4-.1.4.4.8.8.9l2.2.4c1.4.4 2.7 1.4 3.3 2.8.5 1.2.5 2.4.3 3.7l2.3 1.1c.1-.7.3-1.5.1-2.4z"/>
    </g>
    <g>
      <path d="M624.9 138.8c-1.5-.7-3.2-1.3-3.7-2.8-.2-.5-.2-1.1-.5-1.5-.6-.8-2-.5-2.9-1.1-.7-.5-.9-1.5-1.6-2-.7-.5-1.5-.3-2.3-.6-1.3-.5-1.8-2.2-2.8-3.1-1-.9-2.4-1.2-3.4-2.2-1.2-1.2-1.5-3.3-2.9-4.1-1.8-1-3.9.4-5.9.1-1.5-.2-2.6-1.3-4-1.9a3.2 3.2 0 0 0-3.4.6c.3.1.6.3.8.6.4.5.6 1.1 1.1 1.3.6.4 1.4.1 2.1-.1.7-.2 1.5-.3 2 .2.6.7.2 1.9.9 2.5.4.4 1.1.2 1.6.2.6-.1 1.3.1 1.4.7v.7c.1.5.8.7 1.3.7s1.1-.2 1.6.1c.8.4.7 1.6 1.3 2.3 1 1.3 3.3.4 4.5 1.6.6.6.7 1.6 1.3 2.2.6.5 1.5.6 2.2 1 1 .6 1.4 1.7 2.4 2.3l1.8.6c.6.3 1.1.9.9 1.5-.3.8-1.6.9-1.6 1.7 0 .7.8.9 1.5 1 .6.1 1.4.6 1.1 1.2-.2.4-.8.6-.7 1l.2.3c.6.5 1.4.6 2.1.9.7.3 1.3 1 1.1 1.8l3.3-2.1c.8-.5 1.6-1.1 1.9-2 .3-1.6-1.2-2.9-2.7-3.6z" fill="#ffae00"/>
    </g>
    <g>
      <path class="st57" d="M601 122.1c1.4.2 2.8.7 3.5 1.9.4.5.5 1.2.9 1.7a3.8 3.8 0 0 0 3.2 1.8c.5 0 1-.1 1.4.2l.6.6c.5.6 1.1 1 1.9 1.1-.4-.6-.8-1.3-1.4-1.8-1-.9-2.4-1.2-3.4-2.2-1.2-1.2-1.5-3.3-2.9-4.1-1.7-1-3.9.4-5.9.1l.1.1c.6.4 1.3.5 2 .6zM624.9 138.8c-1.5-.7-3.2-1.3-3.7-2.8-.2-.5-.2-1.1-.5-1.5-.6-.8-2-.5-2.9-1.1v.1c.4.7 1.2 1.1 1.8 1.6.7.5 1.3 1.3 1 2.1l-.4.9c-.2.7.5 1.3 1.1 1.8.6.5 1.1 1.3.7 1.9l-.5.5c-.3.6.3 1.2.9 1.6.6.4 1.2.9 1.6 1.6l1.7-1.1c.8-.5 1.6-1.1 1.9-2 .3-1.6-1.2-2.9-2.7-3.6z"/>
    </g>
    <g>
      <path class="st58" d="M593.8 124.7c-.6-1.1-2.2-1.3-3.5-1.2-.9.1-1.9.4-2.7.8l-7.1 7.1c.7.5 1.7.5 2.6.3.9-.2 1.7-.6 2.5-.9 1.5-.5 3.1-.7 4.6-1.1 1.5-.5 3-1.4 3.6-2.8.3-.7.4-1.5 0-2.2z"/>
    </g>
    <g>
      <path class="st58" d="M592.5 141.9a4 4 0 0 0-1.8-2.3c-.6-.4-1.4-.5-2.1-.7l-2.4-.6-.1-.1c-1.8-.1-3.7-.2-5.5.2a6.3 6.3 0 0 0-4.3 3.1c-1.1 2.3 0 5.5 2.4 6.5 1 .4 2 .5 3.1.6 1.7.1 3.3.2 5 .1 1-.1 2.1-.2 3-.6 2.2-.8 3.5-3.8 2.7-6.2z"/>
    </g>
    <g>
      <path class="st58" d="M607.9 135.8c-1.1-2-3.8-3-5.9-4-2.4-.7-5-.4-7.2.8-1.3.7-2.6 1.9-2.6 3.4-.1 1.7 1.4 3.1 2.9 4a15 15 0 0 0 7.8 1.9c1.1 0 2.2-.1 3.1-.7.7-.5 1.2-1.3 1.7-2.1.3-.6.6-1.1.7-1.8l-.5-1.5z"/>
    </g>
    <g>
      <path class="st58" d="M590.9 157.7c-.2-1.5-.4-3.1-1-4.4a5.4 5.4 0 0 0-3.2-3.1 8.1 8.1 0 0 0-3.8-.1c-1.6.3-3.2.8-4.3 2-.9.9-1.4 2.1-1.8 3.3-.8 2.3-1.1 4.8-1.1 7.3 2.4 0 5.5-1.2 7.7-2 1.6-.6 3.4-1.3 4.9-.5.3.2.6.4.9.4.6.1 1.3-.4 1.5-1a3 3 0 0 0 .2-1.9z"/>
    </g>
    <g>
      <path class="st58" d="M607.2 148.7a6.5 6.5 0 0 0-2.1-2.8c-2.2-1.8-5.5-2.6-8.1-1.4a8.2 8.2 0 0 0-3.9 4.5c-.6 1.9-.6 4-.2 6 .1.7.5 1.6 1.2 1.8 2.3-.5 4.5-2.8 6.6-3.8 1.9-.9 4.1-1.3 5.8-2.6.3-.2.6-.6.7-1v-.7z"/>
    </g>
    <g>
      <path class="st58" d="M616.5 140.5a7 7 0 0 0-6.2 3.5c-.8 1.5-1 3.2-1 4.9 0 .8.3 1.9 1.1 2l.9-.3c3.9-2.3 7.9-4.3 12.1-6-1.6-2.1-4.4-4.1-6.9-4.1z"/>
    </g>
    <g>
      <path class="st59" d="M580.5 131.4c.7.5 1.7.5 2.6.3l1.5-.5c.1-.8.7-1.5.5-2.3-.1-.3-.3-.6-.2-.9l.2-.3c.7-.8 1.5-1.5 2.5-2.1.3-.2.7-.5.7-.8 0-.2-.2-.4-.3-.5l-.3.1-7.2 7zM580.2 134.6c.6-.2 1.3-.3 1.9-.6l.4-.4-.1-.2-.3-.2-1.8-.5c-.6 0-1.3.1-1.7.5a64.4 64.4 0 0 0-7.1 7.7l.3.3c.5.3 1.1.2 1.6 0 .3-1.3.8-2.5 1.6-3.5a9.6 9.6 0 0 1 5.2-3.1zM571.4 147.4c-1.1-.5-2.5-.3-3.6.2l-1 .5c.6 0 1.2 0 1.7.2.8.3 1.5 1 1.5 1.8 0 .9-.8 1.6-1.5 2.1-.8.5-1.7.8-2.2 1.6l-.2.5c0 .2.2.4.4.6l1.4.4c.5.1 1 .4 1.1.8l.1.6 1-.4c1.6-.8 3.1-2.3 3.4-4.1.4-2-.4-4.1-2.1-4.8zM577.6 141.1a6 6 0 0 1 5.5-.6c.9.3 1.7.9 2.6 1 .9.2 1.9-.1 2.8 0s2 .8 1.8 1.8c.4-.8 0-1.9-.7-2.5-.7-.6-1.7-.8-2.6-.9-1-.1-2.1-.3-2.5-1.2l-.1-.5c-1.3 0-2.6 0-3.8.3a6.3 6.3 0 0 0-4.3 3.1c-.2.4-.4.9-.4 1.4.4-.7 1-1.4 1.7-1.9zM607.6 139.2c.3-.6.6-1.1.7-1.8 0-.5-.2-1.1-.4-1.6-1.1-2-3.8-3-5.9-4-2.4-.7-5-.4-7.2.8-1.3.7-2.6 1.9-2.6 3.4v.1c.7-.7 1.6-1.2 2.5-1.4 1.4-.3 2.8-.3 4.3-.4 1.4-.1 2.8-.4 4.1 0 1.3.3 2.6 1.6 2.3 2.9-.2 1.2-1.6 2.2-1.3 3.4.1.5.4.8.9 1l1-.5c.7-.4 1.2-1.1 1.6-1.9zM580.9 157c.9 0 1.9-.1 2.5-.7.4-.4.7-.9 1.2-1.2.5-.2 1.1 0 1.6.1s1.2 0 1.4-.6c.2-.7-.7-1.2-1.4-1.3s-1.7-.2-1.9-.9c-.2-.7.4-1.3 1.1-1.6.5-.3 1.1-.4 1.7-.5l-.4-.2a8.1 8.1 0 0 0-3.8-.1c-1.6.3-3.2.8-4.3 2-.9.9-1.4 2.1-1.8 3.3l-.7 2.7c.6-.6 1.3-1 2.1-1.1.9-.1 1.8.1 2.7.1zM599.1 146.6l2.2.7c.7.1 1.6 0 2.1-.6l.1-.2-.2-.3c-.4-.4-1.1-.6-1.7-.7-.6-.1-1.3-.1-1.8-.5-.4-.2-.7-.7-.7-1.1-.7.1-1.4.2-2.1.6a7 7 0 0 0-3.3 3.3 6.2 6.2 0 0 1 5.4-1.2zM616.1 145.3c.6-.4 1.3-.6 1.9-.8l.5-.4c.1-.3-.2-.6-.5-.7-1-.5-2.2-.3-3.2 0-1.1.3-2.1.7-3.2.8-.5 0-1-.1-1.2-.5l-.2.3c-.8 1.5-1 3.2-1 4.9 0 .8.3 1.9 1.1 2l.9-.3 4.4-2.4-.5-.9c0-.9.5-1.6 1-2z"/>
    </g>
    <g>
      <path class="st60" d="M580.6 144c.4.3.9.2 1.3 0 .5-.3.5-1.1 0-1.4-.4-.2-.9-.2-1.3 0-.5.3-.5 1 0 1.4zM583.1 143.3s.1 0 0 0c.6.4 1.3-.3.9-.8v-.1c-.2-.3-.7-.4-1-.1-.3.3-.2.8.1 1zM584.3 145.2c.9 0 .9-1.3 0-1.3s-.9 1.3 0 1.3zM586.2 144.5c.2-.1.3-.2.4-.5.1-.3-.1-.6-.5-.6l-.5.1c-.2.2-.4.5-.2.8.2.3.6.4.8.2zM587.2 143.9c.4 0 .4-.7 0-.7-.4.1-.4.7 0 .7zM586.3 143c.5 0 .8-.4.8-.8 0-.5-.4-.8-.8-.8-.5 0-.8.4-.8.8s.3.8.8.8zM589.7 145.7c1 0 1-1.6 0-1.6-1 .1-1 1.6 0 1.6zM584.3 146.6c.8 0 .8-1.3 0-1.3s-.8 1.3 0 1.3zM581 144.3l.2.1c-.6-.3-1.4.2-1.2.9.1.3.3.5.6.6.4.1.7-.1.9-.4l.2-.3c.1-.5-.2-.9-.7-.9zM578.9 136.6s0-.1 0 0c.3-.6-.2-1-.7-.8h-.1c-.3.2-.3.6-.1.9.2.2.7.2.9-.1zM579.4 135.3l.5-.1c.4-.3.2-.9-.3-.9l-.5.1c-.4.2-.2.9.3.9zM586.6 126.4c-.3.9 1.1 1.3 1.3.4.3-.9-1-1.3-1.3-.4zM585.4 127.9c-.2.4.2.9.6.7h.1c.6-.5-.3-1.4-.7-.7zM584.7 129.2c.7 0 .7-1.1 0-1.1s-.7 1.1 0 1.1z"/>
      <path class="st60" d="M587.8 128.2c.7 0 .7-1 0-1s-.7 1 0 1zM587.4 128.9l-.6.2c-.4.2-.4.8 0 1 .5.3.9 0 1.1-.4.2-.4-.1-.8-.5-.8zM585.8 129.1l-.1-.1c-.5-.2-1.1.2-1 .7.1.5.9.7 1.2.2l.1-.1c.1-.2.1-.6-.2-.7zM597.1 136.5c.9 0 .9-1.4 0-1.4s-.9 1.4 0 1.4zM599.5 136h.3c.8-.1.8-1.1 0-1.2h-.3c-.6.2-.6 1.1 0 1.2zM599.6 139c.2-.1.4-.2.5-.5.3-.5-.1-1-.6-1.1l-.7.2c-.4.2-.5.7-.3 1.1.2.4.7.5 1.1.3zM602.4 138.2c.2-.1.4-.1.5-.3.4-.3.2-1-.3-1.1h-.6c-.8.3-.4 1.7.4 1.4zM602.5 135.8c.3.3.8.4 1.1.1.3-.3.2-.6 0-.9-.2-.4-.7-.5-1-.2-.4.2-.4.7-.1 1zM603.9 136.6l.4.2c.2.1.5-.1.6-.3.1-.2 0-.5-.2-.6l-.4-.1c-.4 0-.7.4-.4.8zM602.2 140.1c.8 0 .8-1.2 0-1.2-.7 0-.7 1.2 0 1.2zM600.2 137.5c.5.4 1.2-.3.8-.8v-.1c-.2-.3-.6-.4-.9-.1-.3.3-.2.7.1 1zM595.4 138.4c.7 0 .7-1.1 0-1.1s-.7 1.1 0 1.1zM594.8 137.2c.6 0 .6-.9 0-.9s-.6.9 0 .9zM595.5 135.4c.5 0 .5-.9 0-.9-.5.1-.5.9 0 .9zM578.9 143.8c.7 0 .7-1 0-1-.6 0-.6 1 0 1zM576.3 144.4c0 .1 0 .1 0 0-.4.5.1 1 .6.7h.1c.4-.4-.3-1.1-.7-.7zM579.1 147.2c.7 0 .7-1.1 0-1.1-.7.1-.7 1.1 0 1.1zM586.6 147.8c0-.1 0-.1 0 0 .2-.3.2-.5 0-.8v-.1c-.3-.4-1-.1-1 .4s.7.9 1 .5zM597.3 140.4c.7 0 .7-1.1 0-1.1-.8-.1-.8 1.1 0 1.1zM602.1 141.3c.7 0 .7-1.1 0-1.1s-.7 1.1 0 1.1zM604.5 138.6c.6 0 .6-1 0-1s-.6 1 0 1zM597.3 149.9c.8 0 .8-1.2 0-1.2-.7 0-.7 1.2 0 1.2zM594.9 151.4c.8 0 .8-1.3 0-1.3s-.8 1.3 0 1.3zM594.8 153.3c.4.3 1.1.1 1.2-.5.1-.4-.3-.9-.7-.7h.1-.2s-.2 0 0 0c-.7.1-.9.8-.4 1.2zM599.8 151.5c.8 0 .8-1.3 0-1.3s-.8 1.3 0 1.3zM602.2 150.5c.6 0 .6-.9 0-.9-.5.1-.5.9 0 .9zM600.2 148.9c.2-.7-.8-1.1-1.2-.5-.2.3-.1.7.2.9.4.2.8 0 1-.4zM598.7 153.5c.3-.2.4-.7.2-1-.3-.3-.7-.3-1.1-.1-.4.2-.5.8-.2 1.1.3.3.8.3 1.1 0zM606 150.4c1 0 1-1.5 0-1.5s-1 1.5 0 1.5zM604.6 148.4l.2.1c.4.1.8-.1.9-.5.1-.4-.1-.7-.5-.9l-.2-.1c-.4-.1-.8.2-.9.5-.1.4.1.8.5.9zM601.3 152.6c.8 0 .8-1.2 0-1.2s-.8 1.2 0 1.2zM594.9 149.8c.8 0 .8-1.3 0-1.3s-.8 1.3 0 1.3zM580.6 159.3c.2-.3.2-.5 0-.8v-.1c-.3-.4-1-.1-1 .4.1.6.7.9 1 .5zM583.3 158c0 .4.3.7.7.7h.1c.9 0 .9-1.5 0-1.4l-.4.1c-.2.2-.4.4-.4.6zM585.6 159c-.1 0-.1 0 0 0-.5-.6-1.2 0-1.1.5v.1c.1.4.6.6 1 .4.3-.1.3-.7.1-1zM582.6 160.3c.3-.2.7-.5.6-.9 0-.3-.2-.5-.4-.6-.3-.1-.6 0-.9.2-.3.2-.5.6-.3 1 .2.3.7.5 1 .3zM587.3 158.7c.1 0 .1.1 0 0 .8.3 1.1-.7.6-1.1l-.1-.1c-.3-.2-.8 0-.9.3-.1.4.1.8.4.9zM588.2 157c.4-.3.6-.6.4-1-.1-.3-.5-.5-.9-.4h-.1c-.4.1-.7.6-.5 1 .1.4.7.7 1.1.4zM589.2 156.1c1 0 1-1.5 0-1.5-.9 0-.9 1.5 0 1.5zM589.8 158.7c.8 0 .8-1.2 0-1.2s-.8 1.2 0 1.2z"/>
      <path class="st60" d="M585.2 157.7c.8 0 .8-1.2 0-1.2s-.8 1.2 0 1.2zM579.6 161.2c.5 0 .5-.9 0-.9-.6.1-.6.9 0 .9zM564.4 155.4c.7 0 .7-1.1 0-1.1-.7-.1-.7 1.1 0 1.1zM566.4 151.2c-.1.1-.1.1 0 0-.4.2-.5.6-.3.9.2.3.5.4.8.2h.1c.3-.1.4-.6.2-.8-.1-.3-.5-.4-.8-.3zM563.6 151.1c-.6.1-.7 1-.2 1.3.4.2.9-.1.9-.5v-.2l-.1.3v-.6c-.2-.3-.4-.4-.6-.3zM562.4 153.2s-.1 0 0 0c-.2.1-.3.2-.2.3l.1.2c.1.1.2.1.4 0h.1c.3-.2 0-.7-.4-.5zM561.1 156.1l.3-.1c.5-.1.5-.8 0-1l-.3-.1c-.7 0-.7 1.2 0 1.2zM565.4 152.2s0 .1 0 0c-.5.2-.6.7-.3 1 .3.3.8.1 1-.3v-.1c.2-.3-.3-.7-.7-.6zM567.2 156.8c.8 0 .8-1.3 0-1.3-.8.1-.8 1.3 0 1.3zM563.7 156.2c-.4-.6-1.5-.3-1.2.5.1.4.5.6.8.5.4-.1.6-.6.4-1zM566.8 150.4c.8 0 .8-1.3 0-1.3s-.8 1.3 0 1.3zM569.2 152c.8 0 .8-1.3 0-1.3-.9.1-.9 1.3 0 1.3zM614.2 143.2l.5-.4c.2-.3.1-.8-.2-.9-.2-.1-.4-.2-.6-.1-.5 0-.9.5-.8 1 .1.4.7.6 1.1.4zM615.9 142.2c.3.3.7.3.9 0 .2-.3 0-.7-.3-.8h-.1c-.5-.1-.9.4-.5.8zM616.7 143.6l.4-.4c.1-.2 0-.6-.3-.7l-.7.1c-.6.4 0 1.3.6 1zM618.9 143.3c.8 0 .8-1 .1-1h-.1c-.7-.1-.7 1 0 1z"/>
      <path class="st60" d="M619.9 143c.2 0 .4 0 .5-.3.1-.2 0-.5-.2-.6l-.6-.1c-.5.2-.3 1.1.3 1zM620.9 144.6c.6.2.9-.6.5-.9l-.1-.1c-.6-.3-1.1.7-.4 1zM618.3 146.6c.8 0 .8-1.2 0-1.2-.8-.1-.8 1.2 0 1.2zM619 144.8c0 .3.1.5.4.6.6.4 1.3-.5.8-1l-.2-.2c-.5-.3-1 .1-1 .6z"/>
    </g>
  </g>
  </g>
</svg>
