<?xml version="1.0" encoding="utf-8"?>
<!-- Generator: Adobe Illustrator 22.0.0, SVG Export Plug-In . SVG Version: 6.00 Build 0)  -->
<svg version="1.1" id="Layer_1" xmlns="http://www.w3.org/2000/svg" xmlns:xlink="http://www.w3.org/1999/xlink" x="0px" y="0px"
	 viewBox="0 0 1000 600" style="enable-background:new 0 0 1000 600;" xml:space="preserve">
<style type="text/css">
	.st0{fill:url(#SVGID_1_);}
	.st1{fill:url(#SVGID_2_);}
	.st2{fill:url(#SVGID_3_);}
	.st3{fill:url(#SVGID_4_);}
	.st4{fill:url(#SVGID_5_);}
	.st5{fill:url(#SVGID_6_);}
	.st6{fill:url(#SVGID_7_);}
	.st7{fill:url(#SVGID_8_);}
	.st8{fill:url(#SVGID_9_);}
	.st9{fill:url(#SVGID_10_);}
	.st10{fill:url(#SVGID_11_);}
	.st11{fill:url(#SVGID_12_);}
	.st12{fill:url(#SVGID_13_);}
	.st13{fill:url(#SVGID_14_);}
	.st14{fill:url(#SVGID_15_);}
	.st15{fill:url(#SVGID_16_);}
	.st16{fill:url(#SVGID_17_);}
	.st17{opacity:0.25;}
	.st18{opacity:0.23;}
	.st19{fill:#FFFFFF;}
	.st20{opacity:0.15;}
	.st21{opacity:0.11;}
	.st22{opacity:0.32;}
	.st23{opacity:0.38;fill-rule:evenodd;clip-rule:evenodd;}
	.st24{fill-rule:evenodd;clip-rule:evenodd;fill:#FA913C;}
	.st25{fill-rule:evenodd;clip-rule:evenodd;fill:#FF9945;}
	.st26{fill-rule:evenodd;clip-rule:evenodd;fill:#852C00;}
	.st27{fill-rule:evenodd;clip-rule:evenodd;fill:#872D00;}
	.st28{fill-rule:evenodd;clip-rule:evenodd;fill:#FA7F32;}
	.st29{fill-rule:evenodd;clip-rule:evenodd;fill:#FF7045;}
	.st30{fill-rule:evenodd;clip-rule:evenodd;fill:#F2532C;}
	.st31{fill-rule:evenodd;clip-rule:evenodd;fill:#9C3400;}
	.st32{fill-rule:evenodd;clip-rule:evenodd;fill:#963200;}
	.st33{fill-rule:evenodd;clip-rule:evenodd;fill:#F78D36;}
	.st34{fill-rule:evenodd;clip-rule:evenodd;fill:#FA7A2A;}
	.st35{fill-rule:evenodd;clip-rule:evenodd;fill:#4A2338;}
	.st36{fill-rule:evenodd;clip-rule:evenodd;fill:#572741;}
	.st37{fill-rule:evenodd;clip-rule:evenodd;fill:#FFA459;}
	.st38{fill-rule:evenodd;clip-rule:evenodd;fill:#FF8B38;}
	.st39{fill-rule:evenodd;clip-rule:evenodd;fill:#FC8032;}
	.st40{fill-rule:evenodd;clip-rule:evenodd;fill:#F78F39;}
	.st41{fill-rule:evenodd;clip-rule:evenodd;fill:#E66A27;}
	.st42{fill-rule:evenodd;clip-rule:evenodd;fill:#B3B3B3;}
	.st43{fill-rule:evenodd;clip-rule:evenodd;fill:#FF6242;}
	.st44{fill-rule:evenodd;clip-rule:evenodd;fill:#F58E3B;}
	.st45{fill-rule:evenodd;clip-rule:evenodd;fill:#E8742C;}
	.st46{fill-rule:evenodd;clip-rule:evenodd;fill:#ED4321;}
	.st47{fill-rule:evenodd;clip-rule:evenodd;fill:#E03614;}
	.st48{fill-rule:evenodd;clip-rule:evenodd;fill:#FF7D45;}
	.st49{fill-rule:evenodd;clip-rule:evenodd;fill:#9E3703;}
	.st50{fill-rule:evenodd;clip-rule:evenodd;fill:#FFB375;}
	.st51{fill-rule:evenodd;clip-rule:evenodd;fill:#FFD5B2;}
	.st52{fill-rule:evenodd;clip-rule:evenodd;fill:#FFA154;}
	.st53{fill-rule:evenodd;clip-rule:evenodd;fill:#FFEDED;}
	.st54{fill-rule:evenodd;clip-rule:evenodd;fill:#FF937D;}
	.st55{fill-rule:evenodd;clip-rule:evenodd;fill:#F05839;}
	.st56{fill-rule:evenodd;clip-rule:evenodd;fill:#B03E06;}
	.st57{fill-rule:evenodd;clip-rule:evenodd;fill:#E66728;}
	.st58{fill-rule:evenodd;clip-rule:evenodd;fill:#FFB273;}
	.st59{fill-rule:evenodd;clip-rule:evenodd;fill:#FFB87D;}
	.st60{fill-rule:evenodd;clip-rule:evenodd;fill:#E04899;}
	.st61{fill-rule:evenodd;clip-rule:evenodd;fill:#401D30;}
	.st62{fill-rule:evenodd;clip-rule:evenodd;fill:#451F33;}
	.st63{fill-rule:evenodd;clip-rule:evenodd;fill:#3B162A;}
	.st64{fill-rule:evenodd;clip-rule:evenodd;fill:#C2470A;}
	.st65{fill-rule:evenodd;clip-rule:evenodd;fill:#FC8F41;}
	.st66{fill-rule:evenodd;clip-rule:evenodd;fill:#FF9D4C;}
	.st67{fill-rule:evenodd;clip-rule:evenodd;fill:none;}
	.st68{fill-rule:evenodd;clip-rule:evenodd;fill:#F28333;}
	.st69{fill-rule:evenodd;clip-rule:evenodd;fill:#D60D2E;}
	.st70{fill-rule:evenodd;clip-rule:evenodd;fill:#C70E2D;}
	.st71{fill-rule:evenodd;clip-rule:evenodd;fill:#EBEBEB;}
	.st72{fill-rule:evenodd;clip-rule:evenodd;fill:#D9D9D9;}
	.st73{fill-rule:evenodd;clip-rule:evenodd;fill:#DE1436;}
	.st74{fill-rule:evenodd;clip-rule:evenodd;fill:#D11938;}
	.st75{fill-rule:evenodd;clip-rule:evenodd;fill:#EDD8D8;}
	.st76{fill-rule:evenodd;clip-rule:evenodd;fill:#FCE5E5;}
	.st77{fill-rule:evenodd;clip-rule:evenodd;fill:#6B4EB5;}
	.st78{fill-rule:evenodd;clip-rule:evenodd;}
	.st79{fill-rule:evenodd;clip-rule:evenodd;fill:#963302;}
	.st80{fill-rule:evenodd;clip-rule:evenodd;fill:#AD3C03;}
	.st81{fill-rule:evenodd;clip-rule:evenodd;fill:#FFFFFF;}
	.st82{fill-rule:evenodd;clip-rule:evenodd;fill:#1A1A1A;}
	.st83{fill-rule:evenodd;clip-rule:evenodd;fill:#FFADAD;}
	.st84{fill-rule:evenodd;clip-rule:evenodd;fill:#CF5314;}
	.st85{fill-rule:evenodd;clip-rule:evenodd;fill:#F58331;}
	.st86{fill-rule:evenodd;clip-rule:evenodd;fill:#B34007;}
	.st87{fill-rule:evenodd;clip-rule:evenodd;fill:#993300;}
	.st88{fill-rule:evenodd;clip-rule:evenodd;fill:#F78239;}
	.st89{fill-rule:evenodd;clip-rule:evenodd;fill:#FF9E4F;}
</style>
<g id="Layer_2_1_">
	<g id="Layer_1-2">
		
			<linearGradient id="SVGID_1_" gradientUnits="userSpaceOnUse" x1="200.2813" y1="301.7191" x2="799.6408" y2="301.7191" gradientTransform="matrix(6.123234e-17 1 1 -6.123234e-17 198.2809 -199.6411)">
			<stop  offset="0" style="stop-color:#F6A0FF"/>
			<stop  offset="0.9997" style="stop-color:#A533F2"/>
		</linearGradient>
		<rect x="0" y="0.6" class="st0" width="1000" height="599.4"/>
		
			<linearGradient id="SVGID_2_" gradientUnits="userSpaceOnUse" x1="207.4704" y1="302.2769" x2="792.4511" y2="302.2769" gradientTransform="matrix(6.123234e-17 1 1 -6.123234e-17 198.2809 -199.6411)">
			<stop  offset="0" style="stop-color:#F69AFF"/>
			<stop  offset="0.9997" style="stop-color:#9E40F0"/>
		</linearGradient>
		<rect x="31.5" y="7.8" class="st1" width="938.1" height="585"/>
		
			<linearGradient id="SVGID_3_" gradientUnits="userSpaceOnUse" x1="214.6601" y1="302.8347" x2="785.2626" y2="302.8347" gradientTransform="matrix(6.123234e-17 1 1 -6.123234e-17 198.2809 -199.6411)">
			<stop  offset="0" style="stop-color:#F694FF"/>
			<stop  offset="0.9997" style="stop-color:#974DEF"/>
		</linearGradient>
		<rect x="63" y="15" class="st2" width="876.1" height="570.6"/>
		
			<linearGradient id="SVGID_4_" gradientUnits="userSpaceOnUse" x1="221.8492" y1="303.3929" x2="778.0729" y2="303.3929" gradientTransform="matrix(6.123234e-17 1 1 -6.123234e-17 198.2809 -199.6411)">
			<stop  offset="0" style="stop-color:#F68EFF"/>
			<stop  offset="0.9997" style="stop-color:#9059ED"/>
		</linearGradient>
		<rect x="94.6" y="22.2" class="st3" width="814.2" height="556.2"/>
		
			<linearGradient id="SVGID_5_" gradientUnits="userSpaceOnUse" x1="229.0389" y1="303.9507" x2="770.8837" y2="303.9507" gradientTransform="matrix(6.123234e-17 1 1 -6.123234e-17 198.2809 -199.6411)">
			<stop  offset="0" style="stop-color:#F689FF"/>
			<stop  offset="0.9997" style="stop-color:#8966EB"/>
		</linearGradient>
		<rect x="126.1" y="29.4" class="st4" width="752.3" height="541.8"/>
		
			<linearGradient id="SVGID_6_" gradientUnits="userSpaceOnUse" x1="236.228" y1="304.5089" x2="763.694" y2="304.5089" gradientTransform="matrix(6.123234e-17 1 1 -6.123234e-17 198.2809 -199.6411)">
			<stop  offset="0" style="stop-color:#F683FF"/>
			<stop  offset="0.9997" style="stop-color:#8273EA"/>
		</linearGradient>
		<rect x="157.6" y="36.6" class="st5" width="690.4" height="527.5"/>
		
			<linearGradient id="SVGID_7_" gradientUnits="userSpaceOnUse" x1="243.4171" y1="305.0667" x2="756.5044" y2="305.0667" gradientTransform="matrix(6.123234e-17 1 1 -6.123234e-17 198.2809 -199.6411)">
			<stop  offset="0" style="stop-color:#F67DFF"/>
			<stop  offset="0.9997" style="stop-color:#7B80E8"/>
		</linearGradient>
		<rect x="189.1" y="43.8" class="st6" width="628.4" height="513.1"/>
		
			<linearGradient id="SVGID_8_" gradientUnits="userSpaceOnUse" x1="250.6068" y1="305.6245" x2="749.3158" y2="305.6245" gradientTransform="matrix(6.123234e-17 1 1 -6.123234e-17 198.2809 -199.6411)">
			<stop  offset="0" style="stop-color:#F677FF"/>
			<stop  offset="0.9997" style="stop-color:#748CE6"/>
		</linearGradient>
		<rect x="220.7" y="51" class="st7" width="566.5" height="498.7"/>
		
			<linearGradient id="SVGID_9_" gradientUnits="userSpaceOnUse" x1="257.796" y1="306.1827" x2="742.1261" y2="306.1827" gradientTransform="matrix(6.123234e-17 1 1 -6.123234e-17 198.2809 -199.6411)">
			<stop  offset="0" style="stop-color:#F671FF"/>
			<stop  offset="0.9997" style="stop-color:#6E99E4"/>
		</linearGradient>
		<rect x="252.2" y="58.2" class="st8" width="504.6" height="484.3"/>
		
			<linearGradient id="SVGID_10_" gradientUnits="userSpaceOnUse" x1="264.9856" y1="306.7405" x2="734.937" y2="306.7405" gradientTransform="matrix(6.123234e-17 1 1 -6.123234e-17 198.2809 -199.6411)">
			<stop  offset="0" style="stop-color:#F56BFF"/>
			<stop  offset="0.9997" style="stop-color:#67A6E3"/>
		</linearGradient>
		<rect x="283.7" y="65.3" class="st9" width="442.6" height="470"/>
		
			<linearGradient id="SVGID_11_" gradientUnits="userSpaceOnUse" x1="272.1748" y1="307.2983" x2="727.7473" y2="307.2983" gradientTransform="matrix(6.123234e-17 1 1 -6.123234e-17 198.2809 -199.6411)">
			<stop  offset="0" style="stop-color:#F565FF"/>
			<stop  offset="0.9997" style="stop-color:#60B3E1"/>
		</linearGradient>
		<rect x="315.2" y="72.5" class="st10" width="380.7" height="455.6"/>
		
			<linearGradient id="SVGID_12_" gradientUnits="userSpaceOnUse" x1="279.3639" y1="307.8565" x2="720.5576" y2="307.8565" gradientTransform="matrix(6.123234e-17 1 1 -6.123234e-17 198.2809 -199.6411)">
			<stop  offset="0" style="stop-color:#F55FFF"/>
			<stop  offset="0.9997" style="stop-color:#59BFDF"/>
		</linearGradient>
		<rect x="346.7" y="79.7" class="st11" width="318.8" height="441.2"/>
		
			<linearGradient id="SVGID_13_" gradientUnits="userSpaceOnUse" x1="286.5536" y1="308.4144" x2="713.3691" y2="308.4144" gradientTransform="matrix(6.123234e-17 1 1 -6.123234e-17 198.2809 -199.6411)">
			<stop  offset="0" style="stop-color:#F55AFF"/>
			<stop  offset="0.9997" style="stop-color:#52CCDE"/>
		</linearGradient>
		<rect x="378.3" y="86.9" class="st12" width="256.9" height="426.8"/>
		
			<linearGradient id="SVGID_14_" gradientUnits="userSpaceOnUse" x1="293.7427" y1="308.9722" x2="706.1794" y2="308.9722" gradientTransform="matrix(6.123234e-17 1 1 -6.123234e-17 198.2809 -199.6411)">
			<stop  offset="0" style="stop-color:#F554FF"/>
			<stop  offset="0.9997" style="stop-color:#4BD9DC"/>
		</linearGradient>
		<rect x="409.8" y="94.1" class="st13" width="194.9" height="412.4"/>
		
			<linearGradient id="SVGID_15_" gradientUnits="userSpaceOnUse" x1="300.9324" y1="309.5304" x2="698.9902" y2="309.5304" gradientTransform="matrix(6.123234e-17 1 1 -6.123234e-17 198.2809 -199.6411)">
			<stop  offset="0" style="stop-color:#F54EFF"/>
			<stop  offset="0.9997" style="stop-color:#44E6DA"/>
		</linearGradient>
		<rect x="441.3" y="101.3" class="st14" width="133" height="398.1"/>
		
			<linearGradient id="SVGID_16_" gradientUnits="userSpaceOnUse" x1="308.1215" y1="310.0882" x2="691.8005" y2="310.0882" gradientTransform="matrix(6.123234e-17 1 1 -6.123234e-17 198.2809 -199.6411)">
			<stop  offset="0" style="stop-color:#F548FF"/>
			<stop  offset="0.9997" style="stop-color:#3DF2D9"/>
		</linearGradient>
		<rect x="472.8" y="108.5" class="st15" width="71.1" height="383.7"/>
		
			<linearGradient id="SVGID_17_" gradientUnits="userSpaceOnUse" x1="315.3106" y1="310.646" x2="684.6109" y2="310.646" gradientTransform="matrix(6.123234e-17 1 1 -6.123234e-17 198.2809 -199.6411)">
			<stop  offset="0" style="stop-color:#F542FF"/>
			<stop  offset="1" style="stop-color:#36FFD7"/>
		</linearGradient>
		<rect x="504.4" y="115.7" class="st16" width="9.1" height="369.3"/>
	</g>
</g>
<g>
	<g>
		<g class="st17">
			<rect x="683" y="38" width="188" height="337"/>
		</g>
		<g class="st18">
			<polygon class="st19" points="683,325.6 772.1,375 790.7,375 683,315.3 			"/>
			<polygon class="st19" points="683,226.9 871,331 871,320.7 683,216.6 			"/>
			<polygon class="st19" points="683,292.5 831.9,375 871,375 871,346.6 683,242.5 			"/>
			<polygon class="st19" points="683,200 871,304.1 871,274.5 683,170.4 			"/>
			<polygon class="st19" points="683,144.3 871,248.4 871,238.1 683,134 			"/>
			<polygon class="st19" points="688,38 683,38 683,45.5 871,149.7 871,139.4 			"/>
			<polygon class="st19" points="683,111.1 871,215.3 871,165.3 683,61.1 			"/>
			<polygon class="st19" points="871,93.2 771.4,38 718,38 871,122.8 			"/>
		</g>
	</g>
</g>
<g>
	<g>
		<g class="st20">
			<g>
				<path d="M333,419.7L225.7,110.9L118.4,419.7L87.6,409L207.2,64.7c2.7-7.9,10.2-13.1,18.5-13.1c8.3,0,15.8,5.3,18.5,13.2
					L363.8,409L333,419.7z"/>
			</g>
			<rect x="123.4" y="357.8" width="199.7" height="15.4"/>
		</g>
		<g class="st17">
			<ellipse transform="matrix(0.9711 -0.2387 0.2387 0.9711 -14.3982 64.6416)" cx="259.7" cy="91.8" rx="16" ry="16"/>
			<ellipse transform="matrix(0.9735 -0.2288 0.2288 0.9735 -25.2703 66.8442)" cx="275.6" cy="142.4" rx="19.7" ry="19.7"/>
			<circle cx="298.4" cy="202.6" r="24.7"/>
			<ellipse transform="matrix(0.7071 -0.7071 0.7071 0.7071 -99.4426 308.8258)" cx="323.1" cy="274.5" rx="28.1" ry="28.1"/>
			<ellipse transform="matrix(0.7071 -0.7071 0.7071 0.7071 -146.6532 354.1302)" cx="354.1" cy="354.1" rx="31.9" ry="31.9"/>
			<circle cx="189.4" cy="88.2" r="16"/>
			<circle cx="173.5" cy="138.8" r="19.7"/>
			<circle cx="150.7" cy="199.1" r="24.7"/>
			<ellipse transform="matrix(0.2298 -0.9732 0.9732 0.2298 -166.5508 331.3298)" cx="126.1" cy="270.9" rx="28.1" ry="28.1"/>
			<circle cx="95" cy="350.5" r="31.9"/>
		</g>
		<g class="st21">
			<circle cx="259.7" cy="91.8" r="6.5"/>
			<path d="M283.6,142.4c0-4.4-3.6-8-8-8c-4.4,0-8,3.6-8,8c0,4.4,3.6,8,8,8C280,150.4,283.6,146.8,283.6,142.4z"/>
			<path d="M308.4,202.6c0-5.5-4.5-10-10-10c-5.5,0-10,4.5-10,10c0,5.5,4.5,10,10,10C303.9,212.6,308.4,208.1,308.4,202.6z"/>
			<circle cx="323.1" cy="274.5" r="11.3"/>
			<circle cx="354.1" cy="354.1" r="12.9"/>
			<circle cx="189.4" cy="88.2" r="6.5"/>
			<path d="M165.5,138.8c0-4.4,3.6-8,8-8c4.4,0,8,3.6,8,8s-3.6,8-8,8C169.1,146.8,165.5,143.2,165.5,138.8z"/>
			<path d="M140.8,199.1c0-5.5,4.5-10,10-10c5.5,0,10,4.5,10,10c0,5.5-4.5,10-10,10C145.2,209,140.8,204.6,140.8,199.1z"/>
			<circle cx="126.1" cy="270.9" r="11.3"/>
			<path d="M82.1,350.5c0-7.1,5.8-12.9,12.9-12.9c7.1,0,12.9,5.8,12.9,12.9c0,7.1-5.8,12.9-12.9,12.9
				C87.9,363.4,82.1,357.6,82.1,350.5z"/>
		</g>
	</g>
	<g class="st22">
		<path d="M131.1,421.6H79.5v-11.7c0-3,2.5-5.5,5.5-5.5h40.7c3,0,5.5,2.5,5.5,5.5V421.6z"/>
		<path d="M371.9,421.6h-51.6v-12.1c0-2.8,2.3-5.1,5.1-5.1h41.4c2.8,0,5.1,2.3,5.1,5.1V421.6z"/>
	</g>
</g>
<rect x="2" y="419" class="st23" width="1000" height="181"/>
<g>
	<path class="st19" d="M312.4,25.9l-21.5,90h-27l-14.4-60.2L235,115.8h-27l-21.5-90h23.7L221.8,91l15.8-65.1h23.8L277.1,91
		l11.7-65.1H312.4z"/>
	<path class="st19" d="M389.7,30.4c6.9,3.9,12.4,9.4,16.3,16.4c4,7,6,14.9,6,23.7c0,8.8-2,16.8-6,23.8c-4,7-9.5,12.5-16.4,16.5
		c-6.9,3.9-14.6,5.9-23,5.9c-8.4,0-16.1-2-23-5.9c-6.9-3.9-12.4-9.4-16.4-16.5c-4-7-6-15-6-23.8c0-8.8,2-16.7,6-23.7
		c4-7,9.5-12.5,16.4-16.4c6.9-3.9,14.6-5.9,23-5.9C375.1,24.5,382.8,26.5,389.7,30.4z M349.6,51.7c-4.2,4.6-6.3,10.9-6.3,18.9
		c0,7.9,2.1,14.2,6.3,18.8c4.2,4.7,9.9,7,17,7c7,0,12.7-2.3,16.9-7c4.2-4.7,6.4-10.9,6.4-18.8c0-7.9-2.1-14.2-6.3-18.8
		c-4.2-4.7-9.9-7-17-7C359.5,44.7,353.8,47,349.6,51.7z"/>
	<path class="st19" d="M525.4,26.5v89.3h-21.8V60l-19.3,55.9h-18.8l-19.5-56v56h-21.8V26.5h26.6l24.3,62.2l23.8-62.2H525.4z"/>
	<path class="st19" d="M562.1,43.2V62h30.4v16.4h-30.4v20h34.2v17.4h-56v-90h56v17.3H562.1z"/>
	<path class="st19" d="M688.6,115.8h-21.8l-36.4-55.2v55.2h-21.8v-90h21.8l36.4,55.7V25.9h21.8V115.8z"/>
	<path class="st19" d="M721.1,23.7c0,5.9-1.5,10.5-4.5,14.1c-3,3.5-7.4,5.3-13.2,5.3v-8.1c4.4,0,6.6-2.8,6.6-8.5v-2h-8V8.7h16.7
		C720.2,13.6,721.1,18.6,721.1,23.7z"/>
	<path class="st19" d="M795.3,103.6c-2.4,4-6,7.2-10.7,9.5c-4.7,2.4-10.4,3.6-17.1,3.6c-10.1,0-18.4-2.5-24.9-7.4
		c-6.5-4.9-10.1-11.8-10.7-20.6H755c0.3,3.4,1.5,6.1,3.6,8c2.1,2,4.7,2.9,8,2.9c2.8,0,5-0.8,6.6-2.3s2.4-3.6,2.4-6.1
		c0-2.3-0.7-4.2-2.2-5.7c-1.5-1.5-3.3-2.8-5.5-3.8c-2.2-1-5.3-2.1-9.2-3.5c-5.7-2-10.3-3.8-13.9-5.7c-3.6-1.8-6.7-4.5-9.3-8.1
		c-2.6-3.6-3.9-8.3-3.9-14.1c0-5.3,1.4-10,4.1-13.9c2.7-3.9,6.5-6.9,11.3-9c4.8-2.1,10.3-3.1,16.5-3.1c10,0,18,2.4,23.9,7.1
		c5.9,4.8,9.2,11.3,10,19.6h-23.5c-0.4-3-1.5-5.3-3.2-7.1c-1.7-1.7-4.1-2.6-7.1-2.6c-2.5,0-4.6,0.7-6.2,2c-1.6,1.4-2.4,3.4-2.4,6
		c0,2.1,0.7,3.9,2.1,5.4c1.4,1.5,3.2,2.7,5.3,3.6c2.1,0.9,5.2,2.1,9.2,3.6c5.8,2,10.5,3.9,14.1,5.8c3.6,1.9,6.8,4.7,9.4,8.3
		c2.6,3.6,3.9,8.4,3.9,14.3C798.9,95.3,797.7,99.6,795.3,103.6z"/>
	<path class="st19" d="M228.4,183.7l-20.3,84.8h-25.4l-13.6-56.8l-13.7,56.8H130l-20.3-84.8h22.3l10.9,61.4l14.9-61.4h22.4
		l14.9,61.4l11-61.4H228.4z"/>
	<path class="st19" d="M301.3,187.9c6.5,3.7,11.7,8.9,15.4,15.5c3.8,6.6,5.6,14.1,5.6,22.4c0,8.3-1.9,15.8-5.7,22.4
		c-3.8,6.6-9,11.8-15.5,15.5c-6.5,3.7-13.7,5.6-21.7,5.6s-15.1-1.9-21.7-5.6c-6.5-3.7-11.7-8.9-15.5-15.5
		c-3.8-6.6-5.7-14.1-5.7-22.4c0-8.3,1.9-15.8,5.7-22.4c3.8-6.6,9-11.8,15.5-15.5c6.5-3.7,13.7-5.6,21.7-5.6
		C287.5,182.4,294.8,184.2,301.3,187.9z M263.5,208c-4,4.4-5.9,10.3-5.9,17.8c0,7.4,2,13.4,5.9,17.8c4,4.4,9.3,6.6,16,6.6
		c6.6,0,12-2.2,16-6.6c4-4.4,6-10.3,6-17.8c0-7.4-2-13.4-5.9-17.8c-4-4.4-9.3-6.6-16-6.6C272.8,201.4,267.5,203.6,263.5,208z"/>
	<path class="st19" d="M377.5,268.5l-18.4-32h-4.7v32h-20.5v-84.8h35c6.7,0,12.4,1.2,17,3.5c4.6,2.3,8.1,5.5,10.4,9.5
		c2.3,4,3.5,8.7,3.5,13.9c0,6.2-1.7,11.4-5.1,15.7c-3.4,4.3-8.3,7.3-14.8,8.9l20.2,33.4H377.5z M354.4,222.4h12.7
		c4.1,0,7.1-0.9,9-2.7c1.9-1.8,2.9-4.5,2.9-8c0-3.4-1-6-2.9-7.9c-2-1.9-4.9-2.9-8.9-2.9h-12.7V222.4z"/>
	<path class="st19" d="M450.2,225.2l34.2,43.3h-24.8l-28.8-38v38h-20.5v-84.8h20.5V221l29-37.3h24.6L450.2,225.2z"/>
	<path class="st19" d="M635.6,183.1c6.9,3.9,12.4,9.4,16.3,16.4c4,7,6,14.9,6,23.7c0,8.8-2,16.8-6,23.8c-4,7-9.5,12.5-16.4,16.5
		c-6.9,3.9-14.6,5.9-23,5.9c-8.4,0-16.1-2-23-5.9c-6.9-3.9-12.4-9.4-16.4-16.5c-4-7-6-15-6-23.8c0-8.8,2-16.7,6-23.7
		c4-7,9.5-12.5,16.4-16.4c6.9-3.9,14.6-5.9,23-5.9C621,177.2,628.7,179.1,635.6,183.1z M595.5,204.3c-4.2,4.6-6.3,10.9-6.3,18.9
		c0,7.9,2.1,14.2,6.3,18.8c4.2,4.7,9.9,7,17,7c7,0,12.7-2.3,16.9-7c4.2-4.7,6.4-10.9,6.4-18.8c0-7.9-2.1-14.2-6.3-18.8
		c-4.2-4.7-9.9-7-17-7C605.4,197.4,599.7,199.7,595.5,204.3z"/>
	<path class="st19" d="M693.3,178.6v51.9c0,5.9,1.3,10.5,4,13.6c2.7,3.1,6.6,4.7,11.6,4.7c5.1,0,9-1.6,11.6-4.7
		c2.7-3.1,4-7.7,4-13.6v-51.9h21.8v51.9c0,8.5-1.7,15.6-5,21.4c-3.3,5.8-7.8,10.2-13.5,13.1c-5.7,2.9-12.2,4.4-19.4,4.4
		c-7.2,0-13.6-1.4-19.1-4.3c-5.5-2.9-9.8-7.3-13-13.1c-3.1-5.9-4.7-13-4.7-21.5v-51.9H693.3z"/>
	<path class="st19" d="M827.6,178.6v17.3h-24.4v72.6h-21.9v-72.6h-24.2v-17.3H827.6z"/>
</g>
<g id="Woman">
	<path class="st24" d="M550.2,371.8c-1.1,6.2-2.7,5.8-2.4,12.1c0.7,16.8,6.9,39.6,12.3,49.1c2.5,4.3,2,9.3,2.9,13.5
		c7.3,32.9-29.5,58.6-64.5,58.6c-31.1,0-53.7-26.1-55.3-53.2c-0.4-7.2-5.1-15-1.2-21.8c5.3-9.3,13.8-28.2,13.2-45.8
		c-0.1-4.1-1-5.3-2.2-9.5C440,331.3,560.1,316.6,550.2,371.8z"/>
	<path class="st25" d="M501.4,362c9.4,0,20.6,0.6,20.6,20.5c0,11.2,7.5,45.5,3.6,62.2c-2.7,11.4-44,16.1-48,1.6
		c-4.1-15.1,2-54.3,2-63.9C479.6,362.5,491.9,362,501.4,362z"/>
	<path class="st26" d="M516.7,260.7c-2.1-33.7,7.6-63.5,26.3-83c14.5,13.7,21.6,18.2,17.1,43.2c-0.8,4.5-2.5,8.9-4.9,13.1
		C536.5,245.5,523.7,254.4,516.7,260.7z"/>
	<path class="st27" d="M467,141.5c-3.8,35.6,4.7,77.6,12.6,97.6C436.2,212.1,436.2,159.6,467,141.5z"/>
	<path class="st25" d="M500.2,265.2c10.6,0.4,55.5,5,56.8,17.8c2.3,23.3-3.7,59-0.5,78.1c0.5,2.9-0.6,7.3-2.4,9.8
		c-1.1,1.5-0.4,1.1-1.2,3c-0.3,0.7-1.2,2-1.2,2.8c-0.1,1.9-2.5,6.5-4,7.5c-8.4-0.2-16.6-14.5-28.4-16c-12.6-1.7-23-1.9-35.6-0.5
		c-6.5,0.7-19.5,13.6-28.6,15.6c-1.3-1.1-4.5-4.9-4.6-7.9c-0.2-3.2-0.8-2.7-2.3-5.2c-1.5-2.5-29-85-2.1-94
		C460.3,271.3,482.6,264.6,500.2,265.2z"/>
	<path class="st28" d="M477,269.3c3.3-6,4.3-23.1-0.3-38.8c-3.5-12.1,14.1-14.9,22-14.3c10,0.7,30.2,5.9,23.1,20
		c-7.4,14.7-3.1,30.1,2.8,33.4c11.1,6.1-2.4,10.3-15.3,12.6c-2.9,0.5-6.2,3.8-9.4,3.8c-3.9,0-6.6-2.9-10.1-3.7
		c-6.1-1.4-14.1-2.7-16-5.8C472.8,274.7,475.4,272.2,477,269.3z"/>
	<path class="st29" d="M463.8,196.8c1,9.6,1.4,14.4,1.4,14.4c-0.6,5.2-4.1,5.6-6.9,0.9c-8.2-9.9-8.7-20.3-2.6-19.8
		C457.7,192.6,460.4,193.9,463.8,196.8z"/>
	<path class="st30" d="M458.1,207.7c1.4,1.9,1.6,2,0.3-0.3c-0.1-0.2-0.2-0.3-0.3-0.5c-1.3-2.5-2.4-6.3,0.5-8.2c-3.2-3-4.9-3-5,0.2
		C454.9,203.9,455.3,203.9,458.1,207.7L458.1,207.7z M463.9,210.2c0.6,0.5,0.5,1.4,0.4,1.7c-0.9,0.4-1.7-0.2-2.9-1.4
		C462.2,210.7,463.1,210.4,463.9,210.2L463.9,210.2z M461.4,203c1.3,1.4,1.8,3,1.6,4.7C460.4,208.8,459.9,207.2,461.4,203z"/>
	<path class="st31" d="M544.6,185.6c41.1,26-16.6,55.2-25.9,68.1C521,235.3,571.2,207.3,544.6,185.6z"/>
	<path class="st29" d="M532.5,198c-1.1,9.5-1.6,14.3-1.6,14.3c0.5,5.3,4,6.1,6.9,1.7C548.8,201.9,546.3,187.7,532.5,198z"/>
	<path class="st30" d="M539,209.2c-1.4,1.9-1.6,2-0.3-0.3c0.1-0.2,0.2-0.3,0.3-0.5c1.3-2.5,2.4-6.3-0.5-8.2c3.2-3,4.9-3,5,0.2
		C542.2,205.4,541.8,205.4,539,209.2L539,209.2z M533.2,211.7c-0.6,0.5-0.5,1.4-0.4,1.7c0.9,0.4,1.7-0.2,2.9-1.4
		C535,212.2,534.1,211.9,533.2,211.7L533.2,211.7z M535.7,204.5c-1.3,1.4-1.8,3-1.6,4.7C536.7,210.3,537.3,208.7,535.7,204.5z"/>
	<path class="st25" d="M460.3,188.6c0.2-4.4,2-7,3.7-10.7c3.5-7.5,4.6-18.5,8.3-23.4c0.2-0.3,34.4-9.4,53.1,1.8
		c7.4,4.4,7.3,22.7,9.3,31.6c2.7,11.7-2,18.8-3.5,28.4c-3.7,23-24.6,32.1-32.7,32.2c-7.2,0.1-28.9-10.4-33.7-36.1
		C463,202.9,459.8,201.6,460.3,188.6z"/>
	<path class="st32" d="M477.5,136c0.5,7.2-2.9,12.5-3.5,17c-3.1,23.1-14.4,17.1-9.8,47.2c0.8,5.3,0.9,12.5,2.9,20.5
		c-2.3-8.3-5.1-17.5-8.3-22.1c-3.6-5.1-11.1-12.1-11.1-18.2c0-10.8,9.6-36.1,20.4-42.5c-3.5-2.4-4.4-1.3-5.9-1.2
		c3.4-2.5,6.8,0.6,6.8,0.6c0.7-6,2.3-9.9,5-12c-2.6,3.8-3.8,7.6-3.6,11.4C472.6,136.1,474.9,135.7,477.5,136z"/>
	<path class="st33" d="M438.3,299.4c12.1,14.3,14.6,27.6,7.6,39.7c-0.2-0.4-8.9-10.1-26-29.1C423.1,304,429.2,300.5,438.3,299.4z"/>
	<path class="st34" d="M428.2,311.2c6,2.3,12.6,10.6,14.6,10.4c4.1-0.6-2.6-13.5-14.5-21.7C426.7,305.7,426.7,309.5,428.2,311.2z"/>
	<path class="st25" d="M467.1,438.9c-26.3,0.8-11.8-45.1,0.7-53.2C470.9,383.7,473.5,438.7,467.1,438.9z"/>
	<path class="st25" d="M536.2,439.3c25.2,0.8,11.3-44.4-0.7-52.3C532.5,385,530.1,439.1,536.2,439.3z"/>
	<path class="st35" d="M562.9,438.7c0.9,2.4,1,6,2.1,7.1c1.5,1.4,0.5,1.9,0.7,3.8c0.4,4.5,6.9,11.9,6.1,16.3
		c-5.1,29.8-42.3,55.7-70.8,55.7c-29,0-66.3-26.1-71.1-57c-0.4-2.3,7.3-12,7.2-14.3c0-0.8-1.1-0.5-1.1-1.3c0-4,1.4-7.5,2.5-11.2
		C486.6,446.6,528,446.9,562.9,438.7z"/>
	<path class="st36" d="M565.1,445.8c1.1-0.2,2.2,3.2,0.7,3.8c-9,3.6-26.7,9.8-27.6,9.2C536.6,457.6,558.1,446.8,565.1,445.8z"/>
	<path class="st37" d="M497.3,316.5c-1.5-18.1-11.6-35-21.2-31.5c-0.8,0.3-1.6,0.6-2.4,1C479.1,299.8,487.2,311.9,497.3,316.5z"/>
	<path class="st37" d="M522.1,285.3c-9.8-3.5-19.7,13.9-20.7,32.3c11.2-3.2,19.7-15.6,25.2-30.3
		C525.2,286.6,523.6,285.9,522.1,285.3z"/>
	<path class="st38" d="M503.5,317c-2.1-9.4-4.8-9.2-7.9,0.6C498.7,320,501.3,319.7,503.5,317z"/>
	<path class="st39" d="M502.1,437.8c-2.4-19.2-2.8-33.7-1.2-43c-0.1-20.9-0.1-31.3-0.1-31.3c1.8,21.8,2.8,39.2,2.8,52.4
		C503.6,425.4,503.1,432.7,502.1,437.8z"/>
	<path class="st40" d="M536.5,364.7c8.3,5.6,12.4,10.4,15,13.4c1.3-4.4,3.5-8.4,3.5-8.4C550.7,364.5,545,366.1,536.5,364.7z"/>
	<path class="st40" d="M466.5,364.7c-8.2,5.7-13.2,8.4-15.8,11.4c0-4.2-2.4-6-2.4-6C452.3,364.9,460.6,364.3,466.5,364.7z"/>
	<path class="st41" d="M501.3,420.9c-3.1-8,2.4-8.1,2-4.7C503.1,418.3,501.1,416.9,501.3,420.9z"/>
	<path class="st41" d="M506.9,235.9c-4.4-1.2-9.7-1.4-15.6-0.5C496.9,229.8,501.9,229.9,506.9,235.9z"/>
	<path class="st42" d="M506.8,225.6c-5,4.9-9.6,5.1-14-0.1C499.5,224.4,504.3,224.5,506.8,225.6z"/>
	<path class="st43" d="M488.1,226.3c5.6-3.9,2.6,1.3,11.3,1.4c7,0.1,5.8-5.7,10.6-2.2c-1.6,5.9-5,7.5-10.8,7.5
		C493.5,233,489.9,230.7,488.1,226.3z"/>
	<path class="st41" d="M505.6,214.8c-2.1,2.3-4,3.5-5.8,3.5c-1.7,0-3.5-1-5.5-3c-0.3-1.5,0-2.3,1.5-2.9c1-0.4,1.5,1.5,4.1,1.5
		c2.1,0,2.8-2,3.7-1.7C505.1,212.9,505.7,213.6,505.6,214.8z"/>
	<path class="st41" d="M468.2,193.2c1,0.6,0.5,0.3,1.4,0.8c10.2,5.6,17.7,0,21.9,0.9c1.6,0.3,2.3,1.8,2,3.1
		c-0.3,1.4-0.2,2.8,0.3,2.2c0.1-0.1,0.3-0.3,0.4-0.5c1.8-4.1,2.8-7.1,0.4-11.2c-1.5-2.4-4.1-5-8.3-5.6
		C481.5,182.2,473.7,184.3,468.2,193.2L468.2,193.2z M506.3,200.1c0.6,0.6,0.5-1.4-0.1-3.3c-0.4-1.2,0.4-3,1.4-3.1
		c5.5-0.5,13.2,8.9,22.6-2c-8.6-14.2-21.3-8.7-25.2-2.5C502.8,192.8,504.2,197,506.3,200.1z"/>
	<path class="st44" d="M473.1,195.2c6.9-9.6,15.1-8.8,18.9,1.2c-2.8,3.3-6.6,5.2-10.1,4.8C478.6,200.8,475.6,198.1,473.1,195.2z"/>
	<path class="st45" d="M488.7,226.1c-0.3,0.3-0.4,0.5-0.4,0.5c-1.6-0.4-3.3-1-5-2c0.6-1.3,1.6-2,3.2-2.1
		C485.6,223.2,486.3,224.4,488.7,226.1z"/>
	<path class="st45" d="M509.7,226c0.2,0.4,0.4,0.6,0.4,0.6c1.6-0.2,3.3-0.6,5.1-1.2c-0.5-1.3-1.5-2.2-3-2.6
		C513,223.5,512.2,224.6,509.7,226z"/>
	<path class="st46" d="M486.4,226c4.1,1.8,8.9,0.8,13,0c4.4,1.7,9.8,0.8,13.7-0.1c-5.5-0.6-6.7-6.1-13.9-3.6
		C492.2,219.5,491.5,225.2,486.4,226z"/>
	<path class="st47" d="M509.6,226.1c-3.2-1.7-4.9-4.4-10.1-2.6l-0.3,0.1l-0.3-0.1c-5.2-2.2-6.5,1-9.8,2.8c3.3,0.6,6.9-0.1,10.1-0.8
		l0.2,0l0.2,0.1C502.7,226.7,506.2,226.6,509.6,226.1z"/>
	<path class="st41" d="M495.4,215.2c-0.3,0.5-0.5,0.8-0.5,0.8c-3.4-1.4-3.5-3.9-0.3-7.5C492.8,210.7,493,213,495.4,215.2z"/>
	<path class="st41" d="M504.1,214.6c0.3,0.5,0.5,0.8,0.5,0.8c3.4-1.4,3.5-3.9,0.3-7.5C506.8,210.2,506.5,212.4,504.1,214.6z"/>
	<path class="st48" d="M480.2,212.9c4.4,0,8.1-2,8.1-4.4c0-2.4-3.6-4.4-8.1-4.4c-4.4,0-8.1,2-8.1,4.4
		C472.1,210.9,475.8,212.9,480.2,212.9z"/>
	<path class="st48" d="M518.8,213.5c4.4,0,8.1-2,8.1-4.4c0-2.4-3.6-4.4-8.1-4.4s-8.1,2-8.1,4.4C510.8,211.5,514.4,213.5,518.8,213.5
		z"/>
	<path class="st49" d="M468.2,187.1c9.2-14.3,14.7-2,25.9-4.4C484.9,173.6,472.7,176.3,468.2,187.1z"/>
	<path class="st49" d="M531.7,188.2c-9.3-13.1-15.1-2.7-26.3-5.1C514.3,174.3,527.1,177.2,531.7,188.2z"/>
	<path class="st50" d="M495.7,222.1c0.6,0,1.1-0.3,1.1-0.6s-0.5-0.6-1.1-0.6c-0.6,0-1.1,0.3-1.1,0.6S495.1,222.1,495.7,222.1z"/>
	<path class="st51" d="M502.3,210.6c-1.2,1.7-2.9,2-5.3,0.7C499,210.7,500,211.9,502.3,210.6z"/>
	<path class="st52" d="M481.3,188.9c1.6-0.2,3.1-0.1,4.5,0.1c-2.8-0.4-3.3,0.2-1.4,1.6c-1.1,0-2.6,0-4.5-0.1
		C483.2,190.6,483.6,190,481.3,188.9z"/>
	<path class="st53" d="M497.5,219.8L497.5,219.8L497.5,219.8c-0.2,0.2-1.3,1.2-1.6,1.2c-0.3,0-1.4-0.9-1.7-1.1l0,0l0,0
		c0.2,0.2,1.2,1.3,1.2,1.6c0,0.3-1,1.5-1.2,1.7l0,0l0,0c0.2-0.2,1.4-1.2,1.7-1.3c0.3,0,1.4,0.8,1.6,1l0,0l0,0
		c-0.2-0.2-1.1-1.2-1.1-1.5C496.4,221.2,497.3,220.1,497.5,219.8z"/>
	<path class="st54" d="M493.5,229.2c-0.6-0.2-1.2-0.6-1.8-1.2C492.7,227.7,492.8,228.7,493.5,229.2L493.5,229.2z M504,228.7
		c0.1,0.3,0,0.5-0.2,0.8c-0.2,0.2-0.5,0.4-1,0.5C503.1,229.2,503.6,228.7,504,228.7L504,228.7z M505.9,228.2
		c-0.1,0.2-0.3,0.4-0.4,0.6c-0.1,0.2-0.5,0.6-0.7,0.7C505,229.1,504.9,228,505.9,228.2L505.9,228.2z M502.5,229.3
		c-0.5,0.1-1.3,0.2-2.4,0.2c-1.1,0-2.4-0.1-4-0.2C496.2,228.8,502.3,228.9,502.5,229.3L502.5,229.3z M495.7,229.8
		c-0.4-0.1-1.2-0.5-2-1.1C494.5,228.3,495.3,229.3,495.7,229.8z"/>
	<path class="st55" d="M508.7,227.2c-3.1,7.4-15.1,6.7-19.5,0.5C502.6,237,507.9,226.9,508.7,227.2z"/>
	<path class="st56" d="M496.6,214.6c0.2-0.3,0.6-0.3,1-0.1c-1.1-1.4-2.2-1.3-2.8,0.1C495.6,215.2,496.4,215.3,496.6,214.6z"/>
	<path class="st56" d="M502.9,214.4c-0.3-0.3-0.7-0.3-1.1-0.1c1.2-1.4,2.4-1.3,3.1,0.1C504,215,503.2,215,502.9,214.4z"/>
	<path class="st57" d="M479.6,239.2c1,6.9,1.5,11.4,1.6,13.4c8.8-3.3,9.9,7.7,18.7,7.7c5.2,0,10-13.6,16.7-7.5
		c0-6.3,1.1-11.3,3.5-15C505.4,251.2,494.2,251.7,479.6,239.2z"/>
	<path class="st38" d="M485.6,254.7c9.7,9.9,13.8,32.9,11.8,31.7C487.4,280.3,478,246.9,485.6,254.7z"/>
	<path class="st38" d="M513.9,253.9c-9.7,9.9-13.8,32.9-11.8,31.7C512,279.5,521.5,246.1,513.9,253.9z"/>
	<path class="st58" d="M490.4,303.6c0.8,1.1,0.8,2.5,0.1,3c-0.8,0.5-2,0-2.8-1.1c-0.8-1.1-0.8-2.5-0.1-3
		C488.3,302,489.6,302.5,490.4,303.6z"/>
	<path class="st59" d="M502.5,208.7c0.3-0.1-0.4-13.2-0.4-14.7C500.5,193.9,501.9,206.6,502.5,208.7z"/>
	<path class="st28" d="M465.8,204.4c0.5,20,11.7,36.4,27.2,41.1c-8.6-3.5-16.8-15-20.6-29.2C469.9,215.6,466.9,210.8,465.8,204.4z"
		/>
	<path class="st28" d="M531.2,205.9c-0.5,20-11.7,36.4-27.2,41.1c8.6-3.5,16.8-15,20.6-29.2C527.2,217.1,530.1,212.3,531.2,205.9z"
		/>
	<path class="st60" d="M467.1,441.7c-1.2,0.1-0.5,1.4,0.1,3.7C499.8,450.1,474.2,441.4,467.1,441.7z"/>
	<path class="st61" d="M501.6,447.6c-1.4,0.7-2,1.1-2,1.1c-0.5-0.8,0.2,5.8,2.2,27.4C501.8,476.1,501.7,469.1,501.6,447.6z"/>
	<path class="st62" d="M508.5,491.3c-2.2,1.1-3.9,4.1-3.9,4.1c-0.7-16.1-1.2-28.3-1.2-28.3C506.4,482.1,508.5,491.3,508.5,491.3z"/>
	<path class="st63" d="M440.5,435.8c0.2,0,0,1.5,0,1.5c44.1,9.3,83.6,8.7,121-0.8c-0.1-0.4-0.1-0.6-0.2-0.9c0.6-0.2,0.7-0.1,1.6,0
		c2,0.1,1.4,1.2,1.8,3.7c0.4,2.6,2.9,3.6,0.4,4.2c-39.5,9.3-80.5,9.8-129.1-1.4c0,0-0.5-2-0.1-4.7C436,435.8,439,435.5,440.5,435.8z
		"/>
	<path class="st52" d="M509.2,427.4c-0.5,1.6-1.3,2.1-2,1.1c-0.7-1-0.8-3-0.4-4.6c0.5-1.6,1.3-2.1,2-1.1
		C509.5,423.8,509.7,425.8,509.2,427.4z"/>
	<path class="st61" d="M458.3,451.2c32.2,10.3,59.2,11.1,81,2.2C518.2,457.7,491.2,457,458.3,451.2z"/>
	<path class="st61" d="M481,460.1c23.3,5.8,37.6,5.8,43,0C511.6,462.4,497.3,462.4,481,460.1z"/>
	<path class="st64" d="M494.7,182.4c-3-0.2-2.5-2.8-7.2-5.2C490.3,177.8,492.7,179.5,494.7,182.4z"/>
	<path class="st64" d="M504.9,182.8c3-0.2,2.5-2.8,7.2-5.2C509.3,178.1,506.9,179.9,504.9,182.8z"/>
	<path class="st58" d="M507.4,303.8c-0.8,1.1-0.8,2.5-0.1,3c0.8,0.5,2,0,2.8-1.1c0.8-1.1,0.8-2.5,0.1-3
		C509.5,302.2,508.2,302.6,507.4,303.8z"/>
	<path class="st52" d="M510.9,403.6c-0.2,9.9-1.5,13-2.9,6.9c-1.4-6.1-2.4-19.1-2.2-29c0.2-9.9,1.5-13,2.9-6.9
		C510.2,380.6,511.1,393.6,510.9,403.6z"/>
	<path class="st33" d="M557.7,300.6c-10.8,15.3-12.3,28.7-4.3,40.2c0.2-0.4,8-10.8,23.4-31.2C573.2,304,566.8,301,557.7,300.6z"/>
	<path class="st34" d="M568.7,311.6c-5.8,2.8-9.5,5.8-11.5,5.7c-4.2-0.2-0.7-7.8,10.5-17C569.8,306,570.1,309.7,568.7,311.6z"/>
	<path class="st25" d="M396.9,363.6c6.9,1.4,23.6-4.9,19.8,0.1c-3.3,4.4-6.7,19-8.2,21.9c-8.3,16.3-40.2,47.9-44.7,61.8
		c-4.5,13.8-1.3,4.6-3.5,6c-9,5.8-14.5-0.3-15.7-3.1c-1.1-2.3,2.5-4.4,4.5-9.4c3.6-9.1,13-25.7,19.8-41.1
		c7.7-17.6,10.4-24.7,21.1-37.1C392,360.2,392.8,362.7,396.9,363.6z"/>
	<path class="st65" d="M438.7,272c7.8-1.1,17.8,4.8,15.7,17.6c-0.5,3.2-16.9,25.8-20.7,32.9c-5.9,11.1-12.6,39.1-24.4,52.6
		c-4.5,5.2-18.1,10.3-21.5,8.1c-6.2-4,8.6-49.7,17.6-71.1c7.3-17.5,8-29.5,20.5-36.1C429.1,274.3,433.3,272.7,438.7,272z"/>
	<path class="st66" d="M455.2,287.3c6,21.8,4,34.5-9.7,38.6c-1.5-11.5-4.7-9.5-11.8-20C437.8,294.2,449,285.2,455.2,287.3z"/>
	<path class="st65" d="M445.7,311.2c-0.9,3.4-1.4,5-1.4,5c-3.5-3.3-6.2-7.2-8-11.8c0,0,1.4-2.3,4.2-6.9
		C439.8,301.2,441.5,305.7,445.7,311.2z"/>
	<path class="st25" d="M409.7,314.6c-2.1-10.4,0.4-21.9,7-30.3C430.9,265.9,459.8,269.5,409.7,314.6z"/>
	<path class="st25" d="M416,348.1c-12.5,25.3-31.9,32.5-18.3-6.6c7-20.1,16.3-24.8,21.3-23.9C424.9,318.8,425.4,329.1,416,348.1z"/>
	<path class="st67" d="M401.7,343.5c2.7-4.4,5.4-4.8,5.9-0.8c0.6,4-1.2,10.8-3.9,15.2c-2.7,4.4-5.4,4.8-5.9,0.8
		C397.2,354.8,399,348,401.7,343.5z"/>
	<path class="st65" d="M356.3,443c3.7,0.2,5.6,0.3,5.6,0.3c29.2-31.6,44.8-57.5,47.7-72.6c-0.2-0.8-5.9,4.8-13,11.8
		C388.3,404.2,376.6,424.4,356.3,443z"/>
	<path class="st68" d="M388.9,365.1c-2.3,12.9,2.5,15.9,14.5,9.1C389.2,386.7,384.3,383.6,388.9,365.1z"/>
	<path class="st25" d="M604.1,361.5c-6.8,1.6-23.7-4.2-19.8,0.6c3.5,4.3,7.3,18.8,8.8,21.6c8.8,16.1,41.6,46.8,46.5,60.5
		c4.9,13.7,1.4,4.5,3.7,5.9c9.2,5.6,14.4-0.8,15.6-3.5c1-2.4-2.6-4.3-4.8-9.3c-3.9-9-13.8-25.3-21-40.5
		c-8.2-17.4-11.1-24.4-22.2-36.5C609,358,608.2,360.6,604.1,361.5z"/>
	<path class="st65" d="M557.2,272c-7.7,1.5-16.4,5.3-14.1,17.4c0.6,3.2,10,6.1,11.4,10.1c2.5,7.3,7.7,15,11.7,22.1
		c6.3,10.9,13.8,38.8,25.9,51.8c4.7,5.1,18.4,9.8,21.8,7.5c6.1-4.1-10-49.4-19.6-70.5c-7.3-16-8.7-27.5-18.8-34
		c-4.4-2.9-10.7-4.8-14.3-4.7C559.7,271.7,558,271.8,557.2,272z"/>
	<path class="st66" d="M543.8,287.2c-6,21.8-4,34.5,9.7,38.6c1.5-11.5,4.7-9.5,11.8-20C561.1,294.1,549.9,285,543.8,287.2z"/>
	<path class="st65" d="M553.3,311.1c0.9,3.4,1.4,5,1.4,5c3.5-3.3,6.2-7.2,8-11.8c0,0-1.4-2.3-4.2-6.9
		C559.2,301,557.5,305.6,553.3,311.1z"/>
	<path class="st25" d="M590,313c1.8-10.5-1.1-21.9-7.8-30.1C567.4,264.9,538.6,269.3,590,313z"/>
	<path class="st25" d="M584.7,346.6c13.2,24.9,32.9,31.6,18.1-7.1c-7.6-19.9-17-24.4-22-23.3C574.9,317.5,574.7,327.9,584.7,346.6z"
		/>
	<path class="st52" d="M598.8,341.6c-2.9-4.4-5.5-4.7-6-0.7c-0.4,4,1.5,10.8,4.4,15.1c2.9,4.4,5.5,4.7,6,0.7
		C603.6,352.8,601.6,346,598.8,341.6z"/>
	<path class="st65" d="M647.1,439.8c-3.7,0.3-5.6,0.5-5.6,0.5c-30.1-30.8-46.4-56.1-49.8-71.2c0.2-0.8,6,4.6,13.3,11.4
		C613.9,401.9,626.3,421.7,647.1,439.8z"/>
	<path class="st68" d="M612.2,362.8c2.7,12.8-2,16-14.2,9.5C612.6,384.4,617.3,381.2,612.2,362.8z"/>
	<path class="st28" d="M479.5,259.1c-1.7,26.5-18.6,29.3-37.6,12.9C458.3,273.7,473.2,269.8,479.5,259.1z"/>
	<path class="st28" d="M518.7,258.6c1.7,26.5,17.9,30.2,36.9,13.7C539.2,274.1,525,269.3,518.7,258.6z"/>
	<path class="st69" d="M500.3,355.5c21.4-0.4,38.1,1.1,57.6,6.8c-0.1-0.3,1.3-10.2,4-29.9c-16.7-28.4-24.2-30.1-14.8-62
		c-8.3-0.2-11.8-0.8-14.9-5.1c-2.6,23.5-12.8,51.4-31.5,54.5c-18.7-3.1-29.7-31-32.2-54.5c-3.1,4.3-8.8,6-16.9,4.9
		c9.8,43.1-7.7,37.6-17.9,56.3c7,18.4,11.8,35.4,11.7,35.7C464.9,356.5,479,355.1,500.3,355.5z"/>
	<path class="st70" d="M556.5,359.7c1-9.6,3.7-20.2,8-31.9c-4.7-3.6-10.3-9.9-11.7-11.5c-7.8,19.4-8.6,35.8-7.3,41.6
		C552.8,359.1,556.5,359.7,556.5,359.7z"/>
	<path class="st71" d="M566.7,323.8c-9.6-6.8-15.9-15-18.7-24.5c-2.8-9.6-3.4-16.8,0.6-29.3l-4.5-1.4c-4.3,13.4-3.7,21.5-0.6,32
		c3.1,10.6,10.6,19.7,21.1,27.2L566.7,323.8z"/>
	<path class="st72" d="M555.1,314.2c0.6,2.2,1,4,1.3,5.5c2.1,2.8,4.8,5.1,8,6.9c0.9-1.7,1.3-2.6,1.3-2.6
		C560.3,319.6,556.7,316.3,555.1,314.2z"/>
	<path class="st70" d="M444.8,360c-1-9.6-6.1-19.8-10.4-31.4c4.7-3.6,7.8-6.1,9.2-7.7c7.8,19.4,11.1,32,9.9,37.8
		C446.1,359.8,444.8,360,444.8,360z"/>
	<path class="st71" d="M432.3,324.5c9.6-6.8,15.9-15,18.7-24.5c2.8-9.6,3.4-16.8-0.6-29.3l4.5-1.4c4.3,13.4,3.7,21.5,0.6,32
		c-3.1,10.6-10.6,19.7-21.1,27.2L432.3,324.5z"/>
	<path class="st69" d="M528,287.4c6.3,3.2,11,11.4,16.1,17.2c9,10.1,14.1,18,13.1,27.5c-0.4,3.9-0.5,8-1.6,10.7
		c-9.1,23.7-39.7,8.2-54.9,7.5c-17.9-0.8-56.9,19-59.2-18.5c-0.6-9.5,5.5-17.7,14.3-27.8c0.8-0.9,0.5-4.4,1.3-5.2
		c5.1-5.3,9.2-10.3,15.3-13c11,27.8,18.6,37,26.6,38.1C508.6,325.4,518.1,313.6,528,287.4L528,287.4z M518.7,285.1c0,0,0.1,0,0.1,0
		C518.8,285.1,518.8,285.1,518.7,285.1z"/>
	<path class="st73" d="M462.4,314.8c-6.4,8.4,2.4,11.3,10.3,12.7c16.1,3,13.7-10.1,7.3-16.7C476.1,306.7,470.8,303.8,462.4,314.8z"
		/>
	<path class="st73" d="M537,316.5c4.8,6.6-1,11.2-8.7,12.6c-15.9,2.9-13.8-10.5-8.4-17.2C523.3,307.8,529,305.6,537,316.5z"/>
	<path class="st70" d="M542.3,353.2c-12.2,4.8-27.8-4.7-41.9-4.8c-20-0.2-44,12.2-54.5-5.5c-5.2-8.8-1.5-16.2,9.3-16.7
		c12.6-0.5,25.5,13.9,45,14c22.1,0,29.8-14.7,46.1-11.9C562,331,554.3,348.5,542.3,353.2z"/>
	<path class="st72" d="M443.9,314.9c-0.6,2.2-1,4-1.3,5.5c-2.1,2.8-4.8,5.1-8,6.9c-0.9-1.7-1.3-2.6-1.3-2.6
		C438.7,320.3,442.3,317,443.9,314.9z"/>
	<path class="st70" d="M489.8,327.8c7.8,6.2,14.5,6,20.2-0.7C504.7,329.9,498,330.1,489.8,327.8z"/>
	<path class="st71" d="M443.5,360.2c23.9-4.2,40.9-5.4,61.6-5.4c20.7,0,36.6,1.3,54.2,5.5l-1.1,4.6c-17.2-4.1-32.7-5.4-53.1-5.4
		c-20.4,0-37.2,1.2-60.8,5.3L443.5,360.2z"/>
	<path class="st72" d="M453.5,359.2c-6.9,1.1-9.4,1.5-9.4,1.5c0.4,2.2,0.5,3.3,0.5,3.3c9.8-1.4,13.7-2,13.7-2
		C456.2,360.2,454.6,359.3,453.5,359.2z"/>
	<path class="st72" d="M545.5,358.6c6.9,1.1,10.3,1.6,10.3,1.6c-0.4,2.2-0.5,3.3-0.5,3.3c-9.8-1.4-14.7-2.1-14.7-2.1
		C542.8,359.5,544.4,358.6,545.5,358.6z"/>
	<path class="st74" d="M445.3,335c11.6-0.1,20.1,4,25.5,12.4C457.1,351,448.6,346.9,445.3,335z"/>
	<path class="st74" d="M551.8,338.6c-11.6-0.1-20.1,4-25.5,12.4C540,354.5,548.5,350.4,551.8,338.6z"/>
	<path class="st70" d="M458,285c4.2,9.1,1.7,17.5-7.3,25.3C456.1,301.3,458.6,292.9,458,285z"/>
	<path class="st70" d="M540.8,284.3c-4.2,9.1-1.7,17.5,7.3,25.3C542.6,300.6,540.2,292.2,540.8,284.3z"/>
	<path class="st70" d="M470.8,283.6c1.7,1.5,2,2.7,1.1,3.6c-4.3,0.1-7.9,0.5-10.9,1.3C465.8,286.2,469.1,284.5,470.8,283.6z"/>
	<path class="st70" d="M442.1,340.4c-2.1-13.2,4.4-27.1,19.5-41.2C444.8,309,438.2,322.5,442.1,340.4z"/>
	<path class="st70" d="M556.5,341c2.1-13.2-4.4-27.1-19.5-41.2C553.9,309.6,560.4,323.1,556.5,341z"/>
	<path class="st71" d="M471.5,264.9c3,17,6.4,26.6,11.5,35.7c4.8,8.6,10.5,13.5,17,15c7-1,13-5.8,17.9-14.3
		c5.2-9.1,8.7-19.3,11.5-36.7l4.7,0.7c-2.8,18-6.5,28.7-12,38.4c-5.8,10.1-13.1,15.6-21.8,16.7l-0.4,0l-0.4-0.1
		c-8.1-1.6-15-7.4-20.6-17.4c-5.4-9.6-9-19.7-12-37.2L471.5,264.9z"/>
	<path class="st36" d="M437.8,445.7c-1.1-0.2-2.2,3.2-0.7,3.8c9,3.6,26.7,9.8,27.6,9.2C466.3,457.5,444.7,446.7,437.8,445.7z"/>
	<path class="st75" d="M473.1,195.2c8.5,4.5,14.3,4.7,17.5,0.4C487.2,189.6,481.4,189.5,473.1,195.2z"/>
	<path class="st76" d="M482.4,191.4c3,0,5.5,1.6,5.5,3.5c0,1.9-2.5,3.5-5.5,3.5c-3,0-5.5-2.3-5.5-3.5
		C477,193.7,479.4,191.4,482.4,191.4z"/>
	<path class="st77" d="M482.9,198.3c2.1,0,3.7-1.7,3.7-3.7s-1.7-3.7-3.7-3.7c-2.1,0-3.7,1.7-3.7,3.7S480.8,198.3,482.9,198.3z"/>
	<path class="st78" d="M490.3,194.8c-2.1-1.9-4.6-3-7.3-2.9c-2.7,0-5.8,1.7-9.2,3.8l-1-1C480.4,189.9,486.6,189,490.3,194.8z"/>
	<path class="st49" d="M519.9,137.1c-0.6,8.5,3,15.2,3.9,20c3.7,20.4,13.9,15.2,9.4,44.2c-0.8,5.3-0.9,12.5-2.9,20.5
		c2.3-8.3,5.1-17.5,8.3-22.1c5-7.1,4.1-15.7,4.5-23.8C544.1,155.4,535.2,135.8,519.9,137.1z"/>
	<path class="st79" d="M468.7,138.6c2.3-13,46-17.9,66.6,6.4c-3.1,8.8,0,12.7-7.3,12.3c-15.5-0.8-21.2,3.7-28.3,3.3
		c-20.5-1.2-29.7-4.2-31.7-9.4C466.7,147.6,471.7,143.3,468.7,138.6z"/>
	<path class="st49" d="M471.2,134.3c14-15.8,50.2-3.8,60.9,6.9c15.5,15.6,14.6,36.7,21.8,43.5C499.9,166.6,467.8,157.5,471.2,134.3z
		"/>
	<path class="st80" d="M538.7,190.1c-48-12.9-68.3-28-68.3-48.1c0-19.9,42.9-13.1,58.4,3c3.9,4,6.8,9.2,8.9,14.5
		c-2.4-2.2-5.8-4.9-10.2-8c5.5,5.8,10,13.2,13.4,22.3c0.1,2.7-0.7,2-10.3-2.2c-1.5-0.7,8.8,8.5,10.4,10.6c-3.8-0.3-4.5-0.8-6.2-0.4
		C535.4,184.3,538.6,190,538.7,190.1z"/>
	<path class="st78" d="M482.9,197.2c1.4,0,2.6-1.2,2.6-2.6c0-1.4-1.2-2.6-2.6-2.6c-1.4,0-2.6,1.2-2.6,2.6
		C480.3,196,481.4,197.2,482.9,197.2z"/>
	<path class="st81" d="M485.1,196c0.3,0,0.5-0.2,0.5-0.5c0-0.3-0.2-0.5-0.5-0.5c-0.3,0-0.5,0.2-0.5,0.5
		C484.6,195.8,484.8,196,485.1,196z"/>
	<path class="st81" d="M480.6,195.2c0.6,0,1.1-0.5,1.1-1.1c0-0.6-0.5-1.1-1.1-1.1c-0.6,0-1.1,0.5-1.1,1.1
		C479.6,194.7,480.1,195.2,480.6,195.2z"/>
	<path class="st29" d="M489.8,194.4c1.7,1.3,1.6,2-0.3,2.3C489.8,196,489.9,195.3,489.8,194.4z"/>
	<path class="st78" d="M471.8,194.3c7.7-4.8,14.8-5.3,18.6,0.5c-2.1-1.9-4.6-3-7.3-2.9c-2.7,0-5.8,1.7-9.2,3.8
		C472.6,195.4,472.1,195.2,471.8,194.3z"/>
	<path class="st82" d="M472.9,196.1c5.5,3.5,10.9,4.8,16.1,1.5c-4.3,2.3-9.2,1.6-15.3-1.8C473.7,195.9,473.4,196,472.9,196.1z"/>
	<path class="st83" d="M490.4,196.3c0.1,0,0.3-0.1,0.3-0.3s-0.1-0.3-0.3-0.3s-0.3,0.1-0.3,0.3S490.3,196.3,490.4,196.3z"/>
	<path class="st44" d="M526.3,195.5c-6.9-9.6-15.1-8.8-18.9,1.2c2.8,3.3,6.6,5.2,10.1,4.8C520.8,201.1,523.8,198.4,526.3,195.5z"/>
	<path class="st75" d="M526.3,195.5c-8.5,4.5-14.3,4.7-17.5,0.4C512.2,189.9,518,189.8,526.3,195.5z"/>
	<path class="st76" d="M516.9,191.6c-3,0-5.5,1.6-5.5,3.5c0,1.9,2.5,3.5,5.5,3.5c3,0,5.5-2.3,5.5-3.5
		C522.4,194,519.9,191.6,516.9,191.6z"/>
	<path class="st77" d="M516.5,198.6c2.1,0,3.7-1.7,3.7-3.7s-1.7-3.7-3.7-3.7s-3.7,1.7-3.7,3.7S514.4,198.6,516.5,198.6z"/>
	<path class="st78" d="M516.5,197.6c1.4,0,2.6-1.2,2.6-2.6s-1.2-2.6-2.6-2.6s-2.6,1.2-2.6,2.6S515.1,197.6,516.5,197.6z"/>
	<path class="st81" d="M518.8,196.5c0.3,0,0.5-0.2,0.5-0.5c0-0.3-0.2-0.5-0.5-0.5s-0.5,0.2-0.5,0.5
		C518.3,196.2,518.5,196.5,518.8,196.5z"/>
	<path class="st81" d="M514.3,195.6c0.6,0,1.1-0.5,1.1-1.1s-0.5-1.1-1.1-1.1s-1.1,0.5-1.1,1.1S513.7,195.6,514.3,195.6z"/>
	<path class="st29" d="M509.6,194.7c-1.7,1.3-1.6,2,0.3,2.3C509.5,196.3,509.4,195.5,509.6,194.7z"/>
	<path class="st78" d="M527.6,194.6c-7.7-4.8-14.8-5.3-18.6,0.5c2.1-1.9,4.6-3,7.3-2.9c2.7,0,5.8,1.7,9.2,3.8
		C526.7,195.6,527.3,195.4,527.6,194.6z"/>
	<path class="st82" d="M526.5,196.4c-5.5,3.5-10.9,4.8-16.1,1.5c4.3,2.3,9.2,1.6,15.3-1.8C525.7,196.1,525.9,196.2,526.5,196.4z"/>
	<path class="st83" d="M508.9,196.5c0.1,0,0.3-0.1,0.3-0.3c0-0.1-0.1-0.3-0.3-0.3c-0.1,0-0.3,0.1-0.3,0.3
		C508.7,196.4,508.8,196.5,508.9,196.5z"/>
	<path class="st64" d="M473.5,150c14.3,16.6,44.2,24,57.6,34.2C507.6,176.8,485.2,172.1,473.5,150z"/>
	<path class="st64" d="M508.2,157.4c8.2,8.1,17.4,15.3,27.7,21.5c-29.4-7.3-49.4-18.2-60-32.7c4.7,1.8,7,2.6,7,2.6
		c-0.9-4.6-3.8-7.2-8.8-8.1c11.4-2,31.9,8.4,61.4,31.1C524.4,164.7,515.3,159.9,508.2,157.4z"/>
	<path class="st64" d="M479.7,138.1c25.4,1.6,43.9,11.1,55.4,28.6C515.8,151.7,497.3,142.2,479.7,138.1z"/>
	<path class="st64" d="M483.5,134.7c16-3.1,29.8,1.4,41.3,13.6C507.5,139.7,493.7,135.2,483.5,134.7z"/>
	<path class="st84" d="M486.6,144.3c22.7,20,22.5,22.7-0.7,8.2c8.9,6.9,18.6,12.7,29.2,17.6c-14.1-13.6-16.6-18.5-7.5-14.8
		C500.5,149.9,493.5,146.2,486.6,144.3z"/>
	<path class="st84" d="M515.5,178c-12.4-3.2-21.9-7.9-28.7-14.3C498.1,169.8,507.7,174.6,515.5,178z"/>
	<path class="st80" d="M459.4,166.6c-0.2,2.9-2.7,12-3.2,19.2c2.8-9.3,11.1-26,9.3-32.8c-2.5,3.9-10.1,8.3-11.4,11.4
		c1.1-10,10.6-19.2,14.6-20.9c-10.4-0.7-23.1,19.6-20.7,38.7C450.2,181,457.9,169.3,459.4,166.6z"/>
	<path class="st28" d="M466.9,187.1c1.6-7.9,5.9-13.7,7.3-15.1c0.3-6.3,0.3-10.7-0.1-13.3C470.9,171,464.7,175.4,466.9,187.1z"/>
	<path class="st62" d="M432.5,459.2c40.5,4.2,68.7,56.7,56.3,60.6c-19.5,6.1-114.4,6.3-154.9-9.4c-1.2-0.5-6.9-2-14.1-4.1
		c-1.2,2.4-2.3,2-3.2-0.9c-16.7-5-38.2-12.5-31-17.1c22.9-15,103.8-30.3,140.3-29.5C425.2,457,427.4,457.1,432.5,459.2L432.5,459.2z
		"/>
	<path class="st62" d="M466.4,472.6c26.1,66.8,44.2,63.7,74.1-2.5C528.3,482.4,505.1,483.7,466.4,472.6z"/>
	<path class="st65" d="M344.4,471.6c-12.1,12.1-38.4,18-50.2,6.1c-0.9-0.9,9.3-7.4,10.6-9c13.1-4.4,31.4-15,45-26.7
		c7.6,1.5,11.7,5.2,12.2,10.9c0.2,4.7,1.7,7.4,3.1,11.9c1.4,4.7,0.9,10.5,4.6,14.8c-9.5,4.2-10.3-4.9-12.4-9
		C354.8,466.5,350.2,467.6,344.4,471.6z"/>
	<path class="st85" d="M298,476.4c11.4-1.4,18.3-2.9,20.5-4.5c1.8-2.5,1.8-5,0.3-7.7c-8.3,3.3-12.4,5-12.4,5
		C299.7,474,296.9,476.4,298,476.4z"/>
	<path class="st62" d="M326.1,501.5c17.7-10.6,26.1-24.2,17.9-24.6c-22.2-1.1-160.2,7.2-183.4,6.7c-0.7,0-0.7,0.4-0.7,0.9
		c-2.6-0.2-0.1,9.4,0.6,19.5c0.1,1.8,4.7,2.1,8,2.2c25.5,0.6,49.9,9.2,73.7,9.9C274.3,517,305,514.1,326.1,501.5z"/>
	<path class="st35" d="M287.9,480.6c22.2,5.5,39.2,4,51-4.6C319.8,469.2,302.8,470.7,287.9,480.6z"/>
	<path class="st25" d="M329.7,464.1c4.5-4.4,8-0.3,9.3,3.2c-13.9,7.9-15.2,14.3-20.3,16.5c-5.2,2.2-10.3,1.2-5.2-2.9
		C321.4,474.5,321.4,469.4,329.7,464.1z"/>
	<path class="st24" d="M118.3,463.9c3.7,11.3,3.3,21.3-1.3,29.8c-4,12.5,0.5,16.8,13.6,13.1c15.1-4,26-4.9,29.9-2.8
		c0.5-13-0.6-19.6-0.6-19.6c-11.8,0.6-18.3-0.9-19.4-4.5c-0.9-16.6-0.6-27.5,0.8-32.8c3.9-6.9,7.3-11.5,10.1-13.9
		c-2.2-4.4-8-3.4-10.9-1.9c-1.6-0.7-3.6-1.3-5.5-0.3c-3.4,1.8-6,0.2-7.8,2.4c-2.5,3-5.7,3.4-5.1,9.4
		C117.3,447.8,116.1,454.8,118.3,463.9z"/>
	<path class="st80" d="M560.3,219.7c14.3,41.5-39.5,40.3-25,77.3c-6.3-4.8-11.4-7.9-14.5-11.9c-20.6-26.4,6.7-37.5,22.2-49.3
		C549,231.2,556.1,226.4,560.3,219.7z"/>
	<path class="st86" d="M539.3,281.9c14.3,16.2,1.6,30.8-9.5,19.7C536.9,299.1,543,295.7,539.3,281.9z"/>
	<path class="st87" d="M545.1,262.6c-7.8,8.8,0.4,31.5-9.8,36.5C536.2,296.4,522.9,278.6,545.1,262.6z"/>
	<path class="st64" d="M525.4,256.7c-7.7,4.5-5,0.1,4.8-9.6c-9.6,5.6-14.5,11.9-14.6,19c0.8,6.3,2.8,11.1,5.9,14.6
		c-3.5-6.2-5.9-14.1-1.7-19.5c5,2.3,7,8.5,6.8,11.1c1.3-3.4,3-6,4.9-7.6c-2.3,4.9-3.7,9.5-4.2,13.9c3.5-11.5,7.6-21.4,19-28
		c-4.6,1-9,5.8-13.3,9C527.9,259.9,526.4,258.9,525.4,256.7z"/>
	<path class="st67" d="M534.1,244.1c7.1-3.2,12.3-5.5,15.8-6.9c-3,2.5-8.1,5.3-15.1,8.6c0,0,1.4,0.9,4.1,2.6
		c13.5-6.2,16-4.4,7.4,5.5c8.7-6.6,13.4-16.2,14-28.9c-0.9,4.1-2.8,7-5.8,8.8c1.1-1.2,1.9-4,2.5-8.4
		C552.8,232.8,545.2,239,534.1,244.1z"/>
	<path class="st80" d="M533.7,234c11.8-12,18.4-24.2,19.7-36.5C555.5,207.3,548.9,219.5,533.7,234z"/>
	<path class="st64" d="M528.8,299.2c6.7,4.4,11.5,2.9,14.3-4.6C539.7,300,535,301.5,528.8,299.2z"/>
	<path class="st63" d="M220.4,497.9c-16.9-5.7-34.8-7.9-53.8-6.6c0.4,5.1,0.4,9.3,0.1,12.7c76.5,1.2,81.4,19.8,149.2-1.5
		c-0.5-11.2,0-15.8,4-0.1c3.4,0.2,6.5,0.9,8,0.9h0c89.7,19.3,142.4,22.1,158.2,8.2c-4.5-5.8-5.2-10.9-9.4-15.3
		c-7.5-8-18.1-13.9-24.7-17.4c9.6,11.7,6.9,12.4-8.1,1.9c-31.2,6.9-63.2,9.7-96.1,8.5c-3.9,0.2-7.3,0.5-10.2,0.9
		c0.1-1.4,0.1-2.7,0-4c0,0-22.5,1.9-30.1,2.2c1,5.9,2.4,15.1-3.5,1.2C287.1,505.6,259.3,508.4,220.4,497.9z"/>
	<path class="st25" d="M346.6,467.8c-4.2-9.6-6.8-4.4-10.4,2.2c-2.7,5.1-4,7.1-4.7,11.4c-0.3,1.6-1.1,5.3-1.2,6.7
		c-0.8,5.9,3,5.4,4.9,2.8c1.7-2.2,2.7-6.1,3.6-10.1C339.8,476,344.6,471.7,346.6,467.8z"/>
	<path class="st25" d="M127.2,469.3c0.8,8.6,0.5,17.7-0.7,27.3l3.9-0.8l0.4-5.5c0.1,1.6,0.4,3.5,1.1,5.6c-0.2-2.4,1.3-5.4,3.2-5.8
		c-2.2,7.4,5.8,5.4,8.3,2.4c0.3-0.4,10.7-0.2,11.2-0.8c3.3-4.3-8-4.9-8.9-5.1c-3.7-0.7-7.4-2.2-8.8-5c-2.1-12.6,0.7-23.5-1.7-35.2
		c2-3.3,3.8-4.3,7.4-3.9c0,0,0.9-1.3,2.6-3.9c-2.3-0.4-1.7-2.7,0.7-6.7c-3.2-1.3-6.9,1-9.8,6.7c-1.6,2.8-4.6,5.5-9.2,8
		C119.9,454,126,460.9,127.2,469.3z"/>
	<path class="st88" d="M321.9,472.1c-2.5,3.8-4.8,6.6-6.9,8.4c0.5-0.1,0.8,0,1,0.2c1.7,1.4-1.7,2.6-2.5,3.1c5.1,2.6,10.1-5.7,12.4-9
		C323.9,473.7,322,472.9,321.9,472.1z"/>
	<path class="st88" d="M333.6,476.9c-0.6,4.5-1.5,8-2.6,10.6c0.4-0.3,1.4-1,1.7-0.9c2.1,0.6,2,3-0.1,5.6c5.7,0.1,5.1-10.6,5.7-14.6
		C336.1,477.5,334,477.7,333.6,476.9z"/>
	<path class="st88" d="M124.8,463.7c1,8.2,0.8,13.3-0.6,15.3c0.4-2.9-1-7.8-4.1-14.6C117.5,451.2,121.2,455.8,124.8,463.7z"/>
	<path class="st88" d="M126.1,436.6c-2.2,1.5-2.9,3.4-2.2,5.6c3-0.6,5.5-0.8,7.6-0.5c2.3-4.9,4.6-8.1,6.7-9.6
		c-2.7,0.1-4.6,0.9-5.8,2.4c-1.8,3.4-2.6,5.1-2.6,5.1c0.7-4.1,1-6.1,1-6.1c-1.6,0.2-2.6,0.9-3.1,2c-0.7,3.2-1,4.8-1,4.8
		C126.3,437.9,126.1,436.6,126.1,436.6z"/>
	<path class="st88" d="M145.6,496.9c7.7,0.2,12.2,0.5,13.5,1.3c0.9-5.8,1.3-8.7,1.3-8.7c0.2,5.6,0.3,9.6,0.2,12.4
		c-6.9-1.8-13.6-1.5-20,1.3c-9.9,2.3-16.1,3.6-18.4,3.8c3.4-2.2,5-4.8,4.7-7.6c2.4-2,4.4-2.5,6-1.4
		C136.2,500.8,140.7,499.5,145.6,496.9z"/>
	<path class="st25" d="M336.5,459.6c-2,2.2-3,3.6-5.6,4.4c0.6-2.1,2-3.6,4.3-4.5c9-8.9,13.5-13.3,13.5-13.3
		C340.5,455.1,336.5,459.6,336.5,459.6z"/>
	<path class="st25" d="M343.2,461.4c-1.6,2.6-2.2,4.1-4.7,5.4c0.1-2.2,1.3-3.9,3.3-5.2c7.1-10.4,10.7-15.6,10.7-15.6
		C346.3,456.2,343.2,461.4,343.2,461.4z"/>
	<path class="st89" d="M359.8,474.1c-1.5-4.2-2.3-6.6-2.4-7.1c0.8-2.1,1.7-3.7,2.5-4.7c1.7,3.1,2.5,4.7,2.4,4.8c0.3,5.2,1,8,1.9,8.4
		c1.8-1.3,2.5-0.5,4.5,3.6C364.7,481,361.9,479.8,359.8,474.1z"/>
	<path class="st62" d="M570.1,459.4c-40.5,4.2-68.7,56.7-56.3,60.6c19.5,6.1,114.4,6.3,154.9-9.4c1.2-0.5,6.9-2,14.1-4.1
		c1.2,2.4,2.3,2,3.2-0.9c16.7-5,38.2-12.5,31-17.1c-22.9-15-103.8-30.3-140.3-29.5C577.4,457.2,575.2,457.3,570.1,459.4L570.1,459.4
		z"/>
	<path class="st65" d="M658.1,471.8c12.1,12.1,38.4,18,50.2,6.1c0.9-0.9-9.3-7.4-10.6-9c-13.1-4.4-31.4-15-45-26.7
		c-7.6,1.5-11.7,5.2-12.2,10.9c-0.2,4.7-1.7,7.4-3.1,11.9c-1.4,4.7-0.9,10.5-4.6,14.8c9.5,4.2,10.3-4.9,12.4-9
		C647.8,466.7,652.3,467.7,658.1,471.8z"/>
	<path class="st85" d="M704.6,476.5c-11.4-1.4-18.3-2.9-20.5-4.5c-1.8-2.5-1.8-5-0.3-7.7c8.3,3.3,12.4,5,12.4,5
		C702.8,474.2,705.6,476.6,704.6,476.5z"/>
	<path class="st62" d="M676.5,501.6c-17.7-10.6-26.1-24.2-17.9-24.6c22.2-1.1,160.2,7.2,183.4,6.7c0.7,0,0.7,0.4,0.7,0.9
		c2.6-0.2,0.1,9.4-0.6,19.5c-0.1,1.8-4.7,2.1-8,2.2c-25.5,0.6-49.9,9.2-73.7,9.9C728.2,517.2,697.6,514.3,676.5,501.6z"/>
	<path class="st35" d="M714.7,480.7c-22.2,5.5-39.2,4-51-4.6C682.8,469.4,699.8,470.9,714.7,480.7z"/>
	<path class="st25" d="M672.9,464.3c-4.5-4.4-8-0.3-9.3,3.2c13.9,7.9,15.2,14.3,20.3,16.5c5.2,2.2,10.3,1.2,5.2-2.9
		C681.2,474.7,681.1,469.6,672.9,464.3z"/>
	<path class="st24" d="M884.2,464.1c-3.7,11.3-3.3,21.3,1.3,29.8c4,12.5-0.5,16.8-13.6,13.1c-15.1-4-26-4.9-29.9-2.8
		c-0.5-13,0.6-19.6,0.6-19.6c11.8,0.6,18.3-0.9,19.4-4.5c0.9-16.6,0.6-27.5-0.8-32.8c-3.9-6.9-7.3-11.5-10.1-13.9
		c2.2-4.4,8-3.4,10.9-1.9c1.6-0.7,3.6-1.3,5.5-0.3c3.4,1.8,6,0.2,7.8,2.4c2.5,3,5.7,3.4,5.1,9.4C885.2,448,886.5,455,884.2,464.1z"
		/>
	<path class="st63" d="M782.2,498.1c16.9-5.7,34.8-7.9,53.8-6.6c-0.4,5.1-0.4,9.3-0.1,12.7c-76.5,1.2-81.4,19.8-149.2-1.5
		c0.5-11.2,0-15.8-4-0.1c-3.4,0.2-6.5,0.9-8,0.9h0c-89.7,19.3-142.4,22.1-158.2,8.2c4.5-5.8,5.2-10.9,9.4-15.3
		c7.5-8,18.1-13.9,24.7-17.4c-9.6,11.7-6.9,12.4,8.1,1.9c31.2,6.9,63.2,9.7,96.1,8.5c3.9,0.2,7.3,0.5,10.2,0.9c-0.1-1.4-0.1-2.7,0-4
		c0,0,22.5,1.9,30.1,2.2c-1,5.9-2.4,15.1,3.5,1.2C715.4,505.8,743.3,508.5,782.2,498.1z"/>
	<path class="st25" d="M655.9,468c4.2-9.6,6.8-4.4,10.4,2.2c2.7,5.1,4,7.1,4.7,11.4c0.3,1.6,1.1,5.3,1.2,6.7c0.8,5.9-3,5.4-4.9,2.8
		c-1.7-2.2-2.7-6.1-3.6-10.1C662.8,476.2,657.9,471.9,655.9,468z"/>
	<path class="st25" d="M875.3,469.5c-0.8,8.6-0.5,17.7,0.7,27.3l-3.9-0.8l-0.4-5.5c-0.1,1.6-0.4,3.5-1.1,5.6
		c0.2-2.4-1.3-5.4-3.2-5.8c2.2,7.4-5.8,5.4-8.3,2.4c-0.3-0.4-10.7-0.2-11.2-0.8c-3.3-4.3,8-4.9,8.9-5.1c3.7-0.7,7.4-2.2,8.8-5
		c2.1-12.6-0.7-23.5,1.7-35.2c-2-3.3-3.8-4.3-7.4-3.9c0,0-0.9-1.3-2.6-3.9c2.3-0.4,1.7-2.7-0.7-6.7c3.2-1.3,6.9,1,9.8,6.7
		c1.6,2.8,4.6,5.5,9.2,8C882.6,454.2,876.5,461.1,875.3,469.5z"/>
	<path class="st88" d="M680.6,472.3c2.5,3.8,4.8,6.6,6.9,8.4c-0.5-0.1-0.8,0-1,0.2c-1.7,1.4,1.7,2.6,2.5,3.1
		c-5.1,2.6-10.1-5.7-12.4-9C678.6,473.9,680.5,473.1,680.6,472.3z"/>
	<path class="st88" d="M668.9,477.1c0.6,4.5,1.5,8,2.6,10.6c-0.4-0.3-1.4-1-1.7-0.9c-2.1,0.6-2,3,0.1,5.6
		c-5.7,0.1-5.1-10.6-5.7-14.6C666.4,477.7,668.5,477.8,668.9,477.1z"/>
	<path class="st88" d="M877.7,463.9c-1,8.2-0.8,13.3,0.6,15.3c-0.4-2.9,1-7.8,4.1-14.6C885.1,451.4,881.3,455.9,877.7,463.9z"/>
	<path class="st88" d="M876.4,436.8c2.2,1.6,2.9,3.4,2.2,5.6c-3-0.6-5.5-0.8-7.6-0.5c-2.3-4.9-4.6-8.1-6.7-9.6
		c2.7,0.1,4.6,0.9,5.8,2.4c1.8,3.4,2.6,5.1,2.6,5.1c-0.7-4.1-1-6.1-1-6.1c1.6,0.2,2.6,0.9,3.1,2c0.7,3.2,1,4.8,1,4.8
		C876.2,438.1,876.4,436.8,876.4,436.8z"/>
	<path class="st88" d="M857,497c-7.7,0.2-12.2,0.5-13.5,1.3c-0.9-5.8-1.3-8.7-1.3-8.7c-0.2,5.6-0.3,9.6-0.2,12.4
		c6.9-1.8,13.6-1.5,20,1.3c9.9,2.3,16.1,3.6,18.4,3.8c-3.4-2.2-5-4.8-4.7-7.6c-2.4-2-4.4-2.5-6-1.4C866.3,501,861.8,499.7,857,497z"
		/>
	<path class="st25" d="M666.1,459.8c2,2.2,3,3.6,5.6,4.4c-0.6-2.1-2-3.6-4.3-4.5c-9-8.9-13.5-13.3-13.5-13.3
		C662,455.3,666.1,459.8,666.1,459.8z"/>
	<path class="st25" d="M659.3,461.5c1.6,2.6,2.2,4.1,4.7,5.4c-0.1-2.2-1.3-3.9-3.3-5.2c-7.1-10.4-10.7-15.6-10.7-15.6
		C656.2,456.4,659.3,461.5,659.3,461.5z"/>
	<path class="st89" d="M642.8,474.3c1.5-4.2,2.3-6.6,2.4-7.1c-0.8-2.1-1.7-3.7-2.5-4.7c-1.7,3.1-2.5,4.7-2.4,4.8
		c-0.3,5.2-1,8-1.9,8.4c-1.8-1.3-2.5-0.5-4.5,3.6C637.8,481.2,640.6,480,642.8,474.3z"/>
	<path class="st63" d="M466.8,484.2c12,7.3,24.4,10.9,37,10.9c10.9-0.8,21.5-4.4,32-10.7c-4.9,8.8-9.9,17.7-19.3,24.8
		C493.3,527.2,475.9,500.4,466.8,484.2z"/>
</g>
</svg>
