<svg version="1" id="Layer_1" xmlns="http://www.w3.org/2000/svg" viewBox="0 0 1000 1000">
  <style>
    .st2{fill:#974f22}.st3{fill:#dbbf96}.st4{fill:#9e8b72}
  </style>
  <path d="M399 696l-287-78c-4-1-8-4-11-8s-5-9-5-13l2-170 301 81v188z" fill="#b88e64"/>
  <path d="M278 506l-94-48s-11 3-37 2-48 28-62 51c5 21 11 36 11 36l303 83 51-64-62-14-110-46z" fill="#aa7d53"/>
  <path class="st2" d="M303 289C169 289 79 439 79 473c0 13 3 26 6 38 14-23 19-29 62-32 42-3 111 25 133 34 28 12 108 39 108 39l62 15 159-197c0-45-171-81-306-81z"/>
  <path class="st3" d="M399 630c0-54-11-54-17-116s52-115 118-149 109 5 109 5-9 82-9 191L399 696v-66z"/>
  <path class="st4" d="M443 506c-4-1-11 4-9 9 1 4 3 0 6 1 2 1-1 4 2 5 2 0 6-4 6-6-1-4-6-4-5-9zM508 495c-2 0-5 1-7 3s-2 6 1 5c2 0 3-2 5 0s0 2 2 3c4 1 5-2 3-4s-4-3-4-7zM492 524c-1-1-1-3-3-3l-5 1 2 3c0 2-1 2-2 3-2 1-3 6 1 5 2-1 6-3 7-5 2-1 1-2 0-4zM465 541c-3-1-6 3-4 5 3 3 5-3 4-5zM485 552c-1-1-4 1-4 3s1 0 2 2l1 3c4 3 2-2 2-4v-4h-1zM479 428c-4 0-10 4-9 9 1 4 4 1 6 2s-1 3 2 4c3 0 6-4 6-6 0-4-6-4-5-9zM528 426c-3 0-6 1-8 3-1 2-1 6 2 5 2 0 3-2 4-1l3 4c4 1 5-2 3-4-2-3-5-3-4-7zM456 464c-3-1-5 1-7 3s-2 5 1 5c2-1 3-2 5-1s0 3 2 4c4 0 5-2 3-5-2-2-5-3-4-6zM416 488c-2-1-5 1-7 3-2 1-2 5 2 4 1 0 3-2 4 0s0 3 3 3c3 1 4-2 2-4s-4-3-4-6zM515 393c-3-1-6 1-8 3-1 1-1 5 2 5 2-1 3-3 4-1s1 3 3 3c4 1 5-2 3-4s-5-3-4-6zM528 446c0-1-1-3-3-3l-5 1 2 4-2 2c-2 1-3 6 1 5l8-5c2-1 0-2-1-4zM476 613l-3-3-6 1 2 4-2 2c-2 1-3 6 1 5 3 0 6-3 8-4 2-2 1-3 0-5zM483 474l-1-1c-2 0-5 4-3 6 3 3 5-3 4-5zM522 474c-2-1-5 1-5 3s1 0 2 2l1 3c4 3 2-2 2-4v-4zM552 504c-3-4-11-5-13-1-2 5 2 4 3 6s-3 2-1 4c1 3 7 2 8 0 3-3-2-6 3-9zM588 537c-2-2-5-3-8-3-2 0-5 2-2 4 1 1 4 1 4 3s-2 2-1 4c2 4 5 2 5-1s-1-5 2-7zM574 551v-4l-5-3-1 4h-3c-2 0-6 2-3 4l9 3c3 0 2-1 3-4zM543 545v-1c-2-2-7-1-7 1 0 5 6 2 7 0zM498 584l4 2 4-3-3-2c-1-2 0-2 1-3 1-3 0-7-3-5l-5 8c-1 2 0 2 2 3zM515 558c3-1 4-6 1-7-4-1-3 5-1 7zM581 507v-1c-2-1-7-1-7 2 0 4 6 2 7-1zM588 449l-1-1c-1-2-6-1-6 1 0 4 6 2 7 0zM549 566c0-2-4-2-5-1v3l-1 3c1 5 3 0 4-2 1-1 3 0 3-2l-1-1zM423 578c-3-1-6 3-4 5 3 4 5-3 4-5zM431 547l-3-4-5 1 2 4-2 2c-2 2-3 6 1 5l7-4c2-2 1-2 0-4zM430 639c-1-2-4-2-5-1-2 2 0 1 0 3l-2 3c1 5 3 0 4-2 1 0 3 0 3-2v-1zM561 368c-2-3-10-4-12 0s2 3 3 5-3 2-2 5c2 2 7 1 9 0 2-4-2-7 2-10zM578 465c-3-3-11-4-13 0s2 3 3 5c1 3-3 3-1 5 1 2 7 2 8 0 3-3-2-7 3-10zM458 577c-3-3-10-4-13 0-2 4 3 3 4 5 1 3-4 2-2 5 2 2 7 1 9 0 2-3-2-7 2-10zM597 401c-1-2-4-3-7-3-2 0-5 3-2 5 1 1 3 0 3 2s-2 2 0 5 4 2 5-2c0-2-1-5 1-7zM584 416v-5l-5-3-1 4h-3c-2 0-6 2-3 5l9 2c2 0 2-1 3-3zM553 409v-1c-2-2-7-1-7 1 0 5 6 2 7 0zM559 430c0-2-4-2-5-1-2 2 0 1 0 3l-1 3c1 5 3 0 4-1s3-1 3-3l-1-1z"/>
  <path class="st3" d="M609 370s5 30 0 55-8 55-8 70l-6-57 8-38 6-30z"/>
  <g>
    <path class="st2" d="M901 616c-8-6-18-9-28-8-18 2-118-2-118-2l-106 50-78 13-4 26c29 7 70 12 143 13s200-49 203-68l4-27-16 3z"/>
    <path class="st3" d="M759 579s100 5 118 2c19-2 43 13 40 32s-130 69-203 69c-73-1-114-7-143-13l188-90z"/>
    <g>
      <path class="st2" d="M840 559c-10-5-22-7-32-4-19 6-130 17-130 17l-107 72-84 26v30c33 2 79 2 159-9s211-86 211-108v-29l-17 5z"/>
      <path d="M678 542s111-11 130-17 49 7 49 29-131 97-211 107c-80 11-126 12-159 9l191-128z" fill="#e5cdac"/>
    </g>
    <g>
      <path class="st4" d="M580 650c-5-9-24-1-19 4h13c5 1 9 1 6-4zM643 617c-3-4-8-4-12-3-7 2-3 6-3 11 2 0 3-3 5-3l4 2 4-2c3-1 4-2 2-5zM711 575c-2-4-8-4-12-3-7 2-3 6-3 11 3 0 3-4 5-3l4 2 4-2c3-1 4-2 2-5zM611 617c-1-2-2-3-4-2 1 4-3 2-5 4-4 5 4 4 7 3s4-2 2-5zM539 653c-1-2-3-3-5-3 2 4-3 3-4 5-4 5 4 4 7 3s3-2 2-5zM821 543c-3-5-8-4-12-3-7 1-3 6-3 11 2 0 3-4 5-4l4 2 4-1c3-1 4-2 2-5zM725 611c-2-4-8-4-12-3-7 2-2 6-2 11 2 0 2-3 5-3l3 2 4-2c4-1 4-2 2-5zM789 543c-1-2-2-3-4-3 1 4-3 2-5 5-3 5 5 4 7 3 3-1 4-2 2-5zM643 588c0-2-1-3-3-2 1 4-2 2-3 4-3 5 3 4 5 3s3-2 1-5zM669 580c5-1 3-13 0-11l-2 7c-1 3-2 5 2 4zM680 619c2 0 3-4 3-6-1-4-3-2-6-3-1 1 2 2 1 3l-1 2v3c0 2 1 2 3 1zM683 602l2-2c-2 0-1-2-2-3-2-3-3 2-3 3 1 2 1 2 3 2zM696 623l1-1c-2 0 0-2-2-3-2-2-2 2-2 3s1 2 3 1zM729 559c5-2 3-14 0-11l-2 7c-1 3-2 5 2 4zM620 651c5-1 3-13 0-11l-2 8c-1 2-2 5 2 3zM739 598c3-1 4-4 3-6 0-5-2-3-5-3-1 1 2 2 1 3l-1 2v2c0 2 0 3 2 2zM743 580l2-2c-2 0-1-2-2-3-2-3-3 2-3 4 1 1 1 2 3 1zM771 575l2-2c-2 1-1-2-2-3-2-3-3 2-2 4 0 2 0 2 2 1zM756 602l1-2c-2 1-1-1-2-2-2-2-2 1-2 2 0 2 1 2 3 2zM655 615l2-2c-3 1-1-2-2-3-2-3-3 2-3 4 1 2 1 2 3 1zM760 561c0-6-11-8-10-4 0 2 5 3 6 4 2 2 4 3 4 0zM801 564c0-3-3-5-5-5-4-1-3 2-5 4h4l1 2 2 1c2 0 3 0 3-2zM789 586c0-2-1-2-2-3 0 2-2 0-3 1-4 1 1 3 2 4 2 0 3 0 3-2zM668 637l1-2c-2 1-1-1-2-2-2-2-3 1-2 3l3 1z"/>
    </g>
  </g>
</svg>
