<svg version="1" id="Layer_1" xmlns="http://www.w3.org/2000/svg" viewBox="0 0 1000 1000">
  <style>
    .st0{fill:#285820}.st1{fill:#80a15f}.st2{fill:#cbeb98}.st3{fill:#dff2a9}.st4{fill:#c6d394}
  </style>
  <path class="st0" d="M98 429v74c0 41 70 74 158 74s158-33 158-73v-75H98z"/>
  <path class="st1" d="M98 429c0-40 70-73 158-73s158 33 158 73-71 74-158 74c-88 0-158-33-158-74z"/>
  <path class="st2" d="M113 429c0-35 64-63 143-63s143 28 143 63-64 64-143 64-143-28-143-64z"/>
  <path class="st3" d="M203 429c0-13 24-24 53-24s52 11 52 24-23 25-52 25-53-11-53-25z"/>
  <path class="st4" d="M242 459h-1l-14-2c-3-1-5-5-4-8 1-4 4-6 8-5 3 2 7 2 11 3 4 0 6 3 6 7-1 3-3 5-6 5zm37-1c-3 0-5-2-6-5-1-4 1-7 5-8l11-3a6 6 0 1 1 5 11l-13 4-2 1zm-76-22c-3 0-6-3-6-7 0-5 2-11 7-15 3-3 7-2 9 0s2 7 0 9c-3 2-4 4-4 6 0 4-2 7-6 7zm101-11c-2 0-4 0-5-2l-8-5c-4-2-5-5-3-9 1-3 5-4 8-3l12 9a6 6 0 0 1-4 10zm-60-13c-4 0-6-3-7-6 0-3 2-6 6-7l13-1c3 1 6 3 6 7s-2 6-6 6a109 109 0 0 0-12 1z"/>
  <g>
    <path class="st0" d="M923 261c-168-19-430 109-541 168a2334 2334 0 0 0 53 262c0 1 133-10 234-58 101-49 276-161 282-278v-25c-2-32-13-54-28-69z"/>
    <path d="M923 261c-29-30-78-35-121-35-72 0-345 52-403 89-20 12-22 58-17 114 111-59 373-187 541-168z" fill="#688d59"/>
    <ellipse class="st1" cx="435" cy="500" rx="140" ry="191"/>
    <ellipse class="st2" cx="435" cy="500" rx="127" ry="178"/>
    <ellipse class="st3" cx="435" cy="500" rx="71" ry="99"/>
    <path class="st4" d="M413 593l-6-2c-7-4-15-10-21-18a13 13 0 0 1 19-16c4 5 9 9 14 12a13 13 0 0 1-6 24zm62-16l-8-3c-5-4-6-12-1-17l10-17a13 13 0 0 1 23 10c-4 8-8 16-14 23-2 3-6 4-10 4zm-101-64c-7 0-13-6-13-13 0-9 1-17 3-26 1-7 8-11 14-10 7 2 12 8 10 15l-2 21c0 7-5 13-12 13zm120-24c-6 0-11-4-12-10l-6-20c-3-6 0-14 6-16 6-3 14 0 17 6l8 25a13 13 0 0 1-13 15zm-81-57c-5 0-9-2-11-6-4-6-2-14 5-17 9-5 18-8 28-8 7 0 12 6 12 13s-5 12-12 12c-6 0-11 2-16 5l-6 1z"/>
  </g>
  <g>
    <path class="st0" d="M45 623v74c0 41 71 74 158 74s158-33 158-74v-74H45z"/>
    <path class="st1" d="M45 623c0-40 71-73 158-73s158 33 158 73c0 41-71 74-158 74S45 664 45 623z"/>
    <path class="st2" d="M60 623c0-35 64-64 143-64s143 29 143 64-64 64-143 64-143-28-143-64z"/>
    <path class="st3" d="M150 623c0-13 24-24 53-24s53 11 53 24c0 14-24 25-53 25s-53-11-53-25z"/>
    <path class="st4" d="M189 653h-1l-13-2c-3-1-5-5-4-8 0-4 4-6 7-5l12 3c3 0 6 3 5 7 0 3-3 5-6 5zm38-1c-3 0-6-2-7-5 0-4 2-7 5-8l11-3a6 6 0 1 1 5 11l-13 4-1 1zm-77-22c-3 0-6-3-6-7 0-5 3-11 8-15a6 6 0 0 1 8 9l-3 6c0 4-3 7-7 7zm101-11c-2 0-3 0-5-2l-8-5c-3-2-5-6-3-9 1-3 5-4 8-3 5 3 9 5 13 9 2 2 2 6-1 8-1 2-2 2-4 2zm-60-13c-3 0-6-3-6-6-1-3 2-6 5-7l13-1c4 0 7 3 7 7s-3 6-7 6l-11 1h-1z"/>
  </g>
</svg>
