<svg id="Layer_1" xmlns="http://www.w3.org/2000/svg" viewBox="0 0 1000 1000">
  <style>
    .st0{fill:#fcc484}
  </style>
  <path class="st0" d="M166.7 423.6c39.2-26.9 90.5-47.3 151-47.3 143.2 0 184.1 79.9 184.1 159.6 0 15-1.6 29.9-4.9 44.4-4.3 18.7-11.6 36.6-22.9 52.4-26.6 37-74.9 62.8-156.3 62.8-100 0-175-55.5-211.1-104.6-15.6-21.2-24-41.2-24-55 0-26.5 30.7-75.5 84.1-112.3z"/>
  <path d="M497 580.3c-4.3 18.7-11.6 36.6-22.9 52.4-26.6 37-74.9 62.8-156.3 62.8-100 0-175-55.5-211.1-104.6 169.5 70 320.3 21.4 390.3-10.6z" opacity=".17"/>
  <path class="st0" d="M554.1 220.3c-26.5 0-75.6 30.7-112.3 84.1-26.9 39.1-47.3 90.5-47.3 151 0 143.2 79.9 184.1 159.6 184.1 34.3 0 68.7-7.7 96.7-27.8 37-26.6 62.8-74.9 62.8-156.3.1-143.2-113.5-235.1-159.5-235.1z"/>
  <path d="M441.9 304.4c-26.9 39.1-47.3 90.5-47.3 151 0 143.2 79.9 184.1 159.6 184.1 34.3 0 68.7-7.7 96.7-27.8-203.7-13-213.6-222.4-209-307.3z" opacity=".15"/>
  <path d="M554.1 220.3c-26.5 0-75.6 30.7-112.3 84.1-26.9 39.1-47.3 90.5-47.3 151 0 143.2 79.9 184.1 159.6 184.1 34.3 0 68.7-7.7 96.7-27.8 37-26.6 62.8-74.9 62.8-156.3.1-143.2-113.5-235.1-159.5-235.1z" opacity=".21"/>
  <g>
    <path class="st0" d="M829.8 504.7c-39.2-26.9-90.5-47.3-151-47.3-143.2 0-184.1 79.9-184.1 159.6 0 15 1.6 29.9 4.9 44.4 4.3 18.7 11.6 36.6 22.9 52.4 26.6 37 74.9 62.8 156.3 62.8 100 0 175-55.5 211.1-104.6 15.6-21.2 24-41.2 24-55 0-26.6-30.7-75.6-84.1-112.3z"/>
    <path d="M499.5 661.3c4.3 18.7 11.6 36.6 22.9 52.4 26.6 37 74.9 62.8 156.3 62.8 100 0 175-55.5 211.1-104.6-169.5 70.1-320.3 21.4-390.3-10.6z" opacity=".17" fill="#050505"/>
  </g>
</svg>
