<svg version="1" id="Layer_1" xmlns="http://www.w3.org/2000/svg" viewBox="0 0 1000 1000">
  <style>
    .st0{fill:#9e954a}.st1{fill:#cb8669}.st2{fill:#9f6a4b}.st3{fill:#edbaa3}
  </style>
  <path class="st0" d="M798 538a58 58 0 1 1 116 0 58 58 0 0 1-116 0z"/>
  <path class="st0" d="M824 501a58 58 0 1 1 116 0 58 58 0 0 1-116 0z"/>
  <path class="st1" d="M328 302v167s137 10 137 114l127-176-118-117-146 12z"/>
  <path class="st2" d="M465 480l391-105v179c0 60-135 110-302 110-31 0-61-2-89-5V480z"/>
  <path class="st3" d="M554 265c-90 0-171 15-226 37 123 14 213 56 213 105 0 28-29 54-76 73 28 3 58 5 89 5 167 0 302-49 302-110S721 265 554 265z"/>
  <path class="st1" d="M573 469c-1 0-3 0-4-2-2-2-2-6 1-8 29-23 42-46 37-68-13-57-142-90-143-90-3-1-5-4-4-7 0-3 3-5 6-4 6 1 138 35 152 99 6 26-8 52-41 79l-4 1zM671 453l-4-2c-2-2-2-6 1-8 24-18 35-37 32-56-8-52-115-92-116-92-3-1-4-4-3-7s4-4 7-3c4 1 114 41 123 100 4 23-8 46-36 67l-4 1zM770 428l-3-1c-3-2-3-6-1-8 15-17 20-32 16-47-11-39-77-61-77-61-3-1-5-4-4-7s4-5 7-4 72 25 84 69c6 18 0 38-17 57-1 2-3 2-5 2zM260 350l-17 268s179-53 200 39l16-267s-74-63-199-40z"/>
  <path class="st1" d="M210 347l-15 236s158-47 176 35l15-236s-65-55-176-35z"/>
  <path class="st2" d="M386 382l-15 236-139 44 12-173s122-59 142-107z"/>
  <path class="st1" d="M150 357l-13 201s134-40 150 29l12-200s-55-47-149-30z"/>
  <path class="st2" d="M299 387l-12 200-118 38 10-147s103-50 120-91z"/>
  <path class="st3" d="M169 625l-16 4 16-161 5-2c38-12 115-47 109-75-6-27-84-35-133-34l1-17c15 0 137-2 148 47 11 46-88 84-115 93l-15 145z"/>
  <path class="st2" d="M459 390l-17 267-157 51 14-197s138-67 160-121z"/>
  <path class="st3" d="M285 708l-21 4 21-215 6-2c52-17 155-63 146-100-8-37-112-48-177-46l1-22c20-1 183-3 198 62 14 62-118 112-154 124l-20 195z"/>
  <path class="st3" d="M232 662l-18 4 18-189 6-2c45-15 136-56 129-89-7-32-99-41-157-39l2-20c17-1 161-3 174 55 12 54-105 99-136 109l-18 171z"/>
  <g>
    <path class="st0" d="M56 618a44 44 0 1 1 87 0 44 44 0 0 1-87 0z"/>
    <path class="st0" d="M123 618a44 44 0 1 1 87 0 44 44 0 0 1-87 0z"/>
    <path class="st0" d="M167 642a44 44 0 1 1 87 0 44 44 0 0 1-87 0z"/>
    <path class="st0" d="M210 686a44 44 0 1 1 88 0 44 44 0 0 1-88 0z"/>
    <path class="st0" d="M151 672a44 44 0 1 1 88 0 44 44 0 0 1-88 0z"/>
    <path class="st0" d="M100 661a44 44 0 1 1 87 0 44 44 0 0 1-87 0zM79 563a44 44 0 1 1 87 0 44 44 0 0 1-87 0z"/>
  </g>
  <g>
    <path class="st0" d="M495 666a44 44 0 1 1 88 0 44 44 0 0 1-88 0zM704 657a44 44 0 1 1 87 0 44 44 0 0 1-87 0z"/>
    <path class="st0" d="M558 686a44 44 0 1 1 88 0 44 44 0 0 1-88 0z"/>
    <path class="st0" d="M617 671a58 58 0 1 1 115 0 58 58 0 0 1-115 0z"/>
  </g>
</svg>
