<svg id="Layer_1" xmlns="http://www.w3.org/2000/svg" viewBox="0 0 1080 816">
  <style>
    .st1{fill-rule:evenodd;clip-rule:evenodd;fill:#27aae1}
  </style>
  <g opacity=".7">
    <path class="st1" d="M971 277.7zM560.4 443.8zM469.2 730c-2.3-2.7-5.8-4.2-7.3-7.6l-.3.1a3.6 3.6 0 0 0-2.7-1.4h-1.2l-3.1-1.6-.3-2a16 16 0 0 0-2.1-.5l-7.3 2.2 5.1 2.3c-2.5.4-4.8 2-7.4 2.1-3.8.1-7.9-.1-6.1 5.8 1.6 2 3.8 2.5 6.2 2.1.8-.2 1.5-.6 2.2-1.1l1.1-.7.5.1-.9 1.2a7 7 0 0 0-.6 2.5c-3.2-1.6-6.7.1-10.1.4-1.8.2-3.6.4-5.4.8-2.4.6-4.6 1.3-5.4 4l.4.9a6 6 0 0 0-3.1-1.5c-2.6.3-4.9.7-4.4 4.2 1.5 3.6 5.8 2.5 8 4.8l7.4-4.6 1.9.1c2 2.6 4.9 1.9 7.5 2.1l6.6-4.2 1.2.9c4 1.5 7.9 3.7 12.1.7l2.2-4.4c-3.5-6.2 7.9-2 5.3-7.7zM111.9 438.5c2.7-7 9.8-1.7 12.6-6.2-4.2-4.1 17.3-8.2.1-12.4-.4 3.4-2.4 2.6-5 2.8-6.8.6-10.7 5.3-12 11.8-.6 3.2 3.2 6.9 4.3 4zM369 668.7c-7.5-2.8-10.3 7.1-17 6.4-2.1 4.5 0 7.6 3.2 10.4 5.7-1.3 11.2-4.2 17.3-2.8l5.1-7.3c4.3-7.1-2.7-4.6-5.1-6l-1.5.8a5 5 0 0 1-2-1.5zM108.5 478.4c3.6 1.4 7.3 1.1 10.6-.9 2.8-1.8 5.1-4.1 6-7.5l1.5.4c2.7-2.3 5.7-4.4 5.5-8.6-.7-.2-1.5-.2-2.3-.1-6.9-6.6-8.8 4.6-14.1 4-6.4-.8-4.5 6.2-7.7 8.6-1.2.8-1.3 3.3.5 4.1zM670 28.6c.5-.2 1-.2 1.4-.2l2.3 1.1c.7.6 1.4 1.3 2.2 1.8 1.5.1 3 .1 4.1-1.3.6-3.9 3.6-5.3 6.8-6.5 2.2-.9 5.3-1.2 4.5-4.6-.7-2.7-3.6-4.6-5.7-3.5-5.7 2.9-12.2-1-17.7 2.7-2 3-2.6 6.1-.7 9.4.8.6 1.7 1 2.8 1.1zM121.8 315.6c4.8 4.9 7.5 1.2 10.2-2.4l2.8-1.9c3.5-7.2 16 .5 17.1-10.4l7.4-2.5 9.7-5.1c9.5-.4 15.2-7.8 22.6-12.2l7.5-4.5c8.4 2.4 14.4-4.4 21.9-5.7 3-.9 5.8-2.1 7.3-5l9.8-5.2c1.6-2.9 1-5.2-.6-7.4 2.8.6 5.6.9 8.4.2l2.1-.1c2.7-7.6 12.6-3.8 16.1-10.1l1.2-1.1c3.9 1.4 7-1.6 10.3-3.5a47.3 47.3 0 0 0 19.7-9.4c5.1 1.5 7.7-1.9 10.3-5.3l7.7-5c.8-2.3-.3-3.6-1.8-4.6 2.6.6 4.4-1.4 6.4-3 12.6.2 24.1-2.2 33.1-12l6.5-3c5 .3 5.5-4.4 7.7-7.1 4.9 0 8.8-2.8 12.9-4.9l1 .2.8-.6 8.4-4.3 9-5.6 2.8.2c2.8-4.5 6.1-8.3 12.1-7.8 3.1 1.1 5.2-.5 7.1-2.6 2.6-.4 2.4-2.8 3.1-4.5l19.2-5.5.2-.9a8 8 0 0 1 1.6.1c8.5 0 14.2-5.4 19.9-10.6l.1-.8.7-.4 9.9-2.4 2.9-4.4 4.8-5.3c9.6 4.1 14.7-5.6 22.3-7.4l9.9-2.3c2.1-12.3-4.7-7.6-10.2-5.3-.8.2-1.5.2-2.3 0-1.1-1.5-2.2-2.9-3.8-3.3 1.8-1.2 3.6-2.4 5.6-3.2l.5-.2v2.1c1.6.1 3.1-.2 4.2-1.2l1.6 1.2c7.9 4.3 14.1-1.4 20.9-3.7.6-.4 1-.9 1.3-1.5l2.1.3c5.5-1.1 8.7-4.7 10.8-9.6 2.2-.1 4.4 7 6.7.1 9.3-.9 17.1-4.4 22.6-12.3l11.5-1.3c1-.7 1.7-1.5 2.2-2.6.4-1.8.4-3.6-.4-5.2 3.1-.4 6.1-.7 9.2-.5 2.6-.6 2.9-2.6 3-4.8l.2-.9h1.4c2.9-1.4 7 .8 9.1-3.2l10.2.1c7.1-5.4 16.3-9.4 14.1-20.9l1.1-.8c4.5-1.4 7.2 1.1 9.6 4.4l4-3.7.7-.2c2.4-1.4 3.3-4.2 5.5-5.7l2.7-2.3h.2c4.2-.1 8-.8 9.8-5.3-3.6-.2-7.5 1-10.3-2.3l-5.1.6c-.2-.5-.1-.8.4-1.1-.7.4-1.5.6-2.3.6-1.6.9-3.4 1.5-3.2 3.5-2.1.3-3.3 2-4.8 3.4-4.7.4-10.1-1-12.8 4.7-6.6 4.2-12.9 9.4-21.7 7.9-4.5 3.8-11.6 1.1-15.5 6.3l.3.8h-.1l-2.7-.7-.4-.8-1.4-1.1c-2.2 5.8-12.1 1.7-12.7 9.7a35.6 35.6 0 0 0-24.8 8.1c.1 2 .6 3.8 2.2 5.2-1.7 1.4-2.1 3.3-2 5.3l-.4.1c-.9.4-1.6 1-2.3 1.8-1.2-1.2-2.7-1.4-4.4-1l-.8.5c-1-1.3-2.5-1.4-4.1-1.2-2.7 2.8-1.9 4.8-.4 6.7l-.1.2-2.6 4.3-2.8-3.7-1.9-5.5-4.9.1c0 3.4 1.9 4.9 5.1 4.9l-.7 4.4c-4.8-.3-9.4-2.2-14.3-1.7-13.8 5.3-25 15.1-38 21.8-17.6 1.7-28.5 16.7-44.1 22.4-7.1 2.5-15.3 2.8-19.9 10.1-.8-.1-1.6 0-2.3.4l-9.6 3.9-1 .4-9.2 3c-3.7 1.2-7.4 2.4-7.7 7.2-4.9 7-13.4 6.4-20 9.8-.6.5-.7 1.1-.6 1.7-3.1.7-6.5.8-8.7 3.9l-13.1 8.4c-12.1 2.3-21.2 10.3-31.5 16.1l-7.8 4.8c-6.1-1-9.2 3.3-12.5 7.2-2.9-.4-5.7-.3-7.7 2.3-9.8 4.7-21 7.2-27.5 17.2-7.9 2-15.6 4.6-22.1 9.9-4.1-.1-7.2 2.1-10 4.8-6.2 1.8-12.6 3.3-15.5 10.1-5.4 1.2-10 4.1-14.4 7.3l-24.3 8.1a22 22 0 0 0-10.3 9.7c-3.4 2.9-7.7 2.5-11.7 3.1.2 3.5-5.4 2.4-5.9 5.4-4.5 2.2-10.8 1.8-11.6 8.8-3.8.2-7.5.6-8 4.7-2.4-.6-4.8-1.7-6.9 1.1-.8 3.2-6.6 4.6-3.7 9.1 2.7 4.3 7 3.2 10.9 2.9zm277.3-158.5l-.1.2.1-.2c-.1-.1 0 0 0 0zm-57.9 27.2l1.1-1.3c-.3.5-.7 1-1.1 1.3zM30.5 605.7c-3.9-3.3-7.9-5.7-13-2.5l-7.4 7.4c-5.8 4.2-2.7 8.5 0 12.7 2 4.5 5 7.1 10.2 5.4 4.3-2 6-5.9 7.5-10.1l-.2-2.6c4.6-.5 9.4-.8 4.6-7.3a7 7 0 0 0-1.7-3zM11 613.1l-.7.4v-.1c.2-.2.4-.3.7-.3zM851.1 469.7l2.7 2.2c4.2-2.1 8.7 0 13-.6a10 10 0 0 0 3.2-1.4c2.3-2.4 3.7-4.9 1.3-8-5.2.5-10.4-4.2-15.6-1.4l3.3-5.2-3.5-2.6-18.3 16.3 1.3 2.1 7.9-2.2-.3 7 4.5-7.2.5 1zM111.7 700.1c2.5-.4 5.4-.8 4.8-4.1-.7-3.8-4.5-2.7-7.1-3.4l-5.3 4.7c-.2 0-.4.3-.6 1-.1.3 0 .6.1.9a3.6 3.6 0 0 0-2.4 3.2l.2 1.4c-1.3 1.7-1.1 3.9-1.4 5.9l1.8.6c-.1 5.2 3.3 7.3 7.7 7.8 5.9.7 5.4-4.7 7-8.1l2.8-2.6c.3-2.5 4.5-2.2 4-6.1-3.7-1-8.5 3.8-11.6-1.2zM191.4 412.7l-2.5 2.4c.1 3.9-3.8 4.8-5.5 7.5v4.4c5.9 3.9 5.4-6.7 10.5-4.6 4.2.2 6.6-2.1 7.9-5.8-2.4-3.9-6.1-4.5-10.4-3.9zM81.8 569.7c-.7-.3.1 2.6.3 4a406 406 0 0 0-10.3-3.2l-7.2.6c-.1 8 6 4.5 9.8 5.2.3.7.4 1.5.3 2.3 8 6.4 11.7-3.1 17.5-4.8-1.1-6.9-7-2.5-10.4-4.1zM154.4 672.5l-7.7 3 .1 7.1c1.9 2.5 4.5 1.9 7.1 1.5 2.5-.1 5.3.2 6.4-2.9.8-3.6-1.5-6-3.6-8.4-.7-.3-1.5-.4-2.3-.3zM194 665.2l1 .1 1-.2c.9-6.3-4.2-4-7.1-4.9l-10.1-.1a6 6 0 0 0-3.2-1.2 9.4 9.4 0 0 0-6.9 3.7l-2.3-2.1-2.7-3.1c-1.9.4-4.1.3-4.8 2.8l-2.1.5c-1.9 2.3-2.5 4.6-.1 7l13.2-.2c.4.4.9.8 1.5 1.1 3.1.6 5.1-2.2 7.8-2.7l2.1-.6c4.2-1.9 8.4-1.8 12.7-.1zM117.2 402.3c2-7 9.3-3.2 12.2-7.3-.6-.1-1.2 0-1.9.1-3.9-8-8.2-8.1-15.1-.2-.3 2.1-.4 4.4-2.8 5.3 1.6 4.6 7 4 7.6 2.1zM421.9 754.9l.1-.1a8.4 8.4 0 0 0-7.3-1.8c-1.9.8-3.3 2-2.9 4.4l5.5 6.9c2.8.8 5.7 2 7.1-2 .5-3 .2-5.6-2.5-7.4zM705.8 80c3-.6 5.9-2 8.8-3-2.7-9.2-7.8-4.1-12.4-2.2-1.9 3.9-1.1 6.2 3.6 5.2zM469.3 678l5.3-5.2c-2.6-4.7-6-5.5-10.4-2.4-7.3 2.5 1 4.9 0 7.4l5.1.2zM491.6 621c3.2-2.7 12.2 2.1 9.8-7.7l-9.8.2c.8 2.5-2.8 5 0 7.5z"/>
    <path class="st1" d="M402.8 730.2l1.8 2.4a11 11 0 0 0 9 4.4c1.2-.2 2.3-.5 3.3-1.1.8-.7 1.3-1.6 1.5-2.7 2.7 1.6 5.4 1.7 8.1-.9-.2-2.8-2.3-3.8-4.4-4.9l-5 2.5-10-2.6-4.3 2.9zM985.6 186.2l1 .1h1c2-1.4 4.5-2.3 5.1-5.1v-4.6c-1.8-2.7-4.7-2.4-7.4-2.5l-12.2-2.4c-1.6 4.5-10.8-.1-9.1 6.4 1 4.1 7-.6 10.5 1.1.3.2.8.2 1.2.2l4.3-.8 3.7-1.4v.1c.9 2.9-.7 6.4 1.9 8.9zM126.8 588.5l-3.5.5a9.2 9.2 0 0 0-6.5-5.6c-9.7.1 1.6 7.9-3 8.7-11.6 2-16 12.7-24.1 18.9-1.1.8-1.3 1.8-.6 3l.5.4-.4 8.9 7.7-.2c2.8-.2 3.7-2.3 4.2-4.6l7.5-2.7.9-9.3-.3-.5c4.3-.9 8.3.6 12.2 2.1l2.7.5 2.6-2.4c1.1-6-2-11.8.1-17.7zm-26.6 29.8c0-.1 0-.1 0 0l1.2.2-1.2-.2zm.9-5.9c.8-1.5 1.3-3.1 2-4.6 1 .3 2.1.3 3.3.1l.2-.1c-.7 2.8-3.3 3.6-5.5 4.6zM306 792.4c.3 7.5 5.5 4.7 9.4 4.5-.5-7.1-4.5-6.6-9.4-4.5zM504.7 598.4a3.2 3.2 0 0 0-3.3 0c-2.2 5.5.7 10.1 2.7 14.8h1.1l1.1-.2c2.1-1.7 2.4-4.1 2-6.6-.7-2.8-1.6-5.7-3.6-8zM444.5 754.8c2.8-2.1 6.5-3.5 7.4-7.6l-7.6 2.2c-1.5 1.9-7.1 4 .2 5.4zM931.2 102.5c2.4-2.2 7-3.7 2.1-7.9-3 .2-5.1 1.4-5.3 4.8l3.2 3.1zM183.9 652.8c0-3.4-2.1-4.7-5.2-4.9l-2.8 2.3 5.1 5.2c3.3 1.7 2.9-.8 2.9-2.6zM345.3 787l-.1-.2.1.2zM920.9 70.1a7 7 0 0 1 1.9-.6l.2-7 5-5.2c.6-5.5-2.7-2.9-5-2.5l-2.6 2.5-.2 4.8c-3.7 3.1-6.9 6 .7 8zM1009.7 164.3c.3.8.3 1.5-.1 2.3l3.2 4.8 4.6-2.6-2.2-4.7c-1.9-2.8-3.8-2.5-5.5.2zM793.2 119.7c.5 1.9 1.2 3.4 3.5 2l7.5-4.8c-1.1-1.9-2.9-2.4-4.9-2.4-3.4.2-5.9 1.4-6.1 5.2zM896.4 394.6l-5.2.5c-1.9 2.9-1.9 4.9 2.4 4.9l2.2 1c4.6-1.7 3.1-4 .6-6.4zM118.9 684.8c-3.1.7-6.3 1.3-6.6 5.5 8.9-.3 8.9-.3 6.6-5.5zM134.5 382.8l4.8-.5 7.1-.3 3-2.3c3.7.3 6.4-.9 7.5-4.7 3.6.3 4.7-1.8 4.7-5l2-.3 5.4-5c-4.6-.6-8-3-12.2-1.7l-5.2-.4-5.5 4.4c-2.2 2.6-6.3 3.7-6.4 8l-3 2.3c.6 2.5-5.3 2.2-2.2 5.5zM500.3 628.6l.9-3.7c-13.1 9.2-13.1 9.2-4.5 19.1l2.3-9.9c1.3.7 2.8.8 4.5.8.1-.6.2-1.1.6-1.6 2-.1 3.9-.3 4.6-2.7l2.8.2c1.9 1.9 4 3.7 7 3l.3-.4.5 2 3.4 2.5c0 .9.1 1.8.5 2.7-3-1-5.2.1-6.7 2.9 3.4 3.9 6.6.9 9.9-.3.3-.7.4-1.3.4-2l6.6-.6v-4.3a6 6 0 0 0-2.8-2.4l-.6-.1c-2.5-3-6.2-3.2-10-3.2-.2-.8-.5-1.6-1.1-2.2l-7.4-2.7-4.9 2.3c-2.6-1.4-4.5-.7-6.3.6zM496.8 660.9l2-.7-4.8-7.4c-1.9 3.7-3.1 7.1 2.8 8.1zM32.3 600.6l.5-2.3c-1.9-3.2-5.2-2.2-8-2.8l-2 .7c2.5 3 5.5 4.8 9.5 4.4zM397.2 690.2c-.1.8 0 1.6.2 2.4 3.7.5 7.4.9 7.1-4.7a9 9 0 0 1-2.3-.3l-5 2.6zM394.7 772.1l.1 2.5c2.5 1.8 5 1.5 7.5.1-1.5-4.1-4.1-4.6-7.6-2.6zM137 692.3c-2.8 1.6-.8 3.4-.2 5.2l4.8.1.1-4.8c-1.4-1.5-3-1.6-4.7-.5zM940.2 351.5c.3 2 3.4 1.5 5.4 1.2l-.1-4.8c-2.5.3-5.7.4-5.3 3.6zM1074.5 139.6c-2.5.2-5.7.4-5.3 3.5.3 2 3.4 1.5 5.4 1.2l-.1-4.7zM792 464.6l-.2 7.2c3.6-1.7 7.1-3.4 2.7-7.9l-2.5.7zM907.9 373.3c2.5.5 4.6-2.7 4.5-7.4-2.2 1.1-3.5 1.4-4.3 2.2-1.7 1.7-3.9 4.5-.2 5.2zM1037 164.9c2.5.5 4.6-2.7 4.5-7.4-2.2 1.1-3.5 1.4-4.3 2.2-1.8 1.6-4 4.4-.2 5.2zM1002.5 457.2c-3.8-.7-5.8 1.6-7.1 4.7.1 1.5 1.7 1.6 2.3 2.6 3.9 0 5.7-2.3 6.2-5.8 0-.4-.9-1.4-1.4-1.5zM331.6 781c-2.2.9-4.8 4.9-3.6 8.3 2.3 5.9 6.1-.3 9.1.7.8 4.2 1.3 8.6 6.3 11.1 2.5-2.9 1.3-6.2 1.4-9.1l.3-4.8-4.5-.5c-1.6-4.3-4.8-7.5-9-5.7zM345.1 787h.2l-.1-.2-.1.2zM464.5 648.3c3 5.2 6.7 2.5 10.3 0h-10.3zM925.6 99.8l-4.5.7c-3.5-.7-7.5-.4-9.4-4.3-2-4-6.6-4.1-7.3-1.5-.7 2.5-7.2 8.2 1.4 10.1.8.6 1.8 1.1 2.7 1.5.3 3.9 4.9 1.9 7 3.4 8.5 2 7.2-6.2 10.1-9.9zM908.1 111.7l-4.7 2.9-2.2.2-2.8 2.4c-.9 1.2-.9 2.3.3 3.4 2.4 1.4 5 1.5 7.6.6 2.1-.9 4.1-2 5-4.1 1.8.6 2.6-.2 2.2-2.4v-2.8c-1.8-.2-3.6-.2-5.4-.2zM637.9 617.9l-4.9.4c-4.5-.9-6.5 7.9-11.9 3l-.9 6.2c-4.7 3.9-7.2-6.1-11.9-1.8l-.4 2.1a14.3 14.3 0 0 1-4.4 2.3c-3.6-3.6-7.2-1.9-11.1 1.2-3.9.1-7.8.3-11.3 2.3l-.3 4.5 3.3-.1c-7.5 5.4-16.1 9.6-24.1 14.4l.9 9.9-7.1-1.4 4.4-6-1.4-1.9 2.8-.7c-2.4-11.7-4.1-12.3-13.5-7.6l-3.8 12.7-8.8-13.4-2.8 1.8-2.1 9.8c3.7-.3 5.7 1.9 7.3 4.6-1.5 1.2-2.9 2.5-4.7 2.5l2 7a21.8 21.8 0 0 1-14.4 5.4l-2.6-.3c-4.2 1.1-8 2.4-6 8.2 1.2 3.5-1.5 4-4 4.5-7.2-4.3-4.4 2.4-5.4 4.9l-2.3-.7c-1.3-.9-2.6-.8-4-.1l-.3.8c-.5-.3-1.1-.6-1.8-.8-.8.1-1.4.3-2.1.6a15.7 15.7 0 0 0-11.4-2.4l-7.9 4.8 1.1.5-.2.2-.9-.7c-3 3.3-6.3-.7-9.4.3-8.7 5.8-1.4 11.5.1 17.3 1.8 1.4 3.4.3 5.1-.4.6 2.1 2.2 3.1 4.9 3l.1-4.7 4.8-.8 4.5 1.2c1.9 2.3 3.7 2.4 5.3-.3 3.9-2.1 7.8 3.3 11.7 0-2.1-1.2-1.6-3.2-1.7-5.1l3-5 .9.2.9-.3c3.4-2.5 6.7 2.4 10.2.2 3.6-2.6.8-5.1 0-7.7l1.6-2.1c2.6 2.9 5.3 3.1 8.2.5l2.3-.9 9.9.1c3.1-2 2.5-5 2.3-8l2.6-2.5v1.4l4.9-3.6.4-3.2.9.2c3.6-1.3 7.8 1 11.1-1.9 4.4-7.3 11.4-4.1 17.5-4.7l-.3.8 11.4 9.2 2.4-1.5-3.4-8.1c4.6-.3 7.8-4.2 11-6.7 4.2-3.4 7.9-6.7 13.7-6.1 3.8 1.9 7 1 8.3-3 .6-1.8-1.8-1.9-3.3-1.8l-4.3 2.5-.2-.7c-1.6-1.5-2.7-3.7-4.7-4.8l.8-.9 1.8-.4c-.3-1.7-.4-3.5-.4-5.3 2.1-3.1 5-5.8 4.7-10l4.8 4.5.1.1-4.1 10.4c5.5.3 10.9.6 14.3-5.1l-5.1-5.4a6 6 0 0 0-.1-1.9c3.2-4.7 8.3 0 11.9-2.4.9 3.1 3.5 4.7 4.2 1 1.1-6.2 3.9-9.7 10.2-10.4-2.2-5.5-6-3.3-8.9-3.9zm-160.1 80.8c1.6 0 3.2.1 4.7-.3l-.2.2a12 12 0 0 0-1.7 4.8 7.9 7.9 0 0 0-2.8-4.7zm63.3-28.4l.7.1-.3.3-.4-.4zm-23.3 13.8l.6 1.2-.8.7.2-1.9zm34.3-29.5l2.5-.8-7.4 4.9-.9-.7c1.2-1.2 3.1-2.3 5.8-3.4zm10.4 8.2a7 7 0 0 1 1.3-.5l-.2.7-1.1-.2zM139.1 404.7zM401.9 660.7l-4.7-3.1c-4-2.9-7.6-2.7-10.7 1.4l-.1.7c-5.5-3.6-9.9-1-14 3.1l.1 4.7c5.6.7 10.3-1.7 14.8-4.6 4.6-.1 7.1 5.5 12.1 4.5l4.7-4.1c-.1-1.3-.8-2.2-2.2-2.6zM214 682.9c-4.1 2.6-7.3 6.6-12.7 6.8v1c-3.2-1.4-5.5.7-8.1 1.7l-1.6-.6c-1.1-.2-2 .2-2.7 1l-5 7.7-.2 2.6c-3.8 3-4.3 7-1.1 10.1 1.4 1.4 5.6 1.2 7.9.2 4.4-1.9 1.6-5.4.6-8.2 2.7-.2 5.7.5 7.5-2.4 1.1-2.2 4.7-2.9 3.7-6.3l-.2-.4c2.4-.6 4.4.5 6.4 1.6 13.3-.9 7.4-8.6 5.5-14.8zM216.4 702.7c1.6 3.1 4.5 2.1 7 2.2l-2.4-7.3-4.6 5.1z"/>
    <path class="st1" d="M957.7 475c-6 1.3-10.7-6.1-17-2.4l-5-3.1c-3 1.8-6.2 2.9-9.8 2.7-.6 1-1.1 2-1.4 2.9a8 8 0 0 0-1.2-3.1c-4.5-.7-8.8-1.2-9.9 4.9l-7 .3c-.3 2.7-1 5.5 2 7.4 2.5.9 3.9-.2 4.7-2.1 1.2.9 2.5 1.5 3.9 1.7a6.1 6.1 0 0 0-1.1 4.4l-1 1.1c-.4 1.5-.3 2.8.9 3.8-2.7 1.3-4.1 3.4-3.8 6.5l.1.2c-.8-1-1.8-1.8-3.4-1.7l-.3.2-.2-1.9-5.8-2.4v-.1c-.1-1-.5-2-1-2.9l-.5.3c.7-2.4.9-4.8-.4-7.1-1.4-7-5.9-2.6-9.3-2.5-.7 2.8-.6 5.4 2.4 6.9l1.5 5.1h1.1l-.4.4-.7-.4-16.2-.1c-2.9-3.1-6.5-2.1-10-2-1.7 5.5-7.1 7.7-10.4 11.8l-4.5-.1c-6.7-5-9.7 1.3-13.9 4.1-.9-.3-1.8-.5-2.9-.4-6.2.7-12.8.3-18 4.9l-5.8 3.9-2.4 2.4-16.9 10.5.4 3c-.4 3.3 1.9 4.1 4.4 4.8.5 1.7 3.1 3.4-.2 5-2.8-.8-5 .6-6.9 2.3-3-1-6.2-2.6-7.4 2.2-1.8 2.9-5 3.5-7.8 4.7l-7.4.5-2.4-.6c-5.6 2.4-6.3 7.7-7.6 12.7l-4.9-2.9.2 1.1-.9.1.7-1.2c-1.7-2.8-1.8-6.7-7.6-4.1-3 1.3-9.6 3.7-12.2-3l-2.3.4-3 2.2-5.7-8.9 15.9-15.7h-2.3l.9-7 1.1-1 5 2.5c6.7-3.1-.8-6.3.1-9.5.1-1.1 0-1.9-.3-2.5 7 5.1 10.6 4.1 14.3-2.7l.8-.1c1.6 1.2 2.9 1.7 4.1 1.7l-3.3 11c3.4-1.9 5.6-5.4 8.1-8.6 2.3-3 4.8-5.9 7.3-8.8l-.4.3.4-7.5h1.3c.6.7 1.3 1.3 1.9 1.7l-3.6 5.8.4-.3a879 879 0 0 1 4.4 15.3l2.5-3.6 11.7-.3c3.2-.2 8.2.4 9-1.1 1.5-3 1.4-7.4.4-10.7-.7-2.2-4.1-3.6-5.8-5l19.9-11.4 1.4.1 4.5-2.6-.9 16.9c11.2-2.4.7-20.4 14.4-18.8l5.5 11.2 3.2-1 .2-18.9-16.8-3.7c6.4-7.9 4.8-16.7-2.5-21.2 1.9-1.4 2-4.6 2.8-7.2 1.1-1.7 1.4-3.4-.4-4.9h-2.3l-2.4-7.6c-2-.5-3.3 5.4-4.7 1.5-3-8.6-6.6-3.5-10.3-1.3-7.5-1.7-6.9-5.4-2.6-10.1 1-2.3 3.1-2 5-2.2 3.5 3.9 8.1 1.8 12.2 2.1 1.7-1.9 3.8-2.2 5.9-2.1l-7.5 4 10.6 9 7.4-9.3 7.8 1.9.7-2.3-11.3-7.5-3.8 2c-.3-5.1 2.5-8.8 6.2-12.1l.2.2c1.5 1.4 2.2 3.3 2.8 5.3a5.1 5.1 0 0 0 3.5 2.9c1.6.3 3.2 0 4.6-.9l.6-1c.8.9 1.7 1.5 2.9 1.7 2.6-.2 5.1-.5 4.4-4.2l-7.5-7c-3.6-5.6-7.9-9.6-15.3-7.5l-7.2-5.2-.2.1.2-.1.5-4.9h3.8c6.2 4.2 12.3 2.6 18.5.6-2.4 8.2 7 10.8 8.7 17.1 3 2.7 4.8 6.2 7.2 9.3l-3.7.7c-2.9.6-4.2 2.4-3.8 5.4l.9 1.4a9 9 0 0 0-3.4 6.5l.1.7-3.9.5c-1.6 1.5-1.4 3-.1 4.6h4.5l.7 1.2c1.2.8 2.5 1.2 3.9 1.4 2.6.2 2 2.4 2.5 3.8l1 1.1c8-3.3 17.8-.3 24.8-6.9 1.2-2.6.6-5.1-.3-7.6-3.9-1-6.9 1.5-10.2 2.8-.6-.3-1.3-.3-2-.2l-14.8-7.4 2.1-.3c2.1-2.2 8.2-.1 8.5-4.3 1.1.1 2.1.3 3.2.3 3.6 0 7.2 1.4 10.8 1 3.9-.4 7.5-1.5 4.8-6.8l-2.3-2.6c-1.7-1.8-3.8-2.2-6.1-2-1 .2-1.9.2-2.7.2.6-1.1 1.9-2 1.4-3.2a5.9 5.9 0 0 0-2.4-2c-1.4-.5-2.8-.7-4.1.1l-.2-.5c-2-2.7-2.3-5.7-1.6-8.8a8 8 0 0 0-1.3-4.8c-4.6-4.8-11-4.4-16.8-5.4-1.2.1-2.4.4-3.5 1l-.5.6-12-2.4c-1.5-2.6-3.8-1.7-6-1.4l4.9-2.8 2.8-1.2.6.1v-.4c4.9-2.1 9.7-4.2 14.5-6.5l.8.7c.7.2 1.4.3 2.2.3.8 3.6 3.8 3.4 6.8 3.3 1.3-.3 2.3-1 3.1-2.1l.2-1.8c1.6-1.3 2.2-3 1.9-5.1l-4-.7c5.4-2.8 10.9-5.6 16.2-8.5l.3-.6-.3 1.6-4.3 5.5-2.4 2.5-.2 4.9c3.6.2 7.4.8 7.2-4.7l2.8-5.2 5.4 3c1.5-.1 3.6 5.2 4.3 0 .4-3.5 1-7.8-2.2-11-1.5-.2-3-1.2-4.4-1.4 1.3-1 2.2-2.4 2.1-4.8-5.5 3.5-10.3 5.3-8.6-4.3l.5-1.5c3.3-2.4 6.9-4.3 10.9-5.2 3.1-.4 5.7-1.6 7.1-4.6 2.5-.4 4.6-1.4 6.4-3.2l1.6.6c5.8-3.6 10.9-8.4 17.8-10l2.7-2.6c2.7.2 4.1-2.6 6.4-3.2l3.3-4.2 34.5-21.5-1.1-1.6-6.3 2c-.9-2.9 4.8-3.2 2-6.3-3.2.9-6.9.4-9.2 3.5l-.5 1a24.9 24.9 0 0 0-11.5 6.7l-.8-.5c-2-.8-3.8-.4-5.5.4 1.6-4 7.1-3.2 9.9-5.8 1.7-1.6 6.3-2 1.6-5.4l-28.6 15.1-1.6-.4.9-.5c1-.7 2-1.5 2.3-2.6h.8a45 45 0 0 0 23.5-12.5c.2-1.3.1-2.4-1.7-2.3a47 47 0 0 1-3.7.5 80.4 80.4 0 0 1-18.6 9.1c1.4-4.4 6.2-3.4 7.5-7.1-4.9-.2-8.1 3.9-12.5 4.2l-13.5 7.8-2.1-2.3c5.3-3.1 5.3-10.7 12.2-12.9 6.2-2 7.2-10.2 12.8-13.5l-1.8-1.6-14.5 5.8c-1.1.4-2.3 0-3.3.4-1.7 1.1-4.1 1.7-3.4 4.4l-.3-.2-1.1-.2c-6.8 3.4-15.2 3.9-20.2 10.8l-.2-.1c-2.6-.3-2.3-5-5.8-3.8-3.3-1.6-1.2-2.7-.2-4.9 1.9-4.1 9.1-2.4 8.4-8.4l-1.6-.5c-1.3-1.8-1.5-5.2-5.1-3.9-.3.1-.8-1.4.2-.9a87.6 87.6 0 0 0 21.7-12.7c.3-1.8.5-3.6-2.2-3.3a84 84 0 0 0-34.9 9.9c-2.9 1.7-6.1 4.1-10.3 2.6 1.5-3.4 4.9-3.9 7.5-5 3.6-1.6 2.8-3.6 1.7-5.7 1.2-1.1 2-2.1 2.3-3.1l.7-.5h1.5c3.2.2 6-1.3 8.8-2.6 5.3-3.1 11.8-4.3 15.4-9.9.2-1.3.1-2.4-1.6-2.3l-3.8.5c-1.6 0-3.2.4-4.6 1l-.3-.1c1.3-.9 2.6-1.9 3.8-3.1l.1-.3c3.3-.3 6.5-.7 9.1-3.1 3.3 6.1 9.6 4.1 14.8 5.1 5.1-5.2-2-5.2-3.3-7.7-1-1.8-.1-4.3-2.1-5.7 2.4.6 4.8 1.5 7.2.2l2.7-2.1c.5-.8.5-1.6.2-2.4 2.6-.3 3.8 1.3 5 2.9a8 8 0 0 0 1 3.2c2.5 2.9 5.5 2.9 8.7 1.3l2.4-2.7c5.9 1.3 10.5-1.7 15-4.8 6-.9 8.4-6.6 12.8-9.5l1.9-.5.2-4.9c-.3-4.9-4.2-7.1-7.6-9.6.3-3.9-1.5-6.3-4.9-7.8l-2.9 4.6c-2.9.2-6.9 1.1-5 4.5 1.5 2.7 5.9 2.1 8.4-1l2.3 1.9-.6 7c-3.3-1.2-6.5-2-9.6.4-1.7-.7-3.6 2.4-5.3-.1.6-9.8-2.9-12.9-11.7-7.1l4.2 7.3.5 7.3-2.3-.2c-4.4-5.2-8.7.5-13 .2-.6-4.6-2.9-5.3-5.6-5.3.8-.6 1.5-1.3 2.1-2.1l6.5-3.2 4.9-3.4c.4-1.5.5-2.9-.6-4.1l-10.1 3.9c-7.1 1.3-13.2 5-19.5 8.2-1.3.9-2.5 1.9-2.6 3.7v.1c-6.6 2.7-13.3 5-19.7 8.1a19 19 0 0 0-4.9-9.4l-8.1 2.5c-2.9.1-5.6.9-7.2 3.6-.1.5-.2.9-.1 1.4a12.7 12.7 0 0 1-12.1 2.4c3.6-4.2.7-9.8 3.1-14.2l1.1-1.3v-.1l.6.2c1 .1 1.9 0 2.8-.2l2.5 1.6 9.6-.2c.6-4.3-2.8-4.3-5.3-5.3l1.3-.6c2.5-1.5 4.4-3.7 6.6-5.6l5.4-3.1.7.4a6 6 0 0 0 4.4-.1c1.7-.9 2.9-2.2 4-3.7 1.4-.8 2.7-1.5 3.3-3.1 4.2.7 7.5-1.2 10.8-3.1.3.8.7 1.6 1.4 2.3l2.4-.3c4.2-1.8 8.2 3.7 12.4.2l2.5-.1c1.8-.9 5.4 1.4 5.4-2.1 0-2.7-3.3-2.8-5.6-3.2l-2.4-2c-2.3-.3-4.6-1-6.9-1.3l1.4-1.5 6.1-3.4.5.7c3.9.6 6.1-2.3 8.6-4.4 6.8-4.4 13.9-8.1 21.5-11l14.1-9.1c9.5-3.2 18.2-8.2 26.6-13.6 7.6-2.8 14.3-7.2 21.3-11.2.9-2.7-.6-3-2.7-2.6-10.4 5.2-21.8 8.1-31.8 14.1-4.9 2.3-11.3 2-14.6 7.1l-.9.2c-10.9 1.9-18.7 10.4-28.8 14-8.2 4.1-16.4 7.9-24.6 12.1-2.9 1.4-6.4 2.4-6.4 6.7l.2.3c-7.4 3.8-15.8 5.5-22.9 10-.8 1-.5 1.8.2 2.5l-3.4 1.8-6.5 3.2c-1.4-.6-2.7-.7-3.9.3-2.1-.9-4.9-.8-5.7-3.7l11.3-6.8-3.7-4.8 4.9-3.5 5.9-1.8 5-3.5c9.1-2.6 16-9 24.2-13.2 4.1-1.5 8-3.6 11.7-5.8.7.2 1.4.2 2.1.2l-.1 3.7 9.9-.7 4.8-.2 2.7-2c2.6-3.4 2.6-6.7 0-10h-2.5c-2.5 1-4.8 2.3-6 4.7-.9-.7-1.7-.9-2.4-.9l4.1-2.2.6-1.6-7.9 3.2c-.9-2.6-3.5-3.9-6.3-4.9-3.2-.1-6.9-1-6.8 4.2l5.3 4.4c-3.5 1.8-6.9 3.6-10.2 5.7-7.2-3.6-12.3 1.3-17.7 4.5-.9-7.7 9-6.3 10.5-11.9l2.2 2.2c2.3.1 4.3-.5 5.4-2.7-2.8-3.2-6.4-1.9-9.8-2 3.1-1.7 5.3-4.7 7.7-7.4 1.3-2.4 2.3-5 2.8-7.7.5-2.5.6-5.2-3.5-4.5l-1.5.7-3.2-1.2a3 3 0 0 0-.5-2.7c3.2-2.5 6.2-5.1 9.1-7.9 4.4-1.3 7.5-4.6 11.3-6.9.7-2.1 0-3.5-2.1-4.3 4.3-3.5 8.9-6.5 14-8.9 2.5-1.2 6.1-1.8 5.4-6l-1.4-.4-20.8 12.2-1.4-.3c-4.1 4.1-10.5 4.7-14.3 9.1l-5.7 1.9a64.2 64.2 0 0 1-16.9 8.6l-1.5 2.7-11.6 5.3c-2.4.1-4.1 1.7-6.1 2.9v.1c-3.9 2-7.7 4.2-11.2 6.9a48.9 48.9 0 0 0-11 5.4c-.9-2.4-3.6-3.4-5.3-5.2-.7-1-1.5-1.1-2.4-.3-5.9.8-7.6 5.8-9.9 10.2.7.9 1.5 1.5 2.6 1.9 1.3.2 2.5.3 3.8.3l-7.4 2.8-.5 1.6-6.7 2.9c-3.9-2.7-7.8-1.9-11.6.8h-2.2l-7.7-.4c-3.5.4-5.5 3.1-8 5l-.2 2c-4.2 1-10.2-2.8-12 4.5-3.3 2-7.9 1.4-10.2 5.2l-4.5 2.8-5.5.5.9-.4 16.5-8.1c1.8-.9 4.8-1.4 2.8-4.6l-1.6-.6c-1.3-1.5-1.1-4.2-3.7-4.8l-4.3 2c-.7.3-1.2.9-1.7 1.5l-.1.3-2.4.3v-.1c2.6-1.3 5.2-2.9 7.3-5l4.6-5.1 4.5.2c6.7-2.3 4.3-8.3 5.2-12.9l2.1-2.2c1 .6 2 .5 2.9-.2l15-4.7c2 1.5 4.2 2.1 6.6 1.2 3.2-1.6 5.9-3.8 9-5.5 4.2-2.2 1.1-4.4-.5-6.4l-2.7-2.1a17.5 17.5 0 0 0-10.5-3.6l-.4-.7c-1.7-1.8-1.8-4.3-2.6-6.5-.8-1.4-1.8-2.4-3.6-2.3-3.3.9-7.4.2-7.7 5.8-.3 5.7-3.4 4.3-6.3 3.1l.3-1.4c-1.2-5.2-4.1-10.7 1.3-15 1.2 2.8 3.7 2.7 6.2 2.5 3.7-1.4 7.1-3.3 10.4-5.5l-.2.9.9 1.1-.1 1.3c1.6 2.6-.7 6 1.8 8.3a5.8 5.8 0 0 0 5.1.8 7 7 0 0 0 3.7-3.7l.1-.5 1 .2.1 1.1c2.2 3.1 4.4 6.3 8.5 5l-.4 2.2c-.1 1.1 0 2.2.2 3.3.7 1.9 1.2 3.9 3.4 3.8a11 11 0 0 0-2.5 7.4c.5 2.8 1.4 5.3 3.8 7l4.1-2.6c2.7-1.4 3-4.4 4.4-6.6 1-4.8-1.5-6.3-5-6.6l3.4-2c.1 2.1 1.6 3.6 2.9 5.2l4.9.4c3.9-2.5 1-5 .1-7.5-3.6-1.7.4-3.3 0-4.9a15 15 0 0 1 2.1-.2 9.3 9.3 0 0 0 1.4-6.8c3.9.8 6.4 5.8 11.1 4.2 3.1-8 12.2-4.7 17.2-9.1 4.8 4.5 5.7-5.9 10.2-2.7l-.3-1.3.4-.2-.2 1.4c5.8 6.1 11.4-5.4 17.2-.3l20-7.2 9.9-.1c2.5-7.1-7.8-6.6-7.5-12.4-1.7-1.5-3.4-1.4-5.2-.4l-.9-2.3c1.1-2.7-1-4.6-1.7-6.8l-2.1-.6-4.8 5.5c-.7.9-.8 1.9-.1 2.9 1.4 1 2.9 1.4 4.5 1.3-1.7.7-3.6 1.1-4.9 2.4-.7-2-2.3-2.9-4.5-3a9.1 9.1 0 0 0-5.7 3.2l-.1.3c-1.4-1.3-2.9-1.5-4.7-.5l-2.4 2.5-9.8.4-2.7 2.3c-2-.1-3.9-.5-4.9-2.5.1-2.6.8-5.3-1.5-7.4.7-1.7.6-3.3-.7-4.8-1.7-3.1 6.1-8.8-2.6-10.1-13 4.3-25.3 10.1-37.2 17 .2.5.5.8.8 1.2l-1 .1a2 2 0 0 1 .2-1.3c-9.6.4-17.4 5.6-25.4 10.1l-4.3.6a32.1 32.1 0 0 1-24.9 7.2c-1 .8-1.1 1.4-.6 1.9-3.1 1-6.2 2.3-9.4 2.8l-2.6 2.5-7.2 2.6c-4.9 3.2-2.3 6.3.2 9.3a14 14 0 0 0 4.8 4.3c1.6.5 3.1.5 4.7-.2.6-.5 1-1 1.2-1.6.9-.2 1.7-.4 2.6-.4.4.9.7 1.8.7 3 .3 2.4.6 4.8 1.9 6.9-2.9-1.7-5.8-1.5-8.7.2l-.2.3-2.2-1.8.2-5.4c-2.1.3-4.1.7-5.1 2.9l-2.5-.1.1-.1h-.4c.8-2.7-4.5-5.6-.1-8.2.3-2.6 0-4.9-2.2-6.7l-12.4 7.6-2.2.3c-1.9 1.7-4.7 2.4-6.1 4.7-1.2-1.2-2.6-1.3-4.2-.3l-7.1.9-7.6 2.1-.5-1.9c-4.3 4-7.4 9.8-14.1 10.7l-12.6 6c-4.3-.1-6.4 3.5-9.5 5.4-1.7.8-2.1 2.4-2.1 4.1.3 2.8-.6 5.9 1.4 8.2-.6.7-.9 1.5-1 2.4.1.7.3 1.4.6 2-1.6-.1-2.2.9-2.2 2.5h.1l-7 .1c-.2.6-.4 1.2-.4 1.8l-2 .7h-5l-4.5 4.6v-.1c-4.8-1.8-6.7-4.7-5-9.2 1.6 1.2 3.3 1 5 0 .6-1 .8-2 .7-2.9a12 12 0 0 0 6.2 3c4 .3 8.5 1.2 7.6-5.4v-7.4c-1.2-2.1-3.2-2.6-5.3-2.9l-9.9 10c-3.3.1-7-.7-9.2 2.9a5.4 5.4 0 0 1-5.3 2.1c-5.5-.1-10.2 1.6-13.4 6.4-.1.8-.1 1.6.1 2.3l-1.7 1.4c-2.5 1.7-4.7 3.5-3 6.9-2.8-2.2-9.3 2.8-9.4-4.4l-5.4 2.4 1.2.5c-4.6 3.5-11.3.4-15.6 4.8l.2-.8c-3.7 3-7.9 3.4-12.4 2.7l.1-2.3h.2a14 14 0 0 0 3.4-1.3l.6-.4c5.4 2.9 7.9-1.4 10.2-6.3l.2-6.2h.1c.5-.5.9-1.1 1.2-1.8 2.6 1.9 5.6 2.9 8.7 3.5 2.5.3 4.8.1 7-1.1l1-1.1c.5.5 1.2.6 2 .3 2.5-2.8 7.6-1.8 9.8-5l2.2.2c4.1-.4 8.8.4 10.8-4.3.8-.2 1.5-.5 2.1-1l5.1-5-1.8-1.9.3-.1c3.6-2.7 7.4-5 11.5-7 1.8-1.4 3-3.2 2.8-5.5a5.2 5.2 0 0 0 4.6 1.6l1.2.1 1.2 1.1c2.6 1.1 4.9.9 7-1.1 4-2.7 7.7-5.6 10-10 .9-.7 1-1.5.7-2.5 4.2-1.2 9.2-1.3 9.9-7.3l1.8-2.1c.9.6 1.9.7 2.9.2l9.8-.7 4.7-5.1.6-2.1c-7.3-3.5-11.5 4.6-17.8 4.7l.2.3c-4.3-.1-8.6-.2-12.4-2.6-.3 6.1-7.6 8.5-7.5 14.8h-2.5c-1.6-1.5-3.2-1.2-4.6.3l-5.5 2.4-4.9-7.2c-4.1 1.2-4.2 8.2-10 6.8l.4.9c-5 1.1-9.8 2.7-12.9 7.2-2.5.3-5.6-1.1-7.2 2.1l-2.1.3c-2.4.9-4.1 2.4-4.6 4.9l-7.9 2.6-5.2-3-2.5 2.5-4.2.4-2.7 2.6c-5.7-.4-9 4-13.1 6.8l-2 .3 1.9 7 .8.8v.1l-.8-.8c-5.7-1.2-11.4-5.1-16.9.5-2.5 0-4.9.4-6.2 3v.3l-6.1 3c-4.4 6.9-16.6 5-17.8 15.6a3 3 0 0 1-2.3.3l.1.1c-.7.6-1 1.3-1.3 2.1-4.8.1-9.9-.1-10.8 5.9-2.4-1.1-5.2-1.2-7.6-2.1-2.3 1.3-6.9 1.3-2.7 5.9 4.7 5.3-2.7.9-2.4 2.8-4-2-7.4-1.4-9.9 2.4-5.8-2.1-11.5 4.3-17.3 0l-2.6.6-2.5-.6c.4-1 .8-2 .7-3.1l1.4.5c2.4.5 4.8.4 7.1-.6 3.5-2 5.7-4.5 4.3-8.9a20 20 0 0 0-3.8-3.3l.9-.1.6-.3 1.5 1.2h4.8c7.7 6.4 10-3.9 15.3-4.9l-.3-2.6.2-2.1c1.9-.4 4.2-.2 4.6-2.9.3-4.7 1.8-7.6 6.7-5l-.1 1.7c9.9 11.7 11.4-3 16.8-5.4l.2-.4c1.3.5 2.6.8 3.8-.6l7-.5.5-5.3.9.4c3.7 1 7.4 1.2 11.1.7 4-.5 6.9-2.8 9.2-6l1.2-1.8h2c3.3-2.7 9.2-1.1 10.7-6.6 2.2.6 4 .6 4.4-1.9 1.9.3 3.5-.1 4.7-2l.2-1.4c.7.3 1.5.6 2.3.5 4.3-.9 5.1-5.3 7.9-7.8.5-.6 1.1-.9 1.8-.8 1.8-1.2 4-1 5.9-1.6l.5-.2c2.1 1.2 4.2.7 6.4-.3l7.3-.3a4 4 0 0 0 .2-2.4l2.3-4.9c-2.2-.8-4.5 2.1-6.8.6h.1c2.8-1.6 4.8-3.8 5.5-7 3.6 1.2 6.2-1.7 9.1-2.9l6.4-1.3.6-1.9c5.5.7 9.6-.7 10.4-7 .7 0 1.4-.1 2-.4 6.1 1.4 11.3-3.9 17.4-2.2l2.5-2.7 7.3-.1c3.9-5.4 5.4-13.6 14.7-12.6 4-2.6 4.1-5.2-.9-5.7-7-.8-14.3-1.7-21.2 1.2l-5.3 4.2c-2.7.4-5.6.3-7.5 2.9-.7 0-1.4.2-2 .6-4 .1-7.8.7-10.1 4.5l-4.6.5-.5 6.8c-3.8 2.9-10.1 2-12.3 7.5l-9.8.2-2.6 2.5-9.8 3.2c-5.7.8-7.4 7.3-12.6 8.9-9.7.4-17.6 5.3-25.6 10a5 5 0 0 1 1.7.2l-.1.5a3 3 0 0 0-1.6-.8l-19 10c-6.9 1.6-13.6 3.6-18.1 9.6-9.5 0-16.4 5.9-23.9 10.3l-20 10.1c-7.8.9-13.1 6.6-19.7 9.9-5.4 1.6-11.7 2.1-13.6 9a72.3 72.3 0 0 0-33.3 18.2l-2.8 2.6c-7.4-1.5-12.8 1.9-17.5 7a39 39 0 0 0-20.4 9.6c-3.5 1.1-7.5 1.4-9.5 5.2-.8-.1-1.5.1-2.2.5-3.4.1-6.2 1.3-7.9 4.4l-2.6 2.4a26.5 26.5 0 0 0-14.8 12.5l-17.3 7.6a72.4 72.4 0 0 0-20.1 9.9c-1.8 4.5-7.9 3.3-9.9 7.5-2.5.3-5.1.5-6.8 2.8l-15.1 7.2c-5.8-.2-8.1 5.4-12.4 7.6-3 1.5-4.1 4.5-5.4 7.2l-7 .3-2.4.2c-4 1.9-4.5 6.3-6.9 9.3l-.3.8c-3.9 1.5-7.2 4-10.3 6.8l-8 2.3-4.4.6c-6.8.4-10.3 7.4-16.5 9l-1.9.4c-8.9-2.5-8.2 8.4-14 10.2-6.2 4.1-16.5 0-20 9.7-6.5-.5-12.1.8-14.9 7.6-6.1.7-6.6 5.4-4.6 9 2.3 4.3 6.9 1.7 9.7-.1 3.7-2.4 6.6-5.9 9.8-8.9l7.8-4.7 7 2.1c2.4-1.8 5.4.1 7.9-1.5v-.8c4.8.2 9.3-.3 10.4-5.7 1.1.2 2.3.2 3.4.1 4.6-1.1 9.3-1.9 11.7-6.9l-.1-.7 6.9-6.1c2.7 3.4 4.9 0 7.4-.5a7 7 0 0 0 2.1-5.4 9 9 0 0 0 6.2 2.3c1.9-.8 5.2-.6 3.8-3.8 1.4-.5 2-1.8 2.8-2.8-.5-2 3-2 3.2-3.7 2.4-.5 4.8-.9 7.2-1.1 1.7-.1 3.4-.4 5-1.1 1.6-.8 2.7-2 3.2-3.8 0-.8-.1-1.6-.3-2.2 1-1.4 2.5-2.1 4-2.6 2.1.1 4.2-.1 6.4-.6 4.4-1.3 6.7-4.4 7.4-8.8l-.1-.4c2.7.7 5.6.5 8.4.4a20 20 0 0 0 5.7-2.3 17 17 0 0 1 4-2.1c-1.2 1.7-2 4-4.6 3.6-3.1 1.6-2.1 4.5-2.4 7-.7.3-1.5.4-2.3.3-.3 6.7-5.4 4.7-9.2 5-.5 5.3-6.9 5.2-8.5 9.4.1.8.5 1.4 1.1 1.9-1.5-1.2-2.7-.8-3.6.7-1.7 1.9-4.8 2.3-5.6 5.2-.5 0-.9.1-1.4.3l-.6-1.2a15 15 0 0 0-3.7-.4 25 25 0 0 0-23.3 8.3l-2.4 5.4-5 5-7.6 2.2-7.1.6-.1 2.2-10.3 6.9-7 3.1a3 3 0 0 0-.4 1.6c-5 4-16.5 1-14.1 13.1l12.1 2.7c1 .7 2.1.7 3.1-.1.5-.7.8-1.4 1.1-2.1 7.5 3.6 6.7-4.1 8.4-8.3 1.3 3.5 4.8 2.6 8 2.2a6.5 6.5 0 0 0 2.8-2.1c.7-7.7 8.4-6.8 12.5-10.4.9-2.1 1-4.2-.2-6.3l-.5-.4 3.4-.8 1.4 1.6c2 2.4 4.2 3.7 7.2 1.9 5.6.2 8.9-2.4 9.9-7.9l1.1.2 1.1-.1c.1-3.2 2.4-6.4-.2-9.5.5-5 4.1-5.5 8-5.3 2.1 3.6 2.4 8.3 6.9 10.2v6.7l-1.1.5-.2-.2-1.3-.8-11.9 10.3-.2-.1c-2.5-.3-4.3.9-5.7 2.8-2 2 .2 11.7-7.2 4a7.3 7.3 0 0 0-6.6.3 5.7 5.7 0 0 0-1.9 4.6l.1.4c-3.2-1.8-6.6-.7-9.9.6-2.6 1.5-5.2 3-4.2 6.2a8 8 0 0 0-2.1 1.5v1l-2.3 1.3-4.7.8c-2.6 7.7 4.4 5.3 7.4 7l.1-1.1c1.1.2 2.1 0 3.1-.3l.1.2-.3.6c-.7 2-1.1 4.1-2.5 5.8-.9-.7-2-1.2-3.2-1.5-2.4-.2-4.4 0-5.1 2.8v.2a2 2 0 0 0-.9-.5 4.7 4.7 0 0 0-4.4 1c-2 2.6-2.3 6.3-4.8 8.7a27 27 0 0 1-5.1 4.5c-4.7-7.4-5-7.1-9.4-3.1 1.1 2.2 4.2 3 4.8 5.6a8 8 0 0 0-2.5 1.5l-7.8 2.8-1.5-.9a9.6 9.6 0 0 0-3.4-.3l-.2.1c-2.5-2.3-7.4-.2-9.1-3.9l-2.5 2.8c-1.1 1.1-1.3 2.3-.9 3.5-2.6 1-4.6 2.4-4.5 5.6l.5.6h-.1l.1.4c-.5-.4-1-.7-1.8-.7-1.7 1.1-2 2.9-2.5 4.6.7 11 6.9 13.3 16.5 10.3l3-4.1c6.6-2 13.1-4.2 17.1-10.4l-.1-2.5c2.1-3 10.5 1.9 8.3-6.6 12.5 3.7 7.4-9.4 12.3-12.9.7.1 1.3 0 2-.2 6.1 0 12.7.9 15.2-6.9l9.4-.7-2.4-7.4h.1l-.1-.1 4.9-2.7 7.5.1-3.6 2c-2.4.8-6.7.9-5.4 4.2 1.2 3.2 4.9 2.5 7.5.1.8 4.3-5.5 6.2-4 10.7-1.6 0-3.1.7-4.5 1.4l-4.9 2.4c-3.3 1.5-5.9 4.1-9.2 5.7-3.3 2.9-8.3 3.5-10.6 7.8l-1.9 1.5-3.8.3-7 4.7c-.1-.1-.4.1-.7.4-.3.3-.3.8 0 1.4h.1l-.5 1.2-8 2.7-.6 1.5-1.6.7c-6.7 5.3-15.4 7.7-20.9 14.8-.1 1.3.2 2.4 1.8 2.4l8.6-4.3c5.7-3.7 12.2-5.9 18-9.6l1.4.2c1.3-.5 1.8-1.5 1.9-2.8l-.1-.6a63 63 0 0 1 16.8-7.9c.6-.4 1.2-.9 1.6-1.6a9 9 0 0 1 1.1-1.6c3.9-2 8.3-2.6 12.2-4.4 5.6-.7 10.7-2.8 15.6-5.2-.8 1.1-1.5 2.4-2 3.9-4.8-1.2-7.2 2.6-10.2 5l-7 2.9c-5.9 2-7.3 5.3-2.9 10.2 2.9.8 4.5-.4 5.2-3.2 1.9-2.7 4.7-1.8 7.3-1.8l.7 2.3c-.2 1.9.2 3 .8 3.6l-1.2.6a47 47 0 0 1-3.7.5l-.6 1.6c-2.2 4-1.4 8.1.4 11.8 2.1 4.2 1 6.1-3.3 6.9-3.3.2-4.9 2.9-7 4.7-2.2 3.4-1.2 4.4 2.5 3.4 8.3-2.3 16.9-2.6 25.3-4.5 4-.9 8.3-1.4 11.1-5 .2-.8.2-1.5 0-2.2l4.7-3.4 3.7-.6c5.2 3.3 6.3 6.8 1.1 10.7-2.2-.1-4.1 1.3-4.7 6.4l-1.7 2.4c-.4-.4-.9-.8-1.6-1-4.8-2-9.3-1.7-13.6 1.3a16 16 0 0 0-.5 2.1l-4.5.3c-1.9 1.5-2.1 3.7-2.1 5.9.2.4.3.9.3 1.4l-.7-.1c-2.5 4.1-6 7.3-10.1 9.8h-.1l-4.6-2.1-2.5-5-12-.3c-.8-1-2-1-3.1-1.2l.1-.1a7 7 0 0 0 1.9-5.4c2.1-.3 3.4-2.2 4.9-3.6 1-1.3 1.8-2.6.8-4.3l-5.1-2.5-2.5 2.6c-1.2 1.3-1.4 2.6-.6 3.9-4-1.5-7.6.5-11.4 1.7-.2.7-.5 1.2-1 1.7-2.1 2-6.7 2.1-5.4 6.8l.7.8c-1 .4-1.4 1.7-2.2 2.3l.2 4.8c4.2-1.9 10.4 0 12.5-6.2l1.6.2 1-.2 1.9 3.8-5.1 4.6-7 2.9-2.6-1-9.5 1.4c-.1 1.9-.7 3.8 1.4 5.1 2.2 2.6 5.3 1.9 8.1 2.2l2.5 2.4-2.8 2.9-12.6-4.2c-.4-.5-.8-.9-1.1-1.5-1.2-.7-2.2-.4-3 .7l-5.3 4.5c-.9 1.1-1.1 2.2-.5 3.5l.5.7c-.8 3.9-.8 8-2.3 11.6-1 .5-1.9 1.1-2.9 1.8-.7.7-1.6 1.3-2.4 1.8l-2.3 2.8c-4 .2-7 2.6-10.1 4.8-6.8.1-11.4 2.5-10.5 10.4l.3 1.8c-5.3 4.2 1.6 8.4-.1 12.6-.7-.1-1.3.1-1.9.4-2.2-.5-3.8.5-5.2 2 3.3 6-10.5 6.3-4.5 13.2a4 4 0 0 0 2.8.8c1.9-.4 3.5-1.6 5.4-2.1 2.2.3 4.1 1.8 6.4 1.7.3 3.1.7 6.2 3 8.6l6.9-2c2.3.3 3.7-1.1 4.9-2.7 3.7-3 7.1-6.6 12.1-7.6 1.2-4.1.8-7.1-4.6-7-1.5-.6-3.1-1-4.5-.8 1.5-.6 3.4-.6 4.5-1.9l7.3-.4c4.6-3.8 12.8 1.2 15.8-6.5l6.7-.5 5 .1c.6-4.1 2.3-7.2 7.2-7l4.9 1.5 2.3-2.1 2.5-2.8c3.4-.6 6.5-3.4 10.3-1.3l-.1-1.4c5.1 1.8 5.8-5.4 10.2-4.9-.2 4.6 1 9.4-2.1 13.4l-3.3 4.1-13.5 3.7-1-1.2c-5.9 1.3-14.3-.6-12.9 10-1.9.2-3.7.5-4.6 2.5-5-2.8-7.4 5-12.2 2.9l-.4 1.9c-2.8-.3-5.4.2-7.1 2.8-6.9 0-8.1 7-12.3 10.2-9.5-1.3-14.3 7.7-22 10.3 2.7 3 6.3 1.9 9.6 1.9 2.9.6 5.7.5 8.2-1v.2l.4.9c-3.6 0-6.7 1.2-8.5 5l-8.2 4.8c.6 2 .6 4.2 2.9 5.3l.4 2.1c5.3 2.8 5.3-5.5 9.6-4.7l2.5 1.5c2.7 4.9-.6 14.3 10 13.2l2.6-2.4c2.2-3.1.1-6.3.1-9.5l-.8-1.1.3-.3.5 1.4c4.7-3.2 8.7-1.8 12.4 1.8l7.1 8-7.2 4.5c-3-2-5.5-6.4-10-2.5l.6 11.9c1.3 2.4 3.3 2.2 5.2 1.9a3 3 0 0 1-.8.4l-4.2 2.1-3.8 5.2c3.3 1.3 5.3-2.9 8.6-.7-4.2 3.9-10.8 4.2-14.9 9.9 5.9.5 10.1-3 14.8-1.9 6.2-2.7 13.5-2.9 18.9-7.8 4.3-2.2 10-1.3 13-6.2l3.6-.6L211 616c.2 4.5 1.5 9.3-2.7 12.7l-2.4 2.5-1.8.3c-2.1.8-2.2 2.7-2.4 4.5v.2l-5.8 2.6c3.4 1.4-8 12.6 5 7.5l5 6.2v-11c2.5-1.5 4.8-2.4 5.3 1.8l1.9.7c3.4-2.1-.4-4.7.5-6.9l2.1-1c3.4-4.7 8.6 0 12.5-2.2 2.5-1.7 4.9-1.9 7.4 0 3.3-4.4 9.5-.6 13.1-4.5l4-.6.4-4.4 4.7-.5 1.9-9.3c-1.2-1.4-2.4-1.6-3.6-.7v-.2c-.6-4.8-8.7-1.5-8.4-7.3l5.3-.8 2.5 1.4 7.6 4.6c.8 0 1.6.1 2.4.4l2.5-.5.1-5.3c7.1-6.1 15.8-7.2 25.1-7.7-3.2-2.1-6.4-3.5-8.1-6.8 2.3-2.6 7.3-3 8.1-6.9 1.3 0 2.5-.1 3.7-.3 2.9 1.1 5.8 0 8.6-1.8 4.2-1.2 8.4-2.8 12.6-4.2 3.6 2.1 7.3 4.1 10.9-1.4v-.3c1.5.2 2.8.9 3.6 2.5l-2.8 1.7c-2-.2-2.7.7-3.2 1.9l-1.1.7c-4.6.6-7.4 4.2-11 6.6l-1.3-.8c-2.2-.2-3.6 1.2-4.9 2.6l-2.1 1c.7 3.6-2.3 5.6-3.7 7.5l4.7 1.2c-5 1.1-7.2 9.4-14.1 5.2 0 4.7 2.8 6.7 7.2 7.1a12.5 12.5 0 0 0-5.1 12.1c-2.7.5-5.8.2-7.2 2.6-3.4-.9-6.7-2.5-10.1.1l-2.3 2.2-.6-.7c-5.8-2.3-8.1 1.1-9.7 5.8l-12.4 10c4.9 2.5 8.5 14.2 15.6 2.3l7.3 5-.5 5.1c-8.2.9-12.9 3.8-7.2 12.6l-.1 2.6c-4.1-1-8.9 1.5-12.5-2.4l-2.6-2.7c1.5-5.3-2.6-8.5-4.8-12.3l-2.6-2.8c-2.8.5-4.7 2-5.1 5l-2.5 2.1-2-.1c.6 4.6-1.6 7.9-4.9 10.8l-2.7-.1c-2.6 2.9-7.2 1.7-9.8 4.6a9.2 9.2 0 0 0 5 5.6l7.8-.8c10.8-.5 6.5 5.4 4.5 10.4.3 5.6-8.5 5.8-7.1 12 4.6 3.8 8.8 6.5 9.9-2.7 4.6-.7 7.3 2.2 9.8 5.4l.6-.5.2.1-.7.5c-3.1 4.4-2 7.1 3.4 6.9 3.8-.2 7.5-1.4 11.3-2.2l2.6.6c3.2-1.4 7.3 1 10.1-2.3 9.8 1.1 11.8-8 17.1-12.9a582 582 0 0 0 7.3-2.7l2.5.3c2.8-2.1.4-9.7 7.5-7.2a6 6 0 0 1 1.9-.6 7.5 7.5 0 0 0 3.9-4.1v-.5l4 .1.6.5c.7.7 1.4 1.2 2.2 1.7l1.6-.1c.2-5.6 5.7-2.4 7.8-4.8 2.3-2 5.5.2 7.8-1.7.6-1 .8-2 .7-3.2a9.8 9.8 0 0 0-2.3-3.4 7.9 7.9 0 0 0 1.6-4v-.3c3.2-1 6.4-2.9 9.7.1l2.9-1.9h1.1l1.1-.3c6.9 1.7 6.9-4.9 9.8-8 .6 1.7.4 5.1 2.4 4.3 3-1.3-1.1-4.5.2-6.8h4.6l7.2-9.4.8-2.3c6.6-2.3 15.4 1 19.3-7.9 1.1-2 .4-3.4-.8-4.6l.9-.2 10.5.2-1.8-4.7c-1.7-6.1-1.1-10 6.7-7.3h1.1l1.1-.2 4.7.3c2.1 2.5 4.8 2.4 7.6 1.7l2.8-4.6 2.6-4.2 2.6-.6c7 2.5 13.4 1 19.5-2.7l4.7.2c1.1 5.7-2.9 11.4 0 17.1-4.4-.4-8.1 2.2-12 3.4-1.2 1.2-1.7 2.4-1.6 3.6l-6.1-3.2a7.3 7.3 0 0 0-4.6.2c-.9.5-1.6 1.2-2.3 2a9.6 9.6 0 0 1-4.9 3.1c-.9.6-1.6 1.3-2.1 2.3a8.5 8.5 0 0 0 0 5l.7 1.1c-1.7.2-3.1 1-3.8 3 .1 2.1-6 .5-2.7 4.5-1 6.5 2.2 6.6 6.9 4.5l.4-2.1 2.7-2.3c1.8-1.6 3.7-3.1 3.4-5.5 2.1-.8 4.5-.7 6.5-1.7l9.6-3.2c1.7-1.1 1.7-2.7 1.2-4.4l-1.2-1.3c1.5-4.3 4.5-3.3 7.8-1.3l2-.4.5-7.2 7.3-5.1 2.6-2.4c.5.2 1.1.2 1.6.2l.1 1.4c1.7 2.1 3.4 2.9 5.5.5 3.6-3.2 9.4-2.7 12.2-7.3l-.2-.1c1.2-5.4-4.3-5.2-6.5-7.7h-.6l-2.1-2.5c-2.5-1.8-5-1.6-7.5 0l-.4.8c-.5-.8-1.3-.9-2.1-.3l-2 2c-.2-.4-.6-.7-.9-1-2.3-1.3-4.6-2.6-7.1-1.1-.9-3.7-3.1-6.2-6.2-7.8l2.1-2.4-5.2-5.2c0-.6.2-1.1.4-1.7l8.8.6c1.3 7.1 5 7.4 10.1 3.5l2.7-1.6 7.4.2 7.1-3.2c.8-1.2.7-2.2-.2-3.1.1-.4.3-.7.6-1 2.1 1.7 4.7 1.9 7.3 1.9l4.9.4c2.9.9 4.8-.7 6.3-2.8.8-1.7 1.2-3.5 1.1-5.4-.4-2.5-1.2-4.7-4-5.4h-.2l2-4.1c2.5-1.8 5.1-1.6 7.7-.3 2.5 4 5.3 2.5 8.1 1.2a9 9 0 0 0 1.5 1.9c.7-.4 1.4-.6 2.2-.7 3.8-2.3 10.7-1.9 8.3-9.5-2.2-2.4-2.1-4.7.2-6.9l1.6-.5 2.5 2.7a23 23 0 0 0 16-2.8c2.5-2.1 6.3.1 8.5-2.8h-.1c2.9-2.5 1.4-4.8-.1-7.1l2.9-.2v-2.1l2.2-.5a6 6 0 0 0 2.3.5l7.9 4.7c9.1-.8 1.6-8.7 5.1-11.9l1.2-.1h1.2l12.4-2.7c.6-.6.9-1.4.8-2.2 4 .9 7.4-2.2 11.4-1.9l2.3-1.2c3-2.6 6.9-4.6 5.8-9.6h.1l1.8-.2c-1.6-3-1.1-5 2.7-5.3l6.4-1.6c.7 3.2 1.8 5.8 6 4.6l5.2-4.6 7.3 2.4-.2-1 5.1 2.7c3.6.1 6-1.8 7.9-4.7l-5-12.2 4.2-3 .3-4.5c.2-.6.3-1.3.3-2l1.5-.4c1.7 5.6 3.2 11.5 11 11.7 3.3-.1 5.8-4.3 9.6-2l4.2-.3a6.5 6.5 0 0 0 2.8 3.1c-.9.4-1.7.8-2.5 1.4-.7.8-1.2 1.8-1.5 2.9l-.1 1.3c-3.4 2.4-5.1 6.3-7.8 9.3-2.4 1.8-4.4 3.8-1.9 7 8.1 2.4 4.9-8.8 10.3-9.6l-.2.8c-.1 1.6.2 3 1.4 4.1l4.6-.2a13 13 0 0 1 5-4.6c-.2.6-.1 1.3.4 2.2 6 .9 12.1 2.4 17.7-1.6a18 18 0 0 0 2.1-.8c-.4 3.2-1.5 6.3-2.3 9.4l-7.9-5.5-4.4 12.2-10.3-4.8-2.8 11.1-1.2.2c-7.3-12.6-7.8-12.2-21.9 1.8l4.9 5.7c-2.3 0-4.5.2-6.2 2.3a82.5 82.5 0 0 0-20 9.8c-1.9.3-4.1.2-4.7 2.7l-1.9.2c-1.7 11.2 5.5 8.7 11.7 7.5l4.8-.1c1.6 4 5.1 1.4 7.7 2.3 4.8-2.8 8.3-6.4 7.5-12.5.2-.6.2-1.2.1-1.8 5.6 2.5 10.1-.6 14.7-2.9l2.3-.8c1.2.7 2.4 1.6 3.7 2.1 2 4.6 6.6 6.3 11.9 5.9a27 27 0 0 1 23.1 7.9l-1.2 2.1c-.3.9-.8 1.8-1.4 2.8l.1-2.6c-8.8 3.7-15.4 1-21.6-5.4-1.9-2-7.6-.4-11.6-.4 2 10.4-3.4 13.3-10.1 14.7-.2-2.2-.3-4.7-.3-7.5l8.5-4.6-14.4-4.7 2.4 3.8-9.8 23L669 564l-16.3 6.9c-.9-3.2-4.1-4.8-7.2-6.3a4.3 4.3 0 0 0-4.8-.4c.1-4.4-5.5-7.4-5.9-6.8-2.8 5.1-11.8 3.6-12.3 10.6-2.2-1.3 1.5-7.2-4.4-5.6l-6.8 2.7c-2.5 1.8-5.9.2-8.4 2l.7 1.4c-2.7-.4-2.4 1.8-2.9 3.2-.6-.2-1.2-.4-1.9-.4-4.7 1.3-9.8 2.1-11 8-3.4-1.7-5.5-.3-6.7 3 .2 9.1 10.1 1.7 12.3 7.3l4.9-.3.9.4 2.5 2.5 1.5-.8 2.6 1.1 5-5.1 1.2-.6-.2-.5c2.3-2.8.9-3.7-1.8-3.9l-2.1-4.7-2.4 2.9v-1.2l.3-2.1-.1-.3.1.3 4.5-1.9c.7 2.4 2.1 4 4.8 3.9l.6-1.1.5.1c2.6-.2 5-.9 6.9-2.9l4.8-.1c4.8 4.2 6.9-1.9 10.4-2.7l2.8-2.5c3.5-.9 5.5 1 7.5 3-4.8 2.3-4.9 3.1-4.7 4.9.8 6.3 2.4 12.4 4.2 21.8l4.4-6.1 5.1 4.2a46.1 46.1 0 0 0-5 4c-.7-.1-1.4.1-2.1.5l-7.6-.2.2 7.5c-3.2 1.6-.4 3.1 0 4.7 5.5-.3 6.4 5 9.4 7.8l3.7 6.9c2-.5 5.4 1.2 5.5-2.3.1-3.2-3.5-3.6-5.7-5-.2-.7-.4-1.4-.8-2-5-4.4.4-5.6 2.4-7.8.4 0 .7-.2 1.1-.5.2-.2.2-.5.1-.8 2.2-.7 3.1-2.3 3.2-4.4 2 1.6 4.3 2.4 7 2 2.3-1.4 3.2-3.2 1.8-5.4a234 234 0 0 0 9.6-6.8c-.2 1.1-.7 2.2-.6 3.3l-2.7.4c-.2 2.4-3 4.2-2 6.9l-.1.1a3.8 3.8 0 0 0-.1 3.3c1 .8 2 .9 3.1.3 4.4.2 5.6 9.7 12.1 4.2 2.8.1 5.6.4 7.8-1.9l4.4-.8c2.7-2.8 9.5-6.2-1.2-6.8-3.6-.2-4.7-.8-4.7-1.7 2.3-.8 4.5-1.9 6.6-3.2 7.1 1 13.4-5.3 20.9-3.6 1.4.3.4-3.2-.9-4.8 9.8-1.8 17.4-8.8 26.7-11.8 1.8-1.1 3-2.5 2.9-4.8l2.2-2.3c13 1.7 21.5-8.3 32.3-12.3l4.8-.4c.1-3.7-1.8-6-4.9-7.5l2.5-2.9 5 .2 4.7 2.7c3.8 1 6.8-1 10-2.3l5 2.6c5.1-.3 7.9-3.7 10.6-7.5 3.2-1.7 6.8-3.1 6.9-7.6-1.8-2.8-4.4-3.8-7.6-3.3h-.1l-.5-1.5c-1.8.3-4.5-1.2-4.9 1.7-.1.8 1.2 1.8 2.3 2.8l-.4.6a5 5 0 0 0 .2 3.2 10 10 0 0 0-6.8 1.2c2.3-3.6 1.5-6.6-2.8-8.8 2-2 3.8-4 4.5-6.6 2.5 3.2 5.5 2.7 9-.1.7-.9 1.3-1.8 1.7-2.8 1.9.7 3.8.5 5.7-1.2l.1-2.7c2.4.4 4.6 1.4 6.7 2.5a5.8 5.8 0 0 0-3 2.8c-.5 1.9-.3 3.6 1.1 5 3 1.3 5.9 3 9.3 2.5 1.1.7 2.1.6 3-.3l2.5-7.4-1.5-1.6c2.6-1.7 5.6-3.1 7-6.2l2.1.3 2.3 5c.8.5 1.5.4 2.2-.1 1.1 2 3.7 1.4 5.3 2.4 2.9-.4 6.8 1 7.4-3.8.4-3.4-2-3.8-4.6-3.7l-3.2-4.8 2.7-2.4c.6-.9.7-1.7.4-2.5l2.3-.5h5.6c.4.6.9 1.1 1.4 1.5l1.1-.4 1.1.1 2.1.7c-1.1 4.5 3.5 4.3 6.3 5.6l2-2.1c4.1-1.1 8.9 1 12.3-2.9 3.5-1.5 7.9-2 8.4-7.1l-1 .1-.4-.5c.4.2.8.4 1.3.4 3.6 1.3 6-1.5 9-2.5l-.3-2.9c1.9-2 3.5-4.1 3.6-7a5 5 0 0 1-1.3-2.1l-1.9-4.9.8-.7.5-3.9c.5.7 1.6 1.3 3.6 1.6l12.5-3.6c6.5 1.6 12.6 5.1 19.7 3.5 1.5-4.3-.8-4.8-2.8-5.5zm-43.5-159.6l-.9.6-.1-.3v-.1l1-.2zm-22.8 7.3s-.1 0 0 0c-.1 0-.1 0 0 0zm-8.4 29.7l.6.3-.7.3.1-.6zm31.4-221.8v-.5l.9-.5-.9 1zM795.2 73.4c1.4 1.2 3.2 1.5 5 1.8.9.1 1.6.2 2.4.5-.2 2.7-4.1 3-6 4.6l-4.5-.7c1-2 2.4-3.9 3.1-6.2zm36-5.7l.3.2h-.5l.2-.2zm25.3 11.7l-.4.8.4-.8zm-181.2 13zM151.1 333.2l.3-.6-.3.6zm327.7 272.5l-.9 1.2c-1.1 1.5-2.1 3-3 4.7-.9-1.7-.8-3.7-.9-5.6.3-.6.6-1.3.7-2 2.1-.4 3.4.3 4.1 1.7zm261-91.8l.4-3.2c1 .8 1.8 1.6 2.7 2.2-.9 0-1.9.4-3.1 1zm28.3-12.4l-.7-.1c-.2-.7-.3-1.4-.3-2.2h2.3l-1.3 2.3zm22 2.2l-5.9-3.8.5-.6-.2-6.3c2.3 3.4 6.6 6.6 5.6 10.7zm-.9-10.2l-1.3-11.6c-5.5 3.9-5.7 6.9-4.3 9.6l-7.8 2.6.4-6.9-4 6.9c-2.8-.2-5 .6-5.2 4.8-3.3-.1-6.6-2.2-9.8.1l-.2.9-15-11.5-1 7.5c-2.8-2.3-5-5.6-7.8-6.2-2.7-.6-6.5 1.8-9.7 5.1 0-1 .5-2.1 1.3-3.2l-1-1.2a8.2 8.2 0 0 0-4.4-1.1c-1.5 0-3 .3-4.4.8-1.7.7-3.2 1.5-4.6 2.7.7-4.1-.6-5.7-5.1-3.5v-.3c-2-2.6-5-3.4-7.9-4.3-2.3-.5-4.6-.6-6.9.3 1.2-2 3.4-3.6 2.4-6.4a9 9 0 0 1-2.4-4.9c.4.6 1.1.9 2 .8 8.9 5 17.4 5.1 24.9-2.7l1.4-4.2 1.1-.3 3-.9 2.1-.4c1.5.4 3.1.3 4.6.5l.5.2.6.1c-2.4 2.2-3.2 4.8-1.8 7.9a8.6 8.6 0 0 0 9.7 3.4c-.1.6-.2 1.2 0 1.8 2.2 3.6 5 3.6 8.1 1.3l5.3-7c.4 1.9.5 3.9 2.6 4.9l2.5-2.3c4 1.3 6.4 7.1 11.9 4.3-1.4-4.4-4.9-6.2-9-7.2-2.7-4.2-5.3-.6-7.9.1l-2.3-4.8 2.5-2.4 1.1-2.6c3-.1 6.4.8 8.5-2.4-3.5-2.9-6.9-1.8-10.2.5l-2.1-.8c-1.3-.9-2.5-1-3.6-.4l-1.5-.8a7.4 7.4 0 0 0-6.5.6c-.2.5-.6.9-.9 1.4l-.1-.4v-.2l2.4-2.7c3.7.8 7-.7 10.2-2.2l2.2-2.8.5-1.7c2.4 3.3 5.1 6.1 9.8 4.3l4.7.3 1.3-.3c-.3.2-.7.3-1.3.3l.1 5c2.8-2.2 5.5-.8 8.3.1 1.1-4.9 4.7-5.6 8.9-5 1.5 1.8 3.2 2.3 4.9.3 3-3.5 4.5-2.4 5.2 1.6l2.9-.8c1.5.4 2.8.3 4.1-.1l.2 1.8c-.3.2-.7.2-1.4.2 2.5 12.3 1.6 23.5-10.8 33.5zm-223.8 27.4c1.2-.1 2.4-.3 3.5-.9l2.4-1.9c-.7.6-1.4 1.3-1.9 2.3-.5.7-1 1.5-1.3 2.3a8 8 0 0 1-2.7-1.8zM353 656.7a39.4 39.4 0 0 0-5.5-3.5l4.7-.3c.6 1.1 1.6 1.4 2.6 1.6-.7.6-1.4 1.3-1.8 2.2zm-86.9 29c0-.1-.1-.1 0 0 0-.1 0-.1 0 0 0-.1 0-.1 0 0zm-17.6-10.1zm-77.4-181.7c0 .1 0 .1 0 0 0 .1 0 .1 0 0 0 .1 0 .1 0 0-.1.1 0 .1 0 0zm61.9-34.8a8.5 8.5 0 0 0 3.1 2.9c-.6.5-.9 1.5-1.1 2.5v.1l-2.2.2c.7-1.9.1-3.9.2-5.7zm25.8-44.1l-.2 1.3c-.5-.5-.3-.9.2-1.3zm113.6-183.6zm238-80.7c-.2.6-.6.9-1.1 1.1l.6-1.6.5.5zm173.6 300l-.5 1.3c-2.2-.2-4.5 2.6-6.7.2-1.7-2-3.8-2.2-6.2-1.2-.5.3-.8.7-.9 1.2l-.2-.3-.1-.1h.2l.2-7-.8-.3c-1-3.5-3.7-4.6-6.9-5l-.8.6-.1-.1.9-.5 2.3-2.5c6.1 3.3 8.9-1.8 12.5-4.8l-1.4-.9c.5.2 1 .4 1.4.9 2.5.2 2.6 8.6 7.1 2.2l2.6-2.2 7.6.9 7.5 4.2.1 2.7-1.3-.3a13 13 0 0 0-8.4 1.6c-1.6 1.7-1.2 3.4-.5 5-3.4-1.1-5.4 1.8-7.6 4.4zm-229.8 76.5c-.1-.6-.4-1.2-1.1-1.7-2.7-1.2-5.6-.3-8.4-.9l.8-.4a6 6 0 0 0 2.7.7 16 16 0 0 0 4.2-1.9l1.8-.8a7 7 0 0 1 2.9 1.9v2.2c0 .8.2 1.6.5 2.3a4.8 4.8 0 0 0-3.4-1.4zm-213 119.5c-3.3-1.4-6.4-1.3-9 1.6-.2.9-.5 1.6-.9 2.3l-2.7.3v-.3c-.3-.6-.7-1.1-1.2-1.6 2.6-1.8 5.6-3 7.6-5.6.6-1.2.4-2.1-.1-2.9h.2l.8-1.5a9.8 9.8 0 0 0-4.7-8.4l6.1-.5v.2c-.6.6-1.2 1.3-1.5 2.2-.6 2.9-.3 5.6 2 7.8l4.2-2.1c.9 2.5 2.6 4.8 1.2 7.7l-.8 2 .1.1-.2.3c0-.8-.2-1.4-1.1-1.6zM308 628.9c.7-1.8.3-3.6.1-5.3a9.3 9.3 0 0 0 4.7 3.1v.7c-1.6 1-2.7 2.6-4.2 3.8a8.7 8.7 0 0 0-3.1 4c-.5-.4-1-.6-1.6-.8 1.1-1.2 1.9-2.4 2-4a8 8 0 0 0 2.1-1.5zm498.2-460a35 35 0 0 0 2.7-2.8l-.1 3.2c-.7.1-1.6.1-2.6-.4zm3.5 26.1c0-.1 0-.1 0 0 .1-.1.1 0 .1 0 0-.1-.1-.1-.1 0zm-48 247.9l1.1.7-2.2-.2c.4-.3.7-.8.9-1.3 0 .2 0 .5.2.8zM439.5 590.8h-.1l-.1-.3.7.2-.3.3-.2-.2zm-5.3-5.9c-.4-.8-1-1.4-1.8-1.9h-.2c1.6-2 3.2-1.6 4.8-.7l.5 1.4 1 1.2c-1-.4-2.2-.6-3.4-.4a8 8 0 0 1-.9.4zm-96.4 35.7c-2.7-.2-5.5-.5-7.3 2.2l-.7-.7c-1.5-1.1-3.2-.8-4.9-.7 1.2-1.8.6-3.4-1.1-5l-.7-.5 4.7-5.3h1.2l1.1-.2c-.2-3.7 1.6-5.1 5.2-4.6l.5.9-5 3c2.1 2.6 4.5 1 6.5.1l.5-.2a13 13 0 0 0 4.3 2.9v.8c1.1 1.3 2.5 2 4 2.5-.5 1.4-.3 2.9.2 4.6l.3.4c-2.8.1-2.7 1.7-1.7 4a6.8 6.8 0 0 0-3.4 5c-1.1-.6-2.2-.5-3.5-.1 2.3-3 2.4-6-.2-9.1zm-32.4 22l.1.5c2.2.3 4.7-.4 6.5 1.2-1 .6-1.8 1.3-1.9 2.4-1.4-.6-2.9-1-4.4-1-2.4-.1-5.1 1.7-7.2.1 3.3.6 5.3-1 6.9-3.2zm101.9-404.2c2.9 1.4 6 2.4 9 3.4-1.5 2.1-5.5 1.8-6.6 4.3-.8-.1-1.6 0-2.4.2l-7.5.1c-.6-1.5-.5-3-.2-4.5.4.3.9.5 1.4.6 3.4 0 6-.9 6.3-4.1zm34.3-49.1l.2-1.9c3.8 1.1 7.9 1.9 8.9 6.7v.1l-1.4-.2c-1.1-2-2.9-2.5-5.1-2.2l-2.6-2.5zm81.2 4.3l.5-.7c1.4.6 3 .6 4.7.1 2.4-1.3 4.7-2.8 7.2-4 0 .7.1 1.4.4 2.2l.2.1-2.2 2.4-2 2.6c-3.1-.5-5.2 1.5-7.5 2.8l-4.8-.2-.6 1.7-4.8 2.8-4.6.3-2.6-2.4c-3.7-3.8-7-.8-10.4.3v-.1c-.3-1.6-1-2.9-2.1-3.8 2-.8 3.8-1.9 4.8-4.1.1.4.3.8.7 1.2a26 26 0 0 0 15.9 3.4c2.7-.7 5.1-2.3 7.2-4.6zm164 262.7l-.6-.5c1.1-.9 2.1-1.9 3.1-3 .3 1.1.9 1.9 1.7 2.5-1.4.3-3 0-4.2 1zM417.7 258.4h-.1l.1-.1v.1zM248 560.6a4.8 4.8 0 0 0-2.4-3l.4-6.1 7.5-.4 4.7.4.3 1.9-2.7 4.5-5 2.6c-.9-.2-1.8-.2-2.8.1zm525.4-355.2l-.8-.9 1.4-1.1c-.6.6-.7 1.3-.6 2zm-213 238.3s.1 0 0 0c.1.1.1.1 0 0v0c0 .1 0 .1 0 0zm-232.7-42l.7-2c-.1.8-.4 1.4-.6 2.1l-.1-.1zm57.5-52.1l1-.3.1-.1h.1l-.2.1-2 .9c-.9.4-2.1.8-3.1 1.4l-.3-.8 4.4-1.2zM260.8 509.1h.1l-.1.1v-.1zm-5.8-2.7l1.4.5c-.7 0-1.4 0-2.1.2l.7-.7zm212-274l.8.4-1.3.7-2.3-2.3c-.8 0-1.5.2-2.3.3-2-1-2-3.1-2.6-4.9 3.3.9 5.4 3.5 7.7 5.8zm-72.2 33.5c-.1 0-.1.1 0 0l-.3.1.2-.4.1.3zm-7.7-2.8l.9-.4 2 3.2v.1l-6.5 2.1a24 24 0 0 1-2-4.3 22 22 0 0 0 5.6-.7zM300 548.6v.3l-2.6 2c.7-.9 1.6-1.7 2.6-2.3zm181.2-338l-.4.1c-.8-.6-1.7-1-2.6-1.1.8-.9 1.7-1.6 2.7-2.2 0 .6.1 1.3.6 2l-.3 1.2zm-28.3 9.6l.1-.4c-.2-3-.5-6-1.6-8.8.7.5 1.3.9 2 1.2-1.8 2.3.7 5.6-.5 8zm-58.2 43.4c-2.4-1-2.3-3.4-2.7-5.5.3-1 .4-2.1.4-3.2a5.6 5.6 0 0 0 4.6 1.5l.4-.2c-.1 2.8.4 5.8-2.7 7.4zM357 274.4l.7 8.3 2.5 5.9-.3 2.5c-3.4.2-5.9-3.6-9.6-2.2l-.4-1.1c-2-1.2-3.3-1-4.5-.2.5-1 .7-2.1.6-3.3l.2-.1c2.9-3.7 11.7-2.7 9.2-10.6l1.6.8zm-25.8 10c1.6 2 3.9 2.8 6.6 3l.9-.1 4.1 3.4-.1.1.1-.1c-1.4 5.8-5.6 6.2-10.4 5.4l-3.9-2.1c3.5-3.3 3.5-6.5-.4-9.6v-.5c.3.2.5.4.9.5a8 8 0 0 0 2.2 0zM310.3 320l-3.3 1.8a9.2 9.2 0 0 0-2.6-1.9l-.6-.2 1.8-1.7c1.5 1 3.1 1.6 4.7 2zM201.7 580.5l1.5.9-1.9-.1.4-.8zm586.5-421.7l.2-.3h.6l-.8.3zm-289.9 52.3c.2.3.5.4.8.6a3.6 3.6 0 0 0-2.1 2.4l-.3.6-.2-1.3a13 13 0 0 0-3.3-.7c1.3-.9 2.2-2.2 2-4.9l-.5-.8.2-.2c1 .8 2 1.1 3.2 1.2-.4 1-.3 2 .2 3.1zM300.8 304a5 5 0 0 0 .5-3.2c-1.2-2.5-2.7-3-4.4-3 3.1-1.2 6.1-3.1 9.5-2.8-1.5 2.5-1.4 5.9-3.5 8.1l-2.5 2.1c-2.1 2.6-2.3 5.1.2 7.6a2 2 0 0 0-.5 2l-.7-.5c-1.3-.2-2.5 0-3.4.8l-.1-.4c-2-2.4-4.3-3.9-7.2-2-.9-2.7-2.4-5-4.4-7l.1-.2c5.6.6 11.3 3.1 16.4-1.5zm436 132.3a9.2 9.2 0 0 0-5 5.6c-2.1-1.4-3.8-.9-5.1 1.6l.2.8a2 2 0 0 0-1.5 0l-.6-.8c-1.5-1-3-2-3.7-3.8l-.6-1.4 4.5-4 6.8.2.6-2.1 4.7-.7 6.6 3c.5.2.8.6 1.2 1a6 6 0 0 1-2.3.2c-.8.1-1.4.4-2 .9l-.6-.4c-1-.3-2.1-.3-3.2-.1zm27.6-16.8V419.7l-.4-.2h.4zm68.7-209c.2.4.6.7 1 1-.6-.2-1-.6-1-1zm-386.4-9c.1 0 .1 0 0 0 .1.1.1.1 0 0 .1.1.1.1 0 0zm-9.9 21l.1-.1c.5 2.4.9 5 2.6 6.8l-3.1 4.3c.4 5.5 4.6 4.7 8.1 4.9l2.2-.3.1 2.9-2.4.2c-4.4-.7-5.6 5.6-10.1 4.7l-2.6 2.2-4.7.3-2.7-1.5c1.1-1.1 2.4-2.1 2.8-3.7.9-.2 1.9-.5 2.7-.9 2.7-2.2 6-4 4.2-8.5l-4.6-5.1c-.9-1.8-1.6-3.7-1.1-5.5l1.8.3c2.4.3 4.6.1 6.7-1zm-126 35.9l-.3.3-.1-.3.2-.2.2.2zm-72.5 275.3s0-.1 0 0c0 0 .1.1 0 .1l.3-.4.6-.5c-.2.4-.5.7-.9 1v-.2l-.4.9.1-.8.3-.1zm89.2 71.6v.4l-.3-.2.3-.2zm36.9 22.3l-.1.5-9-2.9-2.4-2.2 1.7-2.7 5.3-2c3.3 3.8 8.7 1.7 12.5 4.2-3.1.8-6 2.1-8 5.1zm439.3-222.7c-1.8 0-3.5.5-4.8 1.8l-1.6-.9.1-.8-.3-.2c2-1 3.8-2.2 5.8-3l.2-.2c-.4 1.1-.1 2.2.6 3.3zM555.8 181.4l-4.3 2.5c-1.5-1.8-3.6-1.6-5.5-1.6 3.6-1.1 7.2-2.2 10-4.8l-.2 3.9zm-11.4-14.7l-.8 2.2c-.4-.4-.9-.7-1.4-.8.8-.3 1.6-.8 2.2-1.4zm-17.9 8l-.1 1.6c1.6 1.4 3.5 2.6 4.9 4.2-.8 0-1.6.4-2.4 1.3l-2.7 2.6-5-5.3-.2-1.7.2-.1a4.1 4.1 0 0 0 .9-4.2c1.4.2 2.7.1 3.9-.5-.2.8 0 1.5.5 2.1zM260.4 336.3l.9-1.3c.5.4 1.1.6 1.7.8-1.8 2.5-.9 4.6 1 6.6 1.3 1.6 2.5 1.6 3.7-.1 4.7-2.7 4.2-12.4 13-9.4l2.5.2 2.1.1-.3.2-22.3 12.6a6 6 0 0 0-1.9-1.6c-.8-.2-1.6-.2-2.5-.2l-.1-.8 1-.7c1-2.3.6-4.2-.6-5.9l1.8-.5zm-36.7 167.8l2.5-2.2 2.6.3c3.4 2.4 6.7 2.6 9.9 1 .1.9.4 1.7.7 2.6l.3.4c-1.2.3-1.8 1.2-1.5 2.8.5 3.7-1.3 3.6-3.2 3.2l-1-.9c-1-.3-1.8-.1-2.4.6-3-2.2-5.4-.4-7.6 2l-.4.3.7-1.1a6.5 6.5 0 0 0-2.2-4.5c1.3-1.1 1.5-2.8 1.6-4.5zm66.9 136.5l-.2-.6.5.5-.3.1zm172.9-75.1l2.2 2.1a4.8 4.8 0 0 0-3.7 2.8 4.4 4.4 0 0 0-2.9-1.1c-.6-.3-1.3-.5-2-.5l6.4-3.3zm17.8-4.7c.8-1.7 1.2-3.4 1.2-5.4l5.1-2.7a4 4 0 0 1 1.8.4l-.1.7c.1 1.2.4 2.3 1 3.3-3.4.2-6.1 2.2-9 3.7zm93.1-45.3v.6l.1.4-2.1.8 2-1.8zm49-28.7l-.2.1.2-1.9 4.4-2.2.5.3c-2 .5-3.6 1.8-4.9 3.7zm131.9-37.2l-.9.9.6-1.1.3.2zm58.8-7.5zm-8.2-1.1l3.6-3.4 4.5 4.5a16 16 0 0 1-8.1-1.1zM643.2 156.3h-.3l.1-.2.2.2zm-84.1 8.7l1.6 4-2 .5h-1.8l-.6-.9a4.8 4.8 0 0 0-3.3-.5c.9-2.3 1.5-4.7 1.3-7.3a7.3 7.3 0 0 0 3.8 4.1l1 .1zm-190.4 76.3l-1.2.6-2.2-.5c-1.8.2-3.4.8-5 1.3-.5.4-.6.8-.7 1.2l-3.2.1-1.1-.9a6 6 0 0 1-2.3.6l-.6 1.8-4.7.6c-2.4 1.4-12 .6-1.8 5.9l-2.6 1.4v-.1c-3.3-1.9-6.7-.4-10-.4-2.7-.3-5.2 1.4-7.9 1.3 3-1 6-2 5.2-6 .8-.3 1.6-.7 2.1-1.4l.2-.6 1.2.8c4.8-.4 9.5-1.3 14-3.2 2.1-3.5-.5-7.2.4-10.8l-.1-.7c1.1.4 2.2.2 3.3-.4l.9-1.2.1-.2.4.7c5.6 3.6 11.4-2.2 17 .5l.5-.1-2.9 4.1c-1.2 2.6-.4 4.2 1 5.6zm-21-10.7l-.1.3-.2-.3h.3zm-98.3 113.1c-.1.6.2 1.2.9 1.9-.2.8-.1 1.6.5 2.3l2.5 2.4v.7l-6.3 3.6a11 11 0 0 1-.7-2.6l-.5-1.4.2-.2c1.3-2.1 2-4.2 1.7-6.3l1.7-.4zM237 383.6l-.1.1-.2-.5c.2.1.3.2.3.4zM200.4 483a4.5 4.5 0 0 0-1.2-2.9c1.1-.6 2-1.5 2.7-2.6.8 1.2 2 2 3.4 2.5l-4.9 3zm19 108.4l-6.8 3.6c.4-3.3 3.5-3.6 6.8-3.6zM400.1 611l-.1-.1h.1v.1zm13.6-20.5l-.5-.2.4-.2.1.4zm15.2-7.9l.1.1-.1-.1zm-3.7 9.8l.6-1 3.2-.1c-1.5 2.1-3.9 2.7-6.1 3.7.9-.8 1.6-1.7 2.3-2.6zm398.1-106l.2-.1v.2l-.2-.1zm.4-81.6h-.1l-2 .1c-1-7.2-5.8-6.4-10.8-5.1a352.2 352.2 0 0 1-1.9-7.4l7.7-3.8c.1.7.3 1.6 1 2.7 2.6 4.4 5.8 2.5 8.8.4-3 3.9-3.9 8.2-2.7 13.1zm45.7-72c-1.4.8-1.6.5-1.5 0h1.5zm26.1-132.7l.5.3c1.4.4 2.8.2 4-.2l-1.3 1.4c-2.2.9-3.6 2.2-2.7 4.5h-.3l.1.1-1.8.1.2-.2c-.2-1.8-.6-3.2-1.5-4l2.8-2zm-7.7-71.5c-2.8 0-6.2 5.1-8.2-.9l.5.5c2.5.3 4.5-.1 6.3-1l1.4 1.4zm-4.9-19.1c1.1 0 2.2-.1 3.2-.3l.7-.3 1 1.6a51.5 51.5 0 0 1-11.9 3.8l.3-1.7c1.9-1 3.7-2.1 5.4-3.2.5-.1.9 0 1.3.1zm-73.6 29.7zm-42.5-23.5c-.2-.9-.4-1.8-.8-2.5l2.5-2c-.2.8 0 1.6.6 2.3a8 8 0 0 0-2.3 2.2zm-72.1 17c2.8-2.2 4.8-5.5 8.6-6.3.9-.5 1.8-1.2 2.4-2l.1-.4c4.1 1.1 7.3.1 8.9-4.5l10-2 .2-2.7 9.9 2.2a23 23 0 0 1 11.8 2.6l.7.5-.5.6.4 1-2.4.7c-4.5 4-9.7 3.4-14.9 2l-5.4-2.7-2 .5v7.4l-12.5 4.7-.4-4.5c-3.1.6-7.8-1.3-7.1 4.9 2.5 1.4 5 2 7.4 0l-.2 3.1c-1.8-.3-3.5.1-4.9 1.4h-4.6l-3 2.5-2.1.5-5.2 4.5c-2.1-1.6-4.2-1.7-6.2-.5-.2-.7-.6-1.3-1.2-1.8-6.1-.5-12-1.3-14.1-7.7 1.6-.1 3.2-.1 4.7.1 4.5.6 9.2-3.9 14.1 1.6 1.8 2 7.9-.1 5.5-6 .6.2 1.3.3 2 .3zM603.9 157h-.5l-.3-.5.8.5zm-29.5 7.4a3 3 0 0 0 2.3.5c4.2-2.4 9.7-1.9 13.4-5.4l.3.5c1.1.9 2.4 1.4 3.8 1.5-.9 1-1.7 2-2 3.4v.4l-1.4 1.1-7.1.6-3-.3-2.2 6.5-1.7.8h-2.4l.7-1.3c.1-2.7.7-5.7-2.6-6 .8-.7 1.4-1.4 1.9-2.3zM593 138h1.3c-.2.3-.4.5-.5.9-.2-.4-.5-.6-.8-.9zm-41.9 16.3c-2.3-.9-3.2.4-3.6 2.3h-1.1l.5-1.3c.6-2.6-.6-4.3-2.7-5.4 3.9-.9 6.4.2 6.9 4.4zm-150.3 57.4c3.7-3 8.4-3.9 12.1-6.8a10 10 0 0 0 1.6-2l10-1.7c3.4-.2 7.6 1 7.4-4.8h.2l2.1.4.1 2.3-.1.1c-1.9 2-5.2 2.2-6.6 5l-5.6 4.5-4.8 2.9-5.3 1.6c-.5.6-1.2.9-2 .9-.8.7-1.1 1.5-.8 2.3l-4.8 4.3-8.6.9-1-.8c-2.1-.2-3.2.5-3.1 2.7-1.1 3.9-4.4 2.5-6.9 2.9-1.7.4-2.8 1.3-3.2 3l-4.5 1.7-4.8.4.1-.3h-.1l.6-.4c.9-1.6 1-3.2-.5-4.6l4.9-7.1c.4.5.9.9 1.5 1.2 5.6.4 10.1-.7 10.8-6.3l2 .2c3.5 0 6.5-.7 9.3-2.5zM216 357c.4 1.1.8 2.1 1.4 3.1l-3.4-.2-.9.1a6.5 6.5 0 0 1 2.9-3zm-26.7 121.2l-1.4.2v-1l1.4.8zM174 509.6c1.5-.5 3.1-1 4.4-1.9-.5 1-.6 2-.1 2.9-1.5-.1-2.9-.5-4.3-1zm21.5 6.9c0-.1 0-.1 0 0 .1-.1.1-.1 0 0 .1-.1 0-.1 0 0zm-32.9 45c1.5.5 2.8.1 3.9-.7.1.9.3 1.9.6 2.8.8 1.7 1.9 3 3.9 3.2l.2-.1v.7c-3.3.6-4.6 3-5.6 5.9a7 7 0 0 0 .9 4.8c-1.2-1-2.4-2.1-3.2-3.5a5.2 5.2 0 0 0-1.9-1.4 15.8 15.8 0 0 1-2.2-5.8c.6-.7 1.2-1.4 1.4-2.1.8-1.3 1.5-2.5 2-3.8zm32.2 43.1a6.3 6.3 0 0 1 3.7-3.2l.9.7-4.6 2.5zm111.2 8.5c-1.3-.4-2.6-1.2-4.1-.8 1.8-1 3-.4 4.1.8zm-24.3 29.6c1 .1 1.8-.5 2.7-1.2.8 1 .9 2.2.9 3.6l-1.1.1a55 55 0 0 1-9.9-.7l-1.4.1 1.8-2.7c2.1 1.3 4.5 1.2 7 .8zm5.2 36.4l-.5 1.3-3.3-.4a6 6 0 0 0-2.2-.9c.2-1.6-.2-2.9-1-4.1 1.9.2 3.9.1 5.7-.5 2.9-1.2 5.6-2.7 7.8-4.9.8.8 2 1 3.1 1.1a7 7 0 0 0 .1 2.5c-4.4-.4-7.5 1.8-9.7 5.9zm104.3-46.7l-3.4-2c0-4.1-3.5-5.2-6.3-6.9l-1.9-.7.4-9.4 7.1 3.5 5.2 11-.6.5c-2.1.6 3.4 4-.5 4zm15.4-29.6c-1.9-2.9-5-4-8.2-5.2l.7-.5c2.2-.9 4.3-1.9 6.5-3l4.1 1.8-.1 7.2c-1-.4-2-.5-3-.3zm12.5 3c-3.4-1.5-5.6-1-6.5 1.5-.7-1.4-1.5-2.8-2.8-3.9 3.4-1.3 5.5-3.9 6.9-7.2l3-.2 2.6 2.4c2.4 1.6 2.2 4.2 2.4 6.6a4 4 0 0 0-.9 2.1c-1.2-1.5-2.6-2.4-4.7-1.3zm268.6-64.7l-.5-.8-1.4-.8c.8-2.5.2-4.1-1.4-5l2.2-3.6.9 2.1c.1 2.2.5 4.4 1.5 6.5l-1.3 1.6zM666.4 583c5.5-.9 11.5-.4 13.1-2.9.6-1 .9-2.2 1.1-3.6 4.5-.5 9.3-5.3 15.6-3-6.8 5.2-12 9.3-17.4 13.2-1.7 1.2-4 1.6-5.7 2.7a43 43 0 0 0-7.9 2.6l1.2-9zm56.7-6.3l.3-7c.5.4 1.1.9 1.9 1.3l-.2 6.2-1.1-.2-.9-.3z"/>
    <path class="st1" d="M774.1 548.5l.3-7.1-4.9 2.5c0 3.1 1 5.1 4.6 4.6zM503.7 648.4c-.7-.1-1.4-.3-2.2-.3.2 4.2 1.4 7.6 6.7 6.9l-4.5-6.6zM429.4 687.8l14.8-.4c-.8-6.4-6.2-3.7-9.6-4.8-4-.5-5.8 1.1-5.2 5.2zM437 672.9l-2.5 7.2c4.1-2.8 10.1-1.8 13-6.8l1.7-.7c3.7-2.5 4-5 2-7.4 5.2-4 9.3-2 12.7 4.9l2-1.6-2.8-15-14.3 9.7c-.5-.1-1.1-.1-1.6 0-1.5 2.5-6.2 2.7-5.2 7-.9 2.5-3 2.5-5 2.7zM335 690l-4.3 2 2.7 2.8c3 4.6 6.1 1.8 9.3.3l2.6-2.4c-2.6-4.4-5.7-6.3-10.3-2.7zM345.8 681c-2.4-1.3-4.4-.6-5.8 1.8l4.8 2.1c.4-1.3 1.3-3.7 1-3.9zM419.3 692.6l1-2.3c-2.7-2.5-5.5-4.1-8 0-.7 1.2-2.5 2.9-.6 4.3 3.1 2.2 5.3-.5 7.6-2zM42.7 593c-2.5-.4-5.3-1.3-5.4 2.9 2.1 2.3 4 4.9 7.6 2.5 1.5-1.3 1.5-2.9.7-4.6-.7-.9-1.7-1.2-2.9-.8zM392.3 766.9c-4.5 2.4-7.5 9.3-14.3 4.9-1.4-1.5-3.1-2.4-5.2-1.6l-7.7 2a11 11 0 0 0-.2 1.9c-3.5.2-7.4-.9-10 2.7l-7.3 5.3c-.2.7-.3 1.5-.2 2.3l-2 2.7 5.1 2.2 4.5.8 2.7-.2c3.8 4.5 6.7 1.5 9.7-1.1 2.6-5.1-10.1.7-4.6-6.4l5-2.3 2.3 2.4 2.7-.7 4.7-4.6c1.8.6 4.1 0 5.2 2.3 8.5 4.7 3.6-8.7 9.7-7.2.3-2 2.9-3.7-.1-5.4zM402.2 749.9c-.7-.2-1.5-.3-2.2-.3l-4.8-.4c-1.7-2.8-4.1-4.5-7.5-4.2l-.2.6-.1-.1c-2.4-.4-4.7-2.5-7.2-.3l-5.2 1.9-.2 12.7c6.4 7.5 10.7 1.4 15.3-2.4v-.7c6.1-1.7 11.9 5.8 18.1.6-1.9-2.6-6.2-3.2-6-7.4zM178.9 377.4l-4.9-4.6c-2.7.5-3.7 2.8-5.1 4.7 3.3 4.1 6.6-.4 10-.1zM58 586.4c2.2 3.1 5.3 4.3 8.9 4.3l.9-2-.8-4.9c-3.5-1.1-6.3.5-9 2.6zM865.1 183.2c.8 2.5 3.4 3.1 6 3.1l-.1-4.5-2.4-2.6c-2.1.6-4.1 1.8-3.5 4zM670.1 613.1c-3.1 9.7 4.8 3.5 7.3 5.1-1.1-3.6-3.9-4.8-7.3-5.1zM873.5 57.3c4-1.4 8.2 1.3 12.1-.8 1.2-.2 2.3-.6 3.3-1.2.8-3.3-.5-5.7-3.1-7.7l-12.2-.2c-2.2 3.3-7.5 6.6-.1 9.9zM325.3 700.1c-.5 5.3 3.9 5.5 7.1 6.9 3.6-8.4-2.3-7.2-7.1-6.9zM206.1 427.3c-1.5-2.2.6-5.7-2.5-7.4l-2.7 2.1.4 7.6c2.1.3 4 .2 4.8-2.3zM151.7 387.6zM151.7 387.6c2.1 3.6 4.6 6.3 9.2 3.2-1.9-5.3-6.2-2.3-9.2-3.2zM876.2 469.4c1.1 1.8 2.8 2.5 4.9 2.4.9-1.9 3.4-4.1.2-5.8-2.9-1.5-3 2.8-5.1 3.4zM404.8 749.8l7.2-5 .4.1c.2 0 .4-.3.6-.9.2-.6 0-1.1-.7-1.7l-5.2-.2c-2.4 2-2.4 4.8-2.3 7.7zM518.9 623.2l9.8-2.6-5.1-5.1-9.5 2.8c.6 2.6 2.7 3.7 4.8 4.9zM781.6 476.4l.8-4.7-4.9-1.9c-.8 3.6-.9 6.6 4.1 6.6zM829.1 389.9l-.2.1.2-.1zM278.1 618.2l.2-2.8c6.8.3 7.3-4.5 7.5-9.5-3.1 1.5-8.6-1.7-9.2 4.5-.9.1-1.6.5-2.2 1.2a6.7 6.7 0 0 0-1 4.6l.1 6.8c4.7 1.5 2.3-4 4.6-4.8zM573.6 559c-1.1.3-1.3.9-.6 1.8l.5 5.2c6 3.7 6.2-1.3 7.3-4.9-1.5-3.4-4.4-2.7-7.2-2.1zM558.7 603.3l2.1.1c.1 1.7.8 3 1.8 3.8l.7 3 19.9 11.1c.2-5.1 1.5-9.5.4-13.1v-.1l1.8-.4c-.1-2-1-3.3-2.2-4.2.5-2 1.9-3.6 3.9-5.4 2.4-2.1 3.6-5.5 5.9-9.2l-17.2 3.5c-.8-3-2.9-4.6-7.2-3.8l.1.1-4.2 6-.8.2c-.4-2.3-1.4-4.5-4.1-3-5.4 3-2.9 7.4-.9 11.4zM541.3 593.6c2.5-1.8.4-3.4-.2-5.1a237 237 0 0 0-5 2.4c-2.2-.6-2.7.4-2.2 2.4l7.4.3zM494.2 600.7c-1.6.3-4.1-2.2-4.8 1.1-.2.9.9 2.8 1.5 2.8 2.5.3 3.3-1.6 3.3-3.9zM511.4 591.2c.1.8 0 1.6-.1 2.3l.4 2.2 2.1.5 4.8-.6h.1c2-.9 3.9-2.5 2.3-4.5-2.9-3.5-6.4-2.6-9.6.1zM660 513.5c-2.9 1-6.6-.5-9.1 1.8l-.6-.1c-1.1 0-2.2.2-3.3.7a40 40 0 0 0-9.6 13.8c-.4-1.6-.5-3.5-2.5-4.3a5.8 5.8 0 0 0-3.2 0c-5.1 3.7-2 9-2.5 13.6.7 2.7 1.4 5.4 4.2 6.8 4.2.7 6.8-1.9 9.3-4.5l.9-.2h.9c3.5-2.9 3.1-5.2 1.2-7.2 1.9-.3 3.5-.9 4.2-3.2 3.2-4.1 6.9-7.4 12.7-6.7l10-5.1.1-2.4c.7-2.1-.5-3-2.3-3.6l-.6.1-.2-1.5 3.2-2.3-2.9-7.3-7.4 2.2.2 5c-2 .7-2.5 2.5-2.7 4.4zM680.1 496.7a4.9 4.9 0 0 0-4.4-1.7 5 5 0 0 0-2.7 1.8l.1 4.8c3.5 0 7 .1 7-4.9zM552.4 578.5l1-.1c5.1-6.7-.7-9.1-4.7-12.2-2.3-.9-3.1.1-3.1 2.3l.3 2.6 5.5 7.3 1 .1zM566.8 557.4c-1.9-2.1-4.2-1-5.8 1.3 2.9 1.8 2.3 4.7 2.5 7.4h2.4c-.5-3 3.6-5.8.9-8.7zM582.7 555.7c.1-.7.4-1.3.7-1.9l8.4-.2 1.4 1c1.1.4 2.2.5 3.3.3 5.9-3.6 14.6 1.8 19.3-6l2.4-2.6c3-5.7-1.1-5.6-4.8-5.8l-2.1.1a6 6 0 0 0 2-1.9c2-.5 6.2-.2 1.9-3.5-3.4-2.7-7.7-1.3-11.6-.7-.9.6-1.6 1.5-1.9 2.6-.1.8 0 1.6.2 2.3-5.6-.7-9.2 3.1-13.4 5.9l-.3.6-2.3-2.2c-2.7-1.2-4.3.4-5.7 2.4a4 4 0 0 0-.1 1.9l-1.4 1c.1 2.8.4 5.7 4 6.7zM1003 395.5c-12.7 14.2-12.9.4-16.4-2.3l9.1-6.1c-9.2-2.3-18.4-2.1-23.9-6.5-9.1-7.5-14.2-1.4-20.6 2.4l-9.6 5.9 9.2 10.8c-19.1-.9-1.5 11.9-7.6 16.7l-10.2 1 7.9 4.6-.3 2.7-22.7.9c7 5.6 14.4 8.7 21.4 12.6 1.4.8.8 4.9 1.3 8.6 4.1-2 9.1-3 12.2-6.1 4.8-4.8 17-2.5 14.5-14.5 7.9-1.1 16.1-9.4 23.1 1.2l9.1-5.2 3.5-26.7zM560 652.6c0-.1 0-.1 0 0l-.4.2.4-.2z"/>
    <path class="st1" d="M560 652.5l-.4.1v.2l.4-.3zM627.8 606.9c-12.8-.5-21.9 3.1-25.1 16.2 11.6.1 23.9-7.6 25.1-16.2zM901.1 455.7c-10.3-13.8-14.3-14.3-26.7-1.3l12.5-1.6c-.7.5-1.2 1.2-1.5 2.3-.1.3 1.9.9 2.9 1.4.3-1.3 2.7-1.4 3.3-2.6l-3.6 12.6 13.1-10.8zm-9.7-3.5l.8-.1-.4 1.4c0-.4-.1-.8-.4-1.3zM846.1 475.8l-.3.5v.3l.2.1.1-.9zM529.9 620c-.4.7-.6 1.4-.8 2.2-.1 1.9.1 3.5.6 5v1.6l1.5.9c.7.9 1.7 1.8 2.9 2.5 3.4 1.5 6.6.4 9.7-1.1 4.7-.4 5-3.9 5.4-7.5l6.5.3c3.7 3.2 6.6-1.2 10-1l.2-9.5c-2.3-.5-3.7-.1-4.4 1.1-.7-2.6-1.7-5.1-3.1-7.5-7.8-6.9-8.9-6.8-11.4 2.3-1.4-.9-2.9-1.4-4.6-1.8-3-.3-6.5-2.1-8.6 1.6-.8 1.3 0 2.2.9 3-.6.3-1.1.6-1.6 1.1a4.3 4.3 0 0 0-.3 3.5l-2.8 1-.1 2.3zM474.7 663.6c5.4-4.2 10.4-8.9 15.5-13.5.4.2.8.4 1.4.4v-1.7l.1-.1-.1-.1c.2-2.5.8-5.2-1.6-7.1-1.1-.9-3.6-1.8-4.2-1.2-1.9 1.7.7 3.4.8 5.2l1.5 2.6-22.7 14.5c4.9.6 8 2 9.3 1zM511.6 657.3l-3.2-.4-3.8 12.1 12 2.4-5-14.1z"/>
  </g>
</svg>
