<svg id="icon" xmlns="http://www.w3.org/2000/svg" viewBox="0 0 100.7 100.8">
  <style>
    .st0,.st1{fill:#333;opacity:0.25}.st1{fill:#1e120d; opacity: 0.25}
  </style>
  <path class="st0 heart1" d="M33.1 37.1c-1.7-.3-3.5.7-4.2 2.3-.3-.8-.9-1.4-1.6-1.8-1.2-.7-2.4-.7-3.7-.1-1 .4-1.8 1.5-2.2 2.5-.5 1.2-.3 2.7.1 3.9.1.2.4.1.4-.1-.5-2-.4-4.3 1.4-5.7.9-.7 2.4-.9 3.4-.4s2 1.4 2.1 2.6c0 .3.3.2.4 0 .2-2.2 2.9-3.4 4.7-2.5 2 .9 2.8 3.6 2.2 5.7-.4 1.3-2.1.9-3.1 1h-2.3c-.1-.1-.3-.8-.4-.9-.1-.2-.3-.1-.4 0-.1.9-.4 1.9-.6 2.8-.2-1.6-.3-3.2-.5-4.7 0-.2-.3-.2-.4 0-.3 1.1-.5 2.2-.8 3.3l-.3-1.5c0-.2-.3-.2-.4 0 0 .3-.1.9-.3 1.1-.1.1-.5 0-.7 0h-2c-.7 0-1.9-.1-1.8.9 0 .6.5 1.2.9 1.6.5.6 1.1 1.1 1.7 1.6 1.3 1 2.7 1.8 4.1 2.6h.2c2.5-1.4 4.5-3.1 6.2-5.3.1-.2-.1-.4-.3-.3a18.5 18.5 0 0 1-4 3.9c-.5.3-1.6 1.3-2.2 1.2-.3 0-.7-.4-.9-.5-.4-.2-.8-.5-1.2-.7-.8-.5-1.6-1.1-2.4-1.8-.4-.4-2.6-2.5-1.2-3 .5-.2 1.5 0 2 0h1.7c.1 0 .1-.1.2-.1 0-.1.1-.3.1-.4l.3 1.5c0 .2.3.2.4 0 .3-1 .5-2.1.7-3.1.2 1.6.3 3.3.5 4.9 0 .2.3.1.4 0 .1-1.1.4-2.2.7-3.3.1.3.3.5.6.5.8.1 1.8 0 2.7 0 .8 0 1.8.2 2.4-.4.5-.4.7-1.2.7-1.9.4-2.4-.9-5-3.3-5.4z"/>
  <path id="XMLID_23_" class="st1 heart2" d="M73.6 5.9c-.4 0-.7.1-1.1.2.1-.6.1-1.2 0-1.8-.3-1.3-1.1-2.3-2.3-2.6-1.4-.3-2.3.8-3 1.8-.7-1.1-2.1-1.9-3.4-1.5-1.4.5-2 2-2 3.4 0 .8.1 1.7.5 2.4 0 .1.1.1.1.2-.2.1-.4.1-.6.2v.1c.2 0 .5-.1.7-.1.4.6.9 1.1 1.4 1.6.6.6 1.2 1.2 1.8 1.7.7.5 1.4 1.2 2.2 1.4.1 0 .2-.1.1-.2-.5-.4-1.1-.8-1.7-1.2-.6-.4-1.2-.9-1.7-1.4-.6-.6-1.3-1.2-1.8-2 1-.1 2-.4 3-.6.1 0 .1-.2 0-.2.1-.4.1-.8.2-1.2 0-.4.1-.7.1-1.1.3.7.7 1.4 1.1 2.1.2.4.4.7.6 1.1.2.4.4.8.7 1.1 0 .1.2 0 .1-.1v-.1c.1-.4.3-.8.4-1.3.1-.4.2-.7.2-1.1.8 0 1.5-.1 2.3-.3h.4c-.2 1-.7 2-1.2 2.9-.4.5-.8 1.1-1.1 1.6-.4.5-.9 1.1-1.2 1.7 0 .1.1.1.1.1.6-.5 1.1-1.3 1.6-2s1-1.4 1.4-2.1c.5-.6.8-1.4 1-2.1.4 0 .9-.1 1.2-.4 0-.2-.1-.2-.1-.2zm-2 .3c-.7.1-1.5.2-2.2.4v.1c-.3.4-.3.9-.4 1.3-.1.3-.1.6-.2.9-.3-.7-.8-1.4-1.1-2-.4-.7-.8-1.5-1.3-2.2h-.1c-.2.4-.2.8-.2 1.2-.1.5-.1 1-.1 1.5-1 .2-2.1.4-3.1.7-.3-.4-.5-.9-.6-1.5-.3-1.5.1-3.3 1.4-4.1.7-.4 1.5-.3 2.2.1.5.3.9.7 1.3 1.1h.1s.1 0 .1-.1c.8-1 1.9-2.1 3.2-1.5 1.3.6 1.8 2 1.7 3.4 0 .2 0 .4-.1.6-.2 0-.4.1-.6.1z"/>
  <path class="st0" d="M52.4 66.3c-.1-.7-.5-1.4-1-1.9.4-.7.9-1.3.9-2.1.1-.7 0-1.6-.5-2.2-.5-.5-1.1-.7-1.8-.8-.9-.1-1.9-.1-2.8-.1-1.4 0-3.3-.3-4.5.7-.6.5-.8 1.3-.9 2-.1 1 .6 1.7 1.1 2.4-.5.6-.8 1.4-.9 2.1-.2 1.1-.2 1.9.3 2.9.2.5.7 1.2 1.1 1.5.3.2.8.2 1.2.2h3.6c.8 0 1.8.1 2.5-.1.8-.2 1.1-1.1 1.4-1.8.4-.7.5-1.8.3-2.8zm-9-6.5c1.1-.5 2.6-.3 3.8-.3H49c.8 0 1.8 0 2.4.5.5.5.7 1.4.6 2-.1.8-.5 1.4-.9 2l-.1-.1c-.3-.3-.6-.4-.9-.6.4-.7 1.1-1.8.2-2.4-.9-.7-2.6-.4-3.6-.4-.5 0-.9 0-1.4.1-.4 0-1 0-1.4.3-.9.7-.4 1.7.1 2.4-.1 0-.2.1-.3.2-.3.1-.4.4-.6.5-.4-.7-1-1.3-.9-2.2 0-.7.4-1.6 1.2-2zm3.8 2.9c-1 0-2 .1-2.9.5-.4-.5-.9-1.1-.5-1.8.3-.5.9-.5 1.4-.5.5-.1 1.1-.1 1.7-.1.8 0 1.6-.1 2.4.1.5.1 1.1.3 1.1.9 0 .5-.4.9-.6 1.3-.8-.2-1.6-.3-2.6-.4zm4.9 4.9c0 .9-.3 1.8-.8 2.5-.6.9-1.7.7-2.7.8h-3.4c-.8 0-1.4 0-2-.5-.5-.5-.8-1.2-1-1.9-.4-1.2.2-3 1-3.9 1-1.2 2.6-1.4 4-1.4s2.8.4 3.9 1.4c.8.7 1.1 1.8 1 3z"/>
  <path class="st0" d="M47.5 64.7c-.8-.1-1.6.4-1.8 1.2-.2.8.1 1.6.9 1.8.8.1 1.9-.1 2.1-1 .2-1-.4-1.9-1.2-2zm-.5 2.6c-1.7-.1-1.1-2.6.4-2.3.6.1 1 .7 1 1.3.1.8-.7 1-1.4 1z"/>
  <path class="st0" d="M44.8 64c-.9.5-1.5 1.3-1.8 2.2 0 .2.3.3.3.1.3-.9.8-1.6 1.6-2 .2-.1.1-.4-.1-.3z"/>
  <path class="st0" d="M43 66.8c-.2 0-.2.3 0 .3s.2-.3 0-.3z"/>
  <path class="st0" d="M12.8 37.1c-.3-.5-.4-.8-.8-1a3 3 0 0 1-.8-.4c-.7-.6-.3-1.1-.3-1.8.1-.5-.1-.9-.4-1.3-.3-.7-.7-1.4-1.1-2-.4-.4-.7-.5-1.2-.4-.1 0-.1 0-.2.1-.2-.5-.5-1.3-1.1-1.4-.4 0-.8.1-1.3.4-.1-.1-.2-.3-.3-.5.2-.1.3-.4.2-.6-.3-.5-1.2-.3-1.6-.1-.4.2-.7.3-.9.7 0 .4-.2.8 0 1 .1.2.3.2.5.1.1.1.2.3.3.5-.4.2-.9.4-1.2.7-.4.5 0 1.2.3 1.7-.4.3-.8.5-.8 1 0 .6.4 1.4.7 1.9.3.7.5 1.3 1.2 1.7.4.2.8.3.9.7.2.5.1.9 0 1.4-.1.5 0 .8.1 1.2.3.7.6 1.5.9 2.2.3.6.6 1.6 1.1 2.1.3.3.6.3 1 .1 1.1-.3 2-.9 3-1.4.9-.4 1.8-.8 2.7-1.3.4-.2.7-.4.8-.8 0-.5-.4-1.3-.6-1.8-.2-1-.7-1.9-1.1-2.7zm-9.4-8c.2-.3.4-.4.7-.5.2-.1.3-.2.5-.2.1 0 .5 0 .5.1s-.7.4-.8.5c-.3.1-.5.3-.8.4l-.2.1c-.1-.1.1-.4.1-.4zm.5.5c.2-.1.5-.3.6-.4.1 0 .3-.1.5-.2 0 .1.1.2.1.3 0 .1.1.1.1.2-.3.2-.6.4-.9.5-.1 0-.1.1-.2.1-.1-.1-.2-.3-.2-.5zm-.7 1.5c.4-.3.9-.5 1.4-.7.5-.2.9-.5 1.4-.7.9-.4 1.2 0 1.5.8l-2.1.9c-.8.4-1.5.7-2.2 1.2-.2-.6-.5-1.2 0-1.5zm10.3 8.4c.3.6.8 1.6.5 2.2-.3.6-1.3.8-1.9 1.1-.7.4-1.4.7-2.2 1.1-.7.3-2 1.2-2.7.6l-.7-1.8c-.3-.6-.6-1.2-.8-1.8-.3-.6-.4-1-.3-1.7.1-.4.2-.8 0-1.2-.1-.4-.4-.8-.7-.9-.3-.2-.5-.2-.8-.5-.3-.3-.5-.8-.7-1.2-.4-.8-.9-1.7 0-2.4.8-.5 1.6-.9 2.5-1.4.7-.3 1.4-.5 2-.8.4-.2.9-.4 1.4 0 .3.2.4.6.5.9.3.5.5.9.8 1.4.3.6.1.9 0 1.5-.1.8.3 1.4 1 1.7.2.1.4.1.6.2.3.2.4.7.6 1 .3.7.6 1.3.9 2z"/>
  <path class="st0" d="M6.4 36.9c.9-.3 1.9-.8 2.7-1.3.2-.1 0-.5-.2-.4-.8.5-1.8 1-2.7 1.3-.2.1 0 .4.2.4z"/>
  <path class="st0" d="M9.7 36.6c-1.1.3-2.1.7-3 1.4-.2.1 0 .4.3.3.8-.6 1.8-1.1 2.8-1.3.2-.1.2-.5-.1-.4z"/>
  <path class="st0" d="M3.3 33.9c-.3.5.1 1.1.4 1.6.1.2.5.1.4-.2-.2-.4-.6-.8-.4-1.3.1-.2-.3-.4-.4-.1z"/>
  <path class="st0" d="M3.7 33.2c-.2.1-.1.5.2.4.2-.2 0-.5-.2-.4z"/>
  <path class="st0" d="M47 23.9c0-1.3-1.4-2.1-2.2-2.9.1-.7-.2-1.4-.7-2-.5-.5-1.4-.8-2.2-.6-.6-.6-1.2-1.2-1.8-1.7-.4-.3-.7-.5-1.2-.5s-.9.4-1.2.7l-1.5 1.5c-.5.5-1.1 1.2-1.6 1.8-.7.7-1.4 1.3-1.9 2-.5.6-1.1 1.4-.6 2.2.9 1.2 2.2 2.3 3.4 3.3 1.2 1.1 2.3 2.3 3.5 3.3.9.8 1.5.9 2.4 0 1.2-1.2 2.3-2.4 3.5-3.6.6-1.1 2-2.2 2.1-3.5zm-3.2-4.7c.7.8.9 1.8.2 2.7-.8.9-2 1.1-3 .3-.8-.7-.8-2.1-.1-2.9.8-.9 2.2-.9 2.9-.1zm1 7.3c-.9.9-1.8 1.8-2.6 2.7-.4.4-.8.8-1.2 1.3-.2.2-.4.5-.7.6-.6.3-1.1-.3-1.5-.6-.9-.8-1.8-1.6-2.7-2.5-.9-.8-1.8-1.6-2.7-2.5l-1.2-1.2c-.5-.6-.3-1.1.1-1.7.8-1.1 1.8-1.9 2.7-2.9.8-.9 1.7-1.8 2.6-2.7.7-.7 1.5-.8 2.3-.1.5.4 1 .9 1.5 1.4-.3.1-.5.3-.7.5-.9.9-.9 2.6 0 3.5.9.9 2.5.7 3.3-.2.3-.3.4-.6.5-.8.3.3.6.5.9.8.4.4.9.8 1.1 1.3.5 1.3-.9 2.3-1.7 3.1z"/>
  <path class="st0" d="M42 20.6c0 .3.2.4.5.4.2 0 .3-.2.3-.4.2-.1.4-.2.7-.4.2-.1 0-.4-.2-.3-.2.1-.4.2-.7.3-.2-.1-.7 0-.6.4zm.5-.1c0 .1-.2.2-.2 0h.2z"/>
  <path class="st0" d="M43 26.9c.4-.4.9-.8 1.1-1.3.1-.3.1-.7-.1-.9-.3-.3-.8-.9-1.2-1-.2-.1-.5 0-.7 0-.4 0-.9-.1-1.2-.4-1-.5-1.5-1.5-1.6-2.5-.1-.6-1-1.5-1.6-1.7-.8-.2-1.3.7-1.7 1.1-.8.9-1.8 1.8-2.5 2.8-.3.5-.3.9 0 1.3.4.6 1.1 1.1 1.5 1.6.5.5 1.1 1 1.6 1.5.5.4 1.1.9 1.6 1.4.4.4.7.8 1.2.9.9.2 1.4-.8 1.9-1.4.7-.4 1.2-.9 1.7-1.4zm-2.9 2.5c-.5.3-.9-.1-1.3-.5-1-.9-2-1.7-3-2.6-.5-.4-.9-.9-1.4-1.4-.4-.4-1.1-.8-.8-1.5.2-.5.7-.9 1.1-1.3.4-.4.8-.9 1.2-1.4.4-.5.9-1.5 1.7-1.2.4.1 1.2.9 1.2 1.3.1.9.5 1.9 1.2 2.5.4.3.8.5 1.2.6.4.1 1 0 1.4.2.2.1.5.4.6.5.4.2.4.5.1 1l-.3.3c-.4.5-.9.9-1.4 1.4-.4.4-.8.9-1.2 1.4.2.4 0 .6-.3.7z"/>
  <path class="st0" d="M41.5 19.6c.3-.3.7-.4 1.1-.3.2 0 .3-.3.1-.3-.5-.1-1 .1-1.4.4-.2.1.1.3.2.2z"/>
  <path class="st0" d="M41.2 19.7c-.1-.1-.4.1-.2.2.1.2.3 0 .2-.2z"/>
  <path class="st0" d="M14.9 57c-.5-.5-1.1-.8-1.8-.9 0 0 .1 0 .1-.1 1-.5 1.8-1.5 2-2.7v-.1c0-.1 0-.2-.1-.3-1.6-.6-3.4-.1-4.6 1 .1-1.2-.1-2.5-.7-3.5 0-.1-.1-.1-.1-.1-.5.2-.9.6-1.2 1 0 .1-.1.1 0 .2 0 0 0 .1.1.1.9.9 1.3 2.1 1.1 3.4-1.1-.8-1.8-2.1-3.2-2.6-1.4-.5-2.8-.1-3.8.8C-.1 55.5-.2 59.8.5 63c.4 1.7 1.4 2 3 2.2 1.2.1 1.8.7 2.6 1.4.5.4 1 .8 1.6 1 1.4.4 3.1-.8 4.1-1.6 1.5-1.3 2.9-2.7 3.7-4.5.6-1.3.6-3.2-.6-4.5zm-.1-3.6c-.2 1-.9 2-1.9 2.3-.9.3-1.9.1-2.7-.2.7-1.8 2.8-2.7 4.6-2.1zm-5.9-1.8c.2-.3.4-.5.7-.7.4.9.7 2.3.4 3.4 0-1-.4-1.9-1.1-2.7zm0 15.8C7 68 6.2 66 4.7 65.3c-.7-.3-1.5-.2-2.3-.4C1 64.6.8 63.4.6 62.2c-.3-2-.4-4.1.4-6 .8-1.9 2.7-3.9 5-3.2 1.6.4 2.3 2 3.6 2.8h.1c.4.2.8.3 1.3.4.2 0 .4.1.6.1 1 .1 1.9.2 2.7.9 2 1.8.8 4.8-.6 6.5-1.1 1.5-2.9 3.1-4.8 3.7z"/>
  <path class="st0" d="M5.9 54.4c-1.6-.1-3.1 1.2-3.5 2.7-.1.3.4.4.4.1.4-1.2 1.7-2.4 3-2.4.3 0 .4-.4.1-.4z"/>
  <path class="st0" d="M2.3 58c-.3-.1-.4.3-.2.4.2.1.4-.3.2-.4z"/>
  <path class="st0" d="M35.6 77.8c-.4-.5-1.1-.7-1.6-.9l-.6-.3c.2 0 .2-.3 0-.3H33c-.2-.2-.4-.4-.5-.6.2 0 .2-.4 0-.3h-.3c-.2-.2-.3-.4-.5-.5.2 0 .2-.4 0-.3h-.3c-.1-.2-.3-.4-.4-.6.2 0 .2-.4 0-.3h-.2c-.1-.1-.1-.2-.2-.3 0-.1-.1-.1-.1-.2.2 0 .2-.4 0-.3h-.2c-.2-.4-.4-.8-.7-.9h-.1c0-.2-.1-.3-.2-.5 0-.1 0-.1-.1-.2-.2-.1-.6-.1-.9-.1-.7.1-.8.7-.8 1.4-.2 0-.4.1-.5 0-.5-.1-1.1-.5-1.4-.9-.3-.4-.1-1-.5-1.2 0 0-.1 0-.1-.1.3-.4.1-1.2-.5-1.2-.3 0-.5.1-.5.4 0 .1.1.3.2.4.1.2.1.5-.1.7-.8.7-2.2 1.4-2 2.7-.8.3-.7 1.5-.3 2.1.8 1 2.2 1.5 3.3 2.1.6.3 1.2.5 1.8.9.7.5 1.3 1.1 1.9 1.6 1 .8 1.9.9 3.1.9h2.2c.5 0 .9 0 1.4-.4.7-1 .7-2.1.1-2.8zm.1 1.1c-.9.5-2.3.5-3.3.4-.5 0-.9-.2-1.4-.3.2-.7 1.1-.8 1.7-.7.3 0 .5.1.8.1.4-.1.8-.4 1.1-.8.2.1.3.2.4.3.4.1.7.6.7 1zm-5.8-6.2h-.7c-.2 0-.2.3 0 .3h.9c.1.2.2.4.3.5h-.7c-.2 0-.2.3 0 .3h.9c.1.2.3.4.4.5h-.5c-.2 0-.2.3 0 .3h.8c.1.2.3.4.5.5h-.5c-.2 0-.2.3 0 .3h.8c.1.2.3.4.5.5h-.4c-.2 0-.2.3 0 .3h.7c.1.1.2.1.3.2-1.1.6-2.1-.7-2.7-1.5-.8-.9-1.4-2-2-3 .2-.1.4-.2.6-.1.3.3.6.6.8.9zm-1.5-1.4c.1 0 .4-.1.5 0 .1 0 .2.3.2.4-.3 0-.6.2-.8.3-.1.1-.3.1-.4.2-.1-.4 0-.8.5-.9zm-3.3-.1c.1.3.3.6.6.8.6.5 1.3.8 2 .5.1 0 .3-.1.4-.2.1.1.1.3.3.4-.8.3-1.5.4-2.4.1-1-.4-1.6-1.2-1.8-2.3l.1-.1c.5-.3.7.5.8.8zm-.5-2c.3.1.3.5 0 .8 0-.1 0-.3-.1-.4 0-.1-.1-.1-.1-.3-.1-.1 0-.1.2-.1zm-.6 1.6c.5 2.2 2.6 3.1 4.6 2.3.7 1.1 1.4 2.2 2.3 3.2.7.8 1.8 1.3 2.7.7 0 0 .1 0 .1.1.2.1.5.2.7.3-.3.4-.7.7-1.2.7-.3 0-.7-.1-1-.1-.5.1-1.2.4-1.5.9-.7-.3-1.2-.7-1.8-1.2h-.1l.1-.1c.3-.8 0-1.7-.7-2.3-.7-.6-1.6-.7-2.6-.5h-.1c-1.1-.7-2.2-1.2-3.2-1.8-.1-.9.9-1.6 1.7-2.2zm4.6 6.6c-.8-.8-1.6-1.6-2.6-2.3.7-.1 1.3-.1 1.9.3.6.4 1 1.3.7 2zm6.7 2.5c-.5.4-1.3.4-1.9.4-1 0-2.3.2-3.2-.1-1.1-.4-1.8-1.4-2.7-2.1-.9-.7-2-1.1-3.1-1.6-.6-.3-1.1-.6-1.6-.9-.3-.2-.7-.5-.8-.8-.2-.4-.1-1.2.4-1.4 1.4.7 2.8 1.4 4 2.3 1.3.9 2.2 2.2 3.5 3.1 1 .6 2 .9 3.1 1 .9 0 1.9.1 2.7-.3-.1.1-.2.3-.4.4z"/>
  <path class="st0" d="M23.5 75.2c-.4-.2-1.1-.6-1.1-1.1 0-.2-.3-.2-.3 0 0 .7.8 1.2 1.4 1.5.1 0 .3-.3 0-.4z"/>
  <path class="st0" d="M23.9 75.6c-.2 0-.2.3 0 .3s.2-.3 0-.3z"/>
  <path class="st0" d="M66.2 87.8c.3-1.6.5-3.3.6-5 0-1.3-.1-2.7-.9-3.7-.7-.8-1.6-1.2-2.6-1.2-1.5-.4-2.7 0-3.9.9-1.1.8-1.6 1.9-1.8 3.3-.1 1.9.1 3.8.4 5.7-.4 0-.9.1-1 .4-.1.2 0 .7 0 .8.1.3.4.3.5.4.2.3 0 1.2 0 1.5-.1.5-.1.9 0 1.4.1.6.1 1.5.8 1.6 2.1.5 1.4-2.5 1.1-3.5-.1-.2-.1-.4-.2-.6-.1-.8 0-.5.2-1 .1-.3.1-.4.1-.7-.1-.7-.6-.5-1.2-.5-.2-1.2-.3-2.3-.4-3.5 0-1.1-.1-2.2.2-3.2v-.1c-.3 1.1-.2 2.3.3 3.4.9 2.1 3.4 2.6 5.5 1.7.9-.4 1.9-1 2.2-2 .4-1.1.4-2.6 0-3.8-.2-.5-.6-1-1-1.4.4.3.8.6 1 1.1.5 1.1.5 2.5.4 3.7-.1 1.4-.3 2.7-.5 4-.5 0-1.1-.1-1.2.5-.1.2-.1.6 0 .8.2.4.4.2.4.7 0 1-1.4 4.2.5 4.4 1.8.2 1.4-2.4 1.2-3.5 0-.3-.1-.8 0-1.1.1-.1.3-.2.3-.3.1-.2.1-.5.1-.7-.1-.5-.6-.4-1.1-.5zm-7.1.4c.3.2-.1.7-.2.8-.2.4-.3.4-.2.8.1.8.4 1.6.5 2.4 0 .4.2.9 0 1.2-.3.3-.7.4-1 .2-.6-.3-.5-1.6-.5-2.3 0-.5.3-1.3.1-1.8-.1-.3-.1-.2-.4-.4-.7-.8.3-.9.9-.9.2-.1.7-.2.8 0zm3.3-9.9c.4 0 .8.1 1.1.4 1.2.6 1.9 1.5 1.8 2.9-.1 1.2-.7 2.5-1.9 2.9-1.1.3-2.7.3-3.4-.8-.5-.9-.5-2.3-.1-3.2a3 3 0 0 1 2.5-2.2zm3.4 5.4c-.5 2-3.2 2.7-5 2.3-2.2-.5-2.8-3.1-2.3-5 .4-1.4 1.4-2.3 2.7-2.6-.5.3-.9.6-1.3 1.1-1.2 1.8-1 5 1.5 5.5 1.1.2 2.4 0 3.2-.8.8-.8 1.1-2.2 1-3.4 0-.1 0-.3-.1-.4.5 1 .5 2.2.3 3.3zm.7 5.4c-.3.4-.3.4-.3 1 .1.7.7 3.9-.7 3.6-1.4-.3-.2-3.1-.2-4 0-.3 0-.4-.1-.6-.1-.2-.5-.6-.2-.9.1-.1.9 0 1.1 0 .7.1.9.3.4.9z"/>
  <path class="st0" d="M73.1 58.1c-.2-1.7-.8-3.2-1.9-4.5.2-.2.4-.4.6-.7l.3.3c.3.1.4-.1.6-.3.2-.2.4-.5.3-.7-.1-.3-.6-.6-.8-.8-.3-.2-.6-.6-1-.7-.3-.1-.5.1-.7.4-.1.2-.3.3-.2.6 0 .1.1.2.2.3-.2.2-.3.4-.5.5-.9-.6-2-1-3.1-1.2v-.5h.4c.4-.1.4-.3.4-.7 0-.4.1-1.2-.3-1.5-.5-.4-1.6-.2-2.1-.2-1.1 0-2.6-.3-2.6 1.1 0 .3-.1.9.1 1.2.1.1.4.2.7.2v.6c-2.5.7-4.6 2.4-5.6 4.9-1.2 3.1-.4 7 2.2 9.1 1 .8 2.1 1.5 3.4 1.7 1.9.3 4.1.2 5.8-.8 1.2-.6 2.3-1.8 3-2.9.8-1.6 1-3.7.8-5.4zM71 51c.2 0 .6.4.8.6.2.1.4.3.6.5.1.2 0 .4-.2.6-.3-.2-.6-.5-.9-.7-.3-.2-.5-.4-.8-.7.2-.1.4-.3.5-.3zm-.3 1.1c.1.1.3.2.4.3.1.1.2.1.3.3l-.6.6-.4-.4-.2-.2c.2-.2.3-.4.5-.6zm-7.8-2.2v-.5c.1-.5.4-.5.9-.6.4-.1.9 0 1.4-.1h1.2c.4 0 .6 0 .8.5 0 .1.1.6 0 .8-.1.4-.5.3-.9.3h-1.5c-.6-.1-1.7.1-1.9-.4zm.9.8H66.4v.5c-.3 0-.7-.1-1-.1-.5 0-1.1.1-1.6.2v-.6zm8.5 11.4c-.4 1.4-1.5 2.5-2.7 3.4-1.4 1.1-3.1 1.3-4.8 1.3-1.5 0-2.6-.3-3.8-1.2-2.6-1.7-3.9-5-3.2-8.1a7.8 7.8 0 0 1 7.5-6c3.5.1 6.3 2.2 7.1 5.6.4 1.6.4 3.4-.1 5z"/>
  <path class="st0" d="M69.2 54c0-.1 0-.1 0 0 0-.1 0-.1 0 0-2.4-1.7-5.7-1.8-8 0a6.97 6.97 0 0 0-2.4 7.4c.7 2.5 4.1 4.6 6.6 4.4.8 0 1.8-.2 2.4-.6 1.1-.7 2.3-1.8 3-2.9 1.9-2.8 1-6.4-1.6-8.3zm2.1 3.9c.3 1.9-.3 3.8-1.6 5.2-.9.9-1.8 1.9-3.1 2.2-1.4.3-2.8.2-4.1-.5-1.4-.8-3-2.1-3.4-3.8a6.8 6.8 0 0 1 1-5.2c2-2.9 6-3.5 8.9-1.5 1.1.9 2 2.1 2.3 3.6z"/>
  <path class="st0" d="M68.1 55.7c-.8.8-1.6 1.7-2.5 2.5-.3-.3-.8-.3-1.1 0-.4.3-.5 1.1-.2 1.4.3.4 1 .4 1.4.1.4-.3.4-.8.2-1.1.8-.8 1.7-1.7 2.5-2.6.2-.2-.1-.4-.3-.3zm-3.4 3.7c-.2-.1-.1-.5 0-.7.2-.3.5-.3.7 0 .5.5-.2 1.1-.7.7z"/>
  <path class="st0" d="M62.7 54.6c-1.5.8-2.2 2.2-2.6 3.8-.1.3.4.4.4.1.4-1.5 1-2.8 2.4-3.5.2-.1 0-.5-.2-.4z"/>
  <path class="st0" d="M60.2 59.4c-.3 0-.3.4 0 .4.3.1.3-.4 0-.4z"/>
  <path class="st0" d="M65.3 49.7v-.6c0-.3-.4-.3-.4 0v.6c0 .3.4.3.4 0z"/>
  <path class="st0" d="M66.4 49.5V49c0-.3-.4-.3-.4 0v.5c0 .3.4.3.4 0z"/>
  <path class="st0" d="M64 49.7v-.5c0-.3-.4-.3-.4 0v.7c.1.2.5 0 .4-.2z"/>
  <g class="whey">
    <path class="st0" d="M96.9 47.7c-.5-1-.9-2-1.4-3-.5-1.1-.8-2.1-1.6-3-.5-.6-1.2-1.2-2-1.4-.5-.1-1.4 0-1.8-.3-.1-.1-.3-.3-.4-.6.2-.1.4-.1.6-.3.2-.1.3-.3.2-.4-.1-.3-.4-.3-.6-.1-.3-.5-.4-1.3-.8-1.8-.1-.1-.1-.1-.2-.1-.7.1-1.5.7-2.2.9-1.1.5-2.1.9-3.1 1.4-.9.4-1.9.8-2.8 1.2-.4.2-1.1.3-1.3.8v.2c.2.5.4 1 .7 1.5-.3.1-.4.3-.3.5.1.2.3.1.5.1l.6-.3c.1.3.3.5.3.5 0 .2-.4.6-.5.8-.5.8-.8 1.7-.9 2.7-.1 2.2.9 4 1.8 5.9.5 1.1 1 2.2 1.5 3.2s.8 2.2 1.4 3.1c.9 1.4 2.2 1 3.5.5 1.6-.7 3.1-1.4 4.7-2.1 1.9-.8 4-1.4 5.8-2.6 1.2-.8 1-1.7.5-2.9-.8-1.2-1.5-2.8-2.2-4.4zM84.3 57.9c-.8-1.8-1.6-3.6-2.4-5.3-.4-.9-.9-1.9-1.2-2.8 4.6-2.1 9.1-4.6 13.9-6.1.2.5.4 1.1.6 1.6.4.8.7 1.7 1.1 2.5.6 1.3 1.1 2.6 1.7 3.9 0 .1.1.2.1.3-.5.2-.9.5-1.3.7-.7.3-1.4.5-2 .8-1.2.5-2.4 1-3.6 1.6-1.1.6-2.2 1.1-3.4 1.5-1.2.4-2.3 1.1-3.4 1.6 0-.1-.1-.2-.1-.3zm-2.7-14.3c-.1-.3-.2-.5-.3-.7 2.6-1.3 5.3-2.2 7.9-3.4.1.3.2.5.3.8-2.7 1-5.3 2.2-7.9 3.3zm.6-3.3c1-.4 2-.8 3-1.3.8-.4 1.6-.8 2.5-1.1.7-.3.9-.5 1.4 0 .2.3.4.6.1.9-.1.2-1 .5-1.2.6-.4.2-.9.4-1.4.5-.9.4-1.9.7-2.8 1.1-1 .4-2 .9-3 1.4-.2.1-.3.1-.4.1-.2-.3-.4-.9-.5-1.3.3-.2 1.9-.7 2.3-.9zm-1.6 5.6c.2-.6.8-1.2 1-1.8 2.8-1.1 5.5-2.4 8.3-3.5 1.7.1 3.1.6 4.2 2.1l.3.6c-4.8 1.5-9.3 3.9-13.9 6-.3-1.1-.4-2.2.1-3.4zm16.8 9.4c-2.7 1.4-5.6 2.4-8.4 3.7-.7.3-1.3.6-2 .9-1.4.5-1.9-.3-2.4-1.2 1.1-.5 2.1-1.1 3.2-1.5 1.3-.5 2.4-.9 3.6-1.6 1.1-.6 2.3-1 3.4-1.5.7-.3 1.4-.5 2-.8.5-.2 1-.6 1.6-.8.1.2.2.4.3.7.4 1.1-.3 1.6-1.3 2.1z"/>
    <path class="st0" d="M81.2 41.9c-.1-.2-.1-.4-.2-.5-.1-.3-.6-.1-.5.2.1.2.1.4.2.5.2.3.6.1.5-.2z"/>
    <path class="st0" d="M85 40.2c-.1-.2-.1-.4-.2-.5-.1-.3-.6-.1-.5.2.1.2.1.4.2.5.2.3.6.1.5-.2z"/>
    <path class="st0" d="M82.5 41.3c-.1-.2-.1-.4-.2-.5-.1-.3-.6-.1-.5.2.1.2.1.4.2.5.1.3.6.1.5-.2z"/>
    <path class="st0" d="M83.7 40.8c-.1-.2-.1-.4-.2-.5-.1-.3-.6-.1-.5.2.1.2.1.4.2.5.2.3.7.1.5-.2z"/>
    <path class="st0" d="M86.2 39.6c-.1-.2-.1-.4-.2-.5-.1-.3-.6-.1-.5.2.1.2.1.4.2.5.2.4.7.1.5-.2z"/>
    <path class="st0" d="M87.5 39.1c-.1-.2-.1-.4-.2-.5-.1-.3-.6-.1-.5.2.1.2.1.4.2.5.2.3.6.1.5-.2z"/>
    <path class="st0" d="M88.8 38.6c-.1-.2-.1-.4-.2-.5-.1-.3-.6-.1-.5.2.1.2.1.4.2.5.1.3.6 0 .5-.2z"/>
    <path class="st0" d="M87.7 54.8c.2.2.5 0 .4-.3-.6-1.7-1.2-3.4-1.8-5-.1-.3-.6-.1-.5.2.5 1.3.9 2.5 1.4 3.8-.9-1.1-1.7-2.3-2.5-3.5-.1-.2-.5 0-.4.2.3 1.3.7 2.7.9 4-.7-1.2-1.3-2.3-1.9-3.5-.1-.3-.6-.1-.5.2.9 1.6 1.8 3.2 2.6 4.7.1.3.5.1.5-.1-.1-1.4-.5-2.7-.8-4.1.8 1.3 1.6 2.4 2.6 3.4z"/>
    <path class="st0" d="M89.5 53.8l-1.2-2.1c.2-.1.4-.2.7-.3.3-.1.5-.2.8-.3.4.7.7 1.5 1.1 2.2.1.3.6.1.5-.2-.8-1.6-1.6-3.1-2.3-4.7-.1-.3-.6-.1-.5.2l.9 2.1c-.3.1-.5.2-.8.3-.3.1-.5.2-.7.3-.3-.7-.6-1.4-.8-2-.1-.3-.6-.1-.5.2.6 1.7 1.4 3.2 2.3 4.7.3.2.7-.1.5-.4z"/>
    <path class="st0" d="M91.8 52.7c.5.6 1.4.1 1.9-.3.3-.2 0-.6-.3-.4-.7.5-1.1.4-1.6-.3-.2-.3-.4-.8-.5-1.1.4-.1.8-.3 1.2-.5.3-.1.1-.6-.2-.5-.4.2-.8.4-1.2.5-.3-.7-.6-1.3-.9-2 .4-.2.8-.3 1.2-.5.3-.1.1-.6-.2-.5-.5.2-.9.4-1.4.6-.1 0-.1.1-.1.1-.1.1-.1.1 0 .3.4.8.7 1.6 1.1 2.4.3.8.6 1.7 1 2.2z"/>
    <path class="st0" d="M94 49.5c.3.7.7 1.4 1 2 .1.3.6.1.5-.2-.4-.7-.7-1.3-1-2 .1-.3-.1-.8-.1-1.1l-.3-2c-.1-.3-.5-.3-.5.1.1.5.2.9.3 1.5 0 .2.2.7.2 1.1l-1.8-1.8c-.2-.2-.6.1-.4.3l2.1 2.1z"/>
    <path class="st0" d="M81.5 48c-.1-.8.1-1.6.7-2.2.2-.2-.1-.6-.3-.4-.7.7-1 1.7-.8 2.7-.1.3.5.3.4-.1z"/>
    <path class="st0" d="M82.6 45.4c.3-.1.1-.6-.2-.5-.3.1-.1.6.2.5z"/>
  </g>
  <g>
    <path class="st0" d="M93.7 63c-.3.1-.5.4-.7.6-.2.3-.3.5-.5.7-.4.5-.7.6-1.3.7-.9.1-1.8 0-2.7 0-.5 0-1-.1-1.2.4-.3 1 1.3 1 2.4.9-1 1.9-1.9 3.9-2.7 6l-1.2-.3c-1.2-.3-2.5-.6-3.8-.7l-1.2-4.8c.5 0 1 0 1.5-.1.9-.1.7-1.2-.1-1.2-.7-.1-1.4-.1-2-.3-.7-.1-1.2-.3-1.9-.2h-.1s-.1 0-.1.1c-.6.3-.7 1.3-.1 1.8.4.3 1.1.4 1.5.3h.1c.3 1.5.7 3 1.1 4.6-.9.1-1.7.5-2.3 1.3-1.6 1.7-1.2 4.4.8 5.6.3.2.5.3.8.4-.1.1-.3.3-.3.4-.1.4.2.8.6.9.4.1.8-.1 1-.5v-.4c.5.1 1.1.1 1.6.1 1.8.1 3.6.1 5.4 0 .4 0 .8 0 1.3-.1v.1c-.1.4.2.8.6.9.4.1.8-.1 1-.5.1-.2 0-.5-.1-.7.3-.1.5-.1.7-.2.8-.4 1-1.4.9-2.2-.3-1.9-2.1-3-3.9-3.7.9-2.2 1.6-4.4 2.7-6.5.6 0 1.2 0 1.6-.4.4-.4.7-1 .9-1.4.1-.2.5-.6.5-.9-.1-.5-.4-.8-.8-.7zm-14.8 3.4c-.4-.1-1.2-.9-.5-1.2.8-.1 1.5.2 2.2.3.3.1 1.2 0 1.5.2.5.3-.4.4-.7.4-.4 0-.7.1-1.1.2-.5.1-1 .3-1.4.1zm1.2.4c.1 0 .3-.1.4-.1v.1c.4 1.6.8 3.1 1.2 4.6h-.5c-.3-1.5-.7-3.1-1.1-4.6zm.8 12.6c-.1.2-.3.3-.5.2-.2 0-.3-.2-.2-.4.1-.1.2-.2.4-.3.2.1.3.3.3.5zm9.8 0c-.1.2-.3.3-.5.2-.2 0-.3-.2-.2-.4.1-.1.1-.2.3-.2h.1c.2 0 .3.2.3.4zm1.4-2.3c-.1 1.5-1.9 1.4-3.1 1.6-1.5.2-3 .1-4.5.1-2.6 0-7.4-.3-6.6-4.2.8-3.8 5.2-2.7 7.9-2.1 2.2.4 6.6 1.7 6.3 4.6zm-3.9-4.5c-.2-.1-.4-.1-.7-.2.8-2.1 1.7-4.1 2.7-6.1h.5c-.9 2-1.6 4.2-2.5 6.3zm5.4-8.3c-.2.3-.4.7-.6.9-.5.6-1.1.7-1.7.7h-2.5c-.4 0-1.3-.1-.5-.4.4-.1 1.1 0 1.5 0h1.6c.4 0 .7 0 1-.2.5-.3.5-.9.9-1.3.9-.8.4.1.3.3z"/>
    <path class="st0" d="M84.8 73c-.1.1-.1.1-.1.2 0 0 0 .1.1.1.2.1.4.3.6.4-.2.1-.4.2-.7.3-.3-.7-.9-1.2-2-1.5-1.5-.3-3.1.9-3.4 2.4-.4 1.6.8 2.9 2.4 3.2 1.6.3 2.9-.4 3.2-2.1.1-.6.1-1.1 0-1.5.3-.1.6-.3.9-.4.1.1.3.2.4.4.1.1.2.1.3 0h.1c.2-.1.7-.4.5-.7-.1-.3-.5-.5-.8-.7-.3-.2-.6-.4-.9-.5-.2-.2-.4.2-.6.4zm-.3 2.7c-.1 1.5-1.1 2.3-2.5 2.1-1.4-.1-2.5-1.1-2.2-2.6.3-1.2 1.6-2.3 2.9-2 .7.2 1.5.3 1.8 1.2-.7.4-1.5.7-2.3.9-.3.1-.1.5.1.4.8-.3 1.5-.6 2.2-.9v.9zm2.2-1.9c-.1.1-.2.1-.3.2-.4-.3-.7-.6-1.1-.9l.1-.1c.1 0 .4.2.4.3.3 0 .7.3.9.5z"/>
    <path class="st0" d="M90.6 76.4c0 .3.4.3.5 0 0-.6-.3-1.2-.7-1.6-.2-.2-.5.1-.3.3.3.3.5.8.5 1.3z"/>
    <path class="st0" d="M90.6 77c-.3 0-.3.4 0 .4.3.1.3-.4 0-.4z"/>
  </g>
  <g>
    <path class="st0" d="M39 .3c-.2 0-.3.3-.4.4-.1.2-.2.3-.3.5-.3.4-.5.4-.9.4h-1.9c-.3 0-.7-.1-.8.3-.2.7.9.7 1.6.7-.7 1.4-1.3 2.7-1.9 4.1-.3-.1-.6-.1-.8-.2-.8-.2-1.7-.4-2.6-.5-.3-1.1-.6-2.2-.8-3.3.4 0 .7 0 1.1-.1.6-.1.5-.8-.1-.9-.5 0-.9-.1-1.4-.2s-.8-.2-1.3-.1h-.1-.1c-.4.2-.5.9-.1 1.2.3.4.8.5 1.1.4h.1c.3 1.1.5 2.1.8 3.2-.6.1-1.2.3-1.7.8-1.1 1.2-.8 3 .5 3.9l.6.3c-.1.1-.2.2-.2.3-.1.3.1.5.4.6.3 0 .6-.1.7-.4v-.3c.4.1.7.1 1.1.1h3.8c.3 0 .6 0 .9-.1v.1c-.1.3.1.5.4.6.3 0 .6-.1.7-.4 0-.1 0-.3-.1-.4.2 0 .3-.1.5-.1.6-.3.7-.9.6-1.5-.2-1.3-1.5-2.1-2.7-2.6.6-1.5 1.1-3 1.9-4.5.4 0 .8 0 1.1-.3.3-.3.5-.7.7-1 .1-.1.3-.4.3-.6-.2-.2-.4-.4-.7-.4zM28.8 2.7c-.3-.1-.8-.7-.3-.9.5 0 .9.2 1.5.3.2 0 .8 0 1 .1.4.2-.3.3-.5.3-.3 0-.5.1-.8.1-.3.1-.6.2-.9.1zm.8.2c.1 0 .2-.1.3-.1.3 1.1.6 2.2.8 3.2h-.4c-.2-.9-.4-2-.7-3.1zm.6 8.8c0 .1-.2.2-.3.1-.1 0-.2-.1-.1-.3.1-.1.1-.1.3-.2 0 .1.1.3.1.4zm6.8 0c0 .1-.2.2-.3.1-.1 0-.2-.1-.1-.3 0-.1.1-.1.2-.1h.1s.1.2.1.3zm1-1.6c-.1 1-1.3 1-2.1 1.1-1 .1-2.1.1-3.1.1-1.8 0-5.1-.2-4.6-2.9.5-2.6 3.6-1.9 5.5-1.5 1.4.3 4.4 1.2 4.3 3.2zM35.2 7c-.1 0-.3-.1-.4-.1.6-1.4 1.2-2.9 1.9-4.3H37C36.4 4 35.8 5.5 35.2 7zm3.7-5.8c-.1.2-.3.4-.4.6-.4.4-.7.4-1.2.4h-1.7c-.3 0-.9-.1-.3-.3.3-.1.7 0 1 0h1.1c.3 0 .5 0 .7-.1.3-.2.4-.7.7-.9.6-.4.2.2.1.3z"/>
    <path class="st0" d="M32.9 7.2v.1l.1.1c.1.1.3.2.4.3-.1.1-.3.1-.5.2-.2-.5-.7-.8-1.4-1-1.1-.2-2.2.6-2.4 1.6-.3 1.1.6 2 1.7 2.2 1.1.2 2-.3 2.2-1.5v-.9c.2-.1.4-.2.7-.3.1.1.2.1.3.3H34.3c.1-.1.4-.3.4-.5s-.4-.4-.5-.5c-.2-.1-.4-.3-.6-.4-.4 0-.6.2-.7.3zm-.2 1.9c-.1 1-.7 1.6-1.8 1.4-.9-.1-1.8-.8-1.5-1.8.2-.8 1.1-1.6 2-1.4.5.1 1.1.2 1.2.8-.5.3-1 .5-1.6.7-.2.1-.1.4.1.3l1.5-.6c.1.2.1.4.1.6zm1.5-1.3s-.1.1-.2.1c-.3-.2-.5-.4-.8-.6l.1-.1c.1 0 .3.1.3.2.2.1.5.3.6.4z"/>
    <path class="st0" d="M36.9 9.6c0 .2.3.2.3 0 0-.4-.2-.8-.5-1.1-.1-.1-.4.1-.2.2.2.3.4.6.4.9z"/>
    <path class="st0" d="M36.9 10c-.2 0-.2.3 0 .3s.2-.3 0-.3z"/>
  </g>
  <g>
    <path class="st0" d="M81.2 95.6c.6-1.6 1.5-3.1 1.8-4.8.1-.7-.1-.7-.7-.9-.6-.3-1.2-.5-1.8-.7-.1-.1-.1-.2-.2-.3-.2-.3-.1-.3.1-.6.1-.2.2-.4.1-.6-.1-.5-.9-.8-1.4-.6-.5.1-.4.6-.6.9-.1.1-.5.1-.7.2-.7-.3-1.6-.7-2.3-.7-.3 0-.4.2-.6.4l-.6 1.5c-.5 1.4-1.1 2.7-1.5 4.1-.2.5-.4 1.1-.6 1.6-.1.4-.4.9-.4 1.4.1.9 1.1 1.1 1.8 1.4 1.2.5 2.4.8 3.6 1.3.5.2 1 .3 1.5.5.4.1.7.3 1 0 .5-.4.6-1.1.8-1.6.2-.9.4-1.7.7-2.5zm-2.6-7.3c.1 0 .1-.1.1-.1.1-.4.1-.9.6-.9.3 0 .8.2.8.6 0 .2-.2.5-.4.6 0 0-.1.1 0 .1.2.4.6.7.7 1.1 0 .1.1.4 0 .5-.3.4-.8.2-1.2 0-.5-.2-1-.4-1.5-.5-.1 0-.4-.1-.4-.2-.2-.2-.1-.2-.1-.4 0-.1.1-.3.1-.4.2-.4.9-.4 1.3-.4zm2.1 2.1c.2.1.5.2.7.3.1 0 .3.1.3.1 0 .1-.1.3-.1.3-.2.5-.4.9-.5 1.4-.5 1.4-1 2.7-1.5 4.1-.2.5-.4.9-.5 1.4l-.1.3c-.1.1-.8-.3-1-.3-.5-.1-1.1-.3-1.7-.5-.6-.3-1.2-.4-1.8-.7-.4-.1-1.1-.3-1.1-.7 0-.3.1-.6.2-.8.4-1.2.9-2.4 1.3-3.7.2-.5.4-1.1.7-1.6.1-.2.2-1.1.4-1.2.2-.1.8.1 1.1.3-.1.2-.1.5 0 .6.3.3 1 .4 1.4.5.4.2.9.3 1.4.5.3.2.6.2.8-.3zm.7 4c-.5 1.2-.9 2.4-1.4 3.6-.3.7-.4 1.5-1.3 1.3-.4-.1-.8-.3-1.2-.4-.9-.3-1.8-.7-2.7-1l-1.5-.6c-.3-.1-.6-.2-.8-.3-.7-.5-.4-1.1-.2-1.7.2-.5.3-.9.5-1.4.4-1.1.8-2.1 1.2-3.2.2-.6.4-1.2.7-1.8.1-.3.3-.9.5-1.2.4-.4 1.6.2 2.3.4-.1.1-.2.1-.3.3v.1s0 .1-.1.1c-.3-.1-.9-.4-1.2-.4s-.3.4-.4.7l-.9 2.4c-.4 1.3-1 2.6-1.4 3.9-.1.3-.3.8-.1 1.1.1.1.5.3.7.4.3.1.7.3 1 .4.7.2 1.4.4 2.1.7.5.2 1.1.4 1.7.6.2.1.4.1.6 0 .2-.2.3-.8.4-1 .6-1.5 1.2-3.1 1.7-4.6.2-.6.5-1.2.7-1.8.2-.6-.6-.8-1.1-.9V90c0-.2 0-.3-.1-.5.2.1.4.2.7.3.2.1.5.2.7.3.5.2.7.2.7.7-.3 1.2-1 2.5-1.5 3.6z"/>
    <path class="st0" d="M78.4 91.6c-.4-.2-.7-.3-1.2-.5-.2 0-.3.2-.1.3.4.1.8.3 1.2.5.2.1.4.1.6.2.3.1.5.2.8.3.1.1.3-.2.1-.3l-.6-.3c-.3-.1-.6-.1-.8-.2z"/>
    <path class="st0" d="M76.6 92.5c-.2-.1-.3.2-.1.3.5.1.9.3 1.4.5.4.2.8.3 1.3.4.2 0 .3-.2.1-.3-.9-.2-1.8-.6-2.7-.9z"/>
    <path class="st0" d="M78.8 94.9c-.5-.1-.9-.3-1.4-.5-.5-.2-.9-.4-1.4-.4-.2 0-.2.3 0 .3.5 0 1 .3 1.5.5.4.1.8.3 1.2.4.2 0 .3-.2.1-.3z"/>
    <path class="st0" d="M78.2 96.3c-.9-.2-1.8-.8-2.7-1-.2 0-.2.3 0 .3.9.2 1.7.8 2.6 1 .2 0 .3-.2.1-.3z"/>
    <path class="st0" d="M76.7 91c-.1 0-.1-.1-.2-.1-.2 0-.3.2-.1.3.1 0 .1.1.2.1s.2-.2.1-.3z"/>
    <path class="st0" d="M75.8 92.5h.1c0 .1.1.1.2.1 0 0 .1-.1 0-.1 0-.1-.2-.1-.3-.1-.2-.2-.2.1 0 .1z"/>
    <path class="st0" d="M75.5 93.8c-.1 0-.1-.1-.2-.1-.2-.1-.3.2-.1.3.1 0 .1.1.2.1.2 0 .3-.2.1-.3z"/>
    <path class="st0" d="M75 95.1c-.1 0-.1 0-.2-.1-.2-.1-.3.2-.1.3.1 0 .1 0 .2.1.2 0 .3-.2.1-.3z"/>
    <path class="st0" d="M79.4 88c.2.1.3-.2.1-.3-.1-.1-.2.2-.1.3z"/>
    <path class="st0" d="M77.7 89.2c0-.1.1-.3.1-.3.1-.1.2-.1.3-.1.2 0 .1-.3 0-.3-.2 0-.3.1-.5.2-.1.1-.2.3-.3.4.1.2.3.3.4.1z"/>
    <path class="st0" d="M78.5 88.8c.2.1.3-.2.1-.3-.1-.1-.3.2-.1.3z"/>
  </g>
  <g>
    <path class="st0" d="M51 89.3c-.1-.4-.2-1.1-.6-1.5-.4-.4-.7-.6-.5-1.2 0-.2.2-.3.2-.5 0-.8-.6-1.5-1.1-2-.2-.2-.5-.4-.7-.5-.5-.3-.7-.4-.9-1 .1 0 .2-.1.3-.1.3-.1.1-.5-.1-.4h-.1c-.1-.5-.3-1.4-.7-1.5-.5-.1-1.3.3-1.8.5s-1.2.3-1.7.6 0 1.2.1 1.7h-.1c-.3.1-.1.4.1.4.1 0 .2 0 .3-.1.2.5.2.7 0 1.1l-.3.6c-.3.7-.4 1.5-.1 2.2.1.5.3.5.7.8.8.7.1 1.1.2 1.8.1 1.1.7 2.2 1 3.2.3.7.5 1.5.7 2.2.2.7.4 1.5.7 2.1.5 1 1.6.7 2.5.4.9-.2 1.7-.5 2.6-.8.7-.2 1.2-.4 1.5-1.1.4-1.1-.4-2.6-.8-3.6-.7-.9-1.1-2.1-1.4-3.3zm-6.5 1.8c0-.1 0-.2-.1-.3 1.9-.8 4-1.3 5.9-2 .6 1.9 1.2 3.8 1.9 5.8-.9.5-1.9.7-2.9 1-1 .3-2 .7-3 1-.6-1.8-1.2-3.6-1.8-5.5zm-1.1-8.6c0-.4.1-.3.3-.4.4-.2.9-.3 1.3-.4.4-.1.8-.4 1.2-.4.5 0 .6.7.8 1.1-1.1.4-2.2.7-3.3 1.1-.1-.4-.3-.8-.3-1zm1 6.2c-.1-.2-.4-.3-.6-.4-.3-.2-.3-.4-.4-.8-.2-.9.1-2 .8-2.7 0 0 .1-.1 0-.2l-.3-.9c1-.3 2-.6 2.9-.9l.3.9c0 .1.1.1.1.1.8.1 1.5.7 1.9 1.4.3.4.4.8.3 1.2 0 .2-.2.4-.2.6 0 .3.1.6.3.8.1.2.4.3.6.5 0 .1.1.1.1.2-2 .7-4 1.2-5.9 2 0-.2 0-.4.1-.8.2-.4.3-.7 0-1zm7.4 8.3c-.6.4-1.6.5-2.2.7-.5.1-1 .3-1.5.4-.3 0-.7.1-1 0-.3-.2-.5-.7-.6-1.1v-.1c1.1-.3 2.2-.8 3.4-1.1.9-.3 1.8-.4 2.6-.9.1.9.2 1.6-.7 2.1z"/>
    <path class="st0" d="M47.5 93.5c.1-.1.3-.1.5-.2 0 .6.1 1.2.1 1.8 0 .2.3.4.4.1.4-1.1.7-2.2 1.1-3.2.1-.1-.1-.3-.3-.3-.3.1-.5.1-.8.2l-.3-1.4v-.1c0-.1-.1-.1-.2-.1s-.1.1-.1.1c-.3.9-.4 1.8-.6 2.8-.1.2.1.4.2.3zm.8-.4c0-.1-.1-.2-.3-.2-.1 0-.3.1-.4.1l.3-1.6c.1.3.1.5.1.8 0 .1.1.1.3.1.2-.1.4-.1.6-.1-.2.6-.4 1.2-.7 1.8.2-.3.1-.6.1-.9z"/>
    <path class="st0" d="M44.2 82.7c0-.1-.1-.2-.1-.3-.1-.3-.5-.1-.4.1 0 .1.1.2.1.3.1.3.5.2.4-.1z"/>
    <path class="st0" d="M45 82.5c0-.1-.1-.2-.1-.3-.1-.3-.5-.1-.4.1 0 .1.1.2.1.3 0 .3.4.1.4-.1z"/>
    <path class="st0" d="M45.7 82.2c0-.1-.1-.2-.1-.3-.1-.3-.5-.1-.4.1 0 .1.1.2.1.3.1.3.5.2.4-.1z"/>
    <path class="st0" d="M46.4 82c0-.1-.1-.2-.1-.3-.1-.3-.5-.1-.4.1 0 .1.1.2.1.3.1.3.5.1.4-.1z"/>
    <path class="st0" d="M44.5 87.5c-.2-.6-.2-1.3.3-1.8.2-.2-.1-.5-.3-.3-.5.6-.5 1.4-.3 2.2 0 .3.4.2.3-.1z"/>
    <path class="st0" d="M45 85.4c.3-.1.1-.5-.1-.4-.3.1-.1.5.1.4z"/>
  </g>
  <g>
    <path class="st0" d="M55 11.7c-.1-.4-.2-1.1-.6-1.5-.4-.4-.7-.6-.5-1.2 0-.2.2-.3.2-.5 0-.8-.6-1.5-1.1-2-.2-.2-.5-.4-.7-.5-.5-.3-.7-.4-.9-1 .1 0 .2-.1.3-.1.3-.1.1-.5-.1-.4h-.1c-.3-.5-.4-1.4-.9-1.5-.5-.1-1.3.3-1.8.5s-1.2.3-1.7.6 0 1.2.1 1.7h-.1c-.3.1-.1.4.1.4.1 0 .2 0 .3-.1.2.5.2.7 0 1.1l-.3.6c-.3.7-.4 1.5-.1 2.2.1.5.3.5.7.8.8.7.1 1.1.2 1.8.1 1.1.7 2.2 1 3.2.3.7.5 1.5.7 2.2.2.7.4 1.5.7 2.1.5 1 1.6.7 2.5.4.9-.2 1.7-.5 2.6-.8.7-.2 1.2-.4 1.5-1.1.4-1.1-.4-2.6-.8-3.6s-.8-2.1-1.2-3.3zm-6.5 1.7c0-.1 0-.2-.1-.3 1.9-.8 4-1.3 5.9-2 .6 1.9 1.2 3.8 1.9 5.8-.9.5-1.9.7-2.9 1-1 .3-2 .7-3 1-.6-1.8-1.2-3.6-1.8-5.5zm-1.1-8.6c0-.4.1-.3.3-.4.4-.3.9-.4 1.3-.5.4-.1.8-.4 1.2-.4.5 0 .6.7.8 1.1-1.1.4-2.2.7-3.3 1.1-.1-.3-.3-.6-.3-.9zm1 6.2c-.1-.2-.4-.3-.6-.4-.3-.2-.3-.4-.4-.8-.2-.9.1-2 .8-2.7 0 0 .1-.1 0-.2l-.3-.9c1-.3 2-.6 2.9-.9.2.3.2.6.4.9 0 .1.1.1.1.1.8.1 1.5.7 1.9 1.4.3.4.4.8.3 1.2 0 .2-.2.4-.2.6 0 .3.1.6.3.8.1.2.4.3.6.5 0 .1.1.1.1.2-2 .7-4 1.2-5.9 2 0-.2 0-.4.1-.8s.2-.7-.1-1zm7.4 8.4c-.6.4-1.6.5-2.2.7-.5.1-1 .3-1.5.4-.3 0-.7.1-1 0-.3-.2-.5-.7-.6-1.1v-.1c1.1-.3 2.2-.8 3.4-1.1.9-.3 1.8-.4 2.6-.9.1.8.2 1.5-.7 2.1z"/>
    <path class="st0" d="M51.5 15.9c.1-.1.3-.1.5-.2 0 .6.1 1.2.1 1.8 0 .2.3.4.4.1.4-1.1.7-2.2 1.1-3.2.1-.1-.1-.3-.3-.3-.3.1-.5.1-.8.2l-.3-1.4v-.1c0-.1-.1-.1-.2-.1s-.1.1-.1.1c-.3.9-.4 1.8-.6 2.8-.1.2.1.3.2.3zm.9-.5c0-.1-.1-.2-.3-.2-.1 0-.3.1-.4.1l.3-1.6c.1.3.1.5.1.8 0 .1.1.1.3.1.2-.1.4-.1.6-.1-.2.6-.4 1.2-.7 1.8.1-.3.1-.6.1-.9z"/>
    <path class="st0" d="M48.2 5.1c0-.1-.1-.2-.1-.3-.1-.3-.5-.1-.4.1 0 .1.1.2.1.3.1.2.5.1.4-.1z"/>
    <path class="st0" d="M49 4.8c0-.1-.1-.2-.1-.3-.1-.3-.5-.1-.4.1 0 .1.1.2.1.3 0 .3.4.2.4-.1z"/>
    <path class="st0" d="M49.7 4.6c0-.1-.1-.2-.1-.3-.1-.3-.5-.1-.4.1 0 .1.1.2.1.3.1.2.5.1.4-.1z"/>
    <path class="st0" d="M50.5 4.3c0-.1-.1-.2-.1-.3-.1-.3-.5-.1-.4.1 0 .1.1.2.1.3 0 .3.4.2.4-.1z"/>
    <path class="st0" d="M48.6 9.9c-.2-.6-.2-1.3.3-1.8.2-.2-.1-.5-.3-.3-.6.7-.6 1.5-.4 2.2 0 .2.4.1.4-.1z"/>
    <path class="st0" d="M49 7.8c.3-.1.1-.5-.1-.4-.3.1-.1.4.1.4z"/>
  </g>
  <g>
    <path class="st0" d="M13.1 79.1c-.1-.3-.2-1.1-.6-1.2-.2 0-.4 0-.6.2-.1-.4-.4-.8-.7-.9-.4-.2-.7-.2-1.1-.2-.1-.5-.2-1.5-.5-2-.1-.2-.1-.3-.3-.4-.3-.1-.8.1-1.1.2-.5.1-1 .3-1.5.4-.5.1-.9.2-1.4.4-.2.1-.7.1-.8.3-.1.2 0 .4 0 .5.1.6.3 1.2.5 1.9-.1 0-.3.1-.4.2-.8.5-.3 1.9-.2 2.7.3 1.4.6 2.7 1 3.9.2.7.4 2.1 1.2 2.3.2.1.4 0 .7 0 .1.7.2 1.5.5 2.1.1.2.2.4.4.4.3.1.8-.1 1.2-.2.4-.1.9-.3 1.4-.4L12 89c.3-.1.8-.1 1-.4.1-.2 0-.4 0-.6-.1-.7-.3-1.3-.5-1.9.3-.1.6-.2.8-.5.5-.8-.1-1.9-.3-2.6-.2-.9-.4-1.8-.6-2.6.3.1.5 0 .7-.1.4-.2.1-.8 0-1.2zm-8.2-3c.1-.1.7-.2.9-.3l1-.3c.6-.1 1.2-.3 1.9-.5.5-.1.7.3.9.8l.3 1.3h-.1l-2.1.6c-.6.1-1.2.3-1.9.5-.1 0-.3.1-.4.1-.3-.5-.8-1.9-.5-2.2zm7.5 11.5c.1.5.3.8-.1 1.1-.5.3-1.2.3-1.7.4-.5.1-1.1.3-1.7.4-.1 0-.3.1-.5.1-.3-.1-.4-.5-.5-.8-.2-.4-.3-1-.4-1.5.2 0 .4-.1.7-.1l2.3-.6c.5-.1 1.1-.3 1.6-.4.2.5.3 1 .3 1.4zm.4-3.8c.1.2.1.4.2.6.1.5.1 1.1-.4 1.4-.4.3-1.3.3-1.7.4-.6.1-1.2.3-1.9.5-.5.1-1.7.6-2.2.4-.7-.3-.9-1.3-1.1-1.9-.2-.5-.3-1.1-.5-1.7-.3-1.1-.5-2.2-.7-3.4-.1-.6 0-1.1.6-1.5.2-.1.5-.1.7-.2.6-.1 1.2-.3 1.9-.5.6-.1 1.1-.3 1.7-.4.6-.2 1.3-.4 1.8.1.4.4.4 1.1.6 1.7.1.5.3 1 .4 1.5.2 1.1.4 2.1.6 3zm0-3.7c-.1.1-.4.2-.5.1 0-.1-.1-.3-.1-.4-.1-.3-.1-.8-.2-1.2.1-.2.4-.2.5-.1.1.1.2.6.3.8.1.2.1.4.1.6 0 0 .1 0-.1.2z"/>
    <path class="st0" d="M10.4 80c-.5.1-.9.3-.8.8 0 .3.2.5.5.7-.1.3-.3.6-.3 1h-.1c-.1 0-.2 0-.3.1-.3-.3-.5-.5-.8-.7.1-.1.2-.4.2-.5 0-.4-.4-.7-.8-.7-.4.1-.8.3-.8.8 0 .3.3.6.5.7-.1.3-.3.6-.4.9-.4.1-.8.3-.8.8 0 .4.4.8.8.8s.8-.5.8-.9c0-.3-.2-.5-.4-.6.1-.3.3-.7.4-.9.1 0 .3-.1.4-.1l.1.1c.3.2.5.4.7.6-.1.1-.2.3-.1.5 0 .4.4.8.8.8s.8-.5.8-.9c0-.3-.2-.5-.4-.6l.3-1c.4 0 .8-.5.8-.9-.3-.5-.7-.8-1.1-.8zm-2.9 3.9c0 .2-.3.4-.5.4s-.4-.3-.5-.5c0-.3.3-.4.5-.4.3 0 .6.3.5.5zm.3-2c-.2 0-.4-.3-.5-.5 0-.3.3-.4.5-.4.3 0 .5.3.4.5 0 .1-.2.4-.4.4zm2.3 1.4c0 .2-.3.4-.5.4s-.4-.3-.5-.5c0-.3.3-.4.5-.4.3-.1.5.2.5.5zm.8-2.5c0 .2-.3.4-.5.4s-.4-.3-.5-.5c0-.3.3-.4.5-.4.3 0 .5.3.5.5z"/>
    <path class="st0" d="M5.5 79.5c.1-.1-.1-.4-.2-.3-.5.5-.2 1.3-.1 1.9.1.2.4.1.3-.1-.1-.4-.4-1.1 0-1.5z"/>
    <path class="st0" d="M6 79.1c-.1-.2-.4-.1-.3.1.1.1.4.1.3-.1z"/>
  </g>
  <g>
    <path class="st0" d="M29.3 29.2c-.7-.9-1.3-1.8-2-2.6-.6-.7-1.3-1.6-2.2-2.1-1.2-.8-2.8-.4-4.2 0-.2-.4-.5-.6-1-.5-.2 0-.4.2-.4.4s.1.3.2.4c-2.6.3-3.2 4.7-.7 6.1.8.4 1.4.6 2.3.3h.2c.6-.3 1.2-.6 1.9-.9.9.8 1.8 1.5 2.7 2.3h.1c1.1-.5 2-1.2 3.1-1.6l.1-.1c-.2-.6-.1-1.1-.1-1.7zm-4-4.2c1.4 1.2 2.6 2.7 3.6 4.2-.4.3-.9.5-1.4.7l-.6.3c-.1.1-.6.4-.8.4-.2-.1-.6-.7-.8-.8-.3-.4-.7-.7-.9-1.1-.7-.7-1.3-1.5-1.9-2.2-.5-.6-.8-1.1-1.6-1.4-.1 0-.3-.1-.4-.1 1.6-.6 3.5-1.1 4.8 0zm-5.5-.6c.1-.1.3-.1.4-.1.1 0 .3.2.4.3-.2.1-.4.1-.6.2-.1-.1-.3-.3-.2-.4zm-1.6 5.5c-1-1.3-.8-3.8.8-4.6.1 0 .2-.1.3-.1h.1c.8-.2 1.6 0 2.2.6.5.5.9 1.1 1.3 1.6 1 1.2 2 2.3 3 3.4 0 .5 0 .9-.1 1.4-1.1-.9-2.2-1.9-3.3-2.8h-.1c-.1 0-.1 0-.1.1-.3 1-.8 1.8-2 1.8-.7-.2-1.6-.7-2.1-1.4zm4 .7c.2-.3.3-.5.4-.9.1.1.3.3.5.4-.3.2-.6.3-.9.5zm6 .5c-.7.4-1.3.8-2 1.1 0-.5.1-.9.1-1.4.9-.5 1.9-.8 2.7-1.4v.9c0 .6-.4.6-.8.8z"/>
    <path class="st0" d="M22.8 26.3c.4.4.5.8.9.6.7-.3 1.4-.5 2.1-.8.1 0 .1-.1 0-.2-.4-.4-.5-.7-1-.5-.7.3-1.4.4-2 .8v.1c0-.1 0-.1 0 0zm2.2-.8c.2 0 .4.1.5.3-.5.2-1.1.4-1.6.6-.1 0-.3.2-.4.2s-.2-.2-.4-.4c.4-.2.9-.4 1.4-.5.1 0 .3-.1.5-.2z"/>
    <path class="st0" d="M20.3 26.5c-.9-.1-1.3.5-1.4 1.3-.1.9.1 1.6 1 2 1.8.5 2.2-2.9.4-3.3zm-.3 3c-.7-.2-.9-.7-.9-1.4s.2-1.5 1.1-1.4c.7.1 1 .8 1 1.4 0 .8-.3 1.7-1.2 1.4z"/>
    <path class="st0" d="M26.3 30.2c.7-.4 1.4-.7 2-.9.1-.1.1-.3-.1-.3l-2.1.9c0 .1.1.4.2.3z"/>
    <path class="st0" d="M18.9 25.9c-.7.5-.9 1.3-1 2.1 0 .2.3.2.3 0 0-.7.3-1.4.8-1.9.1-.1 0-.4-.1-.2z"/>
    <path class="st0" d="M19.3 25.9c.2 0 .2-.3 0-.3-.1 0-.1.3 0 .3z"/>
  </g>
  <g>
    <path class="st0" d="M10.6 97.5s0-.1 0 0c0-.1 0-.1 0 0-.5-.7-1-1.3-1.5-1.9-.5-.5-1-1.2-1.6-1.6-.9-.6-2.1-.3-3.2 0-.2-.3-.4-.4-.8-.4-.1 0-.3.1-.3.3 0 .1.1.3.1.3-2 .2-2.5 3.6-.5 4.7.6.3 1.1.5 1.7.3h.1c.5-.3.9-.4 1.4-.7l2 1.7h.1c.8-.4 1.5-.9 2.3-1.3v-.1c.2-.5.2-.9.2-1.3zm-3-3.2c1.1.9 1.9 2.1 2.8 3.2-.4.2-.7.3-1.1.5-.1.1-.3.1-.5.2-.1 0-.5.3-.6.3-.1 0-.5-.5-.6-.7-.3-.3-.5-.5-.7-.8-.5-.5-1-1.1-1.4-1.7-.4-.4-.7-.8-1.2-1.1-.1 0-.2-.1-.3-.1 1.2-.3 2.6-.7 3.6.2zm-4.2-.5c0-.1.3-.1.3-.1.2.1.3.2.3.3-.1 0-.3.1-.5.1 0-.1-.1-.2-.1-.3zM2.2 98c-.7-.9-.6-2.9.6-3.5.1 0 .1-.1.3-.1h.1c.6-.1 1.2 0 1.7.4.4.4.7.8 1 1.2.8.9 1.5 1.8 2.3 2.6 0 .4 0 .7-.1 1.1-.9-.7-1.7-1.4-2.5-2.2h-.1c-.2.8-.7 1.4-1.5 1.4s-1.5-.4-1.8-.9zm3.1.5c.1-.2.2-.4.3-.7.1.1.3.2.4.3-.3.2-.5.3-.7.4zm4.5.4c-.5.3-1 .6-1.5.8 0-.4 0-.7.1-1.1.7-.4 1.4-.6 2.1-1.1v.7c-.1.5-.4.6-.7.7z"/>
    <path class="st0" d="M5.7 95.2c.3.3.3.6.7.4.5-.2 1.1-.4 1.6-.6v-.1c-.3-.3-.4-.5-.8-.4-.5.2-1 .3-1.5.6v.1zm1.6-.5c.2 0 .3.1.4.3-.4.2-.8.3-1.3.4-.1 0-.3.1-.3.1-.1 0-.2-.2-.3-.3.4-.1.8-.2 1.2-.4.1 0 .2-.1.3-.1z"/>
    <path class="st0" d="M3.8 95.4c-.7-.1-1 .4-1.1 1-.1.7.1 1.2.8 1.5 1.4.5 1.6-2.2.3-2.5zm-.3 2.3c-.5-.1-.7-.5-.7-1s.2-1.1.9-1c.5.1.8.6.7 1.1 0 .4-.2 1.1-.9.9z"/>
    <path class="st0" d="M8.4 98.2c.5-.3 1-.5 1.6-.7.1 0 .1-.3-.1-.2-.5.2-1.1.5-1.6.7-.1.1 0 .3.1.2z"/>
    <path class="st0" d="M2.7 94.9c-.5.4-.7.9-.7 1.6 0 .1.2.1.2 0 0-.5.2-1.1.7-1.4 0-.1-.1-.2-.2-.2z"/>
    <path class="st0" d="M3 94.9c.1 0 .1-.2 0-.2s-.1.2 0 .2z"/>
  </g>
  <g>
    <path class="st0" d="M96.4 26.5c-1.5-1.8-5.3-2.2-6.3.2-.4-.6-1.1-1.1-1.8-1.3-1.8-.6-3.4-.1-4.7 1.1v-.3c0-1.5 0-3.3.5-4.8.4.4 1.2.6 1.7.6 1.2-.1 2.4-.1 2.9-1.5.5-1.2-.1-2.7-.9-3.6-.6-.7-.8-.7-1.7-.6-.9 0-1.8.1-2.6.3-1.4.3-2.6 2.4-3.3 3.6-2 3.5-3.9 7.3-4.2 11.4 0 .1 0 .2.1.2 5.4 3.6 13.4 4.3 19.1.8 2-1.3 2.8-4 1.2-6.1zm-1.7 5.8c-3 1.7-6.6 2.3-10 2-1.7-.1-3.4-.5-5.1-1.2-.9-.3-1.8-.8-2.6-1.2-1-.6-.5-1.9-.3-2.9.5-2 1.3-3.8 2.2-5.6.9-1.8 1.8-3.5 3-5.1.4-.4.7-.9 1.2-1.1.7-.3 1.5-.3 2.2-.4.7 0 1.3-.1 1.9.3.5.4.8 1.1.9 1.6.2.7.1 1.8-.5 2.3-.5.4-1.1.4-1.7.4-.1 0-.4.1-.5 0-.5-.1-1.3-.5-.8-1.1.2-.3.9-.4 1.2-.4.3 0 .3-.5 0-.5-.6 0-1.9.3-2 1.1v.2c-.5 1.1-.6 2.4-.7 3.7v2c-.1 1.3-1 2.3-1.8 3.1-.2.2.1.6.4.4.8-.8 1.5-1.7 1.8-2.7h.1c1.2-1.5 2.9-2.1 4.7-1.4.7.3 1.4.8 1.7 1.5.1.2.4.3.5 0 .5-2.9 4.9-2.1 5.9 0 .9 2 0 4-1.7 5z"/>
    <path class="st0" d="M89.2 30c-.8.7-1.6 1-2.6.9-1-.1-2-.2-2.9-.8-.3-.2-.5.3-.3.4 1 .7 2.2.8 3.5.9 1.1 0 1.9-.4 2.7-1.1.2-.1-.2-.5-.4-.3z"/>
    <path class="st0" d="M84.4 28.1c.2-.5.7-.7 1.1-1 .3-.2 0-.6-.3-.4-.5.3-1 .6-1.3 1.2 0 .2.4.5.5.2z"/>
    <path class="st0" d="M86.1 26.8c.3 0 .3-.5 0-.5s-.4.5 0 .5z"/>
  </g>
  <g>
    <path class="st0" d="M66.2 40.3c-.1-.4-.2-.8-.6-1-.3-.1-.5-.1-.8-.1h-1.2c-.1-.3-.2-.5-.3-.8-.4-1.2-.8-2.3-1.1-3.5-.3-1-.7-2-.9-3.1l2.3-.3c.7-.1 2 0 2-1.1-.1-.9-.5-1.1-1.1-1.1-.2-.7-.6-2.8-1.5-2.7-.5.1-1.4.9-1.9 1.2-1 .6-1.9 1.3-2.8 2l-.1.1c-.3 0-.5 0-.8.1l-6.1.6c-.8.1-1.9.1-1.8 1.1.1 1.1.9 1 1.8.9 2.2-.1 4.4-.3 6.6-.6v.1c.8 2.3 1.6 4.6 2.4 7-5 .1-9.9-.1-14.9.3-1.4.1-1.8.3-1.6 1.8.1.9.6 1 1.5 1h.6v.1c-.1.9 1.3.7 1.9.7.3 0 .9.1 1.2-.1.2-.1.3-.4.3-.6h12c.1.2.2.3.3.4.5.4 2.3.3 2.7 0 .3-.2.3-.4.3-.6.5 0 .9-.1 1.3-.5.3-.3.3-.7.3-1.3zm-3.8-12.7c.1 0 .4-.3.4-.3.1 0 .3.5.4.6.3.5.4 1.1.6 1.6-.2 0-.4.1-.6.1-1.4.2-2.8.3-4.3.4 1.2-.8 2.4-1.5 3.5-2.4zM50 31.9c-.2-.8 2.8-.8 3.5-.9 1.4-.1 2.7-.3 4.1-.4 1.2-.1 2.4-.3 3.6-.4.5 0 1.1-.1 1.7-.1.3 0 1.6-.4 1.9-.1.8.6-.6 1-.9 1l-2 .3c-1.2.1-2.5.3-3.7.4-1.4.2-2.8.3-4.2.4-.8.1-3.8.7-4-.2zm-1.5 10.7h-.7c-.2 0-1.4.1-1.4-.1v-.1h2.3c0 .1-.1.1-.2.2zm-1.4-.8c-.7 0-1.3.1-2 0-.8-.1-.7-.1-.8-.7 0-.5-.1-.7.3-.9.7-.4 2.4-.3 3.2-.3 4.2-.2 8.4 0 12.6-.1 0 .1.1.2.1.4.1.4.3 1.2.5 1.8-4.6-.1-9.3-.1-13.9-.2zm15.6.7c-.8-.1-.9-.3-1.2-1-.2-.7-.4-1.4-.7-2l-.3-.9c-.7-2.1-1.4-4.2-2.2-6.3l2.3-.3c.2.8.6 1.6.8 2.4.2.8.5 1.7.7 2.5l.9 2.7c0 .1 0 .1.1.2.2.5.9 1.7.9 2.3 0 .5-.8.5-1.3.4zm2.9-1.2c-.3.4-.7.4-1.2.4v-.1c-.3-.6-.5-1.2-.7-1.9h1c.4 0 .8 0 .9.5.1.4.2.8 0 1.1z"/>
    <path class="st0" d="M60.4 33.9c-.1-.3-.6-.2-.5.1.8 2.1 1.4 4.3 2.2 6.4.1.3.6.2.5-.1-.9-2.1-1.5-4.3-2.2-6.4z"/>
    <path class="st0" d="M53.9 35.3c.3 0 .3-.5 0-.5H50c-.3 0-.3.5 0 .5h3.9z"/>
    <path class="st0" d="M47.5 35.3h.9c.3 0 .3-.5 0-.5h-.9c-.3 0-.3.5 0 .5z"/>
    <path class="st0" d="M47.4 37.4c1.9-.1 3.7 0 5.6 0 .3 0 .3-.5 0-.5-1.9 0-3.7-.1-5.6 0-.3 0-.3.6 0 .5z"/>
    <path class="st0" d="M56.6 37.5c.3 0 .3-.5 0-.5-.7-.1-1.5 0-2.2 0-.3 0-.3.5 0 .5.8 0 1.5-.1 2.2 0z"/>
    <path class="st0" d="M45.1 37.5h.9c.3 0 .3-.5 0-.5h-.9c-.3-.1-.3.5 0 .5z"/>
  </g>
  <g>
    <path class="st0" d="M20.9 17c.1-.2.1-.4.2-.5.1-.2.2-.4.2-.6-.1-.4-.5-.5-.8-.7.2-.5.4-.9.6-1.4.1-.3.5-.8.4-1.2-.1-.6-1.1-1-1.6-1.2 0-.1.1-.1.1-.3.4-1.2-.1-1.8-1.3-2.3-1.3-.6-1.8-.3-2.4.9-.5.9-1 1.9-1.4 2.9-1.3-.4-2.5-1.2-3.7-1.7C10.1 10.5 9 10 8 9.6l1.2-3c.5-1.3.3-1.9-.9-2.4-1-.5-2-.8-2.5.2-.1.2-.2.3-.3.5-.5-.2-1.4-.6-1.9-.4-.7.3-1.1 1.8-1.4 2.4V7c-.3-.1-.6-.3-.8-.3-.4 0-.6.7-.7 1-.2.3-.6.8-.2 1.1.2.2.4.3.7.3-.3.8-.7 1.6-.8 2.3-.1.9.7 1.3 1.5 1.7 0 .1-.1.2-.1.3-.4 1.1.2 1.5 1.1 1.9.6.3 1.5.9 2.1.5.4-.3.6-.9.8-1.3.4-.8.8-1.7 1.2-2.6v-.2c2.3 1 4.6 2.1 6.9 3-.4.8-.7 1.5-1 2.3-.2.5-.6 1.1-.6 1.6-.1.9.9 1.2 1.7 1.5.8.4 1.5.7 2.1-.1l.3-.6c.8.3 1.6.7 2.2 0 .5-.6.8-1.3 1.1-2 .3.1.5.3.8.2.2 0 .3-.4.4-.6zM.8 8.4l.3-.6c0-.1.1-.3.1-.4l.1-.2c.1 0 .3.1.3.1.1 0 .1.1.2.1-.1.5-.3.9-.5 1.3-.2-.1-.4-.1-.5-.3zm.1 2.9c.1-.4.3-.8.4-1.2l1.2-3c.3-.6.5-1.3.9-1.8.4-.6 1.1-.2 1.7 0-.5 1.1-.8 2.3-1.3 3.4-.6 1.3-1.3 2.7-1.8 4-.8-.3-1.3-.5-1.1-1.4zM5 14.7c-.3.5-.4.9-.9.8-.3-.1-.7-.3-1-.5-.5-.3-1-.7-.9-1.4.1-.5.5-1.1.7-1.5.5-1.1.9-2.2 1.4-3.3l.9-2.1c.3-.5.6-1.1.8-1.6.4-.9 1.1-.8 1.9-.5.4.2.8.6.9 1.1 0 .3-.3.8-.4 1-.2.6-.4 1.1-.6 1.7-.4 1.1-.9 2.1-1.3 3.2-.5 1-1 2.1-1.5 3.1zm2.1-3.4c.2-.4.4-.8.5-1.2 1.1.4 2.1.9 3.2 1.4 1.2.5 2.5 1.2 3.7 1.7-.2.4-.4.8-.5 1.2-2.3-1-4.6-2.1-6.9-3.1zm11.6 1.4c-.3.7-.7 1.4-.9 2.1-.4 1-.9 2-1.4 3-.5 1.1-.8 2.7-2.4 2-.3-.1-.8-.2-1-.4-.5-.6-.2-1.1 0-1.7.4-1 .8-2 1.3-3s.9-2 1.4-3c.5-1.1 1.1-3.1 2.6-2.4.9.4 1.2.9.9 2 0 .4-.3.9-.5 1.4zm0 5.2c-.1.3-.3.7-.5 1-.5.7-1 .4-1.7.1l.6-1.5c.4-.9.8-1.7 1.2-2.6.5-1.1 1-2.2 1.5-3.2.3.1.6.3.8.5.4.4.4.4.2 1-.3.8-.7 1.5-.9 2.2-.5.9-.8 1.7-1.2 2.5zm1-.9c.2-.4.3-.9.5-1.3v-.1c.1 0 .2.1.3.1.1.1.2 0 .2.2 0 .1-.1.3-.1.4 0 .1-.1.3-.1.4s-.1.2-.1.3c0 0 0 .1-.1.1-.2 0-.4-.1-.6-.1z"/>
    <path class="st0" d="M6.4 5.3c-.5.4-.7 1.1-.9 1.7-.1.3.4.5.5.2.2-.5.4-1.2.8-1.6.2-.2-.2-.5-.4-.3z"/>
    <path class="st0" d="M7.4 4.9c-.3-.2-.5.3-.3.4.3.2.6-.3.3-.4z"/>
    <path class="st0" d="M17.3 9.9c-.3.1-.4.5-.6.7-.2.3-.4.7-.5 1-.1.3.4.5.5.2.1-.3.3-.5.4-.8.1-.2.3-.5.5-.7.3-.2-.1-.6-.3-.4z"/>
    <path class="st0" d="M18.2 9.6c-.3-.1-.5.3-.2.5.3.1.5-.4.2-.5z"/>
  </g>
  <path id="XMLID_226_" class="st1" d="M100 83.2c-.4-.7-1.8.5-2.1.7-.4.3-.7.6-1.1.9 1.2-2 2.5-4.7 1.5-5-.8-.1-1.5 1.7-1.7 2.2-.4.9-.6 1.9-.8 2.8 0-.7-.1-1.3-.2-1.9-.1-.3-.3-2.1-.9-2-.7.1-.5 2.1-.5 2.5.1 1.1.5 2.3 1.2 3.1-.7-.2-1.5.1-2.1.5-1.1.8-1.5 2.2-1.9 3.4-.3.9-.6 1.8-.9 2.8 0 0-.1 0 0 .1v.1c-.2.6-.3 1.2-.5 1.8-.2.8-.4 1.7-.7 2.5-.2.7-.4 1.5-.4 2.3 0 .1.1.1.1 0 1.1-1.1 2-2.3 2.8-3.5 1-1.3 1.9-2.6 2.8-4 .4-.7.8-1.4 1.2-2 .3-.6.7-1.2.9-1.8.1-.6 0-1.5-.5-1.8 1-.4 1.9-1.1 2.8-1.8.2-.3 1.4-1.3 1-1.9zm-2.9-1.7c.1-.3.6-1.2.9-1.2.6-.1.1 1.3 0 1.6-.2.6-.5 1.2-.8 1.8-.4.8-1 1.6-1.5 2.4.2-.9.4-1.9.7-2.8.1-.7.3-1.3.7-1.8zm-2.8 1.1c0-.2 0-1.6.5-1.2.2.2.3.8.4 1.1l.3 1.5c.1.8 0 1.6 0 2.4-.4-.8-.7-1.6-.9-2.4-.2-.5-.3-1-.3-1.4zm1.9 6.1c-.2.7-.6 1.3-.9 1.9-.6 1.1-1.3 2.2-2 3.2-1.4 2-2.9 3.9-4.3 5.9.4-1 .5-2.2.8-3.3.2-.8.4-1.6.7-2.4 0 .1.1.1.1.2.2.2.5.4.8.4.1 0 .1-.1.1-.1-.1-.2-.4-.3-.6-.4-.1-.1-.3-.3-.3-.5.1-.4.3-.8.4-1.2.1-.3.2-.6.3-1 .1.3.2.5.4.7.3.3.9.7 1.3.5.1 0 .1-.1 0-.2s-.3-.2-.5-.3c-.2-.1-.4-.2-.5-.3-.3-.3-.5-.6-.6-.9.2-.7.5-1.5.9-2.2.1.3.3.7.5.9.3.3.7.7 1.1.6 0 0 .1-.1 0-.1-.3-.3-.6-.4-.9-.7-.3-.3-.5-.6-.7-.9.7-1.1 1.5-1.9 2.9-1.8 0 .1.1.2.1.1 0 0 0-.1.1-.1 0 .1 0 .2.1.2.7.6.9 1.1.7 1.8zm2.8-4.2c-.3.3-.7.6-1.1.9-.7.5-1.5.9-2.2 1.3.5-.7 1-1.4 1.7-2 .2-.2 2-1.8 2.3-1.4.2.3-.5 1.1-.7 1.2z"/>
  <g id="XMLID_154_">
    <path id="XMLID_231_" class="st1" d="M31.9 87.4c-.2-.6-.8-.8-1.4-.7.4-.6.7-1.5.3-2-.4-.5-1.2-.2-1.8.1-.2-.5-.6-1.2-1.2-1.2-.8 0-1.2 1.1-1.5 1.8-.4-.7-1.1-1.3-1.9-1-.6.3-.9.9-.7 1.5-.9-.3-2-.3-2.6.5-.4.7-.4 1.5.2 2-1 .7-1.4 2.2-.5 3.1.5.6 1.4.8 2.2.5.8.7 1.1 2.2 1.5 3.1.4 1.1.6 2.3.9 3.4 0 0 0 .1.1.1.4.8 1.8.8 2.5.7.9-.2 1.9-.9 1.8-1.9v-.1c0-.7-.3-1.5-.4-2.2-.1-.9-.1-1.9-.1-2.8.7 0 1.4-.1 1.9-.8.5-.7.3-1.6-.4-2.1.5-.2 1.4-1 1.1-2zm-2.6 10.2c-.4.7-.7 1.3-1.5 1.5-.7.2-2 .2-2.5-.5-.1-1.2-.5-2.5-.9-3.6-.3-.9-.7-2.2-1.5-2.8.2-.1.3-.1.5-.3.4.5.7 1.1 1.1 1.6.4.7.7 1.4 1.2 1.9.1.1.3.1.3-.1 0-.6.1-1.3 0-1.9h.1c.4 0 .7-.1 1-.3 0 .6.3 1.3.6 1.8.1.1.3.1.3 0 .1-.5.1-1 .2-1.5.1-.4.2-.8.3-1.1.2 0 .3.1.5.1-.1.8-.1 1.7-.1 2.6 0 .9.1 1.8.4 2.6zm-5.8-5.7l.2-.2c.4.8 1.1 1.7 2 1.8-.1.5-.1 1-.1 1.5-.8-1-1.1-2.3-2.1-3.1zm3.7 1.1c.3-.2.4-.5.5-.9.2.1.4.1.5.2-.2.3-.3.6-.3.9-.1.4-.1.7-.2 1.1-.1-.2-.2-.5-.3-.7-.1-.1-.1-.3-.2-.6zm2.9-3.5c-.1 0-.1.2 0 .3 1.2.4.8 1.9-.1 2.3-.8.4-1.7.1-2.5-.2-.1 0-.2 0-.2.1 0 .8-.8 1.4-1.5 1.3h-.1c-.1 0-.2 0-.4-.1-.8-.3-1.3-1-1.6-1.8 0-.1-.2-.1-.3 0-.6.8-1.9 1-2.7.3-.9-.9-.4-2.4.6-2.8.1 0 .1-.2 0-.3-.7-.4-.7-1.5-.1-2 .7-.6 1.7-.4 2.4-.1.1.1.2-.1.1-.2-.7-.8.3-1.7 1.1-1.5.5.1.8.5 1 1 0 .1.2.1.3 0 .3-.5.4-.9.8-1.3.7-.8 1.4 0 1.5.7 0 .1.1.2.3.1.4-.3 1.4-.8 1.6 0 .2.5-.4 1.3-.7 1.8-.1.1 0 .3.2.2.7-.4 1.7-.2 1.5.8.2.7-.5 1.1-1.2 1.4z"/>
    <path id="XMLID_235_" class="st1" d="M25.1 86.6c-.5-.1-.6.5-.5.9-.5-.3-1.1-.2-1.4.3-.4.5-.3 1.3.1 1.8h.1c-.1-.4-.3-.8-.2-1.2.1-.7.9-1.1 1.5-.6 0 0 .1 0 .1-.1 0-.4-.1-1 .6-.8.3 0 .5.5.5.8 0 .1.1.1.1 0 0-.5-.4-1-.9-1.1z"/>
    <path id="XMLID_238_" class="st1" d="M28.8 88.7c.1-.3.1-.6-.2-.8-.4-.3-.9-.1-1.2.2 0 0 0 .1.1.1.2-.1.4-.3.6-.3.5 0 .6.3.5.8 0 .1 0 .2.1.2.9-.1.8 1 .2 1.4-.3.2-.7.3-1 .3v.1c.7.1 1.5-.2 1.7-1 0-.5-.3-1-.8-1z"/>
  </g>
  <g id="XMLID_1_">
    <path id="XMLID_3_" class="st1" d="M35 61.5l-.4-.7c-.5-.8-2.2-3.9-3.1-5.6.1.5.1 1.1.1 1.6-.1.9-.5 1.8-1.1 2.3-.3.3-.8.4-1.1.6-1.2.5-2.6 1-3.8 1.5-1.2.4-2.6.9-3.8 1.4-.1 0-.1 0-.2-.1s0-.1.1-.2c1.2-.5 2.6-1 3.8-1.5 1.2-.4 2.6-.9 3.8-1.4.4-.1.8-.3 1.1-.6.5-.4.9-1.2 1-2.1.1-.8-.1-1.6-.3-2.4l-.2-.9.5.9c.5 1 2.3 4.2 3.2 5.8-.2-1.5-.5-3.9-.5-4.5v-.5l.3.4c.4.5 1.4 1.9 1.8 2.5.1-.5.2-1.5.2-1.9V56h.1c.1 0 .5-.2 1.1-.4 2.2-.8 7.4-2.8 9.3-3.5.1 0 .1 0 .2.1 0 .1 0 .1-.1.2-1.9.8-7.1 2.7-9.3 3.5-.4.2-.8.3-.9.4-.1.6-.3 2.2-.3 2.2v.4l-.5-.4-1.7-2.3c.1 1.2.5 3.8.6 4.7l.1.6z"/>
  </g>
  <g id="XMLID_9_">
    <path id="XMLID_152_" class="st1" d="M83.7 10.7c.7.5 1.6.9 2.5 1.1.2.9 1.8.5 2.4.4.9-.2 2.2-.7 2.2-1.8a4 4 0 0 0 1.4-1.5c.4-.7.5-1.4.6-2.2.8-.2 1.4-1.3 1.1-2.1-.2-.3-.5-.7-.9-.6-.3 0-.5.2-.5.4-.1-.3-.1-.5-.2-.7.6-.8 1.5 0 1.8.5.2.4.3.8.3 1.2-.1 1.1-.8 1.5-1.6 2v.1c1.3-.1 2.1-1.7 1.7-2.9-.3-.8-1.6-2-2.2-1-.1-.2-.1-.4-.3-.7h-.1c-2 0-3.9.4-5.8 1-.9.3-1.8.5-2.6.8-.7.3-1.5.6-1.9 1.3v.1c.1 1.6.9 3.5 2.1 4.6zm2.8-6.8c1.7-.5 3.4-.8 5.2-.9-.1.3-.2.5-.4.7-.4-.4-1.4 0-1.8 0-.9.2-1.8.5-2.7.7-.9.3-1.8.4-2.7.6-.7.1-1.2.4-1.6.9-.3.1-.5 0-.7-.1 1.3-1.1 3.1-1.4 4.7-1.9zm.1.9c.7-.2 1.4-.4 2.2-.6.3-.1.7-.1 1.1-.2.4-.1 1.1-.3 1.4-.1-.9 1.2-3 1.8-4.3 2-1 .3-2 .4-2.9.5-.6 0-1.1 0-1.6-.2 1-1 2.7-1 4.1-1.4zm6.2 1.8c0-.7-.1-1.4-.2-2.1.1-.7.9-.3 1.1.1.1.3.1.5.1.8-.2.6-.7.9-1 1.2zm-6.4 5.1c.5 0 1.1 0 1.6-.3.9-.1 1.8-.4 2.6-.9-.3.8-.9 1.2-1.7 1.4-.3.1-.7.1-1.1.2-.2 0-.5.1-.7.1-.1-.1-.5-.2-.7-.5zM81.7 6c.1.1.3.3.5.4.5.2 1 .3 1.6.3 1.1 0 3.2-.4 3.2-.4 1.8-.5 4.4-1.4 5-3.3.4 1.9 1.1 3.9 0 5.8-.7 1.3-2.2 2.1-3.6 2.5 0 0 0-.1 0 0-1.6.5-3.4.4-4.6-.9C82.5 9.2 82 7.5 81.7 6z"/>
    <path id="XMLID_183_" class="st1" d="M84.5 7.2c.3 1 .8 2.4 1.7 3.1.5.4 1.5.3 1.9-.2.1.1.2 0 .1-.1l-.3-.3c1.4 0 1.5-1.9 1.7-2.9 0 0 0-.1-.1-.1-1.1 0-1.9 1.6-1.7 2.6 0 .1.1.1.1.1.2-.3.4-.5.5-.8.1-.2.3-.4.3-.7 0 0 0-.1-.1 0-.2.2-.3.4-.4.7-.1.2-.3.4-.4.6 0-.4.1-.9.4-1.3.1-.1.8-1.1 1.1-.8.1.1-.1.7-.1.8-.1.3-.1.7-.3 1-.3.4-.7.6-1.2.7 0-.5-.3-.9-.7-1.2-.7-.5-1.6-.7-2.4-1.1 0-.2-.1-.2-.1-.1zm.2.2c1 .5 2.8.8 2.9 2-.6-.7-1.3-1.2-2.1-1.4 0 0-.1 0 0 .1.8.5 1.5.9 2.2 1.5v.1c.1.1.3.2.4.4-.4.2-.8.4-1.3.3-.5-.1-.8-.4-1-.8-.5-.8-.9-1.5-1.1-2.2z"/>
  </g>
  <path id="XMLID_28_" class="st1" d="M76.1 17.1c-.3-.3-.8-.5-1.2-.6-.4-.1-.9-.1-1.4 0-.6.1-1.4.7-1.4 1.3-.1 0-.2.1-.3.2 0-.3.1-.6.1-.8 0-.2 0-.5-.2-.7-.1-.1-.4-.2-.4 0v1.4c0 .4-.1.8-.2 1.2-.3-.8-1.5-1.4-2.3-1.2-1.1.3-1.8 1.5-2 2.6-.2 1.2.1 2.6.9 3.6.3.4.7.9 1.2 1 .1 0 .2.1.3 0 .1 0 .2-.1.3-.1.5 0 .5.4.8.6h.2c.5 0 1-.2 1.5-.4s.9-.4 1.4-.7c.8-.6 1.3-1.5 1.5-2.4.1-.8 0-1.9-.7-2.5-.7-.5-1.8-.6-2.6-.3.2-.3.3-.8.4-1.2.1 0 .1-.1.2-.1s.1-.1.2-.1c.1.7.9.8 1.5.7.9-.1 1.5-.8 2.3-1.3.1 0 .1-.1 0-.1s-.1-.1-.1-.1zm-4.8 2.2h-.1v.1c.9-.1 2.1-.3 2.8.4.7.7.7 1.9.4 2.7-.3.8-.8 1.5-1.5 2-.7.4-1.5.8-2.4.9-.2-.3-.3-.7-.7-.8-.2 0-.3.1-.4.1-.3.1-.7-.1-.9-.4a4.7 4.7 0 0 1-1.4-3c-.1-1.1.3-2.2 1.1-2.9.5-.4 1.1-.6 1.7-.4.5.2 1.1.6 1.2 1.2 0 .1.1.1.1 0v-.1c.3-.4.3-.9.3-1.4 0-.4.1-1-.1-1.4.4.3.3.9.3 1.3-.2.8-.4 1.2-.4 1.7zm1-1.5c.3-.1.6-.3.9-.4.4-.1.8-.1 1.2-.3V17c-.7-.1-1.4.1-2 .5.1-.2.2-.3.4-.5.3-.2.6-.4 1-.4.4-.1.8 0 1.2.1.3.1.6.3.9.4-.5.1-.9.7-1.4.9-.7.5-1.9.7-2.2-.2z"/>
</svg>
