<?xml version="1.0" encoding="utf-8"?>
<!-- Generator: Adobe Illustrator 22.0.0, SVG Export Plug-In . SVG Version: 6.00 Build 0)  -->
<svg version="1.1" id="icon" xmlns="http://www.w3.org/2000/svg" xmlns:xlink="http://www.w3.org/1999/xlink" x="0px" y="0px"
	 viewBox="0 0 100.7 100.8" style="enable-background:new 0 0 100.7 100.8;" xml:space="preserve">
<style type="text/css">
	.st0{fill:#333333; opacity: 0.5;}
	.st1{fill:#1E120D; opacity: 0.5;}

/* @keyframes beat{
    0%,100%{
        transform:scale(1)
    }
    50%{
        transform:scale(1.1)
    }
}

.heart1{
    animation: beat 0.7s ease-in-out 0s infinite normal;
	transform-origin: 28% 43%;
}

.heart2{
    animation: beat 0.5s ease-in-out 0s infinite normal;
	transform-origin: 67% 7%;
}

.whey{
    animation: wheyanim 1s ease-in-out 0s infinite normal;
	transform-origin: 89% 50%;
}

@keyframes wheyanim{
	0%{transform: rotate(5deg);}
	50%{transform: rotate(-5deg);}
	100%{transform: rotate(5deg);}
}
*/

</style>
<path class="st0 heart1" d="M33.1,37.1c-1.7-0.3-3.5,0.7-4.2,2.3c-0.3-0.8-0.9-1.4-1.6-1.8c-1.2-0.7-2.4-0.7-3.7-0.1
	c-1,0.4-1.8,1.5-2.2,2.5c-0.5,1.2-0.3,2.7,0.1,3.9c0.1,0.2,0.4,0.1,0.4-0.1c-0.5-2-0.4-4.3,1.4-5.7c0.9-0.7,2.4-0.9,3.4-0.4
	c1,0.5,2,1.4,2.1,2.6c0,0.3,0.3,0.2,0.4,0c0.2-2.2,2.9-3.4,4.7-2.5c2,0.9,2.8,3.6,2.2,5.7c-0.4,1.3-2.1,0.9-3.1,1
	c-0.6,0-1.2,0-1.9,0c-0.1,0-0.4,0-0.4,0c-0.1-0.1-0.3-0.8-0.4-0.9c-0.1-0.2-0.3-0.1-0.4,0c-0.1,0.9-0.4,1.9-0.6,2.8
	c-0.2-1.6-0.3-3.2-0.5-4.7c0-0.2-0.3-0.2-0.4,0c-0.3,1.1-0.5,2.2-0.8,3.3c-0.1-0.5-0.2-1-0.3-1.5c0-0.2-0.3-0.2-0.4,0
	c0,0.3-0.1,0.9-0.3,1.1c-0.1,0.1-0.5,0-0.7,0c-0.7,0-1.4,0-2,0c-0.7,0-1.9-0.1-1.8,0.9c0,0.6,0.5,1.2,0.9,1.6
	c0.5,0.6,1.1,1.1,1.7,1.6c1.3,1,2.7,1.8,4.1,2.6c0.1,0,0.1,0,0.2,0c2.5-1.4,4.5-3.1,6.2-5.3c0.1-0.2-0.1-0.4-0.3-0.3
	c-1.2,1.5-2.4,2.8-4,3.9c-0.5,0.3-1.6,1.3-2.2,1.2c-0.3,0-0.7-0.4-0.9-0.5c-0.4-0.2-0.8-0.5-1.2-0.7c-0.8-0.5-1.6-1.1-2.4-1.8
	c-0.4-0.4-2.6-2.5-1.2-3c0.5-0.2,1.5,0,2,0c0.6,0,1.1,0,1.7,0c0.1,0,0.1-0.1,0.2-0.1c0-0.1,0.1-0.3,0.1-0.4c0.1,0.5,0.2,1,0.3,1.5
	c0,0.2,0.3,0.2,0.4,0c0.3-1,0.5-2.1,0.7-3.1c0.2,1.6,0.3,3.3,0.5,4.9c0,0.2,0.3,0.1,0.4,0c0.1-1.1,0.4-2.2,0.7-3.3
	c0.1,0.3,0.3,0.5,0.6,0.5c0.8,0.1,1.8,0,2.7,0c0.8,0,1.8,0.2,2.4-0.4c0.5-0.4,0.7-1.2,0.7-1.9C36.8,40.1,35.5,37.5,33.1,37.1z"/>
<path id="XMLID_23_" class="st1 heart2" d="M73.6,5.9c-0.4,0-0.7,0.1-1.1,0.2c0.1-0.6,0.1-1.2,0-1.8C72.2,3,71.4,2,70.2,1.7
	c-1.4-0.3-2.3,0.8-3,1.8c-0.7-1.1-2.1-1.9-3.4-1.5c-1.4,0.5-2,2-2,3.4c0,0.8,0.1,1.7,0.5,2.4c0,0.1,0.1,0.1,0.1,0.2
	c-0.2,0.1-0.4,0.1-0.6,0.2c0,0,0,0.1,0,0.1c0.2,0,0.5-0.1,0.7-0.1c0.4,0.6,0.9,1.1,1.4,1.6c0.6,0.6,1.2,1.2,1.8,1.7
	c0.7,0.5,1.4,1.2,2.2,1.4c0.1,0,0.2-0.1,0.1-0.2c-0.5-0.4-1.1-0.8-1.7-1.2c-0.6-0.4-1.2-0.9-1.7-1.4c-0.6-0.6-1.3-1.2-1.8-2
	c1-0.1,2-0.4,3-0.6c0.1,0,0.1-0.2,0-0.2c0.1-0.4,0.1-0.8,0.2-1.2c0-0.4,0.1-0.7,0.1-1.1c0.3,0.7,0.7,1.4,1.1,2.1
	c0.2,0.4,0.4,0.7,0.6,1.1c0.2,0.4,0.4,0.8,0.7,1.1c0,0.1,0.2,0,0.1-0.1c0,0,0,0,0-0.1c0.1-0.4,0.3-0.8,0.4-1.3
	c0.1-0.4,0.2-0.7,0.2-1.1c0.8,0,1.5-0.1,2.3-0.3c0.1,0,0.3,0,0.4,0c-0.2,1-0.7,2-1.2,2.9c-0.4,0.5-0.8,1.1-1.1,1.6
	c-0.4,0.5-0.9,1.1-1.2,1.7c0,0.1,0.1,0.1,0.1,0.1c0.6-0.5,1.1-1.3,1.6-2c0.5-0.7,1-1.4,1.4-2.1C72,8,72.3,7.2,72.5,6.5
	c0.4,0,0.9-0.1,1.2-0.4C73.7,5.9,73.6,5.9,73.6,5.9z M71.6,6.2c-0.7,0.1-1.5,0.2-2.2,0.4c0,0,0,0,0,0.1C69.1,7.1,69.1,7.6,69,8
	c-0.1,0.3-0.1,0.6-0.2,0.9c-0.3-0.7-0.8-1.4-1.1-2c-0.4-0.7-0.8-1.5-1.3-2.2l0,0c0,0-0.1,0-0.1,0c-0.2,0.4-0.2,0.8-0.2,1.2
	C66,6.4,66,6.9,66,7.4c-1,0.2-2.1,0.4-3.1,0.7c-0.3-0.4-0.5-0.9-0.6-1.5c-0.3-1.5,0.1-3.3,1.4-4.1c0.7-0.4,1.5-0.3,2.2,0.1
	c0.5,0.3,0.9,0.7,1.3,1.1c0,0,0,0,0.1,0l0,0c0,0,0.1,0,0.1-0.1l0,0c0.8-1,1.9-2.1,3.2-1.5c1.3,0.6,1.8,2,1.7,3.4
	c0,0.2,0,0.4-0.1,0.6C72,6.1,71.8,6.2,71.6,6.2z"/>
<g>
	<path class="st0" d="M52.4,66.3c-0.1-0.7-0.5-1.4-1-1.9c0.4-0.7,0.9-1.3,0.9-2.1c0.1-0.7,0-1.6-0.5-2.2c-0.5-0.5-1.1-0.7-1.8-0.8
		c-0.9-0.1-1.9-0.1-2.8-0.1c-1.4,0-3.3-0.3-4.5,0.7c-0.6,0.5-0.8,1.3-0.9,2c-0.1,1,0.6,1.7,1.1,2.4c-0.5,0.6-0.8,1.4-0.9,2.1
		c-0.2,1.1-0.2,1.9,0.3,2.9c0.2,0.5,0.7,1.2,1.1,1.5c0.3,0.2,0.8,0.2,1.2,0.2c1.2,0,2.4,0,3.6,0c0.8,0,1.8,0.1,2.5-0.1
		c0.8-0.2,1.1-1.1,1.4-1.8C52.5,68.4,52.6,67.3,52.4,66.3z M43.4,59.8c1.1-0.5,2.6-0.3,3.8-0.3c0.6,0,1.2,0,1.8,0
		c0.8,0,1.8,0,2.4,0.5c0.5,0.5,0.7,1.4,0.6,2c-0.1,0.8-0.5,1.4-0.9,2c0,0-0.1-0.1-0.1-0.1c-0.3-0.3-0.6-0.4-0.9-0.6
		c0.4-0.7,1.1-1.8,0.2-2.4c-0.9-0.7-2.6-0.4-3.6-0.4c-0.5,0-0.9,0-1.4,0.1c-0.4,0-1,0-1.4,0.3c-0.9,0.7-0.4,1.7,0.1,2.4
		c-0.1,0-0.2,0.1-0.3,0.2c-0.3,0.1-0.4,0.4-0.6,0.5c-0.4-0.7-1-1.3-0.9-2.2C42.2,61.1,42.6,60.2,43.4,59.8z M47.2,62.7
		c-1,0-2,0.1-2.9,0.5c-0.4-0.5-0.9-1.1-0.5-1.8c0.3-0.5,0.9-0.5,1.4-0.5c0.5-0.1,1.1-0.1,1.7-0.1c0.8,0,1.6-0.1,2.4,0.1
		c0.5,0.1,1.1,0.3,1.1,0.9c0,0.5-0.4,0.9-0.6,1.3C49,62.9,48.2,62.8,47.2,62.7z M52.1,67.6c0,0.9-0.3,1.8-0.8,2.5
		c-0.6,0.9-1.7,0.7-2.7,0.8c-1.1,0-2.3,0-3.4,0c-0.8,0-1.4,0-2-0.5c-0.5-0.5-0.8-1.2-1-1.9c-0.4-1.2,0.2-3,1-3.9
		c1-1.2,2.6-1.4,4-1.4c1.4,0,2.8,0.4,3.9,1.4C51.9,65.3,52.2,66.4,52.1,67.6z"/>
	<path class="st0" d="M47.5,64.7c-0.8-0.1-1.6,0.4-1.8,1.2c-0.2,0.8,0.1,1.6,0.9,1.8c0.8,0.1,1.9-0.1,2.1-1
		C48.9,65.7,48.3,64.8,47.5,64.7z M47,67.3c-1.7-0.1-1.1-2.6,0.4-2.3c0.6,0.1,1,0.7,1,1.3C48.5,67.1,47.7,67.3,47,67.3z"/>
	<path class="st0" d="M44.8,64c-0.9,0.5-1.5,1.3-1.8,2.2c0,0.2,0.3,0.3,0.3,0.1c0.3-0.9,0.8-1.6,1.6-2C45.1,64.2,45,63.9,44.8,64z"
		/>
	<path class="st0" d="M43,66.8c-0.2,0-0.2,0.3,0,0.3C43.2,67.1,43.2,66.8,43,66.8z"/>
</g>
<g>
	<path class="st0" d="M12.8,37.1c-0.3-0.5-0.4-0.8-0.8-1c-0.3-0.1-0.5-0.2-0.8-0.4c-0.7-0.6-0.3-1.1-0.3-1.8
		c0.1-0.5-0.1-0.9-0.4-1.3c-0.3-0.7-0.7-1.4-1.1-2c-0.4-0.4-0.7-0.5-1.2-0.4c-0.1,0-0.1,0-0.2,0.1c-0.2-0.5-0.5-1.3-1.1-1.4
		c-0.4,0-0.8,0.1-1.3,0.4c-0.1-0.1-0.2-0.3-0.3-0.5c0.2-0.1,0.3-0.4,0.2-0.6c-0.3-0.5-1.2-0.3-1.6-0.1c-0.4,0.2-0.7,0.3-0.9,0.7
		C3,29.2,2.8,29.6,3,29.8C3.1,30,3.3,30,3.5,29.9c0.1,0.1,0.2,0.3,0.3,0.5c-0.4,0.2-0.9,0.4-1.2,0.7c-0.4,0.5,0,1.2,0.3,1.7
		c-0.4,0.3-0.8,0.5-0.8,1c0,0.6,0.4,1.4,0.7,1.9c0.3,0.7,0.5,1.3,1.2,1.7c0.4,0.2,0.8,0.3,0.9,0.7c0.2,0.5,0.1,0.9,0,1.4
		c-0.1,0.5,0,0.8,0.1,1.2c0.3,0.7,0.6,1.5,0.9,2.2c0.3,0.6,0.6,1.6,1.1,2.1c0.3,0.3,0.6,0.3,1,0.1c1.1-0.3,2-0.9,3-1.4
		c0.9-0.4,1.8-0.8,2.7-1.3c0.4-0.2,0.7-0.4,0.8-0.8c0-0.5-0.4-1.3-0.6-1.8C13.7,38.8,13.2,37.9,12.8,37.1z M3.4,29.1
		c0.2-0.3,0.4-0.4,0.7-0.5c0.2-0.1,0.3-0.2,0.5-0.2c0.1,0,0.5,0,0.5,0.1c0,0.1-0.7,0.4-0.8,0.5c-0.3,0.1-0.5,0.3-0.8,0.4
		c0,0-0.2,0.1-0.2,0.1C3.2,29.4,3.4,29.1,3.4,29.1z M3.9,29.6c0.2-0.1,0.5-0.3,0.6-0.4C4.6,29.2,4.8,29.1,5,29
		c0,0.1,0.1,0.2,0.1,0.3c0,0.1,0.1,0.1,0.1,0.2c-0.3,0.2-0.6,0.4-0.9,0.5c-0.1,0-0.1,0.1-0.2,0.1C4,30,3.9,29.8,3.9,29.6z M3.2,31.1
		c0.4-0.3,0.9-0.5,1.4-0.7c0.5-0.2,0.9-0.5,1.4-0.7c0.9-0.4,1.2,0,1.5,0.8c-0.7,0.3-1.4,0.6-2.1,0.9c-0.8,0.4-1.5,0.7-2.2,1.2
		C3,32,2.7,31.4,3.2,31.1z M13.5,39.5c0.3,0.6,0.8,1.6,0.5,2.2c-0.3,0.6-1.3,0.8-1.9,1.1c-0.7,0.4-1.4,0.7-2.2,1.1
		c-0.7,0.3-2,1.2-2.7,0.6C7,44,6.7,43.2,6.5,42.7c-0.3-0.6-0.6-1.2-0.8-1.8c-0.3-0.6-0.4-1-0.3-1.7c0.1-0.4,0.2-0.8,0-1.2
		c-0.1-0.4-0.4-0.8-0.7-0.9c-0.3-0.2-0.5-0.2-0.8-0.5c-0.3-0.3-0.5-0.8-0.7-1.2c-0.4-0.8-0.9-1.7,0-2.4c0.8-0.5,1.6-0.9,2.5-1.4
		c0.7-0.3,1.4-0.5,2-0.8c0.4-0.2,0.9-0.4,1.4,0c0.3,0.2,0.4,0.6,0.5,0.9c0.3,0.5,0.5,0.9,0.8,1.4c0.3,0.6,0.1,0.9,0,1.5
		c-0.1,0.8,0.3,1.4,1,1.7c0.2,0.1,0.4,0.1,0.6,0.2c0.3,0.2,0.4,0.7,0.6,1C12.9,38.2,13.2,38.8,13.5,39.5z"/>
	<path class="st0" d="M6.4,36.9c0.9-0.3,1.9-0.8,2.7-1.3c0.2-0.1,0-0.5-0.2-0.4c-0.8,0.5-1.8,1-2.7,1.3C6,36.6,6.2,36.9,6.4,36.9z"
		/>
	<path class="st0" d="M9.7,36.6c-1.1,0.3-2.1,0.7-3,1.4c-0.2,0.1,0,0.4,0.3,0.3c0.8-0.6,1.8-1.1,2.8-1.3C10,36.9,10,36.5,9.7,36.6z"
		/>
	<path class="st0" d="M3.3,33.9c-0.3,0.5,0.1,1.1,0.4,1.6c0.1,0.2,0.5,0.1,0.4-0.2c-0.2-0.4-0.6-0.8-0.4-1.3
		C3.8,33.8,3.4,33.6,3.3,33.9z"/>
	<path class="st0" d="M3.7,33.2c-0.2,0.1-0.1,0.5,0.2,0.4C4.1,33.4,3.9,33.1,3.7,33.2z"/>
</g>
<g>
	<path class="st0" d="M47,23.9c0-1.3-1.4-2.1-2.2-2.9c0.1-0.7-0.2-1.4-0.7-2c-0.5-0.5-1.4-0.8-2.2-0.6c-0.6-0.6-1.2-1.2-1.8-1.7
		c-0.4-0.3-0.7-0.5-1.2-0.5c-0.5,0-0.9,0.4-1.2,0.7c-0.5,0.5-1,1-1.5,1.5c-0.5,0.5-1.1,1.2-1.6,1.8c-0.7,0.7-1.4,1.3-1.9,2
		c-0.5,0.6-1.1,1.4-0.6,2.2c0.9,1.2,2.2,2.3,3.4,3.3c1.2,1.1,2.3,2.3,3.5,3.3c0.9,0.8,1.5,0.9,2.4,0c1.2-1.2,2.3-2.4,3.5-3.6
		C45.5,26.3,46.9,25.2,47,23.9z M43.8,19.2c0.7,0.8,0.9,1.8,0.2,2.7c-0.8,0.9-2,1.1-3,0.3c-0.8-0.7-0.8-2.1-0.1-2.9
		C41.7,18.4,43.1,18.4,43.8,19.2z M44.8,26.5c-0.9,0.9-1.8,1.8-2.6,2.7c-0.4,0.4-0.8,0.8-1.2,1.3c-0.2,0.2-0.4,0.5-0.7,0.6
		c-0.6,0.3-1.1-0.3-1.5-0.6c-0.9-0.8-1.8-1.6-2.7-2.5c-0.9-0.8-1.8-1.6-2.7-2.5c-0.4-0.4-0.8-0.8-1.2-1.2c-0.5-0.6-0.3-1.1,0.1-1.7
		c0.8-1.1,1.8-1.9,2.7-2.9c0.8-0.9,1.7-1.8,2.6-2.7c0.7-0.7,1.5-0.8,2.3-0.1c0.5,0.4,1,0.9,1.5,1.4c-0.3,0.1-0.5,0.3-0.7,0.5
		c-0.9,0.9-0.9,2.6,0,3.5c0.9,0.9,2.5,0.7,3.3-0.2c0.3-0.3,0.4-0.6,0.5-0.8c0.3,0.3,0.6,0.5,0.9,0.8c0.4,0.4,0.9,0.8,1.1,1.3
		C47,24.7,45.6,25.7,44.8,26.5z"/>
	<path class="st0" d="M42,20.6c0,0.3,0.2,0.4,0.5,0.4c0.2,0,0.3-0.2,0.3-0.4c0,0,0,0,0,0c0.2-0.1,0.4-0.2,0.7-0.4
		c0.2-0.1,0-0.4-0.2-0.3c-0.2,0.1-0.4,0.2-0.7,0.3C42.4,20.1,41.9,20.2,42,20.6z M42.5,20.5L42.5,20.5L42.5,20.5
		c0,0.1-0.2,0.2-0.2,0C42.4,20.5,42.4,20.5,42.5,20.5z"/>
	<path class="st0" d="M43,26.9c0.4-0.4,0.9-0.8,1.1-1.3c0.1-0.3,0.1-0.7-0.1-0.9c-0.3-0.3-0.8-0.9-1.2-1c-0.2-0.1-0.5,0-0.7,0
		c-0.4,0-0.9-0.1-1.2-0.4c-1-0.5-1.5-1.5-1.6-2.5c-0.1-0.6-1-1.5-1.6-1.7c-0.8-0.2-1.3,0.7-1.7,1.1c-0.8,0.9-1.8,1.8-2.5,2.8
		c-0.3,0.5-0.3,0.9,0,1.3c0.4,0.6,1.1,1.1,1.5,1.6c0.5,0.5,1.1,1,1.6,1.5c0.5,0.4,1.1,0.9,1.6,1.4c0.4,0.4,0.7,0.8,1.2,0.9
		c0.9,0.2,1.4-0.8,1.9-1.4C42,27.9,42.5,27.4,43,26.9z M40.1,29.4c-0.5,0.3-0.9-0.1-1.3-0.5c-1-0.9-2-1.7-3-2.6
		c-0.5-0.4-0.9-0.9-1.4-1.4c-0.4-0.4-1.1-0.8-0.8-1.5c0.2-0.5,0.7-0.9,1.1-1.3c0.4-0.4,0.8-0.9,1.2-1.4c0.4-0.5,0.9-1.5,1.7-1.2
		c0.4,0.1,1.2,0.9,1.2,1.3c0.1,0.9,0.5,1.9,1.2,2.5c0.4,0.3,0.8,0.5,1.2,0.6c0.4,0.1,1,0,1.4,0.2c0.2,0.1,0.5,0.4,0.6,0.5
		c0.4,0.2,0.4,0.5,0.1,1c-0.1,0.1-0.2,0.2-0.3,0.3c-0.4,0.5-0.9,0.9-1.4,1.4c-0.4,0.4-0.8,0.9-1.2,1.4
		C40.6,29.1,40.4,29.3,40.1,29.4z"/>
	<path class="st0" d="M41.5,19.6c0.3-0.3,0.7-0.4,1.1-0.3c0.2,0,0.3-0.3,0.1-0.3c-0.5-0.1-1,0.1-1.4,0.4
		C41.1,19.5,41.4,19.7,41.5,19.6z"/>
	<path class="st0" d="M41.2,19.7c-0.1-0.1-0.4,0.1-0.2,0.2C41.1,20.1,41.3,19.9,41.2,19.7z"/>
</g>
<g>
	<path class="st0" d="M14.9,57c-0.5-0.5-1.1-0.8-1.8-0.9c0,0,0.1,0,0.1-0.1c1-0.5,1.8-1.5,2-2.7c0,0,0,0,0-0.1c0-0.1,0-0.2-0.1-0.3
		c-1.6-0.6-3.4-0.1-4.6,1c0.1-1.2-0.1-2.5-0.7-3.5c0-0.1-0.1-0.1-0.1-0.1c0,0,0,0,0,0h0h0c-0.5,0.2-0.9,0.6-1.2,1
		c0,0.1-0.1,0.1,0,0.2c0,0,0,0.1,0.1,0.1c0.9,0.9,1.3,2.1,1.1,3.4c-1.1-0.8-1.8-2.1-3.2-2.6c-1.4-0.5-2.8-0.1-3.8,0.8
		c-2.8,2.3-2.9,6.6-2.2,9.8c0.4,1.7,1.4,2,3,2.2c1.2,0.1,1.8,0.7,2.6,1.4c0.5,0.4,1,0.8,1.6,1c1.4,0.4,3.1-0.8,4.1-1.6
		c1.5-1.3,2.9-2.7,3.7-4.5C16.1,60.2,16.1,58.3,14.9,57z M14.8,53.4c-0.2,1-0.9,2-1.9,2.3c-0.9,0.3-1.9,0.1-2.7-0.2l0,0
		C10.9,53.7,13,52.8,14.8,53.4z M8.9,51.6c0.2-0.3,0.4-0.5,0.7-0.7c0.4,0.9,0.7,2.3,0.4,3.4C10,53.3,9.6,52.4,8.9,51.6z M8.9,67.4
		C7,68,6.2,66,4.7,65.3C4,65,3.2,65.1,2.4,64.9c-1.4-0.3-1.6-1.5-1.8-2.7c-0.3-2-0.4-4.1,0.4-6c0.8-1.9,2.7-3.9,5-3.2
		c1.6,0.4,2.3,2,3.6,2.8c0,0,0,0,0.1,0c0.4,0.2,0.8,0.3,1.3,0.4c0.2,0,0.4,0.1,0.6,0.1c1,0.1,1.9,0.2,2.7,0.9c2,1.8,0.8,4.8-0.6,6.5
		C12.6,65.2,10.8,66.8,8.9,67.4z"/>
	<path class="st0" d="M5.9,54.4c-1.6-0.1-3.1,1.2-3.5,2.7c-0.1,0.3,0.4,0.4,0.4,0.1c0.4-1.2,1.7-2.4,3-2.4
		C6.1,54.8,6.2,54.4,5.9,54.4z"/>
	<path class="st0" d="M2.3,58c-0.3-0.1-0.4,0.3-0.2,0.4C2.3,58.5,2.5,58.1,2.3,58z"/>
</g>
<g>
	<path class="st0" d="M35.6,77.8c-0.4-0.5-1.1-0.7-1.6-0.9c-0.2-0.1-0.4-0.2-0.6-0.3c0.2,0,0.2-0.3,0-0.3c-0.1,0-0.3,0-0.4,0
		c-0.2-0.2-0.4-0.4-0.5-0.6c0.2,0,0.2-0.4,0-0.3c-0.1,0-0.2,0-0.3,0c-0.2-0.2-0.3-0.4-0.5-0.5c0,0,0,0,0,0c0.2,0,0.2-0.4,0-0.3
		c-0.1,0-0.2,0-0.3,0c-0.1-0.2-0.3-0.4-0.4-0.6l0,0c0.2,0,0.2-0.4,0-0.3c-0.1,0-0.1,0-0.2,0c-0.1-0.1-0.1-0.2-0.2-0.3
		c0-0.1-0.1-0.1-0.1-0.2c0,0,0,0,0,0c0.2,0,0.2-0.4,0-0.3c-0.1,0-0.1,0-0.2,0c-0.2-0.4-0.4-0.8-0.7-0.9c0,0-0.1,0-0.1,0
		c0-0.2-0.1-0.3-0.2-0.5c0-0.1,0-0.1-0.1-0.2c-0.2-0.1-0.6-0.1-0.9-0.1c-0.7,0.1-0.8,0.7-0.8,1.4l0,0c-0.2,0-0.4,0.1-0.5,0
		c-0.5-0.1-1.1-0.5-1.4-0.9c-0.3-0.4-0.1-1-0.5-1.2c0,0-0.1,0-0.1-0.1c0.3-0.4,0.1-1.2-0.5-1.2c-0.3,0-0.5,0.1-0.5,0.4
		c0,0.1,0.1,0.3,0.2,0.4c0.1,0.2,0.1,0.5-0.1,0.7l0,0c-0.8,0.7-2.2,1.4-2,2.7c-0.8,0.3-0.7,1.5-0.3,2.1c0.8,1,2.2,1.5,3.3,2.1
		c0.6,0.3,1.2,0.5,1.8,0.9c0.7,0.5,1.3,1.1,1.9,1.6c1,0.8,1.9,0.9,3.1,0.9c0.7,0,1.5,0,2.2,0c0.5,0,0.9,0,1.4-0.4
		C36.2,79.6,36.2,78.5,35.6,77.8z M35.7,78.9c-0.9,0.5-2.3,0.5-3.3,0.4c-0.5,0-0.9-0.2-1.4-0.3c0.2-0.7,1.1-0.8,1.7-0.7
		c0.3,0,0.5,0.1,0.8,0.1c0.4-0.1,0.8-0.4,1.1-0.8c0.2,0.1,0.3,0.2,0.4,0.3C35.4,78,35.7,78.5,35.7,78.9z M29.9,72.7
		c-0.2,0-0.5,0-0.7,0S29,73,29.2,73c0.3,0,0.6,0,0.9,0c0.1,0.2,0.2,0.4,0.3,0.5c-0.2,0-0.4,0-0.7,0c-0.2,0-0.2,0.3,0,0.3
		c0.3,0,0.6,0,0.9,0c0.1,0.2,0.3,0.4,0.4,0.5c-0.2,0-0.4,0-0.5,0c-0.2,0-0.2,0.3,0,0.3c0.3,0,0.5,0,0.8,0c0.1,0.2,0.3,0.4,0.5,0.5
		c-0.2,0-0.4,0-0.5,0c-0.2,0-0.2,0.3,0,0.3c0.3,0,0.5,0,0.8,0c0.1,0.2,0.3,0.4,0.5,0.5c-0.1,0-0.3,0-0.4,0c-0.2,0-0.2,0.3,0,0.3
		c0.3,0,0.5,0,0.7,0c0.1,0.1,0.2,0.1,0.3,0.2c-1.1,0.6-2.1-0.7-2.7-1.5c-0.8-0.9-1.4-2-2-3c0.2-0.1,0.4-0.2,0.6-0.1
		C29.4,72.1,29.7,72.4,29.9,72.7z M28.4,71.3c0.1,0,0.4-0.1,0.5,0c0.1,0,0.2,0.3,0.2,0.4c-0.3,0-0.6,0.2-0.8,0.3
		c-0.1,0.1-0.3,0.1-0.4,0.2C27.8,71.8,27.9,71.4,28.4,71.3z M25.1,71.2c0.1,0.3,0.3,0.6,0.6,0.8c0.6,0.5,1.3,0.8,2,0.5
		c0.1,0,0.3-0.1,0.4-0.2c0.1,0.1,0.1,0.3,0.3,0.4c-0.8,0.3-1.5,0.4-2.4,0.1c-1-0.4-1.6-1.2-1.8-2.3c0,0,0.1-0.1,0.1-0.1
		C24.8,70.1,25,70.9,25.1,71.2z M24.6,69.2c0.3,0.1,0.3,0.5,0,0.8c0,0,0,0,0,0c0-0.1,0-0.3-0.1-0.4c0-0.1-0.1-0.1-0.1-0.3
		C24.3,69.2,24.4,69.2,24.6,69.2z M24,70.8c0.5,2.2,2.6,3.1,4.6,2.3c0.7,1.1,1.4,2.2,2.3,3.2c0.7,0.8,1.8,1.3,2.7,0.7
		c0,0,0.1,0,0.1,0.1c0.2,0.1,0.5,0.2,0.7,0.3c-0.3,0.4-0.7,0.7-1.2,0.7c-0.3,0-0.7-0.1-1-0.1c-0.5,0.1-1.2,0.4-1.5,0.9
		c-0.7-0.3-1.2-0.7-1.8-1.2c0,0,0,0-0.1,0c0,0,0,0,0.1-0.1c0.3-0.8,0-1.7-0.7-2.3c-0.7-0.6-1.6-0.7-2.6-0.5c0,0,0,0-0.1,0
		c-1.1-0.7-2.2-1.2-3.2-1.8C22.2,72.1,23.2,71.4,24,70.8z M28.6,77.4c-0.8-0.8-1.6-1.6-2.6-2.3c0,0,0,0,0,0c0.7-0.1,1.3-0.1,1.9,0.3
		C28.5,75.8,28.9,76.7,28.6,77.4z M35.3,79.9c-0.5,0.4-1.3,0.4-1.9,0.4c-1,0-2.3,0.2-3.2-0.1c-1.1-0.4-1.8-1.4-2.7-2.1
		c-0.9-0.7-2-1.1-3.1-1.6c-0.6-0.3-1.1-0.6-1.6-0.9c-0.3-0.2-0.7-0.5-0.8-0.8c-0.2-0.4-0.1-1.2,0.4-1.4c1.4,0.7,2.8,1.4,4,2.3
		c1.3,0.9,2.2,2.2,3.5,3.1c1,0.6,2,0.9,3.1,1c0.9,0,1.9,0.1,2.7-0.3C35.6,79.6,35.5,79.8,35.3,79.9z"/>
	<path class="st0" d="M23.5,75.2c-0.4-0.2-1.1-0.6-1.1-1.1c0-0.2-0.3-0.2-0.3,0c0,0.7,0.8,1.2,1.4,1.5
		C23.6,75.6,23.8,75.3,23.5,75.2z"/>
	<path class="st0" d="M23.9,75.6c-0.2,0-0.2,0.3,0,0.3S24.1,75.6,23.9,75.6z"/>
</g>
<path class="st0" d="M66.2,87.8c0.3-1.6,0.5-3.3,0.6-5c0-1.3-0.1-2.7-0.9-3.7c-0.7-0.8-1.6-1.2-2.6-1.2c-1.5-0.4-2.7,0-3.9,0.9
	c-1.1,0.8-1.6,1.9-1.8,3.3c-0.1,1.9,0.1,3.8,0.4,5.7c-0.4,0-0.9,0.1-1,0.4c-0.1,0.2,0,0.7,0,0.8c0.1,0.3,0.4,0.3,0.5,0.4
	c0.2,0.3,0,1.2,0,1.5c-0.1,0.5-0.1,0.9,0,1.4c0.1,0.6,0.1,1.5,0.8,1.6c2.1,0.5,1.4-2.5,1.1-3.5c-0.1-0.2-0.1-0.4-0.2-0.6
	c-0.1-0.8,0-0.5,0.2-1c0.1-0.3,0.1-0.4,0.1-0.7c-0.1-0.7-0.6-0.5-1.2-0.5h0c-0.2-1.2-0.3-2.3-0.4-3.5c0-1.1-0.1-2.2,0.2-3.2
	c0,0,0-0.1,0-0.1c-0.3,1.1-0.2,2.3,0.3,3.4c0.9,2.1,3.4,2.6,5.5,1.7c0.9-0.4,1.9-1,2.2-2c0.4-1.1,0.4-2.6,0-3.8
	c-0.2-0.5-0.6-1-1-1.4c0.4,0.3,0.8,0.6,1,1.1c0.5,1.1,0.5,2.5,0.4,3.7c-0.1,1.4-0.3,2.7-0.5,4l0,0c-0.5,0-1.1-0.1-1.2,0.5
	c-0.1,0.2-0.1,0.6,0,0.8c0.2,0.4,0.4,0.2,0.4,0.7c0,1-1.4,4.2,0.5,4.4c1.8,0.2,1.4-2.4,1.2-3.5c0-0.3-0.1-0.8,0-1.1
	c0.1-0.1,0.3-0.2,0.3-0.3c0.1-0.2,0.1-0.5,0.1-0.7C67.2,87.8,66.7,87.9,66.2,87.8z M59.1,88.2c0.3,0.2-0.1,0.7-0.2,0.8
	c-0.2,0.4-0.3,0.4-0.2,0.8c0.1,0.8,0.4,1.6,0.5,2.4c0,0.4,0.2,0.9,0,1.2c-0.3,0.3-0.7,0.4-1,0.2c-0.6-0.3-0.5-1.6-0.5-2.3
	c0-0.5,0.3-1.3,0.1-1.8c-0.1-0.3-0.1-0.2-0.4-0.4c-0.7-0.8,0.3-0.9,0.9-0.9C58.5,88.1,59,88,59.1,88.2z M62.4,78.3
	c0.4,0,0.8,0.1,1.1,0.4c1.2,0.6,1.9,1.5,1.8,2.9c-0.1,1.2-0.7,2.5-1.9,2.9c-1.1,0.3-2.7,0.3-3.4-0.8c-0.5-0.9-0.5-2.3-0.1-3.2
	C60.2,79.3,61.2,78.5,62.4,78.3z M65.8,83.7c-0.5,2-3.2,2.7-5,2.3c-2.2-0.5-2.8-3.1-2.3-5c0.4-1.4,1.4-2.3,2.7-2.6
	c-0.5,0.3-0.9,0.6-1.3,1.1c-1.2,1.8-1,5,1.5,5.5c1.1,0.2,2.4,0,3.2-0.8c0.8-0.8,1.1-2.2,1-3.4c0-0.1,0-0.3-0.1-0.4
	C66,81.4,66,82.6,65.8,83.7z M66.5,89.1c-0.3,0.4-0.3,0.4-0.3,1c0.1,0.7,0.7,3.9-0.7,3.6c-1.4-0.3-0.2-3.1-0.2-4
	c0-0.3,0-0.4-0.1-0.6c-0.1-0.2-0.5-0.6-0.2-0.9c0.1-0.1,0.9,0,1.1,0C66.8,88.3,67,88.5,66.5,89.1z"/>
<g>
	<path class="st0" d="M73.1,58.1c-0.2-1.7-0.8-3.2-1.9-4.5c0.2-0.2,0.4-0.4,0.6-0.7c0.1,0.1,0.2,0.2,0.3,0.3
		c0.3,0.1,0.4-0.1,0.6-0.3c0.2-0.2,0.4-0.5,0.3-0.7c-0.1-0.3-0.6-0.6-0.8-0.8c-0.3-0.2-0.6-0.6-1-0.7c-0.3-0.1-0.5,0.1-0.7,0.4
		c-0.1,0.2-0.3,0.3-0.2,0.6c0,0.1,0.1,0.2,0.2,0.3c-0.2,0.2-0.3,0.4-0.5,0.5c-0.9-0.6-2-1-3.1-1.2c0-0.2,0-0.4,0-0.5
		c0.1,0,0.3,0,0.4,0c0.4-0.1,0.4-0.3,0.4-0.7c0-0.4,0.1-1.2-0.3-1.5c-0.5-0.4-1.6-0.2-2.1-0.2c-1.1,0-2.6-0.3-2.6,1.1
		c0,0.3-0.1,0.9,0.1,1.2c0.1,0.1,0.4,0.2,0.7,0.2c0,0.2,0,0.4,0,0.6c0,0,0,0,0,0c-2.5,0.7-4.6,2.4-5.6,4.9c-1.2,3.1-0.4,7,2.2,9.1
		c1,0.8,2.1,1.5,3.4,1.7c1.9,0.3,4.1,0.2,5.8-0.8c1.2-0.6,2.3-1.8,3-2.9C73.1,61.9,73.3,59.8,73.1,58.1z M71,51
		c0.2,0,0.6,0.4,0.8,0.6c0.2,0.1,0.4,0.3,0.6,0.5c0.1,0.2,0,0.4-0.2,0.6c-0.3-0.2-0.6-0.5-0.9-0.7c-0.3-0.2-0.5-0.4-0.8-0.7
		C70.7,51.2,70.9,51,71,51z M70.7,52.1c0.1,0.1,0.3,0.2,0.4,0.3c0.1,0.1,0.2,0.1,0.3,0.3c-0.2,0.2-0.4,0.4-0.6,0.6
		c-0.1-0.1-0.3-0.3-0.4-0.4c-0.1-0.1-0.1-0.1-0.2-0.2C70.4,52.5,70.5,52.3,70.7,52.1z M62.9,49.9c0-0.1,0-0.4,0-0.5
		c0.1-0.5,0.4-0.5,0.9-0.6c0.4-0.1,0.9,0,1.4-0.1c0.4,0,0.8,0,1.2,0c0.4,0,0.6,0,0.8,0.5c0,0.1,0.1,0.6,0,0.8
		c-0.1,0.4-0.5,0.3-0.9,0.3c-0.5,0-1,0-1.5,0C64.2,50.2,63.1,50.4,62.9,49.9z M63.8,50.7c0.3,0,0.6,0,0.8,0c0.5,0,0.9,0,1.5,0
		c0.1,0,0.2,0,0.3,0c0,0.2,0,0.3,0,0.5c-0.3,0-0.7-0.1-1-0.1c-0.5,0-1.1,0.1-1.6,0.2C63.8,51,63.8,50.8,63.8,50.7z M72.3,62.1
		c-0.4,1.4-1.5,2.5-2.7,3.4c-1.4,1.1-3.1,1.3-4.8,1.3c-1.5,0-2.6-0.3-3.8-1.2c-2.6-1.7-3.9-5-3.2-8.1c0.8-3.5,3.9-5.9,7.5-6
		c3.5,0.1,6.3,2.2,7.1,5.6C72.8,58.7,72.8,60.5,72.3,62.1z"/>
	<path class="st0" d="M69.2,54C69.2,53.9,69.2,53.9,69.2,54C69.2,53.9,69.2,53.9,69.2,54c-2.4-1.7-5.7-1.8-8,0
		c-2.2,1.7-3.2,4.7-2.4,7.4c0.7,2.5,4.1,4.6,6.6,4.4c0.8,0,1.8-0.2,2.4-0.6c1.1-0.7,2.3-1.8,3-2.9C72.7,59.5,71.8,55.9,69.2,54z
		 M71.3,57.9c0.3,1.9-0.3,3.8-1.6,5.2c-0.9,0.9-1.8,1.9-3.1,2.2c-1.4,0.3-2.8,0.2-4.1-0.5c-1.4-0.8-3-2.1-3.4-3.8
		c-0.3-1.8-0.1-3.7,1-5.2c2-2.9,6-3.5,8.9-1.5C70.1,55.2,71,56.4,71.3,57.9z"/>
	<path class="st0" d="M68.1,55.7c-0.8,0.8-1.6,1.7-2.5,2.5c-0.3-0.3-0.8-0.3-1.1,0c-0.4,0.3-0.5,1.1-0.2,1.4c0.3,0.4,1,0.4,1.4,0.1
		c0.4-0.3,0.4-0.8,0.2-1.1c0.8-0.8,1.7-1.7,2.5-2.6C68.6,55.8,68.3,55.6,68.1,55.7z M64.7,59.4c-0.2-0.1-0.1-0.5,0-0.7
		c0.2-0.3,0.5-0.3,0.7,0c0,0,0,0,0,0c0,0,0,0,0,0C65.9,59.2,65.2,59.8,64.7,59.4z"/>
	<path class="st0" d="M62.7,54.6c-1.5,0.8-2.2,2.2-2.6,3.8c-0.1,0.3,0.4,0.4,0.4,0.1c0.4-1.5,1-2.8,2.4-3.5
		C63.1,54.9,62.9,54.5,62.7,54.6z"/>
	<path class="st0" d="M60.2,59.4c-0.3,0-0.3,0.4,0,0.4C60.5,59.9,60.5,59.4,60.2,59.4z"/>
	<path class="st0" d="M65.3,49.7c0-0.2,0-0.4,0-0.6c0-0.3-0.4-0.3-0.4,0c0,0.2,0,0.4,0,0.6C64.9,50,65.3,50,65.3,49.7z"/>
	<path class="st0" d="M66.4,49.5c0-0.2,0-0.3,0-0.5c0-0.3-0.4-0.3-0.4,0c0,0.2,0,0.3,0,0.5C66,49.8,66.4,49.8,66.4,49.5z"/>
	<path class="st0" d="M64,49.7c0-0.2,0-0.4,0-0.5c0-0.3-0.4-0.3-0.4,0c0,0.2,0,0.4,0,0.7C63.7,50.1,64.1,49.9,64,49.7z"/>
</g>
<g class="whey">
	<path class="st0" d="M96.9,47.7c-0.5-1-0.9-2-1.4-3c-0.5-1.1-0.8-2.1-1.6-3c-0.5-0.6-1.2-1.2-2-1.4c-0.5-0.1-1.4,0-1.8-0.3
		c-0.1-0.1-0.3-0.3-0.4-0.6c0.2-0.1,0.4-0.1,0.6-0.3c0.2-0.1,0.3-0.3,0.2-0.4c-0.1-0.3-0.4-0.3-0.6-0.1c-0.3-0.5-0.4-1.3-0.8-1.8
		c-0.1-0.1-0.1-0.1-0.2-0.1c-0.7,0.1-1.5,0.7-2.2,0.9c-1.1,0.5-2.1,0.9-3.1,1.4c-0.9,0.4-1.9,0.8-2.8,1.2c-0.4,0.2-1.1,0.3-1.3,0.8
		c0,0,0,0,0,0.1l0,0c0,0,0,0.1,0,0.1l0,0c0.2,0.5,0.4,1,0.7,1.5c-0.3,0.1-0.4,0.3-0.3,0.5c0.1,0.2,0.3,0.1,0.5,0.1
		c0.2-0.1,0.4-0.2,0.6-0.3c0.1,0.3,0.3,0.5,0.3,0.5l0,0l0,0c0,0.2-0.4,0.6-0.5,0.8c-0.5,0.8-0.8,1.7-0.9,2.7c-0.1,2.2,0.9,4,1.8,5.9
		c0.5,1.1,1,2.2,1.5,3.2c0.5,1,0.8,2.2,1.4,3.1c0.9,1.4,2.2,1,3.5,0.5c1.6-0.7,3.1-1.4,4.7-2.1c1.9-0.8,4-1.4,5.8-2.6
		c1.2-0.8,1-1.7,0.5-2.9C98.3,50.9,97.6,49.3,96.9,47.7z M84.3,57.9c-0.8-1.8-1.6-3.6-2.4-5.3c-0.4-0.9-0.9-1.9-1.2-2.8
		c4.6-2.1,9.1-4.6,13.9-6.1c0.2,0.5,0.4,1.1,0.6,1.6c0.4,0.8,0.7,1.7,1.1,2.5c0.6,1.3,1.1,2.6,1.7,3.9c0,0.1,0.1,0.2,0.1,0.3
		c-0.5,0.2-0.9,0.5-1.3,0.7c-0.7,0.3-1.4,0.5-2,0.8c-1.2,0.5-2.4,1-3.6,1.6c-1.1,0.6-2.2,1.1-3.4,1.5c-1.2,0.4-2.3,1.1-3.4,1.6
		C84.4,58.1,84.3,58,84.3,57.9z M81.6,43.6c-0.1-0.3-0.2-0.5-0.3-0.7c2.6-1.3,5.3-2.2,7.9-3.4c0.1,0.3,0.2,0.5,0.3,0.8
		C86.8,41.3,84.2,42.5,81.6,43.6z M82.2,40.3c1-0.4,2-0.8,3-1.3c0.8-0.4,1.6-0.8,2.5-1.1c0.7-0.3,0.9-0.5,1.4,0
		c0.2,0.3,0.4,0.6,0.1,0.9c-0.1,0.2-1,0.5-1.2,0.6c-0.4,0.2-0.9,0.4-1.4,0.5c-0.9,0.4-1.9,0.7-2.8,1.1c-1,0.4-2,0.9-3,1.4
		c-0.2,0.1-0.3,0.1-0.4,0.1c-0.2-0.3-0.4-0.9-0.5-1.3C80.2,41,81.8,40.5,82.2,40.3z M80.6,45.9c0.2-0.6,0.8-1.2,1-1.8
		c2.8-1.1,5.5-2.4,8.3-3.5c1.7,0.1,3.1,0.6,4.2,2.1c0.1,0.2,0.2,0.4,0.3,0.6c-4.8,1.5-9.3,3.9-13.9,6C80.2,48.2,80.1,47.1,80.6,45.9
		z M97.4,55.3c-2.7,1.4-5.6,2.4-8.4,3.7c-0.7,0.3-1.3,0.6-2,0.9c-1.4,0.5-1.9-0.3-2.4-1.2c1.1-0.5,2.1-1.1,3.2-1.5
		c1.3-0.5,2.4-0.9,3.6-1.6c1.1-0.6,2.3-1,3.4-1.5c0.7-0.3,1.4-0.5,2-0.8c0.5-0.2,1-0.6,1.6-0.8c0.1,0.2,0.2,0.4,0.3,0.7
		C99.1,54.3,98.4,54.8,97.4,55.3z"/>
	<path class="st0" d="M81.2,41.9c-0.1-0.2-0.1-0.4-0.2-0.5c-0.1-0.3-0.6-0.1-0.5,0.2c0.1,0.2,0.1,0.4,0.2,0.5
		C80.9,42.4,81.3,42.2,81.2,41.9z"/>
	<path class="st0" d="M85,40.2c-0.1-0.2-0.1-0.4-0.2-0.5c-0.1-0.3-0.6-0.1-0.5,0.2c0.1,0.2,0.1,0.4,0.2,0.5
		C84.7,40.7,85.1,40.5,85,40.2z"/>
	<path class="st0" d="M82.5,41.3c-0.1-0.2-0.1-0.4-0.2-0.5c-0.1-0.3-0.6-0.1-0.5,0.2c0.1,0.2,0.1,0.4,0.2,0.5
		C82.1,41.8,82.6,41.6,82.5,41.3z"/>
	<path class="st0" d="M83.7,40.8c-0.1-0.2-0.1-0.4-0.2-0.5c-0.1-0.3-0.6-0.1-0.5,0.2c0.1,0.2,0.1,0.4,0.2,0.5
		C83.4,41.3,83.9,41.1,83.7,40.8z"/>
	<path class="st0" d="M86.2,39.6c-0.1-0.2-0.1-0.4-0.2-0.5c-0.1-0.3-0.6-0.1-0.5,0.2c0.1,0.2,0.1,0.4,0.2,0.5
		C85.9,40.2,86.4,39.9,86.2,39.6z"/>
	<path class="st0" d="M87.5,39.1c-0.1-0.2-0.1-0.4-0.2-0.5c-0.1-0.3-0.6-0.1-0.5,0.2c0.1,0.2,0.1,0.4,0.2,0.5
		C87.2,39.6,87.6,39.4,87.5,39.1z"/>
	<path class="st0" d="M88.8,38.6c-0.1-0.2-0.1-0.4-0.2-0.5c-0.1-0.3-0.6-0.1-0.5,0.2c0.1,0.2,0.1,0.4,0.2,0.5
		C88.4,39.1,88.9,38.8,88.8,38.6z"/>
	<path class="st0" d="M87.7,54.8c0.2,0.2,0.5,0,0.4-0.3c-0.6-1.7-1.2-3.4-1.8-5c-0.1-0.3-0.6-0.1-0.5,0.2c0.5,1.3,0.9,2.5,1.4,3.8
		c-0.9-1.1-1.7-2.3-2.5-3.5c-0.1-0.2-0.5,0-0.4,0.2c0.3,1.3,0.7,2.7,0.9,4c-0.7-1.2-1.3-2.3-1.9-3.5c-0.1-0.3-0.6-0.1-0.5,0.2
		c0.9,1.6,1.8,3.2,2.6,4.7c0.1,0.3,0.5,0.1,0.5-0.1c-0.1-1.4-0.5-2.7-0.8-4.1C85.9,52.7,86.7,53.8,87.7,54.8z"/>
	<path class="st0" d="M89.5,53.8c-0.4-0.7-0.8-1.4-1.2-2.1c0.2-0.1,0.4-0.2,0.7-0.3c0.3-0.1,0.5-0.2,0.8-0.3
		c0.4,0.7,0.7,1.5,1.1,2.2c0.1,0.3,0.6,0.1,0.5-0.2c-0.8-1.6-1.6-3.1-2.3-4.7c-0.1-0.3-0.6-0.1-0.5,0.2c0.3,0.7,0.6,1.4,0.9,2.1
		c-0.3,0.1-0.5,0.2-0.8,0.3c-0.3,0.1-0.5,0.2-0.7,0.3c-0.3-0.7-0.6-1.4-0.8-2c-0.1-0.3-0.6-0.1-0.5,0.2c0.6,1.7,1.4,3.2,2.3,4.7
		C89.3,54.4,89.7,54.1,89.5,53.8z"/>
	<path class="st0" d="M91.8,52.7c0.5,0.6,1.4,0.1,1.9-0.3c0.3-0.2,0-0.6-0.3-0.4c-0.7,0.5-1.1,0.4-1.6-0.3c-0.2-0.3-0.4-0.8-0.5-1.1
		c0.4-0.1,0.8-0.3,1.2-0.5c0.3-0.1,0.1-0.6-0.2-0.5c-0.4,0.2-0.8,0.4-1.2,0.5c-0.3-0.7-0.6-1.3-0.9-2c0.4-0.2,0.8-0.3,1.2-0.5
		c0.3-0.1,0.1-0.6-0.2-0.5c-0.5,0.2-0.9,0.4-1.4,0.6c-0.1,0-0.1,0.1-0.1,0.1c-0.1,0.1-0.1,0.1,0,0.3c0.4,0.8,0.7,1.6,1.1,2.4
		C91.1,51.3,91.4,52.2,91.8,52.7z"/>
	<path class="st0" d="M94,49.5L94,49.5c0.3,0.7,0.7,1.4,1,2c0.1,0.3,0.6,0.1,0.5-0.2c-0.4-0.7-0.7-1.3-1-2c0.1-0.3-0.1-0.8-0.1-1.1
		c-0.1-0.7-0.2-1.4-0.3-2c-0.1-0.3-0.5-0.3-0.5,0.1c0.1,0.5,0.2,0.9,0.3,1.5c0,0.2,0.2,0.7,0.2,1.1c-0.6-0.6-1.2-1.2-1.8-1.8
		c-0.2-0.2-0.6,0.1-0.4,0.3C92.5,48,93.3,48.8,94,49.5z"/>
	<path class="st0" d="M81.5,48c-0.1-0.8,0.1-1.6,0.7-2.2c0.2-0.2-0.1-0.6-0.3-0.4c-0.7,0.7-1,1.7-0.8,2.7C81,48.4,81.6,48.4,81.5,48
		z"/>
	<path class="st0" d="M82.6,45.4c0.3-0.1,0.1-0.6-0.2-0.5C82.1,45,82.3,45.5,82.6,45.4z"/>
</g>
<g>
	<path class="st0" d="M93.7,63c-0.3,0.1-0.5,0.4-0.7,0.6c-0.2,0.3-0.3,0.5-0.5,0.7c-0.4,0.5-0.7,0.6-1.3,0.7c-0.9,0.1-1.8,0-2.7,0
		c-0.5,0-1-0.1-1.2,0.4c-0.3,1,1.3,1,2.4,0.9c-1,1.9-1.9,3.9-2.7,6c-0.4-0.1-0.8-0.2-1.2-0.3c-1.2-0.3-2.5-0.6-3.8-0.7
		c-0.4-1.6-0.8-3.2-1.2-4.8l0,0c0.5,0,1,0,1.5-0.1c0.9-0.1,0.7-1.2-0.1-1.2c-0.7-0.1-1.4-0.1-2-0.3c-0.7-0.1-1.2-0.3-1.9-0.2
		c0,0-0.1,0-0.1,0s-0.1,0-0.1,0.1c-0.6,0.3-0.7,1.3-0.1,1.8c0.4,0.3,1.1,0.4,1.5,0.3c0,0,0.1,0,0.1,0c0.3,1.5,0.7,3,1.1,4.6
		c-0.9,0.1-1.7,0.5-2.3,1.3c-1.6,1.7-1.2,4.4,0.8,5.6c0.3,0.2,0.5,0.3,0.8,0.4c-0.1,0.1-0.3,0.3-0.3,0.4c-0.1,0.4,0.2,0.8,0.6,0.9
		c0.4,0.1,0.8-0.1,1-0.5c0-0.1,0-0.3,0-0.4c0.5,0.1,1.1,0.1,1.6,0.1c1.8,0.1,3.6,0.1,5.4,0c0.4,0,0.8,0,1.3-0.1c0,0,0,0.1,0,0.1
		c-0.1,0.4,0.2,0.8,0.6,0.9c0.4,0.1,0.8-0.1,1-0.5c0.1-0.2,0-0.5-0.1-0.7c0.3-0.1,0.5-0.1,0.7-0.2c0.8-0.4,1-1.4,0.9-2.2
		c-0.3-1.9-2.1-3-3.9-3.7c0.9-2.2,1.6-4.4,2.7-6.5c0.6,0,1.2,0,1.6-0.4c0.4-0.4,0.7-1,0.9-1.4c0.1-0.2,0.5-0.6,0.5-0.9
		C94.4,63.2,94.1,62.9,93.7,63z M78.9,66.4c-0.4-0.1-1.2-0.9-0.5-1.2c0.8-0.1,1.5,0.2,2.2,0.3c0.3,0.1,1.2,0,1.5,0.2
		c0.5,0.3-0.4,0.4-0.7,0.4c-0.4,0-0.7,0.1-1.1,0.2C79.8,66.4,79.3,66.6,78.9,66.4z M80.1,66.8c0.1,0,0.3-0.1,0.4-0.1l0,0
		c0,0,0,0,0,0.1c0.4,1.6,0.8,3.1,1.2,4.6c-0.2,0-0.3,0-0.5,0C80.9,69.9,80.5,68.3,80.1,66.8z M80.9,79.4c-0.1,0.2-0.3,0.3-0.5,0.2
		c-0.2,0-0.3-0.2-0.2-0.4c0.1-0.1,0.2-0.2,0.4-0.3h0C80.8,79,80.9,79.2,80.9,79.4z M90.7,79.4c-0.1,0.2-0.3,0.3-0.5,0.2
		c-0.2,0-0.3-0.2-0.2-0.4c0.1-0.1,0.1-0.2,0.3-0.2c0,0,0.1,0,0.1,0C90.6,79,90.7,79.2,90.7,79.4z M92.1,77.1
		c-0.1,1.5-1.9,1.4-3.1,1.6c-1.5,0.2-3,0.1-4.5,0.1c-2.6,0-7.4-0.3-6.6-4.2c0.8-3.8,5.2-2.7,7.9-2.1C88,72.9,92.4,74.2,92.1,77.1z
		 M88.2,72.6c-0.2-0.1-0.4-0.1-0.7-0.2c0.8-2.1,1.7-4.1,2.7-6.1c0,0,0,0,0,0c0.1,0,0.2,0,0.2,0c0.1,0,0.2,0,0.3,0
		C89.8,68.3,89.1,70.5,88.2,72.6z M93.6,64.3c-0.2,0.3-0.4,0.7-0.6,0.9c-0.5,0.6-1.1,0.7-1.7,0.7l0,0c-0.2,0-0.4,0-0.7,0
		c-0.6,0-1.2,0-1.8,0c-0.4,0-1.3-0.1-0.5-0.4c0.4-0.1,1.1,0,1.5,0c0.5,0,1.1,0,1.6,0c0.4,0,0.7,0,1-0.2c0.5-0.3,0.5-0.9,0.9-1.3
		C94.2,63.2,93.7,64.1,93.6,64.3z"/>
	<path class="st0" d="M84.8,73c-0.1,0.1-0.1,0.1-0.1,0.2l0,0v0c0,0,0,0.1,0.1,0.1c0.2,0.1,0.4,0.3,0.6,0.4c-0.2,0.1-0.4,0.2-0.7,0.3
		c-0.3-0.7-0.9-1.2-2-1.5c-1.5-0.3-3.1,0.9-3.4,2.4c-0.4,1.6,0.8,2.9,2.4,3.2c1.6,0.3,2.9-0.4,3.2-2.1c0.1-0.6,0.1-1.1,0-1.5
		c0.3-0.1,0.6-0.3,0.9-0.4c0.1,0.1,0.3,0.2,0.4,0.4c0.1,0.1,0.2,0.1,0.3,0c0,0,0.1,0,0.1,0c0.2-0.1,0.7-0.4,0.5-0.7
		c-0.1-0.3-0.5-0.5-0.8-0.7c-0.3-0.2-0.6-0.4-0.9-0.5C85.2,72.4,85,72.8,84.8,73z M84.5,75.7c-0.1,1.5-1.1,2.3-2.5,2.1
		c-1.4-0.1-2.5-1.1-2.2-2.6c0.3-1.2,1.6-2.3,2.9-2c0.7,0.2,1.5,0.3,1.8,1.2v0c-0.7,0.4-1.5,0.7-2.3,0.9c-0.3,0.1-0.1,0.5,0.1,0.4
		c0.8-0.3,1.5-0.6,2.2-0.9C84.5,75,84.5,75.4,84.5,75.7z M86.7,73.8c-0.1,0.1-0.2,0.1-0.3,0.2c-0.4-0.3-0.7-0.6-1.1-0.9
		c0,0,0.1-0.1,0.1-0.1c0.1,0,0.4,0.2,0.4,0.3C86.1,73.3,86.5,73.6,86.7,73.8z"/>
	<path class="st0" d="M90.6,76.4c0,0.3,0.4,0.3,0.5,0c0-0.6-0.3-1.2-0.7-1.6c-0.2-0.2-0.5,0.1-0.3,0.3
		C90.4,75.4,90.6,75.9,90.6,76.4z"/>
	<path class="st0" d="M90.6,77c-0.3,0-0.3,0.4,0,0.4C90.9,77.5,90.9,77,90.6,77z"/>
</g>
<g>
	<path class="st0" d="M39,0.3c-0.2,0-0.3,0.3-0.4,0.4c-0.1,0.2-0.2,0.3-0.3,0.5c-0.3,0.4-0.5,0.4-0.9,0.4c-0.6,0-1.2,0-1.9,0
		c-0.3,0-0.7-0.1-0.8,0.3c-0.2,0.7,0.9,0.7,1.6,0.7c-0.7,1.4-1.3,2.7-1.9,4.1c-0.3-0.1-0.6-0.1-0.8-0.2c-0.8-0.2-1.7-0.4-2.6-0.5
		c-0.3-1.1-0.6-2.2-0.8-3.3l0,0c0.4,0,0.7,0,1.1-0.1c0.6-0.1,0.5-0.8-0.1-0.9c-0.5,0-0.9-0.1-1.4-0.2s-0.8-0.2-1.3-0.1
		c0,0,0,0-0.1,0c0,0-0.1,0-0.1,0c-0.4,0.2-0.5,0.9-0.1,1.2C28.5,3,29,3.1,29.3,3c0,0,0.1,0,0.1,0c0.3,1.1,0.5,2.1,0.8,3.2
		C29.6,6.3,29,6.5,28.5,7c-1.1,1.2-0.8,3,0.5,3.9c0.2,0.1,0.4,0.2,0.6,0.3c-0.1,0.1-0.2,0.2-0.2,0.3c-0.1,0.3,0.1,0.5,0.4,0.6
		c0.3,0,0.6-0.1,0.7-0.4c0-0.1,0-0.2,0-0.3c0.4,0.1,0.7,0.1,1.1,0.1c1.2,0,2.5,0,3.8,0c0.3,0,0.6,0,0.9-0.1c0,0,0,0,0,0.1
		c-0.1,0.3,0.1,0.5,0.4,0.6c0.3,0,0.6-0.1,0.7-0.4c0-0.1,0-0.3-0.1-0.4c0.2,0,0.3-0.1,0.5-0.1c0.6-0.3,0.7-0.9,0.6-1.5
		c-0.2-1.3-1.5-2.1-2.7-2.6c0.6-1.5,1.1-3,1.9-4.5c0.4,0,0.8,0,1.1-0.3c0.3-0.3,0.5-0.7,0.7-1c0.1-0.1,0.3-0.4,0.3-0.6
		C39.5,0.5,39.3,0.3,39,0.3z M28.8,2.7c-0.3-0.1-0.8-0.7-0.3-0.9C29,1.8,29.4,2,30,2.1c0.2,0,0.8,0,1,0.1c0.4,0.2-0.3,0.3-0.5,0.3
		c-0.3,0-0.5,0.1-0.8,0.1C29.4,2.7,29.1,2.8,28.8,2.7z M29.6,2.9c0.1,0,0.2-0.1,0.3-0.1l0,0v0c0.3,1.1,0.6,2.2,0.8,3.2
		c-0.1,0-0.2,0-0.4,0C30.1,5.1,29.9,4,29.6,2.9z M30.2,11.7c0,0.1-0.2,0.2-0.3,0.1c-0.1,0-0.2-0.1-0.1-0.3c0.1-0.1,0.1-0.1,0.3-0.2
		c0,0,0,0,0,0C30.1,11.4,30.2,11.6,30.2,11.7z M37,11.7c0,0.1-0.2,0.2-0.3,0.1c-0.1,0-0.2-0.1-0.1-0.3c0-0.1,0.1-0.1,0.2-0.1
		c0,0,0.1,0,0.1,0C36.9,11.4,37,11.6,37,11.7z M38,10.1c-0.1,1-1.3,1-2.1,1.1c-1,0.1-2.1,0.1-3.1,0.1c-1.8,0-5.1-0.2-4.6-2.9
		c0.5-2.6,3.6-1.9,5.5-1.5C35.1,7.2,38.1,8.1,38,10.1z M35.2,7c-0.1,0-0.3-0.1-0.4-0.1C35.4,5.5,36,4,36.7,2.6l0,0
		c0.1,0,0.1,0,0.1,0c0.1,0,0.1,0,0.2,0C36.4,4,35.8,5.5,35.2,7z M38.9,1.2c-0.1,0.2-0.3,0.4-0.4,0.6c-0.4,0.4-0.7,0.4-1.2,0.4l0,0
		c-0.1,0-0.3,0-0.5,0c-0.4,0-0.8,0-1.2,0c-0.3,0-0.9-0.1-0.3-0.3c0.3-0.1,0.7,0,1,0c0.4,0,0.8,0,1.1,0c0.3,0,0.5,0,0.7-0.1
		c0.3-0.2,0.4-0.7,0.7-0.9C39.4,0.5,39,1.1,38.9,1.2z"/>
	<path class="st0" d="M32.9,7.2c0,0,0,0.1,0,0.1l0,0v0c0,0,0,0,0.1,0.1c0.1,0.1,0.3,0.2,0.4,0.3c-0.1,0.1-0.3,0.1-0.5,0.2
		c-0.2-0.5-0.7-0.8-1.4-1c-1.1-0.2-2.2,0.6-2.4,1.6c-0.3,1.1,0.6,2,1.7,2.2c1.1,0.2,2-0.3,2.2-1.5C33,9,33,8.6,33,8.3
		c0.2-0.1,0.4-0.2,0.7-0.3c0.1,0.1,0.2,0.1,0.3,0.3c0.1,0,0.1,0,0.2,0c0,0,0,0,0.1,0c0.1-0.1,0.4-0.3,0.4-0.5c0-0.2-0.4-0.4-0.5-0.5
		c-0.2-0.1-0.4-0.3-0.6-0.4C33.2,6.9,33,7.1,32.9,7.2z M32.7,9.1c-0.1,1-0.7,1.6-1.8,1.4c-0.9-0.1-1.8-0.8-1.5-1.8
		c0.2-0.8,1.1-1.6,2-1.4c0.5,0.1,1.1,0.2,1.2,0.8v0c-0.5,0.3-1,0.5-1.6,0.7c-0.2,0.1-0.1,0.4,0.1,0.3c0.5-0.2,1-0.4,1.5-0.6
		C32.7,8.7,32.7,8.9,32.7,9.1z M34.2,7.8c0,0-0.1,0.1-0.2,0.1c-0.3-0.2-0.5-0.4-0.8-0.6c0,0,0.1-0.1,0.1-0.1c0.1,0,0.3,0.1,0.3,0.2
		C33.8,7.5,34.1,7.7,34.2,7.8z"/>
	<path class="st0" d="M36.9,9.6c0,0.2,0.3,0.2,0.3,0c0-0.4-0.2-0.8-0.5-1.1c-0.1-0.1-0.4,0.1-0.2,0.2C36.7,9,36.9,9.3,36.9,9.6z"/>
	<path class="st0" d="M36.9,10c-0.2,0-0.2,0.3,0,0.3C37.1,10.3,37.1,10,36.9,10z"/>
</g>
<g>
	<path class="st0" d="M81.2,95.6c0.6-1.6,1.5-3.1,1.8-4.8c0.1-0.7-0.1-0.7-0.7-0.9c-0.6-0.3-1.2-0.5-1.8-0.7l0,0
		c-0.1-0.1-0.1-0.2-0.2-0.3c-0.2-0.3-0.1-0.3,0.1-0.6c0.1-0.2,0.2-0.4,0.1-0.6c-0.1-0.5-0.9-0.8-1.4-0.6c-0.5,0.1-0.4,0.6-0.6,0.9
		c-0.1,0.1-0.5,0.1-0.7,0.2c0,0,0,0,0,0c-0.7-0.3-1.6-0.7-2.3-0.7c-0.3,0-0.4,0.2-0.6,0.4c-0.2,0.5-0.4,1-0.6,1.5
		c-0.5,1.4-1.1,2.7-1.5,4.1c-0.2,0.5-0.4,1.1-0.6,1.6c-0.1,0.4-0.4,0.9-0.4,1.4c0.1,0.9,1.1,1.1,1.8,1.4c1.2,0.5,2.4,0.8,3.6,1.3
		c0.5,0.2,1,0.3,1.5,0.5c0.4,0.1,0.7,0.3,1,0c0.5-0.4,0.6-1.1,0.8-1.6C80.7,97.2,80.9,96.4,81.2,95.6z M78.6,88.3
		c0.1,0,0.1-0.1,0.1-0.1c0.1-0.4,0.1-0.9,0.6-0.9c0.3,0,0.8,0.2,0.8,0.6c0,0.2-0.2,0.5-0.4,0.6c0,0-0.1,0.1,0,0.1
		c0.2,0.4,0.6,0.7,0.7,1.1c0,0.1,0.1,0.4,0,0.5c-0.3,0.4-0.8,0.2-1.2,0c-0.5-0.2-1-0.4-1.5-0.5c-0.1,0-0.4-0.1-0.4-0.2
		c-0.2-0.2-0.1-0.2-0.1-0.4c0-0.1,0.1-0.3,0.1-0.4C77.5,88.3,78.2,88.3,78.6,88.3z M80.7,90.4c0.2,0.1,0.5,0.2,0.7,0.3
		c0.1,0,0.3,0.1,0.3,0.1c0,0.1-0.1,0.3-0.1,0.3c-0.2,0.5-0.4,0.9-0.5,1.4c-0.5,1.4-1,2.7-1.5,4.1c-0.2,0.5-0.4,0.9-0.5,1.4
		c0,0-0.1,0.3-0.1,0.3c-0.1,0.1-0.8-0.3-1-0.3c-0.5-0.1-1.1-0.3-1.7-0.5c-0.6-0.3-1.2-0.4-1.8-0.7c-0.4-0.1-1.1-0.3-1.1-0.7
		c0-0.3,0.1-0.6,0.2-0.8c0.4-1.2,0.9-2.4,1.3-3.7c0.2-0.5,0.4-1.1,0.7-1.6c0.1-0.2,0.2-1.1,0.4-1.2c0.2-0.1,0.8,0.1,1.1,0.3
		c-0.1,0.2-0.1,0.5,0,0.6c0.3,0.3,1,0.4,1.4,0.5c0.4,0.2,0.9,0.3,1.4,0.5C80.2,90.9,80.5,90.9,80.7,90.4z M81.4,94.4
		c-0.5,1.2-0.9,2.4-1.4,3.6c-0.3,0.7-0.4,1.5-1.3,1.3c-0.4-0.1-0.8-0.3-1.2-0.4c-0.9-0.3-1.8-0.7-2.7-1c-0.5-0.2-1-0.4-1.5-0.6
		c-0.3-0.1-0.6-0.2-0.8-0.3c-0.7-0.5-0.4-1.1-0.2-1.7c0.2-0.5,0.3-0.9,0.5-1.4c0.4-1.1,0.8-2.1,1.2-3.2c0.2-0.6,0.4-1.2,0.7-1.8
		c0.1-0.3,0.3-0.9,0.5-1.2c0.4-0.4,1.6,0.2,2.3,0.4c-0.1,0.1-0.2,0.1-0.3,0.3c0,0,0,0,0,0.1c0,0,0,0.1-0.1,0.1
		c-0.3-0.1-0.9-0.4-1.2-0.4s-0.3,0.4-0.4,0.7c-0.3,0.8-0.6,1.6-0.9,2.4c-0.4,1.3-1,2.6-1.4,3.9c-0.1,0.3-0.3,0.8-0.1,1.1
		c0.1,0.1,0.5,0.3,0.7,0.4c0.3,0.1,0.7,0.3,1,0.4c0.7,0.2,1.4,0.4,2.1,0.7c0.5,0.2,1.1,0.4,1.7,0.6c0.2,0.1,0.4,0.1,0.6,0
		c0.2-0.2,0.3-0.8,0.4-1c0.6-1.5,1.2-3.1,1.7-4.6c0.2-0.6,0.5-1.2,0.7-1.8c0.2-0.6-0.6-0.8-1.1-0.9c0,0,0-0.1,0-0.1
		c0-0.2,0-0.3-0.1-0.5c0.2,0.1,0.4,0.2,0.7,0.3c0.2,0.1,0.5,0.2,0.7,0.3c0.5,0.2,0.7,0.2,0.7,0.7C82.6,92,81.9,93.3,81.4,94.4z"/>
	<path class="st0" d="M78.4,91.6c-0.4-0.2-0.7-0.3-1.2-0.5c-0.2,0-0.3,0.2-0.1,0.3c0.4,0.1,0.8,0.3,1.2,0.5c0.2,0.1,0.4,0.1,0.6,0.2
		c0.3,0.1,0.5,0.2,0.8,0.3c0.1,0.1,0.3-0.2,0.1-0.3c-0.2-0.1-0.4-0.2-0.6-0.3C78.9,91.7,78.6,91.7,78.4,91.6z"/>
	<path class="st0" d="M76.6,92.5c-0.2-0.1-0.3,0.2-0.1,0.3c0.5,0.1,0.9,0.3,1.4,0.5c0.4,0.2,0.8,0.3,1.3,0.4c0.2,0,0.3-0.2,0.1-0.3
		C78.4,93.2,77.5,92.8,76.6,92.5z"/>
	<path class="st0" d="M78.8,94.9c-0.5-0.1-0.9-0.3-1.4-0.5c-0.5-0.2-0.9-0.4-1.4-0.4c-0.2,0-0.2,0.3,0,0.3c0.5,0,1,0.3,1.5,0.5
		c0.4,0.1,0.8,0.3,1.2,0.4C78.9,95.2,79,95,78.8,94.9z"/>
	<path class="st0" d="M78.2,96.3c-0.9-0.2-1.8-0.8-2.7-1c-0.2,0-0.2,0.3,0,0.3c0.9,0.2,1.7,0.8,2.6,1C78.3,96.6,78.4,96.4,78.2,96.3
		z"/>
	<path class="st0" d="M76.7,91c-0.1,0-0.1-0.1-0.2-0.1c-0.2,0-0.3,0.2-0.1,0.3c0.1,0,0.1,0.1,0.2,0.1C76.7,91.3,76.8,91.1,76.7,91z"
		/>
	<path class="st0" d="M75.8,92.5c0,0,0.1,0,0.1,0l0,0c0,0.1,0.1,0.1,0.2,0.1l0,0c0,0,0.1-0.1,0-0.1c0-0.1-0.2-0.1-0.3-0.1
		C75.6,92.2,75.6,92.5,75.8,92.5z"/>
	<path class="st0" d="M75.5,93.8c-0.1,0-0.1-0.1-0.2-0.1c-0.2-0.1-0.3,0.2-0.1,0.3c0.1,0,0.1,0.1,0.2,0.1
		C75.6,94.1,75.7,93.9,75.5,93.8z"/>
	<path class="st0" d="M75,95.1c-0.1,0-0.1,0-0.2-0.1c-0.2-0.1-0.3,0.2-0.1,0.3c0.1,0,0.1,0,0.2,0.1C75.1,95.4,75.2,95.2,75,95.1z"/>
	<path class="st0" d="M79.4,88L79.4,88c0.2,0.1,0.3-0.2,0.1-0.3l0,0C79.4,87.6,79.3,87.9,79.4,88z"/>
	<path class="st0" d="M77.7,89.2c0-0.1,0.1-0.3,0.1-0.3c0.1-0.1,0.2-0.1,0.3-0.1c0.2,0,0.1-0.3,0-0.3c-0.2,0-0.3,0.1-0.5,0.2
		c-0.1,0.1-0.2,0.3-0.3,0.4C77.4,89.3,77.6,89.4,77.7,89.2z"/>
	<path class="st0" d="M78.5,88.8c0.2,0.1,0.3-0.2,0.1-0.3C78.5,88.4,78.3,88.7,78.5,88.8z"/>
</g>
<g>
	<path class="st0" d="M51,89.3c-0.1-0.4-0.2-1.1-0.6-1.5c-0.4-0.4-0.7-0.6-0.5-1.2c0-0.2,0.2-0.3,0.2-0.5c0-0.8-0.6-1.5-1.1-2
		c-0.2-0.2-0.5-0.4-0.7-0.5c-0.5-0.3-0.7-0.4-0.9-1c0.1,0,0.2-0.1,0.3-0.1c0.3-0.1,0.1-0.5-0.1-0.4c0,0-0.1,0-0.1,0
		c-0.1-0.5-0.3-1.4-0.7-1.5c-0.5-0.1-1.3,0.3-1.8,0.5c-0.5,0.2-1.2,0.3-1.7,0.6c-0.5,0.3,0,1.2,0.1,1.7c0,0,0,0-0.1,0
		c-0.3,0.1-0.1,0.4,0.1,0.4c0.1,0,0.2,0,0.3-0.1c0.2,0.5,0.2,0.7,0,1.1c-0.1,0.2-0.2,0.4-0.3,0.6c-0.3,0.7-0.4,1.5-0.1,2.2
		c0.1,0.5,0.3,0.5,0.7,0.8c0.8,0.7,0.1,1.1,0.2,1.8c0.1,1.1,0.7,2.2,1,3.2c0.3,0.7,0.5,1.5,0.7,2.2c0.2,0.7,0.4,1.5,0.7,2.1
		c0.5,1,1.6,0.7,2.5,0.4c0.9-0.2,1.7-0.5,2.6-0.8c0.7-0.2,1.2-0.4,1.5-1.1c0.4-1.1-0.4-2.6-0.8-3.6C51.7,91.7,51.3,90.5,51,89.3z
		 M44.5,91.1c0-0.1,0-0.2-0.1-0.3c1.9-0.8,4-1.3,5.9-2c0.6,1.9,1.2,3.8,1.9,5.8l0,0c-0.9,0.5-1.9,0.7-2.9,1c-1,0.3-2,0.7-3,1
		C45.7,94.8,45.1,93,44.5,91.1z M43.4,82.5c0-0.4,0.1-0.3,0.3-0.4c0.4-0.2,0.9-0.3,1.3-0.4c0.4-0.1,0.8-0.4,1.2-0.4
		c0.5,0,0.6,0.7,0.8,1.1c-1.1,0.4-2.2,0.7-3.3,1.1C43.6,83.1,43.4,82.7,43.4,82.5z M44.4,88.7c-0.1-0.2-0.4-0.3-0.6-0.4
		c-0.3-0.2-0.3-0.4-0.4-0.8c-0.2-0.9,0.1-2,0.8-2.7c0,0,0.1-0.1,0-0.2c-0.1-0.3-0.2-0.6-0.3-0.9c1-0.3,2-0.6,2.9-0.9
		c0.1,0.3,0.2,0.6,0.3,0.9c0,0.1,0.1,0.1,0.1,0.1c0.8,0.1,1.5,0.7,1.9,1.4c0.3,0.4,0.4,0.8,0.3,1.2c0,0.2-0.2,0.4-0.2,0.6
		c0,0.3,0.1,0.6,0.3,0.8c0.1,0.2,0.4,0.3,0.6,0.5c0,0.1,0.1,0.1,0.1,0.2c-2,0.7-4,1.2-5.9,2c0-0.2,0-0.4,0.1-0.8
		C44.6,89.3,44.7,89,44.4,88.7z M51.8,97c-0.6,0.4-1.6,0.5-2.2,0.7c-0.5,0.1-1,0.3-1.5,0.4c-0.3,0-0.7,0.1-1,0
		c-0.3-0.2-0.5-0.7-0.6-1.1c0,0,0,0,0-0.1c1.1-0.3,2.2-0.8,3.4-1.1c0.9-0.3,1.8-0.4,2.6-0.9C52.6,95.8,52.7,96.5,51.8,97z"/>
	<path class="st0" d="M47.5,93.5c0.1-0.1,0.3-0.1,0.5-0.2c0,0.6,0.1,1.2,0.1,1.8c0,0.2,0.3,0.4,0.4,0.1v0l0,0l0,0
		c0.4-1.1,0.7-2.2,1.1-3.2c0.1-0.1-0.1-0.3-0.3-0.3c-0.3,0.1-0.5,0.1-0.8,0.2c-0.1-0.5-0.2-0.9-0.3-1.4c0,0,0-0.1,0-0.1
		c0-0.1-0.1-0.1-0.2-0.1c-0.1,0-0.1,0.1-0.1,0.1c-0.3,0.9-0.4,1.8-0.6,2.8C47.2,93.4,47.4,93.6,47.5,93.5z M48.3,93.1
		c0-0.1-0.1-0.2-0.3-0.2c-0.1,0-0.3,0.1-0.4,0.1c0.1-0.5,0.2-1.1,0.3-1.6c0.1,0.3,0.1,0.5,0.1,0.8c0,0.1,0.1,0.1,0.3,0.1
		c0.2-0.1,0.4-0.1,0.6-0.1c-0.2,0.6-0.4,1.2-0.7,1.8C48.4,93.7,48.3,93.4,48.3,93.1z"/>
	<path class="st0" d="M44.2,82.7c0-0.1-0.1-0.2-0.1-0.3c-0.1-0.3-0.5-0.1-0.4,0.1c0,0.1,0.1,0.2,0.1,0.3
		C43.9,83.1,44.3,83,44.2,82.7z"/>
	<path class="st0" d="M45,82.5c0-0.1-0.1-0.2-0.1-0.3c-0.1-0.3-0.5-0.1-0.4,0.1c0,0.1,0.1,0.2,0.1,0.3C44.6,82.9,45,82.7,45,82.5z"
		/>
	<path class="st0" d="M45.7,82.2c0-0.1-0.1-0.2-0.1-0.3c-0.1-0.3-0.5-0.1-0.4,0.1c0,0.1,0.1,0.2,0.1,0.3
		C45.4,82.6,45.8,82.5,45.7,82.2z"/>
	<path class="st0" d="M46.4,82c0-0.1-0.1-0.2-0.1-0.3c-0.1-0.3-0.5-0.1-0.4,0.1c0,0.1,0.1,0.2,0.1,0.3C46.1,82.4,46.5,82.2,46.4,82z
		"/>
	<path class="st0" d="M44.5,87.5c-0.2-0.6-0.2-1.3,0.3-1.8c0.2-0.2-0.1-0.5-0.3-0.3c-0.5,0.6-0.5,1.4-0.3,2.2
		C44.2,87.9,44.6,87.8,44.5,87.5z"/>
	<path class="st0" d="M45,85.4c0.3-0.1,0.1-0.5-0.1-0.4C44.6,85.1,44.8,85.5,45,85.4z"/>
</g>
<g>
	<path class="st0" d="M55,11.7c-0.1-0.4-0.2-1.1-0.6-1.5C54,9.8,53.7,9.6,53.9,9c0-0.2,0.2-0.3,0.2-0.5c0-0.8-0.6-1.5-1.1-2
		c-0.2-0.2-0.5-0.4-0.7-0.5c-0.5-0.3-0.7-0.4-0.9-1c0.1,0,0.2-0.1,0.3-0.1c0.3-0.1,0.1-0.5-0.1-0.4c0,0-0.1,0-0.1,0
		C51.2,4,51.1,3.1,50.6,3c-0.5-0.1-1.3,0.3-1.8,0.5c-0.5,0.2-1.2,0.3-1.7,0.6c-0.5,0.3,0,1.2,0.1,1.7c0,0,0,0-0.1,0
		c-0.3,0.1-0.1,0.4,0.1,0.4c0.1,0,0.2,0,0.3-0.1c0.2,0.5,0.2,0.7,0,1.1c-0.1,0.2-0.2,0.4-0.3,0.6c-0.3,0.7-0.4,1.5-0.1,2.2
		c0.1,0.5,0.3,0.5,0.7,0.8c0.8,0.7,0.1,1.1,0.2,1.8c0.1,1.1,0.7,2.2,1,3.2c0.3,0.7,0.5,1.5,0.7,2.2c0.2,0.7,0.4,1.5,0.7,2.1
		c0.5,1,1.6,0.7,2.5,0.4c0.9-0.2,1.7-0.5,2.6-0.8c0.7-0.2,1.2-0.4,1.5-1.1c0.4-1.1-0.4-2.6-0.8-3.6C55.8,14,55.4,12.9,55,11.7z
		 M48.5,13.4c0-0.1,0-0.2-0.1-0.3c1.9-0.8,4-1.3,5.9-2c0.6,1.9,1.2,3.8,1.9,5.8l0,0c-0.9,0.5-1.9,0.7-2.9,1c-1,0.3-2,0.7-3,1
		C49.7,17.1,49.1,15.3,48.5,13.4z M47.4,4.8c0-0.4,0.1-0.3,0.3-0.4C48.1,4.1,48.6,4,49,3.9c0.4-0.1,0.8-0.4,1.2-0.4
		c0.5,0,0.6,0.7,0.8,1.1c-1.1,0.4-2.2,0.7-3.3,1.1C47.6,5.4,47.4,5.1,47.4,4.8z M48.4,11c-0.1-0.2-0.4-0.3-0.6-0.4
		c-0.3-0.2-0.3-0.4-0.4-0.8c-0.2-0.9,0.1-2,0.8-2.7c0,0,0.1-0.1,0-0.2c-0.1-0.3-0.2-0.6-0.3-0.9c1-0.3,2-0.6,2.9-0.9
		C51,5.4,51,5.7,51.2,6c0,0.1,0.1,0.1,0.1,0.1c0.8,0.1,1.5,0.7,1.9,1.4c0.3,0.4,0.4,0.8,0.3,1.2c0,0.2-0.2,0.4-0.2,0.6
		c0,0.3,0.1,0.6,0.3,0.8c0.1,0.2,0.4,0.3,0.6,0.5c0,0.1,0.1,0.1,0.1,0.2c-2,0.7-4,1.2-5.9,2c0-0.2,0-0.4,0.1-0.8
		C48.6,11.6,48.7,11.3,48.4,11z M55.8,19.4c-0.6,0.4-1.6,0.5-2.2,0.7c-0.5,0.1-1,0.3-1.5,0.4c-0.3,0-0.7,0.1-1,0
		c-0.3-0.2-0.5-0.7-0.6-1.1c0,0,0,0,0-0.1c1.1-0.3,2.2-0.8,3.4-1.1c0.9-0.3,1.8-0.4,2.6-0.9C56.6,18.1,56.7,18.8,55.8,19.4z"/>
	<path class="st0" d="M51.5,15.9c0.1-0.1,0.3-0.1,0.5-0.2c0,0.6,0.1,1.2,0.1,1.8c0,0.2,0.3,0.4,0.4,0.1v0l0,0l0,0
		c0.4-1.1,0.7-2.2,1.1-3.2c0.1-0.1-0.1-0.3-0.3-0.3c-0.3,0.1-0.5,0.1-0.8,0.2c-0.1-0.5-0.2-0.9-0.3-1.4c0,0,0-0.1,0-0.1
		c0-0.1-0.1-0.1-0.2-0.1c-0.1,0-0.1,0.1-0.1,0.1c-0.3,0.9-0.4,1.8-0.6,2.8C51.2,15.8,51.4,15.9,51.5,15.9z M52.4,15.4
		c0-0.1-0.1-0.2-0.3-0.2c-0.1,0-0.3,0.1-0.4,0.1c0.1-0.5,0.2-1.1,0.3-1.6c0.1,0.3,0.1,0.5,0.1,0.8c0,0.1,0.1,0.1,0.3,0.1
		c0.2-0.1,0.4-0.1,0.6-0.1c-0.2,0.6-0.4,1.2-0.7,1.8C52.4,16,52.4,15.7,52.4,15.4z"/>
	<path class="st0" d="M48.2,5.1c0-0.1-0.1-0.2-0.1-0.3c-0.1-0.3-0.5-0.1-0.4,0.1c0,0.1,0.1,0.2,0.1,0.3C47.9,5.4,48.3,5.3,48.2,5.1z
		"/>
	<path class="st0" d="M49,4.8c0-0.1-0.1-0.2-0.1-0.3c-0.1-0.3-0.5-0.1-0.4,0.1c0,0.1,0.1,0.2,0.1,0.3C48.6,5.2,49,5.1,49,4.8z"/>
	<path class="st0" d="M49.7,4.6c0-0.1-0.1-0.2-0.1-0.3c-0.1-0.3-0.5-0.1-0.4,0.1c0,0.1,0.1,0.2,0.1,0.3C49.4,4.9,49.8,4.8,49.7,4.6z
		"/>
	<path class="st0" d="M50.5,4.3c0-0.1-0.1-0.2-0.1-0.3c-0.1-0.3-0.5-0.1-0.4,0.1c0,0.1,0.1,0.2,0.1,0.3C50.1,4.7,50.5,4.6,50.5,4.3z
		"/>
	<path class="st0" d="M48.6,9.9c-0.2-0.6-0.2-1.3,0.3-1.8c0.2-0.2-0.1-0.5-0.3-0.3C48,8.5,48,9.3,48.2,10
		C48.2,10.2,48.6,10.1,48.6,9.9z"/>
	<path class="st0" d="M49,7.8c0.3-0.1,0.1-0.5-0.1-0.4C48.6,7.5,48.8,7.8,49,7.8z"/>
</g>
<g>
	<path class="st0" d="M13.1,79.1c-0.1-0.3-0.2-1.1-0.6-1.2c-0.2,0-0.4,0-0.6,0.2c-0.1-0.4-0.4-0.8-0.7-0.9C10.8,77,10.5,77,10.1,77
		C10,76.5,9.9,75.5,9.6,75c-0.1-0.2-0.1-0.3-0.3-0.4c-0.3-0.1-0.8,0.1-1.1,0.2c-0.5,0.1-1,0.3-1.5,0.4c-0.5,0.1-0.9,0.2-1.4,0.4
		c-0.2,0.1-0.7,0.1-0.8,0.3c-0.1,0.2,0,0.4,0,0.5c0.1,0.6,0.3,1.2,0.5,1.9c-0.1,0-0.3,0.1-0.4,0.2c-0.8,0.5-0.3,1.9-0.2,2.7
		c0.3,1.4,0.6,2.7,1,3.9c0.2,0.7,0.4,2.1,1.2,2.3c0.2,0.1,0.4,0,0.7,0c0.1,0.7,0.2,1.5,0.5,2.1c0.1,0.2,0.2,0.4,0.4,0.4
		c0.3,0.1,0.8-0.1,1.2-0.2c0.4-0.1,0.9-0.3,1.4-0.4c0.4-0.1,0.8-0.2,1.2-0.3c0.3-0.1,0.8-0.1,1-0.4c0.1-0.2,0-0.4,0-0.6
		c-0.1-0.7-0.3-1.3-0.5-1.9h0c0.3-0.1,0.6-0.2,0.8-0.5c0.5-0.8-0.1-1.9-0.3-2.6c-0.2-0.9-0.4-1.8-0.6-2.6c0.3,0.1,0.5,0,0.7-0.1
		C13.5,80.1,13.2,79.5,13.1,79.1z M4.9,76.1c0.1-0.1,0.7-0.2,0.9-0.3c0.3-0.1,0.7-0.2,1-0.3c0.6-0.1,1.2-0.3,1.9-0.5
		c0.5-0.1,0.7,0.3,0.9,0.8c0.1,0.4,0.2,0.9,0.3,1.3c0,0-0.1,0-0.1,0c-0.7,0.2-1.4,0.4-2.1,0.6c-0.6,0.1-1.2,0.3-1.9,0.5
		c-0.1,0-0.3,0.1-0.4,0.1C5.1,77.8,4.6,76.4,4.9,76.1z M12.4,87.6c0.1,0.5,0.3,0.8-0.1,1.1c-0.5,0.3-1.2,0.3-1.7,0.4
		c-0.5,0.1-1.1,0.3-1.7,0.4c-0.1,0-0.3,0.1-0.5,0.1c-0.3-0.1-0.4-0.5-0.5-0.8c-0.2-0.4-0.3-1-0.4-1.5c0.2,0,0.4-0.1,0.7-0.1
		c0.8-0.2,1.5-0.4,2.3-0.6c0.5-0.1,1.1-0.3,1.6-0.4C12.3,86.7,12.4,87.2,12.4,87.6z M12.8,83.8c0.1,0.2,0.1,0.4,0.2,0.6
		c0.1,0.5,0.1,1.1-0.4,1.4c-0.4,0.3-1.3,0.3-1.7,0.4c-0.6,0.1-1.2,0.3-1.9,0.5c-0.5,0.1-1.7,0.6-2.2,0.4c-0.7-0.3-0.9-1.3-1.1-1.9
		c-0.2-0.5-0.3-1.1-0.5-1.7c-0.3-1.1-0.5-2.2-0.7-3.4c-0.1-0.6,0-1.1,0.6-1.5c0.2-0.1,0.5-0.1,0.7-0.2c0.6-0.1,1.2-0.3,1.9-0.5
		c0.6-0.1,1.1-0.3,1.7-0.4c0.6-0.2,1.3-0.4,1.8,0.1c0.4,0.4,0.4,1.1,0.6,1.7c0.1,0.5,0.3,1,0.4,1.5C12.4,81.9,12.6,82.9,12.8,83.8z
		 M12.8,80.1c-0.1,0.1-0.4,0.2-0.5,0.1c0,0,0,0,0,0c0-0.1-0.1-0.3-0.1-0.4c-0.1-0.3-0.1-0.8-0.2-1.2c0,0,0,0,0,0
		c0.1-0.2,0.4-0.2,0.5-0.1c0.1,0.1,0.2,0.6,0.3,0.8c0.1,0.2,0.1,0.4,0.1,0.6C12.9,79.9,13,79.9,12.8,80.1z"/>
	<path class="st0" d="M10.4,80L10.4,80C10.4,80,10.4,80,10.4,80C10.4,80,10.4,80,10.4,80L10.4,80c-0.5,0.1-0.9,0.3-0.8,0.8
		c0,0.3,0.2,0.5,0.5,0.7c-0.1,0.3-0.3,0.6-0.3,1c0,0,0,0-0.1,0c0,0,0,0,0,0c0,0,0,0,0,0c0,0,0,0,0,0l0,0c-0.1,0-0.2,0-0.3,0.1
		c-0.3-0.3-0.5-0.5-0.8-0.7c0.1-0.1,0.2-0.4,0.2-0.5c0-0.4-0.4-0.7-0.8-0.7c0,0,0,0,0,0c0,0,0,0,0,0c0,0,0,0,0,0l0,0
		c-0.4,0.1-0.8,0.3-0.8,0.8c0,0.3,0.3,0.6,0.5,0.7c-0.1,0.3-0.3,0.6-0.4,0.9h0c0,0,0,0,0,0c0,0,0,0,0,0c0,0,0,0,0,0l0,0
		c-0.4,0.1-0.8,0.3-0.8,0.8c0,0.4,0.4,0.8,0.8,0.8s0.8-0.5,0.8-0.9c0-0.3-0.2-0.5-0.4-0.6c0.1-0.3,0.3-0.7,0.4-0.9l0,0
		c0.1,0,0.3-0.1,0.4-0.1c0,0,0,0,0.1,0.1c0.3,0.2,0.5,0.4,0.7,0.6c-0.1,0.1-0.2,0.3-0.1,0.5c0,0.4,0.4,0.8,0.8,0.8s0.8-0.5,0.8-0.9
		c0-0.3-0.2-0.5-0.4-0.6c0.1-0.3,0.2-0.7,0.3-1h0c0.4,0,0.8-0.5,0.8-0.9C11.2,80.3,10.8,80,10.4,80z M7.5,83.9
		c0,0.2-0.3,0.4-0.5,0.4c-0.2,0-0.4-0.3-0.5-0.5c0-0.3,0.3-0.4,0.5-0.4l0,0c0,0,0,0,0,0C7.3,83.4,7.6,83.7,7.5,83.9z M7.8,81.9
		c-0.2,0-0.4-0.3-0.5-0.5c0-0.3,0.3-0.4,0.5-0.4l0,0c0,0,0,0,0,0c0.3,0,0.5,0.3,0.4,0.5C8.2,81.6,8,81.9,7.8,81.9z M10.1,83.3
		c0,0.2-0.3,0.4-0.5,0.4c-0.2,0-0.4-0.3-0.5-0.5c0-0.3,0.3-0.4,0.5-0.4l0,0c0,0,0,0,0,0C9.9,82.7,10.1,83,10.1,83.3z M10.9,80.8
		c0,0.2-0.3,0.4-0.5,0.4c-0.2,0-0.4-0.3-0.5-0.5c0-0.3,0.3-0.4,0.5-0.4l0,0c0,0,0,0,0,0C10.7,80.3,10.9,80.6,10.9,80.8z"/>
	<path class="st0" d="M5.5,79.5c0.1-0.1-0.1-0.4-0.2-0.3c-0.5,0.5-0.2,1.3-0.1,1.9c0.1,0.2,0.4,0.1,0.3-0.1
		C5.4,80.6,5.1,79.9,5.5,79.5z"/>
	<path class="st0" d="M6,79.1L6,79.1c-0.1-0.2-0.4-0.1-0.3,0.1l0,0C5.8,79.3,6.1,79.3,6,79.1z"/>
</g>
<g>
	<path class="st0" d="M29.3,29.2L29.3,29.2C29.3,29.2,29.3,29.2,29.3,29.2L29.3,29.2c-0.7-0.9-1.3-1.8-2-2.6
		c-0.6-0.7-1.3-1.6-2.2-2.1c-1.2-0.8-2.8-0.4-4.2,0l0,0c-0.2-0.4-0.5-0.6-1-0.5c-0.2,0-0.4,0.2-0.4,0.4c0,0.2,0.1,0.3,0.2,0.4
		c-2.6,0.3-3.2,4.7-0.7,6.1c0.8,0.4,1.4,0.6,2.3,0.3c0,0,0.1,0,0.1,0s0,0,0.1,0c0.6-0.3,1.2-0.6,1.9-0.9l0,0
		c0.9,0.8,1.8,1.5,2.7,2.3c0,0,0.1,0,0.1,0c1.1-0.5,2-1.2,3.1-1.6c0,0,0.1-0.1,0.1-0.1C29.2,30.3,29.3,29.8,29.3,29.2L29.3,29.2z
		 M25.3,25c1.4,1.2,2.6,2.7,3.6,4.2c-0.4,0.3-0.9,0.5-1.4,0.7c-0.2,0.1-0.4,0.2-0.6,0.3c-0.1,0.1-0.6,0.4-0.8,0.4
		c-0.2-0.1-0.6-0.7-0.8-0.8c-0.3-0.4-0.7-0.7-0.9-1.1c-0.7-0.7-1.3-1.5-1.9-2.2c-0.5-0.6-0.8-1.1-1.6-1.4c-0.1,0-0.3-0.1-0.4-0.1
		C22.1,24.4,24,23.9,25.3,25z M19.8,24.4c0.1-0.1,0.3-0.1,0.4-0.1c0.1,0,0.3,0.2,0.4,0.3c-0.2,0.1-0.4,0.1-0.6,0.2c0,0,0,0,0,0
		C19.9,24.7,19.7,24.5,19.8,24.4z M18.2,29.9c-1-1.3-0.8-3.8,0.8-4.6c0.1,0,0.2-0.1,0.3-0.1h0c0,0,0.1,0,0.1,0
		c0.8-0.2,1.6,0,2.2,0.6c0.5,0.5,0.9,1.1,1.3,1.6c1,1.2,2,2.3,3,3.4c0,0.5,0,0.9-0.1,1.4c-1.1-0.9-2.2-1.9-3.3-2.8c0,0,0,0-0.1,0
		s-0.1,0-0.1,0.1l0,0l0,0c0,0,0,0,0,0l0,0c-0.3,1-0.8,1.8-2,1.8C19.6,31.1,18.7,30.6,18.2,29.9z M22.2,30.6c0.2-0.3,0.3-0.5,0.4-0.9
		c0.1,0.1,0.3,0.3,0.5,0.4C22.8,30.3,22.5,30.4,22.2,30.6z M28.2,31.1c-0.7,0.4-1.3,0.8-2,1.1c0-0.5,0.1-0.9,0.1-1.4
		c0.9-0.5,1.9-0.8,2.7-1.4c0,0.3,0,0.6,0,0.9C29,30.9,28.6,30.9,28.2,31.1z"/>
	<path class="st0" d="M22.8,26.3L22.8,26.3C22.8,26.3,22.8,26.3,22.8,26.3c0.4,0.4,0.5,0.8,0.9,0.6c0.7-0.3,1.4-0.5,2.1-0.8
		c0.1,0,0.1-0.1,0-0.2c-0.4-0.4-0.5-0.7-1-0.5c-0.7,0.3-1.4,0.4-2,0.8l0,0c0,0,0,0,0,0C22.8,26.1,22.8,26.2,22.8,26.3
		C22.8,26.2,22.8,26.2,22.8,26.3z M25,25.5c0.2,0,0.4,0.1,0.5,0.3c-0.5,0.2-1.1,0.4-1.6,0.6c-0.1,0-0.3,0.2-0.4,0.2
		s-0.2-0.2-0.4-0.4c0.4-0.2,0.9-0.4,1.4-0.5C24.6,25.7,24.8,25.6,25,25.5z"/>
	<path class="st0" d="M20.3,26.5c-0.9-0.1-1.3,0.5-1.4,1.3c-0.1,0.9,0.1,1.6,1,2C21.7,30.3,22.1,26.9,20.3,26.5z M20,29.5
		c-0.7-0.2-0.9-0.7-0.9-1.4c0-0.7,0.2-1.5,1.1-1.4c0.7,0.1,1,0.8,1,1.4C21.2,28.9,20.9,29.8,20,29.5z"/>
	<path class="st0" d="M26.3,30.2c0.7-0.4,1.4-0.7,2-0.9c0.1-0.1,0.1-0.3-0.1-0.3c-0.7,0.3-1.4,0.6-2.1,0.9
		C26.1,30,26.2,30.3,26.3,30.2z"/>
	<path class="st0" d="M18.9,25.9c-0.7,0.5-0.9,1.3-1,2.1c0,0.2,0.3,0.2,0.3,0c0-0.7,0.3-1.4,0.8-1.9C19.1,26,19,25.7,18.9,25.9z"/>
	<path class="st0" d="M19.3,25.9c0.2,0,0.2-0.3,0-0.3C19.2,25.6,19.2,25.9,19.3,25.9z"/>
</g>
<g>
	<path class="st0" d="M10.6,97.5C10.6,97.5,10.6,97.4,10.6,97.5C10.6,97.4,10.6,97.4,10.6,97.5L10.6,97.5c-0.5-0.7-1-1.3-1.5-1.9
		c-0.5-0.5-1-1.2-1.6-1.6c-0.9-0.6-2.1-0.3-3.2,0l0,0c-0.2-0.3-0.4-0.4-0.8-0.4c-0.1,0-0.3,0.1-0.3,0.3c0,0.1,0.1,0.3,0.1,0.3
		c-2,0.2-2.5,3.6-0.5,4.7c0.6,0.3,1.1,0.5,1.7,0.3c0,0,0,0,0.1,0h0c0.5-0.3,0.9-0.4,1.4-0.7l0,0c0.7,0.6,1.4,1.2,2,1.7
		c0,0,0.1,0,0.1,0c0.8-0.4,1.5-0.9,2.3-1.3c0,0,0-0.1,0-0.1C10.6,98.3,10.6,97.9,10.6,97.5L10.6,97.5z M7.6,94.3
		c1.1,0.9,1.9,2.1,2.8,3.2C10,97.7,9.7,97.8,9.3,98c-0.1,0.1-0.3,0.1-0.5,0.2c-0.1,0-0.5,0.3-0.6,0.3c-0.1,0-0.5-0.5-0.6-0.7
		c-0.3-0.3-0.5-0.5-0.7-0.8c-0.5-0.5-1-1.1-1.4-1.7c-0.4-0.4-0.7-0.8-1.2-1.1c-0.1,0-0.2-0.1-0.3-0.1C5.2,93.8,6.6,93.4,7.6,94.3z
		 M3.4,93.8c0-0.1,0.3-0.1,0.3-0.1C3.9,93.8,4,93.9,4,94c-0.1,0-0.3,0.1-0.5,0.1c0,0,0,0,0,0C3.5,94,3.4,93.9,3.4,93.8z M2.2,98
		c-0.7-0.9-0.6-2.9,0.6-3.5c0.1,0,0.1-0.1,0.3-0.1c0,0,0,0,0,0c0,0,0.1,0,0.1,0c0.6-0.1,1.2,0,1.7,0.4c0.4,0.4,0.7,0.8,1,1.2
		c0.8,0.9,1.5,1.8,2.3,2.6c0,0.4,0,0.7-0.1,1.1c-0.9-0.7-1.7-1.4-2.5-2.2l0,0c0,0-0.1,0-0.1,0l0,0l0,0l0,0l0,0
		c-0.2,0.8-0.7,1.4-1.5,1.4C3.2,98.9,2.5,98.5,2.2,98z M5.3,98.5c0.1-0.2,0.2-0.4,0.3-0.7c0.1,0.1,0.3,0.2,0.4,0.3
		C5.7,98.3,5.5,98.4,5.3,98.5z M9.8,98.9c-0.5,0.3-1,0.6-1.5,0.8c0-0.4,0-0.7,0.1-1.1c0.7-0.4,1.4-0.6,2.1-1.1c0,0.2,0,0.5,0,0.7
		C10.4,98.7,10.1,98.8,9.8,98.9z"/>
	<path class="st0" d="M5.7,95.2L5.7,95.2C5.7,95.2,5.7,95.2,5.7,95.2c0.3,0.3,0.3,0.6,0.7,0.4c0.5-0.2,1.1-0.4,1.6-0.6
		C8,95,8,95,8,94.9c-0.3-0.3-0.4-0.5-0.8-0.4c-0.5,0.2-1,0.3-1.5,0.6l0,0l0,0C5.7,95.1,5.7,95.1,5.7,95.2
		C5.7,95.2,5.7,95.2,5.7,95.2z M7.3,94.7c0.2,0,0.3,0.1,0.4,0.3c-0.4,0.2-0.8,0.3-1.3,0.4c-0.1,0-0.3,0.1-0.3,0.1
		c-0.1,0-0.2-0.2-0.3-0.3C6.2,95.1,6.6,95,7,94.8C7.1,94.8,7.2,94.7,7.3,94.7z"/>
	<path class="st0" d="M3.8,95.4c-0.7-0.1-1,0.4-1.1,1c-0.1,0.7,0.1,1.2,0.8,1.5C4.9,98.4,5.1,95.7,3.8,95.4z M3.5,97.7
		c-0.5-0.1-0.7-0.5-0.7-1c0-0.5,0.2-1.1,0.9-1c0.5,0.1,0.8,0.6,0.7,1.1C4.4,97.2,4.2,97.9,3.5,97.7z"/>
	<path class="st0" d="M8.4,98.2c0.5-0.3,1-0.5,1.6-0.7c0.1,0,0.1-0.3-0.1-0.2c-0.5,0.2-1.1,0.5-1.6,0.7C8.2,98.1,8.3,98.3,8.4,98.2z
		"/>
	<path class="st0" d="M2.7,94.9c-0.5,0.4-0.7,0.9-0.7,1.6c0,0.1,0.2,0.1,0.2,0c0-0.5,0.2-1.1,0.7-1.4C2.9,95,2.8,94.9,2.7,94.9z"/>
	<path class="st0" d="M3,94.9c0.1,0,0.1-0.2,0-0.2C2.9,94.7,2.9,94.9,3,94.9z"/>
</g>
<g>
	<path class="st0" d="M96.4,26.5c-1.5-1.8-5.3-2.2-6.3,0.2c-0.4-0.6-1.1-1.1-1.8-1.3c-1.8-0.6-3.4-0.1-4.7,1.1c0-0.1,0-0.2,0-0.3
		c0-1.5,0-3.3,0.5-4.8c0.4,0.4,1.2,0.6,1.7,0.6c1.2-0.1,2.4-0.1,2.9-1.5c0.5-1.2-0.1-2.7-0.9-3.6c-0.6-0.7-0.8-0.7-1.7-0.6
		c-0.9,0-1.8,0.1-2.6,0.3c-1.4,0.3-2.6,2.4-3.3,3.6c-2,3.5-3.9,7.3-4.2,11.4c0,0.1,0,0.2,0.1,0.2c5.4,3.6,13.4,4.3,19.1,0.8
		C97.2,31.3,98,28.6,96.4,26.5z M94.7,32.3c-3,1.7-6.6,2.3-10,2c-1.7-0.1-3.4-0.5-5.1-1.2c-0.9-0.3-1.8-0.8-2.6-1.2
		c-1-0.6-0.5-1.9-0.3-2.9c0.5-2,1.3-3.8,2.2-5.6c0.9-1.8,1.8-3.5,3-5.1c0.4-0.4,0.7-0.9,1.2-1.1c0.7-0.3,1.5-0.3,2.2-0.4
		c0.7,0,1.3-0.1,1.9,0.3c0.5,0.4,0.8,1.1,0.9,1.6c0.2,0.7,0.1,1.8-0.5,2.3c-0.5,0.4-1.1,0.4-1.7,0.4c-0.1,0-0.4,0.1-0.5,0
		c-0.5-0.1-1.3-0.5-0.8-1.1c0.2-0.3,0.9-0.4,1.2-0.4c0.3,0,0.3-0.5,0-0.5c-0.6,0-1.9,0.3-2,1.1c0,0.1,0,0.1,0,0.2
		c-0.5,1.1-0.6,2.4-0.7,3.7c0,0.7,0,1.4,0,2c-0.1,1.3-1,2.3-1.8,3.1c-0.2,0.2,0.1,0.6,0.4,0.4c0.8-0.8,1.5-1.7,1.8-2.7
		c0,0,0,0,0.1,0c1.2-1.5,2.9-2.1,4.7-1.4c0.7,0.3,1.4,0.8,1.7,1.5c0.1,0.2,0.4,0.3,0.5,0c0.5-2.9,4.9-2.1,5.9,0
		C97.3,29.3,96.4,31.3,94.7,32.3z"/>
	<path class="st0" d="M89.2,30c-0.8,0.7-1.6,1-2.6,0.9c-1-0.1-2-0.2-2.9-0.8c-0.3-0.2-0.5,0.3-0.3,0.4c1,0.7,2.2,0.8,3.5,0.9
		c1.1,0,1.9-0.4,2.7-1.1C89.8,30.2,89.4,29.8,89.2,30z"/>
	<path class="st0" d="M84.4,28.1c0.2-0.5,0.7-0.7,1.1-1c0.3-0.2,0-0.6-0.3-0.4c-0.5,0.3-1,0.6-1.3,1.2
		C83.9,28.1,84.3,28.4,84.4,28.1z"/>
	<path class="st0" d="M86.1,26.8c0.3,0,0.3-0.5,0-0.5S85.7,26.8,86.1,26.8z"/>
</g>
<g>
	<path class="st0" d="M66.2,40.3c-0.1-0.4-0.2-0.8-0.6-1c-0.3-0.1-0.5-0.1-0.8-0.1c-0.4,0-0.8,0-1.2,0c-0.1-0.3-0.2-0.5-0.3-0.8
		c-0.4-1.2-0.8-2.3-1.1-3.5c-0.3-1-0.7-2-0.9-3.1c0.8-0.1,1.6-0.2,2.3-0.3c0.7-0.1,2,0,2-1.1c-0.1-0.9-0.5-1.1-1.1-1.1
		c-0.2-0.7-0.6-2.8-1.5-2.7c-0.5,0.1-1.4,0.9-1.9,1.2c-1,0.6-1.9,1.3-2.8,2c0,0,0,0-0.1,0.1c-0.3,0-0.5,0-0.8,0.1
		c-2,0.2-4.1,0.4-6.1,0.6c-0.8,0.1-1.9,0.1-1.8,1.1c0.1,1.1,0.9,1,1.8,0.9c2.2-0.1,4.4-0.3,6.6-0.6c0,0,0,0,0,0.1
		c0.8,2.3,1.6,4.6,2.4,7c-5,0.1-9.9-0.1-14.9,0.3c-1.4,0.1-1.8,0.3-1.6,1.8c0.1,0.9,0.6,1,1.5,1c0.2,0,0.4,0,0.6,0c0,0,0,0,0,0.1
		c-0.1,0.9,1.3,0.7,1.9,0.7c0.3,0,0.9,0.1,1.2-0.1c0.2-0.1,0.3-0.4,0.3-0.6c4,0,8,0,12,0c0.1,0.2,0.2,0.3,0.3,0.4
		c0.5,0.4,2.3,0.3,2.7,0c0.3-0.2,0.3-0.4,0.3-0.6c0.5,0,0.9-0.1,1.3-0.5C66.2,41.3,66.2,40.9,66.2,40.3z M62.4,27.6
		c0.1,0,0.4-0.3,0.4-0.3c0.1,0,0.3,0.5,0.4,0.6c0.3,0.5,0.4,1.1,0.6,1.6c-0.2,0-0.4,0.1-0.6,0.1c-1.4,0.2-2.8,0.3-4.3,0.4
		C60.1,29.2,61.3,28.5,62.4,27.6z M50,31.9c-0.2-0.8,2.8-0.8,3.5-0.9c1.4-0.1,2.7-0.3,4.1-0.4c1.2-0.1,2.4-0.3,3.6-0.4
		c0.5,0,1.1-0.1,1.7-0.1c0.3,0,1.6-0.4,1.9-0.1c0.8,0.6-0.6,1-0.9,1c-0.7,0.1-1.4,0.2-2,0.3c-1.2,0.1-2.5,0.3-3.7,0.4
		c-1.4,0.2-2.8,0.3-4.2,0.4C53.2,32.2,50.2,32.8,50,31.9z M48.5,42.6c-0.2,0-0.5,0-0.7,0c-0.2,0-1.4,0.1-1.4-0.1c0,0,0,0,0-0.1
		c0.8,0,1.5,0,2.3,0C48.7,42.5,48.6,42.5,48.5,42.6z M47.1,41.8c-0.7,0-1.3,0.1-2,0c-0.8-0.1-0.7-0.1-0.8-0.7c0-0.5-0.1-0.7,0.3-0.9
		c0.7-0.4,2.4-0.3,3.2-0.3c4.2-0.2,8.4,0,12.6-0.1c0,0.1,0.1,0.2,0.1,0.4c0.1,0.4,0.3,1.2,0.5,1.8C56.4,41.9,51.7,41.9,47.1,41.8z
		 M62.7,42.5c-0.8-0.1-0.9-0.3-1.2-1c-0.2-0.7-0.4-1.4-0.7-2c0,0,0,0,0,0c-0.1-0.3-0.2-0.6-0.3-0.9c-0.7-2.1-1.4-4.2-2.2-6.3
		c0.8-0.1,1.5-0.2,2.3-0.3c0,0,0,0,0,0c0.2,0.8,0.6,1.6,0.8,2.4c0.2,0.8,0.5,1.7,0.7,2.5c0.3,0.9,0.6,1.8,0.9,2.7l0,0
		c0,0.1,0,0.1,0.1,0.2c0.2,0.5,0.9,1.7,0.9,2.3C64,42.6,63.2,42.6,62.7,42.5z M65.6,41.3c-0.3,0.4-0.7,0.4-1.2,0.4c0,0,0-0.1,0-0.1
		c-0.3-0.6-0.5-1.2-0.7-1.9c0.3,0,0.7,0,1,0c0.4,0,0.8,0,0.9,0.5C65.7,40.6,65.8,41,65.6,41.3z"/>
	<path class="st0" d="M60.4,33.9c-0.1-0.3-0.6-0.2-0.5,0.1c0.8,2.1,1.4,4.3,2.2,6.4c0.1,0.3,0.6,0.2,0.5-0.1
		C61.7,38.2,61.1,36,60.4,33.9z"/>
	<path class="st0" d="M53.9,35.3c0.3,0,0.3-0.5,0-0.5c-1.3,0-2.6,0-3.9,0c-0.3,0-0.3,0.5,0,0.5C51.3,35.3,52.6,35.3,53.9,35.3z"/>
	<path class="st0" d="M47.5,35.3c0.3,0,0.6,0,0.9,0c0.3,0,0.3-0.5,0-0.5c-0.3,0-0.6,0-0.9,0C47.2,34.8,47.2,35.3,47.5,35.3z"/>
	<path class="st0" d="M47.4,37.4c1.9-0.1,3.7,0,5.6,0c0.3,0,0.3-0.5,0-0.5c-1.9,0-3.7-0.1-5.6,0C47.1,36.9,47.1,37.5,47.4,37.4z"/>
	<path class="st0" d="M56.6,37.5c0.3,0,0.3-0.5,0-0.5c-0.7-0.1-1.5,0-2.2,0c-0.3,0-0.3,0.5,0,0.5C55.2,37.5,55.9,37.4,56.6,37.5z"/>
	<path class="st0" d="M45.1,37.5c0.3,0,0.6,0,0.9,0c0.3,0,0.3-0.5,0-0.5c-0.3,0-0.6,0-0.9,0C44.8,36.9,44.8,37.5,45.1,37.5z"/>
</g>
<g>
	<path class="st0" d="M20.9,17c0.1-0.2,0.1-0.4,0.2-0.5c0.1-0.2,0.2-0.4,0.2-0.6c-0.1-0.4-0.5-0.5-0.8-0.7c0.2-0.5,0.4-0.9,0.6-1.4
		c0.1-0.3,0.5-0.8,0.4-1.2c-0.1-0.6-1.1-1-1.6-1.2c0-0.1,0.1-0.1,0.1-0.3c0.4-1.2-0.1-1.8-1.3-2.3c-1.3-0.6-1.8-0.3-2.4,0.9
		c-0.5,0.9-1,1.9-1.4,2.9c-1.3-0.4-2.5-1.2-3.7-1.7C10.1,10.5,9,10,8,9.6c0.4-1,0.8-2,1.2-3c0.5-1.3,0.3-1.9-0.9-2.4
		C7.3,3.7,6.3,3.4,5.8,4.4C5.7,4.6,5.6,4.7,5.5,4.9C5,4.7,4.1,4.3,3.6,4.5C2.9,4.8,2.5,6.3,2.2,6.9c0,0,0,0,0,0.1
		C1.9,6.9,1.6,6.7,1.4,6.7c-0.4,0-0.6,0.7-0.7,1C0.5,8,0.1,8.5,0.5,8.8C0.7,9,0.9,9.1,1.2,9.1c-0.3,0.8-0.7,1.6-0.8,2.3
		c-0.1,0.9,0.7,1.3,1.5,1.7c0,0.1-0.1,0.2-0.1,0.3c-0.4,1.1,0.2,1.5,1.1,1.9c0.6,0.3,1.5,0.9,2.1,0.5c0.4-0.3,0.6-0.9,0.8-1.3
		c0.4-0.8,0.8-1.7,1.2-2.6C7,11.9,7,11.8,7,11.7c2.3,1,4.6,2.1,6.9,3c-0.4,0.8-0.7,1.5-1,2.3c-0.2,0.5-0.6,1.1-0.6,1.6
		c-0.1,0.9,0.9,1.2,1.7,1.5c0.8,0.4,1.5,0.7,2.1-0.1c0.1-0.2,0.2-0.4,0.3-0.6c0.8,0.3,1.6,0.7,2.2,0c0.5-0.6,0.8-1.3,1.1-2
		c0.3,0.1,0.5,0.3,0.8,0.2C20.7,17.6,20.8,17.2,20.9,17z M0.8,8.4C0.9,8.2,1,8,1.1,7.8c0-0.1,0.1-0.3,0.1-0.4c0,0,0.1-0.2,0.1-0.2
		c0.1,0,0.3,0.1,0.3,0.1c0.1,0,0.1,0.1,0.2,0.1C1.7,7.9,1.5,8.3,1.3,8.7C1.1,8.6,0.9,8.6,0.8,8.4z M0.9,11.3
		c0.1-0.4,0.3-0.8,0.4-1.2c0.4-1,0.8-2,1.2-3c0.3-0.6,0.5-1.3,0.9-1.8c0.4-0.6,1.1-0.2,1.7,0C4.6,6.4,4.3,7.6,3.8,8.7
		c-0.6,1.3-1.3,2.7-1.8,4C1.2,12.4,0.7,12.2,0.9,11.3z M5,14.7c-0.3,0.5-0.4,0.9-0.9,0.8c-0.3-0.1-0.7-0.3-1-0.5
		c-0.5-0.3-1-0.7-0.9-1.4c0.1-0.5,0.5-1.1,0.7-1.5C3.4,11,3.8,9.9,4.3,8.8c0.3-0.7,0.6-1.4,0.9-2.1C5.5,6.2,5.8,5.6,6,5.1
		c0.4-0.9,1.1-0.8,1.9-0.5c0.4,0.2,0.8,0.6,0.9,1.1c0,0.3-0.3,0.8-0.4,1C8.2,7.3,8,7.8,7.8,8.4c-0.4,1.1-0.9,2.1-1.3,3.2
		C6,12.6,5.5,13.7,5,14.7z M7.1,11.3c0.2-0.4,0.4-0.8,0.5-1.2c1.1,0.4,2.1,0.9,3.2,1.4c1.2,0.5,2.5,1.2,3.7,1.7
		c-0.2,0.4-0.4,0.8-0.5,1.2C11.7,13.4,9.4,12.3,7.1,11.3z M18.7,12.7c-0.3,0.7-0.7,1.4-0.9,2.1c-0.4,1-0.9,2-1.4,3
		c-0.5,1.1-0.8,2.7-2.4,2c-0.3-0.1-0.8-0.2-1-0.4c-0.5-0.6-0.2-1.1,0-1.7c0.4-1,0.8-2,1.3-3c0.5-1,0.9-2,1.4-3
		c0.5-1.1,1.1-3.1,2.6-2.4c0.9,0.4,1.2,0.9,0.9,2C19.2,11.7,18.9,12.2,18.7,12.7z M18.7,17.9c-0.1,0.3-0.3,0.7-0.5,1
		c-0.5,0.7-1,0.4-1.7,0.1c0.2-0.5,0.4-1,0.6-1.5c0.4-0.9,0.8-1.7,1.2-2.6c0.5-1.1,1-2.2,1.5-3.2c0.3,0.1,0.6,0.3,0.8,0.5
		c0.4,0.4,0.4,0.4,0.2,1c-0.3,0.8-0.7,1.5-0.9,2.2C19.4,16.3,19.1,17.1,18.7,17.9z M19.7,17c0.2-0.4,0.3-0.9,0.5-1.3c0,0,0,0,0-0.1
		c0.1,0,0.2,0.1,0.3,0.1c0.1,0.1,0.2,0,0.2,0.2c0,0.1-0.1,0.3-0.1,0.4c0,0.1-0.1,0.3-0.1,0.4s-0.1,0.2-0.1,0.3c0,0,0,0.1-0.1,0.1
		c0,0,0,0,0,0C20.1,17.1,19.9,17,19.7,17z"/>
	<path class="st0" d="M6.4,5.3C5.9,5.7,5.7,6.4,5.5,7C5.4,7.3,5.9,7.5,6,7.2C6.2,6.7,6.4,6,6.8,5.6C7,5.4,6.6,5.1,6.4,5.3z"/>
	<path class="st0" d="M7.4,4.9C7.1,4.7,6.9,5.2,7.1,5.3C7.4,5.5,7.7,5,7.4,4.9z"/>
	<path class="st0" d="M17.3,9.9c-0.3,0.1-0.4,0.5-0.6,0.7c-0.2,0.3-0.4,0.7-0.5,1c-0.1,0.3,0.4,0.5,0.5,0.2c0.1-0.3,0.3-0.5,0.4-0.8
		c0.1-0.2,0.3-0.5,0.5-0.7C17.9,10.1,17.5,9.7,17.3,9.9z"/>
	<path class="st0" d="M18.2,9.6c-0.3-0.1-0.5,0.3-0.2,0.5C18.3,10.2,18.5,9.7,18.2,9.6z"/>
</g>
<path id="XMLID_226_" class="st1" d="M100,83.2c-0.4-0.7-1.8,0.5-2.1,0.7c-0.4,0.3-0.7,0.6-1.1,0.9c1.2-2,2.5-4.7,1.5-5
	c-0.8-0.1-1.5,1.7-1.7,2.2c-0.4,0.9-0.6,1.9-0.8,2.8c0-0.7-0.1-1.3-0.2-1.9c-0.1-0.3-0.3-2.1-0.9-2c-0.7,0.1-0.5,2.1-0.5,2.5
	c0.1,1.1,0.5,2.3,1.2,3.1c-0.7-0.2-1.5,0.1-2.1,0.5c-1.1,0.8-1.5,2.2-1.9,3.4c-0.3,0.9-0.6,1.8-0.9,2.8c0,0-0.1,0,0,0.1
	c0,0,0,0,0,0.1c-0.2,0.6-0.3,1.2-0.5,1.8c-0.2,0.8-0.4,1.7-0.7,2.5c-0.2,0.7-0.4,1.5-0.4,2.3c0,0,0,0,0,0c0,0.1,0.1,0.1,0.1,0
	c1.1-1.1,2-2.3,2.8-3.5c1-1.3,1.9-2.6,2.8-4c0.4-0.7,0.8-1.4,1.2-2c0.3-0.6,0.7-1.2,0.9-1.8c0.1-0.6,0-1.5-0.5-1.8
	c1-0.4,1.9-1.1,2.8-1.8C99.2,84.8,100.4,83.8,100,83.2z M97.1,81.5c0.1-0.3,0.6-1.2,0.9-1.2c0.6-0.1,0.1,1.3,0,1.6
	c-0.2,0.6-0.5,1.2-0.8,1.8c-0.4,0.8-1,1.6-1.5,2.4c0.2-0.9,0.4-1.9,0.7-2.8C96.5,82.6,96.7,82,97.1,81.5z M94.3,82.6
	c0-0.2,0-1.6,0.5-1.2c0.2,0.2,0.3,0.8,0.4,1.1c0.1,0.5,0.2,1,0.3,1.5c0.1,0.8,0,1.6,0,2.4c-0.4-0.8-0.7-1.6-0.9-2.4
	C94.4,83.5,94.3,83,94.3,82.6z M96.2,88.7c-0.2,0.7-0.6,1.3-0.9,1.9c-0.6,1.1-1.3,2.2-2,3.2c-1.4,2-2.9,3.9-4.3,5.9
	c0.4-1,0.5-2.2,0.8-3.3c0.2-0.8,0.4-1.6,0.7-2.4c0,0.1,0.1,0.1,0.1,0.2c0.2,0.2,0.5,0.4,0.8,0.4c0.1,0,0.1-0.1,0.1-0.1
	c-0.1-0.2-0.4-0.3-0.6-0.4c-0.1-0.1-0.3-0.3-0.3-0.5c0.1-0.4,0.3-0.8,0.4-1.2c0.1-0.3,0.2-0.6,0.3-1c0.1,0.3,0.2,0.5,0.4,0.7
	c0.3,0.3,0.9,0.7,1.3,0.5c0.1,0,0.1-0.1,0-0.2c-0.1-0.1-0.3-0.2-0.5-0.3c-0.2-0.1-0.4-0.2-0.5-0.3c-0.3-0.3-0.5-0.6-0.6-0.9
	c0.2-0.7,0.5-1.5,0.9-2.2c0.1,0.3,0.3,0.7,0.5,0.9c0.3,0.3,0.7,0.7,1.1,0.6c0,0,0.1-0.1,0-0.1c-0.3-0.3-0.6-0.4-0.9-0.7
	c-0.3-0.3-0.5-0.6-0.7-0.9c0.7-1.1,1.5-1.9,2.9-1.8c0,0,0,0,0,0c0,0.1,0.1,0.2,0.1,0.1c0,0,0-0.1,0.1-0.1h0c0,0,0,0,0,0
	c0,0.1,0,0.2,0.1,0.2l0,0C96.2,87.5,96.4,88,96.2,88.7z M99,84.5c-0.3,0.3-0.7,0.6-1.1,0.9c-0.7,0.5-1.5,0.9-2.2,1.3l0,0
	c0.5-0.7,1-1.4,1.7-2c0.2-0.2,2-1.8,2.3-1.4C99.9,83.6,99.2,84.4,99,84.5z"/>
<g id="XMLID_154_">
	<path id="XMLID_231_" class="st1" d="M31.9,87.4c-0.2-0.6-0.8-0.8-1.4-0.7c0.4-0.6,0.7-1.5,0.3-2c-0.4-0.5-1.2-0.2-1.8,0.1
		c-0.2-0.5-0.6-1.2-1.2-1.2c-0.8,0-1.2,1.1-1.5,1.8c-0.4-0.7-1.1-1.3-1.9-1c-0.6,0.3-0.9,0.9-0.7,1.5c-0.9-0.3-2-0.3-2.6,0.5
		c-0.4,0.7-0.4,1.5,0.2,2c-1,0.7-1.4,2.2-0.5,3.1c0.5,0.6,1.4,0.8,2.2,0.5c0.8,0.7,1.1,2.2,1.5,3.1c0.4,1.1,0.6,2.3,0.9,3.4
		c0,0,0,0.1,0.1,0.1c0.4,0.8,1.8,0.8,2.5,0.7c0.9-0.2,1.9-0.9,1.8-1.9c0,0,0,0,0-0.1c0-0.7-0.3-1.5-0.4-2.2
		c-0.1-0.9-0.1-1.9-0.1-2.8c0.7,0,1.4-0.1,1.9-0.8c0.5-0.7,0.3-1.6-0.4-2.1C31.3,89.2,32.2,88.4,31.9,87.4z M29.3,97.6
		c-0.4,0.7-0.7,1.3-1.5,1.5c-0.7,0.2-2,0.2-2.5-0.5l0,0c-0.1-1.2-0.5-2.5-0.9-3.6c-0.3-0.9-0.7-2.2-1.5-2.8c0.2-0.1,0.3-0.1,0.5-0.3
		c0.4,0.5,0.7,1.1,1.1,1.6c0.4,0.7,0.7,1.4,1.2,1.9c0.1,0.1,0.3,0.1,0.3-0.1c0-0.6,0.1-1.3,0-1.9c0,0,0,0,0.1,0c0.4,0,0.7-0.1,1-0.3
		c0,0.6,0.3,1.3,0.6,1.8c0.1,0.1,0.3,0.1,0.3,0c0.1-0.5,0.1-1,0.2-1.5c0.1-0.4,0.2-0.8,0.3-1.1c0.2,0,0.3,0.1,0.5,0.1
		c-0.1,0.8-0.1,1.7-0.1,2.6C28.9,95.9,29,96.8,29.3,97.6z M23.5,91.9c0.1-0.1,0.1-0.1,0.2-0.2c0.4,0.8,1.1,1.7,2,1.8
		c-0.1,0.5-0.1,1-0.1,1.5C24.8,94,24.5,92.7,23.5,91.9z M27.2,93c0.3-0.2,0.4-0.5,0.5-0.9c0.2,0.1,0.4,0.1,0.5,0.2
		c-0.2,0.3-0.3,0.6-0.3,0.9c-0.1,0.4-0.1,0.7-0.2,1.1c-0.1-0.2-0.2-0.5-0.3-0.7C27.3,93.5,27.3,93.3,27.2,93z M30.1,89.5
		c-0.1,0-0.1,0.2,0,0.3c1.2,0.4,0.8,1.9-0.1,2.3c-0.8,0.4-1.7,0.1-2.5-0.2c-0.1,0-0.2,0-0.2,0.1c0,0.8-0.8,1.4-1.5,1.3
		c0,0,0,0-0.1,0c-0.1,0-0.2,0-0.4-0.1c-0.8-0.3-1.3-1-1.6-1.8c0-0.1-0.2-0.1-0.3,0c-0.6,0.8-1.9,1-2.7,0.3c-0.9-0.9-0.4-2.4,0.6-2.8
		c0.1,0,0.1-0.2,0-0.3c-0.7-0.4-0.7-1.5-0.1-2c0.7-0.6,1.7-0.4,2.4-0.1c0.1,0.1,0.2-0.1,0.1-0.2c-0.7-0.8,0.3-1.7,1.1-1.5
		c0.5,0.1,0.8,0.5,1,1v0c0,0.1,0.2,0.1,0.3,0c0.3-0.5,0.4-0.9,0.8-1.3c0.7-0.8,1.4,0,1.5,0.7c0,0.1,0.1,0.2,0.3,0.1
		c0.4-0.3,1.4-0.8,1.6,0c0.2,0.5-0.4,1.3-0.7,1.8c-0.1,0.1,0,0.3,0.2,0.2c0.7-0.4,1.7-0.2,1.5,0.8C31.5,88.8,30.8,89.2,30.1,89.5z"
		/>
	<path id="XMLID_235_" class="st1" d="M25.1,86.6c-0.5-0.1-0.6,0.5-0.5,0.9c-0.5-0.3-1.1-0.2-1.4,0.3c-0.4,0.5-0.3,1.3,0.1,1.8
		c0,0,0.1,0,0.1,0c-0.1-0.4-0.3-0.8-0.2-1.2c0.1-0.7,0.9-1.1,1.5-0.6c0,0,0.1,0,0.1-0.1c0-0.4-0.1-1,0.6-0.8c0.3,0,0.5,0.5,0.5,0.8
		c0,0.1,0.1,0.1,0.1,0C26,87.2,25.6,86.7,25.1,86.6z"/>
	<path id="XMLID_238_" class="st1" d="M28.8,88.7c0.1-0.3,0.1-0.6-0.2-0.8c-0.4-0.3-0.9-0.1-1.2,0.2c0,0,0,0.1,0.1,0.1
		c0.2-0.1,0.4-0.3,0.6-0.3c0.5,0,0.6,0.3,0.5,0.8c0,0.1,0,0.2,0.1,0.2c0.9-0.1,0.8,1,0.2,1.4c-0.3,0.2-0.7,0.3-1,0.3
		c0,0,0,0.1,0,0.1c0.7,0.1,1.5-0.2,1.7-1C29.6,89.2,29.3,88.7,28.8,88.7z"/>
</g>
<g id="XMLID_1_">
	<path id="XMLID_3_" class="st1" d="M35,61.5l-0.4-0.7c-0.5-0.8-2.2-3.9-3.1-5.6c0.1,0.5,0.1,1.1,0.1,1.6c-0.1,0.9-0.5,1.8-1.1,2.3
		c-0.3,0.3-0.8,0.4-1.1,0.6c-1.2,0.5-2.6,1-3.8,1.5c-1.2,0.4-2.6,0.9-3.8,1.4c-0.1,0-0.1,0-0.2-0.1s0-0.1,0.1-0.2
		c1.2-0.5,2.6-1,3.8-1.5c1.2-0.4,2.6-0.9,3.8-1.4c0.4-0.1,0.8-0.3,1.1-0.6c0.5-0.4,0.9-1.2,1-2.1c0.1-0.8-0.1-1.6-0.3-2.4l-0.2-0.9
		l0.5,0.9c0.5,1,2.3,4.2,3.2,5.8c-0.2-1.5-0.5-3.9-0.5-4.5l0-0.5l0.3,0.4c0.4,0.5,1.4,1.9,1.8,2.5c0.1-0.5,0.2-1.5,0.2-1.9V56l0.1,0
		c0.1,0,0.5-0.2,1.1-0.4c2.2-0.8,7.4-2.8,9.3-3.5c0.1,0,0.1,0,0.2,0.1c0,0.1,0,0.1-0.1,0.2c-1.9,0.8-7.1,2.7-9.3,3.5
		c-0.4,0.2-0.8,0.3-0.9,0.4c-0.1,0.6-0.3,2.2-0.3,2.2l0,0.4L36,58.5c0,0-1.1-1.5-1.7-2.3c0.1,1.2,0.5,3.8,0.6,4.7L35,61.5z"/>
</g>
<g id="XMLID_9_">
	<path id="XMLID_152_" class="st1" d="M83.7,10.7c0.7,0.5,1.6,0.9,2.5,1.1c0.2,0.9,1.8,0.5,2.4,0.4c0.9-0.2,2.2-0.7,2.2-1.8
		c0.6-0.4,1.1-0.9,1.4-1.5c0.4-0.7,0.5-1.4,0.6-2.2c0,0,0,0,0,0c0.8-0.2,1.4-1.3,1.1-2.1C93.7,4.3,93.4,3.9,93,4
		c-0.3,0-0.5,0.2-0.5,0.4c-0.1-0.3-0.1-0.5-0.2-0.7c0.6-0.8,1.5,0,1.8,0.5c0.2,0.4,0.3,0.8,0.3,1.2c-0.1,1.1-0.8,1.5-1.6,2
		c0,0,0,0.1,0,0.1c1.3-0.1,2.1-1.7,1.7-2.9c-0.3-0.8-1.6-2-2.2-1c-0.1-0.2-0.1-0.4-0.3-0.7c0,0,0,0,0,0c0,0,0,0-0.1,0
		c-2,0-3.9,0.4-5.8,1c-0.9,0.3-1.8,0.5-2.6,0.8c-0.7,0.3-1.5,0.6-1.9,1.3c0,0,0,0.1,0,0.1C81.7,7.7,82.5,9.6,83.7,10.7z M86.5,3.9
		c1.7-0.5,3.4-0.8,5.2-0.9c-0.1,0.3-0.2,0.5-0.4,0.7c-0.4-0.4-1.4,0-1.8,0c-0.9,0.2-1.8,0.5-2.7,0.7c-0.9,0.3-1.8,0.4-2.7,0.6
		c-0.7,0.1-1.2,0.4-1.6,0.9C82.2,6,82,5.9,81.8,5.8C83.1,4.7,84.9,4.4,86.5,3.9z M86.6,4.8c0.7-0.2,1.4-0.4,2.2-0.6
		c0.3-0.1,0.7-0.1,1.1-0.2c0.4-0.1,1.1-0.3,1.4-0.1c-0.9,1.2-3,1.8-4.3,2C86,6.2,85,6.3,84.1,6.4c-0.6,0-1.1,0-1.6-0.2
		C83.5,5.2,85.2,5.2,86.6,4.8z M92.8,6.6c0-0.7-0.1-1.4-0.2-2.1c0,0,0,0,0,0c0.1-0.7,0.9-0.3,1.1,0.1c0.1,0.3,0.1,0.5,0.1,0.8
		C93.6,6,93.1,6.3,92.8,6.6z M86.4,11.7c0.5,0,1.1,0,1.6-0.3c0.9-0.1,1.8-0.4,2.6-0.9c-0.3,0.8-0.9,1.2-1.7,1.4
		c-0.3,0.1-0.7,0.1-1.1,0.2c-0.2,0-0.5,0.1-0.7,0.1C87,12.1,86.6,12,86.4,11.7z M81.7,6L81.7,6c0.1,0.1,0.3,0.3,0.5,0.4c0,0,0,0,0,0
		c0.5,0.2,1,0.3,1.6,0.3c1.1,0,3.2-0.4,3.2-0.4C88.8,5.8,91.4,4.9,92,3c0.4,1.9,1.1,3.9,0,5.8c-0.7,1.3-2.2,2.1-3.6,2.5
		c0,0,0-0.1,0,0c-1.6,0.5-3.4,0.4-4.6-0.9C82.5,9.2,82,7.5,81.7,6z"/>
	<path id="XMLID_183_" class="st1" d="M84.5,7.2c0.3,1,0.8,2.4,1.7,3.1c0.5,0.4,1.5,0.3,1.9-0.2l0,0c0,0,0,0,0,0
		c0.1,0.1,0.2,0,0.1-0.1c-0.1-0.1-0.2-0.2-0.3-0.3c1.4,0,1.5-1.9,1.7-2.9c0,0,0-0.1-0.1-0.1c-1.1,0-1.9,1.6-1.7,2.6c0,0,0,0,0,0
		c0,0,0,0,0,0c0,0.1,0.1,0.1,0.1,0.1c0.2-0.3,0.4-0.5,0.5-0.8c0.1-0.2,0.3-0.4,0.3-0.7c0,0,0-0.1-0.1,0c-0.2,0.2-0.3,0.4-0.4,0.7
		c-0.1,0.2-0.3,0.4-0.4,0.6c0-0.4,0.1-0.9,0.4-1.3c0.1-0.1,0.8-1.1,1.1-0.8c0.1,0.1-0.1,0.7-0.1,0.8c-0.1,0.3-0.1,0.7-0.3,1
		c-0.3,0.4-0.7,0.6-1.2,0.7l0,0v0c0-0.5-0.3-0.9-0.7-1.2c-0.7-0.5-1.6-0.7-2.4-1.1C84.6,7.1,84.5,7.1,84.5,7.2z M84.7,7.4
		c1,0.5,2.8,0.8,2.9,2C87,8.7,86.3,8.2,85.5,8c0,0-0.1,0,0,0.1c0.8,0.5,1.5,0.9,2.2,1.5c0,0,0,0,0,0.1h0c0.1,0.1,0.3,0.2,0.4,0.4
		l0,0c-0.4,0.2-0.8,0.4-1.3,0.3c-0.5-0.1-0.8-0.4-1-0.8C85.3,8.8,84.9,8.1,84.7,7.4z"/>
</g>
<path id="XMLID_28_" class="st1" d="M76.1,17.1c-0.3-0.3-0.8-0.5-1.2-0.6c-0.4-0.1-0.9-0.1-1.4,0c-0.6,0.1-1.4,0.7-1.4,1.3l0,0
	c0,0,0,0,0,0c-0.1,0-0.2,0.1-0.3,0.2c0-0.3,0.1-0.6,0.1-0.8c0-0.2,0-0.5-0.2-0.7c-0.1-0.1-0.4-0.2-0.4,0c0,0,0,0,0,0
	c0,0.5,0,0.9,0,1.4c0,0.4-0.1,0.8-0.2,1.2c-0.3-0.8-1.5-1.4-2.3-1.2c-1.1,0.3-1.8,1.5-2,2.6c-0.2,1.2,0.1,2.6,0.9,3.6
	c0.3,0.4,0.7,0.9,1.2,1c0.1,0,0.2,0.1,0.3,0c0.1,0,0.2-0.1,0.3-0.1c0.5,0,0.5,0.4,0.8,0.6c0.1,0,0.1,0,0.1,0c0,0,0,0,0.1,0
	c0.5,0,1-0.2,1.5-0.4c0.5-0.2,0.9-0.4,1.4-0.7c0.8-0.6,1.3-1.5,1.5-2.4c0.1-0.8,0-1.9-0.7-2.5c-0.7-0.5-1.8-0.6-2.6-0.3
	c0.2-0.3,0.3-0.8,0.4-1.2c0.1,0,0.1-0.1,0.2-0.1s0.1-0.1,0.2-0.1c0.1,0.7,0.9,0.8,1.5,0.7c0.9-0.1,1.5-0.8,2.3-1.3
	c0.1,0,0.1-0.1,0-0.1C76.1,17.2,76.1,17.1,76.1,17.1z M71.3,19.3c0,0-0.1,0-0.1,0c0,0,0,0.1,0,0.1c0.9-0.1,2.1-0.3,2.8,0.4
	c0.7,0.7,0.7,1.9,0.4,2.7c-0.3,0.8-0.8,1.5-1.5,2c-0.7,0.4-1.5,0.8-2.4,0.9c0,0,0,0,0,0c0,0,0,0,0,0c-0.2-0.3-0.3-0.7-0.7-0.8
	c-0.2,0-0.3,0.1-0.4,0.1c-0.3,0.1-0.7-0.1-0.9-0.4c-0.8-0.7-1.3-1.9-1.4-3c-0.1-1.1,0.3-2.2,1.1-2.9c0.5-0.4,1.1-0.6,1.7-0.4
	c0.5,0.2,1.1,0.6,1.2,1.2c0,0.1,0.1,0.1,0.1,0c0,0,0-0.1,0-0.1c0.3-0.4,0.3-0.9,0.3-1.4c0-0.4,0.1-1-0.1-1.4
	c0.4,0.3,0.3,0.9,0.3,1.3C71.5,18.4,71.3,18.8,71.3,19.3z M72.3,17.8c0.3-0.1,0.6-0.3,0.9-0.4c0.4-0.1,0.8-0.1,1.2-0.3
	c0,0,0-0.1,0-0.1c-0.7-0.1-1.4,0.1-2,0.5c0.1-0.2,0.2-0.3,0.4-0.5c0.3-0.2,0.6-0.4,1-0.4c0.4-0.1,0.8,0,1.2,0.1
	c0.3,0.1,0.6,0.3,0.9,0.4c-0.5,0.1-0.9,0.7-1.4,0.9C73.8,18.5,72.6,18.7,72.3,17.8z"/>
</svg>
