<?xml version="1.0" encoding="utf-8"?>
<!-- Generator: Adobe Illustrator 22.0.0, SVG Export Plug-In . SVG Version: 6.00 Build 0)  -->
<svg version="1.1" id="Layer_1" xmlns="http://www.w3.org/2000/svg" xmlns:xlink="http://www.w3.org/1999/xlink" x="0px" y="0px"
	 viewBox="0 0 1000 1000" style="enable-background:new 0 0 1000 1000;" xml:space="preserve">
<style type="text/css">
	.st0{fill:#D19F56;}
	.st1{fill:#76983C;}
	.st2{fill:#AF1500;}
	.st3{fill:#CE1F00;}
	.st4{fill:#EA7D42;}
</style>
<g>
	<path class="st0" d="M481,509.6c7.2-59.2,11.1-120-6.5-177.4c-17.5-57.4-63-108.9-124.7-129.5c-14.4,8-21.5,18.3-35.9,26.3
		c22.2,3.1,39.9,18.1,54.4,33.6c57.4,61.8,101.7,154.7,92.7,235.1C468.1,503.5,473.7,503.8,481,509.6z"/>
	<path class="st1" d="M481.3,509.6c-18.6-97.9,0.5-202.4,52.5-287.3C585.8,137.3,670.3,72.8,766,45c17.9,91.8-9.8,195.3-63.8,271.6
		C648.2,393,553.6,450.4,481.3,509.6z"/>
	<path class="st2" d="M834.6,552.2c-43.2,123-105.5,239.2-184,343.3c-16.1,21.4-34,43.1-58.9,53.1c-30.1,12.1-40-8.4-64.2-11.9
		c-1.7-0.2-3.4-0.3-5.1-0.3c-18,0.7-33,18.7-55.3,18c-25.8-0.7-32.4-16.4-49.8-29.7c-5.1-3.9-10.6-7.4-16.3-10.7
		c-13.5-7.7-28-14.2-40.7-22.5c-36.9-24.1-70.5-53.4-99.6-86.4c-57.1-64.8-97.6-144.6-113.6-229.7c-7.8-41.7-10.1-85.1,0.9-126.1
		c11-40.9,36.5-79.2,73.8-99.2c49.6-26.5,112.9-16.7,160.4,13.3c47.6,30,81.6,77.3,108.8,126.5c8.5-82,62.1-161.6,136.6-197
		c20.4-9.7,42.9-14.9,65.6-15.9c60.2-2.6,121.8,24.7,149.4,77.8C873.7,415.2,857,488.4,834.6,552.2z"/>
	<path class="st3" d="M691.8,403.6C678.5,527.4,638.7,648.3,576,755.9c-35.1,60.2-80.1,118.6-143.5,147.4
		c-10,4.5-20.6,8.2-31.4,10.8c-13.5-7.7-28-14.2-40.7-22.5c-36.9-24.1-70.5-53.4-99.6-86.4c-57.1-64.8-97.6-144.6-113.6-229.7
		c-7.8-41.7-10.1-85.1,0.9-126.1c11-40.9,36.5-79.2,73.8-99.2c49.6-26.5,112.9-16.7,160.4,13.3c47.6,30,81.6,77.3,108.8,126.5
		c8.5-82,62.1-161.6,136.6-197c20.4-9.7,42.9-14.9,65.6-15.9C697.8,319.1,696.3,361.7,691.8,403.6z"/>
	<circle class="st4" cx="301.1" cy="500.8" r="69.6"/>
</g>
</svg>
