<svg id="Layer_1" xmlns="http://www.w3.org/2000/svg" viewBox="0 0 1000 1000">
  <style>
    .st0{fill:#f4cf16}.st1{fill:#ffde17}.st3{fill:#754c29}
  </style>
  <path class="st0" d="M692 372s22.1-61.3 16.7-83.2c-3.8-15.2-20.5-57-12.3-84.5 12.9 42.3 29.7 64.9 44.9 76.9 12.2 9.7 23.5 12.5 30.9 13.1-3.5 4.1-6.7 9-9.1 15.3 0 0-10.6 42.3-.9 73.3C722.9 394.4 692 372 692 372z"/>
  <path class="st1" d="M100.7 505.6l25.1-30.5s220.7 118.4 329.1 70.8c108.4-47.6 143.6-78 181.8-127.1C674.9 369.6 692 372 692 372s30.9 22.4 70.2 10.9c.7 2.3 1.6 4.6 2.5 6.8 13.9 31.2 14.4 107.2-32.8 163.9-47.2 56.8-150.6 161.3-293.9 170C294.6 732.5 99.7 666 81.6 528.8l19.1-23.2z"/>
  <path d="M100.7 505.6c10.7 48.2 87.9 156.3 241.4 173 166.6 18.1 281.3-81.6 341.6-147.5 60.4-65.9 50.8-145.6 50.8-145.6s2-68.5 1.8-82.5c-.1-4.4 2-12.7 5-21.8 12.2 9.7 23.5 12.5 30.9 13.1-3.5 4.1-6.7 9-9.1 15.3 0 0-12.3 48.9 1.6 80.1 13.9 31.2 14.4 107.2-32.8 163.9-47.2 56.8-150.6 161.3-293.9 170C294.6 732.5 99.7 666 81.6 528.8l19.1-23.2z" opacity=".13" fill="#232323"/>
  <path class="st3" d="M696.4 204.3c3.6-12.3 12.2-21.7 29.2-24.6 54.9-9.4 84.4 54.6 79.7 77.7-3.7 18.1-15.3 36.5-33.1 36.9-17.9.4-52.4-13.7-75.8-90zM125.8 475.1s-20.5-33.3-39.5-15.1c-18.9 18.1-9.8 45-4.7 68.9 0-.1 23.1 10.6 44.2-53.8z"/>
  <g>
    <path class="st0" d="M397.3 369s1.3-65.1 14.2-83.7c8.9-12.8 39.5-45.9 41.7-74.4-27.2 34.8-50.9 49.9-69.4 55.7-14.9 4.7-26.4 3.3-33.5 1.2 1.8 5.1 3 10.8 3 17.5 0 0-5.2 43.3-25.4 68.7 32.5 24.9 69.4 15 69.4 15z"/>
    <path class="st1" d="M901.6 705.5L889.1 668s-248.5 31.5-332.6-51.8C472.3 533 450.3 492 432.2 432.5S397.3 369 397.3 369s-36.9 9.9-69.4-14.9c-1.5 1.9-3.1 3.8-4.8 5.5-24.2 24.2-51.8 94.9-28 164.8 23.7 69.9 82.8 204.5 213.5 264S845 855.7 911.1 734l-9.5-28.5z"/>
    <path d="M901.6 705.5c-27.2 41.2-138.1 114.4-287.3 75.1-162-42.7-233.4-176.9-266.2-260-32.8-83.1 4.8-154.1 4.8-154.1s22.6-64.7 27.8-77.7c1.6-4.1 2.6-12.6 3.2-22.2-14.9 4.7-26.4 3.3-33.5 1.2 1.8 5.1 3 10.8 3 17.5 0 0-6 50-30.2 74.2-24.2 24.2-51.8 94.9-28 164.8 23.7 69.9 82.8 204.5 213.5 264C639.3 847.9 845 855.7 911.1 734l-9.5-28.5z" opacity=".13" fill="#191919"/>
    <path class="st3" d="M453.2 210.9c1-12.8-3.7-24.6-18.4-33.4-47.9-28.5-98.4 20.7-102.2 44-3 18.2 1.2 39.6 17.7 46.3 16.4 6.8 53.7 6 102.9-56.9zM889.1 668s31.1-23.7 42.3 0c11.2 23.7-7 45.5-20.3 66 0 0-25.5 1.7-22-66z"/>
  </g>
</svg>
