<svg xmlns="http://www.w3.org/2000/svg" id="Layer_1" version="1" viewBox="0 0 1000 1000">
  <style>
    .st1{fill:#ffd57c}
  </style>
  <path fill="#fb7745" d="M210 776c84 50 190 74 298 69 228-12 406-176 396-365S700 146 472 158c-106 6-206 35-282 81-66 41-95 85-94 108 0 5 2 9 6 13 4 0 13-6 19-9 8-5 18-10 29-13 42-9 82-2 114 23 39 29 64 81 67 137 2 53-21 110-60 145-31 27-68 39-104 33-13-2-26-9-37-15-8-4-23-11-27-10l-1 1-1 7c1 26 40 76 109 117zm331-2s-60 40-68 22c-12-26 76-14 129-127 37-77 38-213 46-170 0 1 19 170-107 275zm-317-48c62 23 144-93 186-161 0 0 18-47 14-69v-4c-3-17-28-59-28-59-50-64-138-159-194-132-7 3-24 18-29-1-5-20 34-32 102-4 41 18 105 78 143 127 12 16 22 30 27 42 16 7 42 14 82 16l-2-8c-7-25-13-100-74-161-20-20-43-57-10-38 91 53 107 195 108 208a884 884 0 0 0 91-2c-8-30-25-111-56-162-65-106-151-85-143-112 7-19 70 15 70 15 126 83 135 234 136 258l64-8c6-28 14-81 7-123-14-77-3-129 6-77 0 0 31 135 1 197 77-17 109-43 121-58l-14-68s45 64 50 128c5 65-30 156-42 155-7-1 7-31 11-92-15-14-53-39-141-45 58 38 37 214 37 214-4 53-20 2-15-76 4-53-18-120-24-137l-1 1v-2c-18-2-38-2-60-2-1 7-3 6-5 0a851 851 0 0 0-96 10c3 2 4 6 5 13 0 0 4 154-87 219-30 23-11-16 7-38 54-67 52-143 56-169 2-12 8-21 13-24l-3-2c-42 7-70 16-87 25 10 32-93 171-153 204-64 35-105 27-102 7s22-7 29-5z"/>
  <path d="M509 856c234-12 416-181 406-377-10-195-209-344-443-332C230 160 82 286 85 348c0 8 4 15 10 20 6 6 16 2 31-7 9-5 18-10 26-12 39-8 76-1 105 21 36 28 60 76 62 129 3 49-19 102-56 135-27 25-61 36-94 31-11-2-23-8-34-14-20-10-33-16-41-7-3 4-5 9-5 16 2 29 42 82 115 126 86 51 194 76 305 70zM103 652v-1c4-1 19 7 27 10 11 7 24 13 37 15 37 6 73-6 104-33a188 188 0 0 0-7-282c-32-24-72-32-114-23-11 3-20 8-29 13-6 3-15 9-19 9-4-3-5-7-6-13-1-23 28-67 95-108 75-46 175-75 281-80 228-12 422 132 432 321S736 833 508 845c-108 6-214-19-298-69-69-41-108-91-109-116 0-4 0-7 2-8z" class="st1"/>
  <path d="M648 500c-7-43-9 92-46 169-53 113-141 101-129 127 8 18 68-22 68-22 126-105 107-274 107-274z" class="st1"/>
  <path d="M297 724c60-33 163-172 154-204 17-10 44-19 86-25l3 1c-5 4-11 13-13 25-4 26-2 102-56 168-18 23-37 61-6 39 90-66 86-219 86-219 0-7-2-11-5-13 1-1 2-1 2-3a873 873 0 0 1 95-7c2 6 3 7 4 0l60 1v3l1-1c6 17 28 84 25 137-6 78 10 129 14 76 0 0 21-177-37-214 88 6 126 30 141 44-4 62-18 92-11 93 12 1 47-91 42-155s-50-128-50-128c6 24 11 47 14 68-12 15-44 41-121 58 30-62-1-197-1-197-9-53-20 0-6 77 8 42-1 94-7 122-18 4-40 7-64 9 0-24-9-175-135-258 0 0-64-34-70-15-9 27 77 6 142 112 31 51 48 132 57 161a885 885 0 0 1-91 3c-2-14-17-155-109-208-33-19-10 17 10 38 61 61 67 136 74 161l3 8c-41-2-66-9-83-16a472 472 0 0 0-170-169c-68-28-107-16-102 3 5 20 22 5 29 2 56-27 144 68 194 132 0 0 25 42 28 59v4c4 22-14 69-14 69-42 68-124 184-186 161-7-2-26-15-29 5s38 28 102-7z" class="st1"/>
</svg>
