<svg xmlns="http://www.w3.org/2000/svg" id="Layer_1" version="1" viewBox="0 0 1000 1000">
  <style>
    .st24{fill:#f9f9d9}.st26{fill:#8dce1b}.st27{fill:#b70d16}.st28{fill:#c13127}.st29{fill:#cc1225}
  </style>
  <g id="EGG">
    <path fill="#fff" d="M110 440C57 391 73 159 251 69c221-112 455 31 477 73 46 89-247-58-416 47-170 105-96 347-202 251z"/>
    <path fill="#fbfbfb" d="M112 439C60 391 76 163 254 73c216-109 447 27 471 69 47 84-244-57-413 47-170 104-99 343-200 250z"/>
    <path fill="#f7f7f7" d="M113 438C63 391 80 167 257 78c212-107 439 22 465 64 47 79-242-57-411 47-168 104-101 339-198 249z"/>
    <path fill="#f3f3f3" d="M114 437C66 391 84 171 260 82c207-104 432 18 458 60 48 74-238-57-406 47S206 524 114 437z"/>
    <path fill="#efefef" d="M115 436C69 391 87 176 263 87c203-102 424 13 452 54 47 71-236-55-403 48-168 103-109 331-197 247z"/>
    <path fill="#ebebeb" d="M116 435C72 391 91 180 266 92c198-101 415 8 445 49 48 67-233-55-400 48-166 103-111 327-195 246z"/>
    <path fill="#e7e7e7" d="M118 434C75 391 95 184 269 96c194-98 407 3 439 45 47 62-230-55-396 48-167 103-115 322-194 245z"/>
    <path fill="#e3e3e3" d="M119 433c-41-41-21-244 153-332 189-96 399-2 433 40 46 58-228-54-393 48-166 102-118 318-193 244z"/>
    <path fill="#dfdfdf" d="M120 432c-40-40-18-239 155-327 185-93 391-6 426 35 46 55-224-53-389 49-166 102-121 314-192 243z"/>
    <path fill="#dbdbdb" d="M121 431c-38-39-15-234 157-321 180-91 383-11 420 30 45 51-222-53-386 49-165 102-124 310-191 242z"/>
    <path fill="#d7d7d7" d="M123 430c-37-38-14-228 158-316 176-88 374-15 413 26 45 46-218-52-382 49-165 101-127 305-189 241z"/>
    <path fill="#d2d2d2" d="M124 429c-35-37-11-223 161-310 170-86 365-20 406 21 43 43-216-52-379 49-164 101-130 301-188 240z"/>
    <path fill="#cecece" d="M125 428c-33-36-8-218 163-304 166-85 356-25 399 15 42 40-212-51-375 50-164 101-133 297-187 239z"/>
    <path fill="#cacaca" d="M126 427c-31-35-6-212 165-299 161-82 347-29 393 11 41 36-210-50-372 50-163 100-136 292-186 238z"/>
    <path fill="#c6c6c6" d="M127 426c-29-34-3-207 167-293 157-80 339-34 387 6 39 32-207-50-369 50-163 100-139 288-185 237z"/>
    <path fill="#c2c2c2" d="M129 425c-28-33-2-202 168-288 152-77 329-37 380 2 38 29-204-50-366 50-161 100-141 284-182 236z"/>
    <path fill="#bebebe" d="M130 424c-26-32 1-197 170-282 148-75 321-42 374-4 36 27-201-48-362 51-162 99-145 279-182 235z"/>
    <path fill="#bababa" d="M131 423c-24-31 4-191 172-277 143-72 312-45 367-8 35 23-198-48-358 51-161 99-148 275-181 234z"/>
    <path fill="#b6b6b6" d="M132 422c-22-30 7-186 174-271 139-70 302-49 361-13 33 20-195-48-355 51S161 459 132 422z"/>
    <path fill="#b2b2b2" d="M134 421c-21-29 8-181 175-266 134-68 293-51 355-18 32 18-193-46-352 52-160 98-154 266-178 232z"/>
    <path fill="#aeaeae" d="M135 420c-19-28 11-175 177-260 130-66 283-54 348-23 31 15-189-46-348 52S155 450 135 420z"/>
    <path fill="#aaa" d="M136 419c-17-27 14-170 179-254 125-64 274-56 342-28 29 12-187-46-346 52-158 98-158 257-175 230z"/>
    <g id="EGGS_1_">
      <g id="EGGS">
        <path fill="#f2f2f2" d="M172 577c-24 92-7 152 26 194 32 42 66 119 123 162 67 52 181 57 233 40 58-18 100-63 152-103 51-40 129-58 161-110 33-53 40-122 50-181 11-58-15-114-28-171-13-55-25-106-61-153-36-46-69-96-119-122-52-27-110-60-170-64-59-4-130 13-190 32-57 18-100 76-152 116-51 40-87 116-92 176-5 66 93 83 67 184z"/>
        <radialGradient id="SVGID_1_" cx="778" cy="1225" r="189" gradientTransform="rotate(142 771 810)" gradientUnits="userSpaceOnUse">
          <stop offset="0" stop-color="#ffdf07"/>
          <stop offset="0" stop-color="#ffdb09"/>
          <stop offset="1" stop-color="#ffd00d"/>
          <stop offset="1" stop-color="#ffbc15"/>
          <stop offset="1" stop-color="#ffa120"/>
          <stop offset="1" stop-color="#ffa120"/>
        </radialGradient>
        <path fill="url(#SVGID_1_)" d="M362 603a189 189 0 1 0 299-232 189 189 0 0 0-299 232z"/>
        <path d="M684 474c-2-21-11-35-19-31-12 6-21 19-16 36 14 48 9 58 9 77 0 5 30-23 26-82zM658 395c13 16 14 32 6 36-17 9-28 0-35-16-12-28-9-41-1-40 12 1 18 5 30 20z" class="st24"/>
      </g>
    </g>
  </g>
  <radialGradient id="SVGID_2_" cx="-1541" cy="1360" r="361" gradientTransform="matrix(.4038 -.0849 -.0885 -.4198 1040 1195)" gradientUnits="userSpaceOnUse">
    <stop offset="0" stop-color="#6fb801"/>
    <stop offset="1" stop-color="#388404"/>
  </radialGradient>
  <path fill="url(#SVGID_2_)" d="M423 718c-7 4-16 8-15 17 3 20 5 40 12 60 4 11 10 23 12 36 1 6 1 14-2 20-2 5-13-9-13-9l-1 12c-1 5-3 9-6 14-2 2-10 11-13 11-16-3-13-33-16-44l-4 14-7 20c-2 4-19 30-25 19-3-7-14 4-21 5-9 2-15-2-14-11 1-6 19-23 7-19-14 5-4-14-1-19l14-22 13-27c0-1 4-11-1-8-3 2-5 7-9 8s-11 7-13 11c-7 10-16 17-22 28-6 12-11 27-23 35-4 2-7 0-11 3-5 3-11 6-16 7-21 2 8-30 6-31-5-1-24 28-27 32-6 6-13 14-22 18-17 7-5-7-11-12-1-1-17 7-22 6-14-2-9-8-12-18-2-7-4-10 4-16 1-2 16-8 15-10 0-2-10-1-12-1-6-3-5-8-2-13 6-9 19-16 29-19l29-11c4-1 13-3 16-7 4-5-12-6-15-5-11 1-23 2-34 1-2-1-18-5-15-8 3-4-7-7-9-10-10-11 2-12 9-16l5-2c1-2-1-5 1-6 3-2 12 1 15 1 5 0 13 3 16 0 1-2-11-9-12-10-9-11 21-11 25-10l39 8c15 4 28-2 44-4l38-6c5-1 12-2 17-5 5-2 5-5-1-6-26-1-50 5-75 8l-27 3h-12c-6-1 4-8-2-13-5-4-16-6-19-12-3-4 3-7 6-10 6-6 17-4 25-7 2-1-7-4-7-4-7-1-14 0-20 1-7 1-12 1-18-1-7-3-20-11-13-18 2-3-18-13-16-22 0-3 7-5 10-7s5-7 7-7c5-2 10-1 15 0h13c12 2 22 6 33 11 7 2 67 23 67 25 0-4-48-27-51-30-16-12 14-8 15-12 0-2 17 3 18 3 14 2 3-6 10-10 13-8 34 7 44 15 14 11 20 27 27 43 4 11 13 36 29 32 6-1 12-7 16-12s3-14 7-19c-1 1 4 12 2 16-5 11-14 18-23 26z"/>
  <path d="M424 712c-12 6-24 12-34 21-7 14-5 11-7 19l3 17c3 5 11 6 15 12-5-3-11-5-14-10l7 26 10 11c6-2 12-6 17 1-7-5-9-1-17-1 7 7 14 11 15 21-4-13-14-15-24-30 4 17 6 20 5 37 2 4 6 8 8 20l-8-17v13c-3-15-1-22-3-34-1 10-6 20-8 29 0-16 5-20 8-30l-11-36c-1 8-1 17-3 25-1 4-4 7-7 10 2-3 5-7 6-11l4-25-4-23c-4 17-7 20-15 48 1 6 4 17 4 24-2-7-4-14-4-21l-8 27c2 8 5 16 2 25-1 5-5 10-7 15 2-8 6-12 6-20 2-9 0-12-1-20-6 15-11 14-15 25l3-7c6-11 10-20 13-33-13 10-32 16-40 31 7-17 25-22 40-31l8-30c-5 8-19 11-21 20l1-4c4-7 14-11 20-16l14-38v-4c-1-4 1-8 3-12-10 8-23 14-35 17-8 9-10 21-19 29l-5 3 5-4c7-8 9-20 17-27l-2 1c-16 8-30 15-44 25l-7 13c-1 10 4 22-1 30 3-9-2-19 0-29-6 12-8 24-12 36 3 12-1 17-4 28 1-5 4-10 4-16v-10c-5 15-9 20-13 25 4-7 7-11 12-33-5 12-21 22-22 35-1-14 17-26 22-38l3-9c-5 6-11 7-16 15 3-8 11-11 16-17 4-11 8-18 15-28-22 17-29 25-49 42-3 9-3 16-9 24l8-21 1-2-22 18c-2 7-1 15-4 22-4 9-12 15-17 24 4-10 13-17 16-28 2-6 2-12 5-18-18 14-30 20-43 25 7-3 19-9 36-22-7 2-15 3-22 6l-27 10c9-4 17-9 26-12 8-3 17-3 25-5l30-27c-13 1-25 2-38 5-11 2-20 7-31 10 11-4 20-9 31-12 13-3 26-3 38-3 2-1 37-35 53-45-12 3-21 3-29 3l-8 8-14 11 13-12 8-7c-9 0-18 0-25-2-18 5-43 19-61 12 19 5 41-9 60-12l-12-3c-8 2-16 0-24 0-11-1-22 1-33-5 14 5 18 1 35 3-8-4-11-7-22-11 9 1 14 5 23 11 7 1 13 2 20 1l-7-3c8 3 16 4 25 5l-3-7-4-4c-9-8-18-12-28-20 10 7 26 13 31 22l2 2c1 2 2 3 2 7l20 1c-5-4-7-10-9-16l10 16c11 0 17 0 32-2l23-13c-9 2-19 0-26-6 9 5 20 6 30 4 10-4 20-7 29-12-9 1-18 0-27-3l28 2c14-7 27-18 36-25l-2-1-9-7c-12-9-25-12-39-15-7 7-17 10-25 11 5-2 18-7 24-11l-29-5c-13 4-19 11-34 14-5 8-14 13-23 16 9-6 16-10 22-16-16 3-25 2-30 1l15-1-11-4-16-2-2-1c7 3 20-3 29 7l20-3c-3-8-15-15-22-20 7 4 20 11 22 20 10-3 20-9 30-11-27-6-52-18-78-25-6 2-17 7-23 8 7-4 15-7 22-8-28-8-28-15-50-17 21 1 42 12 62 18 16 4 32 16 49 18-11-5-14-9-17-12 16 15 37 15 68 20-10-12-14-14-18-16 8 2 14 8 18 17l15 3c-3-12-10-22-17-31l-6-8c-10-8-25-7-35-15 11 6 23 6 33 13-9-11-13-12-29-20 21 9 23 9 37 27l-1-10c-2-10-6-19-12-27 14 14 16 30 13 38 7 9 14 19 17 30v3l11 5c-2-19 1-18-5-33 7 11 7 16 6 33l10 8c3 2 7 5 11 6h1c6 1 12-2 18-2l3-1zm-23 6z" class="st26"/>
  <path d="M222 643c16 12 17 17 24 21h-1c-6-2-19-17-23-21 16 12 4 4 0 0zM266 661l-7-13c7 4 12 18 16 25a76 76 0 0 1-9-12zM363 679c0-11 4-10-2-27 8 12 4 18 2 27z" class="st26"/>
  <g>
    <path d="M205 395c4 15 20 22 37 23 19 2 37-12 39-31 0-9-1-18-6-25 6-5 9-13 10-23 1-19-14-36-34-37-16-2-32 5-38 19-22-7-43 11-45 33s14 44 37 41zm-2-67l10 1c5 0 8-1 10-6 3-8 15-13 28-12s25 15 24 28c0 10-4 15-6 17-5 4-6 9-2 14 2 2 6 7 6 17-2 12-17 25-31 25-17-1-28-9-30-17-1-5 1-8-4-9h-5l-6-1c-13-1-22-17-21-30 1-7 5-15 10-19 5-5 11-9 17-8z" class="st27"/>
    <path d="M207 391c3 13 18 20 33 21 17 2 33-11 35-28 0-8-1-16-6-22 6-5 8-12 9-21 2-17-12-32-30-33-14-2-28 4-34 17-19-6-38 9-40 29s13 40 33 37zm-2-60l9 1c5 0 8-1 9-5s3-7 8-10l5-2c5 0 8-2 12-1l9 2c5 2 3 4 6 5 6 3 7 6 9 10l1 5v6c-1 2 0 4-2 7l-3 2-2 6c-2 1-2 3-4 3h-4c-3 1 2 6 4 8 2 3 7 8 6 16l-3 9c0 4-2 4-4 6-2 3-4 6-8 7-5 0-7 2-11 1l-11-2-5-2-3-2-5-5c-3-2-4-3-4-5-1-5 0-8-4-8h-4l-6-1c-6 0-10-5-14-9l-3-4-2-5v-9l2-7 3-5c0-2 2-5 4-6s2-3 4-3c4-2 6-4 11-3z" class="st28"/>
    <path d="M200 392l5 1 1-1c2 1 2 5 3 7l6 6 9 6c7 4 16 5 24 4 13-1 25-12 29-25v-15l-5-11c-1-4 2-5 4-8s4-7 4-10c2-11 0-21-7-29-4-5-9-9-15-10-10-3-24-2-33 4l-12 13c0-3-11-1-14-1-5-1-8 2-12 5-4 2-8 4-10 8-3 6-6 11-7 18 0 6 3 13 4 19 1 5 4 7 7 10 3 4 7 7 11 9h8zm2-62c3-2 9 0 13 0 3 1 5 3 6-2 1-4 2-5 5-8l10-6c5-2 13-3 19-2 11 2 20 16 19 28l-2 9c-1 2-1 5-3 7l-4 4-2 4c0 3 2 3 4 6l5 11c0 7-4 16-9 21-11 9-33 9-43-1l-8-9-2-5c-1-4-2-2-5-2-4 0-8-1-11-3-3-1-9-4-11-8-3-3-4-11-4-15-2-7-1-12 3-17 1-2 8-9 20-12z" class="st29"/>
    <radialGradient id="SVGID_3_" cx="2106" cy="-163" r="62" gradientTransform="scale(-1) rotate(56 1126 -2466)" gradientUnits="userSpaceOnUse">
      <stop offset="0" stop-color="#fff6a9"/>
      <stop offset="0" stop-color="#fff4a8"/>
      <stop offset="0" stop-color="#ffeca3"/>
      <stop offset="0" stop-color="#ffdf9c"/>
      <stop offset="1" stop-color="#ffcd91"/>
      <stop offset="1" stop-color="#ffb583"/>
      <stop offset="1" stop-color="#ffa378"/>
      <stop offset="1" stop-color="#ff916a"/>
      <stop offset="1" stop-color="#ff6446"/>
      <stop offset="1" stop-color="#ff563b"/>
      <stop offset="1" stop-color="#e54022"/>
      <stop offset="1" stop-color="#d33212"/>
    </radialGradient>
    <path fill="url(#SVGID_3_)" d="M174 364c1 5 3 11 6 14l7 8c2 2 6 4 9 4h11l1 3c8 13 11 14 20 18 10 4 23 3 32-3a31 31 0 0 0 14-35l-4-7-1-2v-3c2-3 6-5 7-8 3-4 2-7 3-11 0-4 1-10-2-14-1-3-2-7-4-9l-8-7-9-3-9-1h-8c-8 1-15 5-20 11l-3 5-2 1h-1c-4-2-6-1-10-1h-7l-8 5c-3 2-6 3-7 5l-3 6-4 6c-2 5-1 13 0 18zm7-4c2-5-1-10 3-15 1-2 2-9 10-12 4-2 7-3 12-2l9 1c2 0 5 11 8 10 0 0 2-1 2-4-1-4-2-12-1-14 1-3 6-6 9-8 8-4 25-3 28 3 1 2 6 3 7 5 6 7 8 21 1 27-1 1-4 9-7 8s-7 0-10 1v3c-1 4 11 6 13 9 3 4 6 11 3 16l-4 10c-2 3-7 7-11 9l-10 1-11-2-8-4c-4-1-5-6-8-9-3-2-1-4 0-6 1-1 4-10 3-11-4-1-7 5-10 5l-10 1c-3 0-7-2-9-4-4-4-7-5-8-10 0-2-2-5-1-8z"/>
  </g>
  <g>
    <path fill="#739606" d="M585 186c-23 11-29 41-25 67 5 33 35 56 66 52 15-3 29-8 37-19 12 8 26 9 42 7 31-5 53-35 48-68-4-27-21-51-46-54 2-39-33-67-70-61-36 5-66 40-52 76zm108-30l1 17c2 8 6 12 14 14 14 2 27 20 30 40 3 23-15 48-36 51-16 2-26-1-31-4-8-6-16-6-22 2-3 4-9 13-25 16-21 3-48-18-52-40-5-28 3-49 16-55 8-4 13-2 12-11l-2-7-1-10c-3-22 21-42 42-46 11-1 26 2 35 9 9 6 17 14 19 24z"/>
    <path fill="#b0c655" d="M592 188c-20 10-25 36-22 60 4 30 31 50 59 46 13-2 25-7 33-17 11 8 23 9 37 7 28-5 48-32 43-61-3-24-19-45-41-49 2-34-30-59-62-54-33 4-59 35-47 68zm97-27c0 2 0 11 2 15 1 7 3 12 11 12 6 1 12 2 18 9l5 9c3 7 7 12 7 19v14c-1 9-5 7-6 12-2 12-6 15-12 18l-9 3c-2 2-6 4-9 3-4 0-7 2-11-1l-6-3-10-2c-3-1-6-1-6-4l-2-6c-2-5-8 5-12 9-2 4-9 14-23 16-4 1-9-3-16-2-6 1-8-2-11-4-6-3-12-5-14-11-3-7-6-11-6-17v-19c-1-3 1-6 1-8l1-6 6-10c3-5 3-7 8-9 6-4 12-2 10-10l-1-6-1-9c-1-11 4-18 10-27 1-3 3-3 5-6l8-5c3-3 10-3 14-3 4-1 9-2 13 0l9 2c3 0 9 2 11 5 1 2 5 3 7 5 4 6 7 9 9 17z"/>
    <path fill="#90ba0d" d="M588 176v9l2 1c-1 3-7 5-10 8l-8 11-7 17c-3 14-2 28 3 40 8 22 29 38 53 38 7 1 16-2 23-5l16-13c6-3 9 1 15 4 5 2 12 3 18 3 18-1 33-8 44-22 7-9 10-19 11-29 0-18-6-40-20-51-8-7-16-11-26-15 5-2-2-19-3-23-1-9-6-13-12-18s-11-11-18-13c-11-2-20-6-31-4s-21 9-30 14c-7 3-9 9-14 15-4 6-9 13-9 21l2 11 1 1zm102-20c2 5 2 15 3 20 1 7-3 10 6 10 7 1 9 2 15 6a56 56 0 0 1 24 43c0 19-18 39-38 42h-16l-12-2-8-5c-3-3-5-2-7-2-6 1-5 4-8 8-4 5-10 10-17 12-11 3-27 0-37-7-19-13-27-49-15-69 3-5 8-13 12-16l8-6c4-3 1-4 0-9-2-6-1-12 1-18 1-7 4-17 8-22 5-5 17-9 23-12 11-5 20-5 30-1 4 1 17 10 28 28z"/>
    <radialGradient id="SVGID_4_" cx="1993" cy="256" r="102" gradientTransform="scale(-1) rotate(56 1126 -2466)" gradientUnits="userSpaceOnUse">
      <stop offset="0" stop-color="#fff6d6"/>
      <stop offset="0" stop-color="#fef5d3"/>
      <stop offset="0" stop-color="#fbf2cb"/>
      <stop offset="0" stop-color="#f5edbc"/>
      <stop offset="0" stop-color="#ede7a7"/>
      <stop offset="1" stop-color="#e3de8c"/>
      <stop offset="1" stop-color="#d8d46d"/>
      <stop offset="1" stop-color="#cfd365"/>
      <stop offset="1" stop-color="#c0d443"/>
      <stop offset="1" stop-color="#bad436"/>
      <stop offset="1" stop-color="#90ba0d"/>
    </radialGradient>
    <path fill="url(#SVGID_4_)" d="M623 123c-8 4-16 9-21 16l-10 13c-3 5-4 12-3 17 0 2 3 5 2 8-1 4 2 6 2 9-1 3-3 3-4 4-18 17-18 23-21 39-3 18 2 38 16 51a52 52 0 0 0 63 9l9-9c1-1 2-3 3-2 2 0 4-2 5-1 5 2 10 7 16 9 7 2 12 0 19-1s17-3 22-8c4-4 10-6 13-11 2-4 7-10 8-15l3-15-3-15-4-14c-4-12-14-22-25-27l-9-4-3-2 1-3c0-6-1-9-3-15-1-4 0-8-2-12-3-5-8-8-12-12l-11-9c-3-2-7-2-10-3l-12-3c-9-2-21 2-29 6zm9 10c8 2 16-5 25-1 4 2 15 0 24 12 4 6 7 10 7 18l2 15c1 4-16 14-13 17 1 1 3 4 7 2 7-3 19-7 23-6 6 1 12 6 16 11 10 12 14 40 6 47-2 2-3 10-5 13-10 13-31 21-43 12-3-2-17-4-17-8 1-6-3-12-4-16-1-2-3 0-5 0-7 1-6 20-10 25-6 6-16 14-24 11-4-2-14 0-18-2-6-3-15-9-18-14-3-4-5-9-7-17-2-7 0-14 0-18l2-15c1-7 8-10 11-17 3-5 7-3 10-2 4 2 19 3 19 1 1-7-10-10-11-14l-5-17c-2-4 0-11 3-16 4-7 5-12 13-16 2-1 8-6 12-5z"/>
  </g>
  <g>
    <path fill="#ffd423" d="M121 553c-19 17-17 47-6 72 13 31 48 45 77 33 15-6 26-15 32-28 13 5 27 2 42-4 29-12 42-47 29-78-11-25-34-44-59-41-7-38-49-56-83-41-34 14-54 56-32 87zm98-57l5 16c4 8 9 11 17 10 15-1 31 13 40 32 9 21-2 50-22 58-15 7-26 6-31 4-10-3-17-2-21 8-2 5-6 15-20 22-20 8-52-5-61-26-12-25-10-47 1-57 7-6 13-6 9-13l-3-7c-2-2-3-8-4-10-9-20 9-46 29-55 10-4 25-4 36 0 10 3 21 9 25 18z"/>
    <path fill="#ffd731" d="M129 553c-17 15-15 42-6 64 12 28 43 41 69 30 13-6 23-13 28-25 12 4 25 2 38-3 26-12 38-43 26-71-10-22-30-39-52-36-7-34-45-50-75-37s-48 50-28 78zm87-51c1 2 3 10 6 14 3 7 6 11 14 9 6-1 12-1 19 4l8 8c4 5 10 9 11 16l4 14c2 9-3 8-3 14 2 11-2 15-7 19l-7 6c-2 3-6 5-8 5-5 1-7 3-12 2l-6-1h-10c-3 0-6 1-7-2l-4-6c-3-4-6 7-9 13-1 4-5 15-18 21-4 2-9-1-16 2-6 3-8 0-12-1-6-1-12-2-16-7-5-6-9-9-11-15l-5-18-1-9v-6l3-11c1-6 1-8 5-11 6-5 11-5 8-12l-3-6-3-9c-4-9-1-18 2-28l4-7 6-7c2-3 10-5 14-7 3-1 7-3 11-2l10-1c3-1 9 0 12 2 2 2 6 1 8 4 5 4 10 6 13 13z"/>
    <path fill="#ffdf39" d="M121 542l3 9 3 1c-1 3-6 7-8 10-3 4-4 9-5 13-2 6-2 12-2 19 0 13 5 27 13 38 13 19 38 28 61 23 7-2 15-6 21-11 5-5 7-12 12-16 5-5 9-2 15-1s13 0 19-2c17-5 30-16 37-33 4-10 6-20 3-31-4-17-16-37-32-44-9-5-19-6-29-8 4-3-7-18-9-22-4-7-9-10-17-14-7-3-13-8-21-7-11 0-20-1-30 3-11 5-18 15-26 22-6 5-6 11-9 18-4 7-6 15-4 23l5 10zm94-45c4 4 7 14 9 19 2 6 0 10 9 8 6-1 9-1 15 2 6 2 13 6 17 9 8 6 15 17 18 26 5 19-8 43-26 51l-16 4-12 1-9-3c-3-1-5 0-7 1-5 2-4 4-6 9-3 6-7 13-13 16-10 6-26 7-37 3-22-8-40-41-34-63 2-6 5-15 9-19l5-7c4-4 0-5-2-9-3-6-4-12-4-18 0-7 0-17 3-23 3-7 13-14 19-18 9-8 18-10 29-9 4 0 18 6 33 20z"/>
    <radialGradient id="SVGID_5_" cx="1964" cy="-315" r="103" gradientTransform="scale(-1) rotate(56 1126 -2466)" gradientUnits="userSpaceOnUse">
      <stop offset="0" stop-color="#fff6d6"/>
      <stop offset="0" stop-color="#fef5d3"/>
      <stop offset="0" stop-color="#fcf4cb"/>
      <stop offset="0" stop-color="#f9f0bc"/>
      <stop offset="1" stop-color="#f3eca7"/>
      <stop offset="1" stop-color="#ede68c"/>
      <stop offset="1" stop-color="#ede688"/>
      <stop offset="1" stop-color="#eee77b"/>
      <stop offset="1" stop-color="#eee866"/>
      <stop offset="1" stop-color="#efe954"/>
      <stop offset="1" stop-color="#fbef6c"/>
      <stop offset="1" stop-color="#ffdf39"/>
    </radialGradient>
    <path fill="url(#SVGID_5_)" d="M142 483c-7 5-13 12-16 20-2 6-5 10-6 16-1 5-2 12 1 17 1 1 4 4 4 7 0 4 3 5 5 8-1 3-3 4-4 5-13 21-11 27-10 43 2 19 12 36 29 46a52 52 0 0 0 63-8l7-10 1-4c3 0 4-2 5-2l18 5c7 0 12-3 19-6 6-2 15-7 19-13 3-5 8-8 9-14 2-5 4-11 4-17l-1-15c-1-5-4-9-6-13l-8-14c-6-10-19-18-31-20l-10-1-3-1v-3c-1-6-4-9-6-14-2-4-3-8-6-11-4-4-9-6-14-9-5-1-9-5-14-6l-10 1-12-1c-10 0-20 8-27 14zm11 7c9-1 14-9 24-8 4 1 15-3 26 5 6 5 10 9 12 16l6 15c2 3-12 17-8 19 1 1 3 3 7 1 6-5 17-12 21-13 6-1 13 3 18 7 13 9 24 35 18 44l-2 14c-5 15-24 29-38 23-3-1-17 0-18-4-1-6-6-11-8-14-2-2-4 0-6 1-6 3 0 22-3 27-4 8-11 18-20 17-4-1-13 3-18 2-6-1-17-4-21-9-4-3-8-7-11-14-4-6-4-13-5-17l-2-16c0-7 6-12 7-19 1-6 6-5 9-4 4 0 19-3 18-5 0-6-11-7-14-10l-9-15c-3-4-2-11-1-17 2-8 2-13 8-19 2-1 6-7 10-7z"/>
  </g>
  <g>
    <path d="M681 801c21-17 19-51 8-78a65 65 0 0 0-84-38c-16 6-29 16-35 30-15-6-30-3-46 3a65 65 0 0 0-34 86c11 27 36 48 63 46 8 42 54 62 91 47 38-15 61-60 37-96zm-108 61c-1-3-3-13-6-18-5-8-9-12-18-11-17 1-35-15-43-36-9-23 3-55 25-63 17-7 29-6 34-4 10 4 19 2 23-8 2-6 7-17 23-23 22-9 56 6 66 29 13 28 10 52-3 63-7 5-13 5-10 14l4 7c2 2 3 9 4 11 9 23-11 51-33 60-11 4-28 4-39 0-12-5-23-11-27-21z" class="st27"/>
    <path d="M673 801c19-16 17-45 7-70a58 58 0 0 0-75-34c-14 6-26 14-31 27a58 58 0 0 0-72 79c10 25 32 43 57 41 7 38 47 56 81 42 34-13 54-53 33-85zm-97 54l-6-15c-4-8-7-12-16-11-7 2-13 1-21-5l-8-7c-4-7-10-11-12-19 0-4-3-10-4-15-1-9 4-9 3-15-1-12 3-16 9-22 2-2 6-3 8-6s6-5 9-5c5-1 7-4 13-2l6 2 12-1c3 1 6 0 8 3l3 6c4 5 7-7 10-13 2-5 6-17 21-23 4-2 10 1 18-2 6-3 8 0 13 1 7 2 13 3 17 8 5 7 10 10 12 17l5 20v10l1 6-4 12c-2 7-2 9-6 13-6 5-12 5-9 12l3 7c2 2 3 8 4 10 4 10 0 20-4 31l-4 7c-1 3-6 5-7 8-2 4-10 5-15 7-4 2-8 4-13 3h-10c-4 1-10 0-13-2l-9-4c-6-6-11-8-14-16z" class="st28"/>
    <path d="M680 813c-1-4 0-6-2-10h-3c0-4 6-8 9-11l5-14 3-21c0-15-5-30-13-42a65 65 0 0 0-67-27c-8 2-17 7-23 12s-8 13-14 18-10 1-17 0c-6-1-14-1-20 1-19 6-34 18-42 36-5 11-6 22-4 34 4 19 17 41 35 49 10 6 20 7 31 9-4 3 8 20 10 24 3 9 10 12 18 16 7 4 14 9 22 9 13 0 23 1 34-3 12-5 20-16 29-23 7-6 7-12 11-20 3-7 6-16 4-25l-5-11-1-1zm-104 48c-4-5-6-15-9-21-2-7 1-11-9-9-7 1-10 0-17-2-6-2-14-7-19-11-8-7-15-19-18-29-6-21 9-46 29-55l17-4c4-1 10-2 14-1l9 3c4 2 6 1 8 0 7-2 5-5 7-10 3-7 8-14 15-18 11-6 29-7 41-2 24 9 43 46 35 70-2 6-5 16-9 21l-7 7c-4 5 0 6 3 10 3 7 3 13 4 20 0 8-1 19-4 25-3 7-15 15-22 20-10 7-19 10-31 9-4-1-21-7-37-23z" class="st29"/>
    <radialGradient id="SVGID_6_" cx="1537" cy="-94" r="113" gradientTransform="scale(-1) rotate(56 1126 -2466)" gradientUnits="userSpaceOnUse">
      <stop offset="0" stop-color="#fff6a9"/>
      <stop offset="0" stop-color="#fff4a8"/>
      <stop offset="0" stop-color="#ffeca3"/>
      <stop offset="0" stop-color="#ffdf9c"/>
      <stop offset="1" stop-color="#ffcd91"/>
      <stop offset="1" stop-color="#ffb583"/>
      <stop offset="1" stop-color="#ffa378"/>
      <stop offset="1" stop-color="#ff916a"/>
      <stop offset="1" stop-color="#ff6446"/>
      <stop offset="1" stop-color="#ff563b"/>
      <stop offset="1" stop-color="#e54022"/>
      <stop offset="1" stop-color="#d33212"/>
    </radialGradient>
    <path fill="url(#SVGID_6_)" d="M656 878c8-6 15-13 18-22l8-17c1-6 1-13-1-19-1-1-4-4-4-7 0-5-4-6-5-10 0-3 2-4 3-5 15-23 14-30 12-47-1-21-12-40-30-51a57 57 0 0 0-70 7l-7 12-2 3-6 3c-6-2-12-6-19-6-8 0-13 3-20 6-8 2-18 7-22 14-3 5-9 9-10 15-2 6-5 12-5 19l1 16c1 6 4 10 6 15l8 15c7 11 21 20 34 22l10 2 4 1v4c1 6 4 9 7 15 2 4 2 8 6 12 4 5 10 7 15 10 5 2 10 6 15 7h24c11 1 22-7 30-14zm-12-8c-10 0-16 10-26 8-5-1-17 4-29-6-6-6-10-9-13-18-1-5-3-11-6-16-1-3 14-19 10-21-1-1-4-4-8-1-7 5-19 13-23 13-7 1-15-3-20-7-14-10-26-39-19-49 2-3 1-12 2-15 7-17 27-31 43-25 3 2 19 0 20 5 0 7 6 12 9 15 1 2 3 0 6-1 7-3 0-23 4-29 4-8 13-20 22-18 5 0 15-4 20-2 7 1 19 5 24 10 3 3 7 8 11 16 4 7 4 15 5 19l1 17c1 7-6 13-7 20-2 7-7 6-11 5-4 0-20 2-20 5 1 7 13 7 16 11l9 17c4 4 3 12 1 18-2 9-2 15-9 21-2 2-7 8-12 8z"/>
  </g>
</svg>
