<svg version="1" id="Layer_1" xmlns="http://www.w3.org/2000/svg" viewBox="0 0 1000 1000">
  <style>
    .st1{fill:#ffcf6e}.st4{fill:#f76e63}.st7{fill:#4f6947}
  </style>
  <path d="M866 258a136 136 0 0 0-18-39c-6 19-16 44-26 44-17 0-31-22-19-45l13-24c-31-12-63 1-63 1-81-80-154-27-154-27-27-10-50-13-68-9-7 15 1 35 8 45 10 12 18 29-12 30-24 0-33-40-36-54-11 11-19 26-24 43-21 66-11 167-3 249 14 148 108 127 108 127 78 79 161 8 161 8 11 1 22-2 32-8 76-45 125-255 101-341z" fill="#fdb402"/>
  <path class="st1" d="M527 234c29-1 22-18 12-30-7-10-15-30-8-45-14 2-26 7-35 16l-5 5c3 14 12 54 36 54zM822 263c10 0 20-25 26-44-10-13-21-21-32-25-3 5-8 12-13 24-12 23 2 45 19 45z"/>
  <path d="M623 237s48-5 84 14c0 0 17-78 53-87 35-10 75-20 49-44s-70-23-86 8c-16 32-40 82-100 109z" fill="#7b8321"/>
  <path class="st1" d="M572 263s36-42 100-31c64 12 75 60 31 47-43-13-96-13-104-8-9 5-43 13-27-8zM558 346s-5 130 10 168c14 38 22-14 18-35s0-115 7-139c8-25-35-37-35 6z"/>
  <path d="M488 263a136 136 0 0 0-18-39c-6 19-15 45-26 45-16 0-30-22-19-46l13-24c-31-12-62 2-62 2-81-81-154-28-154-28-28-10-50-12-69-9-7 15 1 35 9 46 9 12 17 28-13 29-24 1-33-40-36-54-10 11-18 26-24 44-21 65-11 167-3 248 15 149 108 128 108 128 79 78 162 8 162 8 11 0 21-3 31-9 76-44 126-255 101-341z" fill="#ed1c0f"/>
  <path class="st4" d="M150 239c29-1 21-17 12-29-8-11-16-31-9-46-13 2-25 8-35 16l-4 5c2 14 11 55 36 54zM444 269c11 0 20-26 26-45-9-13-21-20-32-25l-13 24c-11 24 3 46 19 46z"/>
  <path d="M245 242s48-4 85 14c0 0 17-77 52-87s75-20 49-43-69-24-86 8c-16 32-39 81-100 108z" fill="#334e26"/>
  <path class="st4" d="M194 268s37-42 101-30 74 59 31 46-97-13-105-8-42 13-27-8zM180 351s-5 130 10 168 22-13 18-34 0-116 8-140c7-24-36-37-36 6z"/>
  <g>
    <path d="M712 477a143 143 0 0 0-18-39c-6 19-16 45-26 45-16 0-31-22-19-46l13-24c-31-12-63 2-63 2-81-81-153-28-153-28-28-10-51-12-69-9-7 15 1 35 8 46 10 12 18 29-12 29-24 1-33-40-36-54-11 11-19 26-24 44-21 65-11 167-3 248 14 149 108 128 108 128 78 78 161 8 161 8 11 0 22-3 32-9 76-44 125-255 101-341z" fill="#133009"/>
    <path class="st7" d="M373 453c30-1 22-17 12-29-7-11-15-31-8-46-14 2-25 8-35 16l-5 5c3 14 12 55 36 54zM668 483c10 0 20-26 26-45-10-13-21-20-32-25l-13 24c-12 24 2 46 19 46z"/>
    <path d="M469 456s48-4 84 14c0 0 18-77 53-87s75-20 49-43c-27-24-70-24-86 8s-40 81-100 108z" fill="#697e32"/>
    <path class="st7" d="M418 482s36-42 100-30c64 11 75 59 31 46-43-13-96-13-104-8s-43 13-27-8zM404 565s-5 130 10 168 22-13 18-34 0-115 7-140c8-24-35-37-35 6z"/>
  </g>
</svg>
