<svg xmlns="http://www.w3.org/2000/svg" version="1" viewBox="0 0 1000 1000">
  <path fill="#64a51a" d="M942 246L13 379a480 480 0 0 0 480 319c205-20 423-248 449-452z"/>
  <path fill="#ea7d42" d="M905 251c-24 189-224 398-413 417A442 442 0 0 1 50 374l855-123z"/>
  <path fill="#ce1f00" d="M823 263c-33 92-75 180-138 250-81 91-206 146-320 108-68-23-125-76-169-138-26-37-48-78-68-120l695-100z"/>
  <path d="M303 394l-5-6c-3-4-9-3-10 1l-3 8c-3 10 0 20 9 26 3 2 6 1 8-1 7-8 7-19 1-28zM464 371l-5-6c-3-4-9-3-10 1l-3 8c-3 10 0 20 9 26 2 2 6 1 8-1 6-8 7-19 1-28zM414 480l-5-7c-3-4-9-3-10 2l-3 7c-4 10 0 21 9 27 2 1 5 1 7-1 7-8 8-20 2-28zM321 520l-5-7c-3-4-9-3-10 2l-3 7c-3 10 0 21 9 27 2 1 6 1 8-1 6-8 7-20 1-28zM580 344l-5-6c-2-4-8-3-10 1l-2 8c-4 10 0 21 8 26 3 2 6 1 8-1 7-8 7-19 1-28zM702 337l-5-7c-2-3-8-3-10 2l-2 8c-4 9 0 20 8 26 3 2 6 1 8-1 7-8 7-19 1-28zM643 447l-5-7c-2-3-8-3-10 2l-3 8c-3 9 1 20 9 26 3 2 6 1 8-1 7-8 7-20 1-28zM508 533l-5-7c-3-4-9-3-10 1l-3 8c-3 10 0 21 9 27 2 1 6 1 8-2 6-8 7-19 1-27z"/>
</svg>
